<svg xmlns="http://www.w3.org/2000/svg" xmlns:xlink="http://www.w3.org/1999/xlink" width="500" zoomAndPan="magnify" viewBox="0 0 375 374.999991" height="500" preserveAspectRatio="xMidYMid meet" version="1.0"><defs><g/></defs><g fill="#545454" fill-opacity="1"><g transform="translate(187.906367, 245.629164)"><g><path d="M 104.535156 -131.496094 C 104.535156 -154.882812 90.988281 -179.804688 55.207031 -179.804688 C 24.410156 -179.804688 3.066406 -159.738281 3.066406 -132.519531 L 3.066406 -44.472656 C 3.066406 -13.671875 27.476562 2.9375 55.207031 2.9375 C 83.066406 2.9375 105.300781 -13.671875 105.300781 -44.472656 L 105.300781 -65.683594 C 105.300781 -69.519531 104.148438 -70.414062 100.570312 -70.414062 L 66.453125 -70.414062 C 63.128906 -70.414062 62.363281 -69.136719 62.363281 -65.300781 L 62.363281 -47.15625 C 62.363281 -42.9375 61.59375 -38.59375 55.589844 -38.59375 C 50.351562 -38.59375 49.070312 -42.9375 49.070312 -47.15625 L 49.070312 -130.476562 C 49.070312 -134.566406 51.117188 -138.398438 55.589844 -138.398438 C 60.445312 -138.398438 61.722656 -133.414062 61.722656 -130.09375 L 61.722656 -116.289062 C 61.722656 -112.710938 62.746094 -111.050781 65.941406 -111.050781 L 99.933594 -111.050781 C 103.640625 -111.050781 104.535156 -112.839844 104.535156 -117.058594 Z M 104.535156 -131.496094 "/></g></g></g><g fill="#545454" fill-opacity="1"><g transform="translate(183.28421, 69.595874)"><g><path d="M -104.535156 131.496094 C -104.535156 154.882812 -90.988281 179.804688 -55.207031 179.804688 C -24.410156 179.804688 -3.066406 159.738281 -3.066406 132.519531 L -3.066406 44.472656 C -3.066406 13.671875 -27.476562 -2.9375 -55.207031 -2.9375 C -83.066406 -2.9375 -105.300781 13.671875 -105.300781 44.472656 L -105.300781 65.683594 C -105.300781 69.519531 -104.148438 70.414062 -100.570312 70.414062 L -66.453125 70.414062 C -63.128906 70.414062 -62.363281 69.136719 -62.363281 65.300781 L -62.363281 47.15625 C -62.363281 42.9375 -61.59375 38.59375 -55.589844 38.59375 C -50.351562 38.59375 -49.070312 42.9375 -49.070312 47.15625 L -49.070312 130.476562 C -49.070312 134.566406 -51.117188 138.398438 -55.589844 138.398438 C -60.445312 138.398438 -61.722656 133.414062 -61.722656 130.09375 L -61.722656 116.289062 C -61.722656 112.710938 -62.746094 111.050781 -65.941406 111.050781 L -99.933594 111.050781 C -103.640625 111.050781 -104.535156 112.839844 -104.535156 117.058594 Z M -104.535156 131.496094 "/></g></g></g><g fill="#8c52ff" fill-opacity="1"><g transform="translate(102.212643, 281.082218)"><g><path d="M 14.371094 -20.257812 C 4.980469 -20.257812 0.566406 -16.351562 0.566406 -9.902344 C 0.566406 -3.453125 4.980469 0.453125 14.371094 0.453125 C 22.351562 0.453125 26.707031 -2.375 27.839844 -7.128906 L 20.484375 -7.128906 C 19.519531 -5.828125 17.597656 -5.09375 14.597656 -5.09375 C 9.84375 -5.09375 7.921875 -6.902344 7.921875 -9.902344 C 7.921875 -12.902344 9.84375 -14.710938 14.597656 -14.710938 C 17.597656 -14.710938 19.519531 -13.976562 20.484375 -12.675781 L 27.839844 -12.675781 C 26.707031 -17.425781 22.351562 -20.257812 14.371094 -20.257812 Z M 14.371094 -20.257812 "/></g></g></g><g fill="#8c52ff" fill-opacity="1"><g transform="translate(130.616652, 281.082218)"><g><path d="M 8.035156 -14.257812 L 14.144531 -14.257812 C 14.882812 -14.257812 15.277344 -13.917969 15.277344 -13.183594 C 15.277344 -12.449219 14.882812 -11.996094 14.144531 -11.996094 L 8.035156 -11.996094 Z M 8.035156 -6.507812 L 14.144531 -6.507812 C 14.769531 -6.507812 15.277344 -5.996094 15.277344 -5.375 L 15.277344 -1.414062 C 15.277344 -0.792969 15.558594 -0.113281 16.125 0 L 23.480469 0 C 22.859375 -0.28125 22.632812 -0.734375 22.632812 -1.414062 L 22.632812 -6.109375 C 22.632812 -7.496094 21.953125 -8.796875 20.90625 -9.648438 C 22.011719 -10.582031 22.632812 -12.082031 22.632812 -14.144531 C 22.632812 -18.050781 20.425781 -19.804688 16.691406 -19.804688 L 0.679688 -19.804688 L 0.679688 0 L 8.035156 0 Z M 8.035156 -6.507812 "/></g></g></g><g fill="#8c52ff" fill-opacity="1"><g transform="translate(154.380983, 281.082218)"><g><path d="M 0.847656 -19.804688 L 0.847656 0 L 8.203125 0 L 8.203125 -19.804688 Z M 0.847656 -19.804688 "/></g></g></g><g fill="#8c52ff" fill-opacity="1"><g transform="translate(163.434057, 281.082218)"><g><path d="M 11.824219 -20.257812 C 4.355469 -20.257812 0.847656 -17.878906 0.847656 -14.03125 C 0.847656 -11.484375 2.148438 -9.730469 5.488281 -8.769531 L 14.542969 -6.449219 C 15.445312 -6.167969 15.730469 -5.996094 15.730469 -5.546875 C 15.730469 -4.867188 14.597656 -4.414062 12.5625 -4.414062 C 9.5625 -4.414062 7.921875 -5.09375 7.921875 -6.335938 L 0.566406 -6.335938 C 0.566406 -2.660156 3.789062 0.453125 11.824219 0.453125 C 19.859375 0.453125 23.085938 -1.980469 23.085938 -5.65625 C 23.085938 -8.488281 21.839844 -10.015625 18.785156 -10.863281 L 9.335938 -13.351562 C 8.714844 -13.523438 8.203125 -13.863281 8.203125 -14.429688 C 8.203125 -15.105469 9.109375 -15.390625 10.863281 -15.390625 C 13.691406 -15.390625 15.445312 -14.597656 15.445312 -13.464844 L 22.746094 -13.464844 C 22.746094 -17.878906 19.292969 -20.257812 11.824219 -20.257812 Z M 11.824219 -20.257812 "/></g></g></g><g fill="#8c52ff" fill-opacity="1"><g transform="translate(187.028628, 281.082218)"><g><path d="M 0.28125 -19.804688 L 0.28125 -14.257812 L 7.582031 -14.257812 L 7.582031 0 L 14.9375 0 L 14.9375 -14.257812 L 22.179688 -14.257812 L 22.179688 -19.804688 Z M 0.28125 -19.804688 "/></g></g></g><g fill="#8c52ff" fill-opacity="1"><g transform="translate(209.491569, 281.082218)"><g><path d="M 0.847656 -19.804688 L 0.847656 0 L 8.203125 0 L 8.203125 -19.804688 Z M 0.847656 -19.804688 "/></g></g></g><g fill="#8c52ff" fill-opacity="1"><g transform="translate(218.544643, 281.082218)"><g><path d="M 8.375 -19.804688 L 0.28125 0 L 8.203125 0 L 9.390625 -2.941406 L 18.445312 -2.941406 L 19.632812 0 L 27.613281 0 L 19.519531 -19.804688 Z M 16.183594 -8.488281 L 11.65625 -8.488281 L 13.917969 -14.03125 Z M 16.183594 -8.488281 "/></g></g></g><g fill="#8c52ff" fill-opacity="1"><g transform="translate(246.38285, 281.082218)"><g><path d="M 0.847656 -19.804688 L 0.847656 0 L 8.203125 0 L 8.203125 -10.863281 L 19.691406 0 L 25.574219 0 L 25.574219 -19.804688 L 18.21875 -19.804688 L 18.21875 -8.941406 L 6.789062 -19.804688 Z M 0.847656 -19.804688 "/></g></g></g><g fill="#8c52ff" fill-opacity="1"><g transform="translate(110.252314, 319.982069)"><g><path d="M 14.371094 -20.257812 C 4.980469 -20.257812 0.566406 -16.351562 0.566406 -9.902344 C 0.566406 -3.453125 4.980469 0.453125 14.371094 0.453125 C 22.351562 0.453125 26.707031 -2.375 27.839844 -7.128906 L 20.484375 -7.128906 C 19.519531 -5.828125 17.597656 -5.09375 14.597656 -5.09375 C 9.84375 -5.09375 7.921875 -6.902344 7.921875 -9.902344 C 7.921875 -12.902344 9.84375 -14.710938 14.597656 -14.710938 C 17.597656 -14.710938 19.519531 -13.976562 20.484375 -12.675781 L 27.839844 -12.675781 C 26.707031 -17.425781 22.351562 -20.257812 14.371094 -20.257812 Z M 14.371094 -20.257812 "/></g></g></g><g fill="#8c52ff" fill-opacity="1"><g transform="translate(138.656323, 319.982069)"><g><path d="M 8.375 -19.804688 L 0.28125 0 L 8.203125 0 L 9.390625 -2.941406 L 18.445312 -2.941406 L 19.632812 0 L 27.613281 0 L 19.519531 -19.804688 Z M 16.183594 -8.488281 L 11.65625 -8.488281 L 13.917969 -14.03125 Z M 16.183594 -8.488281 "/></g></g></g><g fill="#8c52ff" fill-opacity="1"><g transform="translate(166.49453, 319.982069)"><g><path d="M 11.824219 -20.257812 C 4.355469 -20.257812 0.847656 -17.878906 0.847656 -14.03125 C 0.847656 -11.484375 2.148438 -9.730469 5.488281 -8.769531 L 14.542969 -6.449219 C 15.445312 -6.167969 15.730469 -5.996094 15.730469 -5.546875 C 15.730469 -4.867188 14.597656 -4.414062 12.5625 -4.414062 C 9.5625 -4.414062 7.921875 -5.09375 7.921875 -6.335938 L 0.566406 -6.335938 C 0.566406 -2.660156 3.789062 0.453125 11.824219 0.453125 C 19.859375 0.453125 23.085938 -1.980469 23.085938 -5.65625 C 23.085938 -8.488281 21.839844 -10.015625 18.785156 -10.863281 L 9.335938 -13.351562 C 8.714844 -13.523438 8.203125 -13.863281 8.203125 -14.429688 C 8.203125 -15.105469 9.109375 -15.390625 10.863281 -15.390625 C 13.691406 -15.390625 15.445312 -14.597656 15.445312 -13.464844 L 22.746094 -13.464844 C 22.746094 -17.878906 19.292969 -20.257812 11.824219 -20.257812 Z M 11.824219 -20.257812 "/></g></g></g><g fill="#8c52ff" fill-opacity="1"><g transform="translate(190.089101, 319.982069)"><g><path d="M 0.28125 -19.804688 L 0.28125 -14.257812 L 7.582031 -14.257812 L 7.582031 0 L 14.9375 0 L 14.9375 -14.257812 L 22.179688 -14.257812 L 22.179688 -19.804688 Z M 0.28125 -19.804688 "/></g></g></g><g fill="#8c52ff" fill-opacity="1"><g transform="translate(212.552042, 319.982069)"><g><path d="M 8.035156 -14.257812 L 14.144531 -14.257812 C 14.882812 -14.257812 15.277344 -13.917969 15.277344 -13.183594 C 15.277344 -12.449219 14.882812 -11.996094 14.144531 -11.996094 L 8.035156 -11.996094 Z M 8.035156 -6.507812 L 14.144531 -6.507812 C 14.769531 -6.507812 15.277344 -5.996094 15.277344 -5.375 L 15.277344 -1.414062 C 15.277344 -0.792969 15.558594 -0.113281 16.125 0 L 23.480469 0 C 22.859375 -0.28125 22.632812 -0.734375 22.632812 -1.414062 L 22.632812 -6.109375 C 22.632812 -7.496094 21.953125 -8.796875 20.90625 -9.648438 C 22.011719 -10.582031 22.632812 -12.082031 22.632812 -14.144531 C 22.632812 -18.050781 20.425781 -19.804688 16.691406 -19.804688 L 0.679688 -19.804688 L 0.679688 0 L 8.035156 0 Z M 8.035156 -6.507812 "/></g></g></g><g fill="#8c52ff" fill-opacity="1"><g transform="translate(236.316372, 319.982069)"><g><path d="M 14.203125 -20.257812 C 4.921875 -20.257812 0.566406 -16.351562 0.566406 -9.902344 C 0.566406 -3.453125 4.921875 0.453125 14.203125 0.453125 C 23.480469 0.453125 27.839844 -3.453125 27.839844 -9.902344 C 27.839844 -16.351562 23.480469 -20.257812 14.203125 -20.257812 Z M 14.203125 -14.710938 C 18.671875 -14.710938 20.484375 -12.902344 20.484375 -9.902344 C 20.484375 -6.902344 18.671875 -5.09375 14.203125 -5.09375 C 9.730469 -5.09375 7.921875 -6.902344 7.921875 -9.902344 C 7.921875 -12.902344 9.730469 -14.710938 14.203125 -14.710938 Z M 14.203125 -14.710938 "/></g></g></g><g fill="#000000" fill-opacity="1"><g transform="translate(98.938808, 349.714638)"><g><path d="M 1.234375 -9.359375 L 5.0625 -9.359375 C 6.46875 -9.359375 7.625 -8.914062 8.53125 -8.03125 C 9.445312 -7.15625 9.90625 -6.035156 9.90625 -4.671875 C 9.90625 -3.316406 9.445312 -2.195312 8.53125 -1.3125 C 7.613281 -0.4375 6.445312 0 5.03125 0 L 1.234375 0 Z M 2.8125 -7.9375 L 2.8125 -1.421875 L 5.109375 -1.421875 C 6.023438 -1.421875 6.785156 -1.722656 7.390625 -2.328125 C 8.003906 -2.941406 8.3125 -3.71875 8.3125 -4.65625 C 8.3125 -5.601562 8 -6.382812 7.375 -7 C 6.75 -7.625 5.972656 -7.9375 5.046875 -7.9375 Z M 2.8125 -7.9375 "/></g></g></g><g fill="#000000" fill-opacity="1"><g transform="translate(111.051792, 349.714638)"><g><path d="M 7.921875 -7.9375 L 2.8125 -7.9375 L 2.8125 -5.421875 L 7.390625 -5.421875 L 7.390625 -4 L 2.8125 -4 L 2.8125 -1.421875 L 8.078125 -1.421875 L 8.078125 0 L 1.234375 0 L 1.234375 -9.359375 L 7.921875 -9.359375 Z M 7.921875 -7.9375 "/></g></g></g><g fill="#000000" fill-opacity="1"><g transform="translate(121.574034, 349.714638)"><g><path d="M 4.3125 -9.421875 C 5.519531 -9.421875 6.609375 -9.101562 7.578125 -8.46875 L 6.921875 -7.078125 C 5.972656 -7.648438 5.0625 -7.9375 4.1875 -7.9375 C 3.71875 -7.9375 3.34375 -7.851562 3.0625 -7.6875 C 2.789062 -7.519531 2.65625 -7.28125 2.65625 -6.96875 C 2.65625 -6.65625 2.78125 -6.390625 3.03125 -6.171875 C 3.28125 -5.953125 3.59375 -5.789062 3.96875 -5.6875 C 4.34375 -5.582031 4.75 -5.453125 5.1875 -5.296875 C 5.625 -5.140625 6.03125 -4.972656 6.40625 -4.796875 C 6.78125 -4.628906 7.085938 -4.359375 7.328125 -3.984375 C 7.578125 -3.617188 7.703125 -3.171875 7.703125 -2.640625 C 7.703125 -1.828125 7.375 -1.175781 6.71875 -0.6875 C 6.0625 -0.195312 5.210938 0.046875 4.171875 0.046875 C 3.460938 0.046875 2.769531 -0.0820312 2.09375 -0.34375 C 1.425781 -0.613281 0.84375 -0.976562 0.34375 -1.4375 L 1.03125 -2.796875 C 1.5 -2.359375 2.015625 -2.019531 2.578125 -1.78125 C 3.148438 -1.550781 3.691406 -1.4375 4.203125 -1.4375 C 4.753906 -1.4375 5.179688 -1.535156 5.484375 -1.734375 C 5.796875 -1.929688 5.953125 -2.207031 5.953125 -2.5625 C 5.953125 -2.882812 5.828125 -3.15625 5.578125 -3.375 C 5.328125 -3.59375 5.015625 -3.753906 4.640625 -3.859375 C 4.265625 -3.960938 3.859375 -4.085938 3.421875 -4.234375 C 2.984375 -4.378906 2.578125 -4.535156 2.203125 -4.703125 C 1.828125 -4.867188 1.515625 -5.132812 1.265625 -5.5 C 1.015625 -5.863281 0.890625 -6.304688 0.890625 -6.828125 C 0.890625 -7.617188 1.203125 -8.25 1.828125 -8.71875 C 2.453125 -9.1875 3.28125 -9.421875 4.3125 -9.421875 Z M 4.3125 -9.421875 "/></g></g></g><g fill="#000000" fill-opacity="1"><g transform="translate(131.641779, 349.714638)"><g><path d="M 7.28125 -2.109375 L 2.546875 -2.109375 L 1.65625 0 L 0.015625 0 L 4.140625 -9.359375 L 5.765625 -9.359375 L 9.859375 0 L 8.171875 0 Z M 6.671875 -3.515625 L 4.90625 -7.671875 L 3.140625 -3.515625 Z M 6.671875 -3.515625 "/></g></g></g><g fill="#000000" fill-opacity="1"><g transform="translate(143.260157, 349.714638)"><g><path d="M 7.171875 0 L 5.453125 -2.828125 C 5.367188 -2.828125 5.226562 -2.828125 5.03125 -2.828125 L 2.8125 -2.828125 L 2.8125 0 L 1.234375 0 L 1.234375 -9.359375 L 5.03125 -9.359375 C 6.226562 -9.359375 7.15625 -9.078125 7.8125 -8.515625 C 8.46875 -7.960938 8.796875 -7.179688 8.796875 -6.171875 C 8.796875 -5.421875 8.628906 -4.785156 8.296875 -4.265625 C 7.960938 -3.742188 7.484375 -3.363281 6.859375 -3.125 L 8.96875 0 Z M 2.8125 -4.234375 L 5.03125 -4.234375 C 6.539062 -4.234375 7.296875 -4.863281 7.296875 -6.125 C 7.296875 -7.332031 6.539062 -7.9375 5.03125 -7.9375 L 2.8125 -7.9375 Z M 2.8125 -4.234375 "/></g></g></g><g fill="#000000" fill-opacity="1"><g transform="translate(154.678015, 349.714638)"><g><path d="M 7.171875 0 L 5.453125 -2.828125 C 5.367188 -2.828125 5.226562 -2.828125 5.03125 -2.828125 L 2.8125 -2.828125 L 2.8125 0 L 1.234375 0 L 1.234375 -9.359375 L 5.03125 -9.359375 C 6.226562 -9.359375 7.15625 -9.078125 7.8125 -8.515625 C 8.46875 -7.960938 8.796875 -7.179688 8.796875 -6.171875 C 8.796875 -5.421875 8.628906 -4.785156 8.296875 -4.265625 C 7.960938 -3.742188 7.484375 -3.363281 6.859375 -3.125 L 8.96875 0 Z M 2.8125 -4.234375 L 5.03125 -4.234375 C 6.539062 -4.234375 7.296875 -4.863281 7.296875 -6.125 C 7.296875 -7.332031 6.539062 -7.9375 5.03125 -7.9375 L 2.8125 -7.9375 Z M 2.8125 -4.234375 "/></g></g></g><g fill="#000000" fill-opacity="1"><g transform="translate(166.095873, 349.714638)"><g><path d="M 1.875 -8.046875 C 2.832031 -8.953125 4.007812 -9.40625 5.40625 -9.40625 C 6.8125 -9.40625 7.988281 -8.953125 8.9375 -8.046875 C 9.894531 -7.140625 10.375 -6.015625 10.375 -4.671875 C 10.375 -3.335938 9.894531 -2.210938 8.9375 -1.296875 C 7.988281 -0.390625 6.8125 0.0625 5.40625 0.0625 C 4.007812 0.0625 2.832031 -0.390625 1.875 -1.296875 C 0.925781 -2.210938 0.453125 -3.335938 0.453125 -4.671875 C 0.453125 -6.015625 0.925781 -7.140625 1.875 -8.046875 Z M 5.4375 -7.984375 C 4.507812 -7.984375 3.710938 -7.664062 3.046875 -7.03125 C 2.390625 -6.394531 2.0625 -5.613281 2.0625 -4.6875 C 2.0625 -3.757812 2.390625 -2.96875 3.046875 -2.3125 C 3.710938 -1.664062 4.503906 -1.34375 5.421875 -1.34375 C 6.347656 -1.34375 7.132812 -1.664062 7.78125 -2.3125 C 8.4375 -2.96875 8.765625 -3.757812 8.765625 -4.6875 C 8.765625 -5.613281 8.4375 -6.394531 7.78125 -7.03125 C 7.132812 -7.664062 6.351562 -7.984375 5.4375 -7.984375 Z M 5.4375 -7.984375 "/></g></g></g><g fill="#000000" fill-opacity="1"><g transform="translate(178.676718, 349.714638)"><g><path d="M 2.8125 -1.4375 L 6.859375 -1.4375 L 6.859375 0 L 1.234375 0 L 1.234375 -9.359375 L 2.8125 -9.359375 Z M 2.8125 -1.4375 "/></g></g></g><g fill="#000000" fill-opacity="1"><g transform="translate(187.568109, 349.714638)"><g><path d="M 7.28125 -2.109375 L 2.546875 -2.109375 L 1.65625 0 L 0.015625 0 L 4.140625 -9.359375 L 5.765625 -9.359375 L 9.859375 0 L 8.171875 0 Z M 6.671875 -3.515625 L 4.90625 -7.671875 L 3.140625 -3.515625 Z M 6.671875 -3.515625 "/></g></g></g><g fill="#000000" fill-opacity="1"><g transform="translate(199.186487, 349.714638)"><g><path d="M 1.234375 -9.359375 L 5.0625 -9.359375 C 6.46875 -9.359375 7.625 -8.914062 8.53125 -8.03125 C 9.445312 -7.15625 9.90625 -6.035156 9.90625 -4.671875 C 9.90625 -3.316406 9.445312 -2.195312 8.53125 -1.3125 C 7.613281 -0.4375 6.445312 0 5.03125 0 L 1.234375 0 Z M 2.8125 -7.9375 L 2.8125 -1.421875 L 5.109375 -1.421875 C 6.023438 -1.421875 6.785156 -1.722656 7.390625 -2.328125 C 8.003906 -2.941406 8.3125 -3.71875 8.3125 -4.65625 C 8.3125 -5.601562 8 -6.382812 7.375 -7 C 6.75 -7.625 5.972656 -7.9375 5.046875 -7.9375 Z M 2.8125 -7.9375 "/></g></g></g><g fill="#000000" fill-opacity="1"><g transform="translate(211.299476, 349.714638)"><g><path d="M 1.875 -8.046875 C 2.832031 -8.953125 4.007812 -9.40625 5.40625 -9.40625 C 6.8125 -9.40625 7.988281 -8.953125 8.9375 -8.046875 C 9.894531 -7.140625 10.375 -6.015625 10.375 -4.671875 C 10.375 -3.335938 9.894531 -2.210938 8.9375 -1.296875 C 7.988281 -0.390625 6.8125 0.0625 5.40625 0.0625 C 4.007812 0.0625 2.832031 -0.390625 1.875 -1.296875 C 0.925781 -2.210938 0.453125 -3.335938 0.453125 -4.671875 C 0.453125 -6.015625 0.925781 -7.140625 1.875 -8.046875 Z M 5.4375 -7.984375 C 4.507812 -7.984375 3.710938 -7.664062 3.046875 -7.03125 C 2.390625 -6.394531 2.0625 -5.613281 2.0625 -4.6875 C 2.0625 -3.757812 2.390625 -2.96875 3.046875 -2.3125 C 3.710938 -1.664062 4.503906 -1.34375 5.421875 -1.34375 C 6.347656 -1.34375 7.132812 -1.664062 7.78125 -2.3125 C 8.4375 -2.96875 8.765625 -3.757812 8.765625 -4.6875 C 8.765625 -5.613281 8.4375 -6.394531 7.78125 -7.03125 C 7.132812 -7.664062 6.351562 -7.984375 5.4375 -7.984375 Z M 5.4375 -7.984375 "/></g></g></g><g fill="#000000" fill-opacity="1"><g transform="translate(223.880321, 349.714638)"><g><path d="M 7.171875 0 L 5.453125 -2.828125 C 5.367188 -2.828125 5.226562 -2.828125 5.03125 -2.828125 L 2.8125 -2.828125 L 2.8125 0 L 1.234375 0 L 1.234375 -9.359375 L 5.03125 -9.359375 C 6.226562 -9.359375 7.15625 -9.078125 7.8125 -8.515625 C 8.46875 -7.960938 8.796875 -7.179688 8.796875 -6.171875 C 8.796875 -5.421875 8.628906 -4.785156 8.296875 -4.265625 C 7.960938 -3.742188 7.484375 -3.363281 6.859375 -3.125 L 8.96875 0 Z M 2.8125 -4.234375 L 5.03125 -4.234375 C 6.539062 -4.234375 7.296875 -4.863281 7.296875 -6.125 C 7.296875 -7.332031 6.539062 -7.9375 5.03125 -7.9375 L 2.8125 -7.9375 Z M 2.8125 -4.234375 "/></g></g></g><g fill="#000000" fill-opacity="1"><g transform="translate(235.298179, 349.714638)"><g/></g></g><g fill="#000000" fill-opacity="1"><g transform="translate(240.500115, 349.714638)"><g><path d="M 10.859375 0 L 9.234375 0 L 7.015625 -7.296875 L 4.78125 0 L 3.140625 0 L 0.046875 -9.359375 L 1.734375 -9.359375 L 4.015625 -1.75 L 6.265625 -9.34375 L 7.828125 -9.359375 L 10.09375 -1.75 L 12.359375 -9.359375 L 13.984375 -9.359375 Z M 10.859375 0 "/></g></g></g><g fill="#000000" fill-opacity="1"><g transform="translate(256.102032, 349.714638)"><g><path d="M 7.921875 -7.9375 L 2.8125 -7.9375 L 2.8125 -5.421875 L 7.390625 -5.421875 L 7.390625 -4 L 2.8125 -4 L 2.8125 -1.421875 L 8.078125 -1.421875 L 8.078125 0 L 1.234375 0 L 1.234375 -9.359375 L 7.921875 -9.359375 Z M 7.921875 -7.9375 "/></g></g></g><g fill="#000000" fill-opacity="1"><g transform="translate(266.624272, 349.714638)"><g><path d="M 1.234375 -9.359375 L 5.296875 -9.359375 C 6.265625 -9.359375 7.03125 -9.148438 7.59375 -8.734375 C 8.15625 -8.328125 8.4375 -7.753906 8.4375 -7.015625 C 8.4375 -6.492188 8.289062 -6.046875 8 -5.671875 C 7.707031 -5.304688 7.304688 -5.0625 6.796875 -4.9375 C 7.421875 -4.832031 7.910156 -4.566406 8.265625 -4.140625 C 8.617188 -3.722656 8.796875 -3.195312 8.796875 -2.5625 C 8.796875 -1.757812 8.492188 -1.128906 7.890625 -0.671875 C 7.285156 -0.222656 6.453125 0 5.390625 0 L 1.234375 0 Z M 2.8125 -7.953125 L 2.8125 -5.484375 L 5.21875 -5.484375 C 5.71875 -5.484375 6.109375 -5.59375 6.390625 -5.8125 C 6.679688 -6.039062 6.828125 -6.347656 6.828125 -6.734375 C 6.828125 -7.128906 6.6875 -7.429688 6.40625 -7.640625 C 6.125 -7.847656 5.726562 -7.953125 5.21875 -7.953125 Z M 2.8125 -4.09375 L 2.8125 -1.40625 L 5.21875 -1.40625 C 5.84375 -1.40625 6.328125 -1.519531 6.671875 -1.75 C 7.015625 -1.988281 7.1875 -2.328125 7.1875 -2.765625 C 7.1875 -3.179688 7.007812 -3.503906 6.65625 -3.734375 C 6.3125 -3.972656 5.832031 -4.09375 5.21875 -4.09375 Z M 2.8125 -4.09375 "/></g></g></g></svg>