<svg xmlns="http://www.w3.org/2000/svg" xmlns:xlink="http://www.w3.org/1999/xlink" width="150" zoomAndPan="magnify" viewBox="0 0 112.5 37.5" height="50" preserveAspectRatio="xMidYMid meet" version="1.0"><defs><g/><clipPath id="253bef7e2d"><path d="M 0.492188 0 L 111.511719 0 L 111.511719 37.007812 L 0.492188 37.007812 Z M 0.492188 0 " clip-rule="nonzero"/></clipPath></defs><g clip-path="url(#253bef7e2d)"><path fill="#ffffff" d="M 0.492188 0 L 112.007812 0 L 112.007812 43.863281 L 0.492188 43.863281 Z M 0.492188 0 " fill-opacity="1" fill-rule="nonzero"/><path fill="#ffffff" d="M 0.492188 0 L 112.007812 0 L 112.007812 37.171875 L 0.492188 37.171875 Z M 0.492188 0 " fill-opacity="1" fill-rule="nonzero"/><path fill="#5ce1e6" d="M 0.492188 0 L 112.007812 0 L 112.007812 37.171875 L 0.492188 37.171875 Z M 0.492188 0 " fill-opacity="1" fill-rule="nonzero"/></g><g fill="#004aad" fill-opacity="0.4"><g transform="translate(11.49175, 24.438946)"><g><path d="M 5.03125 0.203125 C 4.445312 0.203125 3.890625 0.144531 3.359375 0.03125 C 2.828125 -0.0703125 2.335938 -0.234375 1.890625 -0.453125 C 1.441406 -0.671875 1.085938 -0.957031 0.828125 -1.3125 C 0.566406 -1.664062 0.4375 -2.0625 0.4375 -2.5 C 0.4375 -2.769531 0.5 -3.015625 0.625 -3.234375 C 0.75 -3.453125 0.914062 -3.617188 1.125 -3.734375 C 1.332031 -3.859375 1.550781 -3.921875 1.78125 -3.921875 C 2 -3.921875 2.195312 -3.863281 2.375 -3.75 C 2.5625 -3.632812 2.707031 -3.476562 2.8125 -3.28125 C 2.914062 -3.09375 2.96875 -2.894531 2.96875 -2.6875 C 2.96875 -2.363281 2.875 -2.113281 2.6875 -1.9375 C 2.507812 -1.757812 2.253906 -1.648438 1.921875 -1.609375 C 2.285156 -1.347656 2.6875 -1.15625 3.125 -1.03125 C 3.570312 -0.90625 4.128906 -0.84375 4.796875 -0.84375 C 5.910156 -0.84375 6.71875 -1.109375 7.21875 -1.640625 C 7.488281 -1.941406 7.625 -2.296875 7.625 -2.703125 C 7.625 -3.160156 7.46875 -3.535156 7.15625 -3.828125 C 7.019531 -3.960938 6.820312 -4.085938 6.5625 -4.203125 C 6.300781 -4.328125 6.015625 -4.4375 5.703125 -4.53125 C 5.347656 -4.632812 4.972656 -4.738281 4.578125 -4.84375 C 3.578125 -5.082031 2.773438 -5.367188 2.171875 -5.703125 C 1.578125 -6.035156 1.164062 -6.410156 0.9375 -6.828125 C 0.695312 -7.234375 0.578125 -7.71875 0.578125 -8.28125 C 0.578125 -8.882812 0.757812 -9.425781 1.125 -9.90625 C 1.488281 -10.394531 1.992188 -10.773438 2.640625 -11.046875 C 3.296875 -11.316406 4.039062 -11.453125 4.875 -11.453125 C 5.59375 -11.453125 6.304688 -11.335938 7.015625 -11.109375 C 7.429688 -10.972656 7.785156 -10.8125 8.078125 -10.625 C 8.367188 -10.445312 8.601562 -10.21875 8.78125 -9.9375 C 8.976562 -9.644531 9.078125 -9.328125 9.078125 -8.984375 C 9.078125 -8.535156 8.960938 -8.175781 8.734375 -7.90625 C 8.503906 -7.632812 8.191406 -7.5 7.796875 -7.5 C 7.578125 -7.5 7.367188 -7.539062 7.171875 -7.625 C 6.984375 -7.71875 6.832031 -7.84375 6.71875 -8 C 6.601562 -8.164062 6.546875 -8.347656 6.546875 -8.546875 C 6.546875 -8.921875 6.644531 -9.207031 6.84375 -9.40625 C 7.039062 -9.613281 7.285156 -9.71875 7.578125 -9.71875 C 6.984375 -10.175781 6.140625 -10.40625 5.046875 -10.40625 C 4.566406 -10.40625 4.125 -10.332031 3.71875 -10.1875 C 3.320312 -10.050781 3 -9.847656 2.75 -9.578125 C 2.488281 -9.296875 2.359375 -8.96875 2.359375 -8.59375 C 2.359375 -8.40625 2.375 -8.242188 2.40625 -8.109375 C 2.4375 -7.984375 2.503906 -7.851562 2.609375 -7.71875 C 2.710938 -7.5625 2.859375 -7.421875 3.046875 -7.296875 C 3.234375 -7.179688 3.488281 -7.066406 3.8125 -6.953125 C 4.132812 -6.828125 4.523438 -6.710938 4.984375 -6.609375 C 6.410156 -6.285156 7.476562 -5.898438 8.1875 -5.453125 C 8.507812 -5.242188 8.769531 -5.003906 8.96875 -4.734375 C 9.175781 -4.472656 9.328125 -4.195312 9.421875 -3.90625 C 9.492188 -3.632812 9.53125 -3.316406 9.53125 -2.953125 C 9.53125 -2.296875 9.351562 -1.726562 9 -1.25 C 8.65625 -0.78125 8.144531 -0.421875 7.46875 -0.171875 C 6.800781 0.078125 5.988281 0.203125 5.03125 0.203125 Z M 5.03125 0.203125 "/></g></g></g><g fill="#004aad" fill-opacity="0.4"><g transform="translate(21.448585, 24.438946)"><g><path d="M 0.21875 0 L 0.21875 -1.0625 L 2.046875 -1.0625 L 2.046875 -10.15625 L 0.21875 -10.15625 L 0.21875 -11.21875 L 5.515625 -11.21875 L 5.515625 -10.15625 L 3.796875 -10.15625 L 3.796875 -1.0625 L 5.515625 -1.0625 L 5.515625 0 Z M 0.21875 0 "/></g></g></g><g fill="#004aad" fill-opacity="0.4"><g transform="translate(27.175442, 24.438946)"><g><path d="M 5.875 0.203125 C 5.207031 0.203125 4.578125 0.09375 3.984375 -0.125 C 3.398438 -0.351562 2.90625 -0.660156 2.5 -1.046875 C 2.09375 -1.429688 1.742188 -1.875 1.453125 -2.375 C 1.171875 -2.882812 0.960938 -3.414062 0.828125 -3.96875 C 0.691406 -4.519531 0.625 -5.085938 0.625 -5.671875 C 0.625 -6.421875 0.753906 -7.140625 1.015625 -7.828125 C 1.285156 -8.523438 1.660156 -9.144531 2.140625 -9.6875 C 2.628906 -10.226562 3.238281 -10.65625 3.96875 -10.96875 C 4.707031 -11.289062 5.507812 -11.453125 6.375 -11.453125 C 7.1875 -11.453125 7.925781 -11.300781 8.59375 -11 C 9.257812 -10.695312 9.773438 -10.285156 10.140625 -9.765625 C 10.503906 -9.253906 10.6875 -8.695312 10.6875 -8.09375 C 10.6875 -7.882812 10.632812 -7.679688 10.53125 -7.484375 C 10.425781 -7.296875 10.273438 -7.144531 10.078125 -7.03125 C 9.878906 -6.914062 9.65625 -6.859375 9.40625 -6.859375 C 9.175781 -6.859375 8.960938 -6.910156 8.765625 -7.015625 C 8.578125 -7.128906 8.425781 -7.273438 8.3125 -7.453125 C 8.207031 -7.640625 8.15625 -7.832031 8.15625 -8.03125 C 8.15625 -8.25 8.203125 -8.445312 8.296875 -8.625 C 8.398438 -8.8125 8.523438 -8.957031 8.671875 -9.0625 C 8.828125 -9.164062 8.96875 -9.21875 9.09375 -9.21875 L 9.125 -9.21875 C 8.925781 -9.5 8.660156 -9.734375 8.328125 -9.921875 C 8.003906 -10.117188 7.6875 -10.25 7.375 -10.3125 C 7.09375 -10.375 6.804688 -10.40625 6.515625 -10.40625 C 5.722656 -10.40625 5.023438 -10.195312 4.421875 -9.78125 C 3.816406 -9.363281 3.359375 -8.796875 3.046875 -8.078125 C 2.734375 -7.359375 2.578125 -6.5625 2.578125 -5.6875 C 2.578125 -5.09375 2.671875 -4.519531 2.859375 -3.96875 C 3.046875 -3.414062 3.304688 -2.929688 3.640625 -2.515625 C 3.972656 -2.085938 4.375 -1.75 4.84375 -1.5 C 5.320312 -1.257812 5.820312 -1.140625 6.34375 -1.140625 C 6.71875 -1.140625 7.082031 -1.207031 7.4375 -1.34375 C 7.800781 -1.488281 8.109375 -1.675781 8.359375 -1.90625 C 8.597656 -2.125 8.785156 -2.359375 8.921875 -2.609375 C 9.066406 -2.867188 9.140625 -3.109375 9.140625 -3.328125 L 9.140625 -4.375 L 7.03125 -4.375 L 7.03125 -5.5 L 11.890625 -5.5 L 11.890625 -4.375 L 10.671875 -4.375 L 10.671875 0 L 9.765625 0 L 9.40625 -1.578125 C 9.238281 -1.253906 9.015625 -0.96875 8.734375 -0.71875 C 8.460938 -0.476562 8.160156 -0.289062 7.828125 -0.15625 C 7.203125 0.0820312 6.550781 0.203125 5.875 0.203125 Z M 5.875 0.203125 "/></g></g></g><g fill="#004aad" fill-opacity="0.4"><g transform="translate(39.083428, 24.438946)"><g><path d="M 5.953125 0.203125 C 5.222656 0.203125 4.582031 0.101562 4.03125 -0.09375 C 3.476562 -0.289062 3.039062 -0.582031 2.71875 -0.96875 C 2.082031 -1.6875 1.765625 -2.644531 1.765625 -3.84375 L 1.765625 -10.15625 L 0.15625 -10.15625 L 0.15625 -11.21875 L 5.15625 -11.21875 L 5.15625 -10.15625 L 3.515625 -10.15625 L 3.515625 -3.734375 C 3.515625 -1.804688 4.382812 -0.84375 6.125 -0.84375 C 6.976562 -0.84375 7.625 -1.085938 8.0625 -1.578125 C 8.507812 -2.078125 8.734375 -2.8125 8.734375 -3.78125 L 8.734375 -10.15625 L 7.03125 -10.15625 L 7.03125 -11.21875 L 11.796875 -11.21875 L 11.796875 -10.15625 L 10.234375 -10.15625 L 10.234375 -4.078125 C 10.234375 -3.546875 10.191406 -3.078125 10.109375 -2.671875 C 10.035156 -2.265625 9.898438 -1.882812 9.703125 -1.53125 C 9.503906 -1.15625 9.242188 -0.84375 8.921875 -0.59375 C 8.597656 -0.351562 8.191406 -0.160156 7.703125 -0.015625 C 7.191406 0.128906 6.609375 0.203125 5.953125 0.203125 Z M 5.953125 0.203125 "/></g></g></g><g fill="#004aad" fill-opacity="0.4"><g transform="translate(51.021202, 24.438946)"><g><path d="M 0.21875 0 L 0.21875 -1.0625 L 2.046875 -1.0625 L 2.046875 -10.15625 L 0.21875 -10.15625 L 0.21875 -11.21875 L 5.515625 -11.21875 L 5.515625 -10.15625 L 3.796875 -10.15625 L 3.796875 -1.0625 L 5.515625 -1.0625 L 5.515625 0 Z M 0.21875 0 "/></g></g></g><g fill="#004aad" fill-opacity="0.4"><g transform="translate(56.74806, 24.438946)"><g><path d="M 0.25 0 L 0.25 -1.0625 L 2.078125 -1.0625 L 2.078125 -10.15625 L 0.25 -10.15625 L 0.25 -11.21875 L 10.390625 -11.21875 L 10.390625 -6.90625 L 9.03125 -6.90625 L 9.03125 -10.15625 L 3.828125 -10.15625 L 3.828125 -6.125 L 6.609375 -6.125 L 6.609375 -7.953125 L 7.609375 -7.953125 L 7.609375 -3.328125 L 6.609375 -3.328125 L 6.609375 -5.265625 L 3.828125 -5.265625 L 3.828125 -1.0625 L 9.03125 -1.0625 L 9.03125 -4.25 L 10.390625 -4.25 L 10.390625 0 Z M 0.25 0 "/></g></g></g><g fill="#004aad" fill-opacity="0.4"><g transform="translate(67.799618, 24.438946)"><g><path d="M 0.25 0 L 0.25 -1.0625 L 2.046875 -1.0625 L 2.046875 -10.15625 L 0.25 -10.15625 L 0.25 -11.21875 L 4.265625 -11.21875 L 9.578125 -1.984375 L 9.578125 -10.15625 L 7.75 -10.15625 L 7.75 -11.21875 L 12.703125 -11.21875 L 12.703125 -10.15625 L 11 -10.15625 L 11 0 L 9 0 L 3.46875 -9.625 L 3.46875 -1.0625 L 5.171875 -1.0625 L 5.171875 0 Z M 0.25 0 "/></g></g></g><g fill="#004aad" fill-opacity="0.4"><g transform="translate(80.608702, 24.438946)"><g><path d="M 2.765625 0 L 2.765625 -1.0625 L 4.5 -1.0625 L 4.5 -10.15625 L 1.640625 -10.15625 L 1.640625 -6.6875 L 0.265625 -6.6875 L 0.265625 -11.21875 L 10.4375 -11.21875 L 10.4375 -6.6875 L 9.046875 -6.6875 L 9.046875 -10.15625 L 6.265625 -10.15625 L 6.265625 -1.0625 L 8.046875 -1.0625 L 8.046875 0 Z M 2.765625 0 "/></g></g></g><g fill="#004aad" fill-opacity="0.4"><g transform="translate(91.295356, 24.438946)"><g><path d="M 0.25 0 L 0.25 -1.0625 L 2.078125 -1.0625 L 2.078125 -10.15625 L 0.25 -10.15625 L 0.25 -11.21875 L 10.390625 -11.21875 L 10.390625 -6.90625 L 9.03125 -6.90625 L 9.03125 -10.15625 L 3.828125 -10.15625 L 3.828125 -6.125 L 6.609375 -6.125 L 6.609375 -7.953125 L 7.609375 -7.953125 L 7.609375 -3.328125 L 6.609375 -3.328125 L 6.609375 -5.265625 L 3.828125 -5.265625 L 3.828125 -1.0625 L 9.03125 -1.0625 L 9.03125 -4.25 L 10.390625 -4.25 L 10.390625 0 Z M 0.25 0 "/></g></g></g><g fill="#004aad" fill-opacity="1"><g transform="translate(10.81694, 23.764136)"><g><path d="M 5.03125 0.203125 C 4.445312 0.203125 3.890625 0.144531 3.359375 0.03125 C 2.828125 -0.0703125 2.335938 -0.234375 1.890625 -0.453125 C 1.441406 -0.671875 1.085938 -0.957031 0.828125 -1.3125 C 0.566406 -1.664062 0.4375 -2.0625 0.4375 -2.5 C 0.4375 -2.769531 0.5 -3.015625 0.625 -3.234375 C 0.75 -3.453125 0.914062 -3.617188 1.125 -3.734375 C 1.332031 -3.859375 1.550781 -3.921875 1.78125 -3.921875 C 2 -3.921875 2.195312 -3.863281 2.375 -3.75 C 2.5625 -3.632812 2.707031 -3.476562 2.8125 -3.28125 C 2.914062 -3.09375 2.96875 -2.894531 2.96875 -2.6875 C 2.96875 -2.363281 2.875 -2.113281 2.6875 -1.9375 C 2.507812 -1.757812 2.253906 -1.648438 1.921875 -1.609375 C 2.285156 -1.347656 2.6875 -1.15625 3.125 -1.03125 C 3.570312 -0.90625 4.128906 -0.84375 4.796875 -0.84375 C 5.910156 -0.84375 6.71875 -1.109375 7.21875 -1.640625 C 7.488281 -1.941406 7.625 -2.296875 7.625 -2.703125 C 7.625 -3.160156 7.46875 -3.535156 7.15625 -3.828125 C 7.019531 -3.960938 6.820312 -4.085938 6.5625 -4.203125 C 6.300781 -4.328125 6.015625 -4.4375 5.703125 -4.53125 C 5.347656 -4.632812 4.972656 -4.738281 4.578125 -4.84375 C 3.578125 -5.082031 2.773438 -5.367188 2.171875 -5.703125 C 1.578125 -6.035156 1.164062 -6.410156 0.9375 -6.828125 C 0.695312 -7.234375 0.578125 -7.71875 0.578125 -8.28125 C 0.578125 -8.882812 0.757812 -9.425781 1.125 -9.90625 C 1.488281 -10.394531 1.992188 -10.773438 2.640625 -11.046875 C 3.296875 -11.316406 4.039062 -11.453125 4.875 -11.453125 C 5.59375 -11.453125 6.304688 -11.335938 7.015625 -11.109375 C 7.429688 -10.972656 7.785156 -10.8125 8.078125 -10.625 C 8.367188 -10.445312 8.601562 -10.21875 8.78125 -9.9375 C 8.976562 -9.644531 9.078125 -9.328125 9.078125 -8.984375 C 9.078125 -8.535156 8.960938 -8.175781 8.734375 -7.90625 C 8.503906 -7.632812 8.191406 -7.5 7.796875 -7.5 C 7.578125 -7.5 7.367188 -7.539062 7.171875 -7.625 C 6.984375 -7.71875 6.832031 -7.84375 6.71875 -8 C 6.601562 -8.164062 6.546875 -8.347656 6.546875 -8.546875 C 6.546875 -8.921875 6.644531 -9.207031 6.84375 -9.40625 C 7.039062 -9.613281 7.285156 -9.71875 7.578125 -9.71875 C 6.984375 -10.175781 6.140625 -10.40625 5.046875 -10.40625 C 4.566406 -10.40625 4.125 -10.332031 3.71875 -10.1875 C 3.320312 -10.050781 3 -9.847656 2.75 -9.578125 C 2.488281 -9.296875 2.359375 -8.96875 2.359375 -8.59375 C 2.359375 -8.40625 2.375 -8.242188 2.40625 -8.109375 C 2.4375 -7.984375 2.503906 -7.851562 2.609375 -7.71875 C 2.710938 -7.5625 2.859375 -7.421875 3.046875 -7.296875 C 3.234375 -7.179688 3.488281 -7.066406 3.8125 -6.953125 C 4.132812 -6.828125 4.523438 -6.710938 4.984375 -6.609375 C 6.410156 -6.285156 7.476562 -5.898438 8.1875 -5.453125 C 8.507812 -5.242188 8.769531 -5.003906 8.96875 -4.734375 C 9.175781 -4.472656 9.328125 -4.195312 9.421875 -3.90625 C 9.492188 -3.632812 9.53125 -3.316406 9.53125 -2.953125 C 9.53125 -2.296875 9.351562 -1.726562 9 -1.25 C 8.65625 -0.78125 8.144531 -0.421875 7.46875 -0.171875 C 6.800781 0.078125 5.988281 0.203125 5.03125 0.203125 Z M 5.03125 0.203125 "/></g></g></g><g fill="#004aad" fill-opacity="1"><g transform="translate(20.773775, 23.764136)"><g><path d="M 0.21875 0 L 0.21875 -1.0625 L 2.046875 -1.0625 L 2.046875 -10.15625 L 0.21875 -10.15625 L 0.21875 -11.21875 L 5.515625 -11.21875 L 5.515625 -10.15625 L 3.796875 -10.15625 L 3.796875 -1.0625 L 5.515625 -1.0625 L 5.515625 0 Z M 0.21875 0 "/></g></g></g><g fill="#004aad" fill-opacity="1"><g transform="translate(26.500632, 23.764136)"><g><path d="M 5.875 0.203125 C 5.207031 0.203125 4.578125 0.09375 3.984375 -0.125 C 3.398438 -0.351562 2.90625 -0.660156 2.5 -1.046875 C 2.09375 -1.429688 1.742188 -1.875 1.453125 -2.375 C 1.171875 -2.882812 0.960938 -3.414062 0.828125 -3.96875 C 0.691406 -4.519531 0.625 -5.085938 0.625 -5.671875 C 0.625 -6.421875 0.753906 -7.140625 1.015625 -7.828125 C 1.285156 -8.523438 1.660156 -9.144531 2.140625 -9.6875 C 2.628906 -10.226562 3.238281 -10.65625 3.96875 -10.96875 C 4.707031 -11.289062 5.507812 -11.453125 6.375 -11.453125 C 7.1875 -11.453125 7.925781 -11.300781 8.59375 -11 C 9.257812 -10.695312 9.773438 -10.285156 10.140625 -9.765625 C 10.503906 -9.253906 10.6875 -8.695312 10.6875 -8.09375 C 10.6875 -7.882812 10.632812 -7.679688 10.53125 -7.484375 C 10.425781 -7.296875 10.273438 -7.144531 10.078125 -7.03125 C 9.878906 -6.914062 9.65625 -6.859375 9.40625 -6.859375 C 9.175781 -6.859375 8.960938 -6.910156 8.765625 -7.015625 C 8.578125 -7.128906 8.425781 -7.273438 8.3125 -7.453125 C 8.207031 -7.640625 8.15625 -7.832031 8.15625 -8.03125 C 8.15625 -8.25 8.203125 -8.445312 8.296875 -8.625 C 8.398438 -8.8125 8.523438 -8.957031 8.671875 -9.0625 C 8.828125 -9.164062 8.96875 -9.21875 9.09375 -9.21875 L 9.125 -9.21875 C 8.925781 -9.5 8.660156 -9.734375 8.328125 -9.921875 C 8.003906 -10.117188 7.6875 -10.25 7.375 -10.3125 C 7.09375 -10.375 6.804688 -10.40625 6.515625 -10.40625 C 5.722656 -10.40625 5.023438 -10.195312 4.421875 -9.78125 C 3.816406 -9.363281 3.359375 -8.796875 3.046875 -8.078125 C 2.734375 -7.359375 2.578125 -6.5625 2.578125 -5.6875 C 2.578125 -5.09375 2.671875 -4.519531 2.859375 -3.96875 C 3.046875 -3.414062 3.304688 -2.929688 3.640625 -2.515625 C 3.972656 -2.085938 4.375 -1.75 4.84375 -1.5 C 5.320312 -1.257812 5.820312 -1.140625 6.34375 -1.140625 C 6.71875 -1.140625 7.082031 -1.207031 7.4375 -1.34375 C 7.800781 -1.488281 8.109375 -1.675781 8.359375 -1.90625 C 8.597656 -2.125 8.785156 -2.359375 8.921875 -2.609375 C 9.066406 -2.867188 9.140625 -3.109375 9.140625 -3.328125 L 9.140625 -4.375 L 7.03125 -4.375 L 7.03125 -5.5 L 11.890625 -5.5 L 11.890625 -4.375 L 10.671875 -4.375 L 10.671875 0 L 9.765625 0 L 9.40625 -1.578125 C 9.238281 -1.253906 9.015625 -0.96875 8.734375 -0.71875 C 8.460938 -0.476562 8.160156 -0.289062 7.828125 -0.15625 C 7.203125 0.0820312 6.550781 0.203125 5.875 0.203125 Z M 5.875 0.203125 "/></g></g></g><g fill="#004aad" fill-opacity="1"><g transform="translate(38.408618, 23.764136)"><g><path d="M 5.953125 0.203125 C 5.222656 0.203125 4.582031 0.101562 4.03125 -0.09375 C 3.476562 -0.289062 3.039062 -0.582031 2.71875 -0.96875 C 2.082031 -1.6875 1.765625 -2.644531 1.765625 -3.84375 L 1.765625 -10.15625 L 0.15625 -10.15625 L 0.15625 -11.21875 L 5.15625 -11.21875 L 5.15625 -10.15625 L 3.515625 -10.15625 L 3.515625 -3.734375 C 3.515625 -1.804688 4.382812 -0.84375 6.125 -0.84375 C 6.976562 -0.84375 7.625 -1.085938 8.0625 -1.578125 C 8.507812 -2.078125 8.734375 -2.8125 8.734375 -3.78125 L 8.734375 -10.15625 L 7.03125 -10.15625 L 7.03125 -11.21875 L 11.796875 -11.21875 L 11.796875 -10.15625 L 10.234375 -10.15625 L 10.234375 -4.078125 C 10.234375 -3.546875 10.191406 -3.078125 10.109375 -2.671875 C 10.035156 -2.265625 9.898438 -1.882812 9.703125 -1.53125 C 9.503906 -1.15625 9.242188 -0.84375 8.921875 -0.59375 C 8.597656 -0.351562 8.191406 -0.160156 7.703125 -0.015625 C 7.191406 0.128906 6.609375 0.203125 5.953125 0.203125 Z M 5.953125 0.203125 "/></g></g></g><g fill="#004aad" fill-opacity="1"><g transform="translate(50.346392, 23.764136)"><g><path d="M 0.21875 0 L 0.21875 -1.0625 L 2.046875 -1.0625 L 2.046875 -10.15625 L 0.21875 -10.15625 L 0.21875 -11.21875 L 5.515625 -11.21875 L 5.515625 -10.15625 L 3.796875 -10.15625 L 3.796875 -1.0625 L 5.515625 -1.0625 L 5.515625 0 Z M 0.21875 0 "/></g></g></g><g fill="#004aad" fill-opacity="1"><g transform="translate(56.07325, 23.764136)"><g><path d="M 0.25 0 L 0.25 -1.0625 L 2.078125 -1.0625 L 2.078125 -10.15625 L 0.25 -10.15625 L 0.25 -11.21875 L 10.390625 -11.21875 L 10.390625 -6.90625 L 9.03125 -6.90625 L 9.03125 -10.15625 L 3.828125 -10.15625 L 3.828125 -6.125 L 6.609375 -6.125 L 6.609375 -7.953125 L 7.609375 -7.953125 L 7.609375 -3.328125 L 6.609375 -3.328125 L 6.609375 -5.265625 L 3.828125 -5.265625 L 3.828125 -1.0625 L 9.03125 -1.0625 L 9.03125 -4.25 L 10.390625 -4.25 L 10.390625 0 Z M 0.25 0 "/></g></g></g><g fill="#004aad" fill-opacity="1"><g transform="translate(67.124808, 23.764136)"><g><path d="M 0.25 0 L 0.25 -1.0625 L 2.046875 -1.0625 L 2.046875 -10.15625 L 0.25 -10.15625 L 0.25 -11.21875 L 4.265625 -11.21875 L 9.578125 -1.984375 L 9.578125 -10.15625 L 7.75 -10.15625 L 7.75 -11.21875 L 12.703125 -11.21875 L 12.703125 -10.15625 L 11 -10.15625 L 11 0 L 9 0 L 3.46875 -9.625 L 3.46875 -1.0625 L 5.171875 -1.0625 L 5.171875 0 Z M 0.25 0 "/></g></g></g><g fill="#004aad" fill-opacity="1"><g transform="translate(79.933892, 23.764136)"><g><path d="M 2.765625 0 L 2.765625 -1.0625 L 4.5 -1.0625 L 4.5 -10.15625 L 1.640625 -10.15625 L 1.640625 -6.6875 L 0.265625 -6.6875 L 0.265625 -11.21875 L 10.4375 -11.21875 L 10.4375 -6.6875 L 9.046875 -6.6875 L 9.046875 -10.15625 L 6.265625 -10.15625 L 6.265625 -1.0625 L 8.046875 -1.0625 L 8.046875 0 Z M 2.765625 0 "/></g></g></g><g fill="#004aad" fill-opacity="1"><g transform="translate(90.620546, 23.764136)"><g><path d="M 0.25 0 L 0.25 -1.0625 L 2.078125 -1.0625 L 2.078125 -10.15625 L 0.25 -10.15625 L 0.25 -11.21875 L 10.390625 -11.21875 L 10.390625 -6.90625 L 9.03125 -6.90625 L 9.03125 -10.15625 L 3.828125 -10.15625 L 3.828125 -6.125 L 6.609375 -6.125 L 6.609375 -7.953125 L 7.609375 -7.953125 L 7.609375 -3.328125 L 6.609375 -3.328125 L 6.609375 -5.265625 L 3.828125 -5.265625 L 3.828125 -1.0625 L 9.03125 -1.0625 L 9.03125 -4.25 L 10.390625 -4.25 L 10.390625 0 Z M 0.25 0 "/></g></g></g></svg>