<svg xmlns="http://www.w3.org/2000/svg" xmlns:xlink="http://www.w3.org/1999/xlink" width="100" zoomAndPan="magnify" viewBox="0 0 75 74.999997" height="100" preserveAspectRatio="xMidYMid meet" version="1.0"><defs><clipPath id="014570c60c"><path d="M 0.1875 0 L 75 0 L 75 75 L 0.1875 75 Z M 0.1875 0 " clip-rule="nonzero"/></clipPath></defs><g clip-path="url(#014570c60c)"><path fill="#00bf63" d="M 64.257812 10.898438 C 57.207031 3.867188 47.824219 0 37.832031 0 C 17.25 0 0.5 16.667969 0.5 37.164062 C 0.5 43.707031 2.222656 50.113281 5.488281 55.738281 L 0.1875 75 L 19.988281 69.828125 C 25.449219 72.789062 31.59375 74.359375 37.828125 74.359375 L 37.84375 74.359375 C 58.425781 74.359375 75.195312 57.6875 75.195312 37.195312 C 75.195312 27.261719 71.308594 17.933594 64.253906 10.90625 Z M 37.84375 68.089844 C 32.265625 68.089844 26.804688 66.59375 22.035156 63.777344 L 20.898438 63.101562 L 9.148438 66.164062 L 12.285156 54.769531 L 11.550781 53.597656 C 8.425781 48.691406 6.796875 43.007812 6.796875 37.164062 C 6.796875 20.132812 20.722656 6.269531 37.859375 6.269531 C 46.148438 6.269531 53.957031 9.492188 59.8125 15.320312 C 65.671875 21.164062 68.894531 28.914062 68.894531 37.175781 C 68.878906 54.21875 54.953125 68.082031 37.839844 68.082031 Z M 54.863281 44.945312 C 53.9375 44.476562 49.339844 42.234375 48.488281 41.925781 C 47.636719 41.613281 47.015625 41.457031 46.382812 42.394531 C 45.761719 43.316406 43.96875 45.414062 43.421875 46.039062 C 42.875 46.65625 42.332031 46.746094 41.40625 46.273438 C 40.480469 45.804688 37.460938 44.824219 33.898438 41.660156 C 31.128906 39.199219 29.25 36.15625 28.703125 35.230469 C 28.15625 34.308594 28.644531 33.796875 29.117188 33.34375 C 29.546875 32.929688 30.046875 32.261719 30.519531 31.71875 C 30.988281 31.171875 31.136719 30.792969 31.445312 30.164062 C 31.757812 29.550781 31.605469 29.003906 31.371094 28.539062 C 31.136719 28.070312 29.261719 23.5 28.503906 21.636719 C 27.753906 19.816406 26.96875 20.070312 26.394531 20.039062 C 25.847656 20.011719 25.230469 20.011719 24.613281 20.011719 C 23.996094 20.011719 22.980469 20.246094 22.125 21.171875 C 21.273438 22.09375 18.855469 24.347656 18.855469 28.921875 C 18.855469 33.492188 22.199219 37.902344 22.667969 38.527344 C 23.140625 39.140625 29.25 48.53125 38.609375 52.550781 C 40.832031 53.5 42.570312 54.074219 43.925781 54.515625 C 46.164062 55.214844 48.195312 55.113281 49.800781 54.878906 C 51.597656 54.617188 55.324219 52.636719 56.105469 50.46875 C 56.882812 48.296875 56.882812 46.441406 56.652344 46.054688 C 56.429688 45.640625 55.8125 45.414062 54.867188 44.9375 Z M 54.863281 44.945312 " fill-opacity="1" fill-rule="evenodd"/></g></svg>