<svg xmlns="http://www.w3.org/2000/svg" xmlns:xlink="http://www.w3.org/1999/xlink" width="100" zoomAndPan="magnify" viewBox="0 0 75 74.999997" height="100" preserveAspectRatio="xMidYMid meet" version="1.0"><path fill="#472d7b" d="M 37.5 0 C 16.789062 0 0 16.789062 0 37.5 C 0 58.210938 16.789062 75 37.5 75 C 58.210938 75 75 58.210938 75 37.5 C 75 16.789062 58.210938 0 37.5 0 Z M 44.664062 59.601562 C 43.515625 59.824219 43.105469 59.117188 43.105469 58.511719 C 43.105469 57.765625 43.136719 55.320312 43.136719 52.28125 C 43.136719 50.164062 42.414062 48.78125 41.601562 48.078125 C 46.640625 47.515625 51.929688 45.597656 51.929688 36.875 C 51.929688 34.394531 51.054688 32.367188 49.605469 30.78125 C 49.835938 30.207031 50.613281 27.894531 49.378906 24.773438 C 49.378906 24.773438 47.484375 24.160156 43.167969 27.101562 C 41.359375 26.597656 39.421875 26.347656 37.503906 26.335938 C 35.578125 26.347656 33.644531 26.597656 31.839844 27.101562 C 27.519531 24.164062 25.625 24.773438 25.625 24.773438 C 24.394531 27.898438 25.171875 30.207031 25.402344 30.78125 C 23.953125 32.367188 23.074219 34.394531 23.074219 36.875 C 23.074219 45.574219 28.355469 47.519531 33.375 48.09375 C 32.730469 48.660156 32.144531 49.660156 31.9375 51.128906 C 30.648438 51.707031 27.375 52.710938 25.359375 49.242188 C 25.359375 49.242188 24.164062 47.0625 21.894531 46.902344 C 21.894531 46.902344 19.6875 46.871094 21.742188 48.28125 C 21.742188 48.28125 23.222656 48.980469 24.25 51.605469 C 24.25 51.605469 25.578125 56.019531 31.871094 54.648438 C 31.882812 56.542969 31.902344 57.972656 31.902344 58.511719 C 31.902344 59.109375 31.488281 59.8125 30.355469 59.605469 C 21.367188 56.601562 14.886719 48.09375 14.886719 38.0625 C 14.886719 25.519531 25.011719 15.355469 37.503906 15.355469 C 49.996094 15.355469 60.121094 25.523438 60.121094 38.0625 C 60.121094 48.089844 53.648438 56.59375 44.667969 59.601562 Z M 44.664062 59.601562 " fill-opacity="1" fill-rule="nonzero"/></svg>