<svg xmlns="http://www.w3.org/2000/svg" xmlns:xlink="http://www.w3.org/1999/xlink" width="150" zoomAndPan="magnify" viewBox="0 0 112.5 112.499997" height="150" preserveAspectRatio="xMidYMid meet" version="1.0"><defs><clipPath id="5cfbb8c8ab"><path d="M 7.03125 0 L 105.28125 0 L 105.28125 112.003906 L 7.03125 112.003906 Z M 7.03125 0 " clip-rule="nonzero"/></clipPath></defs><g clip-path="url(#5cfbb8c8ab)"><path fill="#e44d26" d="M 15.949219 100.9375 L 7.003906 0.402344 L 105.308594 0.402344 L 96.355469 100.925781 L 56.09375 112.101562 Z M 15.949219 100.9375 " fill-opacity="1" fill-rule="nonzero"/></g><path fill="#f16529" d="M 88.6875 94.523438 L 96.339844 8.621094 L 56.15625 8.621094 L 56.15625 103.558594 Z M 88.6875 94.523438 " fill-opacity="1" fill-rule="nonzero"/><path fill="#ebebeb" d="M 56.113281 20.953125 L 25.292969 20.953125 L 28.613281 58.238281 L 56.15625 58.238281 L 56.15625 45.910156 L 39.871094 45.910156 L 38.746094 33.285156 L 56.15625 33.285156 L 56.15625 20.953125 Z M 56.15625 77.890625 L 56.105469 77.90625 L 42.398438 74.199219 L 41.527344 64.367188 L 29.164062 64.367188 L 30.890625 83.726562 L 56.101562 90.707031 L 56.15625 90.6875 Z M 56.15625 77.890625 " fill-opacity="1" fill-rule="nonzero"/><path fill="#ffffff" d="M 56.113281 58.238281 L 71.269531 58.238281 L 69.875 74.226562 L 56.148438 77.9375 L 56.148438 90.765625 L 81.378906 83.761719 L 84.761719 45.902344 L 56.15625 45.902344 Z M 86.648438 24.261719 L 86.941406 20.953125 L 56.109375 20.953125 L 56.109375 33.28125 L 85.832031 33.28125 L 86.078125 30.507812 Z M 86.648438 24.261719 " fill-opacity="1" fill-rule="nonzero"/></svg>