<svg xmlns="http://www.w3.org/2000/svg" xmlns:xlink="http://www.w3.org/1999/xlink" width="150" zoomAndPan="magnify" viewBox="0 0 112.5 112.499997" height="150" preserveAspectRatio="xMidYMid meet" version="1.0"><defs><clipPath id="e35e4a7554"><path d="M 5.90625 0 L 106.40625 0 L 106.40625 112.003906 L 5.90625 112.003906 Z M 5.90625 0 " clip-rule="nonzero"/></clipPath></defs><g clip-path="url(#e35e4a7554)"><path fill="#0277bd" d="M 106.390625 0 L 5.921875 0 L 14.785156 100.65625 L 56.15625 112.5 L 97.527344 100.65625 Z M 106.390625 0 " fill-opacity="1" fill-rule="nonzero"/></g><path fill="#039be5" d="M 56.15625 8.882812 L 56.15625 103.324219 L 89.253906 93.847656 L 96.640625 8.882812 Z M 56.15625 8.882812 " fill-opacity="1" fill-rule="nonzero"/><path fill="#ffffff" d="M 83.046875 23.683594 L 56.15625 23.683594 L 56.15625 35.527344 L 70.636719 35.527344 L 69.75 47.367188 L 56.15625 47.367188 L 56.15625 59.210938 L 69.160156 59.210938 L 68.273438 72.53125 L 56.15625 76.675781 L 56.15625 89.113281 L 79.5 81.414062 L 81.570312 47.367188 Z M 83.046875 23.683594 " fill-opacity="1" fill-rule="nonzero"/><path fill="#eeeeee" d="M 56.15625 23.683594 L 56.15625 35.527344 L 29.855469 35.527344 L 28.96875 23.683594 Z M 42.5625 47.367188 L 43.152344 59.210938 L 56.15625 59.210938 L 56.15625 47.367188 Z M 43.746094 65.132812 L 31.925781 65.132812 L 32.8125 81.414062 L 56.15625 89.113281 L 56.15625 76.675781 L 44.039062 72.53125 Z M 43.746094 65.132812 " fill-opacity="1" fill-rule="nonzero"/></svg>