<svg xmlns="http://www.w3.org/2000/svg" xmlns:xlink="http://www.w3.org/1999/xlink" width="150" zoomAndPan="magnify" viewBox="0 0 112.5 37.5" height="50" preserveAspectRatio="xMidYMid meet" version="1.0"><defs><g/><clipPath id="353f6f0015"><path d="M 0.492188 0 L 111.511719 0 L 111.511719 37.007812 L 0.492188 37.007812 Z M 0.492188 0 " clip-rule="nonzero"/></clipPath></defs><g clip-path="url(#353f6f0015)"><path fill="#ffffff" d="M 0.492188 0 L 112.007812 0 L 112.007812 43.863281 L 0.492188 43.863281 Z M 0.492188 0 " fill-opacity="1" fill-rule="nonzero"/><path fill="#ffffff" d="M 0.492188 0 L 112.007812 0 L 112.007812 37.171875 L 0.492188 37.171875 Z M 0.492188 0 " fill-opacity="1" fill-rule="nonzero"/><path fill="#5ce1e6" d="M 0.492188 0 L 112.007812 0 L 112.007812 37.171875 L 0.492188 37.171875 Z M 0.492188 0 " fill-opacity="1" fill-rule="nonzero"/></g><g fill="#004aad" fill-opacity="0.4"><g transform="translate(12.885665, 24.438946)"><g><path d="M 0.0625 0 L 0.0625 -1.0625 L 1.40625 -1.0625 L 5.328125 -11.21875 L 7.09375 -11.21875 L 11.078125 -1.0625 L 12.34375 -1.0625 L 12.34375 0 L 7.515625 0 L 7.515625 -1.0625 L 9.171875 -1.0625 L 8.140625 -3.75 L 3.828125 -3.75 L 2.859375 -1.0625 L 4.734375 -1.0625 L 4.734375 0 Z M 4.1875 -4.703125 L 7.765625 -4.703125 L 5.921875 -9.75 Z M 4.1875 -4.703125 "/></g></g></g><g fill="#004aad" fill-opacity="0.4"><g transform="translate(25.262814, 24.438946)"><g><path d="M 0.25 0 L 0.25 -1.0625 L 2.046875 -1.0625 L 2.046875 -10.15625 L 0.25 -10.15625 L 0.25 -11.21875 L 4.265625 -11.21875 L 9.578125 -1.984375 L 9.578125 -10.15625 L 7.75 -10.15625 L 7.75 -11.21875 L 12.703125 -11.21875 L 12.703125 -10.15625 L 11 -10.15625 L 11 0 L 9 0 L 3.46875 -9.625 L 3.46875 -1.0625 L 5.171875 -1.0625 L 5.171875 0 Z M 0.25 0 "/></g></g></g><g fill="#004aad" fill-opacity="0.4"><g transform="translate(38.071898, 24.438946)"><g><path d="M 2.765625 0 L 2.765625 -1.0625 L 4.5 -1.0625 L 4.5 -10.15625 L 1.640625 -10.15625 L 1.640625 -6.6875 L 0.265625 -6.6875 L 0.265625 -11.21875 L 10.4375 -11.21875 L 10.4375 -6.6875 L 9.046875 -6.6875 L 9.046875 -10.15625 L 6.265625 -10.15625 L 6.265625 -1.0625 L 8.046875 -1.0625 L 8.046875 0 Z M 2.765625 0 "/></g></g></g><g fill="#004aad" fill-opacity="0.4"><g transform="translate(48.758552, 24.438946)"><g><path d="M 0.25 0 L 0.25 -1.0625 L 2.078125 -1.0625 L 2.078125 -10.15625 L 0.25 -10.15625 L 0.25 -11.21875 L 10.390625 -11.21875 L 10.390625 -6.90625 L 9.03125 -6.90625 L 9.03125 -10.15625 L 3.828125 -10.15625 L 3.828125 -6.125 L 6.609375 -6.125 L 6.609375 -7.953125 L 7.609375 -7.953125 L 7.609375 -3.328125 L 6.609375 -3.328125 L 6.609375 -5.265625 L 3.828125 -5.265625 L 3.828125 -1.0625 L 9.03125 -1.0625 L 9.03125 -4.25 L 10.390625 -4.25 L 10.390625 0 Z M 0.25 0 "/></g></g></g><g fill="#004aad" fill-opacity="0.4"><g transform="translate(59.810111, 24.438946)"><g><path d="M 9.5625 0.25 C 9.25 0.25 8.96875 0.191406 8.71875 0.078125 C 8.476562 -0.0234375 8.273438 -0.171875 8.109375 -0.359375 C 7.953125 -0.535156 7.804688 -0.773438 7.671875 -1.078125 C 7.546875 -1.378906 7.4375 -1.707031 7.34375 -2.0625 C 7.25 -2.46875 7.164062 -2.875 7.09375 -3.28125 C 7.050781 -3.5625 6.972656 -3.820312 6.859375 -4.0625 C 6.753906 -4.300781 6.640625 -4.484375 6.515625 -4.609375 C 6.390625 -4.734375 6.257812 -4.835938 6.125 -4.921875 C 6 -5.003906 5.890625 -5.054688 5.796875 -5.078125 C 5.722656 -5.097656 5.648438 -5.109375 5.578125 -5.109375 L 3.8125 -5.109375 L 3.8125 -1.0625 L 5.515625 -1.0625 L 5.515625 0 L 0.25 0 L 0.25 -1.0625 L 2.0625 -1.0625 L 2.0625 -10.15625 L 0.25 -10.15625 L 0.25 -11.21875 L 4.875 -11.21875 C 5.207031 -11.21875 5.484375 -11.210938 5.703125 -11.203125 C 5.921875 -11.191406 6.203125 -11.171875 6.546875 -11.140625 C 6.953125 -11.097656 7.285156 -11.039062 7.546875 -10.96875 C 7.816406 -10.90625 8.117188 -10.800781 8.453125 -10.65625 C 8.765625 -10.507812 9.015625 -10.332031 9.203125 -10.125 C 9.390625 -9.925781 9.546875 -9.664062 9.671875 -9.34375 C 9.796875 -9.03125 9.859375 -8.671875 9.859375 -8.265625 C 9.859375 -7.390625 9.585938 -6.738281 9.046875 -6.3125 C 8.785156 -6.113281 8.5 -5.945312 8.1875 -5.8125 C 7.882812 -5.6875 7.515625 -5.582031 7.078125 -5.5 C 7.367188 -5.4375 7.609375 -5.351562 7.796875 -5.25 C 7.992188 -5.144531 8.160156 -5.007812 8.296875 -4.84375 C 8.421875 -4.675781 8.519531 -4.5 8.59375 -4.3125 C 8.675781 -4.132812 8.757812 -3.890625 8.84375 -3.578125 C 8.90625 -3.335938 8.992188 -2.9375 9.109375 -2.375 C 9.140625 -2.207031 9.1875 -2.035156 9.25 -1.859375 C 9.3125 -1.679688 9.367188 -1.539062 9.421875 -1.4375 C 9.492188 -1.332031 9.578125 -1.242188 9.671875 -1.171875 C 9.773438 -1.097656 9.890625 -1.0625 10.015625 -1.0625 C 10.523438 -1.0625 10.78125 -1.53125 10.78125 -2.46875 L 10.78125 -3.515625 L 11.78125 -3.515625 L 11.78125 -2.421875 C 11.78125 -0.640625 11.039062 0.25 9.5625 0.25 Z M 4.75 -6.234375 C 5.550781 -6.234375 6.195312 -6.289062 6.6875 -6.40625 C 7.1875 -6.519531 7.578125 -6.71875 7.859375 -7 C 8.140625 -7.28125 8.28125 -7.65625 8.28125 -8.125 C 8.28125 -8.53125 8.207031 -8.863281 8.0625 -9.125 C 7.925781 -9.382812 7.703125 -9.59375 7.390625 -9.75 C 7.078125 -9.894531 6.710938 -10 6.296875 -10.0625 C 5.878906 -10.125 5.34375 -10.15625 4.6875 -10.15625 L 3.8125 -10.15625 L 3.8125 -6.234375 Z M 4.75 -6.234375 "/></g></g></g><g fill="#004aad" fill-opacity="0.4"><g transform="translate(71.598942, 24.438946)"><g><path d="M 0.21875 0 L 0.21875 -1.0625 L 2.046875 -1.0625 L 2.046875 -10.15625 L 0.21875 -10.15625 L 0.21875 -11.21875 L 5.515625 -11.21875 L 5.515625 -10.15625 L 3.796875 -10.15625 L 3.796875 -1.0625 L 5.515625 -1.0625 L 5.515625 0 Z M 0.21875 0 "/></g></g></g><g fill="#004aad" fill-opacity="0.4"><g transform="translate(77.3258, 24.438946)"><g><path d="M 5.921875 0.203125 C 5.242188 0.203125 4.613281 0.09375 4.03125 -0.125 C 3.445312 -0.34375 2.941406 -0.640625 2.515625 -1.015625 C 2.109375 -1.390625 1.757812 -1.828125 1.46875 -2.328125 C 1.175781 -2.828125 0.960938 -3.351562 0.828125 -3.90625 C 0.691406 -4.457031 0.625 -5.03125 0.625 -5.625 C 0.625 -6.832031 0.90625 -7.925781 1.46875 -8.90625 C 1.769531 -9.425781 2.125 -9.867188 2.53125 -10.234375 C 2.945312 -10.609375 3.441406 -10.90625 4.015625 -11.125 C 4.609375 -11.34375 5.242188 -11.453125 5.921875 -11.453125 C 6.597656 -11.453125 7.226562 -11.34375 7.8125 -11.125 C 8.40625 -10.90625 8.910156 -10.601562 9.328125 -10.21875 C 9.734375 -9.84375 10.082031 -9.40625 10.375 -8.90625 C 10.664062 -8.40625 10.878906 -7.878906 11.015625 -7.328125 C 11.148438 -6.773438 11.21875 -6.207031 11.21875 -5.625 C 11.21875 -4.40625 10.9375 -3.304688 10.375 -2.328125 C 10.070312 -1.816406 9.710938 -1.375 9.296875 -1 C 8.890625 -0.632812 8.40625 -0.347656 7.84375 -0.140625 C 7.257812 0.0859375 6.617188 0.203125 5.921875 0.203125 Z M 5.921875 -0.84375 C 6.441406 -0.84375 6.921875 -0.972656 7.359375 -1.234375 C 7.804688 -1.503906 8.171875 -1.867188 8.453125 -2.328125 C 8.734375 -2.773438 8.945312 -3.28125 9.09375 -3.84375 C 9.238281 -4.414062 9.3125 -5.003906 9.3125 -5.609375 C 9.3125 -6.085938 9.265625 -6.554688 9.171875 -7.015625 C 9.078125 -7.484375 8.9375 -7.914062 8.75 -8.3125 C 8.332031 -9.1875 7.789062 -9.796875 7.125 -10.140625 C 6.757812 -10.316406 6.359375 -10.40625 5.921875 -10.40625 C 5.398438 -10.40625 4.921875 -10.269531 4.484375 -10 C 4.046875 -9.738281 3.6875 -9.378906 3.40625 -8.921875 C 3.125 -8.460938 2.90625 -7.953125 2.75 -7.390625 C 2.601562 -6.828125 2.53125 -6.242188 2.53125 -5.640625 C 2.53125 -4.609375 2.71875 -3.695312 3.09375 -2.90625 C 3.300781 -2.476562 3.535156 -2.113281 3.796875 -1.8125 C 4.066406 -1.507812 4.378906 -1.273438 4.734375 -1.109375 C 5.097656 -0.929688 5.492188 -0.84375 5.921875 -0.84375 Z M 5.921875 -0.84375 "/></g></g></g><g fill="#004aad" fill-opacity="0.4"><g transform="translate(89.159314, 24.438946)"><g><path d="M 9.5625 0.25 C 9.25 0.25 8.96875 0.191406 8.71875 0.078125 C 8.476562 -0.0234375 8.273438 -0.171875 8.109375 -0.359375 C 7.953125 -0.535156 7.804688 -0.773438 7.671875 -1.078125 C 7.546875 -1.378906 7.4375 -1.707031 7.34375 -2.0625 C 7.25 -2.46875 7.164062 -2.875 7.09375 -3.28125 C 7.050781 -3.5625 6.972656 -3.820312 6.859375 -4.0625 C 6.753906 -4.300781 6.640625 -4.484375 6.515625 -4.609375 C 6.390625 -4.734375 6.257812 -4.835938 6.125 -4.921875 C 6 -5.003906 5.890625 -5.054688 5.796875 -5.078125 C 5.722656 -5.097656 5.648438 -5.109375 5.578125 -5.109375 L 3.8125 -5.109375 L 3.8125 -1.0625 L 5.515625 -1.0625 L 5.515625 0 L 0.25 0 L 0.25 -1.0625 L 2.0625 -1.0625 L 2.0625 -10.15625 L 0.25 -10.15625 L 0.25 -11.21875 L 4.875 -11.21875 C 5.207031 -11.21875 5.484375 -11.210938 5.703125 -11.203125 C 5.921875 -11.191406 6.203125 -11.171875 6.546875 -11.140625 C 6.953125 -11.097656 7.285156 -11.039062 7.546875 -10.96875 C 7.816406 -10.90625 8.117188 -10.800781 8.453125 -10.65625 C 8.765625 -10.507812 9.015625 -10.332031 9.203125 -10.125 C 9.390625 -9.925781 9.546875 -9.664062 9.671875 -9.34375 C 9.796875 -9.03125 9.859375 -8.671875 9.859375 -8.265625 C 9.859375 -7.390625 9.585938 -6.738281 9.046875 -6.3125 C 8.785156 -6.113281 8.5 -5.945312 8.1875 -5.8125 C 7.882812 -5.6875 7.515625 -5.582031 7.078125 -5.5 C 7.367188 -5.4375 7.609375 -5.351562 7.796875 -5.25 C 7.992188 -5.144531 8.160156 -5.007812 8.296875 -4.84375 C 8.421875 -4.675781 8.519531 -4.5 8.59375 -4.3125 C 8.675781 -4.132812 8.757812 -3.890625 8.84375 -3.578125 C 8.90625 -3.335938 8.992188 -2.9375 9.109375 -2.375 C 9.140625 -2.207031 9.1875 -2.035156 9.25 -1.859375 C 9.3125 -1.679688 9.367188 -1.539062 9.421875 -1.4375 C 9.492188 -1.332031 9.578125 -1.242188 9.671875 -1.171875 C 9.773438 -1.097656 9.890625 -1.0625 10.015625 -1.0625 C 10.523438 -1.0625 10.78125 -1.53125 10.78125 -2.46875 L 10.78125 -3.515625 L 11.78125 -3.515625 L 11.78125 -2.421875 C 11.78125 -0.640625 11.039062 0.25 9.5625 0.25 Z M 4.75 -6.234375 C 5.550781 -6.234375 6.195312 -6.289062 6.6875 -6.40625 C 7.1875 -6.519531 7.578125 -6.71875 7.859375 -7 C 8.140625 -7.28125 8.28125 -7.65625 8.28125 -8.125 C 8.28125 -8.53125 8.207031 -8.863281 8.0625 -9.125 C 7.925781 -9.382812 7.703125 -9.59375 7.390625 -9.75 C 7.078125 -9.894531 6.710938 -10 6.296875 -10.0625 C 5.878906 -10.125 5.34375 -10.15625 4.6875 -10.15625 L 3.8125 -10.15625 L 3.8125 -6.234375 Z M 4.75 -6.234375 "/></g></g></g><g fill="#004aad" fill-opacity="1"><g transform="translate(12.210855, 23.764136)"><g><path d="M 0.0625 0 L 0.0625 -1.0625 L 1.40625 -1.0625 L 5.328125 -11.21875 L 7.09375 -11.21875 L 11.078125 -1.0625 L 12.34375 -1.0625 L 12.34375 0 L 7.515625 0 L 7.515625 -1.0625 L 9.171875 -1.0625 L 8.140625 -3.75 L 3.828125 -3.75 L 2.859375 -1.0625 L 4.734375 -1.0625 L 4.734375 0 Z M 4.1875 -4.703125 L 7.765625 -4.703125 L 5.921875 -9.75 Z M 4.1875 -4.703125 "/></g></g></g><g fill="#004aad" fill-opacity="1"><g transform="translate(24.588004, 23.764136)"><g><path d="M 0.25 0 L 0.25 -1.0625 L 2.046875 -1.0625 L 2.046875 -10.15625 L 0.25 -10.15625 L 0.25 -11.21875 L 4.265625 -11.21875 L 9.578125 -1.984375 L 9.578125 -10.15625 L 7.75 -10.15625 L 7.75 -11.21875 L 12.703125 -11.21875 L 12.703125 -10.15625 L 11 -10.15625 L 11 0 L 9 0 L 3.46875 -9.625 L 3.46875 -1.0625 L 5.171875 -1.0625 L 5.171875 0 Z M 0.25 0 "/></g></g></g><g fill="#004aad" fill-opacity="1"><g transform="translate(37.397088, 23.764136)"><g><path d="M 2.765625 0 L 2.765625 -1.0625 L 4.5 -1.0625 L 4.5 -10.15625 L 1.640625 -10.15625 L 1.640625 -6.6875 L 0.265625 -6.6875 L 0.265625 -11.21875 L 10.4375 -11.21875 L 10.4375 -6.6875 L 9.046875 -6.6875 L 9.046875 -10.15625 L 6.265625 -10.15625 L 6.265625 -1.0625 L 8.046875 -1.0625 L 8.046875 0 Z M 2.765625 0 "/></g></g></g><g fill="#004aad" fill-opacity="1"><g transform="translate(48.083742, 23.764136)"><g><path d="M 0.25 0 L 0.25 -1.0625 L 2.078125 -1.0625 L 2.078125 -10.15625 L 0.25 -10.15625 L 0.25 -11.21875 L 10.390625 -11.21875 L 10.390625 -6.90625 L 9.03125 -6.90625 L 9.03125 -10.15625 L 3.828125 -10.15625 L 3.828125 -6.125 L 6.609375 -6.125 L 6.609375 -7.953125 L 7.609375 -7.953125 L 7.609375 -3.328125 L 6.609375 -3.328125 L 6.609375 -5.265625 L 3.828125 -5.265625 L 3.828125 -1.0625 L 9.03125 -1.0625 L 9.03125 -4.25 L 10.390625 -4.25 L 10.390625 0 Z M 0.25 0 "/></g></g></g><g fill="#004aad" fill-opacity="1"><g transform="translate(59.135301, 23.764136)"><g><path d="M 9.5625 0.25 C 9.25 0.25 8.96875 0.191406 8.71875 0.078125 C 8.476562 -0.0234375 8.273438 -0.171875 8.109375 -0.359375 C 7.953125 -0.535156 7.804688 -0.773438 7.671875 -1.078125 C 7.546875 -1.378906 7.4375 -1.707031 7.34375 -2.0625 C 7.25 -2.46875 7.164062 -2.875 7.09375 -3.28125 C 7.050781 -3.5625 6.972656 -3.820312 6.859375 -4.0625 C 6.753906 -4.300781 6.640625 -4.484375 6.515625 -4.609375 C 6.390625 -4.734375 6.257812 -4.835938 6.125 -4.921875 C 6 -5.003906 5.890625 -5.054688 5.796875 -5.078125 C 5.722656 -5.097656 5.648438 -5.109375 5.578125 -5.109375 L 3.8125 -5.109375 L 3.8125 -1.0625 L 5.515625 -1.0625 L 5.515625 0 L 0.25 0 L 0.25 -1.0625 L 2.0625 -1.0625 L 2.0625 -10.15625 L 0.25 -10.15625 L 0.25 -11.21875 L 4.875 -11.21875 C 5.207031 -11.21875 5.484375 -11.210938 5.703125 -11.203125 C 5.921875 -11.191406 6.203125 -11.171875 6.546875 -11.140625 C 6.953125 -11.097656 7.285156 -11.039062 7.546875 -10.96875 C 7.816406 -10.90625 8.117188 -10.800781 8.453125 -10.65625 C 8.765625 -10.507812 9.015625 -10.332031 9.203125 -10.125 C 9.390625 -9.925781 9.546875 -9.664062 9.671875 -9.34375 C 9.796875 -9.03125 9.859375 -8.671875 9.859375 -8.265625 C 9.859375 -7.390625 9.585938 -6.738281 9.046875 -6.3125 C 8.785156 -6.113281 8.5 -5.945312 8.1875 -5.8125 C 7.882812 -5.6875 7.515625 -5.582031 7.078125 -5.5 C 7.367188 -5.4375 7.609375 -5.351562 7.796875 -5.25 C 7.992188 -5.144531 8.160156 -5.007812 8.296875 -4.84375 C 8.421875 -4.675781 8.519531 -4.5 8.59375 -4.3125 C 8.675781 -4.132812 8.757812 -3.890625 8.84375 -3.578125 C 8.90625 -3.335938 8.992188 -2.9375 9.109375 -2.375 C 9.140625 -2.207031 9.1875 -2.035156 9.25 -1.859375 C 9.3125 -1.679688 9.367188 -1.539062 9.421875 -1.4375 C 9.492188 -1.332031 9.578125 -1.242188 9.671875 -1.171875 C 9.773438 -1.097656 9.890625 -1.0625 10.015625 -1.0625 C 10.523438 -1.0625 10.78125 -1.53125 10.78125 -2.46875 L 10.78125 -3.515625 L 11.78125 -3.515625 L 11.78125 -2.421875 C 11.78125 -0.640625 11.039062 0.25 9.5625 0.25 Z M 4.75 -6.234375 C 5.550781 -6.234375 6.195312 -6.289062 6.6875 -6.40625 C 7.1875 -6.519531 7.578125 -6.71875 7.859375 -7 C 8.140625 -7.28125 8.28125 -7.65625 8.28125 -8.125 C 8.28125 -8.53125 8.207031 -8.863281 8.0625 -9.125 C 7.925781 -9.382812 7.703125 -9.59375 7.390625 -9.75 C 7.078125 -9.894531 6.710938 -10 6.296875 -10.0625 C 5.878906 -10.125 5.34375 -10.15625 4.6875 -10.15625 L 3.8125 -10.15625 L 3.8125 -6.234375 Z M 4.75 -6.234375 "/></g></g></g><g fill="#004aad" fill-opacity="1"><g transform="translate(70.924132, 23.764136)"><g><path d="M 0.21875 0 L 0.21875 -1.0625 L 2.046875 -1.0625 L 2.046875 -10.15625 L 0.21875 -10.15625 L 0.21875 -11.21875 L 5.515625 -11.21875 L 5.515625 -10.15625 L 3.796875 -10.15625 L 3.796875 -1.0625 L 5.515625 -1.0625 L 5.515625 0 Z M 0.21875 0 "/></g></g></g><g fill="#004aad" fill-opacity="1"><g transform="translate(76.65099, 23.764136)"><g><path d="M 5.921875 0.203125 C 5.242188 0.203125 4.613281 0.09375 4.03125 -0.125 C 3.445312 -0.34375 2.941406 -0.640625 2.515625 -1.015625 C 2.109375 -1.390625 1.757812 -1.828125 1.46875 -2.328125 C 1.175781 -2.828125 0.960938 -3.351562 0.828125 -3.90625 C 0.691406 -4.457031 0.625 -5.03125 0.625 -5.625 C 0.625 -6.832031 0.90625 -7.925781 1.46875 -8.90625 C 1.769531 -9.425781 2.125 -9.867188 2.53125 -10.234375 C 2.945312 -10.609375 3.441406 -10.90625 4.015625 -11.125 C 4.609375 -11.34375 5.242188 -11.453125 5.921875 -11.453125 C 6.597656 -11.453125 7.226562 -11.34375 7.8125 -11.125 C 8.40625 -10.90625 8.910156 -10.601562 9.328125 -10.21875 C 9.734375 -9.84375 10.082031 -9.40625 10.375 -8.90625 C 10.664062 -8.40625 10.878906 -7.878906 11.015625 -7.328125 C 11.148438 -6.773438 11.21875 -6.207031 11.21875 -5.625 C 11.21875 -4.40625 10.9375 -3.304688 10.375 -2.328125 C 10.070312 -1.816406 9.710938 -1.375 9.296875 -1 C 8.890625 -0.632812 8.40625 -0.347656 7.84375 -0.140625 C 7.257812 0.0859375 6.617188 0.203125 5.921875 0.203125 Z M 5.921875 -0.84375 C 6.441406 -0.84375 6.921875 -0.972656 7.359375 -1.234375 C 7.804688 -1.503906 8.171875 -1.867188 8.453125 -2.328125 C 8.734375 -2.773438 8.945312 -3.28125 9.09375 -3.84375 C 9.238281 -4.414062 9.3125 -5.003906 9.3125 -5.609375 C 9.3125 -6.085938 9.265625 -6.554688 9.171875 -7.015625 C 9.078125 -7.484375 8.9375 -7.914062 8.75 -8.3125 C 8.332031 -9.1875 7.789062 -9.796875 7.125 -10.140625 C 6.757812 -10.316406 6.359375 -10.40625 5.921875 -10.40625 C 5.398438 -10.40625 4.921875 -10.269531 4.484375 -10 C 4.046875 -9.738281 3.6875 -9.378906 3.40625 -8.921875 C 3.125 -8.460938 2.90625 -7.953125 2.75 -7.390625 C 2.601562 -6.828125 2.53125 -6.242188 2.53125 -5.640625 C 2.53125 -4.609375 2.71875 -3.695312 3.09375 -2.90625 C 3.300781 -2.476562 3.535156 -2.113281 3.796875 -1.8125 C 4.066406 -1.507812 4.378906 -1.273438 4.734375 -1.109375 C 5.097656 -0.929688 5.492188 -0.84375 5.921875 -0.84375 Z M 5.921875 -0.84375 "/></g></g></g><g fill="#004aad" fill-opacity="1"><g transform="translate(88.484504, 23.764136)"><g><path d="M 9.5625 0.25 C 9.25 0.25 8.96875 0.191406 8.71875 0.078125 C 8.476562 -0.0234375 8.273438 -0.171875 8.109375 -0.359375 C 7.953125 -0.535156 7.804688 -0.773438 7.671875 -1.078125 C 7.546875 -1.378906 7.4375 -1.707031 7.34375 -2.0625 C 7.25 -2.46875 7.164062 -2.875 7.09375 -3.28125 C 7.050781 -3.5625 6.972656 -3.820312 6.859375 -4.0625 C 6.753906 -4.300781 6.640625 -4.484375 6.515625 -4.609375 C 6.390625 -4.734375 6.257812 -4.835938 6.125 -4.921875 C 6 -5.003906 5.890625 -5.054688 5.796875 -5.078125 C 5.722656 -5.097656 5.648438 -5.109375 5.578125 -5.109375 L 3.8125 -5.109375 L 3.8125 -1.0625 L 5.515625 -1.0625 L 5.515625 0 L 0.25 0 L 0.25 -1.0625 L 2.0625 -1.0625 L 2.0625 -10.15625 L 0.25 -10.15625 L 0.25 -11.21875 L 4.875 -11.21875 C 5.207031 -11.21875 5.484375 -11.210938 5.703125 -11.203125 C 5.921875 -11.191406 6.203125 -11.171875 6.546875 -11.140625 C 6.953125 -11.097656 7.285156 -11.039062 7.546875 -10.96875 C 7.816406 -10.90625 8.117188 -10.800781 8.453125 -10.65625 C 8.765625 -10.507812 9.015625 -10.332031 9.203125 -10.125 C 9.390625 -9.925781 9.546875 -9.664062 9.671875 -9.34375 C 9.796875 -9.03125 9.859375 -8.671875 9.859375 -8.265625 C 9.859375 -7.390625 9.585938 -6.738281 9.046875 -6.3125 C 8.785156 -6.113281 8.5 -5.945312 8.1875 -5.8125 C 7.882812 -5.6875 7.515625 -5.582031 7.078125 -5.5 C 7.367188 -5.4375 7.609375 -5.351562 7.796875 -5.25 C 7.992188 -5.144531 8.160156 -5.007812 8.296875 -4.84375 C 8.421875 -4.675781 8.519531 -4.5 8.59375 -4.3125 C 8.675781 -4.132812 8.757812 -3.890625 8.84375 -3.578125 C 8.90625 -3.335938 8.992188 -2.9375 9.109375 -2.375 C 9.140625 -2.207031 9.1875 -2.035156 9.25 -1.859375 C 9.3125 -1.679688 9.367188 -1.539062 9.421875 -1.4375 C 9.492188 -1.332031 9.578125 -1.242188 9.671875 -1.171875 C 9.773438 -1.097656 9.890625 -1.0625 10.015625 -1.0625 C 10.523438 -1.0625 10.78125 -1.53125 10.78125 -2.46875 L 10.78125 -3.515625 L 11.78125 -3.515625 L 11.78125 -2.421875 C 11.78125 -0.640625 11.039062 0.25 9.5625 0.25 Z M 4.75 -6.234375 C 5.550781 -6.234375 6.195312 -6.289062 6.6875 -6.40625 C 7.1875 -6.519531 7.578125 -6.71875 7.859375 -7 C 8.140625 -7.28125 8.28125 -7.65625 8.28125 -8.125 C 8.28125 -8.53125 8.207031 -8.863281 8.0625 -9.125 C 7.925781 -9.382812 7.703125 -9.59375 7.390625 -9.75 C 7.078125 -9.894531 6.710938 -10 6.296875 -10.0625 C 5.878906 -10.125 5.34375 -10.15625 4.6875 -10.15625 L 3.8125 -10.15625 L 3.8125 -6.234375 Z M 4.75 -6.234375 "/></g></g></g></svg>