<svg xmlns="http://www.w3.org/2000/svg" xmlns:xlink="http://www.w3.org/1999/xlink" width="45" zoomAndPan="magnify" viewBox="0 0 33.75 33.749999" height="45" preserveAspectRatio="xMidYMid meet" version="1.0"><defs><clipPath id="83f3046bde"><path d="M 0 0 L 33.5 0 L 33.5 33.5 L 0 33.5 Z M 0 0 " clip-rule="nonzero"/></clipPath></defs><g clip-path="url(#83f3046bde)"><path fill="#ffcc4d" d="M 2.066406 33.597656 C 0.300781 33.597656 -0.476562 32.308594 0.335938 30.734375 L 15.292969 1.761719 C 16.105469 0.1875 17.4375 0.1875 18.25 1.761719 L 33.210938 30.734375 C 34.023438 32.308594 33.246094 33.597656 31.480469 33.597656 Z M 2.066406 33.597656 " fill-opacity="1" fill-rule="nonzero"/></g><path fill="#231f20" d="M 14.457031 27.769531 C 14.457031 26.484375 15.496094 25.4375 16.773438 25.4375 C 18.050781 25.4375 19.09375 26.484375 19.09375 27.769531 C 19.09375 29.054688 18.050781 30.101562 16.773438 30.101562 C 15.496094 30.101562 14.457031 29.054688 14.457031 27.769531 Z M 14.636719 10.136719 C 14.636719 8.882812 15.554688 8.105469 16.773438 8.105469 C 17.964844 8.105469 18.914062 8.914062 18.914062 10.136719 L 18.914062 21.644531 C 18.914062 22.871094 17.964844 23.675781 16.773438 23.675781 C 15.554688 23.675781 14.636719 22.898438 14.636719 21.644531 Z M 14.636719 10.136719 " fill-opacity="1" fill-rule="nonzero"/></svg>