<svg xmlns="http://www.w3.org/2000/svg" xmlns:xlink="http://www.w3.org/1999/xlink" width="500" zoomAndPan="magnify" viewBox="0 0 375 374.999991" height="500" preserveAspectRatio="xMidYMid meet" version="1.0"><defs><g/><clipPath id="1dc3433c29"><path d="M 187.5 0 L 375 187.5 L 187.5 375 L 0 187.5 L 187.5 0 " clip-rule="nonzero"/></clipPath></defs><g clip-path="url(#1dc3433c29)"><rect x="-37.5" width="450" fill="#000000" y="-37.499999" height="449.999989" fill-opacity="1"/></g><path stroke-linecap="butt" transform="matrix(1.016643, -1.016643, 1.01783, 1.01783, 131.447573, 240.490779)" fill="none" stroke-linejoin="miter" d="M 0.000116653 1.49825 L 107.137005 1.500169 " stroke="#ffffff" stroke-width="3" stroke-opacity="1" stroke-miterlimit="4"/><g fill="#ffffff" fill-opacity="1"><g transform="translate(115.464724, 163.323617)"><g><path d="M 42.828125 0 L 16.671875 -29.171875 L 16.671875 -7.671875 C 16.671875 -4.890625 17.054688 -2.941406 17.828125 -1.828125 C 18.609375 -0.722656 19.332031 -0.113281 20 0 L 7.171875 0 C 7.835938 -0.113281 8.585938 -0.710938 9.421875 -1.796875 C 10.253906 -2.878906 10.671875 -4.835938 10.671875 -7.671875 L 10.671875 -49.578125 C 10.671875 -52.410156 10.28125 -54.351562 9.5 -55.40625 C 8.71875 -56.46875 7.941406 -57.109375 7.171875 -57.328125 L 20 -57.328125 C 19.332031 -57.210938 18.609375 -56.613281 17.828125 -55.53125 C 17.054688 -54.445312 16.671875 -52.460938 16.671875 -49.578125 L 16.671875 -29.421875 L 36.421875 -49.078125 C 39.578125 -52.242188 41.15625 -54.410156 41.15625 -55.578125 C 41.15625 -56.578125 40.769531 -57.160156 40 -57.328125 L 53.078125 -57.328125 C 52.191406 -57.210938 50.789062 -56.613281 48.875 -55.53125 C 46.957031 -54.445312 44.5 -52.40625 41.5 -49.40625 L 22.828125 -30.921875 L 43.90625 -8 C 46.46875 -5.050781 48.484375 -3.035156 49.953125 -1.953125 C 51.421875 -0.867188 52.460938 -0.21875 53.078125 0 Z M 42.828125 0 "/></g></g></g><g fill="#ffffff" fill-opacity="1"><g transform="translate(198.045533, 261.646933)"><g><path d="M 60.75 -57.328125 C 59.96875 -57.160156 59.203125 -56.535156 58.453125 -55.453125 C 57.703125 -54.367188 57.328125 -52.46875 57.328125 -49.75 L 57.328125 2.328125 L 14.671875 -47.40625 L 14.671875 -7.5 C 14.671875 -4.832031 15.140625 -2.957031 16.078125 -1.875 C 17.023438 -0.789062 17.941406 -0.164062 18.828125 0 L 7.078125 0 C 7.859375 -0.164062 8.648438 -0.789062 9.453125 -1.875 C 10.265625 -2.957031 10.671875 -4.859375 10.671875 -7.578125 L 10.671875 -49.25 C 10.671875 -51.132812 10.03125 -52.851562 8.75 -54.40625 C 7.46875 -55.96875 5.859375 -56.941406 3.921875 -57.328125 L 14.25 -57.328125 L 53.328125 -11.75 L 53.328125 -49.75 C 53.328125 -54.019531 51.882812 -56.546875 49 -57.328125 Z M 60.75 -57.328125 "/></g></g></g></svg>