<svg xmlns="http://www.w3.org/2000/svg" xmlns:xlink="http://www.w3.org/1999/xlink" width="500" zoomAndPan="magnify" viewBox="0 0 375 374.999991" height="500" preserveAspectRatio="xMidYMid meet" version="1.0"><defs><g/><clipPath id="af4961f3c8"><path d="M 89.804688 51.285156 L 285.195312 51.285156 L 285.195312 246.675781 L 89.804688 246.675781 Z M 89.804688 51.285156 " clip-rule="nonzero"/></clipPath><clipPath id="122d07d0b9"><path d="M 187.5 51.285156 L 285.195312 148.980469 L 187.5 246.675781 L 89.804688 148.980469 L 187.5 51.285156 " clip-rule="nonzero"/></clipPath></defs><g clip-path="url(#af4961f3c8)"><g clip-path="url(#122d07d0b9)"><path fill="#000000" d="M 89.804688 51.285156 L 285.195312 51.285156 L 285.195312 246.675781 L 89.804688 246.675781 Z M 89.804688 51.285156 " fill-opacity="1" fill-rule="nonzero"/></g></g><path stroke-linecap="butt" transform="matrix(0.709058, -0.709058, 0.705228, 0.705228, 158.385419, 176.684256)" fill="none" stroke-linejoin="miter" d="M -0.00137066 1.00024 L 80.568825 1.00024 " stroke="#ffffff" stroke-width="2" stroke-opacity="1" stroke-miterlimit="4"/><g fill="#ffffff" fill-opacity="1"><g transform="translate(149.966743, 136.38519)"><g><path d="M 22.3125 0 L 8.6875 -15.1875 L 8.6875 -4 C 8.6875 -2.550781 8.882812 -1.535156 9.28125 -0.953125 C 9.6875 -0.378906 10.066406 -0.0625 10.421875 0 L 3.734375 0 C 4.078125 -0.0625 4.46875 -0.375 4.90625 -0.9375 C 5.34375 -1.5 5.5625 -2.519531 5.5625 -4 L 5.5625 -25.828125 C 5.5625 -27.304688 5.359375 -28.316406 4.953125 -28.859375 C 4.546875 -29.410156 4.140625 -29.742188 3.734375 -29.859375 L 10.421875 -29.859375 C 10.066406 -29.804688 9.6875 -29.492188 9.28125 -28.921875 C 8.882812 -28.359375 8.6875 -27.328125 8.6875 -25.828125 L 8.6875 -15.328125 L 18.96875 -25.5625 C 20.613281 -27.21875 21.4375 -28.347656 21.4375 -28.953125 C 21.4375 -29.472656 21.234375 -29.773438 20.828125 -29.859375 L 27.65625 -29.859375 C 27.1875 -29.804688 26.453125 -29.492188 25.453125 -28.921875 C 24.453125 -28.359375 23.171875 -27.296875 21.609375 -25.734375 L 11.890625 -16.109375 L 22.875 -4.171875 C 24.207031 -2.628906 25.253906 -1.578125 26.015625 -1.015625 C 26.785156 -0.453125 27.332031 -0.113281 27.65625 0 Z M 22.3125 0 "/></g></g></g><g fill="#ffffff" fill-opacity="1"><g transform="translate(192.99463, 187.615538)"><g><path d="M 31.640625 -29.859375 C 31.234375 -29.773438 30.832031 -29.453125 30.4375 -28.890625 C 30.050781 -28.328125 29.859375 -27.332031 29.859375 -25.90625 L 29.859375 1.21875 L 7.640625 -24.703125 L 7.640625 -3.90625 C 7.640625 -2.519531 7.882812 -1.539062 8.375 -0.96875 C 8.863281 -0.40625 9.34375 -0.0820312 9.8125 0 L 3.6875 0 C 4.09375 -0.0820312 4.503906 -0.40625 4.921875 -0.96875 C 5.347656 -1.539062 5.5625 -2.535156 5.5625 -3.953125 L 5.5625 -25.65625 C 5.5625 -26.632812 5.226562 -27.53125 4.5625 -28.34375 C 3.894531 -29.15625 3.054688 -29.660156 2.046875 -29.859375 L 7.421875 -29.859375 L 27.78125 -6.125 L 27.78125 -25.90625 C 27.78125 -28.132812 27.023438 -29.453125 25.515625 -29.859375 Z M 31.640625 -29.859375 "/></g></g></g><g fill="#000000" fill-opacity="1"><g transform="translate(108.365593, 283.006635)"><g><path d="M 12.296875 0 L 4.78125 -8.375 L 4.78125 -2.203125 C 4.78125 -1.398438 4.890625 -0.835938 5.109375 -0.515625 C 5.335938 -0.203125 5.550781 -0.03125 5.75 0 L 2.0625 0 C 2.25 -0.03125 2.460938 -0.203125 2.703125 -0.515625 C 2.941406 -0.828125 3.0625 -1.390625 3.0625 -2.203125 L 3.0625 -14.25 C 3.0625 -15.0625 2.945312 -15.617188 2.71875 -15.921875 C 2.5 -16.222656 2.28125 -16.40625 2.0625 -16.46875 L 5.75 -16.46875 C 5.550781 -16.4375 5.335938 -16.265625 5.109375 -15.953125 C 4.890625 -15.640625 4.78125 -15.070312 4.78125 -14.25 L 4.78125 -8.453125 L 10.453125 -14.09375 C 11.367188 -15.007812 11.828125 -15.632812 11.828125 -15.96875 C 11.828125 -16.25 11.710938 -16.414062 11.484375 -16.46875 L 15.25 -16.46875 C 14.988281 -16.4375 14.582031 -16.265625 14.03125 -15.953125 C 13.488281 -15.640625 12.785156 -15.050781 11.921875 -14.1875 L 6.5625 -8.875 L 12.609375 -2.296875 C 13.347656 -1.453125 13.925781 -0.875 14.34375 -0.5625 C 14.769531 -0.25 15.070312 -0.0625 15.25 0 Z M 12.296875 0 "/></g></g></g><g fill="#000000" fill-opacity="1"><g transform="translate(129.740758, 283.006635)"><g><path d="M 3.0625 -14.25 C 3.0625 -14.882812 2.984375 -15.363281 2.828125 -15.6875 C 2.679688 -16.019531 2.507812 -16.238281 2.3125 -16.34375 C 2.125 -16.457031 2.03125 -16.5 2.03125 -16.46875 L 5.84375 -16.46875 C 5.84375 -16.5 5.742188 -16.457031 5.546875 -16.34375 C 5.359375 -16.238281 5.179688 -16.019531 5.015625 -15.6875 C 4.859375 -15.363281 4.78125 -14.882812 4.78125 -14.25 L 4.78125 -0.953125 L 8.71875 -0.953125 C 9.4375 -0.953125 10.050781 -1.097656 10.5625 -1.390625 C 11.082031 -1.691406 11.457031 -2.070312 11.6875 -2.53125 L 11.25 0 L 2.03125 0 C 2.03125 0.0507812 2.125 0.0195312 2.3125 -0.09375 C 2.507812 -0.21875 2.679688 -0.457031 2.828125 -0.8125 C 2.984375 -1.175781 3.0625 -1.703125 3.0625 -2.390625 Z M 3.0625 -14.25 "/></g></g></g><g fill="#000000" fill-opacity="1"><g transform="translate(147.334007, 283.006635)"><g><path d="M 5.046875 -6.390625 L 3.515625 -2.578125 C 3.273438 -1.992188 3.15625 -1.507812 3.15625 -1.125 C 3.15625 -0.59375 3.394531 -0.21875 3.875 0 L 0.453125 0 C 0.609375 0 0.835938 -0.15625 1.140625 -0.46875 C 1.453125 -0.789062 1.804688 -1.425781 2.203125 -2.375 L 8.453125 -17.234375 L 14.65625 -2.296875 C 15 -1.429688 15.332031 -0.835938 15.65625 -0.515625 C 15.988281 -0.203125 16.25 -0.03125 16.4375 0 L 12.46875 0 C 12.863281 -0.1875 13.0625 -0.484375 13.0625 -0.890625 C 13.0625 -1.222656 12.9375 -1.703125 12.6875 -2.328125 L 11.015625 -6.390625 Z M 10.625 -7.375 L 8.015625 -13.765625 L 5.453125 -7.375 Z M 10.625 -7.375 "/></g></g></g><g fill="#000000" fill-opacity="1"><g transform="translate(169.283628, 283.006635)"><g><path d="M 13.9375 -16.46875 C 13.769531 -16.4375 13.507812 -16.257812 13.15625 -15.9375 C 12.8125 -15.625 12.390625 -15.035156 11.890625 -14.171875 L 7.75 -7.0625 L 7.75 -2.21875 C 7.75 -1.40625 7.859375 -0.835938 8.078125 -0.515625 C 8.304688 -0.203125 8.519531 -0.03125 8.71875 0 L 5.078125 0 C 5.265625 -0.03125 5.46875 -0.203125 5.6875 -0.515625 C 5.914062 -0.828125 6.03125 -1.394531 6.03125 -2.21875 L 6.03125 -7.078125 L 1.9375 -14.1875 C 1.457031 -15.019531 1.039062 -15.59375 0.6875 -15.90625 C 0.34375 -16.21875 0.0664062 -16.40625 -0.140625 -16.46875 L 3.875 -16.46875 C 3.476562 -16.382812 3.28125 -16.128906 3.28125 -15.703125 C 3.28125 -15.554688 3.328125 -15.382812 3.421875 -15.1875 C 3.515625 -14.988281 3.664062 -14.707031 3.875 -14.34375 L 7.34375 -8.234375 L 10.8125 -14.25 C 11.09375 -14.6875 11.234375 -15.140625 11.234375 -15.609375 C 11.234375 -15.910156 11.140625 -16.117188 10.953125 -16.234375 C 10.765625 -16.359375 10.582031 -16.4375 10.40625 -16.46875 Z M 13.9375 -16.46875 "/></g></g></g><g fill="#000000" fill-opacity="1"><g transform="translate(188.169426, 283.006635)"><g/></g></g><g fill="#000000" fill-opacity="1"><g transform="translate(199.778637, 283.006635)"><g><path d="M 17.453125 -16.46875 C 17.222656 -16.414062 17 -16.234375 16.78125 -15.921875 C 16.570312 -15.617188 16.46875 -15.078125 16.46875 -14.296875 L 16.46875 0.671875 L 4.21875 -13.625 L 4.21875 -2.15625 C 4.21875 -1.382812 4.351562 -0.84375 4.625 -0.53125 C 4.894531 -0.226562 5.15625 -0.0507812 5.40625 0 L 2.03125 0 C 2.257812 -0.0507812 2.488281 -0.226562 2.71875 -0.53125 C 2.945312 -0.84375 3.0625 -1.390625 3.0625 -2.171875 L 3.0625 -14.140625 C 3.0625 -14.679688 2.878906 -15.175781 2.515625 -15.625 C 2.148438 -16.070312 1.6875 -16.351562 1.125 -16.46875 L 4.09375 -16.46875 L 15.3125 -3.375 L 15.3125 -14.296875 C 15.3125 -15.523438 14.898438 -16.25 14.078125 -16.46875 Z M 17.453125 -16.46875 "/></g></g></g><g fill="#000000" fill-opacity="1"><g transform="translate(224.409123, 283.006635)"><g><path d="M 1.53125 -8.046875 C 1.53125 -9.734375 1.890625 -11.238281 2.609375 -12.5625 C 3.335938 -13.882812 4.359375 -14.910156 5.671875 -15.640625 C 6.992188 -16.378906 8.519531 -16.75 10.25 -16.75 C 11.6875 -16.75 13.03125 -16.429688 14.28125 -15.796875 C 15.53125 -15.171875 16.535156 -14.226562 17.296875 -12.96875 C 18.054688 -11.707031 18.4375 -10.191406 18.4375 -8.421875 C 18.4375 -6.734375 18.070312 -5.226562 17.34375 -3.90625 C 16.613281 -2.582031 15.585938 -1.550781 14.265625 -0.8125 C 12.953125 -0.0820312 11.4375 0.28125 9.71875 0.28125 C 8.28125 0.28125 6.9375 -0.03125 5.6875 -0.65625 C 4.4375 -1.289062 3.429688 -2.238281 2.671875 -3.5 C 1.910156 -4.757812 1.53125 -6.273438 1.53125 -8.046875 Z M 16.515625 -8.0625 C 16.515625 -9.519531 16.210938 -10.832031 15.609375 -12 C 15.015625 -13.175781 14.191406 -14.09375 13.140625 -14.75 C 12.097656 -15.414062 10.925781 -15.75 9.625 -15.75 C 8.425781 -15.75 7.359375 -15.445312 6.421875 -14.84375 C 5.492188 -14.238281 4.765625 -13.378906 4.234375 -12.265625 C 3.710938 -11.160156 3.453125 -9.875 3.453125 -8.40625 C 3.453125 -6.945312 3.75 -5.628906 4.34375 -4.453125 C 4.945312 -3.285156 5.769531 -2.367188 6.8125 -1.703125 C 7.851562 -1.046875 9.03125 -0.71875 10.34375 -0.71875 C 11.539062 -0.71875 12.601562 -1.019531 13.53125 -1.625 C 14.46875 -2.226562 15.195312 -3.082031 15.71875 -4.1875 C 16.25 -5.300781 16.515625 -6.59375 16.515625 -8.0625 Z M 16.515625 -8.0625 "/></g></g></g><g fill="#000000" fill-opacity="1"><g transform="translate(249.470452, 283.006635)"><g><path d="M 12.28125 0 C 12.5625 -0.0507812 12.703125 -0.195312 12.703125 -0.4375 C 12.703125 -0.71875 12.582031 -1.035156 12.34375 -1.390625 C 12.113281 -1.753906 11.976562 -1.960938 11.9375 -2.015625 L 8.59375 -7.1875 L 4.828125 -2.15625 C 4.585938 -1.832031 4.398438 -1.546875 4.265625 -1.296875 C 4.128906 -1.054688 4.0625 -0.832031 4.0625 -0.625 C 4.0625 -0.269531 4.316406 -0.0625 4.828125 0 L 1.25 0 C 1.25 0.03125 1.34375 -0.00390625 1.53125 -0.109375 C 1.71875 -0.222656 1.988281 -0.453125 2.34375 -0.796875 C 2.707031 -1.140625 3.144531 -1.65625 3.65625 -2.34375 L 8.015625 -8.109375 L 4.171875 -14.078125 C 3.722656 -14.765625 3.320312 -15.28125 2.96875 -15.625 C 2.613281 -15.976562 2.320312 -16.210938 2.09375 -16.328125 C 1.875 -16.453125 1.765625 -16.5 1.765625 -16.46875 L 5.765625 -16.46875 C 5.460938 -16.40625 5.3125 -16.253906 5.3125 -16.015625 C 5.3125 -15.773438 5.488281 -15.382812 5.84375 -14.84375 L 9.171875 -9.671875 L 12.640625 -14.265625 C 13.128906 -14.921875 13.375 -15.445312 13.375 -15.84375 C 13.375 -16.207031 13.132812 -16.414062 12.65625 -16.46875 L 16.234375 -16.46875 C 16.234375 -16.488281 16.128906 -16.453125 15.921875 -16.359375 C 15.722656 -16.273438 15.46875 -16.09375 15.15625 -15.8125 C 14.851562 -15.53125 14.5 -15.117188 14.09375 -14.578125 L 9.75 -8.765625 L 13.59375 -2.78125 C 14.101562 -1.976562 14.554688 -1.375 14.953125 -0.96875 C 15.359375 -0.5625 15.679688 -0.289062 15.921875 -0.15625 C 16.160156 -0.0195312 16.28125 0.03125 16.28125 0 Z M 12.28125 0 "/></g></g></g><g fill="#000000" fill-opacity="1"><g transform="translate(94.370357, 316.598584)"><g><path d="M 2.375 -11.078125 C 2.375 -11.566406 2.316406 -11.9375 2.203125 -12.1875 C 2.085938 -12.445312 1.953125 -12.617188 1.796875 -12.703125 C 1.648438 -12.796875 1.578125 -12.828125 1.578125 -12.796875 L 4.546875 -12.796875 C 4.546875 -12.828125 4.46875 -12.796875 4.3125 -12.703125 C 4.164062 -12.617188 4.03125 -12.445312 3.90625 -12.1875 C 3.78125 -11.9375 3.71875 -11.566406 3.71875 -11.078125 L 3.71875 -0.75 L 6.78125 -0.75 C 7.332031 -0.75 7.8125 -0.863281 8.21875 -1.09375 C 8.625 -1.320312 8.910156 -1.613281 9.078125 -1.96875 L 8.75 0 L 1.578125 0 C 1.578125 0.0390625 1.648438 0.015625 1.796875 -0.078125 C 1.953125 -0.171875 2.085938 -0.359375 2.203125 -0.640625 C 2.316406 -0.921875 2.375 -1.328125 2.375 -1.859375 Z M 2.375 -11.078125 "/></g></g></g><g fill="#000000" fill-opacity="1"><g transform="translate(108.048832, 316.598584)"><g><path d="M 1.5625 0 C 1.5625 0.0390625 1.632812 0.015625 1.78125 -0.078125 C 1.9375 -0.171875 2.070312 -0.34375 2.1875 -0.59375 C 2.3125 -0.851562 2.375 -1.234375 2.375 -1.734375 L 2.375 -11.078125 C 2.375 -11.566406 2.316406 -11.9375 2.203125 -12.1875 C 2.085938 -12.445312 1.953125 -12.617188 1.796875 -12.703125 C 1.648438 -12.796875 1.578125 -12.828125 1.578125 -12.796875 L 4.546875 -12.796875 C 4.546875 -12.828125 4.46875 -12.796875 4.3125 -12.703125 C 4.164062 -12.617188 4.03125 -12.445312 3.90625 -12.1875 C 3.78125 -11.9375 3.71875 -11.566406 3.71875 -11.078125 L 3.71875 -1.734375 C 3.71875 -1.234375 3.78125 -0.851562 3.90625 -0.59375 C 4.03125 -0.34375 4.164062 -0.175781 4.3125 -0.09375 C 4.46875 -0.0078125 4.546875 0.0195312 4.546875 0 Z M 1.5625 0 "/></g></g></g><g fill="#000000" fill-opacity="1"><g transform="translate(118.117616, 316.598584)"><g><path d="M 12.359375 0 C 12.503906 -0.0195312 12.660156 -0.148438 12.828125 -0.390625 C 13.003906 -0.640625 13.09375 -1.09375 13.09375 -1.75 L 13.09375 -11.046875 L 8.21875 0.203125 L 3.28125 -11.03125 L 3.28125 -1.84375 C 3.28125 -1.175781 3.382812 -0.707031 3.59375 -0.4375 C 3.8125 -0.164062 4.007812 -0.0195312 4.1875 0 L 1.4375 0 C 1.625 -0.0195312 1.828125 -0.15625 2.046875 -0.40625 C 2.265625 -0.664062 2.375 -1.144531 2.375 -1.84375 L 2.375 -11.171875 C 2.375 -11.765625 2.269531 -12.171875 2.0625 -12.390625 C 1.851562 -12.617188 1.644531 -12.753906 1.4375 -12.796875 L 3.9375 -12.796875 L 8.5 -2.40625 L 12.984375 -12.796875 L 15.234375 -12.796875 C 15.078125 -12.773438 14.90625 -12.644531 14.71875 -12.40625 C 14.53125 -12.175781 14.4375 -11.742188 14.4375 -11.109375 L 14.4375 -1.671875 C 14.4375 -1.054688 14.53125 -0.628906 14.71875 -0.390625 C 14.90625 -0.148438 15.078125 -0.0195312 15.234375 0 Z M 12.359375 0 "/></g></g></g><g fill="#000000" fill-opacity="1"><g transform="translate(138.903843, 316.598584)"><g><path d="M 1.5625 0 C 1.5625 0.0390625 1.632812 0.015625 1.78125 -0.078125 C 1.9375 -0.171875 2.070312 -0.34375 2.1875 -0.59375 C 2.3125 -0.851562 2.375 -1.234375 2.375 -1.734375 L 2.375 -11.078125 C 2.375 -11.566406 2.316406 -11.9375 2.203125 -12.1875 C 2.085938 -12.445312 1.953125 -12.617188 1.796875 -12.703125 C 1.648438 -12.796875 1.578125 -12.828125 1.578125 -12.796875 L 4.546875 -12.796875 C 4.546875 -12.828125 4.46875 -12.796875 4.3125 -12.703125 C 4.164062 -12.617188 4.03125 -12.445312 3.90625 -12.1875 C 3.78125 -11.9375 3.71875 -11.566406 3.71875 -11.078125 L 3.71875 -1.734375 C 3.71875 -1.234375 3.78125 -0.851562 3.90625 -0.59375 C 4.03125 -0.34375 4.164062 -0.175781 4.3125 -0.09375 C 4.46875 -0.0078125 4.546875 0.0195312 4.546875 0 Z M 1.5625 0 "/></g></g></g><g fill="#000000" fill-opacity="1"><g transform="translate(148.972626, 316.598584)"><g><path d="M 2.75 -12.0625 C 2.207031 -12.0625 1.753906 -11.953125 1.390625 -11.734375 C 1.035156 -11.523438 0.773438 -11.257812 0.609375 -10.9375 L 0.875 -12.796875 L 9.703125 -12.796875 L 9.953125 -10.9375 C 9.796875 -11.257812 9.535156 -11.523438 9.171875 -11.734375 C 8.816406 -11.953125 8.363281 -12.0625 7.8125 -12.0625 L 5.953125 -12.0625 L 5.953125 -1.734375 C 5.953125 -1.234375 6.015625 -0.851562 6.140625 -0.59375 C 6.265625 -0.332031 6.398438 -0.15625 6.546875 -0.0625 C 6.703125 0.0195312 6.78125 0.0390625 6.78125 0 L 3.8125 0 C 3.8125 0.0390625 3.882812 0.0195312 4.03125 -0.0625 C 4.1875 -0.15625 4.320312 -0.328125 4.4375 -0.578125 C 4.550781 -0.835938 4.609375 -1.222656 4.609375 -1.734375 L 4.609375 -12.0625 Z M 2.75 -12.0625 "/></g></g></g><g fill="#000000" fill-opacity="1"><g transform="translate(163.507004, 316.598584)"><g><path d="M 1.578125 0 C 1.578125 0.0390625 1.648438 0.015625 1.796875 -0.078125 C 1.953125 -0.171875 2.085938 -0.359375 2.203125 -0.640625 C 2.316406 -0.921875 2.375 -1.328125 2.375 -1.859375 L 2.375 -11 C 2.375 -11.507812 2.316406 -11.894531 2.203125 -12.15625 C 2.085938 -12.425781 1.953125 -12.609375 1.796875 -12.703125 C 1.648438 -12.804688 1.578125 -12.835938 1.578125 -12.796875 L 8.3125 -12.796875 L 8.3125 -10.9375 C 8.09375 -11.6875 7.425781 -12.0625 6.3125 -12.0625 L 3.71875 -12.0625 L 3.71875 -6.78125 L 6.921875 -6.78125 C 7.171875 -6.78125 7.378906 -6.816406 7.546875 -6.890625 C 7.722656 -6.972656 7.851562 -7.054688 7.9375 -7.140625 C 8.03125 -7.234375 8.082031 -7.289062 8.09375 -7.3125 L 8.09375 -5.515625 C 8.082031 -5.535156 8.03125 -5.585938 7.9375 -5.671875 C 7.851562 -5.765625 7.726562 -5.847656 7.5625 -5.921875 C 7.394531 -5.992188 7.1875 -6.03125 6.9375 -6.03125 L 3.71875 -6.03125 L 3.71875 -0.75 L 6.625 -0.75 C 7.1875 -0.75 7.664062 -0.863281 8.0625 -1.09375 C 8.46875 -1.320312 8.757812 -1.613281 8.9375 -1.96875 L 8.59375 0 Z M 1.578125 0 "/></g></g></g><g fill="#000000" fill-opacity="1"><g transform="translate(177.594833, 316.598584)"><g><path d="M 9.921875 -1.046875 C 8.753906 -0.347656 7.195312 0 5.25 0 L 1.578125 0 C 1.578125 0.0390625 1.648438 0.0078125 1.796875 -0.09375 C 1.953125 -0.207031 2.085938 -0.40625 2.203125 -0.6875 C 2.316406 -0.96875 2.375 -1.382812 2.375 -1.9375 L 2.375 -11.09375 C 2.375 -11.570312 2.316406 -11.9375 2.203125 -12.1875 C 2.085938 -12.445312 1.953125 -12.617188 1.796875 -12.703125 C 1.648438 -12.796875 1.578125 -12.828125 1.578125 -12.796875 L 5.234375 -12.796875 C 7.128906 -12.796875 8.628906 -12.488281 9.734375 -11.875 C 10.710938 -11.320312 11.46875 -10.582031 12 -9.65625 C 12.53125 -8.726562 12.796875 -7.679688 12.796875 -6.515625 C 12.796875 -5.242188 12.546875 -4.144531 12.046875 -3.21875 C 11.546875 -2.300781 10.835938 -1.578125 9.921875 -1.046875 Z M 9.1875 -11.03125 C 8.644531 -11.394531 8.0625 -11.65625 7.4375 -11.8125 C 6.820312 -11.976562 6.085938 -12.0625 5.234375 -12.0625 L 3.71875 -12.0625 L 3.71875 -0.75 L 5.234375 -0.75 C 6.242188 -0.75 7.070312 -0.832031 7.71875 -1 C 8.375 -1.175781 8.941406 -1.445312 9.421875 -1.8125 C 10.023438 -2.28125 10.488281 -2.894531 10.8125 -3.65625 C 11.144531 -4.414062 11.3125 -5.304688 11.3125 -6.328125 C 11.3125 -7.410156 11.117188 -8.359375 10.734375 -9.171875 C 10.359375 -9.984375 9.84375 -10.601562 9.1875 -11.03125 Z M 9.1875 -11.03125 "/></g></g></g><g fill="#000000" fill-opacity="1"><g transform="translate(195.701693, 316.598584)"><g/></g></g><g fill="#000000" fill-opacity="1"><g transform="translate(204.728498, 316.598584)"><g><path d="M 4.96875 0.21875 C 4.320312 0.21875 3.703125 0.128906 3.109375 -0.046875 C 2.515625 -0.222656 1.976562 -0.472656 1.5 -0.796875 L 1.5 -3.046875 C 1.820312 -2.222656 2.316406 -1.59375 2.984375 -1.15625 C 3.648438 -0.726562 4.34375 -0.515625 5.0625 -0.515625 C 5.78125 -0.515625 6.378906 -0.753906 6.859375 -1.234375 C 7.347656 -1.710938 7.59375 -2.304688 7.59375 -3.015625 C 7.59375 -3.484375 7.492188 -3.882812 7.296875 -4.21875 C 7.109375 -4.5625 6.800781 -4.875 6.375 -5.15625 C 5.957031 -5.445312 5.363281 -5.773438 4.59375 -6.140625 C 3.519531 -6.640625 2.734375 -7.15625 2.234375 -7.6875 C 1.742188 -8.226562 1.5 -8.882812 1.5 -9.65625 C 1.5 -10.3125 1.65625 -10.894531 1.96875 -11.40625 C 2.289062 -11.925781 2.722656 -12.328125 3.265625 -12.609375 C 3.804688 -12.890625 4.398438 -13.03125 5.046875 -13.03125 C 5.597656 -13.03125 6.140625 -12.953125 6.671875 -12.796875 C 7.210938 -12.640625 7.710938 -12.421875 8.171875 -12.140625 L 8.171875 -10.125 C 7.867188 -10.800781 7.414062 -11.328125 6.8125 -11.703125 C 6.21875 -12.085938 5.609375 -12.28125 4.984375 -12.28125 C 4.273438 -12.28125 3.703125 -12.050781 3.265625 -11.59375 C 2.835938 -11.132812 2.625 -10.585938 2.625 -9.953125 C 2.625 -9.492188 2.753906 -9.097656 3.015625 -8.765625 C 3.273438 -8.441406 3.59375 -8.164062 3.96875 -7.9375 C 4.351562 -7.71875 4.882812 -7.445312 5.5625 -7.125 C 6.257812 -6.789062 6.832031 -6.476562 7.28125 -6.1875 C 7.726562 -5.90625 8.097656 -5.535156 8.390625 -5.078125 C 8.691406 -4.617188 8.84375 -4.0625 8.84375 -3.40625 C 8.84375 -2.65625 8.664062 -2.007812 8.3125 -1.46875 C 7.957031 -0.925781 7.484375 -0.507812 6.890625 -0.21875 C 6.304688 0.0703125 5.664062 0.21875 4.96875 0.21875 Z M 4.96875 0.21875 "/></g></g></g><g fill="#000000" fill-opacity="1"><g transform="translate(218.816327, 316.598584)"><g><path d="M 9.90625 0 C 9.90625 0.0390625 9.976562 0.015625 10.125 -0.078125 C 10.269531 -0.171875 10.40625 -0.34375 10.53125 -0.59375 C 10.65625 -0.851562 10.71875 -1.234375 10.71875 -1.734375 L 10.71875 -5.953125 L 3.71875 -5.953125 L 3.71875 -1.734375 C 3.71875 -1.234375 3.78125 -0.851562 3.90625 -0.59375 C 4.03125 -0.34375 4.164062 -0.175781 4.3125 -0.09375 C 4.46875 -0.0078125 4.546875 0.0195312 4.546875 0 L 1.578125 0 C 1.578125 0.0390625 1.648438 0.015625 1.796875 -0.078125 C 1.953125 -0.171875 2.085938 -0.34375 2.203125 -0.59375 C 2.316406 -0.851562 2.375 -1.234375 2.375 -1.734375 L 2.375 -11.078125 C 2.375 -11.566406 2.316406 -11.9375 2.203125 -12.1875 C 2.085938 -12.445312 1.953125 -12.617188 1.796875 -12.703125 C 1.648438 -12.796875 1.578125 -12.828125 1.578125 -12.796875 L 4.546875 -12.796875 C 4.546875 -12.828125 4.46875 -12.796875 4.3125 -12.703125 C 4.164062 -12.617188 4.03125 -12.445312 3.90625 -12.1875 C 3.78125 -11.9375 3.71875 -11.566406 3.71875 -11.078125 L 3.71875 -6.78125 L 10.71875 -6.78125 L 10.71875 -11.078125 C 10.71875 -11.566406 10.65625 -11.9375 10.53125 -12.1875 C 10.40625 -12.445312 10.269531 -12.617188 10.125 -12.703125 C 9.976562 -12.796875 9.90625 -12.828125 9.90625 -12.796875 L 12.859375 -12.796875 C 12.859375 -12.835938 12.78125 -12.8125 12.625 -12.71875 C 12.476562 -12.625 12.347656 -12.445312 12.234375 -12.1875 C 12.117188 -11.9375 12.0625 -11.566406 12.0625 -11.078125 L 12.0625 -1.734375 C 12.0625 -1.234375 12.125 -0.851562 12.25 -0.59375 C 12.375 -0.34375 12.507812 -0.175781 12.65625 -0.09375 C 12.800781 -0.0078125 12.875 0.0195312 12.875 0 Z M 9.90625 0 "/></g></g></g><g fill="#000000" fill-opacity="1"><g transform="translate(237.220901, 316.598584)"><g><path d="M 1.1875 -6.25 C 1.1875 -7.5625 1.46875 -8.734375 2.03125 -9.765625 C 2.601562 -10.796875 3.398438 -11.597656 4.421875 -12.171875 C 5.441406 -12.742188 6.625 -13.03125 7.96875 -13.03125 C 9.082031 -13.03125 10.125 -12.785156 11.09375 -12.296875 C 12.070312 -11.804688 12.851562 -11.066406 13.4375 -10.078125 C 14.03125 -9.097656 14.328125 -7.921875 14.328125 -6.546875 C 14.328125 -5.234375 14.046875 -4.0625 13.484375 -3.03125 C 12.921875 -2 12.125 -1.195312 11.09375 -0.625 C 10.070312 -0.0625 8.894531 0.21875 7.5625 0.21875 C 6.4375 0.21875 5.382812 -0.0234375 4.40625 -0.515625 C 3.4375 -1.003906 2.65625 -1.738281 2.0625 -2.71875 C 1.476562 -3.695312 1.1875 -4.875 1.1875 -6.25 Z M 12.84375 -6.265625 C 12.84375 -7.398438 12.609375 -8.421875 12.140625 -9.328125 C 11.671875 -10.242188 11.03125 -10.957031 10.21875 -11.46875 C 9.40625 -11.988281 8.492188 -12.25 7.484375 -12.25 C 6.546875 -12.25 5.710938 -12.007812 4.984375 -11.53125 C 4.265625 -11.0625 3.703125 -10.394531 3.296875 -9.53125 C 2.890625 -8.675781 2.6875 -7.675781 2.6875 -6.53125 C 2.6875 -5.40625 2.914062 -4.382812 3.375 -3.46875 C 3.84375 -2.5625 4.484375 -1.847656 5.296875 -1.328125 C 6.109375 -0.816406 7.023438 -0.5625 8.046875 -0.5625 C 8.972656 -0.5625 9.796875 -0.796875 10.515625 -1.265625 C 11.242188 -1.734375 11.8125 -2.398438 12.21875 -3.265625 C 12.632812 -4.128906 12.84375 -5.128906 12.84375 -6.265625 Z M 12.84375 -6.265625 "/></g></g></g><g fill="#000000" fill-opacity="1"><g transform="translate(256.704661, 316.598584)"><g><path d="M 1.578125 0 C 1.578125 0.0390625 1.648438 0.015625 1.796875 -0.078125 C 1.953125 -0.171875 2.085938 -0.359375 2.203125 -0.640625 C 2.316406 -0.921875 2.375 -1.328125 2.375 -1.859375 L 2.375 -11 C 2.375 -11.507812 2.316406 -11.894531 2.203125 -12.15625 C 2.085938 -12.425781 1.953125 -12.609375 1.796875 -12.703125 C 1.648438 -12.804688 1.578125 -12.835938 1.578125 -12.796875 L 8.3125 -12.796875 L 8.3125 -10.9375 C 8.09375 -11.6875 7.425781 -12.0625 6.3125 -12.0625 L 3.71875 -12.0625 L 3.71875 -6.78125 L 6.921875 -6.78125 C 7.171875 -6.78125 7.378906 -6.816406 7.546875 -6.890625 C 7.722656 -6.972656 7.851562 -7.054688 7.9375 -7.140625 C 8.03125 -7.234375 8.082031 -7.289062 8.09375 -7.3125 L 8.09375 -5.515625 C 8.082031 -5.535156 8.03125 -5.585938 7.9375 -5.671875 C 7.851562 -5.765625 7.726562 -5.847656 7.5625 -5.921875 C 7.394531 -5.992188 7.1875 -6.03125 6.9375 -6.03125 L 3.71875 -6.03125 L 3.71875 -0.75 L 6.625 -0.75 C 7.1875 -0.75 7.664062 -0.863281 8.0625 -1.09375 C 8.46875 -1.320312 8.757812 -1.613281 8.9375 -1.96875 L 8.59375 0 Z M 1.578125 0 "/></g></g></g><g fill="#000000" fill-opacity="1"><g transform="translate(270.79249, 316.598584)"><g><path d="M 4.96875 0.21875 C 4.320312 0.21875 3.703125 0.128906 3.109375 -0.046875 C 2.515625 -0.222656 1.976562 -0.472656 1.5 -0.796875 L 1.5 -3.046875 C 1.820312 -2.222656 2.316406 -1.59375 2.984375 -1.15625 C 3.648438 -0.726562 4.34375 -0.515625 5.0625 -0.515625 C 5.78125 -0.515625 6.378906 -0.753906 6.859375 -1.234375 C 7.347656 -1.710938 7.59375 -2.304688 7.59375 -3.015625 C 7.59375 -3.484375 7.492188 -3.882812 7.296875 -4.21875 C 7.109375 -4.5625 6.800781 -4.875 6.375 -5.15625 C 5.957031 -5.445312 5.363281 -5.773438 4.59375 -6.140625 C 3.519531 -6.640625 2.734375 -7.15625 2.234375 -7.6875 C 1.742188 -8.226562 1.5 -8.882812 1.5 -9.65625 C 1.5 -10.3125 1.65625 -10.894531 1.96875 -11.40625 C 2.289062 -11.925781 2.722656 -12.328125 3.265625 -12.609375 C 3.804688 -12.890625 4.398438 -13.03125 5.046875 -13.03125 C 5.597656 -13.03125 6.140625 -12.953125 6.671875 -12.796875 C 7.210938 -12.640625 7.710938 -12.421875 8.171875 -12.140625 L 8.171875 -10.125 C 7.867188 -10.800781 7.414062 -11.328125 6.8125 -11.703125 C 6.21875 -12.085938 5.609375 -12.28125 4.984375 -12.28125 C 4.273438 -12.28125 3.703125 -12.050781 3.265625 -11.59375 C 2.835938 -11.132812 2.625 -10.585938 2.625 -9.953125 C 2.625 -9.492188 2.753906 -9.097656 3.015625 -8.765625 C 3.273438 -8.441406 3.59375 -8.164062 3.96875 -7.9375 C 4.351562 -7.71875 4.882812 -7.445312 5.5625 -7.125 C 6.257812 -6.789062 6.832031 -6.476562 7.28125 -6.1875 C 7.726562 -5.90625 8.097656 -5.535156 8.390625 -5.078125 C 8.691406 -4.617188 8.84375 -4.0625 8.84375 -3.40625 C 8.84375 -2.65625 8.664062 -2.007812 8.3125 -1.46875 C 7.957031 -0.925781 7.484375 -0.507812 6.890625 -0.21875 C 6.304688 0.0703125 5.664062 0.21875 4.96875 0.21875 Z M 4.96875 0.21875 "/></g></g></g></svg>