<svg xmlns="http://www.w3.org/2000/svg" xmlns:xlink="http://www.w3.org/1999/xlink" width="1600" zoomAndPan="magnify" viewBox="0 0 1200 187.499995" height="250" preserveAspectRatio="xMidYMid meet" version="1.0"><defs><g/><clipPath id="7f27f95044"><path d="M 604.160156 80.101562 L 618.371094 80.101562 L 618.371094 93.566406 L 604.160156 93.566406 Z M 604.160156 80.101562 " clip-rule="nonzero"/></clipPath></defs><g clip-path="url(#7f27f95044)"><path fill="#ffffff" d="M 610.664062 93.566406 C 610.609375 87.207031 610.566406 87.164062 604.167969 87.109375 C 610.566406 87.054688 610.609375 87.011719 610.664062 80.652344 C 610.71875 87.011719 610.765625 87.054688 617.164062 87.109375 C 610.765625 87.164062 610.71875 87.207031 610.664062 93.566406 Z M 611.796875 83.363281 C 615.03125 83.390625 615.054688 83.414062 615.082031 86.625 C 615.109375 83.414062 615.132812 83.390625 618.363281 83.363281 C 615.132812 83.335938 615.109375 83.3125 615.082031 80.101562 C 615.054688 83.3125 615.03125 83.335938 611.796875 83.363281 Z M 609.769531 90.386719 C 607.402344 90.367188 607.386719 90.351562 607.367188 88 C 607.347656 90.351562 607.328125 90.367188 604.964844 90.386719 C 607.328125 90.40625 607.347656 90.421875 607.367188 92.773438 C 607.386719 90.421875 607.402344 90.40625 609.769531 90.386719 Z M 609.769531 90.386719 " fill-opacity="1" fill-rule="nonzero"/></g><path fill="#ffffff" d="M 613.003906 88.25 C 613.003906 88.308594 613.09375 88.308594 613.09375 88.25 C 613.09375 88.195312 613.003906 88.195312 613.003906 88.25 Z M 613.003906 88.25 " fill-opacity="1" fill-rule="nonzero"/><g fill="#294ac8" fill-opacity="1"><g transform="translate(404.005392, 145.27843)"><g><path d="M 18.867188 0 C 20.308594 0.65625 22.011719 -1.441406 21.617188 -3.011719 C 21.355469 -4.324219 20.699219 -5.632812 20.832031 -7.074219 C 20.960938 -9.171875 21.09375 -11.265625 21.09375 -13.363281 C 21.09375 -17.03125 20.960938 -25.941406 20.832031 -29.476562 L 20.832031 -39.566406 C 21.09375 -39.566406 21.09375 -39.695312 21.222656 -39.695312 C 24.105469 -39.828125 26.988281 -39.695312 29.871094 -40.089844 C 32.359375 -40.351562 34.71875 -40.875 36.945312 -41.53125 C 41.398438 -42.710938 45.460938 -44.804688 49.128906 -47.558594 C 52.535156 -50.046875 55.289062 -53.058594 56.859375 -56.992188 C 58.039062 -59.609375 58.824219 -62.363281 58.957031 -65.113281 C 59.085938 -68.78125 58.167969 -72.1875 56.464844 -75.332031 C 54.5 -79 51.617188 -81.882812 48.34375 -84.503906 C 46.378906 -86.207031 44.152344 -87.253906 41.792969 -88.300781 C 37.207031 -90.136719 32.621094 -91.578125 27.773438 -91.839844 C 23.976562 -92.101562 20.175781 -91.839844 16.375 -91.972656 C 13.496094 -91.972656 10.480469 -91.445312 7.597656 -92.757812 C 6.550781 -93.28125 5.371094 -92.625 4.585938 -91.707031 C 3.929688 -91.054688 3.800781 -90.136719 4.0625 -89.21875 C 4.453125 -88.039062 4.847656 -86.992188 4.847656 -85.8125 L 4.847656 -8.253906 C 4.847656 -6.550781 4.847656 -4.976562 4.191406 -3.40625 C 3.800781 -2.226562 4.453125 -1.441406 4.976562 -0.785156 C 5.503906 0 6.683594 0.132812 7.597656 -0.132812 C 8.515625 -0.394531 9.5625 -0.65625 10.480469 -0.65625 C 13.230469 -0.523438 16.113281 -1.046875 18.867188 0 Z M 25.546875 -86.730469 C 25.285156 -87.910156 27.25 -88.695312 28.824219 -88.566406 C 27.773438 -87.910156 26.59375 -87.253906 25.546875 -86.730469 Z M 12.054688 -86.992188 C 11.136719 -86.46875 10.742188 -86.46875 10.089844 -87.386719 C 10.613281 -87.777344 10.613281 -87.777344 12.054688 -86.992188 Z M 15.328125 -85.683594 L 14.019531 -86.730469 C 15.199219 -87.125 15.460938 -86.863281 15.328125 -85.683594 Z M 32.621094 -82.539062 C 32.492188 -82.667969 32.230469 -82.539062 32.097656 -82.667969 C 31.835938 -82.800781 31.707031 -83.0625 31.441406 -83.324219 C 31.179688 -83.457031 30.917969 -83.71875 30.527344 -83.847656 C 30 -83.847656 29.347656 -83.847656 29.085938 -84.503906 C 28.824219 -85.421875 28.953125 -85.945312 29.871094 -86.597656 C 30 -86.335938 30.132812 -86.207031 30.132812 -86.074219 C 30.132812 -85.027344 30.917969 -84.894531 31.574219 -84.632812 C 31.835938 -84.503906 32.097656 -84.109375 32.230469 -83.847656 C 32.359375 -83.585938 32.359375 -83.324219 32.492188 -83.0625 C 32.492188 -82.929688 32.621094 -82.800781 32.621094 -82.539062 Z M 13.625 -83.191406 L 13.230469 -84.632812 C 13.363281 -84.632812 13.363281 -84.765625 13.496094 -84.765625 C 13.886719 -84.632812 14.28125 -84.371094 14.671875 -84.242188 L 14.019531 -83.191406 Z M 36.421875 -82.40625 L 35.636719 -83.324219 C 36.816406 -83.71875 36.683594 -83.0625 36.683594 -82.667969 C 36.683594 -82.539062 36.550781 -82.40625 36.421875 -82.40625 Z M 18.996094 -79.523438 C 18.734375 -79.785156 18.339844 -80.179688 18.210938 -80.441406 C 18.210938 -81.226562 18.472656 -81.882812 18.605469 -82.667969 C 18.734375 -82.667969 18.734375 -82.667969 18.867188 -82.800781 C 18.996094 -82.539062 19.390625 -82.277344 19.390625 -82.144531 C 18.996094 -81.226562 19.519531 -80.964844 20.175781 -80.703125 Z M 23.976562 -80.703125 C 23.714844 -81.097656 23.320312 -81.488281 23.1875 -82.015625 C 23.1875 -82.015625 23.453125 -82.40625 23.582031 -82.40625 C 23.976562 -82.277344 24.367188 -82.144531 24.367188 -81.882812 C 24.5 -81.621094 24.367188 -81.226562 24.238281 -80.835938 C 24.105469 -80.835938 23.976562 -80.703125 23.976562 -80.703125 Z M 40.222656 -80.574219 L 39.828125 -81.882812 L 41.269531 -81.882812 C 40.875 -81.488281 40.613281 -81.097656 40.222656 -80.574219 Z M 37.46875 -80.3125 L 37.078125 -80.703125 C 37.207031 -80.964844 37.207031 -81.359375 37.46875 -81.621094 C 37.46875 -81.882812 37.863281 -81.75 38.386719 -81.75 Z M 12.183594 -79.917969 C 11.921875 -80.179688 11.527344 -80.3125 11.527344 -80.441406 C 11.527344 -80.964844 11.792969 -81.359375 11.921875 -81.75 C 12.054688 -81.75 12.183594 -81.621094 12.316406 -81.621094 C 12.316406 -81.097656 12.316406 -80.574219 12.445312 -80.179688 Z M 36.816406 -77.691406 L 36.816406 -78.738281 C 37.339844 -78.609375 38.125 -79.132812 38.519531 -78.082031 Z M 12.183594 -74.808594 C 12.054688 -74.675781 11.660156 -74.9375 11.660156 -75.070312 C 11.398438 -76.117188 11.003906 -75.726562 10.480469 -75.203125 C 10.351562 -75.203125 10.21875 -75.203125 10.089844 -75.070312 C 9.957031 -75.59375 9.695312 -75.855469 9.695312 -76.25 C 9.5625 -76.511719 9.695312 -76.773438 9.824219 -76.90625 C 9.957031 -77.035156 10.351562 -76.90625 10.480469 -76.90625 C 10.875 -76.25 11.398438 -76.511719 11.792969 -76.511719 C 12.316406 -76.511719 12.707031 -76.378906 13.101562 -76.117188 C 13.230469 -75.988281 13.230469 -75.332031 13.101562 -75.203125 C 12.96875 -74.9375 12.445312 -74.808594 12.183594 -74.808594 Z M 20.832031 -55.941406 C 20.960938 -57.644531 21.09375 -59.347656 21.09375 -61.050781 C 21.09375 -62.625 20.832031 -64.195312 20.832031 -65.898438 C 20.832031 -66.683594 21.09375 -67.601562 21.222656 -68.386719 C 21.222656 -69.304688 21.09375 -70.222656 21.09375 -71.140625 C 20.960938 -72.582031 20.832031 -74.023438 20.832031 -75.726562 C 21.75 -75.726562 22.535156 -75.59375 23.453125 -75.59375 C 24.367188 -75.464844 25.417969 -75.464844 26.464844 -75.464844 C 29.476562 -75.464844 32.359375 -74.675781 35.113281 -73.5 C 36.816406 -72.710938 38.648438 -71.925781 40.089844 -70.617188 C 43.234375 -67.863281 43.757812 -64.851562 41.007812 -61.707031 C 38.648438 -59.21875 35.503906 -57.90625 32.359375 -56.859375 C 29.476562 -56.074219 23.976562 -55.550781 20.832031 -55.941406 Z M 46.246094 -69.828125 C 46.507812 -70.355469 46.902344 -70.746094 47.164062 -71.269531 C 47.949219 -70.355469 47.820312 -70.222656 46.246094 -69.828125 Z M 13.496094 -69.960938 L 13.230469 -70.222656 C 13.363281 -70.484375 13.496094 -71.007812 13.757812 -71.007812 C 14.148438 -71.140625 14.542969 -70.878906 14.804688 -70.878906 L 14.804688 -70.355469 Z M 53.847656 -68.914062 C 53.585938 -69.175781 53.320312 -69.304688 52.929688 -69.4375 L 53.453125 -69.960938 C 53.714844 -69.828125 53.976562 -69.566406 54.238281 -69.304688 Z M 13.363281 -66.554688 C 12.96875 -66.554688 13.230469 -67.996094 13.886719 -68.519531 C 13.625 -67.472656 14.148438 -66.816406 15.199219 -66.554688 C 14.410156 -65.636719 13.886719 -66.554688 13.363281 -66.554688 Z M 49.523438 -65.636719 L 49.128906 -67.734375 C 50.046875 -67.734375 50.179688 -67.210938 49.523438 -65.636719 Z M 53.714844 -65.898438 C 53.585938 -66.160156 53.320312 -66.421875 53.320312 -66.554688 C 53.453125 -66.949219 53.714844 -67.210938 53.976562 -67.601562 C 54.238281 -67.472656 54.371094 -67.339844 54.632812 -67.078125 C 54.238281 -66.683594 53.976562 -66.292969 53.714844 -65.898438 Z M 10.351562 -64.195312 C 10.21875 -64.328125 9.957031 -64.851562 10.089844 -64.851562 C 10.613281 -65.636719 11.136719 -66.160156 11.792969 -66.816406 C 11.921875 -66.949219 12.183594 -66.816406 12.578125 -66.683594 C 12.054688 -65.898438 11.660156 -65.113281 11.136719 -64.457031 C 11.003906 -64.195312 10.613281 -64.195312 10.351562 -64.195312 Z M 12.054688 -60.265625 L 13.363281 -61.574219 C 13.496094 -61.183594 13.757812 -60.398438 13.625 -60.398438 C 13.230469 -60.136719 12.578125 -60.136719 12.054688 -60.265625 Z M 10.351562 -59.085938 C 9.957031 -59.871094 9.300781 -60.398438 9.5625 -61.3125 C 9.824219 -60.527344 11.003906 -60.265625 10.351562 -59.085938 Z M 15.851562 -56.992188 C 15.722656 -56.992188 15.460938 -57.121094 15.460938 -57.253906 C 15.460938 -57.644531 15.460938 -58.167969 15.589844 -58.5625 C 16.246094 -59.871094 16.246094 -59.871094 14.933594 -60.136719 C 14.804688 -60.265625 14.804688 -60.398438 14.804688 -60.398438 C 15.199219 -60.660156 15.722656 -60.789062 16.113281 -60.921875 C 16.246094 -60.660156 16.246094 -60.265625 16.375 -60.003906 L 17.164062 -58.957031 C 17.164062 -58.824219 17.03125 -58.5625 16.902344 -58.5625 C 16.375 -58.300781 15.722656 -58.300781 16.113281 -57.382812 C 16.113281 -57.253906 15.984375 -57.121094 15.851562 -56.992188 Z M 42.449219 -57.777344 C 42.578125 -58.433594 42.578125 -59.085938 42.710938 -59.609375 L 42.972656 -59.609375 C 43.363281 -58.957031 44.804688 -59.347656 44.414062 -58.039062 C 43.757812 -57.90625 43.101562 -57.90625 42.449219 -57.777344 Z M 16.769531 -55.15625 C 15.984375 -55.289062 15.851562 -55.679688 15.984375 -56.335938 C 16.902344 -56.335938 17.03125 -56.203125 16.769531 -55.15625 Z M 12.839844 -54.5 C 12.445312 -54.894531 12.183594 -55.417969 11.921875 -55.8125 C 12.96875 -56.464844 13.230469 -56.335938 13.757812 -55.289062 L 13.230469 -54.761719 C 13.230469 -54.632812 13.101562 -54.632812 12.839844 -54.5 Z M 43.234375 -52.929688 L 42.449219 -53.714844 L 42.839844 -54.109375 C 43.101562 -53.976562 43.363281 -53.714844 43.757812 -53.453125 C 43.496094 -53.320312 43.363281 -53.058594 43.234375 -52.929688 Z M 39.828125 -52.796875 C 39.433594 -52.796875 38.910156 -52.667969 38.519531 -52.929688 C 38.253906 -53.058594 38.125 -53.453125 37.992188 -53.847656 L 38.125 -53.976562 L 39.957031 -53.320312 Z M 35.636719 -52.011719 C 35.636719 -52.144531 35.765625 -52.796875 35.898438 -52.929688 C 36.683594 -53.453125 37.078125 -52.796875 37.46875 -52.144531 C 36.816406 -51.488281 36.160156 -51.617188 35.636719 -52.011719 Z M 43.101562 -50.308594 L 42.578125 -50.832031 L 43.757812 -52.40625 L 44.152344 -52.144531 C 44.675781 -51.226562 42.972656 -51.226562 43.101562 -50.308594 Z M 22.273438 -44.28125 C 22.140625 -44.28125 21.878906 -44.675781 21.75 -44.9375 L 21.878906 -45.070312 C 22.140625 -45.070312 22.535156 -44.9375 22.925781 -44.9375 C 22.796875 -45.722656 22.535156 -46.640625 23.84375 -46.640625 C 23.84375 -47.164062 23.714844 -47.558594 23.582031 -48.082031 L 20.832031 -48.082031 C 21.355469 -49.128906 20.699219 -49.523438 20.046875 -49.914062 C 19.390625 -50.308594 19.257812 -51.488281 19.652344 -52.273438 C 20.832031 -52.011719 20.699219 -50.832031 21.09375 -50.179688 C 21.222656 -49.914062 21.484375 -49.523438 21.75 -49.523438 C 22.664062 -49.390625 23.582031 -49.390625 24.5 -49.523438 C 24.761719 -49.523438 25.023438 -49.914062 25.417969 -50.308594 L 26.59375 -48.738281 C 26.203125 -48.867188 25.941406 -48.738281 25.679688 -48.867188 C 24.628906 -49.523438 24.5 -49.390625 24.5 -48.34375 C 25.285156 -47.820312 26.203125 -47.296875 26.988281 -46.902344 C 26.859375 -46.773438 26.859375 -46.773438 26.859375 -46.640625 L 25.285156 -46.246094 C 24.238281 -46.246094 23.976562 -45.460938 23.582031 -44.804688 C 23.1875 -44.542969 22.796875 -44.28125 22.273438 -44.28125 Z M 12.054688 -50.046875 C 12.316406 -50.832031 11.660156 -51.75 12.839844 -52.011719 C 13.101562 -52.144531 13.496094 -52.273438 13.625 -52.144531 C 13.886719 -52.011719 13.886719 -51.617188 14.019531 -51.226562 C 13.363281 -51.226562 12.96875 -51.09375 12.445312 -51.09375 C 12.707031 -50.179688 12.707031 -50.179688 12.054688 -50.046875 Z M 38.78125 -49.785156 C 38.78125 -50.441406 38.910156 -50.832031 39.042969 -51.355469 C 39.433594 -50.964844 39.695312 -50.832031 39.957031 -50.441406 C 39.566406 -50.308594 39.304688 -50.046875 38.78125 -49.785156 Z M 12.054688 -47.820312 C 10.875 -47.296875 10.21875 -47.6875 9.824219 -48.34375 C 9.695312 -48.476562 9.957031 -49 10.089844 -49.523438 Z M 16.769531 -43.496094 C 16.246094 -43.496094 15.851562 -43.890625 16.246094 -44.414062 C 16.769531 -45.070312 16.507812 -45.460938 15.851562 -45.722656 C 15.066406 -45.984375 15.066406 -46.773438 15.460938 -47.296875 L 17.03125 -45.855469 C 17.164062 -45.855469 17.292969 -45.722656 17.292969 -45.59375 C 17.164062 -44.28125 17.816406 -44.675781 18.605469 -44.804688 C 18.867188 -44.9375 19.257812 -44.675781 19.519531 -44.542969 C 19.652344 -44.414062 19.519531 -44.019531 19.390625 -43.757812 C 19.257812 -43.628906 18.996094 -43.496094 18.734375 -43.496094 C 18.078125 -43.496094 17.425781 -43.363281 16.769531 -43.496094 Z M 35.636719 -45.984375 C 35.113281 -46.117188 34.585938 -46.378906 34.0625 -46.507812 L 34.0625 -46.902344 C 34.585938 -47.035156 34.980469 -47.164062 35.503906 -47.164062 C 35.636719 -47.035156 35.765625 -46.507812 35.898438 -46.246094 C 35.765625 -46.117188 35.636719 -46.117188 35.636719 -45.984375 Z M 10.480469 -42.710938 C 10.613281 -42.972656 10.875 -43.234375 10.875 -43.496094 C 10.875 -43.757812 10.742188 -44.152344 10.613281 -44.414062 C 10.613281 -44.675781 10.351562 -44.804688 10.21875 -45.070312 C 11.527344 -45.332031 11.398438 -44.414062 11.398438 -43.757812 C 11.527344 -43.101562 11.265625 -42.710938 10.480469 -42.710938 Z M 22.273438 -42.710938 L 20.4375 -43.101562 C 20.699219 -43.628906 20.832031 -44.019531 21.09375 -44.414062 C 21.484375 -43.890625 21.878906 -43.496094 22.273438 -43.101562 Z M 15.589844 -41.925781 C 14.28125 -41.792969 14.671875 -42.839844 14.410156 -43.363281 L 15.851562 -43.363281 C 15.984375 -43.363281 15.984375 -43.234375 15.984375 -43.234375 C 15.851562 -42.972656 15.589844 -42.839844 15.328125 -42.578125 C 15.328125 -42.449219 15.460938 -42.1875 15.589844 -41.925781 Z M 7.730469 -36.160156 C 8.253906 -37.078125 8.910156 -37.863281 9.433594 -38.78125 C 9.695312 -38.519531 9.957031 -38.253906 10.089844 -37.992188 L 9.5625 -37.601562 L 9.171875 -36.945312 C 9.039062 -36.289062 8.648438 -36.027344 7.730469 -36.160156 Z M 10.21875 -36.816406 C 10.742188 -37.46875 11.136719 -37.46875 11.660156 -36.816406 C 11.136719 -36.160156 10.742188 -36.160156 10.21875 -36.816406 Z M 10.480469 -33.800781 L 10.089844 -34.847656 C 10.480469 -34.847656 10.742188 -34.980469 11.003906 -35.113281 C 11.003906 -34.71875 11.003906 -34.324219 11.136719 -33.933594 C 10.875 -33.800781 10.742188 -33.800781 10.480469 -33.800781 Z M 13.886719 -33.410156 C 13.363281 -33.410156 12.839844 -33.671875 13.496094 -34.71875 C 13.625 -34.195312 13.757812 -33.933594 13.886719 -33.539062 C 13.886719 -33.671875 14.019531 -33.671875 14.148438 -33.800781 C 14.148438 -33.933594 14.148438 -34.0625 14.28125 -34.195312 L 14.804688 -34.585938 C 14.933594 -34.324219 15.066406 -34.0625 15.199219 -33.933594 C 14.804688 -33.671875 14.28125 -33.410156 13.886719 -33.410156 Z M 11.136719 -30.917969 C 11.003906 -31.050781 11.136719 -31.574219 11.398438 -31.707031 C 12.183594 -32.230469 12.445312 -31.707031 12.839844 -31.050781 C 12.183594 -30.394531 11.660156 -30.527344 11.136719 -30.917969 Z M 14.28125 -30.394531 C 13.886719 -30.789062 13.757812 -31.179688 13.363281 -31.707031 C 13.757812 -31.707031 14.148438 -31.835938 14.28125 -31.707031 C 14.410156 -31.3125 15.066406 -30.789062 14.28125 -30.394531 Z M 13.496094 -27.644531 C 13.230469 -27.511719 12.707031 -27.90625 12.316406 -28.035156 C 12.316406 -28.167969 12.445312 -28.296875 12.445312 -28.296875 C 12.578125 -28.429688 12.839844 -28.5625 12.96875 -28.5625 C 13.496094 -28.429688 13.886719 -28.5625 14.019531 -29.085938 C 14.019531 -29.214844 14.28125 -29.347656 14.542969 -29.476562 C 14.542969 -29.214844 14.804688 -28.953125 14.804688 -28.953125 C 14.410156 -28.429688 14.019531 -28.035156 13.496094 -27.644531 Z M 13.625 -11.660156 L 12.839844 -12.707031 C 12.96875 -12.839844 13.230469 -12.96875 13.496094 -13.101562 C 13.625 -12.707031 13.886719 -12.316406 14.019531 -11.921875 Z M 11.660156 -10.875 C 11.398438 -11.136719 11.136719 -11.660156 11.003906 -11.921875 C 11.003906 -12.054688 11.136719 -12.054688 11.136719 -12.183594 C 11.527344 -11.921875 11.792969 -11.792969 12.054688 -11.527344 C 12.316406 -11.398438 12.445312 -11.265625 12.578125 -11.003906 C 12.316406 -11.003906 11.792969 -10.742188 11.660156 -10.875 Z M 14.28125 -10.089844 C 13.886719 -10.351562 13.625 -10.480469 13.363281 -10.742188 C 13.496094 -10.875 13.625 -11.136719 13.886719 -11.398438 C 14.148438 -11.003906 14.410156 -10.742188 14.542969 -10.480469 C 14.542969 -10.351562 14.28125 -10.089844 14.28125 -10.089844 Z M 14.28125 -10.089844 "/></g></g></g><g fill="#294ac8" fill-opacity="1"><g transform="translate(480.122678, 145.27843)"><g><path d="M 6.15625 0.261719 C 6.683594 0 7.597656 0.261719 8.253906 0.261719 C 9.957031 0.132812 11.792969 0.132812 13.496094 0 C 15.066406 0 17.425781 -0.523438 18.867188 0.261719 C 20.570312 0.261719 22.535156 -0.65625 22.664062 -2.488281 C 22.925781 -4.453125 23.582031 -6.15625 24.5 -7.859375 C 25.679688 -10.613281 26.988281 -13.363281 28.167969 -16.113281 L 30.917969 -22.402344 C 31.179688 -23.058594 31.574219 -23.1875 32.230469 -23.1875 C 35.503906 -23.058594 38.78125 -23.058594 42.054688 -23.058594 C 44.019531 -22.925781 45.984375 -23.1875 48.082031 -23.1875 C 50.046875 -23.1875 52.144531 -23.058594 54.109375 -23.058594 C 55.679688 -22.925781 57.253906 -23.058594 58.695312 -23.1875 L 60.398438 -23.1875 C 61.050781 -23.1875 61.3125 -22.925781 61.574219 -22.402344 L 66.683594 -10.613281 C 67.601562 -8.386719 68.652344 -6.289062 69.304688 -4.0625 C 69.828125 -2.75 70.09375 -1.308594 71.402344 -0.394531 C 72.320312 0.261719 77.953125 0 78.082031 0 L 83.980469 0 C 88.828125 0.523438 89.480469 -2.359375 88.300781 -4.0625 C 86.730469 -5.503906 86.597656 -6.027344 85.8125 -7.859375 C 84.242188 -11.792969 82.40625 -15.722656 80.703125 -19.652344 C 77.953125 -25.546875 75.332031 -31.441406 72.582031 -37.339844 L 68.914062 -45.332031 L 62.625 -59.609375 L 57.90625 -69.960938 C 55.550781 -75.070312 53.191406 -80.046875 51.09375 -85.160156 C 49.914062 -87.910156 49.914062 -87.910156 48.738281 -91.183594 C 48.738281 -93.019531 44.414062 -91.972656 44.152344 -91.316406 C 43.101562 -88.828125 41.925781 -86.335938 40.875 -83.847656 C 40.222656 -82.40625 39.433594 -81.097656 38.78125 -79.65625 C 36.683594 -75.070312 34.71875 -70.617188 32.753906 -66.03125 C 31.3125 -63.015625 30 -59.871094 28.5625 -56.730469 C 26.464844 -51.75 24.238281 -46.902344 22.011719 -41.925781 C 20.960938 -39.828125 19.914062 -37.730469 18.996094 -35.636719 C 16.507812 -30 13.886719 -24.367188 11.398438 -18.734375 C 10.21875 -16.113281 9.171875 -13.496094 7.992188 -10.875 C 6.8125 -8.121094 6.683594 -7.207031 4.976562 -4.585938 C 3.539062 -2.359375 3.144531 0.65625 6.15625 0.261719 Z M 50.179688 -73.105469 C 49.785156 -73.367188 49.390625 -73.5 49.128906 -73.761719 C 49 -73.890625 48.867188 -74.152344 49 -74.285156 C 49.128906 -74.808594 49.390625 -75.332031 49.652344 -75.855469 C 49.785156 -75.988281 49.914062 -76.117188 50.046875 -75.988281 L 50.179688 -75.726562 C 49.652344 -74.9375 50.046875 -74.414062 50.441406 -73.761719 C 50.441406 -73.628906 50.308594 -73.367188 50.179688 -73.105469 Z M 45.59375 -74.546875 C 45.199219 -74.808594 44.675781 -75.070312 44.152344 -75.332031 C 45.332031 -75.855469 45.59375 -75.726562 45.59375 -74.546875 Z M 45.984375 -70.09375 C 46.378906 -70.746094 46.773438 -71.140625 47.296875 -71.664062 C 47.558594 -71.402344 47.6875 -71.140625 47.820312 -70.878906 C 47.296875 -70.617188 46.773438 -70.355469 45.984375 -70.09375 Z M 49.128906 -67.996094 C 49 -68.257812 48.867188 -68.78125 49 -68.914062 C 49.652344 -69.699219 49 -69.828125 48.476562 -69.960938 C 48.082031 -70.09375 47.558594 -70.09375 47.820312 -70.746094 L 48.476562 -71.402344 C 49.128906 -70.746094 49.914062 -70.222656 50.703125 -69.566406 C 50.308594 -69.304688 49.914062 -69.175781 49.523438 -69.042969 C 49.523438 -68.78125 49.523438 -68.386719 49.390625 -67.996094 Z M 46.773438 -65.769531 C 46.773438 -65.769531 46.640625 -65.898438 46.507812 -65.898438 L 45.984375 -67.734375 C 46.378906 -67.601562 46.640625 -67.601562 46.902344 -67.601562 L 46.902344 -67.339844 C 46.902344 -66.816406 46.902344 -66.292969 46.773438 -65.769531 Z M 52.796875 -65.246094 C 52.40625 -65.375 52.144531 -66.03125 51.75 -66.554688 C 52.011719 -66.554688 52.40625 -66.554688 52.40625 -66.421875 C 52.796875 -65.898438 53.320312 -65.769531 53.847656 -65.898438 C 54.632812 -66.160156 54.894531 -65.769531 54.761719 -65.246094 C 53.976562 -65.246094 53.320312 -65.113281 52.796875 -65.246094 Z M 37.078125 -59.742188 C 36.816406 -59.742188 36.550781 -59.871094 36.289062 -59.871094 C 36.421875 -60.265625 36.289062 -60.789062 36.550781 -60.921875 C 37.46875 -61.445312 37.601562 -62.363281 37.601562 -63.277344 C 37.601562 -63.542969 37.863281 -63.804688 37.992188 -64.066406 C 38.125 -63.933594 38.125 -63.933594 38.253906 -63.933594 C 38.386719 -63.148438 38.386719 -62.363281 38.519531 -61.445312 C 38.386719 -61.445312 38.125 -61.3125 37.863281 -61.183594 L 37.992188 -59.871094 C 37.601562 -59.742188 37.339844 -59.742188 37.078125 -59.742188 Z M 56.859375 -54.894531 C 56.859375 -55.550781 56.859375 -55.941406 56.730469 -56.335938 C 56.335938 -56.464844 55.941406 -56.464844 55.550781 -56.597656 L 57.121094 -57.777344 L 58.300781 -55.550781 C 57.777344 -55.417969 57.382812 -55.15625 56.859375 -54.894531 Z M 34.980469 -55.023438 C 34.585938 -55.289062 34.195312 -55.417969 34.195312 -55.550781 L 34.195312 -56.730469 L 34.585938 -56.730469 C 34.71875 -56.203125 34.847656 -55.8125 34.980469 -55.023438 Z M 38.648438 -39.433594 C 41.269531 -45.070312 43.757812 -50.570312 46.246094 -56.203125 C 48.738281 -50.570312 51.226562 -45.070312 53.847656 -39.433594 Z M 36.550781 -54.109375 C 36.160156 -54.632812 35.898438 -55.15625 36.421875 -55.679688 C 36.945312 -56.074219 37.339844 -56.074219 37.601562 -55.417969 C 37.207031 -55.023438 36.945312 -54.5 36.550781 -54.109375 Z M 52.796875 -52.273438 C 52.796875 -52.796875 52.667969 -53.320312 52.667969 -53.847656 C 52.796875 -53.976562 52.929688 -53.976562 52.929688 -53.976562 C 53.191406 -53.714844 53.585938 -53.453125 53.585938 -53.058594 C 53.585938 -52.796875 53.320312 -52.535156 53.058594 -52.273438 Z M 38.78125 -51.617188 L 38.648438 -51.75 C 38.648438 -52.273438 38.648438 -52.929688 38.78125 -53.453125 C 38.78125 -53.585938 39.171875 -53.714844 39.433594 -53.847656 C 39.566406 -53.714844 39.828125 -53.453125 39.828125 -53.320312 C 39.566406 -52.667969 39.171875 -52.144531 38.78125 -51.617188 Z M 54.632812 -50.308594 C 54.632812 -50.308594 54.371094 -50.441406 54.371094 -50.570312 C 54.371094 -50.703125 54.371094 -50.964844 54.5 -51.09375 C 55.15625 -51.882812 53.976562 -52.144531 53.976562 -53.058594 C 54.371094 -53.058594 54.632812 -53.058594 55.023438 -53.191406 C 55.15625 -52.796875 55.15625 -52.40625 55.15625 -52.011719 C 55.15625 -51.617188 55.023438 -51.226562 55.023438 -50.964844 Z M 35.636719 -51.355469 C 36.421875 -52.667969 37.207031 -53.320312 38.253906 -52.929688 Z M 36.550781 -49.390625 C 36.160156 -49.652344 35.765625 -49.785156 35.375 -49.914062 L 35.765625 -50.570312 C 36.027344 -50.308594 36.421875 -50.179688 36.816406 -49.914062 C 36.683594 -49.785156 36.550781 -49.652344 36.550781 -49.390625 Z M 60.265625 -48.210938 C 60.136719 -48.738281 59.871094 -49.128906 59.742188 -49.523438 C 59.871094 -49.523438 60.003906 -49.652344 60.136719 -49.785156 C 60.398438 -49.390625 60.527344 -49 60.789062 -48.738281 C 60.789062 -48.605469 60.398438 -48.476562 60.265625 -48.210938 Z M 33.933594 -48.210938 C 33.539062 -48.476562 33.277344 -48.738281 32.882812 -49.128906 C 32.882812 -49.128906 33.015625 -49.523438 33.144531 -49.652344 C 33.144531 -49.785156 33.410156 -49.785156 33.539062 -49.652344 C 33.800781 -49.652344 34.0625 -49.523438 34.195312 -49.390625 L 34.980469 -48.867188 Z M 29.214844 -49 L 30.917969 -49.523438 C 30.394531 -48.34375 30 -48.210938 29.214844 -49 Z M 34.0625 -42.972656 L 34.0625 -44.9375 L 33.144531 -45.59375 C 33.410156 -45.722656 33.539062 -45.984375 33.671875 -45.984375 C 34.324219 -45.984375 34.980469 -46.117188 34.585938 -47.164062 C 34.585938 -47.296875 35.113281 -47.558594 35.242188 -47.820312 L 36.027344 -46.117188 L 35.242188 -45.59375 L 35.765625 -44.804688 L 34.324219 -42.972656 Z M 29.476562 -46.117188 L 29.085938 -47.296875 C 29.347656 -47.425781 29.609375 -47.558594 29.871094 -47.558594 L 31.574219 -47.164062 L 31.96875 -46.640625 L 31.835938 -46.507812 C 31.179688 -47.035156 30.65625 -46.773438 30.265625 -46.246094 C 30.132812 -46.117188 29.476562 -46.117188 29.476562 -46.117188 Z M 61.050781 -44.28125 C 60.265625 -44.28125 60.136719 -44.804688 60.003906 -45.460938 C 60.003906 -45.722656 59.871094 -45.984375 59.871094 -46.378906 L 61.839844 -46.378906 C 62.363281 -46.378906 62.625 -46.117188 62.492188 -45.59375 C 62.363281 -44.804688 61.839844 -44.414062 61.050781 -44.28125 Z M 31.707031 -44.675781 L 31.3125 -45.855469 C 31.574219 -45.984375 31.707031 -45.984375 31.835938 -46.117188 C 32.097656 -45.722656 32.359375 -45.332031 32.621094 -45.070312 Z M 26.859375 -42.710938 C 26.859375 -43.363281 26.859375 -43.757812 26.988281 -44.542969 C 27.773438 -43.496094 27.773438 -43.234375 26.859375 -42.710938 Z M 59.347656 -42.710938 C 59.347656 -42.710938 59.21875 -42.839844 59.21875 -42.972656 C 59.609375 -43.234375 60.003906 -43.363281 60.398438 -43.757812 C 60.527344 -42.839844 60.136719 -42.710938 59.347656 -42.710938 Z M 29.085938 -38.910156 C 28.691406 -39.171875 28.296875 -39.304688 28.167969 -39.695312 C 28.035156 -39.828125 28.429688 -40.222656 28.5625 -40.613281 C 28.691406 -40.613281 28.824219 -40.484375 28.953125 -40.484375 L 29.347656 -39.171875 Z M 60.789062 -38.648438 C 60.660156 -38.648438 60.398438 -38.78125 60.265625 -38.910156 C 60.136719 -39.171875 60.003906 -39.566406 59.871094 -39.695312 C 59.609375 -39.957031 59.347656 -40.089844 59.085938 -40.222656 C 59.085938 -40.351562 59.21875 -40.484375 59.21875 -40.484375 C 59.480469 -40.484375 59.742188 -40.613281 59.871094 -40.484375 C 60.398438 -40.089844 60.789062 -39.566406 61.183594 -39.171875 C 61.183594 -39.042969 60.921875 -38.78125 60.789062 -38.648438 Z M 27.511719 -37.46875 C 27.25 -37.46875 26.859375 -37.46875 26.59375 -37.730469 C 26.464844 -37.863281 26.59375 -38.253906 26.59375 -38.648438 L 26.988281 -38.648438 C 27.121094 -38.386719 27.382812 -37.992188 27.644531 -37.730469 C 27.644531 -37.601562 27.511719 -37.601562 27.511719 -37.46875 Z M 58.695312 -36.683594 C 58.167969 -36.289062 57.515625 -36.550781 56.859375 -37.207031 C 57.777344 -37.601562 58.5625 -37.863281 59.609375 -38.253906 C 59.21875 -37.601562 59.085938 -36.945312 58.695312 -36.683594 Z M 61.445312 -36.289062 C 61.3125 -37.078125 61.3125 -37.601562 61.3125 -38.253906 L 61.574219 -38.253906 C 61.96875 -37.992188 62.363281 -37.601562 62.753906 -37.207031 C 62.363281 -36.816406 61.96875 -36.683594 61.445312 -36.289062 Z M 27.90625 -33.410156 C 27.511719 -33.410156 27.25 -33.539062 26.988281 -33.671875 L 26.203125 -34.324219 C 25.941406 -34.585938 25.546875 -34.847656 25.417969 -35.242188 C 25.15625 -35.898438 25.023438 -36.683594 24.890625 -37.730469 L 26.070312 -37.207031 C 25.546875 -36.027344 26.203125 -34.847656 27.25 -34.71875 C 27.382812 -34.585938 27.644531 -34.585938 27.773438 -34.585938 L 28.296875 -33.800781 C 28.296875 -33.800781 28.035156 -33.410156 27.90625 -33.410156 Z M 28.167969 -35.113281 C 28.167969 -35.503906 28.035156 -35.898438 28.035156 -36.289062 L 28.5625 -36.421875 C 28.691406 -36.027344 28.691406 -35.636719 28.824219 -35.242188 C 28.5625 -35.242188 28.167969 -35.113281 28.167969 -35.113281 Z M 30.917969 -34.585938 C 30.917969 -34.585938 30.789062 -34.71875 30.789062 -34.847656 L 31.179688 -36.027344 L 31.574219 -36.027344 C 31.707031 -35.636719 31.835938 -35.375 32.097656 -34.980469 Z M 39.957031 -34.195312 C 39.828125 -34.71875 39.695312 -34.980469 39.695312 -35.242188 C 40.351562 -35.375 41.007812 -35.636719 41.660156 -35.765625 C 41.925781 -34.324219 40.089844 -35.375 39.957031 -34.195312 Z M 54.761719 -33.277344 C 54.5 -33.539062 54.238281 -33.800781 53.976562 -34.195312 C 53.847656 -33.933594 53.714844 -33.800781 53.714844 -33.539062 C 53.453125 -33.671875 53.320312 -33.800781 53.191406 -33.800781 L 52.40625 -34.585938 C 52.929688 -35.375 53.714844 -35.113281 54.371094 -34.980469 C 54.894531 -34.980469 55.289062 -34.324219 55.679688 -33.933594 C 55.679688 -33.933594 55.550781 -33.410156 55.417969 -33.410156 C 55.15625 -33.277344 54.894531 -33.277344 54.761719 -33.277344 Z M 66.949219 -32.492188 C 66.554688 -33.144531 66.554688 -33.015625 67.339844 -33.410156 C 67.601562 -33.539062 67.734375 -33.800781 67.996094 -34.195312 C 68.386719 -33.277344 68.386719 -33.277344 66.949219 -32.492188 Z M 43.496094 -30.917969 C 43.234375 -31.3125 42.710938 -31.835938 42.710938 -32.230469 C 42.839844 -32.621094 43.496094 -33.015625 43.890625 -33.015625 C 44.152344 -33.144531 44.542969 -32.621094 45.070312 -32.097656 C 44.414062 -31.574219 43.890625 -31.3125 43.496094 -30.917969 Z M 33.144531 -30 C 32.492188 -30.265625 32.230469 -30.789062 31.96875 -32.359375 L 32.492188 -31.835938 L 33.539062 -30.65625 C 33.671875 -30.527344 33.671875 -30.394531 33.800781 -30.132812 C 33.539062 -30.132812 33.277344 -30 33.144531 -30 Z M 66.421875 -30.789062 C 65.769531 -30.65625 65.246094 -30.394531 64.980469 -31.179688 C 64.980469 -31.3125 65.375 -31.835938 65.375 -31.835938 C 65.898438 -31.574219 66.683594 -31.707031 66.421875 -30.789062 Z M 49.914062 -30.65625 C 49.523438 -30.789062 49.128906 -30.917969 48.605469 -31.179688 C 49.390625 -31.835938 49.785156 -31.835938 49.914062 -30.65625 Z M 30.394531 -28.429688 C 30 -28.5625 29.609375 -28.5625 28.953125 -28.691406 C 29.476562 -29.476562 29.871094 -30.132812 30.394531 -30.65625 C 30.527344 -30.789062 31.050781 -30.65625 31.3125 -30.65625 C 30.917969 -29.871094 30.65625 -29.214844 30.394531 -28.429688 Z M 50.964844 -28.167969 C 49.914062 -28.296875 49.914062 -28.296875 50.179688 -29.347656 C 50.179688 -29.347656 50.308594 -29.476562 50.441406 -29.476562 C 50.570312 -29.085938 50.703125 -28.691406 50.964844 -28.167969 Z M 42.054688 -28.035156 C 42.449219 -28.5625 42.578125 -28.953125 42.972656 -29.347656 C 43.363281 -29.085938 43.757812 -28.824219 44.152344 -28.691406 L 44.152344 -28.429688 Z M 57.90625 -27.773438 C 57.644531 -28.167969 57.515625 -28.5625 57.253906 -29.214844 C 58.039062 -29.085938 58.695312 -28.296875 58.433594 -27.773438 C 58.433594 -27.644531 57.90625 -27.644531 57.90625 -27.773438 Z M 39.695312 -27.382812 C 39.566406 -27.773438 39.433594 -28.296875 39.566406 -28.429688 C 40.089844 -28.5625 40.613281 -28.691406 41.136719 -28.953125 L 41.136719 -28.691406 Z M 38.125 -26.988281 L 36.816406 -27.90625 L 36.816406 -28.167969 C 37.207031 -28.296875 37.730469 -28.5625 37.992188 -28.429688 C 38.253906 -28.167969 38.253906 -27.644531 38.386719 -27.25 C 38.386719 -27.121094 38.253906 -27.121094 38.125 -26.988281 Z M 68.914062 -26.59375 C 68.652344 -26.59375 68.519531 -26.988281 68.386719 -27.25 C 68.78125 -27.382812 69.304688 -27.644531 69.828125 -27.90625 C 69.828125 -26.988281 69.699219 -26.464844 68.914062 -26.59375 Z M 61.96875 -26.464844 C 62.625 -26.59375 63.015625 -27.382812 63.933594 -26.859375 C 63.277344 -26.59375 63.015625 -25.546875 61.96875 -26.464844 Z M 65.898438 -23.1875 L 64.980469 -24.5 C 65.113281 -24.628906 65.246094 -24.628906 65.507812 -24.761719 C 65.769531 -24.367188 65.898438 -23.84375 66.160156 -23.453125 C 66.03125 -23.453125 66.03125 -23.320312 65.898438 -23.1875 Z M 70.09375 -20.570312 C 69.828125 -21.222656 69.699219 -21.75 69.4375 -22.140625 C 69.960938 -22.796875 70.484375 -23.1875 70.878906 -23.714844 C 71.269531 -23.320312 71.664062 -22.796875 72.320312 -23.453125 C 72.320312 -23.582031 72.710938 -23.453125 72.84375 -23.320312 L 72.582031 -22.925781 C 72.1875 -22.796875 71.796875 -22.535156 71.402344 -22.402344 C 70.746094 -22.273438 70.222656 -22.011719 70.355469 -21.222656 C 70.484375 -21.09375 70.355469 -20.960938 70.09375 -20.570312 Z M 67.339844 -19.78125 C 67.078125 -19.78125 66.816406 -20.175781 66.683594 -20.308594 C 66.949219 -20.4375 67.078125 -20.699219 67.339844 -20.832031 C 67.734375 -20.960938 67.996094 -20.960938 68.386719 -20.960938 C 68.257812 -20.308594 68.125 -19.652344 67.339844 -19.78125 Z M 71.269531 -17.949219 C 71.007812 -18.078125 70.746094 -18.339844 70.746094 -18.605469 C 70.746094 -18.867188 71.007812 -18.996094 71.402344 -19.390625 C 71.53125 -19.128906 71.925781 -18.867188 71.796875 -18.867188 C 71.664062 -18.472656 71.402344 -18.210938 71.269531 -17.949219 Z M 16.636719 -17.03125 C 16.902344 -17.554688 17.03125 -17.816406 17.164062 -18.210938 C 17.425781 -18.078125 17.949219 -17.816406 17.949219 -17.554688 C 17.949219 -17.03125 17.554688 -16.769531 16.636719 -17.03125 Z M 71.269531 -16.375 L 69.960938 -16.769531 C 69.828125 -16.769531 69.699219 -17.03125 69.699219 -17.164062 C 69.828125 -17.164062 69.960938 -17.292969 69.960938 -17.292969 C 70.484375 -17.164062 71.007812 -16.902344 71.402344 -16.769531 C 71.402344 -16.636719 71.269531 -16.507812 71.269531 -16.375 Z M 73.890625 -15.066406 C 73.761719 -15.328125 73.5 -15.589844 73.234375 -15.984375 C 73.234375 -16.113281 73.367188 -16.246094 73.367188 -16.246094 C 73.628906 -16.113281 74.023438 -16.113281 74.152344 -15.851562 C 74.285156 -15.722656 74.285156 -15.328125 74.285156 -15.066406 Z M 71.402344 -13.101562 C 70.746094 -13.625 70.222656 -13.886719 69.699219 -14.28125 C 69.566406 -14.410156 69.4375 -14.671875 69.4375 -14.933594 C 69.566406 -15.066406 69.699219 -15.328125 69.828125 -15.328125 C 69.960938 -15.460938 70.09375 -15.199219 70.355469 -15.066406 C 70.484375 -14.933594 70.746094 -14.804688 71.007812 -14.671875 C 71.269531 -14.542969 71.925781 -14.28125 71.925781 -14.148438 C 71.796875 -13.757812 71.53125 -13.363281 71.402344 -13.101562 Z M 17.816406 -12.445312 C 17.949219 -13.363281 18.078125 -14.28125 18.339844 -15.328125 C 18.867188 -14.671875 19.519531 -14.28125 19.128906 -13.363281 C 18.867188 -12.707031 18.472656 -12.445312 17.816406 -12.445312 Z M 72.582031 -11.660156 L 71.664062 -12.054688 C 71.925781 -12.578125 72.320312 -13.101562 72.582031 -13.496094 L 72.972656 -13.230469 Z M 75.59375 -8.910156 C 75.464844 -9.039062 75.203125 -9.039062 75.070312 -9.171875 C 75.070312 -9.300781 74.9375 -9.300781 74.9375 -9.300781 C 76.117188 -9.957031 74.808594 -11.398438 75.988281 -12.183594 C 75.988281 -11.003906 76.773438 -9.824219 75.59375 -8.910156 Z M 18.078125 -9.957031 C 17.554688 -9.824219 17.164062 -10.089844 17.425781 -10.613281 C 17.816406 -11.527344 18.605469 -11.003906 19.257812 -10.875 C 19.914062 -10.742188 20.046875 -10.480469 19.78125 -10.089844 C 19.128906 -9.957031 18.605469 -9.957031 18.078125 -9.957031 Z M 73.234375 -7.46875 L 72.710938 -9.171875 C 72.710938 -9.300781 73.105469 -9.5625 73.367188 -9.5625 L 74.414062 -9.171875 L 73.628906 -7.46875 Z M 13.625 -6.289062 C 12.96875 -6.417969 12.578125 -6.417969 12.316406 -6.550781 C 12.183594 -6.8125 12.316406 -7.207031 12.445312 -7.46875 C 12.578125 -7.597656 13.101562 -7.730469 13.101562 -7.597656 Z M 77.691406 -6.027344 L 75.988281 -6.417969 C 76.117188 -6.8125 76.25 -7.074219 76.640625 -7.46875 Z M 77.691406 -6.027344 "/></g></g></g><g fill="#294ac8" fill-opacity="1"><g transform="translate(586.110071, 145.27843)"><g><path d="M 73.761719 0.261719 C 74.9375 0.65625 72.84375 -4.324219 72.1875 -5.109375 C 71.007812 -6.417969 69.960938 -7.992188 68.914062 -9.433594 C 63.410156 -16.636719 54.632812 -29.085938 49.128906 -36.289062 C 47.820312 -38.125 46.378906 -39.957031 44.9375 -41.925781 C 45.460938 -42.1875 45.984375 -42.449219 46.378906 -42.578125 C 52.273438 -44.9375 57.644531 -48.210938 61.3125 -53.585938 C 65.507812 -59.742188 66.421875 -66.421875 63.410156 -73.5 C 61.839844 -77.035156 59.347656 -80.046875 56.335938 -82.539062 C 52.40625 -85.683594 48.210938 -88.300781 43.363281 -89.613281 C 37.601562 -91.183594 31.707031 -91.839844 25.808594 -91.707031 L 15.460938 -91.707031 C 14.019531 -91.707031 12.578125 -91.707031 11.265625 -92.234375 C 9.695312 -92.886719 8.253906 -91.839844 8.121094 -90.269531 C 7.992188 -89.613281 8.121094 -88.957031 8.253906 -88.300781 C 8.386719 -87.125 8.777344 -86.074219 8.777344 -84.894531 L 8.777344 -71.664062 C 8.777344 -70.484375 8.515625 -69.175781 8.515625 -67.996094 C 8.515625 -66.683594 8.777344 -65.375 8.777344 -64.066406 L 8.777344 -8.910156 C 8.777344 -7.074219 8.777344 -5.109375 8.121094 -3.40625 C 7.597656 -2.097656 7.992188 -1.179688 8.910156 -0.261719 C 9.824219 0.65625 10.742188 0.394531 11.921875 0.132812 C 12.578125 -0.132812 13.496094 -0.261719 14.28125 -0.261719 C 16.113281 -0.394531 17.949219 -0.394531 19.914062 -0.394531 C 20.570312 -0.261719 21.355469 -0.261719 21.878906 0 C 23.058594 0.523438 23.976562 0.523438 24.890625 -0.394531 C 25.679688 -1.179688 25.941406 -2.226562 25.679688 -3.40625 C 25.285156 -4.585938 25.023438 -5.765625 25.023438 -6.945312 L 25.023438 -38.910156 C 26.332031 -39.695312 26.859375 -38.78125 27.382812 -38.125 C 30 -34.71875 32.492188 -31.179688 35.113281 -27.773438 C 39.433594 -22.011719 47.296875 -11.003906 51.617188 -5.242188 C 52.273438 -4.191406 52.929688 -3.144531 53.585938 -1.964844 C 54.371094 -0.394531 56.074219 0.523438 57.90625 0.132812 C 58.300781 0.132812 58.695312 -0.132812 59.21875 0 C 64.066406 0.261719 68.914062 -1.441406 73.761719 0.261719 Z M 29.738281 -84.503906 L 29.214844 -84.632812 C 29.476562 -85.160156 29.609375 -85.683594 30 -86.597656 C 30.527344 -85.550781 29.871094 -85.027344 29.738281 -84.503906 Z M 31.179688 -82.40625 L 30.394531 -83.585938 C 30.65625 -84.109375 30.917969 -84.632812 31.3125 -85.027344 C 31.835938 -84.632812 32.492188 -84.371094 32.882812 -83.980469 C 32.882812 -82.800781 32.230469 -83.847656 31.96875 -83.585938 Z M 18.210938 -81.488281 C 16.636719 -81.488281 15.984375 -82.40625 15.066406 -83.585938 C 16.769531 -83.457031 17.292969 -82.40625 18.210938 -81.488281 Z M 37.078125 -83.585938 L 38.910156 -83.585938 C 37.992188 -82.277344 37.992188 -82.277344 37.078125 -83.585938 Z M 46.902344 -80.964844 L 48.34375 -82.800781 C 48.738281 -81.359375 48.082031 -81.097656 46.902344 -80.964844 Z M 12.96875 -81.097656 L 12.316406 -82.277344 C 12.445312 -82.40625 12.707031 -82.539062 12.839844 -82.539062 C 12.96875 -82.144531 13.230469 -81.75 13.363281 -81.359375 C 13.230469 -81.359375 13.101562 -81.226562 12.96875 -81.097656 Z M 36.027344 -80.574219 C 35.636719 -80.703125 35.375 -80.964844 34.847656 -81.226562 L 36.160156 -82.40625 C 36.289062 -81.621094 36.289062 -81.226562 36.421875 -80.703125 C 36.289062 -80.703125 36.160156 -80.574219 36.027344 -80.574219 Z M 28.5625 -79.394531 L 26.988281 -80.964844 L 29.214844 -80.964844 C 28.953125 -80.441406 28.824219 -80.046875 28.5625 -79.394531 Z M 17.554688 -77.558594 L 15.199219 -79 C 16.246094 -79.523438 17.03125 -79.785156 18.078125 -80.3125 C 17.949219 -79.394531 17.816406 -78.476562 17.554688 -77.558594 Z M 12.316406 -78.871094 C 13.230469 -80.3125 13.363281 -80.3125 14.28125 -79 C 13.757812 -79 13.101562 -79 12.316406 -78.871094 Z M 34.980469 -78.609375 C 34.585938 -78.871094 34.324219 -79 34.0625 -79.261719 C 34.324219 -79.394531 34.457031 -79.785156 34.585938 -79.785156 L 35.375 -79.132812 Z M 45.855469 -77.296875 C 45.59375 -78.082031 45.332031 -78.738281 44.9375 -79.394531 C 46.378906 -79.394531 46.773438 -78.871094 45.855469 -77.296875 Z M 50.308594 -77.558594 L 49.261719 -79.132812 C 49.785156 -79.261719 50.441406 -79.261719 51.226562 -79.394531 C 50.964844 -78.738281 50.703125 -78.214844 50.308594 -77.558594 Z M 44.28125 -76.640625 C 43.234375 -77.429688 43.234375 -77.429688 43.890625 -78.476562 Z M 15.851562 -76.378906 C 15.199219 -76.378906 14.542969 -76.511719 13.625 -76.511719 C 14.542969 -77.558594 15.199219 -77.167969 15.984375 -76.773438 C 15.851562 -76.640625 15.851562 -76.511719 15.851562 -76.378906 Z M 21.222656 -74.808594 C 21.222656 -75.464844 21.09375 -75.855469 21.09375 -76.640625 C 22.273438 -75.464844 22.273438 -75.464844 21.222656 -74.808594 Z M 25.941406 -55.550781 C 25.679688 -55.550781 25.417969 -55.679688 25.023438 -55.8125 C 25.023438 -62.230469 25.285156 -68.652344 24.890625 -75.203125 C 25.285156 -75.332031 25.546875 -75.464844 25.808594 -75.464844 C 31.179688 -75.464844 36.683594 -75.070312 41.792969 -72.84375 C 43.757812 -71.925781 45.59375 -71.007812 47.035156 -69.4375 C 49.390625 -66.949219 49.390625 -64.195312 46.902344 -61.707031 C 44.9375 -59.871094 42.710938 -58.433594 40.089844 -57.515625 C 35.503906 -55.941406 30.789062 -55.417969 25.941406 -55.550781 Z M 47.6875 -74.152344 L 47.425781 -74.546875 C 47.6875 -74.675781 47.820312 -74.808594 48.082031 -75.070312 C 48.210938 -74.9375 48.34375 -74.808594 48.34375 -74.675781 C 48.082031 -74.414062 47.949219 -74.285156 47.6875 -74.152344 Z M 50.570312 -72.582031 C 50.441406 -72.582031 50.179688 -72.972656 49.914062 -73.105469 C 50.179688 -73.367188 50.441406 -73.890625 50.703125 -73.890625 C 51.488281 -73.890625 52.273438 -73.761719 53.058594 -73.628906 L 53.191406 -73.5 C 52.273438 -73.105469 51.488281 -72.84375 50.570312 -72.582031 Z M 55.417969 -67.078125 C 55.289062 -67.078125 55.023438 -67.339844 55.023438 -67.339844 C 55.15625 -67.601562 55.289062 -67.863281 55.550781 -68.125 C 55.679688 -68.125 55.8125 -67.996094 55.941406 -67.996094 C 55.8125 -67.601562 55.679688 -67.339844 55.417969 -67.078125 Z M 57.382812 -63.542969 L 55.550781 -64.457031 C 56.464844 -64.980469 56.992188 -65.375 57.777344 -65.898438 C 57.644531 -64.851562 57.515625 -64.328125 57.382812 -63.542969 Z M 17.425781 -61.839844 C 16.636719 -62.492188 15.851562 -62.886719 15.199219 -63.410156 C 14.804688 -63.933594 14.933594 -64.328125 15.589844 -64.71875 C 15.722656 -64.457031 15.984375 -64.066406 16.375 -63.671875 C 16.636719 -63.933594 17.03125 -64.195312 17.292969 -64.328125 L 18.605469 -64.328125 Z M 13.230469 -63.015625 C 12.839844 -63.015625 12.578125 -63.148438 12.183594 -63.277344 C 12.183594 -63.410156 12.316406 -63.542969 12.316406 -63.671875 C 12.578125 -63.542969 12.96875 -63.410156 13.363281 -63.410156 C 13.230469 -63.277344 13.230469 -63.148438 13.230469 -63.015625 Z M 53.714844 -61.445312 L 53.320312 -61.574219 C 53.320312 -61.96875 53.453125 -62.230469 53.453125 -62.625 C 53.585938 -62.492188 53.847656 -62.492188 53.976562 -62.492188 C 53.976562 -62.101562 53.847656 -61.839844 53.714844 -61.445312 Z M 59.609375 -61.050781 C 59.480469 -61.3125 59.21875 -61.445312 59.21875 -61.574219 C 59.21875 -61.839844 59.480469 -62.101562 59.609375 -62.101562 C 59.742188 -62.101562 60.003906 -61.96875 60.398438 -61.707031 C 60.003906 -61.445312 59.871094 -61.3125 59.609375 -61.050781 Z M 51.09375 -57.515625 C 50.832031 -57.644531 50.703125 -57.777344 50.570312 -58.039062 C 50.832031 -58.300781 51.09375 -58.5625 51.488281 -58.695312 C 51.488281 -58.695312 51.882812 -58.433594 51.75 -58.433594 C 51.617188 -58.039062 51.355469 -57.777344 51.09375 -57.515625 Z M 20.570312 -57.253906 C 20.570312 -57.253906 20.308594 -57.253906 20.308594 -57.382812 C 20.308594 -57.644531 20.308594 -57.90625 20.4375 -58.167969 C 20.570312 -58.167969 20.699219 -58.167969 20.960938 -58.039062 Z M 49.785156 -51.09375 C 49.652344 -52.011719 49.914062 -52.40625 50.832031 -52.40625 C 50.441406 -53.058594 50.046875 -53.453125 49.652344 -54.238281 C 50.308594 -54.5 50.832031 -54.894531 51.488281 -55.15625 C 52.535156 -53.714844 51.226562 -52.929688 51.09375 -51.882812 C 50.964844 -51.617188 50.308594 -51.355469 49.785156 -51.09375 Z M 42.1875 -50.308594 C 42.839844 -51.355469 43.363281 -51.226562 44.019531 -50.832031 Z M 18.867188 -49.914062 C 18.867188 -50.046875 18.734375 -50.179688 18.734375 -50.308594 L 19.652344 -50.703125 L 19.914062 -50.308594 Z M 22.273438 -49.785156 C 22.535156 -50.441406 22.796875 -50.703125 23.84375 -50.308594 Z M 26.203125 -47.949219 C 25.941406 -47.949219 25.808594 -48.082031 25.679688 -48.082031 C 25.679688 -48.476562 25.808594 -48.738281 25.808594 -49.128906 C 25.15625 -49.261719 24.628906 -49.261719 23.976562 -49.261719 C 24.105469 -50.308594 24.761719 -50.308594 25.285156 -50.308594 C 25.808594 -50.179688 26.332031 -49.785156 26.59375 -49.261719 C 26.726562 -49 26.332031 -48.476562 26.203125 -47.949219 Z M 48.34375 -47.949219 C 48.476562 -49.390625 48.476562 -49.390625 49.523438 -50.046875 C 49.128906 -49.261719 49.652344 -48.34375 48.34375 -47.949219 Z M 12.707031 -48.476562 L 12.707031 -48.867188 L 13.886719 -49.652344 C 14.148438 -49.390625 14.28125 -49 14.410156 -48.867188 Z M 15.984375 -48.738281 L 15.199219 -49.390625 C 15.851562 -49.523438 15.851562 -49.523438 15.984375 -48.738281 Z M 46.117188 -49.261719 L 47.820312 -49.261719 C 47.164062 -48.476562 46.773438 -48.210938 46.117188 -49.261719 Z M 28.035156 -47.425781 C 27.773438 -47.558594 27.382812 -47.949219 27.121094 -48.210938 C 27.90625 -49.523438 28.953125 -48.210938 29.738281 -48.605469 C 29.214844 -48.210938 28.691406 -47.820312 28.035156 -47.425781 Z M 18.210938 -47.558594 C 19.257812 -48.867188 20.175781 -47.296875 21.222656 -47.820312 C 20.570312 -46.246094 19.914062 -46.246094 18.210938 -47.558594 Z M 42.839844 -47.164062 C 42.710938 -47.035156 42.316406 -47.425781 42.449219 -47.558594 C 42.449219 -47.820312 42.710938 -48.082031 42.839844 -48.210938 C 42.972656 -48.210938 43.234375 -47.949219 43.628906 -47.6875 C 43.234375 -47.425781 43.101562 -47.164062 42.839844 -47.164062 Z M 36.160156 -41.136719 L 36.027344 -41.660156 C 36.160156 -42.710938 36.550781 -43.890625 36.289062 -44.804688 C 36.027344 -45.722656 34.980469 -46.378906 34.324219 -47.164062 C 34.195312 -47.296875 34.195312 -47.558594 34.195312 -48.082031 L 37.863281 -45.460938 C 37.46875 -44.28125 36.816406 -42.839844 36.160156 -41.136719 Z M 44.542969 -47.558594 L 44.542969 -48.082031 C 44.804688 -48.082031 45.070312 -47.949219 45.460938 -47.949219 L 45.332031 -47.558594 Z M 33.277344 -44.804688 C 33.015625 -45.460938 32.621094 -46.117188 32.359375 -46.507812 C 33.539062 -46.640625 33.539062 -46.640625 33.277344 -44.804688 Z M 14.28125 -44.804688 C 15.199219 -45.59375 15.984375 -46.640625 17.554688 -46.246094 C 17.292969 -45.722656 17.03125 -45.199219 16.769531 -44.804688 Z M 43.628906 -45.070312 C 43.496094 -45.199219 43.363281 -45.199219 43.363281 -45.332031 C 43.496094 -45.59375 43.628906 -45.855469 43.757812 -45.855469 C 44.019531 -45.984375 44.28125 -45.984375 44.414062 -45.984375 C 44.542969 -45.855469 44.542969 -45.722656 44.542969 -45.722656 C 44.28125 -45.460938 43.890625 -45.199219 43.628906 -45.070312 Z M 40.746094 -43.363281 C 39.957031 -42.449219 39.957031 -42.449219 39.171875 -43.757812 C 39.828125 -44.675781 40.222656 -43.496094 40.746094 -43.363281 C 41.136719 -43.757812 41.53125 -44.152344 41.925781 -44.675781 C 42.054688 -43.628906 41.53125 -43.363281 40.746094 -43.363281 Z M 15.984375 -40.089844 L 13.496094 -41.53125 C 14.148438 -42.710938 15.328125 -41.925781 16.246094 -42.316406 Z M 18.867188 -38.253906 C 18.078125 -37.730469 17.816406 -38.386719 17.554688 -38.910156 C 17.425781 -39.304688 17.292969 -39.957031 17.949219 -40.222656 C 18.472656 -40.484375 18.867188 -41.53125 19.652344 -40.351562 C 19.128906 -40.089844 18.734375 -39.828125 18.210938 -39.433594 C 18.472656 -39.042969 18.734375 -38.648438 18.867188 -38.253906 Z M 36.550781 -38.910156 C 36.816406 -39.171875 36.945312 -39.304688 37.078125 -39.566406 C 37.207031 -39.828125 37.46875 -39.957031 37.730469 -40.351562 C 38.386719 -38.910156 38.386719 -38.910156 36.550781 -38.910156 Z M 35.375 -37.207031 C 34.980469 -37.601562 34.585938 -37.863281 33.933594 -38.253906 C 35.242188 -38.648438 35.242188 -38.648438 35.636719 -37.601562 C 35.636719 -37.46875 35.503906 -37.339844 35.375 -37.207031 Z M 43.101562 -35.765625 C 42.449219 -35.503906 42.054688 -35.765625 41.792969 -36.421875 C 42.316406 -37.078125 42.839844 -37.207031 43.234375 -36.550781 C 43.363281 -36.421875 43.363281 -35.898438 43.101562 -35.765625 Z M 35.898438 -34.457031 C 35.375 -34.71875 35.113281 -35.113281 35.765625 -35.898438 C 36.027344 -35.375 36.160156 -34.980469 36.289062 -34.585938 C 36.027344 -34.585938 35.898438 -34.457031 35.898438 -34.457031 Z M 13.101562 -35.113281 L 12.96875 -35.375 L 14.019531 -35.765625 L 14.019531 -35.113281 Z M 18.078125 -33.015625 L 17.03125 -33.671875 C 17.292969 -34.324219 17.6875 -34.847656 18.078125 -35.765625 C 18.734375 -34.585938 18.339844 -33.933594 18.078125 -33.015625 Z M 41.136719 -33.671875 C 40.613281 -33.800781 40.089844 -34.0625 39.433594 -34.195312 C 40.089844 -34.847656 40.746094 -35.242188 41.53125 -34.847656 C 41.792969 -34.71875 41.792969 -34.195312 42.054688 -33.933594 C 41.660156 -33.933594 41.398438 -33.671875 41.136719 -33.671875 Z M 14.542969 -33.933594 C 14.933594 -34.71875 15.328125 -34.847656 16.113281 -34.585938 C 15.722656 -33.410156 15.066406 -33.933594 14.542969 -33.933594 Z M 38.386719 -31.96875 C 38.253906 -32.753906 38.253906 -33.144531 38.253906 -33.800781 L 40.746094 -32.882812 C 39.828125 -32.492188 39.171875 -32.359375 38.386719 -31.96875 Z M 44.28125 -32.753906 C 43.890625 -32.753906 43.628906 -32.882812 43.363281 -32.882812 C 43.363281 -33.015625 43.496094 -33.277344 43.496094 -33.277344 C 43.757812 -33.277344 44.019531 -33.144531 44.28125 -33.015625 Z M 17.03125 -25.15625 C 16.246094 -26.726562 16.246094 -26.726562 17.816406 -27.90625 C 17.425781 -26.859375 17.292969 -26.070312 17.03125 -25.15625 Z M 45.984375 -26.988281 L 47.164062 -26.988281 C 46.507812 -25.941406 46.507812 -25.941406 45.984375 -26.988281 Z M 46.246094 -23.453125 L 45.855469 -25.285156 C 46.773438 -24.5 46.773438 -24.5 46.246094 -23.453125 Z M 48.738281 -23.582031 C 48.34375 -23.582031 48.082031 -23.714844 47.820312 -23.84375 L 47.820312 -24.238281 C 48.210938 -24.238281 48.476562 -24.105469 48.738281 -24.105469 Z M 54.632812 -20.175781 C 53.585938 -20.570312 53.058594 -20.960938 52.273438 -21.222656 L 54.238281 -22.273438 Z M 44.152344 -20.960938 C 44.019531 -20.960938 43.628906 -21.222656 43.628906 -21.222656 L 44.019531 -21.878906 C 44.28125 -21.75 44.414062 -21.617188 44.542969 -21.484375 Z M 49.523438 -19.257812 C 48.867188 -19.128906 48.210938 -18.734375 47.6875 -19.914062 C 48.476562 -19.914062 49 -19.914062 49.523438 -19.78125 Z M 55.289062 -16.246094 C 55.15625 -16.507812 53.191406 -18.078125 53.191406 -18.339844 C 53.058594 -18.472656 53.453125 -18.734375 53.714844 -18.996094 C 53.847656 -18.605469 54.109375 -18.339844 54.109375 -18.210938 C 54.109375 -18.078125 55.550781 -16.375 55.289062 -16.246094 Z M 19.914062 -12.839844 C 19.914062 -12.96875 19.914062 -13.230469 20.046875 -13.363281 C 20.308594 -13.230469 20.570312 -13.230469 20.832031 -13.230469 L 20.832031 -12.839844 Z M 15.589844 -11.921875 C 15.328125 -11.921875 15.066406 -12.183594 15.066406 -12.316406 C 15.066406 -12.578125 15.328125 -12.707031 15.460938 -12.96875 C 15.589844 -12.707031 15.851562 -12.578125 16.113281 -12.316406 C 15.851562 -12.183594 15.722656 -11.921875 15.589844 -11.921875 Z M 16.246094 -8.253906 L 19.390625 -9.695312 C 18.078125 -7.597656 17.425781 -7.335938 16.246094 -8.253906 Z M 55.8125 -7.335938 C 55.417969 -7.335938 55.023438 -7.335938 54.761719 -7.46875 C 54.761719 -7.597656 54.761719 -7.859375 54.894531 -7.992188 L 55.8125 -7.597656 C 55.941406 -7.597656 55.8125 -7.335938 55.8125 -7.335938 Z M 17.554688 -5.632812 L 16.769531 -6.15625 C 16.769531 -6.289062 16.902344 -6.417969 17.03125 -6.550781 C 17.292969 -6.417969 17.554688 -6.15625 17.816406 -5.894531 C 17.816406 -5.765625 17.6875 -5.632812 17.554688 -5.632812 Z M 15.328125 -4.585938 C 15.199219 -4.585938 14.933594 -4.976562 14.933594 -5.109375 C 14.933594 -5.242188 15.199219 -5.371094 15.589844 -5.894531 C 15.722656 -5.503906 15.851562 -5.242188 15.851562 -5.109375 C 15.722656 -4.847656 15.460938 -4.714844 15.328125 -4.585938 Z M 15.328125 -4.585938 "/></g></g></g><g fill="#294ac8" fill-opacity="1"><g transform="translate(677.948477, 145.27843)"><g><path d="M 6.683594 -105.859375 C 8.253906 -106.511719 9.433594 -106.644531 10.875 -106.25 C 11.792969 -106.121094 12.707031 -106.25 13.625 -106.25 C 14.019531 -106.382812 14.28125 -106.382812 14.410156 -106.644531 C 15.199219 -107.824219 15.984375 -109.003906 16.636719 -110.183594 C 18.339844 -113.457031 20.046875 -116.863281 21.617188 -120.269531 C 22.402344 -121.578125 22.796875 -123.019531 23.84375 -124.070312 C 24.367188 -124.59375 24.367188 -125.25 23.84375 -125.902344 C 23.453125 -126.6875 22.925781 -126.953125 22.273438 -126.6875 C 20.832031 -126.164062 19.390625 -126.296875 18.078125 -126.164062 C 16.769531 -126.035156 15.328125 -126.164062 14.019531 -126.164062 C 13.363281 -126.296875 12.578125 -126.164062 12.054688 -126.164062 C 11.527344 -126.164062 11.265625 -125.773438 11.265625 -125.25 C 11.398438 -124.722656 11.398438 -124.199219 11.265625 -123.808594 C 10.089844 -120.402344 9.039062 -117.257812 7.859375 -114.242188 C 7.074219 -112.148438 6.289062 -109.789062 4.453125 -108.480469 C 3.800781 -107.824219 3.800781 -107.300781 4.191406 -106.644531 C 4.976562 -105.726562 5.503906 -105.335938 6.683594 -105.859375 Z M 14.148438 -118.960938 C 14.019531 -119.484375 14.148438 -119.746094 14.019531 -120.269531 L 14.804688 -119.875 C 14.671875 -119.746094 14.410156 -119.484375 14.148438 -118.960938 Z M 13.363281 -119.351562 C 12.96875 -118.960938 12.707031 -119.089844 12.316406 -119.484375 C 12.839844 -119.875 13.230469 -119.746094 13.363281 -119.351562 Z M 12.445312 -117.125 C 12.96875 -117.910156 12.96875 -117.910156 14.019531 -117.257812 C 13.363281 -117.257812 12.96875 -117.125 12.445312 -117.125 Z M 12.445312 -115.816406 C 12.316406 -115.683594 12.183594 -115.945312 12.183594 -116.339844 C 12.445312 -116.207031 12.707031 -116.46875 12.96875 -116.601562 C 12.96875 -116.46875 13.101562 -116.339844 13.230469 -116.207031 C 12.96875 -116.078125 12.578125 -115.945312 12.445312 -115.816406 Z M 15.589844 -113.71875 C 14.804688 -114.242188 14.804688 -115.027344 14.933594 -115.945312 C 15.328125 -115.292969 16.375 -114.765625 15.589844 -113.71875 Z M 11.136719 -114.375 L 12.316406 -115.027344 L 12.316406 -114.765625 C 12.183594 -114.113281 11.792969 -114.113281 11.136719 -114.375 Z M 12.054688 -112.148438 L 11.398438 -113.195312 C 11.398438 -113.195312 11.527344 -113.324219 11.527344 -113.457031 C 12.054688 -113.195312 12.316406 -112.933594 12.054688 -112.148438 Z M 13.101562 -112.671875 C 12.96875 -112.800781 12.839844 -112.933594 12.839844 -113.0625 L 13.101562 -113.195312 L 13.363281 -112.671875 Z M 12.183594 -110.3125 L 11.921875 -110.707031 C 12.054688 -110.707031 12.183594 -110.835938 12.316406 -110.835938 L 12.578125 -110.574219 C 12.316406 -110.445312 12.316406 -110.3125 12.183594 -110.3125 Z M 7.335938 0.261719 C 8.515625 -0.132812 9.824219 -0.261719 11.003906 -0.261719 C 12.445312 -0.394531 13.886719 -0.394531 15.328125 -0.261719 C 16.113281 -0.261719 17.03125 -0.261719 17.816406 0 C 18.867188 0.394531 19.914062 0.394531 20.699219 -0.394531 C 21.75 -1.308594 21.75 -2.359375 21.484375 -3.667969 C 21.222656 -4.585938 21.09375 -5.632812 21.09375 -6.550781 C 20.960938 -31.179688 20.960938 -60.265625 20.960938 -84.765625 C 20.960938 -85.945312 20.960938 -87.253906 21.617188 -88.433594 C 22.011719 -89.21875 21.75 -90.136719 21.222656 -90.921875 C 20.308594 -91.972656 19.390625 -92.234375 17.6875 -91.839844 C 14.410156 -91.054688 11.265625 -90.921875 7.992188 -91.972656 C 6.8125 -92.496094 5.894531 -92.234375 4.976562 -91.316406 C 3.929688 -90.398438 3.800781 -89.351562 4.191406 -88.171875 C 4.585938 -87.125 4.714844 -85.945312 4.714844 -84.765625 C 4.847656 -82.40625 4.714844 -79.917969 4.714844 -77.429688 C 4.714844 -67.863281 4.847656 -58.167969 4.847656 -48.476562 L 4.714844 -24.628906 C 4.714844 -19.78125 4.847656 -14.933594 4.714844 -10.089844 C 4.714844 -7.859375 4.847656 -5.503906 4.0625 -3.273438 C 3.929688 -3.011719 3.929688 -2.621094 3.929688 -2.488281 C 3.929688 -0.394531 5.371094 0.65625 7.335938 0.261719 Z M 11.398438 -81.75 C 11.003906 -81.882812 10.480469 -82.015625 10.351562 -82.144531 C 9.824219 -82.800781 9.695312 -83.585938 10.480469 -84.371094 Z M 14.804688 -81.359375 C 14.542969 -81.488281 14.410156 -81.621094 14.28125 -81.75 C 14.542969 -82.015625 14.671875 -82.277344 14.933594 -82.277344 C 15.066406 -82.40625 15.328125 -82.144531 15.589844 -82.144531 C 15.460938 -81.882812 15.460938 -81.75 15.328125 -81.621094 C 15.199219 -81.621094 14.933594 -81.359375 14.804688 -81.359375 Z M 8.777344 -77.296875 C 8.777344 -78.082031 8.648438 -78.476562 8.648438 -78.871094 C 9.433594 -78.609375 9.824219 -78.082031 8.777344 -77.296875 Z M 13.101562 -77.558594 C 12.96875 -77.691406 12.839844 -77.691406 12.578125 -77.820312 L 12.96875 -78.738281 C 13.101562 -78.738281 13.363281 -78.609375 13.363281 -78.609375 C 13.363281 -78.214844 13.230469 -77.953125 13.101562 -77.558594 Z M 17.164062 -77.558594 C 17.164062 -77.558594 17.03125 -77.691406 17.03125 -77.820312 L 17.554688 -78.214844 C 17.816406 -78.34375 18.078125 -78.34375 18.339844 -78.34375 C 18.472656 -78.34375 18.472656 -78.214844 18.472656 -78.082031 Z M 9.957031 -74.9375 C 10.613281 -75.855469 11.003906 -75.855469 11.398438 -75.332031 C 11.527344 -75.332031 11.527344 -74.9375 11.398438 -74.9375 Z M 10.875 -71.925781 L 10.480469 -72.449219 L 11.265625 -72.972656 C 11.398438 -72.710938 11.527344 -72.582031 11.527344 -72.449219 C 11.398438 -72.1875 11.136719 -72.058594 10.875 -71.925781 Z M 14.410156 -70.484375 C 13.625 -72.1875 13.625 -72.1875 14.410156 -72.582031 Z M 9.039062 -69.042969 C 9.300781 -69.699219 9.695312 -70.222656 10.613281 -69.566406 C 9.957031 -69.304688 9.433594 -69.175781 9.039062 -69.042969 Z M 14.019531 -58.300781 L 11.660156 -60.789062 C 12.054688 -61.3125 12.316406 -61.96875 12.578125 -62.625 L 14.28125 -58.433594 C 14.28125 -58.433594 14.148438 -58.300781 14.019531 -58.300781 Z M 15.199219 -60.398438 L 14.28125 -61.707031 C 15.328125 -61.574219 15.199219 -60.921875 15.199219 -60.398438 Z M 15.589844 -53.714844 C 14.542969 -52.796875 14.28125 -53.714844 13.886719 -54.109375 C 14.671875 -54.761719 14.933594 -54.109375 15.589844 -53.714844 Z M 11.398438 -50.703125 C 10.875 -51.355469 10.480469 -52.011719 9.957031 -52.796875 C 10.351562 -53.320312 10.613281 -53.714844 11.003906 -54.109375 C 11.136719 -53.976562 11.398438 -53.976562 11.527344 -53.847656 C 10.875 -52.796875 10.875 -51.75 11.792969 -50.832031 C 11.660156 -50.832031 11.527344 -50.703125 11.398438 -50.703125 Z M 14.28125 -51.09375 C 13.101562 -50.179688 12.96875 -50.179688 12.054688 -51.617188 C 12.96875 -51.355469 13.496094 -51.226562 14.28125 -51.09375 Z M 15.984375 -37.730469 C 15.851562 -37.992188 15.589844 -38.125 15.722656 -38.125 C 15.851562 -38.78125 15.851562 -38.78125 16.769531 -39.042969 C 16.507812 -38.519531 16.246094 -38.125 15.984375 -37.730469 Z M 17.6875 -36.027344 C 17.425781 -36.683594 17.164062 -36.945312 17.164062 -37.078125 C 17.164062 -37.339844 17.292969 -37.601562 17.292969 -37.863281 C 18.210938 -37.601562 17.949219 -37.078125 17.6875 -36.027344 Z M 11.792969 -21.617188 C 11.398438 -22.011719 11.003906 -22.140625 10.480469 -22.535156 C 11.660156 -23.058594 12.054688 -22.925781 11.792969 -21.617188 Z M 9.695312 -20.570312 C 9.695312 -20.960938 9.5625 -21.222656 9.433594 -21.617188 L 9.824219 -21.75 L 10.351562 -20.832031 C 10.089844 -20.832031 9.957031 -20.699219 9.695312 -20.570312 Z M 11.003906 -19.390625 C 11.265625 -19.914062 11.527344 -20.175781 11.792969 -20.570312 L 12.96875 -19.390625 Z M 9.300781 -15.460938 L 8.777344 -16.375 C 9.695312 -17.164062 10.480469 -17.03125 11.792969 -16.507812 C 10.742188 -16.113281 10.089844 -15.851562 9.300781 -15.460938 Z M 16.902344 -14.933594 C 16.507812 -15.328125 16.113281 -15.722656 15.460938 -16.246094 C 16.902344 -16.507812 17.03125 -15.851562 16.902344 -14.933594 Z M 14.804688 -10.089844 C 14.542969 -10.351562 14.28125 -10.613281 13.886719 -10.875 C 14.019531 -11.003906 14.148438 -11.136719 14.28125 -11.136719 C 14.804688 -11.136719 15.066406 -10.875 14.804688 -10.089844 Z M 12.839844 -8.386719 L 12.578125 -8.777344 C 12.839844 -9.039062 13.101562 -9.433594 13.363281 -9.824219 C 13.886719 -8.777344 13.363281 -8.648438 12.839844 -8.386719 Z M 14.148438 -5.894531 C 14.28125 -7.074219 14.933594 -7.074219 15.722656 -6.945312 C 15.589844 -6.027344 14.933594 -6.027344 14.148438 -5.894531 Z M 12.445312 -3.40625 C 11.921875 -3.40625 11.398438 -3.539062 10.613281 -3.539062 C 11.527344 -4.585938 12.054688 -3.929688 12.578125 -3.800781 C 12.578125 -3.667969 12.445312 -3.539062 12.445312 -3.40625 Z M 12.445312 -3.40625 "/></g></g></g><g fill="#294ac8" fill-opacity="1"><g transform="translate(716.859148, 145.27843)"><g><path d="M 34.847656 1.046875 C 38.125 1.441406 41.53125 1.046875 44.9375 1.046875 C 45.199219 1.046875 45.460938 0.917969 45.722656 0.917969 C 50.703125 0.523438 55.023438 -1.308594 59.21875 -3.667969 C 63.277344 -5.765625 66.683594 -8.648438 69.042969 -12.445312 C 73.234375 -19.390625 74.285156 -26.859375 71.140625 -34.585938 C 68.519531 -41.007812 63.804688 -45.59375 58.039062 -49.128906 C 53.320312 -52.144531 48.082031 -53.453125 42.710938 -54.238281 C 39.433594 -54.632812 36.027344 -55.023438 33.144531 -56.464844 C 30.394531 -57.644531 28.167969 -59.085938 26.332031 -61.3125 C 23.582031 -64.851562 24.5 -67.996094 27.121094 -70.617188 C 27.511719 -70.878906 27.90625 -71.140625 28.296875 -71.53125 C 30.394531 -72.972656 32.621094 -74.023438 35.375 -74.546875 C 39.433594 -75.59375 43.757812 -75.203125 47.6875 -74.023438 C 58.695312 -70.617188 60.265625 -61.050781 61.574219 -60.789062 C 62.753906 -60.265625 63.671875 -61.050781 64.328125 -61.839844 C 64.980469 -62.363281 65.507812 -63.148438 66.160156 -63.542969 C 68.914062 -64.980469 71.269531 -66.949219 74.546875 -67.339844 C 75.464844 -67.339844 73.367188 -74.9375 72.710938 -76.117188 C 71.007812 -79.261719 68.78125 -81.621094 65.898438 -83.980469 C 58.5625 -89.875 49.914062 -92.625 39.695312 -92.625 C 38.386719 -92.625 36.027344 -92.363281 33.800781 -92.101562 C 28.5625 -91.578125 23.582031 -89.742188 19.257812 -86.863281 C 15.328125 -84.242188 11.792969 -80.835938 9.5625 -76.25 C 7.46875 -71.796875 6.289062 -67.078125 7.335938 -61.96875 C 7.859375 -59.347656 8.515625 -56.597656 10.089844 -54.109375 C 15.851562 -44.542969 24.628906 -39.566406 35.375 -37.46875 C 38.519531 -36.945312 41.660156 -36.683594 44.675781 -35.765625 C 48.082031 -35.113281 50.964844 -33.410156 53.191406 -30.917969 C 55.8125 -27.773438 56.074219 -24.105469 53.191406 -20.960938 C 52.535156 -20.175781 51.617188 -19.519531 50.703125 -18.996094 C 43.890625 -15.328125 37.078125 -15.328125 30.132812 -18.339844 C 25.941406 -20.175781 17.164062 -30.265625 15.722656 -28.691406 C 12.96875 -25.941406 9.695312 -23.976562 6.027344 -22.796875 C 2.75 -21.878906 5.503906 -16.636719 8.253906 -13.886719 C 9.433594 -12.316406 10.480469 -10.613281 11.921875 -9.300781 C 18.339844 -3.40625 26.070312 0.261719 34.847656 1.046875 Z M 39.566406 -87.125 C 39.433594 -87.125 39.304688 -87.515625 39.304688 -87.648438 C 39.433594 -87.777344 39.695312 -87.910156 40.089844 -88.039062 C 40.222656 -88.039062 40.351562 -87.777344 40.484375 -87.515625 C 40.222656 -87.386719 39.828125 -87.125 39.566406 -87.125 Z M 36.945312 -84.765625 C 37.339844 -85.945312 35.503906 -86.335938 36.160156 -87.515625 C 38.386719 -85.945312 38.386719 -85.8125 36.945312 -84.765625 Z M 47.6875 -80.3125 C 46.640625 -81.359375 46.640625 -81.359375 48.082031 -82.929688 C 46.640625 -83.457031 45.070312 -81.621094 43.628906 -83.585938 C 44.675781 -83.847656 45.722656 -83.585938 46.507812 -83.980469 C 47.425781 -84.242188 48.210938 -84.894531 49 -85.289062 L 49 -81.226562 C 48.605469 -80.964844 48.082031 -80.703125 47.6875 -80.3125 Z M 38.519531 -83.585938 L 38.519531 -84.632812 L 38.78125 -84.765625 C 38.910156 -84.371094 38.910156 -84.109375 39.042969 -83.847656 C 38.910156 -83.847656 38.648438 -83.585938 38.519531 -83.585938 Z M 50.179688 -81.75 C 49.523438 -82.40625 49.523438 -82.929688 49.914062 -83.191406 C 50.179688 -83.457031 50.832031 -83.191406 51.226562 -83.191406 L 51.226562 -82.667969 C 50.964844 -82.40625 50.441406 -82.144531 50.179688 -81.75 Z M 56.464844 -80.964844 C 56.464844 -82.667969 56.597656 -82.667969 58.300781 -82.539062 C 57.515625 -82.015625 57.121094 -81.488281 56.464844 -80.964844 Z M 53.976562 -81.097656 C 53.714844 -81.226562 53.453125 -81.226562 53.320312 -81.359375 C 53.191406 -81.488281 53.191406 -81.75 53.058594 -82.015625 L 53.453125 -82.40625 C 53.585938 -82.144531 53.847656 -81.75 54.238281 -81.359375 C 54.238281 -81.359375 53.976562 -81.226562 53.976562 -81.097656 Z M 61.445312 -80.441406 C 60.921875 -81.359375 60.921875 -82.015625 61.839844 -82.015625 C 62.101562 -82.015625 62.363281 -81.488281 62.363281 -81.488281 C 62.101562 -81.097656 61.839844 -80.703125 61.445312 -80.441406 Z M 40.089844 -79.132812 C 40.089844 -80.3125 39.828125 -80.835938 39.828125 -81.488281 C 41.007812 -81.75 41.398438 -81.226562 41.925781 -80.3125 C 41.398438 -79.917969 41.007812 -79.65625 40.089844 -79.132812 Z M 44.542969 -79.523438 C 44.414062 -79.65625 44.414062 -79.65625 44.414062 -79.785156 C 44.9375 -79.917969 45.460938 -79.917969 45.984375 -80.046875 L 45.984375 -79.523438 Z M 55.550781 -76.378906 C 54.761719 -76.773438 54.761719 -76.773438 54.238281 -79.132812 C 54.761719 -79 55.15625 -79 55.550781 -78.871094 Z M 60.921875 -78.082031 C 60.527344 -78.214844 60.265625 -78.476562 59.871094 -78.609375 C 60.003906 -78.738281 60.136719 -78.871094 60.265625 -79.132812 C 60.527344 -78.871094 60.789062 -78.609375 61.050781 -78.476562 C 61.050781 -78.214844 60.921875 -77.953125 60.921875 -78.082031 Z M 64.980469 -77.558594 C 64.589844 -77.691406 64.328125 -77.691406 64.195312 -77.953125 C 64.066406 -77.953125 64.328125 -78.214844 64.328125 -78.609375 C 64.851562 -78.082031 65.113281 -78.082031 65.113281 -77.820312 C 65.246094 -77.820312 64.980469 -77.558594 64.980469 -77.558594 Z M 62.363281 -76.773438 C 62.363281 -77.167969 62.492188 -77.429688 62.492188 -77.820312 C 62.625 -77.691406 62.886719 -77.691406 63.148438 -77.558594 C 62.886719 -77.296875 62.753906 -77.035156 62.625 -76.773438 Z M 18.078125 -75.464844 C 17.6875 -76.117188 17.949219 -76.511719 18.605469 -76.90625 C 18.996094 -76.25 18.996094 -75.726562 18.078125 -75.464844 Z M 27.90625 -75.726562 C 27.90625 -75.59375 27.511719 -75.855469 27.382812 -75.988281 C 27.773438 -76.117188 28.035156 -76.378906 28.167969 -76.511719 C 28.296875 -76.378906 28.429688 -76.25 28.5625 -75.988281 C 28.296875 -75.855469 28.167969 -75.726562 27.90625 -75.726562 Z M 58.433594 -74.023438 L 58.824219 -76.378906 C 60.003906 -75.070312 60.003906 -75.070312 58.433594 -74.023438 Z M 63.277344 -72.320312 C 61.96875 -72.1875 61.96875 -72.1875 62.230469 -74.9375 C 62.625 -73.761719 62.886719 -72.972656 63.277344 -72.320312 Z M 14.542969 -66.816406 L 13.886719 -67.863281 C 14.148438 -68.125 14.410156 -68.257812 14.542969 -68.386719 C 14.671875 -68.386719 15.066406 -68.125 14.933594 -67.996094 C 14.933594 -67.601562 14.804688 -67.339844 14.542969 -66.816406 Z M 19.914062 -65.769531 C 19.652344 -66.160156 19.519531 -66.160156 19.390625 -66.292969 C 19.257812 -66.554688 19.257812 -66.816406 19.128906 -67.210938 C 19.78125 -67.339844 20.308594 -67.601562 21.09375 -67.863281 C 21.09375 -67.601562 21.222656 -67.472656 21.222656 -67.339844 C 20.832031 -66.949219 20.308594 -66.421875 19.914062 -65.769531 Z M 16.507812 -61.445312 C 16.246094 -61.707031 15.722656 -61.839844 15.460938 -62.230469 L 16.113281 -63.410156 C 16.375 -62.753906 16.636719 -62.230469 16.902344 -61.839844 Z M 15.328125 -58.695312 C 14.542969 -59.609375 14.019531 -60.265625 13.363281 -61.183594 C 13.101562 -61.574219 12.707031 -62.101562 13.886719 -62.363281 C 14.671875 -61.445312 15.460938 -60.398438 16.375 -59.347656 Z M 21.09375 -56.992188 C 20.699219 -57.253906 20.175781 -57.253906 19.519531 -57.253906 C 19.78125 -57.644531 19.78125 -57.90625 19.914062 -57.90625 C 20.308594 -57.777344 20.832031 -57.777344 21.09375 -57.644531 Z M 29.214844 -47.164062 C 29.609375 -47.6875 29.738281 -48.082031 30 -48.738281 C 30.527344 -47.6875 30.265625 -47.425781 29.214844 -47.164062 Z M 37.601562 -46.246094 C 37.46875 -47.164062 37.46875 -47.6875 37.46875 -48.738281 C 38.910156 -47.558594 38.910156 -47.558594 37.601562 -46.246094 Z M 50.964844 -45.070312 C 50.308594 -45.332031 50.046875 -45.460938 49.523438 -45.59375 C 50.179688 -46.378906 50.964844 -47.164062 52.011719 -47.296875 C 51.617188 -46.640625 51.355469 -45.855469 50.964844 -45.070312 Z M 52.796875 -44.019531 C 52.535156 -44.019531 52.273438 -44.28125 52.011719 -44.414062 C 52.144531 -44.675781 52.273438 -44.9375 52.667969 -45.199219 C 52.929688 -44.9375 53.191406 -44.542969 53.191406 -44.28125 C 53.191406 -44.28125 52.796875 -43.890625 52.796875 -44.019531 Z M 48.210938 -41.792969 C 48.082031 -42.1875 48.082031 -42.449219 47.949219 -42.710938 C 48.082031 -42.710938 48.210938 -42.839844 48.210938 -42.839844 L 48.738281 -42.054688 C 48.605469 -41.925781 48.34375 -41.925781 48.210938 -41.792969 Z M 44.414062 -41.792969 C 44.28125 -41.925781 44.414062 -42.316406 44.414062 -42.578125 C 44.9375 -42.449219 45.460938 -42.316406 45.984375 -42.316406 L 45.984375 -41.792969 C 45.460938 -41.660156 44.9375 -40.746094 44.414062 -41.792969 Z M 56.730469 -38.386719 C 56.730469 -38.386719 56.335938 -38.648438 56.464844 -38.648438 C 56.464844 -38.910156 56.597656 -39.042969 56.859375 -39.171875 L 57.253906 -38.78125 C 57.121094 -38.648438 56.859375 -38.386719 56.730469 -38.386719 Z M 60.789062 -37.46875 C 59.871094 -36.683594 59.085938 -37.078125 58.824219 -37.863281 C 58.695312 -38.125 58.824219 -38.910156 59.085938 -38.910156 C 60.265625 -39.304688 60.398438 -38.386719 60.789062 -37.46875 Z M 65.113281 -33.144531 C 64.980469 -33.144531 64.851562 -33.277344 64.457031 -33.277344 C 64.589844 -33.933594 64.980469 -34.585938 65.113281 -35.242188 C 66.160156 -34.71875 65.898438 -33.933594 65.507812 -33.410156 C 65.507812 -33.277344 65.375 -33.144531 65.113281 -33.144531 Z M 64.589844 -29.609375 C 63.277344 -29.085938 63.148438 -29.476562 63.148438 -30.789062 C 63.671875 -30.265625 64.066406 -30 64.589844 -29.609375 Z M 67.210938 -21.484375 C 66.421875 -22.011719 66.160156 -22.402344 66.683594 -23.320312 C 67.472656 -22.796875 67.734375 -22.402344 67.210938 -21.484375 Z M 57.515625 -18.867188 C 58.167969 -20.699219 58.167969 -20.832031 60.003906 -20.960938 C 59.871094 -19.519531 58.5625 -19.652344 57.515625 -18.867188 Z M 14.410156 -18.339844 C 13.101562 -18.867188 13.101562 -19.257812 13.886719 -20.4375 C 14.019531 -19.519531 14.148438 -19.128906 14.410156 -18.339844 Z M 16.113281 -18.339844 C 16.507812 -19.128906 17.292969 -19.128906 17.949219 -19.128906 C 17.949219 -18.867188 18.078125 -18.734375 18.078125 -18.472656 C 17.425781 -18.472656 16.636719 -18.339844 16.113281 -18.339844 Z M 15.328125 -16.769531 C 15.066406 -17.164062 14.933594 -17.554688 14.671875 -18.078125 C 14.933594 -18.078125 15.066406 -18.339844 15.328125 -18.339844 L 15.722656 -16.902344 C 15.589844 -16.902344 15.460938 -16.769531 15.328125 -16.769531 Z M 61.445312 -14.933594 C 60.527344 -14.933594 60.527344 -14.933594 58.824219 -17.554688 C 59.609375 -18.078125 60.003906 -18.078125 60.398438 -17.292969 C 60.660156 -16.375 60.921875 -15.722656 61.445312 -14.933594 Z M 23.320312 -15.328125 C 23.058594 -16.113281 22.925781 -16.636719 22.796875 -17.292969 C 23.714844 -16.902344 24.238281 -16.636719 23.320312 -15.328125 Z M 12.183594 -14.804688 L 12.183594 -15.199219 L 13.230469 -15.199219 L 13.230469 -14.804688 Z M 16.375 -14.019531 C 17.425781 -14.933594 17.425781 -14.933594 18.210938 -14.019531 Z M 55.8125 -12.578125 C 55.679688 -13.101562 55.417969 -13.230469 55.417969 -13.496094 C 55.417969 -13.625 55.550781 -13.757812 55.679688 -14.148438 C 55.8125 -13.757812 56.074219 -13.625 56.203125 -13.363281 C 56.203125 -13.230469 56.074219 -13.101562 55.8125 -12.578125 Z M 28.296875 -13.496094 C 27.25 -12.839844 26.59375 -13.757812 25.679688 -13.625 C 27.25 -14.019531 27.25 -14.019531 28.296875 -13.496094 Z M 59.742188 -11.003906 C 58.824219 -11.398438 59.085938 -11.921875 59.21875 -12.445312 C 58.5625 -12.839844 58.5625 -12.839844 59.21875 -13.757812 L 59.21875 -12.445312 C 59.609375 -12.054688 60.265625 -11.792969 59.742188 -11.003906 Z M 52.535156 -9.695312 C 52.144531 -10.742188 52.667969 -12.054688 51.617188 -12.839844 C 51.75 -13.101562 51.882812 -13.230469 52.011719 -13.363281 C 52.667969 -13.101562 53.191406 -12.707031 53.714844 -12.316406 C 53.320312 -11.398438 53.058594 -10.480469 52.796875 -9.695312 Z M 23.320312 -10.480469 C 22.011719 -10.613281 21.878906 -11.660156 21.617188 -12.578125 C 23.582031 -12.316406 23.714844 -12.054688 23.320312 -10.480469 Z M 58.695312 -8.515625 C 57.121094 -8.253906 57.121094 -8.253906 57.253906 -10.351562 Z M 26.070312 -6.417969 C 25.023438 -7.46875 25.417969 -8.515625 27.121094 -8.910156 C 26.59375 -7.992188 26.332031 -7.207031 26.070312 -6.417969 Z M 30.65625 -7.730469 C 30.527344 -7.730469 30.265625 -7.859375 30.132812 -8.121094 C 30.132812 -8.253906 30.265625 -8.386719 30.394531 -8.777344 C 30.789062 -8.515625 30.917969 -8.253906 31.050781 -8.121094 C 30.917969 -7.992188 30.789062 -7.730469 30.65625 -7.730469 Z M 51.75 -6.8125 L 50.703125 -8.386719 C 51.882812 -8.253906 52.144531 -7.992188 51.75 -6.8125 Z M 39.042969 -5.765625 C 39.042969 -6.289062 38.910156 -6.683594 38.910156 -7.074219 C 39.042969 -7.074219 39.304688 -7.074219 39.433594 -7.207031 C 39.566406 -6.8125 39.566406 -6.417969 39.566406 -6.027344 Z M 39.042969 -5.765625 "/></g></g></g></svg>