<svg xmlns="http://www.w3.org/2000/svg" xmlns:xlink="http://www.w3.org/1999/xlink" width="250" zoomAndPan="magnify" viewBox="0 0 187.5 187.499992" height="250" preserveAspectRatio="xMidYMid meet" version="1.0"><defs><g/><clipPath id="4af6717912"><path d="M 8.320312 100 L 153 100 L 153 185 L 8.320312 185 Z M 8.320312 100 " clip-rule="nonzero"/></clipPath></defs><path fill="#4d8e1b" d="M 146.636719 117.527344 C 123.066406 152.136719 100.808594 170.164062 76.164062 173.894531 C 70.953125 174.683594 61.425781 174.636719 53.832031 174.429688 C 46.875 174.238281 40.683594 169.972656 38.015625 163.550781 C 35.15625 156.667969 31.777344 148.011719 30.609375 142.921875 C 25.039062 118.644531 33.261719 91.078125 56.832031 56.46875 C 89.542969 8.433594 160.964844 0.0273438 160.964844 0.0273438 C 160.964844 0.0273438 179.347656 69.496094 146.636719 117.527344 " fill-opacity="1" fill-rule="nonzero"/><path fill="#478319" d="M 151.890625 108.855469 C 151.710938 106.542969 151.421875 104.210938 151.011719 101.878906 C 150.933594 101.4375 150.847656 101.003906 150.761719 100.566406 L 132.15625 103.785156 C 137.792969 95.257812 141.855469 86.082031 144.730469 76.761719 C 147.253906 75.742188 149.710938 74.53125 152.078125 73.132812 C 155.886719 70.882812 159.222656 68.050781 162.226562 64.804688 C 162.292969 64.734375 162.222656 64.605469 162.140625 64.605469 C 162.121094 64.605469 162.101562 64.609375 162.082031 64.628906 C 159.175781 67.042969 155.996094 69.078125 152.730469 70.96875 C 150.382812 72.328125 147.929688 73.503906 145.402344 74.496094 C 148.046875 65.289062 149.558594 55.980469 150.3125 47.046875 C 152.839844 45.886719 155.253906 44.472656 157.535156 42.824219 C 159.882812 41.128906 162.054688 39.199219 164.03125 37.082031 C 164.164062 36.9375 164.019531 36.671875 163.859375 36.671875 C 163.820312 36.671875 163.78125 36.6875 163.742188 36.722656 C 160.09375 40.191406 155.859375 43.011719 151.253906 45.046875 C 150.984375 45.167969 150.710938 45.28125 150.441406 45.398438 C 151.011719 37.6875 151.023438 30.277344 150.71875 23.484375 C 151 23.410156 151.277344 23.328125 151.554688 23.242188 C 153.015625 22.785156 154.417969 22.171875 155.742188 21.40625 C 158.296875 19.933594 160.710938 17.953125 162.238281 15.410156 C 162.261719 15.367188 162.226562 15.328125 162.1875 15.328125 C 162.171875 15.328125 162.15625 15.332031 162.148438 15.34375 C 160.054688 17.398438 157.898438 19.335938 155.261719 20.675781 C 154.015625 21.308594 152.710938 21.847656 151.375 22.25 C 151.140625 22.320312 150.90625 22.386719 150.667969 22.449219 C 150.617188 21.398438 150.554688 20.359375 150.488281 19.339844 C 152.535156 15.667969 154.449219 11.921875 156.214844 8.089844 C 156.878906 6.640625 157.40625 5.121094 157.949219 3.621094 C 157.980469 3.53125 157.914062 3.449219 157.84375 3.449219 C 157.8125 3.449219 157.777344 3.464844 157.753906 3.511719 C 155.300781 8.121094 152.925781 12.765625 150.347656 17.304688 C 149.917969 11.644531 149.296875 6.546875 148.648438 2.230469 C 156.058594 0.621094 160.746094 0.0507812 160.957031 0.0273438 C 160.960938 0.0273438 160.960938 0.0273438 160.960938 0.0273438 C 160.960938 0.0273438 160.964844 0.0273438 160.964844 0.0273438 C 160.964844 0.0273438 166.117188 19.488281 166.113281 44.933594 C 166.109375 64.734375 162.988281 88.160156 151.890625 108.855469 " fill-opacity="1" fill-rule="nonzero"/><path fill="#94bb76" d="M 44.929688 118.867188 C 44.238281 116.972656 43.644531 115.039062 43.15625 113.082031 C 41.605469 106.910156 40.992188 100.398438 42.089844 94.101562 C 42.105469 94.007812 42.175781 93.964844 42.25 93.964844 C 42.332031 93.964844 42.414062 94.019531 42.414062 94.125 C 42.4375 97.644531 42.570312 101.207031 43.046875 104.699219 C 43.699219 109.453125 44.832031 114.121094 46.554688 118.585938 L 44.929688 118.867188 M 72.695312 114.066406 C 70.023438 110.53125 67.871094 106.621094 66.035156 102.59375 C 62.519531 94.894531 60.410156 86.542969 59.769531 78.105469 C 59.140625 69.824219 60.152344 61.277344 62.960938 53.453125 C 62.992188 53.359375 63.0625 53.324219 63.128906 53.324219 C 63.261719 53.324219 63.40625 53.453125 63.371094 53.609375 C 62.390625 58.117188 61.691406 62.757812 61.476562 67.367188 C 61.097656 75.488281 61.933594 83.734375 64.160156 91.554688 C 66.390625 99.375 70.039062 106.476562 74.597656 113.171875 C 78.949219 107.449219 83.5 101.875 88.160156 96.394531 C 91.039062 93.007812 93.957031 89.65625 96.886719 86.316406 C 93.296875 83.746094 91.527344 79.332031 89.976562 75.339844 C 84.410156 60.996094 83.417969 44.851562 87.8125 30.066406 C 87.855469 29.929688 87.957031 29.871094 88.058594 29.871094 C 88.199219 29.871094 88.335938 29.988281 88.296875 30.179688 C 87.460938 34.261719 86.980469 38.421875 86.722656 42.574219 C 86.265625 49.972656 86.976562 57.441406 88.644531 64.65625 C 89.472656 68.238281 90.566406 71.757812 91.921875 75.171875 C 93.3125 78.671875 94.894531 82.699219 98.191406 84.828125 C 103.324219 78.988281 108.484375 73.175781 113.558594 67.285156 C 115.734375 64.75 117.902344 62.207031 120.042969 59.644531 C 119.578125 59.441406 119.261719 58.992188 118.910156 58.5625 C 118.441406 57.992188 118.003906 57.402344 117.605469 56.78125 C 116.78125 55.488281 116.125 54.089844 115.59375 52.652344 C 113.550781 47.082031 113.382812 40.949219 113.203125 35.085938 C 113.097656 31.679688 113.082031 28.273438 113.300781 24.871094 C 113.492188 21.910156 114.0625 18.695312 116.042969 16.375 L 116.089844 16.40625 C 114.613281 19.703125 114.472656 23.296875 114.410156 26.851562 C 114.351562 30.089844 114.484375 33.332031 114.675781 36.566406 C 114.835938 39.355469 114.980469 42.160156 115.34375 44.9375 C 115.691406 47.585938 116.25 50.222656 117.25 52.710938 C 117.734375 53.921875 118.339844 55.085938 119.070312 56.171875 C 119.453125 56.738281 119.867188 57.28125 120.324219 57.792969 C 120.578125 58.078125 120.789062 58.304688 120.921875 58.589844 C 123.332031 55.695312 125.710938 52.773438 128.046875 49.820312 C 128.085938 49.734375 128.148438 49.652344 128.234375 49.585938 C 131.503906 45.441406 134.691406 41.230469 137.753906 36.929688 C 138.507812 35.867188 139.25 34.796875 139.988281 33.722656 L 139.953125 33.632812 C 138.4375 29.421875 137.6875 24.996094 137.761719 20.519531 C 137.800781 18.335938 138.011719 16.152344 138.414062 14 C 138.78125 12.046875 139.398438 9.730469 140.527344 8.082031 L 140.539062 8.089844 C 140.445312 9.179688 140.160156 10.210938 139.960938 11.289062 C 139.769531 12.316406 139.640625 13.351562 139.480469 14.382812 C 139.160156 16.472656 139.019531 18.585938 139.0625 20.699219 C 139.136719 24.597656 139.800781 28.492188 141.027344 32.191406 C 143.609375 28.371094 146.082031 24.476562 148.464844 20.523438 C 149.105469 19.457031 149.730469 18.382812 150.347656 17.304688 C 150.394531 17.976562 150.445312 18.652344 150.488281 19.339844 C 149.832031 20.527344 149.160156 21.703125 148.472656 22.871094 C 148.722656 22.84375 148.964844 22.824219 149.199219 22.777344 C 149.695312 22.6875 150.183594 22.578125 150.667969 22.449219 C 150.6875 22.792969 150.703125 23.136719 150.71875 23.484375 C 150.324219 23.59375 149.925781 23.6875 149.523438 23.773438 C 149 23.882812 148.386719 24.0625 147.816406 24.0625 C 147.800781 24.0625 147.785156 24.058594 147.769531 24.058594 C 144.277344 29.933594 140.472656 35.628906 136.453125 41.179688 C 134.453125 43.945312 132.402344 46.675781 130.3125 49.375 C 130.375 49.378906 130.4375 49.382812 130.496094 49.386719 C 130.988281 49.402344 131.480469 49.410156 131.96875 49.410156 C 132.152344 49.410156 132.335938 49.410156 132.519531 49.40625 C 133.949219 49.390625 135.378906 49.300781 136.800781 49.140625 C 141.539062 48.617188 146.070312 47.261719 150.441406 45.398438 C 150.398438 45.949219 150.355469 46.496094 150.3125 47.046875 C 148.136719 48.046875 145.878906 48.859375 143.542969 49.476562 C 141.039062 50.140625 138.476562 50.601562 135.898438 50.835938 C 134.597656 50.953125 133.292969 51.015625 131.988281 51.015625 C 131.976562 51.015625 131.960938 51.015625 131.949219 51.015625 C 131.289062 51.015625 130.628906 51 129.96875 50.96875 C 129.679688 50.957031 129.394531 50.953125 129.117188 50.914062 C 123.605469 57.976562 117.847656 64.84375 112.015625 71.648438 C 110.652344 73.246094 109.28125 74.835938 107.914062 76.429688 C 111.855469 77.535156 115.847656 78.375 119.941406 78.648438 C 121.125 78.726562 122.304688 78.765625 123.480469 78.765625 C 129.898438 78.765625 136.203125 77.613281 142.335938 75.601562 C 143.367188 75.261719 144.390625 74.894531 145.402344 74.496094 C 145.1875 75.253906 144.960938 76.007812 144.730469 76.761719 C 140.097656 78.632812 135.230469 79.859375 130.21875 80.433594 C 127.984375 80.6875 125.710938 80.824219 123.421875 80.824219 C 117.847656 80.824219 112.214844 80.015625 107.035156 78.152344 C 106.878906 78.097656 106.753906 78.007812 106.65625 77.894531 C 100.058594 85.5625 93.46875 93.226562 87.082031 101.066406 C 85.660156 102.8125 84.246094 104.5625 82.84375 106.328125 C 86.601562 108.195312 90.613281 109.445312 94.726562 110.257812 L 90.425781 111 C 87.449219 110.183594 84.546875 109.105469 81.765625 107.683594 C 80.308594 109.527344 78.867188 111.378906 77.441406 113.246094 L 72.695312 114.066406 " fill-opacity="1" fill-rule="nonzero"/><path fill="#91b575" d="M 144.730469 76.761719 C 144.960938 76.007812 145.1875 75.253906 145.402344 74.496094 C 147.929688 73.503906 150.382812 72.328125 152.730469 70.96875 C 155.996094 69.078125 159.175781 67.042969 162.082031 64.628906 C 162.101562 64.609375 162.121094 64.605469 162.140625 64.605469 C 162.222656 64.605469 162.292969 64.734375 162.226562 64.804688 C 159.222656 68.050781 155.886719 70.882812 152.078125 73.132812 C 149.710938 74.53125 147.253906 75.742188 144.730469 76.761719 M 150.3125 47.046875 C 150.355469 46.496094 150.398438 45.949219 150.441406 45.398438 C 150.710938 45.28125 150.984375 45.167969 151.253906 45.046875 C 155.859375 43.011719 160.09375 40.191406 163.742188 36.722656 C 163.78125 36.6875 163.820312 36.671875 163.859375 36.671875 C 164.019531 36.671875 164.164062 36.9375 164.03125 37.082031 C 162.054688 39.199219 159.882812 41.128906 157.535156 42.824219 C 155.253906 44.472656 152.839844 45.886719 150.3125 47.046875 M 150.71875 23.484375 C 150.703125 23.136719 150.6875 22.792969 150.667969 22.449219 C 150.90625 22.386719 151.140625 22.320312 151.375 22.25 C 152.710938 21.847656 154.015625 21.308594 155.261719 20.675781 C 157.898438 19.335938 160.054688 17.398438 162.148438 15.34375 C 162.15625 15.332031 162.171875 15.328125 162.1875 15.328125 C 162.226562 15.328125 162.261719 15.367188 162.238281 15.410156 C 160.710938 17.953125 158.296875 19.933594 155.742188 21.40625 C 154.417969 22.171875 153.015625 22.785156 151.554688 23.242188 C 151.277344 23.328125 151 23.410156 150.71875 23.484375 M 150.488281 19.339844 C 150.445312 18.652344 150.394531 17.976562 150.347656 17.304688 C 152.925781 12.765625 155.300781 8.121094 157.753906 3.511719 C 157.777344 3.464844 157.8125 3.449219 157.84375 3.449219 C 157.914062 3.449219 157.980469 3.53125 157.949219 3.621094 C 157.40625 5.121094 156.878906 6.640625 156.214844 8.089844 C 154.449219 11.921875 152.535156 15.667969 150.488281 19.339844 " fill-opacity="1" fill-rule="nonzero"/><g clip-path="url(#4af6717912)"><path fill="#95bc37" d="M 150.761719 100.566406 L 8.335938 125.195312 C 9.515625 131.792969 12.304688 138.125 16.613281 143.578125 C 17.46875 144.660156 18.160156 145.671875 18.621094 146.566406 C 31.644531 171.78125 59.1875 187.511719 88.789062 184.394531 C 129.417969 180.117188 158.101562 142.078125 151.011719 101.878906 C 150.933594 101.4375 150.847656 101.003906 150.761719 100.566406 " fill-opacity="1" fill-rule="nonzero"/></g><path fill="#efc15b" d="M 145.011719 101.558594 L 14.082031 124.203125 C 15.152344 130.3125 17.726562 136.179688 21.710938 141.222656 C 22.496094 142.21875 23.136719 143.148438 23.558594 143.972656 C 35.53125 167.152344 60.851562 181.617188 88.0625 178.75 C 125.414062 174.816406 151.785156 139.847656 145.265625 102.890625 C 145.183594 102.445312 145.097656 102.003906 145.011719 101.558594 " fill-opacity="1" fill-rule="nonzero"/><path fill="#f9d069" d="M 133.136719 103.613281 L 25.945312 122.152344 C 26.792969 127.253906 28.917969 132.15625 32.242188 136.363281 C 32.886719 137.175781 33.410156 137.9375 33.757812 138.613281 C 43.558594 157.589844 64.285156 169.429688 86.566406 167.082031 C 117.144531 163.863281 138.734375 135.234375 133.394531 104.980469 C 133.3125 104.523438 133.226562 104.066406 133.136719 103.613281 " fill-opacity="1" fill-rule="nonzero"/><path fill="#efefef" d="M 88.574219 184.417969 C 88.585938 184.417969 88.597656 184.417969 88.605469 184.414062 C 88.597656 184.414062 88.585938 184.417969 88.574219 184.417969 M 88.617188 184.414062 C 88.675781 184.410156 88.734375 184.402344 88.789062 184.394531 C 125.253906 180.558594 152.09375 149.523438 152.089844 114.144531 C 152.09375 149.523438 125.253906 180.558594 88.789062 184.394531 C 88.734375 184.402344 88.675781 184.410156 88.617188 184.414062 " fill-opacity="1" fill-rule="nonzero"/><path fill="#8cb034" d="M 85.449219 184.664062 C 87.183594 182.628906 88.847656 180.554688 90.449219 178.453125 C 126.527344 173.316406 151.644531 139.054688 145.265625 102.890625 C 145.183594 102.445312 145.097656 102.003906 145.011719 101.558594 L 133.136719 103.613281 L 132.8125 103.671875 L 150.761719 100.566406 C 150.847656 101.003906 150.933594 101.4375 151.011719 101.878906 C 151.738281 106 152.085938 110.101562 152.089844 114.144531 C 152.09375 149.523438 125.253906 180.558594 88.789062 184.394531 C 88.734375 184.402344 88.675781 184.410156 88.617188 184.414062 C 88.613281 184.414062 88.609375 184.414062 88.605469 184.414062 C 88.597656 184.417969 88.585938 184.417969 88.574219 184.417969 C 87.53125 184.527344 86.488281 184.605469 85.449219 184.664062 " fill-opacity="1" fill-rule="nonzero"/><path fill="#e0b555" d="M 90.449219 178.453125 C 94.0625 173.707031 97.34375 168.804688 100.328125 163.742188 C 123.300781 154.765625 137.886719 130.449219 133.394531 104.980469 C 133.3125 104.523438 133.226562 104.066406 133.136719 103.613281 L 145.011719 101.558594 C 145.097656 102.003906 145.183594 102.445312 145.265625 102.890625 C 151.644531 139.054688 126.527344 173.316406 90.449219 178.453125 " fill-opacity="1" fill-rule="nonzero"/><path fill="#e9c362" d="M 100.328125 163.742188 C 106.253906 153.707031 111.015625 143.066406 114.917969 131.882812 C 117.953125 122.941406 121.28125 114.195312 123.234375 105.328125 L 132.8125 103.671875 L 133.136719 103.613281 C 133.226562 104.066406 133.3125 104.523438 133.394531 104.980469 C 137.886719 130.449219 123.300781 154.765625 100.328125 163.742188 " fill-opacity="1" fill-rule="nonzero"/><g fill="#ec00ff" fill-opacity="0.302"><g transform="translate(26.867023, 105.227743)"><g><path d="M 10.9375 -7.09375 C 10.9375 -6.144531 11.035156 -5.359375 11.234375 -4.734375 C 11.429688 -4.109375 11.679688 -3.609375 11.984375 -3.234375 C 12.296875 -2.867188 12.628906 -2.613281 12.984375 -2.46875 C 13.347656 -2.320312 13.679688 -2.25 13.984375 -2.25 C 14.222656 -2.25 14.4375 -2.273438 14.625 -2.328125 C 14.820312 -2.390625 14.992188 -2.457031 15.140625 -2.53125 C 15.296875 -2.613281 15.425781 -2.6875 15.53125 -2.75 C 15.632812 -2.8125 15.710938 -2.84375 15.765625 -2.84375 C 15.847656 -2.84375 15.90625 -2.828125 15.9375 -2.796875 C 15.96875 -2.773438 16.007812 -2.726562 16.0625 -2.65625 L 16.546875 -1.890625 C 16.597656 -1.816406 16.625 -1.753906 16.625 -1.703125 C 16.625 -1.628906 16.601562 -1.570312 16.5625 -1.53125 C 16.53125 -1.5 16.492188 -1.46875 16.453125 -1.4375 C 16.140625 -1.226562 15.757812 -1.003906 15.3125 -0.765625 C 14.863281 -0.523438 14.34375 -0.304688 13.75 -0.109375 C 13.15625 0.0859375 12.492188 0.25 11.765625 0.375 C 11.035156 0.507812 10.242188 0.578125 9.390625 0.578125 C 8.691406 0.578125 7.988281 0.519531 7.28125 0.40625 C 6.582031 0.289062 5.910156 0.109375 5.265625 -0.140625 C 4.628906 -0.390625 4.035156 -0.710938 3.484375 -1.109375 C 2.929688 -1.503906 2.453125 -1.984375 2.046875 -2.546875 C 1.640625 -3.117188 1.320312 -3.78125 1.09375 -4.53125 C 0.863281 -5.28125 0.75 -6.132812 0.75 -7.09375 C 0.75 -8.039062 0.863281 -8.890625 1.09375 -9.640625 C 1.320312 -10.398438 1.640625 -11.0625 2.046875 -11.625 C 2.453125 -12.1875 2.929688 -12.664062 3.484375 -13.0625 C 4.035156 -13.46875 4.628906 -13.796875 5.265625 -14.046875 C 5.910156 -14.296875 6.582031 -14.476562 7.28125 -14.59375 C 7.988281 -14.707031 8.691406 -14.765625 9.390625 -14.765625 C 10.160156 -14.765625 10.898438 -14.703125 11.609375 -14.578125 C 12.316406 -14.460938 12.972656 -14.304688 13.578125 -14.109375 C 14.179688 -13.921875 14.722656 -13.710938 15.203125 -13.484375 C 15.679688 -13.253906 16.070312 -13.03125 16.375 -12.8125 C 16.40625 -12.78125 16.4375 -12.742188 16.46875 -12.703125 C 16.507812 -12.671875 16.53125 -12.625 16.53125 -12.5625 C 16.53125 -12.488281 16.507812 -12.421875 16.46875 -12.359375 L 15.984375 -11.609375 C 15.929688 -11.535156 15.890625 -11.484375 15.859375 -11.453125 C 15.828125 -11.421875 15.769531 -11.40625 15.6875 -11.40625 C 15.625 -11.40625 15.546875 -11.429688 15.453125 -11.484375 C 15.359375 -11.546875 15.238281 -11.609375 15.09375 -11.671875 C 14.957031 -11.742188 14.796875 -11.8125 14.609375 -11.875 C 14.429688 -11.9375 14.222656 -11.96875 13.984375 -11.96875 C 13.679688 -11.96875 13.347656 -11.890625 12.984375 -11.734375 C 12.628906 -11.578125 12.296875 -11.3125 11.984375 -10.9375 C 11.679688 -10.570312 11.429688 -10.070312 11.234375 -9.4375 C 11.035156 -8.8125 10.9375 -8.03125 10.9375 -7.09375 Z M 10.9375 -7.09375 "/></g></g></g><g fill="#ec00ff" fill-opacity="0.302"><g transform="translate(43.767049, 105.227743)"><g><path d="M 9.390625 0.484375 C 8.691406 0.484375 7.988281 0.425781 7.28125 0.3125 C 6.582031 0.207031 5.910156 0.0351562 5.265625 -0.203125 C 4.628906 -0.453125 4.035156 -0.769531 3.484375 -1.15625 C 2.929688 -1.550781 2.453125 -2.035156 2.046875 -2.609375 C 1.640625 -3.179688 1.320312 -3.84375 1.09375 -4.59375 C 0.863281 -5.34375 0.75 -6.203125 0.75 -7.171875 C 0.75 -8.128906 0.863281 -8.984375 1.09375 -9.734375 C 1.320312 -10.484375 1.640625 -11.144531 2.046875 -11.71875 C 2.453125 -12.289062 2.929688 -12.773438 3.484375 -13.171875 C 4.035156 -13.566406 4.628906 -13.882812 5.265625 -14.125 C 5.910156 -14.375 6.582031 -14.554688 7.28125 -14.671875 C 7.988281 -14.785156 8.691406 -14.84375 9.390625 -14.84375 C 10.035156 -14.84375 10.695312 -14.800781 11.375 -14.71875 C 12.050781 -14.644531 12.707031 -14.5 13.34375 -14.28125 C 13.988281 -14.070312 14.59375 -13.785156 15.15625 -13.421875 C 15.71875 -13.066406 16.210938 -12.609375 16.640625 -12.046875 C 17.066406 -11.492188 17.40625 -10.828125 17.65625 -10.046875 C 17.90625 -9.265625 18.03125 -8.34375 18.03125 -7.28125 C 18.03125 -6.195312 17.90625 -5.25 17.65625 -4.4375 C 17.414062 -3.632812 17.082031 -2.945312 16.65625 -2.375 C 16.226562 -1.800781 15.734375 -1.328125 15.171875 -0.953125 C 14.617188 -0.578125 14.019531 -0.285156 13.375 -0.078125 C 12.738281 0.128906 12.078125 0.273438 11.390625 0.359375 C 10.710938 0.441406 10.046875 0.484375 9.390625 0.484375 Z M 13.6875 -2.875 C 13.976562 -2.875 14.265625 -2.9375 14.546875 -3.0625 C 14.835938 -3.1875 15.09375 -3.410156 15.3125 -3.734375 C 15.53125 -4.066406 15.707031 -4.519531 15.84375 -5.09375 C 15.976562 -5.664062 16.046875 -6.394531 16.046875 -7.28125 C 16.046875 -8.125 15.976562 -8.816406 15.84375 -9.359375 C 15.707031 -9.898438 15.523438 -10.328125 15.296875 -10.640625 C 15.078125 -10.953125 14.828125 -11.171875 14.546875 -11.296875 C 14.265625 -11.421875 13.976562 -11.484375 13.6875 -11.484375 C 13.46875 -11.484375 13.21875 -11.4375 12.9375 -11.34375 C 12.664062 -11.25 12.410156 -11.046875 12.171875 -10.734375 C 11.929688 -10.429688 11.734375 -10 11.578125 -9.4375 C 11.421875 -8.875 11.34375 -8.117188 11.34375 -7.171875 C 11.34375 -6.234375 11.40625 -5.476562 11.53125 -4.90625 C 11.664062 -4.332031 11.835938 -3.894531 12.046875 -3.59375 C 12.265625 -3.300781 12.515625 -3.109375 12.796875 -3.015625 C 13.085938 -2.921875 13.382812 -2.875 13.6875 -2.875 Z M 13.6875 -2.875 "/></g></g></g><g fill="#ec00ff" fill-opacity="0.302"><g transform="translate(62.530849, 105.227743)"><g><path d="M 1.296875 -12.40625 C 1.296875 -12.71875 1.320312 -13 1.375 -13.25 C 1.425781 -13.5 1.53125 -13.703125 1.6875 -13.859375 C 1.851562 -14.015625 2.078125 -14.132812 2.359375 -14.21875 C 2.640625 -14.3125 3.003906 -14.359375 3.453125 -14.359375 L 9.1875 -14.359375 C 9.601562 -14.359375 9.960938 -14.3125 10.265625 -14.21875 C 10.566406 -14.132812 10.785156 -13.992188 10.921875 -13.796875 C 11.035156 -13.878906 11.179688 -13.96875 11.359375 -14.0625 C 11.535156 -14.164062 11.722656 -14.257812 11.921875 -14.34375 C 12.128906 -14.425781 12.347656 -14.492188 12.578125 -14.546875 C 12.816406 -14.597656 13.0625 -14.625 13.3125 -14.625 C 14.207031 -14.625 14.90625 -14.316406 15.40625 -13.703125 C 15.90625 -13.085938 16.15625 -12.179688 16.15625 -10.984375 L 16.15625 -0.65625 C 16.15625 -0.5 16.132812 -0.375 16.09375 -0.28125 C 16.050781 -0.195312 16 -0.132812 15.9375 -0.09375 C 15.875 -0.0507812 15.800781 -0.0234375 15.71875 -0.015625 C 15.632812 -0.00390625 15.550781 0 15.46875 0 L 14.578125 0 C 14.335938 0 14.179688 -0.0664062 14.109375 -0.203125 C 14.035156 -0.347656 14 -0.5 14 -0.65625 L 14 -11.125 C 14 -11.65625 13.898438 -12.0625 13.703125 -12.34375 C 13.515625 -12.625 13.210938 -12.765625 12.796875 -12.765625 C 12.578125 -12.765625 12.359375 -12.707031 12.140625 -12.59375 C 11.921875 -12.476562 11.75 -12.351562 11.625 -12.21875 L 11.625 -1.96875 C 11.625 -1.632812 11.59375 -1.347656 11.53125 -1.109375 C 11.476562 -0.867188 11.367188 -0.664062 11.203125 -0.5 C 11.046875 -0.332031 10.828125 -0.207031 10.546875 -0.125 C 10.273438 -0.0390625 9.910156 0 9.453125 0 L 3.453125 0 C 3.003906 0 2.640625 -0.0390625 2.359375 -0.125 C 2.078125 -0.207031 1.851562 -0.328125 1.6875 -0.484375 C 1.53125 -0.648438 1.425781 -0.851562 1.375 -1.09375 C 1.320312 -1.332031 1.296875 -1.617188 1.296875 -1.953125 Z M 1.296875 -12.40625 "/></g></g></g><g fill="#ec00ff" fill-opacity="0.302"><g transform="translate(79.977399, 105.227743)"><g><path d="M 0.296875 -9.75 C 0.0976562 -9.75 0 -9.851562 0 -10.0625 L 0 -11.1875 C 0 -11.382812 0.0976562 -11.484375 0.296875 -11.484375 L 1.75 -11.484375 L 1.75 -14.65625 C 1.75 -14.800781 1.769531 -14.941406 1.8125 -15.078125 C 1.851562 -15.222656 1.96875 -15.332031 2.15625 -15.40625 L 9.890625 -18.265625 C 10.242188 -18.390625 10.535156 -18.484375 10.765625 -18.546875 C 11.003906 -18.617188 11.210938 -18.65625 11.390625 -18.65625 C 11.460938 -18.65625 11.535156 -18.640625 11.609375 -18.609375 C 11.691406 -18.585938 11.765625 -18.550781 11.828125 -18.5 C 11.898438 -18.445312 11.957031 -18.367188 12 -18.265625 C 12.050781 -18.171875 12.078125 -18.050781 12.078125 -17.90625 L 12.078125 -11.484375 L 14.609375 -11.484375 C 14.796875 -11.484375 14.890625 -11.382812 14.890625 -11.1875 L 14.890625 -10.0625 C 14.890625 -9.851562 14.796875 -9.75 14.609375 -9.75 L 12.078125 -9.75 L 12.078125 -4.109375 C 12.078125 -3.441406 12.1875 -2.972656 12.40625 -2.703125 C 12.625 -2.429688 12.960938 -2.296875 13.421875 -2.296875 C 13.523438 -2.296875 13.632812 -2.304688 13.75 -2.328125 C 13.863281 -2.359375 13.96875 -2.382812 14.0625 -2.40625 C 14.164062 -2.425781 14.257812 -2.445312 14.34375 -2.46875 C 14.425781 -2.5 14.492188 -2.515625 14.546875 -2.515625 C 14.648438 -2.515625 14.703125 -2.453125 14.703125 -2.328125 L 14.703125 -1.25 C 14.703125 -1.0625 14.664062 -0.929688 14.59375 -0.859375 C 14.519531 -0.796875 14.453125 -0.757812 14.390625 -0.75 C 14.035156 -0.59375 13.617188 -0.4375 13.140625 -0.28125 C 12.660156 -0.132812 12.140625 -0.00390625 11.578125 0.109375 C 11.023438 0.222656 10.441406 0.3125 9.828125 0.375 C 9.210938 0.445312 8.59375 0.484375 7.96875 0.484375 C 7.082031 0.484375 6.257812 0.4375 5.5 0.34375 C 4.738281 0.257812 4.078125 0.0625 3.515625 -0.25 C 2.960938 -0.570312 2.53125 -1.046875 2.21875 -1.671875 C 1.90625 -2.296875 1.75 -3.144531 1.75 -4.21875 L 1.75 -9.75 Z M 0.296875 -9.75 "/></g></g></g><g fill="#ec00ff" fill-opacity="0.302"><g transform="translate(95.728335, 105.227743)"><g><path d="M 7.140625 0 C 6.640625 0 6.132812 -0.03125 5.625 -0.09375 C 5.113281 -0.164062 4.625 -0.269531 4.15625 -0.40625 C 3.695312 -0.550781 3.265625 -0.738281 2.859375 -0.96875 C 2.460938 -1.207031 2.117188 -1.5 1.828125 -1.84375 C 1.535156 -2.195312 1.304688 -2.601562 1.140625 -3.0625 C 0.972656 -3.53125 0.890625 -4.070312 0.890625 -4.6875 C 0.890625 -5.5 1.039062 -6.191406 1.34375 -6.765625 C 1.65625 -7.347656 2.066406 -7.828125 2.578125 -8.203125 C 3.097656 -8.585938 3.691406 -8.882812 4.359375 -9.09375 C 5.035156 -9.300781 5.738281 -9.429688 6.46875 -9.484375 L 6.46875 -10.453125 C 6.46875 -10.816406 6.421875 -11.101562 6.328125 -11.3125 C 6.234375 -11.53125 6.113281 -11.691406 5.96875 -11.796875 C 5.820312 -11.910156 5.660156 -11.984375 5.484375 -12.015625 C 5.316406 -12.046875 5.148438 -12.0625 4.984375 -12.0625 C 4.796875 -12.0625 4.597656 -12.035156 4.390625 -11.984375 C 4.179688 -11.929688 3.976562 -11.863281 3.78125 -11.78125 C 3.582031 -11.695312 3.394531 -11.609375 3.21875 -11.515625 C 3.039062 -11.421875 2.894531 -11.335938 2.78125 -11.265625 C 2.71875 -11.234375 2.660156 -11.203125 2.609375 -11.171875 C 2.566406 -11.140625 2.523438 -11.125 2.484375 -11.125 C 2.398438 -11.125 2.320312 -11.1875 2.25 -11.3125 L 1.765625 -12.0625 C 1.722656 -12.132812 1.703125 -12.207031 1.703125 -12.28125 C 1.703125 -12.351562 1.726562 -12.414062 1.78125 -12.46875 C 1.84375 -12.53125 1.90625 -12.578125 1.96875 -12.609375 C 2.269531 -12.828125 2.660156 -13.046875 3.140625 -13.265625 C 3.617188 -13.492188 4.15625 -13.695312 4.75 -13.875 C 5.34375 -14.050781 5.984375 -14.195312 6.671875 -14.3125 C 7.359375 -14.425781 8.070312 -14.484375 8.8125 -14.484375 C 9.507812 -14.484375 10.191406 -14.457031 10.859375 -14.40625 C 11.535156 -14.363281 12.171875 -14.265625 12.765625 -14.109375 C 13.359375 -13.953125 13.898438 -13.726562 14.390625 -13.4375 C 14.878906 -13.15625 15.300781 -12.78125 15.65625 -12.3125 C 16.019531 -11.851562 16.300781 -11.28125 16.5 -10.59375 C 16.695312 -9.914062 16.796875 -9.097656 16.796875 -8.140625 L 16.796875 -1.890625 C 16.796875 -1.578125 16.765625 -1.300781 16.703125 -1.0625 C 16.648438 -0.832031 16.539062 -0.632812 16.375 -0.46875 C 16.21875 -0.3125 16 -0.191406 15.71875 -0.109375 C 15.4375 -0.0351562 15.070312 0 14.625 0 Z M 6.46875 -7.703125 C 5.789062 -7.703125 5.222656 -7.617188 4.765625 -7.453125 C 4.304688 -7.285156 3.9375 -7.0625 3.65625 -6.78125 C 3.375 -6.5 3.171875 -6.171875 3.046875 -5.796875 C 2.929688 -5.429688 2.875 -5.054688 2.875 -4.671875 C 2.875 -4.273438 2.929688 -3.898438 3.046875 -3.546875 C 3.171875 -3.203125 3.375 -2.898438 3.65625 -2.640625 C 3.9375 -2.378906 4.304688 -2.171875 4.765625 -2.015625 C 5.222656 -1.867188 5.789062 -1.796875 6.46875 -1.796875 Z M 6.46875 -7.703125 "/></g></g></g><g fill="#ec00ff" fill-opacity="0.302"><g transform="translate(113.805477, 105.227743)"><g><path d="M 10.9375 -7.09375 C 10.9375 -6.144531 11.035156 -5.359375 11.234375 -4.734375 C 11.429688 -4.109375 11.679688 -3.609375 11.984375 -3.234375 C 12.296875 -2.867188 12.628906 -2.613281 12.984375 -2.46875 C 13.347656 -2.320312 13.679688 -2.25 13.984375 -2.25 C 14.222656 -2.25 14.4375 -2.273438 14.625 -2.328125 C 14.820312 -2.390625 14.992188 -2.457031 15.140625 -2.53125 C 15.296875 -2.613281 15.425781 -2.6875 15.53125 -2.75 C 15.632812 -2.8125 15.710938 -2.84375 15.765625 -2.84375 C 15.847656 -2.84375 15.90625 -2.828125 15.9375 -2.796875 C 15.96875 -2.773438 16.007812 -2.726562 16.0625 -2.65625 L 16.546875 -1.890625 C 16.597656 -1.816406 16.625 -1.753906 16.625 -1.703125 C 16.625 -1.628906 16.601562 -1.570312 16.5625 -1.53125 C 16.53125 -1.5 16.492188 -1.46875 16.453125 -1.4375 C 16.140625 -1.226562 15.757812 -1.003906 15.3125 -0.765625 C 14.863281 -0.523438 14.34375 -0.304688 13.75 -0.109375 C 13.15625 0.0859375 12.492188 0.25 11.765625 0.375 C 11.035156 0.507812 10.242188 0.578125 9.390625 0.578125 C 8.691406 0.578125 7.988281 0.519531 7.28125 0.40625 C 6.582031 0.289062 5.910156 0.109375 5.265625 -0.140625 C 4.628906 -0.390625 4.035156 -0.710938 3.484375 -1.109375 C 2.929688 -1.503906 2.453125 -1.984375 2.046875 -2.546875 C 1.640625 -3.117188 1.320312 -3.78125 1.09375 -4.53125 C 0.863281 -5.28125 0.75 -6.132812 0.75 -7.09375 C 0.75 -8.039062 0.863281 -8.890625 1.09375 -9.640625 C 1.320312 -10.398438 1.640625 -11.0625 2.046875 -11.625 C 2.453125 -12.1875 2.929688 -12.664062 3.484375 -13.0625 C 4.035156 -13.46875 4.628906 -13.796875 5.265625 -14.046875 C 5.910156 -14.296875 6.582031 -14.476562 7.28125 -14.59375 C 7.988281 -14.707031 8.691406 -14.765625 9.390625 -14.765625 C 10.160156 -14.765625 10.898438 -14.703125 11.609375 -14.578125 C 12.316406 -14.460938 12.972656 -14.304688 13.578125 -14.109375 C 14.179688 -13.921875 14.722656 -13.710938 15.203125 -13.484375 C 15.679688 -13.253906 16.070312 -13.03125 16.375 -12.8125 C 16.40625 -12.78125 16.4375 -12.742188 16.46875 -12.703125 C 16.507812 -12.671875 16.53125 -12.625 16.53125 -12.5625 C 16.53125 -12.488281 16.507812 -12.421875 16.46875 -12.359375 L 15.984375 -11.609375 C 15.929688 -11.535156 15.890625 -11.484375 15.859375 -11.453125 C 15.828125 -11.421875 15.769531 -11.40625 15.6875 -11.40625 C 15.625 -11.40625 15.546875 -11.429688 15.453125 -11.484375 C 15.359375 -11.546875 15.238281 -11.609375 15.09375 -11.671875 C 14.957031 -11.742188 14.796875 -11.8125 14.609375 -11.875 C 14.429688 -11.9375 14.222656 -11.96875 13.984375 -11.96875 C 13.679688 -11.96875 13.347656 -11.890625 12.984375 -11.734375 C 12.628906 -11.578125 12.296875 -11.3125 11.984375 -10.9375 C 11.679688 -10.570312 11.429688 -10.070312 11.234375 -9.4375 C 11.035156 -8.8125 10.9375 -8.03125 10.9375 -7.09375 Z M 10.9375 -7.09375 "/></g></g></g><g fill="#ec00ff" fill-opacity="0.302"><g transform="translate(130.705503, 105.227743)"><g><path d="M 0.296875 -9.75 C 0.0976562 -9.75 0 -9.851562 0 -10.0625 L 0 -11.1875 C 0 -11.382812 0.0976562 -11.484375 0.296875 -11.484375 L 1.75 -11.484375 L 1.75 -14.65625 C 1.75 -14.800781 1.769531 -14.941406 1.8125 -15.078125 C 1.851562 -15.222656 1.96875 -15.332031 2.15625 -15.40625 L 9.890625 -18.265625 C 10.242188 -18.390625 10.535156 -18.484375 10.765625 -18.546875 C 11.003906 -18.617188 11.210938 -18.65625 11.390625 -18.65625 C 11.460938 -18.65625 11.535156 -18.640625 11.609375 -18.609375 C 11.691406 -18.585938 11.765625 -18.550781 11.828125 -18.5 C 11.898438 -18.445312 11.957031 -18.367188 12 -18.265625 C 12.050781 -18.171875 12.078125 -18.050781 12.078125 -17.90625 L 12.078125 -11.484375 L 14.609375 -11.484375 C 14.796875 -11.484375 14.890625 -11.382812 14.890625 -11.1875 L 14.890625 -10.0625 C 14.890625 -9.851562 14.796875 -9.75 14.609375 -9.75 L 12.078125 -9.75 L 12.078125 -4.109375 C 12.078125 -3.441406 12.1875 -2.972656 12.40625 -2.703125 C 12.625 -2.429688 12.960938 -2.296875 13.421875 -2.296875 C 13.523438 -2.296875 13.632812 -2.304688 13.75 -2.328125 C 13.863281 -2.359375 13.96875 -2.382812 14.0625 -2.40625 C 14.164062 -2.425781 14.257812 -2.445312 14.34375 -2.46875 C 14.425781 -2.5 14.492188 -2.515625 14.546875 -2.515625 C 14.648438 -2.515625 14.703125 -2.453125 14.703125 -2.328125 L 14.703125 -1.25 C 14.703125 -1.0625 14.664062 -0.929688 14.59375 -0.859375 C 14.519531 -0.796875 14.453125 -0.757812 14.390625 -0.75 C 14.035156 -0.59375 13.617188 -0.4375 13.140625 -0.28125 C 12.660156 -0.132812 12.140625 -0.00390625 11.578125 0.109375 C 11.023438 0.222656 10.441406 0.3125 9.828125 0.375 C 9.210938 0.445312 8.59375 0.484375 7.96875 0.484375 C 7.082031 0.484375 6.257812 0.4375 5.5 0.34375 C 4.738281 0.257812 4.078125 0.0625 3.515625 -0.25 C 2.960938 -0.570312 2.53125 -1.046875 2.21875 -1.671875 C 1.90625 -2.296875 1.75 -3.144531 1.75 -4.21875 L 1.75 -9.75 Z M 0.296875 -9.75 "/></g></g></g><g fill="#ec00ff" fill-opacity="0.302"><g transform="translate(146.456439, 105.227743)"><g><path d="M 9.390625 0.484375 C 8.691406 0.484375 7.988281 0.425781 7.28125 0.3125 C 6.582031 0.207031 5.910156 0.0351562 5.265625 -0.203125 C 4.628906 -0.453125 4.035156 -0.769531 3.484375 -1.15625 C 2.929688 -1.550781 2.453125 -2.035156 2.046875 -2.609375 C 1.640625 -3.179688 1.320312 -3.84375 1.09375 -4.59375 C 0.863281 -5.34375 0.75 -6.203125 0.75 -7.171875 C 0.75 -8.128906 0.863281 -8.984375 1.09375 -9.734375 C 1.320312 -10.484375 1.640625 -11.144531 2.046875 -11.71875 C 2.453125 -12.289062 2.929688 -12.773438 3.484375 -13.171875 C 4.035156 -13.566406 4.628906 -13.882812 5.265625 -14.125 C 5.910156 -14.375 6.582031 -14.554688 7.28125 -14.671875 C 7.988281 -14.785156 8.691406 -14.84375 9.390625 -14.84375 C 10.035156 -14.84375 10.695312 -14.800781 11.375 -14.71875 C 12.050781 -14.644531 12.707031 -14.5 13.34375 -14.28125 C 13.988281 -14.070312 14.59375 -13.785156 15.15625 -13.421875 C 15.71875 -13.066406 16.210938 -12.609375 16.640625 -12.046875 C 17.066406 -11.492188 17.40625 -10.828125 17.65625 -10.046875 C 17.90625 -9.265625 18.03125 -8.34375 18.03125 -7.28125 C 18.03125 -6.195312 17.90625 -5.25 17.65625 -4.4375 C 17.414062 -3.632812 17.082031 -2.945312 16.65625 -2.375 C 16.226562 -1.800781 15.734375 -1.328125 15.171875 -0.953125 C 14.617188 -0.578125 14.019531 -0.285156 13.375 -0.078125 C 12.738281 0.128906 12.078125 0.273438 11.390625 0.359375 C 10.710938 0.441406 10.046875 0.484375 9.390625 0.484375 Z M 13.6875 -2.875 C 13.976562 -2.875 14.265625 -2.9375 14.546875 -3.0625 C 14.835938 -3.1875 15.09375 -3.410156 15.3125 -3.734375 C 15.53125 -4.066406 15.707031 -4.519531 15.84375 -5.09375 C 15.976562 -5.664062 16.046875 -6.394531 16.046875 -7.28125 C 16.046875 -8.125 15.976562 -8.816406 15.84375 -9.359375 C 15.707031 -9.898438 15.523438 -10.328125 15.296875 -10.640625 C 15.078125 -10.953125 14.828125 -11.171875 14.546875 -11.296875 C 14.265625 -11.421875 13.976562 -11.484375 13.6875 -11.484375 C 13.46875 -11.484375 13.21875 -11.4375 12.9375 -11.34375 C 12.664062 -11.25 12.410156 -11.046875 12.171875 -10.734375 C 11.929688 -10.429688 11.734375 -10 11.578125 -9.4375 C 11.421875 -8.875 11.34375 -8.117188 11.34375 -7.171875 C 11.34375 -6.234375 11.40625 -5.476562 11.53125 -4.90625 C 11.664062 -4.332031 11.835938 -3.894531 12.046875 -3.59375 C 12.265625 -3.300781 12.515625 -3.109375 12.796875 -3.015625 C 13.085938 -2.921875 13.382812 -2.875 13.6875 -2.875 Z M 13.6875 -2.875 "/></g></g></g><g fill="#ec00ff" fill-opacity="0.502"><g transform="translate(25.720621, 104.363863)"><g><path d="M 10.9375 -7.09375 C 10.9375 -6.144531 11.035156 -5.359375 11.234375 -4.734375 C 11.429688 -4.109375 11.679688 -3.609375 11.984375 -3.234375 C 12.296875 -2.867188 12.628906 -2.613281 12.984375 -2.46875 C 13.347656 -2.320312 13.679688 -2.25 13.984375 -2.25 C 14.222656 -2.25 14.4375 -2.273438 14.625 -2.328125 C 14.820312 -2.390625 14.992188 -2.457031 15.140625 -2.53125 C 15.296875 -2.613281 15.425781 -2.6875 15.53125 -2.75 C 15.632812 -2.8125 15.710938 -2.84375 15.765625 -2.84375 C 15.847656 -2.84375 15.90625 -2.828125 15.9375 -2.796875 C 15.96875 -2.773438 16.007812 -2.726562 16.0625 -2.65625 L 16.546875 -1.890625 C 16.597656 -1.816406 16.625 -1.753906 16.625 -1.703125 C 16.625 -1.628906 16.601562 -1.570312 16.5625 -1.53125 C 16.53125 -1.5 16.492188 -1.46875 16.453125 -1.4375 C 16.140625 -1.226562 15.757812 -1.003906 15.3125 -0.765625 C 14.863281 -0.523438 14.34375 -0.304688 13.75 -0.109375 C 13.15625 0.0859375 12.492188 0.25 11.765625 0.375 C 11.035156 0.507812 10.242188 0.578125 9.390625 0.578125 C 8.691406 0.578125 7.988281 0.519531 7.28125 0.40625 C 6.582031 0.289062 5.910156 0.109375 5.265625 -0.140625 C 4.628906 -0.390625 4.035156 -0.710938 3.484375 -1.109375 C 2.929688 -1.503906 2.453125 -1.984375 2.046875 -2.546875 C 1.640625 -3.117188 1.320312 -3.78125 1.09375 -4.53125 C 0.863281 -5.28125 0.75 -6.132812 0.75 -7.09375 C 0.75 -8.039062 0.863281 -8.890625 1.09375 -9.640625 C 1.320312 -10.398438 1.640625 -11.0625 2.046875 -11.625 C 2.453125 -12.1875 2.929688 -12.664062 3.484375 -13.0625 C 4.035156 -13.46875 4.628906 -13.796875 5.265625 -14.046875 C 5.910156 -14.296875 6.582031 -14.476562 7.28125 -14.59375 C 7.988281 -14.707031 8.691406 -14.765625 9.390625 -14.765625 C 10.160156 -14.765625 10.898438 -14.703125 11.609375 -14.578125 C 12.316406 -14.460938 12.972656 -14.304688 13.578125 -14.109375 C 14.179688 -13.921875 14.722656 -13.710938 15.203125 -13.484375 C 15.679688 -13.253906 16.070312 -13.03125 16.375 -12.8125 C 16.40625 -12.78125 16.4375 -12.742188 16.46875 -12.703125 C 16.507812 -12.671875 16.53125 -12.625 16.53125 -12.5625 C 16.53125 -12.488281 16.507812 -12.421875 16.46875 -12.359375 L 15.984375 -11.609375 C 15.929688 -11.535156 15.890625 -11.484375 15.859375 -11.453125 C 15.828125 -11.421875 15.769531 -11.40625 15.6875 -11.40625 C 15.625 -11.40625 15.546875 -11.429688 15.453125 -11.484375 C 15.359375 -11.546875 15.238281 -11.609375 15.09375 -11.671875 C 14.957031 -11.742188 14.796875 -11.8125 14.609375 -11.875 C 14.429688 -11.9375 14.222656 -11.96875 13.984375 -11.96875 C 13.679688 -11.96875 13.347656 -11.890625 12.984375 -11.734375 C 12.628906 -11.578125 12.296875 -11.3125 11.984375 -10.9375 C 11.679688 -10.570312 11.429688 -10.070312 11.234375 -9.4375 C 11.035156 -8.8125 10.9375 -8.03125 10.9375 -7.09375 Z M 10.9375 -7.09375 "/></g></g></g><g fill="#ec00ff" fill-opacity="0.502"><g transform="translate(42.620647, 104.363863)"><g><path d="M 9.390625 0.484375 C 8.691406 0.484375 7.988281 0.425781 7.28125 0.3125 C 6.582031 0.207031 5.910156 0.0351562 5.265625 -0.203125 C 4.628906 -0.453125 4.035156 -0.769531 3.484375 -1.15625 C 2.929688 -1.550781 2.453125 -2.035156 2.046875 -2.609375 C 1.640625 -3.179688 1.320312 -3.84375 1.09375 -4.59375 C 0.863281 -5.34375 0.75 -6.203125 0.75 -7.171875 C 0.75 -8.128906 0.863281 -8.984375 1.09375 -9.734375 C 1.320312 -10.484375 1.640625 -11.144531 2.046875 -11.71875 C 2.453125 -12.289062 2.929688 -12.773438 3.484375 -13.171875 C 4.035156 -13.566406 4.628906 -13.882812 5.265625 -14.125 C 5.910156 -14.375 6.582031 -14.554688 7.28125 -14.671875 C 7.988281 -14.785156 8.691406 -14.84375 9.390625 -14.84375 C 10.035156 -14.84375 10.695312 -14.800781 11.375 -14.71875 C 12.050781 -14.644531 12.707031 -14.5 13.34375 -14.28125 C 13.988281 -14.070312 14.59375 -13.785156 15.15625 -13.421875 C 15.71875 -13.066406 16.210938 -12.609375 16.640625 -12.046875 C 17.066406 -11.492188 17.40625 -10.828125 17.65625 -10.046875 C 17.90625 -9.265625 18.03125 -8.34375 18.03125 -7.28125 C 18.03125 -6.195312 17.90625 -5.25 17.65625 -4.4375 C 17.414062 -3.632812 17.082031 -2.945312 16.65625 -2.375 C 16.226562 -1.800781 15.734375 -1.328125 15.171875 -0.953125 C 14.617188 -0.578125 14.019531 -0.285156 13.375 -0.078125 C 12.738281 0.128906 12.078125 0.273438 11.390625 0.359375 C 10.710938 0.441406 10.046875 0.484375 9.390625 0.484375 Z M 13.6875 -2.875 C 13.976562 -2.875 14.265625 -2.9375 14.546875 -3.0625 C 14.835938 -3.1875 15.09375 -3.410156 15.3125 -3.734375 C 15.53125 -4.066406 15.707031 -4.519531 15.84375 -5.09375 C 15.976562 -5.664062 16.046875 -6.394531 16.046875 -7.28125 C 16.046875 -8.125 15.976562 -8.816406 15.84375 -9.359375 C 15.707031 -9.898438 15.523438 -10.328125 15.296875 -10.640625 C 15.078125 -10.953125 14.828125 -11.171875 14.546875 -11.296875 C 14.265625 -11.421875 13.976562 -11.484375 13.6875 -11.484375 C 13.46875 -11.484375 13.21875 -11.4375 12.9375 -11.34375 C 12.664062 -11.25 12.410156 -11.046875 12.171875 -10.734375 C 11.929688 -10.429688 11.734375 -10 11.578125 -9.4375 C 11.421875 -8.875 11.34375 -8.117188 11.34375 -7.171875 C 11.34375 -6.234375 11.40625 -5.476562 11.53125 -4.90625 C 11.664062 -4.332031 11.835938 -3.894531 12.046875 -3.59375 C 12.265625 -3.300781 12.515625 -3.109375 12.796875 -3.015625 C 13.085938 -2.921875 13.382812 -2.875 13.6875 -2.875 Z M 13.6875 -2.875 "/></g></g></g><g fill="#ec00ff" fill-opacity="0.502"><g transform="translate(61.384447, 104.363863)"><g><path d="M 1.296875 -12.40625 C 1.296875 -12.71875 1.320312 -13 1.375 -13.25 C 1.425781 -13.5 1.53125 -13.703125 1.6875 -13.859375 C 1.851562 -14.015625 2.078125 -14.132812 2.359375 -14.21875 C 2.640625 -14.3125 3.003906 -14.359375 3.453125 -14.359375 L 9.1875 -14.359375 C 9.601562 -14.359375 9.960938 -14.3125 10.265625 -14.21875 C 10.566406 -14.132812 10.785156 -13.992188 10.921875 -13.796875 C 11.035156 -13.878906 11.179688 -13.96875 11.359375 -14.0625 C 11.535156 -14.164062 11.722656 -14.257812 11.921875 -14.34375 C 12.128906 -14.425781 12.347656 -14.492188 12.578125 -14.546875 C 12.816406 -14.597656 13.0625 -14.625 13.3125 -14.625 C 14.207031 -14.625 14.90625 -14.316406 15.40625 -13.703125 C 15.90625 -13.085938 16.15625 -12.179688 16.15625 -10.984375 L 16.15625 -0.65625 C 16.15625 -0.5 16.132812 -0.375 16.09375 -0.28125 C 16.050781 -0.195312 16 -0.132812 15.9375 -0.09375 C 15.875 -0.0507812 15.800781 -0.0234375 15.71875 -0.015625 C 15.632812 -0.00390625 15.550781 0 15.46875 0 L 14.578125 0 C 14.335938 0 14.179688 -0.0664062 14.109375 -0.203125 C 14.035156 -0.347656 14 -0.5 14 -0.65625 L 14 -11.125 C 14 -11.65625 13.898438 -12.0625 13.703125 -12.34375 C 13.515625 -12.625 13.210938 -12.765625 12.796875 -12.765625 C 12.578125 -12.765625 12.359375 -12.707031 12.140625 -12.59375 C 11.921875 -12.476562 11.75 -12.351562 11.625 -12.21875 L 11.625 -1.96875 C 11.625 -1.632812 11.59375 -1.347656 11.53125 -1.109375 C 11.476562 -0.867188 11.367188 -0.664062 11.203125 -0.5 C 11.046875 -0.332031 10.828125 -0.207031 10.546875 -0.125 C 10.273438 -0.0390625 9.910156 0 9.453125 0 L 3.453125 0 C 3.003906 0 2.640625 -0.0390625 2.359375 -0.125 C 2.078125 -0.207031 1.851562 -0.328125 1.6875 -0.484375 C 1.53125 -0.648438 1.425781 -0.851562 1.375 -1.09375 C 1.320312 -1.332031 1.296875 -1.617188 1.296875 -1.953125 Z M 1.296875 -12.40625 "/></g></g></g><g fill="#ec00ff" fill-opacity="0.502"><g transform="translate(78.830997, 104.363863)"><g><path d="M 0.296875 -9.75 C 0.0976562 -9.75 0 -9.851562 0 -10.0625 L 0 -11.1875 C 0 -11.382812 0.0976562 -11.484375 0.296875 -11.484375 L 1.75 -11.484375 L 1.75 -14.65625 C 1.75 -14.800781 1.769531 -14.941406 1.8125 -15.078125 C 1.851562 -15.222656 1.96875 -15.332031 2.15625 -15.40625 L 9.890625 -18.265625 C 10.242188 -18.390625 10.535156 -18.484375 10.765625 -18.546875 C 11.003906 -18.617188 11.210938 -18.65625 11.390625 -18.65625 C 11.460938 -18.65625 11.535156 -18.640625 11.609375 -18.609375 C 11.691406 -18.585938 11.765625 -18.550781 11.828125 -18.5 C 11.898438 -18.445312 11.957031 -18.367188 12 -18.265625 C 12.050781 -18.171875 12.078125 -18.050781 12.078125 -17.90625 L 12.078125 -11.484375 L 14.609375 -11.484375 C 14.796875 -11.484375 14.890625 -11.382812 14.890625 -11.1875 L 14.890625 -10.0625 C 14.890625 -9.851562 14.796875 -9.75 14.609375 -9.75 L 12.078125 -9.75 L 12.078125 -4.109375 C 12.078125 -3.441406 12.1875 -2.972656 12.40625 -2.703125 C 12.625 -2.429688 12.960938 -2.296875 13.421875 -2.296875 C 13.523438 -2.296875 13.632812 -2.304688 13.75 -2.328125 C 13.863281 -2.359375 13.96875 -2.382812 14.0625 -2.40625 C 14.164062 -2.425781 14.257812 -2.445312 14.34375 -2.46875 C 14.425781 -2.5 14.492188 -2.515625 14.546875 -2.515625 C 14.648438 -2.515625 14.703125 -2.453125 14.703125 -2.328125 L 14.703125 -1.25 C 14.703125 -1.0625 14.664062 -0.929688 14.59375 -0.859375 C 14.519531 -0.796875 14.453125 -0.757812 14.390625 -0.75 C 14.035156 -0.59375 13.617188 -0.4375 13.140625 -0.28125 C 12.660156 -0.132812 12.140625 -0.00390625 11.578125 0.109375 C 11.023438 0.222656 10.441406 0.3125 9.828125 0.375 C 9.210938 0.445312 8.59375 0.484375 7.96875 0.484375 C 7.082031 0.484375 6.257812 0.4375 5.5 0.34375 C 4.738281 0.257812 4.078125 0.0625 3.515625 -0.25 C 2.960938 -0.570312 2.53125 -1.046875 2.21875 -1.671875 C 1.90625 -2.296875 1.75 -3.144531 1.75 -4.21875 L 1.75 -9.75 Z M 0.296875 -9.75 "/></g></g></g><g fill="#ec00ff" fill-opacity="0.502"><g transform="translate(94.581933, 104.363863)"><g><path d="M 7.140625 0 C 6.640625 0 6.132812 -0.03125 5.625 -0.09375 C 5.113281 -0.164062 4.625 -0.269531 4.15625 -0.40625 C 3.695312 -0.550781 3.265625 -0.738281 2.859375 -0.96875 C 2.460938 -1.207031 2.117188 -1.5 1.828125 -1.84375 C 1.535156 -2.195312 1.304688 -2.601562 1.140625 -3.0625 C 0.972656 -3.53125 0.890625 -4.070312 0.890625 -4.6875 C 0.890625 -5.5 1.039062 -6.191406 1.34375 -6.765625 C 1.65625 -7.347656 2.066406 -7.828125 2.578125 -8.203125 C 3.097656 -8.585938 3.691406 -8.882812 4.359375 -9.09375 C 5.035156 -9.300781 5.738281 -9.429688 6.46875 -9.484375 L 6.46875 -10.453125 C 6.46875 -10.816406 6.421875 -11.101562 6.328125 -11.3125 C 6.234375 -11.53125 6.113281 -11.691406 5.96875 -11.796875 C 5.820312 -11.910156 5.660156 -11.984375 5.484375 -12.015625 C 5.316406 -12.046875 5.148438 -12.0625 4.984375 -12.0625 C 4.796875 -12.0625 4.597656 -12.035156 4.390625 -11.984375 C 4.179688 -11.929688 3.976562 -11.863281 3.78125 -11.78125 C 3.582031 -11.695312 3.394531 -11.609375 3.21875 -11.515625 C 3.039062 -11.421875 2.894531 -11.335938 2.78125 -11.265625 C 2.71875 -11.234375 2.660156 -11.203125 2.609375 -11.171875 C 2.566406 -11.140625 2.523438 -11.125 2.484375 -11.125 C 2.398438 -11.125 2.320312 -11.1875 2.25 -11.3125 L 1.765625 -12.0625 C 1.722656 -12.132812 1.703125 -12.207031 1.703125 -12.28125 C 1.703125 -12.351562 1.726562 -12.414062 1.78125 -12.46875 C 1.84375 -12.53125 1.90625 -12.578125 1.96875 -12.609375 C 2.269531 -12.828125 2.660156 -13.046875 3.140625 -13.265625 C 3.617188 -13.492188 4.15625 -13.695312 4.75 -13.875 C 5.34375 -14.050781 5.984375 -14.195312 6.671875 -14.3125 C 7.359375 -14.425781 8.070312 -14.484375 8.8125 -14.484375 C 9.507812 -14.484375 10.191406 -14.457031 10.859375 -14.40625 C 11.535156 -14.363281 12.171875 -14.265625 12.765625 -14.109375 C 13.359375 -13.953125 13.898438 -13.726562 14.390625 -13.4375 C 14.878906 -13.15625 15.300781 -12.78125 15.65625 -12.3125 C 16.019531 -11.851562 16.300781 -11.28125 16.5 -10.59375 C 16.695312 -9.914062 16.796875 -9.097656 16.796875 -8.140625 L 16.796875 -1.890625 C 16.796875 -1.578125 16.765625 -1.300781 16.703125 -1.0625 C 16.648438 -0.832031 16.539062 -0.632812 16.375 -0.46875 C 16.21875 -0.3125 16 -0.191406 15.71875 -0.109375 C 15.4375 -0.0351562 15.070312 0 14.625 0 Z M 6.46875 -7.703125 C 5.789062 -7.703125 5.222656 -7.617188 4.765625 -7.453125 C 4.304688 -7.285156 3.9375 -7.0625 3.65625 -6.78125 C 3.375 -6.5 3.171875 -6.171875 3.046875 -5.796875 C 2.929688 -5.429688 2.875 -5.054688 2.875 -4.671875 C 2.875 -4.273438 2.929688 -3.898438 3.046875 -3.546875 C 3.171875 -3.203125 3.375 -2.898438 3.65625 -2.640625 C 3.9375 -2.378906 4.304688 -2.171875 4.765625 -2.015625 C 5.222656 -1.867188 5.789062 -1.796875 6.46875 -1.796875 Z M 6.46875 -7.703125 "/></g></g></g><g fill="#ec00ff" fill-opacity="0.502"><g transform="translate(112.659075, 104.363863)"><g><path d="M 10.9375 -7.09375 C 10.9375 -6.144531 11.035156 -5.359375 11.234375 -4.734375 C 11.429688 -4.109375 11.679688 -3.609375 11.984375 -3.234375 C 12.296875 -2.867188 12.628906 -2.613281 12.984375 -2.46875 C 13.347656 -2.320312 13.679688 -2.25 13.984375 -2.25 C 14.222656 -2.25 14.4375 -2.273438 14.625 -2.328125 C 14.820312 -2.390625 14.992188 -2.457031 15.140625 -2.53125 C 15.296875 -2.613281 15.425781 -2.6875 15.53125 -2.75 C 15.632812 -2.8125 15.710938 -2.84375 15.765625 -2.84375 C 15.847656 -2.84375 15.90625 -2.828125 15.9375 -2.796875 C 15.96875 -2.773438 16.007812 -2.726562 16.0625 -2.65625 L 16.546875 -1.890625 C 16.597656 -1.816406 16.625 -1.753906 16.625 -1.703125 C 16.625 -1.628906 16.601562 -1.570312 16.5625 -1.53125 C 16.53125 -1.5 16.492188 -1.46875 16.453125 -1.4375 C 16.140625 -1.226562 15.757812 -1.003906 15.3125 -0.765625 C 14.863281 -0.523438 14.34375 -0.304688 13.75 -0.109375 C 13.15625 0.0859375 12.492188 0.25 11.765625 0.375 C 11.035156 0.507812 10.242188 0.578125 9.390625 0.578125 C 8.691406 0.578125 7.988281 0.519531 7.28125 0.40625 C 6.582031 0.289062 5.910156 0.109375 5.265625 -0.140625 C 4.628906 -0.390625 4.035156 -0.710938 3.484375 -1.109375 C 2.929688 -1.503906 2.453125 -1.984375 2.046875 -2.546875 C 1.640625 -3.117188 1.320312 -3.78125 1.09375 -4.53125 C 0.863281 -5.28125 0.75 -6.132812 0.75 -7.09375 C 0.75 -8.039062 0.863281 -8.890625 1.09375 -9.640625 C 1.320312 -10.398438 1.640625 -11.0625 2.046875 -11.625 C 2.453125 -12.1875 2.929688 -12.664062 3.484375 -13.0625 C 4.035156 -13.46875 4.628906 -13.796875 5.265625 -14.046875 C 5.910156 -14.296875 6.582031 -14.476562 7.28125 -14.59375 C 7.988281 -14.707031 8.691406 -14.765625 9.390625 -14.765625 C 10.160156 -14.765625 10.898438 -14.703125 11.609375 -14.578125 C 12.316406 -14.460938 12.972656 -14.304688 13.578125 -14.109375 C 14.179688 -13.921875 14.722656 -13.710938 15.203125 -13.484375 C 15.679688 -13.253906 16.070312 -13.03125 16.375 -12.8125 C 16.40625 -12.78125 16.4375 -12.742188 16.46875 -12.703125 C 16.507812 -12.671875 16.53125 -12.625 16.53125 -12.5625 C 16.53125 -12.488281 16.507812 -12.421875 16.46875 -12.359375 L 15.984375 -11.609375 C 15.929688 -11.535156 15.890625 -11.484375 15.859375 -11.453125 C 15.828125 -11.421875 15.769531 -11.40625 15.6875 -11.40625 C 15.625 -11.40625 15.546875 -11.429688 15.453125 -11.484375 C 15.359375 -11.546875 15.238281 -11.609375 15.09375 -11.671875 C 14.957031 -11.742188 14.796875 -11.8125 14.609375 -11.875 C 14.429688 -11.9375 14.222656 -11.96875 13.984375 -11.96875 C 13.679688 -11.96875 13.347656 -11.890625 12.984375 -11.734375 C 12.628906 -11.578125 12.296875 -11.3125 11.984375 -10.9375 C 11.679688 -10.570312 11.429688 -10.070312 11.234375 -9.4375 C 11.035156 -8.8125 10.9375 -8.03125 10.9375 -7.09375 Z M 10.9375 -7.09375 "/></g></g></g><g fill="#ec00ff" fill-opacity="0.502"><g transform="translate(129.559101, 104.363863)"><g><path d="M 0.296875 -9.75 C 0.0976562 -9.75 0 -9.851562 0 -10.0625 L 0 -11.1875 C 0 -11.382812 0.0976562 -11.484375 0.296875 -11.484375 L 1.75 -11.484375 L 1.75 -14.65625 C 1.75 -14.800781 1.769531 -14.941406 1.8125 -15.078125 C 1.851562 -15.222656 1.96875 -15.332031 2.15625 -15.40625 L 9.890625 -18.265625 C 10.242188 -18.390625 10.535156 -18.484375 10.765625 -18.546875 C 11.003906 -18.617188 11.210938 -18.65625 11.390625 -18.65625 C 11.460938 -18.65625 11.535156 -18.640625 11.609375 -18.609375 C 11.691406 -18.585938 11.765625 -18.550781 11.828125 -18.5 C 11.898438 -18.445312 11.957031 -18.367188 12 -18.265625 C 12.050781 -18.171875 12.078125 -18.050781 12.078125 -17.90625 L 12.078125 -11.484375 L 14.609375 -11.484375 C 14.796875 -11.484375 14.890625 -11.382812 14.890625 -11.1875 L 14.890625 -10.0625 C 14.890625 -9.851562 14.796875 -9.75 14.609375 -9.75 L 12.078125 -9.75 L 12.078125 -4.109375 C 12.078125 -3.441406 12.1875 -2.972656 12.40625 -2.703125 C 12.625 -2.429688 12.960938 -2.296875 13.421875 -2.296875 C 13.523438 -2.296875 13.632812 -2.304688 13.75 -2.328125 C 13.863281 -2.359375 13.96875 -2.382812 14.0625 -2.40625 C 14.164062 -2.425781 14.257812 -2.445312 14.34375 -2.46875 C 14.425781 -2.5 14.492188 -2.515625 14.546875 -2.515625 C 14.648438 -2.515625 14.703125 -2.453125 14.703125 -2.328125 L 14.703125 -1.25 C 14.703125 -1.0625 14.664062 -0.929688 14.59375 -0.859375 C 14.519531 -0.796875 14.453125 -0.757812 14.390625 -0.75 C 14.035156 -0.59375 13.617188 -0.4375 13.140625 -0.28125 C 12.660156 -0.132812 12.140625 -0.00390625 11.578125 0.109375 C 11.023438 0.222656 10.441406 0.3125 9.828125 0.375 C 9.210938 0.445312 8.59375 0.484375 7.96875 0.484375 C 7.082031 0.484375 6.257812 0.4375 5.5 0.34375 C 4.738281 0.257812 4.078125 0.0625 3.515625 -0.25 C 2.960938 -0.570312 2.53125 -1.046875 2.21875 -1.671875 C 1.90625 -2.296875 1.75 -3.144531 1.75 -4.21875 L 1.75 -9.75 Z M 0.296875 -9.75 "/></g></g></g><g fill="#ec00ff" fill-opacity="0.502"><g transform="translate(145.310037, 104.363863)"><g><path d="M 9.390625 0.484375 C 8.691406 0.484375 7.988281 0.425781 7.28125 0.3125 C 6.582031 0.207031 5.910156 0.0351562 5.265625 -0.203125 C 4.628906 -0.453125 4.035156 -0.769531 3.484375 -1.15625 C 2.929688 -1.550781 2.453125 -2.035156 2.046875 -2.609375 C 1.640625 -3.179688 1.320312 -3.84375 1.09375 -4.59375 C 0.863281 -5.34375 0.75 -6.203125 0.75 -7.171875 C 0.75 -8.128906 0.863281 -8.984375 1.09375 -9.734375 C 1.320312 -10.484375 1.640625 -11.144531 2.046875 -11.71875 C 2.453125 -12.289062 2.929688 -12.773438 3.484375 -13.171875 C 4.035156 -13.566406 4.628906 -13.882812 5.265625 -14.125 C 5.910156 -14.375 6.582031 -14.554688 7.28125 -14.671875 C 7.988281 -14.785156 8.691406 -14.84375 9.390625 -14.84375 C 10.035156 -14.84375 10.695312 -14.800781 11.375 -14.71875 C 12.050781 -14.644531 12.707031 -14.5 13.34375 -14.28125 C 13.988281 -14.070312 14.59375 -13.785156 15.15625 -13.421875 C 15.71875 -13.066406 16.210938 -12.609375 16.640625 -12.046875 C 17.066406 -11.492188 17.40625 -10.828125 17.65625 -10.046875 C 17.90625 -9.265625 18.03125 -8.34375 18.03125 -7.28125 C 18.03125 -6.195312 17.90625 -5.25 17.65625 -4.4375 C 17.414062 -3.632812 17.082031 -2.945312 16.65625 -2.375 C 16.226562 -1.800781 15.734375 -1.328125 15.171875 -0.953125 C 14.617188 -0.578125 14.019531 -0.285156 13.375 -0.078125 C 12.738281 0.128906 12.078125 0.273438 11.390625 0.359375 C 10.710938 0.441406 10.046875 0.484375 9.390625 0.484375 Z M 13.6875 -2.875 C 13.976562 -2.875 14.265625 -2.9375 14.546875 -3.0625 C 14.835938 -3.1875 15.09375 -3.410156 15.3125 -3.734375 C 15.53125 -4.066406 15.707031 -4.519531 15.84375 -5.09375 C 15.976562 -5.664062 16.046875 -6.394531 16.046875 -7.28125 C 16.046875 -8.125 15.976562 -8.816406 15.84375 -9.359375 C 15.707031 -9.898438 15.523438 -10.328125 15.296875 -10.640625 C 15.078125 -10.953125 14.828125 -11.171875 14.546875 -11.296875 C 14.265625 -11.421875 13.976562 -11.484375 13.6875 -11.484375 C 13.46875 -11.484375 13.21875 -11.4375 12.9375 -11.34375 C 12.664062 -11.25 12.410156 -11.046875 12.171875 -10.734375 C 11.929688 -10.429688 11.734375 -10 11.578125 -9.4375 C 11.421875 -8.875 11.34375 -8.117188 11.34375 -7.171875 C 11.34375 -6.234375 11.40625 -5.476562 11.53125 -4.90625 C 11.664062 -4.332031 11.835938 -3.894531 12.046875 -3.59375 C 12.265625 -3.300781 12.515625 -3.109375 12.796875 -3.015625 C 13.085938 -2.921875 13.382812 -2.875 13.6875 -2.875 Z M 13.6875 -2.875 "/></g></g></g><g fill="#fffd47" fill-opacity="1"><g transform="translate(24.574219, 103.499989)"><g><path d="M 10.9375 -7.09375 C 10.9375 -6.144531 11.035156 -5.359375 11.234375 -4.734375 C 11.429688 -4.109375 11.679688 -3.609375 11.984375 -3.234375 C 12.296875 -2.867188 12.628906 -2.613281 12.984375 -2.46875 C 13.347656 -2.320312 13.679688 -2.25 13.984375 -2.25 C 14.222656 -2.25 14.4375 -2.273438 14.625 -2.328125 C 14.820312 -2.390625 14.992188 -2.457031 15.140625 -2.53125 C 15.296875 -2.613281 15.425781 -2.6875 15.53125 -2.75 C 15.632812 -2.8125 15.710938 -2.84375 15.765625 -2.84375 C 15.847656 -2.84375 15.90625 -2.828125 15.9375 -2.796875 C 15.96875 -2.773438 16.007812 -2.726562 16.0625 -2.65625 L 16.546875 -1.890625 C 16.597656 -1.816406 16.625 -1.753906 16.625 -1.703125 C 16.625 -1.628906 16.601562 -1.570312 16.5625 -1.53125 C 16.53125 -1.5 16.492188 -1.46875 16.453125 -1.4375 C 16.140625 -1.226562 15.757812 -1.003906 15.3125 -0.765625 C 14.863281 -0.523438 14.34375 -0.304688 13.75 -0.109375 C 13.15625 0.0859375 12.492188 0.25 11.765625 0.375 C 11.035156 0.507812 10.242188 0.578125 9.390625 0.578125 C 8.691406 0.578125 7.988281 0.519531 7.28125 0.40625 C 6.582031 0.289062 5.910156 0.109375 5.265625 -0.140625 C 4.628906 -0.390625 4.035156 -0.710938 3.484375 -1.109375 C 2.929688 -1.503906 2.453125 -1.984375 2.046875 -2.546875 C 1.640625 -3.117188 1.320312 -3.78125 1.09375 -4.53125 C 0.863281 -5.28125 0.75 -6.132812 0.75 -7.09375 C 0.75 -8.039062 0.863281 -8.890625 1.09375 -9.640625 C 1.320312 -10.398438 1.640625 -11.0625 2.046875 -11.625 C 2.453125 -12.1875 2.929688 -12.664062 3.484375 -13.0625 C 4.035156 -13.46875 4.628906 -13.796875 5.265625 -14.046875 C 5.910156 -14.296875 6.582031 -14.476562 7.28125 -14.59375 C 7.988281 -14.707031 8.691406 -14.765625 9.390625 -14.765625 C 10.160156 -14.765625 10.898438 -14.703125 11.609375 -14.578125 C 12.316406 -14.460938 12.972656 -14.304688 13.578125 -14.109375 C 14.179688 -13.921875 14.722656 -13.710938 15.203125 -13.484375 C 15.679688 -13.253906 16.070312 -13.03125 16.375 -12.8125 C 16.40625 -12.78125 16.4375 -12.742188 16.46875 -12.703125 C 16.507812 -12.671875 16.53125 -12.625 16.53125 -12.5625 C 16.53125 -12.488281 16.507812 -12.421875 16.46875 -12.359375 L 15.984375 -11.609375 C 15.929688 -11.535156 15.890625 -11.484375 15.859375 -11.453125 C 15.828125 -11.421875 15.769531 -11.40625 15.6875 -11.40625 C 15.625 -11.40625 15.546875 -11.429688 15.453125 -11.484375 C 15.359375 -11.546875 15.238281 -11.609375 15.09375 -11.671875 C 14.957031 -11.742188 14.796875 -11.8125 14.609375 -11.875 C 14.429688 -11.9375 14.222656 -11.96875 13.984375 -11.96875 C 13.679688 -11.96875 13.347656 -11.890625 12.984375 -11.734375 C 12.628906 -11.578125 12.296875 -11.3125 11.984375 -10.9375 C 11.679688 -10.570312 11.429688 -10.070312 11.234375 -9.4375 C 11.035156 -8.8125 10.9375 -8.03125 10.9375 -7.09375 Z M 10.9375 -7.09375 "/></g></g></g><g fill="#fffd47" fill-opacity="1"><g transform="translate(41.474245, 103.499989)"><g><path d="M 9.390625 0.484375 C 8.691406 0.484375 7.988281 0.425781 7.28125 0.3125 C 6.582031 0.207031 5.910156 0.0351562 5.265625 -0.203125 C 4.628906 -0.453125 4.035156 -0.769531 3.484375 -1.15625 C 2.929688 -1.550781 2.453125 -2.035156 2.046875 -2.609375 C 1.640625 -3.179688 1.320312 -3.84375 1.09375 -4.59375 C 0.863281 -5.34375 0.75 -6.203125 0.75 -7.171875 C 0.75 -8.128906 0.863281 -8.984375 1.09375 -9.734375 C 1.320312 -10.484375 1.640625 -11.144531 2.046875 -11.71875 C 2.453125 -12.289062 2.929688 -12.773438 3.484375 -13.171875 C 4.035156 -13.566406 4.628906 -13.882812 5.265625 -14.125 C 5.910156 -14.375 6.582031 -14.554688 7.28125 -14.671875 C 7.988281 -14.785156 8.691406 -14.84375 9.390625 -14.84375 C 10.035156 -14.84375 10.695312 -14.800781 11.375 -14.71875 C 12.050781 -14.644531 12.707031 -14.5 13.34375 -14.28125 C 13.988281 -14.070312 14.59375 -13.785156 15.15625 -13.421875 C 15.71875 -13.066406 16.210938 -12.609375 16.640625 -12.046875 C 17.066406 -11.492188 17.40625 -10.828125 17.65625 -10.046875 C 17.90625 -9.265625 18.03125 -8.34375 18.03125 -7.28125 C 18.03125 -6.195312 17.90625 -5.25 17.65625 -4.4375 C 17.414062 -3.632812 17.082031 -2.945312 16.65625 -2.375 C 16.226562 -1.800781 15.734375 -1.328125 15.171875 -0.953125 C 14.617188 -0.578125 14.019531 -0.285156 13.375 -0.078125 C 12.738281 0.128906 12.078125 0.273438 11.390625 0.359375 C 10.710938 0.441406 10.046875 0.484375 9.390625 0.484375 Z M 13.6875 -2.875 C 13.976562 -2.875 14.265625 -2.9375 14.546875 -3.0625 C 14.835938 -3.1875 15.09375 -3.410156 15.3125 -3.734375 C 15.53125 -4.066406 15.707031 -4.519531 15.84375 -5.09375 C 15.976562 -5.664062 16.046875 -6.394531 16.046875 -7.28125 C 16.046875 -8.125 15.976562 -8.816406 15.84375 -9.359375 C 15.707031 -9.898438 15.523438 -10.328125 15.296875 -10.640625 C 15.078125 -10.953125 14.828125 -11.171875 14.546875 -11.296875 C 14.265625 -11.421875 13.976562 -11.484375 13.6875 -11.484375 C 13.46875 -11.484375 13.21875 -11.4375 12.9375 -11.34375 C 12.664062 -11.25 12.410156 -11.046875 12.171875 -10.734375 C 11.929688 -10.429688 11.734375 -10 11.578125 -9.4375 C 11.421875 -8.875 11.34375 -8.117188 11.34375 -7.171875 C 11.34375 -6.234375 11.40625 -5.476562 11.53125 -4.90625 C 11.664062 -4.332031 11.835938 -3.894531 12.046875 -3.59375 C 12.265625 -3.300781 12.515625 -3.109375 12.796875 -3.015625 C 13.085938 -2.921875 13.382812 -2.875 13.6875 -2.875 Z M 13.6875 -2.875 "/></g></g></g><g fill="#fffd47" fill-opacity="1"><g transform="translate(60.238044, 103.499989)"><g><path d="M 1.296875 -12.40625 C 1.296875 -12.71875 1.320312 -13 1.375 -13.25 C 1.425781 -13.5 1.53125 -13.703125 1.6875 -13.859375 C 1.851562 -14.015625 2.078125 -14.132812 2.359375 -14.21875 C 2.640625 -14.3125 3.003906 -14.359375 3.453125 -14.359375 L 9.1875 -14.359375 C 9.601562 -14.359375 9.960938 -14.3125 10.265625 -14.21875 C 10.566406 -14.132812 10.785156 -13.992188 10.921875 -13.796875 C 11.035156 -13.878906 11.179688 -13.96875 11.359375 -14.0625 C 11.535156 -14.164062 11.722656 -14.257812 11.921875 -14.34375 C 12.128906 -14.425781 12.347656 -14.492188 12.578125 -14.546875 C 12.816406 -14.597656 13.0625 -14.625 13.3125 -14.625 C 14.207031 -14.625 14.90625 -14.316406 15.40625 -13.703125 C 15.90625 -13.085938 16.15625 -12.179688 16.15625 -10.984375 L 16.15625 -0.65625 C 16.15625 -0.5 16.132812 -0.375 16.09375 -0.28125 C 16.050781 -0.195312 16 -0.132812 15.9375 -0.09375 C 15.875 -0.0507812 15.800781 -0.0234375 15.71875 -0.015625 C 15.632812 -0.00390625 15.550781 0 15.46875 0 L 14.578125 0 C 14.335938 0 14.179688 -0.0664062 14.109375 -0.203125 C 14.035156 -0.347656 14 -0.5 14 -0.65625 L 14 -11.125 C 14 -11.65625 13.898438 -12.0625 13.703125 -12.34375 C 13.515625 -12.625 13.210938 -12.765625 12.796875 -12.765625 C 12.578125 -12.765625 12.359375 -12.707031 12.140625 -12.59375 C 11.921875 -12.476562 11.75 -12.351562 11.625 -12.21875 L 11.625 -1.96875 C 11.625 -1.632812 11.59375 -1.347656 11.53125 -1.109375 C 11.476562 -0.867188 11.367188 -0.664062 11.203125 -0.5 C 11.046875 -0.332031 10.828125 -0.207031 10.546875 -0.125 C 10.273438 -0.0390625 9.910156 0 9.453125 0 L 3.453125 0 C 3.003906 0 2.640625 -0.0390625 2.359375 -0.125 C 2.078125 -0.207031 1.851562 -0.328125 1.6875 -0.484375 C 1.53125 -0.648438 1.425781 -0.851562 1.375 -1.09375 C 1.320312 -1.332031 1.296875 -1.617188 1.296875 -1.953125 Z M 1.296875 -12.40625 "/></g></g></g><g fill="#fffd47" fill-opacity="1"><g transform="translate(77.684595, 103.499989)"><g><path d="M 0.296875 -9.75 C 0.0976562 -9.75 0 -9.851562 0 -10.0625 L 0 -11.1875 C 0 -11.382812 0.0976562 -11.484375 0.296875 -11.484375 L 1.75 -11.484375 L 1.75 -14.65625 C 1.75 -14.800781 1.769531 -14.941406 1.8125 -15.078125 C 1.851562 -15.222656 1.96875 -15.332031 2.15625 -15.40625 L 9.890625 -18.265625 C 10.242188 -18.390625 10.535156 -18.484375 10.765625 -18.546875 C 11.003906 -18.617188 11.210938 -18.65625 11.390625 -18.65625 C 11.460938 -18.65625 11.535156 -18.640625 11.609375 -18.609375 C 11.691406 -18.585938 11.765625 -18.550781 11.828125 -18.5 C 11.898438 -18.445312 11.957031 -18.367188 12 -18.265625 C 12.050781 -18.171875 12.078125 -18.050781 12.078125 -17.90625 L 12.078125 -11.484375 L 14.609375 -11.484375 C 14.796875 -11.484375 14.890625 -11.382812 14.890625 -11.1875 L 14.890625 -10.0625 C 14.890625 -9.851562 14.796875 -9.75 14.609375 -9.75 L 12.078125 -9.75 L 12.078125 -4.109375 C 12.078125 -3.441406 12.1875 -2.972656 12.40625 -2.703125 C 12.625 -2.429688 12.960938 -2.296875 13.421875 -2.296875 C 13.523438 -2.296875 13.632812 -2.304688 13.75 -2.328125 C 13.863281 -2.359375 13.96875 -2.382812 14.0625 -2.40625 C 14.164062 -2.425781 14.257812 -2.445312 14.34375 -2.46875 C 14.425781 -2.5 14.492188 -2.515625 14.546875 -2.515625 C 14.648438 -2.515625 14.703125 -2.453125 14.703125 -2.328125 L 14.703125 -1.25 C 14.703125 -1.0625 14.664062 -0.929688 14.59375 -0.859375 C 14.519531 -0.796875 14.453125 -0.757812 14.390625 -0.75 C 14.035156 -0.59375 13.617188 -0.4375 13.140625 -0.28125 C 12.660156 -0.132812 12.140625 -0.00390625 11.578125 0.109375 C 11.023438 0.222656 10.441406 0.3125 9.828125 0.375 C 9.210938 0.445312 8.59375 0.484375 7.96875 0.484375 C 7.082031 0.484375 6.257812 0.4375 5.5 0.34375 C 4.738281 0.257812 4.078125 0.0625 3.515625 -0.25 C 2.960938 -0.570312 2.53125 -1.046875 2.21875 -1.671875 C 1.90625 -2.296875 1.75 -3.144531 1.75 -4.21875 L 1.75 -9.75 Z M 0.296875 -9.75 "/></g></g></g><g fill="#fffd47" fill-opacity="1"><g transform="translate(93.435531, 103.499989)"><g><path d="M 7.140625 0 C 6.640625 0 6.132812 -0.03125 5.625 -0.09375 C 5.113281 -0.164062 4.625 -0.269531 4.15625 -0.40625 C 3.695312 -0.550781 3.265625 -0.738281 2.859375 -0.96875 C 2.460938 -1.207031 2.117188 -1.5 1.828125 -1.84375 C 1.535156 -2.195312 1.304688 -2.601562 1.140625 -3.0625 C 0.972656 -3.53125 0.890625 -4.070312 0.890625 -4.6875 C 0.890625 -5.5 1.039062 -6.191406 1.34375 -6.765625 C 1.65625 -7.347656 2.066406 -7.828125 2.578125 -8.203125 C 3.097656 -8.585938 3.691406 -8.882812 4.359375 -9.09375 C 5.035156 -9.300781 5.738281 -9.429688 6.46875 -9.484375 L 6.46875 -10.453125 C 6.46875 -10.816406 6.421875 -11.101562 6.328125 -11.3125 C 6.234375 -11.53125 6.113281 -11.691406 5.96875 -11.796875 C 5.820312 -11.910156 5.660156 -11.984375 5.484375 -12.015625 C 5.316406 -12.046875 5.148438 -12.0625 4.984375 -12.0625 C 4.796875 -12.0625 4.597656 -12.035156 4.390625 -11.984375 C 4.179688 -11.929688 3.976562 -11.863281 3.78125 -11.78125 C 3.582031 -11.695312 3.394531 -11.609375 3.21875 -11.515625 C 3.039062 -11.421875 2.894531 -11.335938 2.78125 -11.265625 C 2.71875 -11.234375 2.660156 -11.203125 2.609375 -11.171875 C 2.566406 -11.140625 2.523438 -11.125 2.484375 -11.125 C 2.398438 -11.125 2.320312 -11.1875 2.25 -11.3125 L 1.765625 -12.0625 C 1.722656 -12.132812 1.703125 -12.207031 1.703125 -12.28125 C 1.703125 -12.351562 1.726562 -12.414062 1.78125 -12.46875 C 1.84375 -12.53125 1.90625 -12.578125 1.96875 -12.609375 C 2.269531 -12.828125 2.660156 -13.046875 3.140625 -13.265625 C 3.617188 -13.492188 4.15625 -13.695312 4.75 -13.875 C 5.34375 -14.050781 5.984375 -14.195312 6.671875 -14.3125 C 7.359375 -14.425781 8.070312 -14.484375 8.8125 -14.484375 C 9.507812 -14.484375 10.191406 -14.457031 10.859375 -14.40625 C 11.535156 -14.363281 12.171875 -14.265625 12.765625 -14.109375 C 13.359375 -13.953125 13.898438 -13.726562 14.390625 -13.4375 C 14.878906 -13.15625 15.300781 -12.78125 15.65625 -12.3125 C 16.019531 -11.851562 16.300781 -11.28125 16.5 -10.59375 C 16.695312 -9.914062 16.796875 -9.097656 16.796875 -8.140625 L 16.796875 -1.890625 C 16.796875 -1.578125 16.765625 -1.300781 16.703125 -1.0625 C 16.648438 -0.832031 16.539062 -0.632812 16.375 -0.46875 C 16.21875 -0.3125 16 -0.191406 15.71875 -0.109375 C 15.4375 -0.0351562 15.070312 0 14.625 0 Z M 6.46875 -7.703125 C 5.789062 -7.703125 5.222656 -7.617188 4.765625 -7.453125 C 4.304688 -7.285156 3.9375 -7.0625 3.65625 -6.78125 C 3.375 -6.5 3.171875 -6.171875 3.046875 -5.796875 C 2.929688 -5.429688 2.875 -5.054688 2.875 -4.671875 C 2.875 -4.273438 2.929688 -3.898438 3.046875 -3.546875 C 3.171875 -3.203125 3.375 -2.898438 3.65625 -2.640625 C 3.9375 -2.378906 4.304688 -2.171875 4.765625 -2.015625 C 5.222656 -1.867188 5.789062 -1.796875 6.46875 -1.796875 Z M 6.46875 -7.703125 "/></g></g></g><g fill="#fffd47" fill-opacity="1"><g transform="translate(111.512673, 103.499989)"><g><path d="M 10.9375 -7.09375 C 10.9375 -6.144531 11.035156 -5.359375 11.234375 -4.734375 C 11.429688 -4.109375 11.679688 -3.609375 11.984375 -3.234375 C 12.296875 -2.867188 12.628906 -2.613281 12.984375 -2.46875 C 13.347656 -2.320312 13.679688 -2.25 13.984375 -2.25 C 14.222656 -2.25 14.4375 -2.273438 14.625 -2.328125 C 14.820312 -2.390625 14.992188 -2.457031 15.140625 -2.53125 C 15.296875 -2.613281 15.425781 -2.6875 15.53125 -2.75 C 15.632812 -2.8125 15.710938 -2.84375 15.765625 -2.84375 C 15.847656 -2.84375 15.90625 -2.828125 15.9375 -2.796875 C 15.96875 -2.773438 16.007812 -2.726562 16.0625 -2.65625 L 16.546875 -1.890625 C 16.597656 -1.816406 16.625 -1.753906 16.625 -1.703125 C 16.625 -1.628906 16.601562 -1.570312 16.5625 -1.53125 C 16.53125 -1.5 16.492188 -1.46875 16.453125 -1.4375 C 16.140625 -1.226562 15.757812 -1.003906 15.3125 -0.765625 C 14.863281 -0.523438 14.34375 -0.304688 13.75 -0.109375 C 13.15625 0.0859375 12.492188 0.25 11.765625 0.375 C 11.035156 0.507812 10.242188 0.578125 9.390625 0.578125 C 8.691406 0.578125 7.988281 0.519531 7.28125 0.40625 C 6.582031 0.289062 5.910156 0.109375 5.265625 -0.140625 C 4.628906 -0.390625 4.035156 -0.710938 3.484375 -1.109375 C 2.929688 -1.503906 2.453125 -1.984375 2.046875 -2.546875 C 1.640625 -3.117188 1.320312 -3.78125 1.09375 -4.53125 C 0.863281 -5.28125 0.75 -6.132812 0.75 -7.09375 C 0.75 -8.039062 0.863281 -8.890625 1.09375 -9.640625 C 1.320312 -10.398438 1.640625 -11.0625 2.046875 -11.625 C 2.453125 -12.1875 2.929688 -12.664062 3.484375 -13.0625 C 4.035156 -13.46875 4.628906 -13.796875 5.265625 -14.046875 C 5.910156 -14.296875 6.582031 -14.476562 7.28125 -14.59375 C 7.988281 -14.707031 8.691406 -14.765625 9.390625 -14.765625 C 10.160156 -14.765625 10.898438 -14.703125 11.609375 -14.578125 C 12.316406 -14.460938 12.972656 -14.304688 13.578125 -14.109375 C 14.179688 -13.921875 14.722656 -13.710938 15.203125 -13.484375 C 15.679688 -13.253906 16.070312 -13.03125 16.375 -12.8125 C 16.40625 -12.78125 16.4375 -12.742188 16.46875 -12.703125 C 16.507812 -12.671875 16.53125 -12.625 16.53125 -12.5625 C 16.53125 -12.488281 16.507812 -12.421875 16.46875 -12.359375 L 15.984375 -11.609375 C 15.929688 -11.535156 15.890625 -11.484375 15.859375 -11.453125 C 15.828125 -11.421875 15.769531 -11.40625 15.6875 -11.40625 C 15.625 -11.40625 15.546875 -11.429688 15.453125 -11.484375 C 15.359375 -11.546875 15.238281 -11.609375 15.09375 -11.671875 C 14.957031 -11.742188 14.796875 -11.8125 14.609375 -11.875 C 14.429688 -11.9375 14.222656 -11.96875 13.984375 -11.96875 C 13.679688 -11.96875 13.347656 -11.890625 12.984375 -11.734375 C 12.628906 -11.578125 12.296875 -11.3125 11.984375 -10.9375 C 11.679688 -10.570312 11.429688 -10.070312 11.234375 -9.4375 C 11.035156 -8.8125 10.9375 -8.03125 10.9375 -7.09375 Z M 10.9375 -7.09375 "/></g></g></g><g fill="#fffd47" fill-opacity="1"><g transform="translate(128.412699, 103.499989)"><g><path d="M 0.296875 -9.75 C 0.0976562 -9.75 0 -9.851562 0 -10.0625 L 0 -11.1875 C 0 -11.382812 0.0976562 -11.484375 0.296875 -11.484375 L 1.75 -11.484375 L 1.75 -14.65625 C 1.75 -14.800781 1.769531 -14.941406 1.8125 -15.078125 C 1.851562 -15.222656 1.96875 -15.332031 2.15625 -15.40625 L 9.890625 -18.265625 C 10.242188 -18.390625 10.535156 -18.484375 10.765625 -18.546875 C 11.003906 -18.617188 11.210938 -18.65625 11.390625 -18.65625 C 11.460938 -18.65625 11.535156 -18.640625 11.609375 -18.609375 C 11.691406 -18.585938 11.765625 -18.550781 11.828125 -18.5 C 11.898438 -18.445312 11.957031 -18.367188 12 -18.265625 C 12.050781 -18.171875 12.078125 -18.050781 12.078125 -17.90625 L 12.078125 -11.484375 L 14.609375 -11.484375 C 14.796875 -11.484375 14.890625 -11.382812 14.890625 -11.1875 L 14.890625 -10.0625 C 14.890625 -9.851562 14.796875 -9.75 14.609375 -9.75 L 12.078125 -9.75 L 12.078125 -4.109375 C 12.078125 -3.441406 12.1875 -2.972656 12.40625 -2.703125 C 12.625 -2.429688 12.960938 -2.296875 13.421875 -2.296875 C 13.523438 -2.296875 13.632812 -2.304688 13.75 -2.328125 C 13.863281 -2.359375 13.96875 -2.382812 14.0625 -2.40625 C 14.164062 -2.425781 14.257812 -2.445312 14.34375 -2.46875 C 14.425781 -2.5 14.492188 -2.515625 14.546875 -2.515625 C 14.648438 -2.515625 14.703125 -2.453125 14.703125 -2.328125 L 14.703125 -1.25 C 14.703125 -1.0625 14.664062 -0.929688 14.59375 -0.859375 C 14.519531 -0.796875 14.453125 -0.757812 14.390625 -0.75 C 14.035156 -0.59375 13.617188 -0.4375 13.140625 -0.28125 C 12.660156 -0.132812 12.140625 -0.00390625 11.578125 0.109375 C 11.023438 0.222656 10.441406 0.3125 9.828125 0.375 C 9.210938 0.445312 8.59375 0.484375 7.96875 0.484375 C 7.082031 0.484375 6.257812 0.4375 5.5 0.34375 C 4.738281 0.257812 4.078125 0.0625 3.515625 -0.25 C 2.960938 -0.570312 2.53125 -1.046875 2.21875 -1.671875 C 1.90625 -2.296875 1.75 -3.144531 1.75 -4.21875 L 1.75 -9.75 Z M 0.296875 -9.75 "/></g></g></g><g fill="#fffd47" fill-opacity="1"><g transform="translate(144.163635, 103.499989)"><g><path d="M 9.390625 0.484375 C 8.691406 0.484375 7.988281 0.425781 7.28125 0.3125 C 6.582031 0.207031 5.910156 0.0351562 5.265625 -0.203125 C 4.628906 -0.453125 4.035156 -0.769531 3.484375 -1.15625 C 2.929688 -1.550781 2.453125 -2.035156 2.046875 -2.609375 C 1.640625 -3.179688 1.320312 -3.84375 1.09375 -4.59375 C 0.863281 -5.34375 0.75 -6.203125 0.75 -7.171875 C 0.75 -8.128906 0.863281 -8.984375 1.09375 -9.734375 C 1.320312 -10.484375 1.640625 -11.144531 2.046875 -11.71875 C 2.453125 -12.289062 2.929688 -12.773438 3.484375 -13.171875 C 4.035156 -13.566406 4.628906 -13.882812 5.265625 -14.125 C 5.910156 -14.375 6.582031 -14.554688 7.28125 -14.671875 C 7.988281 -14.785156 8.691406 -14.84375 9.390625 -14.84375 C 10.035156 -14.84375 10.695312 -14.800781 11.375 -14.71875 C 12.050781 -14.644531 12.707031 -14.5 13.34375 -14.28125 C 13.988281 -14.070312 14.59375 -13.785156 15.15625 -13.421875 C 15.71875 -13.066406 16.210938 -12.609375 16.640625 -12.046875 C 17.066406 -11.492188 17.40625 -10.828125 17.65625 -10.046875 C 17.90625 -9.265625 18.03125 -8.34375 18.03125 -7.28125 C 18.03125 -6.195312 17.90625 -5.25 17.65625 -4.4375 C 17.414062 -3.632812 17.082031 -2.945312 16.65625 -2.375 C 16.226562 -1.800781 15.734375 -1.328125 15.171875 -0.953125 C 14.617188 -0.578125 14.019531 -0.285156 13.375 -0.078125 C 12.738281 0.128906 12.078125 0.273438 11.390625 0.359375 C 10.710938 0.441406 10.046875 0.484375 9.390625 0.484375 Z M 13.6875 -2.875 C 13.976562 -2.875 14.265625 -2.9375 14.546875 -3.0625 C 14.835938 -3.1875 15.09375 -3.410156 15.3125 -3.734375 C 15.53125 -4.066406 15.707031 -4.519531 15.84375 -5.09375 C 15.976562 -5.664062 16.046875 -6.394531 16.046875 -7.28125 C 16.046875 -8.125 15.976562 -8.816406 15.84375 -9.359375 C 15.707031 -9.898438 15.523438 -10.328125 15.296875 -10.640625 C 15.078125 -10.953125 14.828125 -11.171875 14.546875 -11.296875 C 14.265625 -11.421875 13.976562 -11.484375 13.6875 -11.484375 C 13.46875 -11.484375 13.21875 -11.4375 12.9375 -11.34375 C 12.664062 -11.25 12.410156 -11.046875 12.171875 -10.734375 C 11.929688 -10.429688 11.734375 -10 11.578125 -9.4375 C 11.421875 -8.875 11.34375 -8.117188 11.34375 -7.171875 C 11.34375 -6.234375 11.40625 -5.476562 11.53125 -4.90625 C 11.664062 -4.332031 11.835938 -3.894531 12.046875 -3.59375 C 12.265625 -3.300781 12.515625 -3.109375 12.796875 -3.015625 C 13.085938 -2.921875 13.382812 -2.875 13.6875 -2.875 Z M 13.6875 -2.875 "/></g></g></g></svg>