<svg xmlns="http://www.w3.org/2000/svg" xmlns:xlink="http://www.w3.org/1999/xlink" width="500" zoomAndPan="magnify" viewBox="0 0 375 374.999991" height="500" preserveAspectRatio="xMidYMid meet" version="1.0"><defs><g/><clipPath id="66909eb881"><path d="M 36.054688 36.054688 L 338.945312 36.054688 L 338.945312 338.945312 L 36.054688 338.945312 Z M 36.054688 36.054688 " clip-rule="nonzero"/></clipPath><clipPath id="a93fbc2b48"><path d="M 187.5 36.054688 C 103.859375 36.054688 36.054688 103.859375 36.054688 187.5 C 36.054688 271.140625 103.859375 338.945312 187.5 338.945312 C 271.140625 338.945312 338.945312 271.140625 338.945312 187.5 C 338.945312 103.859375 271.140625 36.054688 187.5 36.054688 " clip-rule="nonzero"/></clipPath><clipPath id="370431f53a"><path d="M 59.820312 196.933594 L 71.070312 196.933594 L 71.070312 208.183594 L 59.820312 208.183594 Z M 59.820312 196.933594 " clip-rule="nonzero"/></clipPath><clipPath id="b5b73e78db"><path d="M 304.164062 196.933594 L 315.414062 196.933594 L 315.414062 208.183594 L 304.164062 208.183594 Z M 304.164062 196.933594 " clip-rule="nonzero"/></clipPath><clipPath id="f15738030c"><path d="M 112.5 133.3125 L 183 133.3125 L 183 242.0625 L 112.5 242.0625 Z M 112.5 133.3125 " clip-rule="nonzero"/></clipPath><clipPath id="10edb814bb"><path d="M 190 133.3125 L 262.5 133.3125 L 262.5 242.0625 L 190 242.0625 Z M 190 133.3125 " clip-rule="nonzero"/></clipPath></defs><g clip-path="url(#66909eb881)"><g clip-path="url(#a93fbc2b48)"><path fill="#4c7031" d="M 36.054688 36.054688 L 338.945312 36.054688 L 338.945312 338.945312 L 36.054688 338.945312 Z M 36.054688 36.054688 " fill-opacity="1" fill-rule="nonzero"/></g></g><g clip-path="url(#370431f53a)"><path fill="#ffffff" d="M 71.070312 202.558594 C 71.070312 202.925781 71.035156 203.292969 70.964844 203.65625 C 70.890625 204.015625 70.785156 204.371094 70.644531 204.710938 C 70.5 205.050781 70.328125 205.375 70.125 205.683594 C 69.917969 205.988281 69.683594 206.273438 69.421875 206.535156 C 69.164062 206.796875 68.878906 207.03125 68.570312 207.234375 C 68.265625 207.441406 67.941406 207.613281 67.597656 207.753906 C 67.257812 207.894531 66.90625 208.003906 66.542969 208.074219 C 66.179688 208.148438 65.816406 208.183594 65.445312 208.183594 C 65.078125 208.183594 64.710938 208.148438 64.347656 208.074219 C 63.988281 208.003906 63.636719 207.894531 63.292969 207.753906 C 62.953125 207.613281 62.628906 207.441406 62.320312 207.234375 C 62.015625 207.03125 61.730469 206.796875 61.46875 206.535156 C 61.207031 206.273438 60.972656 205.988281 60.769531 205.683594 C 60.5625 205.375 60.390625 205.050781 60.25 204.710938 C 60.109375 204.371094 60 204.015625 59.929688 203.65625 C 59.855469 203.292969 59.820312 202.925781 59.820312 202.558594 C 59.820312 202.1875 59.855469 201.824219 59.929688 201.460938 C 60 201.097656 60.109375 200.746094 60.25 200.40625 C 60.390625 200.0625 60.5625 199.738281 60.769531 199.433594 C 60.972656 199.125 61.207031 198.839844 61.46875 198.582031 C 61.730469 198.320312 62.015625 198.085938 62.320312 197.882812 C 62.628906 197.675781 62.953125 197.503906 63.292969 197.359375 C 63.636719 197.21875 63.988281 197.113281 64.347656 197.039062 C 64.710938 196.96875 65.078125 196.933594 65.445312 196.933594 C 65.816406 196.933594 66.179688 196.96875 66.542969 197.039062 C 66.90625 197.113281 67.257812 197.21875 67.597656 197.359375 C 67.941406 197.503906 68.265625 197.675781 68.570312 197.882812 C 68.878906 198.085938 69.164062 198.320312 69.421875 198.582031 C 69.683594 198.839844 69.917969 199.125 70.125 199.433594 C 70.328125 199.738281 70.5 200.0625 70.644531 200.40625 C 70.785156 200.746094 70.890625 201.097656 70.964844 201.460938 C 71.035156 201.824219 71.070312 202.1875 71.070312 202.558594 Z M 71.070312 202.558594 " fill-opacity="1" fill-rule="nonzero"/></g><g fill="#ffffff" fill-opacity="1"><g transform="translate(108.800159, 110.725972)"><g><path d="M 2.96875 -2.171875 C 2.6875 -1.941406 2.390625 -1.847656 2.078125 -1.890625 C 1.773438 -1.929688 1.515625 -2.09375 1.296875 -2.375 L -9.90625 -16.515625 C -10.125 -16.773438 -10.210938 -17.054688 -10.171875 -17.359375 C -10.128906 -17.671875 -9.960938 -17.941406 -9.671875 -18.171875 L -1.484375 -24.671875 C -1.210938 -24.878906 -0.945312 -24.972656 -0.6875 -24.953125 C -0.4375 -24.941406 -0.207031 -24.804688 0 -24.546875 C 0.1875 -24.304688 0.257812 -24.054688 0.21875 -23.796875 C 0.175781 -23.546875 0.0195312 -23.316406 -0.25 -23.109375 L -7.5625 -17.3125 L -3.234375 -11.84375 L 3.625 -17.28125 C 3.894531 -17.488281 4.160156 -17.582031 4.421875 -17.5625 C 4.679688 -17.550781 4.910156 -17.421875 5.109375 -17.171875 C 5.296875 -16.929688 5.367188 -16.679688 5.328125 -16.421875 C 5.285156 -16.171875 5.128906 -15.941406 4.859375 -15.734375 L -2 -10.296875 L 3.125 -3.828125 C 3.34375 -3.546875 3.441406 -3.253906 3.421875 -2.953125 C 3.410156 -2.660156 3.257812 -2.398438 2.96875 -2.171875 Z M 2.96875 -2.171875 "/></g></g></g><g fill="#ffffff" fill-opacity="1"><g transform="translate(125.270838, 98.034424)"><g><path d="M 15.28125 -9.53125 C 15.5 -9.40625 15.664062 -9.234375 15.78125 -9.015625 C 15.90625 -8.765625 15.910156 -8.503906 15.796875 -8.234375 C 15.679688 -7.972656 15.5 -7.78125 15.25 -7.65625 C 14.851562 -7.445312 14.457031 -7.460938 14.0625 -7.703125 L 7.84375 -11.34375 C 7.050781 -11.8125 6.347656 -12.054688 5.734375 -12.078125 C 5.117188 -12.097656 4.398438 -11.894531 3.578125 -11.46875 L 0.375 -9.828125 L 3.8125 -3.15625 C 3.976562 -2.832031 4.015625 -2.523438 3.921875 -2.234375 C 3.828125 -1.941406 3.628906 -1.71875 3.328125 -1.5625 C 3.003906 -1.394531 2.695312 -1.359375 2.40625 -1.453125 C 2.125 -1.546875 1.898438 -1.753906 1.734375 -2.078125 L -6.53125 -18.109375 C -6.6875 -18.421875 -6.710938 -18.722656 -6.609375 -19.015625 C -6.515625 -19.304688 -6.304688 -19.535156 -5.984375 -19.703125 L 0.34375 -22.953125 C 2.300781 -23.960938 4.019531 -24.296875 5.5 -23.953125 C 6.988281 -23.617188 8.164062 -22.609375 9.03125 -20.921875 C 9.757812 -19.492188 9.9375 -18.128906 9.5625 -16.828125 C 9.1875 -15.535156 8.28125 -14.40625 6.84375 -13.4375 C 7.332031 -13.53125 7.828125 -13.503906 8.328125 -13.359375 C 8.828125 -13.222656 9.382812 -12.976562 10 -12.625 Z M 4.625 -14.203125 C 6.03125 -14.929688 6.925781 -15.757812 7.3125 -16.6875 C 7.707031 -17.625 7.597656 -18.679688 6.984375 -19.859375 C 6.398438 -21.015625 5.617188 -21.695312 4.640625 -21.90625 C 3.671875 -22.125 2.476562 -21.863281 1.0625 -21.125 L -4.078125 -18.484375 L -0.515625 -11.5625 Z M 4.625 -14.203125 "/></g></g></g><g fill="#ffffff" fill-opacity="1"><g transform="translate(147.100734, 87.279144)"><g><path d="M 10.09375 -2.46875 C 7.550781 -1.789062 5.441406 -1.9375 3.765625 -2.90625 C 2.097656 -3.882812 0.921875 -5.671875 0.234375 -8.265625 L -2.6875 -19.140625 C -2.78125 -19.492188 -2.753906 -19.800781 -2.609375 -20.0625 C -2.472656 -20.320312 -2.226562 -20.503906 -1.875 -20.609375 C -1.539062 -20.691406 -1.238281 -20.65625 -0.96875 -20.5 C -0.707031 -20.351562 -0.53125 -20.101562 -0.4375 -19.75 L 2.53125 -8.671875 C 3.039062 -6.773438 3.882812 -5.46875 5.0625 -4.75 C 6.25 -4.039062 7.75 -3.925781 9.5625 -4.40625 C 11.375 -4.894531 12.613281 -5.742188 13.28125 -6.953125 C 13.957031 -8.171875 14.039062 -9.726562 13.53125 -11.625 L 10.5625 -22.703125 C 10.46875 -23.054688 10.5 -23.363281 10.65625 -23.625 C 10.8125 -23.894531 11.054688 -24.070312 11.390625 -24.15625 C 11.742188 -24.25 12.050781 -24.21875 12.3125 -24.0625 C 12.570312 -23.914062 12.75 -23.664062 12.84375 -23.3125 L 15.765625 -12.4375 C 16.453125 -9.863281 16.3125 -7.726562 15.34375 -6.03125 C 14.382812 -4.34375 12.632812 -3.15625 10.09375 -2.46875 Z M 10.09375 -2.46875 "/></g></g></g><g fill="#ffffff" fill-opacity="1"><g transform="translate(171.881111, 81.320625)"><g><path d="M 8.59375 -0.359375 C 8.226562 -0.335938 7.925781 -0.429688 7.6875 -0.640625 C 7.445312 -0.847656 7.316406 -1.132812 7.296875 -1.5 L 6.296875 -18.640625 L 0.140625 -18.265625 C -0.203125 -18.253906 -0.472656 -18.328125 -0.671875 -18.484375 C -0.878906 -18.640625 -0.992188 -18.878906 -1.015625 -19.203125 C -1.035156 -19.535156 -0.953125 -19.796875 -0.765625 -19.984375 C -0.585938 -20.171875 -0.328125 -20.269531 0.015625 -20.28125 L 14.71875 -21.15625 C 15.0625 -21.164062 15.332031 -21.09375 15.53125 -20.9375 C 15.738281 -20.78125 15.851562 -20.535156 15.875 -20.203125 C 15.894531 -19.878906 15.8125 -19.625 15.625 -19.4375 C 15.445312 -19.25 15.1875 -19.148438 14.84375 -19.140625 L 8.6875 -18.765625 L 9.6875 -1.625 C 9.707031 -1.257812 9.617188 -0.960938 9.421875 -0.734375 C 9.222656 -0.503906 8.945312 -0.378906 8.59375 -0.359375 Z M 8.59375 -0.359375 "/></g></g></g><g fill="#ffffff" fill-opacity="1"><g transform="translate(193.755596, 80.335818)"><g><path d="M 19.90625 1.5625 C 19.957031 1.71875 19.972656 1.882812 19.953125 2.0625 C 19.910156 2.332031 19.769531 2.546875 19.53125 2.703125 C 19.289062 2.867188 19.015625 2.929688 18.703125 2.890625 C 18.234375 2.816406 17.9375 2.535156 17.8125 2.046875 L 16.453125 -2.84375 L 5.75 -4.40625 L 3.03125 -0.109375 C 2.78125 0.316406 2.421875 0.492188 1.953125 0.421875 C 1.640625 0.378906 1.378906 0.242188 1.171875 0.015625 C 0.972656 -0.210938 0.894531 -0.46875 0.9375 -0.75 C 0.957031 -0.90625 1.019531 -1.050781 1.125 -1.1875 L 11.90625 -18.078125 C 12.0625 -18.316406 12.257812 -18.488281 12.5 -18.59375 C 12.75 -18.695312 13.007812 -18.726562 13.28125 -18.6875 C 13.570312 -18.644531 13.816406 -18.535156 14.015625 -18.359375 C 14.222656 -18.179688 14.363281 -17.960938 14.4375 -17.703125 Z M 6.890625 -6.21875 L 15.890625 -4.90625 L 12.875 -15.765625 Z M 6.890625 -6.21875 "/></g></g></g><g fill="#ffffff" fill-opacity="1"><g transform="translate(218.986021, 84.775508)"><g><path d="M 3.421875 1.21875 C 3.117188 1.113281 2.898438 0.925781 2.765625 0.65625 C 2.628906 0.394531 2.617188 0.113281 2.734375 -0.1875 L 8.8125 -17.21875 C 8.9375 -17.5625 9.128906 -17.800781 9.390625 -17.9375 C 9.660156 -18.082031 9.96875 -18.09375 10.3125 -17.96875 C 10.65625 -17.84375 10.890625 -17.640625 11.015625 -17.359375 C 11.148438 -17.078125 11.15625 -16.765625 11.03125 -16.421875 L 5.25 -0.25 L 13.96875 2.859375 C 14.289062 2.972656 14.515625 3.140625 14.640625 3.359375 C 14.765625 3.585938 14.773438 3.859375 14.671875 4.171875 C 14.554688 4.472656 14.378906 4.671875 14.140625 4.765625 C 13.898438 4.867188 13.617188 4.863281 13.296875 4.75 Z M 3.421875 1.21875 "/></g></g></g><g fill="#ffffff" fill-opacity="1"><g transform="translate(238.249922, 92.359857)"><g><path d="M 3.1875 1.84375 C 2.863281 1.664062 2.65625 1.429688 2.5625 1.140625 C 2.476562 0.859375 2.523438 0.554688 2.703125 0.234375 L 11.171875 -15.796875 C 11.335938 -16.117188 11.566406 -16.328125 11.859375 -16.421875 C 12.148438 -16.523438 12.457031 -16.488281 12.78125 -16.3125 C 13.101562 -16.144531 13.304688 -15.914062 13.390625 -15.625 C 13.472656 -15.332031 13.429688 -15.023438 13.265625 -14.703125 L 4.796875 1.328125 C 4.617188 1.648438 4.382812 1.859375 4.09375 1.953125 C 3.8125 2.046875 3.507812 2.007812 3.1875 1.84375 Z M 3.1875 1.84375 "/></g></g></g><g fill="#ffffff" fill-opacity="1"><g transform="translate(249.297775, 98.037991)"><g><path d="M 16.671875 11.015625 C 16.648438 11.171875 16.582031 11.316406 16.46875 11.453125 C 16.300781 11.679688 16.070312 11.804688 15.78125 11.828125 C 15.488281 11.847656 15.21875 11.765625 14.96875 11.578125 C 14.59375 11.285156 14.46875 10.898438 14.59375 10.421875 L 15.78125 5.46875 L 7.171875 -1.078125 L 2.703125 1.375 C 2.285156 1.625 1.882812 1.601562 1.5 1.3125 C 1.25 1.125 1.09375 0.878906 1.03125 0.578125 C 0.96875 0.285156 1.023438 0.0234375 1.203125 -0.203125 C 1.296875 -0.328125 1.421875 -0.421875 1.578125 -0.484375 L 19.15625 -10.046875 C 19.414062 -10.191406 19.675781 -10.25 19.9375 -10.21875 C 20.207031 -10.195312 20.453125 -10.101562 20.671875 -9.9375 C 20.898438 -9.757812 21.0625 -9.539062 21.15625 -9.28125 C 21.25 -9.03125 21.265625 -8.769531 21.203125 -8.5 Z M 9.046875 -2.09375 L 16.28125 3.40625 L 18.890625 -7.5625 Z M 9.046875 -2.09375 "/></g></g></g><g fill="#ffffff" fill-opacity="1"><g transform="translate(149.881371, 310.793094)"><g><path d="M 5.375 -0.09375 C 5.519531 -0.0390625 5.65625 0.046875 5.78125 0.171875 C 5.90625 0.296875 6.035156 0.46875 6.171875 0.6875 L 6.875 1.828125 L 6.328125 2.140625 L 5.484375 0.765625 C 5.203125 0.316406 4.757812 0.09375 4.15625 0.09375 C 3.457031 0.09375 2.847656 -0.0664062 2.328125 -0.390625 C 1.804688 -0.710938 1.40625 -1.171875 1.125 -1.765625 C 0.84375 -2.359375 0.703125 -3.0625 0.703125 -3.875 C 0.703125 -4.6875 0.84375 -5.390625 1.125 -5.984375 C 1.40625 -6.585938 1.804688 -7.046875 2.328125 -7.359375 C 2.847656 -7.679688 3.457031 -7.84375 4.15625 -7.84375 C 4.863281 -7.84375 5.476562 -7.679688 6 -7.359375 C 6.519531 -7.046875 6.921875 -6.59375 7.203125 -6 C 7.484375 -5.40625 7.625 -4.703125 7.625 -3.890625 C 7.625 -2.921875 7.425781 -2.101562 7.03125 -1.4375 C 6.632812 -0.78125 6.082031 -0.332031 5.375 -0.09375 Z M 1.40625 -3.890625 C 1.40625 -2.816406 1.644531 -1.984375 2.125 -1.390625 C 2.601562 -0.804688 3.28125 -0.515625 4.15625 -0.515625 C 5.03125 -0.515625 5.707031 -0.804688 6.1875 -1.390625 C 6.675781 -1.984375 6.921875 -2.816406 6.921875 -3.890625 C 6.921875 -4.953125 6.679688 -5.773438 6.203125 -6.359375 C 5.722656 -6.941406 5.039062 -7.234375 4.15625 -7.234375 C 3.28125 -7.234375 2.601562 -6.941406 2.125 -6.359375 C 1.644531 -5.773438 1.40625 -4.953125 1.40625 -3.890625 Z M 1.40625 -3.890625 "/></g></g></g><g fill="#ffffff" fill-opacity="1"><g transform="translate(160.281475, 310.793094)"><g><path d="M 3.953125 0.09375 C 2.960938 0.09375 2.210938 -0.164062 1.703125 -0.6875 C 1.203125 -1.207031 0.953125 -1.972656 0.953125 -2.984375 L 0.953125 -7.75 L 1.625 -7.75 L 1.625 -2.921875 C 1.625 -1.316406 2.398438 -0.515625 3.953125 -0.515625 C 4.722656 -0.515625 5.304688 -0.71875 5.703125 -1.125 C 6.097656 -1.53125 6.296875 -2.128906 6.296875 -2.921875 L 6.296875 -7.75 L 6.96875 -7.75 L 6.96875 -2.984375 C 6.96875 -1.972656 6.710938 -1.207031 6.203125 -0.6875 C 5.691406 -0.164062 4.941406 0.09375 3.953125 0.09375 Z M 3.953125 0.09375 "/></g></g></g><g fill="#ffffff" fill-opacity="1"><g transform="translate(170.274867, 310.793094)"><g><path d="M 1 0 L 1 -7.75 L 5.78125 -7.75 L 5.78125 -7.171875 L 1.671875 -7.171875 L 1.671875 -4.234375 L 5.5625 -4.234375 L 5.5625 -3.640625 L 1.671875 -3.640625 L 1.671875 -0.578125 L 5.78125 -0.578125 L 5.78125 0 Z M 1 0 "/></g></g></g><g fill="#ffffff" fill-opacity="1"><g transform="translate(178.718363, 310.793094)"><g><path d="M 6.9375 0 L 6.1875 0 L 4.890625 -2.484375 C 4.710938 -2.816406 4.503906 -3.046875 4.265625 -3.171875 C 4.035156 -3.296875 3.710938 -3.359375 3.296875 -3.359375 L 1.6875 -3.359375 L 1.6875 0 L 1 0 L 1 -7.75 L 4.109375 -7.75 C 4.921875 -7.75 5.546875 -7.5625 5.984375 -7.1875 C 6.421875 -6.820312 6.640625 -6.285156 6.640625 -5.578125 C 6.640625 -4.972656 6.460938 -4.488281 6.109375 -4.125 C 5.765625 -3.769531 5.269531 -3.550781 4.625 -3.46875 C 4.820312 -3.40625 4.992188 -3.300781 5.140625 -3.15625 C 5.296875 -3.019531 5.4375 -2.832031 5.5625 -2.59375 Z M 4.0625 -3.953125 C 5.332031 -3.953125 5.96875 -4.5 5.96875 -5.59375 C 5.96875 -6.125 5.8125 -6.519531 5.5 -6.78125 C 5.1875 -7.039062 4.707031 -7.171875 4.0625 -7.171875 L 1.671875 -7.171875 L 1.671875 -3.953125 Z M 4.0625 -3.953125 "/></g></g></g><g fill="#ffffff" fill-opacity="1"><g transform="translate(188.294057, 310.793094)"><g><path d="M 1 0 L 1 -7.75 L 5.78125 -7.75 L 5.78125 -7.171875 L 1.671875 -7.171875 L 1.671875 -4.234375 L 5.5625 -4.234375 L 5.5625 -3.640625 L 1.671875 -3.640625 L 1.671875 -0.578125 L 5.78125 -0.578125 L 5.78125 0 Z M 1 0 "/></g></g></g><g fill="#ffffff" fill-opacity="1"><g transform="translate(196.737554, 310.793094)"><g><path d="M 7.671875 -7.75 L 8.234375 -7.75 L 8.234375 0 L 7.59375 0 L 7.59375 -6.40625 L 4.890625 -1.21875 L 4.375 -1.21875 L 1.640625 -6.359375 L 1.65625 0 L 1 0 L 1 -7.75 L 1.578125 -7.75 L 4.640625 -1.875 Z M 7.671875 -7.75 "/></g></g></g><g fill="#ffffff" fill-opacity="1"><g transform="translate(208.050015, 310.793094)"><g><path d="M 4.15625 0.09375 C 3.457031 0.09375 2.847656 -0.0664062 2.328125 -0.390625 C 1.804688 -0.710938 1.40625 -1.171875 1.125 -1.765625 C 0.84375 -2.359375 0.703125 -3.0625 0.703125 -3.875 C 0.703125 -4.6875 0.84375 -5.390625 1.125 -5.984375 C 1.40625 -6.585938 1.800781 -7.046875 2.3125 -7.359375 C 2.832031 -7.679688 3.445312 -7.84375 4.15625 -7.84375 C 4.863281 -7.84375 5.476562 -7.679688 6 -7.359375 C 6.519531 -7.046875 6.921875 -6.59375 7.203125 -6 C 7.484375 -5.40625 7.625 -4.703125 7.625 -3.890625 C 7.625 -3.066406 7.484375 -2.359375 7.203125 -1.765625 C 6.921875 -1.171875 6.519531 -0.710938 6 -0.390625 C 5.476562 -0.0664062 4.863281 0.09375 4.15625 0.09375 Z M 4.15625 -0.515625 C 5.03125 -0.515625 5.707031 -0.804688 6.1875 -1.390625 C 6.675781 -1.984375 6.921875 -2.816406 6.921875 -3.890625 C 6.921875 -4.953125 6.679688 -5.773438 6.203125 -6.359375 C 5.722656 -6.941406 5.039062 -7.234375 4.15625 -7.234375 C 3.28125 -7.234375 2.601562 -6.941406 2.125 -6.359375 C 1.644531 -5.773438 1.40625 -4.953125 1.40625 -3.890625 C 1.40625 -2.816406 1.644531 -1.984375 2.125 -1.390625 C 2.601562 -0.804688 3.28125 -0.515625 4.15625 -0.515625 Z M 4.15625 -0.515625 "/></g></g></g><g fill="#ffffff" fill-opacity="1"><g transform="translate(218.450119, 310.793094)"><g><path d="M 3.40625 0.09375 C 2.800781 0.09375 2.265625 0.0078125 1.796875 -0.15625 C 1.328125 -0.320312 0.90625 -0.578125 0.53125 -0.921875 L 0.828125 -1.46875 C 1.210938 -1.125 1.597656 -0.878906 1.984375 -0.734375 C 2.378906 -0.585938 2.851562 -0.515625 3.40625 -0.515625 C 4.0625 -0.515625 4.570312 -0.644531 4.9375 -0.90625 C 5.300781 -1.175781 5.484375 -1.554688 5.484375 -2.046875 C 5.484375 -2.328125 5.394531 -2.554688 5.21875 -2.734375 C 5.039062 -2.921875 4.816406 -3.0625 4.546875 -3.15625 C 4.273438 -3.257812 3.910156 -3.363281 3.453125 -3.46875 C 2.847656 -3.59375 2.359375 -3.722656 1.984375 -3.859375 C 1.617188 -4.003906 1.304688 -4.21875 1.046875 -4.5 C 0.796875 -4.78125 0.671875 -5.160156 0.671875 -5.640625 C 0.671875 -6.078125 0.785156 -6.460938 1.015625 -6.796875 C 1.242188 -7.128906 1.5625 -7.382812 1.96875 -7.5625 C 2.382812 -7.75 2.875 -7.84375 3.4375 -7.84375 C 3.957031 -7.84375 4.441406 -7.753906 4.890625 -7.578125 C 5.347656 -7.410156 5.742188 -7.160156 6.078125 -6.828125 L 5.78125 -6.296875 C 5.414062 -6.617188 5.046875 -6.851562 4.671875 -7 C 4.296875 -7.15625 3.882812 -7.234375 3.4375 -7.234375 C 2.78125 -7.234375 2.269531 -7.09375 1.90625 -6.8125 C 1.539062 -6.539062 1.359375 -6.15625 1.359375 -5.65625 C 1.359375 -5.21875 1.515625 -4.894531 1.828125 -4.6875 C 2.148438 -4.476562 2.617188 -4.300781 3.234375 -4.15625 L 3.515625 -4.09375 C 4.109375 -3.945312 4.578125 -3.8125 4.921875 -3.6875 C 5.265625 -3.5625 5.554688 -3.367188 5.796875 -3.109375 C 6.035156 -2.847656 6.15625 -2.5 6.15625 -2.0625 C 6.15625 -1.632812 6.039062 -1.257812 5.8125 -0.9375 C 5.59375 -0.613281 5.273438 -0.359375 4.859375 -0.171875 C 4.441406 0.00390625 3.957031 0.09375 3.40625 0.09375 Z M 3.40625 0.09375 "/></g></g></g><g fill="#ffffff" fill-opacity="1"><g transform="translate(147.420433, 325.793093)"><g><path d="M 6.703125 -7.75 L 7.40625 -7.75 L 4.046875 0 L 3.4375 0 L 0.078125 -7.75 L 0.78125 -7.75 L 3.75 -0.875 Z M 6.703125 -7.75 "/></g></g></g><g fill="#ffffff" fill-opacity="1"><g transform="translate(156.974144, 325.793093)"><g><path d="M 1 0 L 1 -7.75 L 5.78125 -7.75 L 5.78125 -7.171875 L 1.671875 -7.171875 L 1.671875 -4.234375 L 5.5625 -4.234375 L 5.5625 -3.640625 L 1.671875 -3.640625 L 1.671875 -0.578125 L 5.78125 -0.578125 L 5.78125 0 Z M 1 0 "/></g></g></g><g fill="#ffffff" fill-opacity="1"><g transform="translate(165.41764, 325.793093)"><g><path d="M 6.9375 0 L 6.1875 0 L 4.890625 -2.484375 C 4.710938 -2.816406 4.503906 -3.046875 4.265625 -3.171875 C 4.035156 -3.296875 3.710938 -3.359375 3.296875 -3.359375 L 1.6875 -3.359375 L 1.6875 0 L 1 0 L 1 -7.75 L 4.109375 -7.75 C 4.921875 -7.75 5.546875 -7.5625 5.984375 -7.1875 C 6.421875 -6.820312 6.640625 -6.285156 6.640625 -5.578125 C 6.640625 -4.972656 6.460938 -4.488281 6.109375 -4.125 C 5.765625 -3.769531 5.269531 -3.550781 4.625 -3.46875 C 4.820312 -3.40625 4.992188 -3.300781 5.140625 -3.15625 C 5.296875 -3.019531 5.4375 -2.832031 5.5625 -2.59375 Z M 4.0625 -3.953125 C 5.332031 -3.953125 5.96875 -4.5 5.96875 -5.59375 C 5.96875 -6.125 5.8125 -6.519531 5.5 -6.78125 C 5.1875 -7.039062 4.707031 -7.171875 4.0625 -7.171875 L 1.671875 -7.171875 L 1.671875 -3.953125 Z M 4.0625 -3.953125 "/></g></g></g><g fill="#ffffff" fill-opacity="1"><g transform="translate(174.993334, 325.793093)"><g><path d="M 2.921875 0 L 2.921875 -7.15625 L 0.125 -7.15625 L 0.125 -7.75 L 6.359375 -7.75 L 6.359375 -7.15625 L 3.59375 -7.15625 L 3.59375 0 Z M 2.921875 0 "/></g></g></g><g fill="#ffffff" fill-opacity="1"><g transform="translate(183.557737, 325.793093)"><g><path d="M 1 0 L 1 -7.75 L 5.78125 -7.75 L 5.78125 -7.171875 L 1.671875 -7.171875 L 1.671875 -4.234375 L 5.5625 -4.234375 L 5.5625 -3.640625 L 1.671875 -3.640625 L 1.671875 -0.578125 L 5.78125 -0.578125 L 5.78125 0 Z M 1 0 "/></g></g></g><g fill="#ffffff" fill-opacity="1"><g transform="translate(196.850266, 325.793093)"><g><path d="M 5.25 -3.96875 C 5.695312 -3.863281 6.039062 -3.644531 6.28125 -3.3125 C 6.53125 -2.988281 6.65625 -2.582031 6.65625 -2.09375 C 6.65625 -1.414062 6.429688 -0.894531 5.984375 -0.53125 C 5.546875 -0.175781 4.921875 0 4.109375 0 L 1 0 L 1 -7.75 L 4 -7.75 C 4.789062 -7.75 5.398438 -7.570312 5.828125 -7.21875 C 6.265625 -6.875 6.484375 -6.375 6.484375 -5.71875 C 6.484375 -5.300781 6.375 -4.941406 6.15625 -4.640625 C 5.9375 -4.335938 5.632812 -4.113281 5.25 -3.96875 Z M 1.671875 -4.234375 L 3.890625 -4.234375 C 4.515625 -4.234375 4.988281 -4.359375 5.3125 -4.609375 C 5.632812 -4.867188 5.796875 -5.242188 5.796875 -5.734375 C 5.796875 -6.691406 5.160156 -7.171875 3.890625 -7.171875 L 1.671875 -7.171875 Z M 4.0625 -0.578125 C 4.707031 -0.578125 5.1875 -0.695312 5.5 -0.9375 C 5.8125 -1.1875 5.96875 -1.566406 5.96875 -2.078125 C 5.96875 -3.117188 5.332031 -3.640625 4.0625 -3.640625 L 1.671875 -3.640625 L 1.671875 -0.578125 Z M 4.0625 -0.578125 "/></g></g></g><g fill="#ffffff" fill-opacity="1"><g transform="translate(206.294045, 325.793093)"><g><path d="M 1 0 L 1 -7.75 L 1.6875 -7.75 L 1.6875 0 Z M 1 0 "/></g></g></g><g fill="#ffffff" fill-opacity="1"><g transform="translate(211.055141, 325.793093)"><g><path d="M 1 0 L 1 -7.75 L 5.78125 -7.75 L 5.78125 -7.171875 L 1.671875 -7.171875 L 1.671875 -4.234375 L 5.5625 -4.234375 L 5.5625 -3.640625 L 1.671875 -3.640625 L 1.671875 -0.578125 L 5.78125 -0.578125 L 5.78125 0 Z M 1 0 "/></g></g></g><g fill="#ffffff" fill-opacity="1"><g transform="translate(219.498638, 325.793093)"><g><path d="M 6.453125 -7.75 L 7.078125 -7.75 L 7.078125 0 L 6.5625 0 L 1.640625 -6.609375 L 1.640625 0 L 1 0 L 1 -7.75 L 1.546875 -7.75 L 6.453125 -1.15625 Z M 6.453125 -7.75 "/></g></g></g><g clip-path="url(#b5b73e78db)"><path fill="#ffffff" d="M 315.414062 202.558594 C 315.414062 202.925781 315.378906 203.292969 315.304688 203.65625 C 315.234375 204.015625 315.128906 204.371094 314.984375 204.710938 C 314.84375 205.050781 314.671875 205.375 314.464844 205.683594 C 314.261719 205.988281 314.027344 206.273438 313.765625 206.535156 C 313.503906 206.796875 313.222656 207.03125 312.914062 207.234375 C 312.609375 207.441406 312.285156 207.613281 311.941406 207.753906 C 311.601562 207.894531 311.25 208.003906 310.886719 208.074219 C 310.523438 208.148438 310.160156 208.183594 309.789062 208.183594 C 309.421875 208.183594 309.054688 208.148438 308.691406 208.074219 C 308.328125 208.003906 307.976562 207.894531 307.636719 207.753906 C 307.296875 207.613281 306.972656 207.441406 306.664062 207.234375 C 306.355469 207.03125 306.074219 206.796875 305.8125 206.535156 C 305.550781 206.273438 305.316406 205.988281 305.113281 205.683594 C 304.90625 205.375 304.734375 205.050781 304.59375 204.710938 C 304.453125 204.371094 304.34375 204.015625 304.273438 203.65625 C 304.199219 203.292969 304.164062 202.925781 304.164062 202.558594 C 304.164062 202.1875 304.199219 201.824219 304.273438 201.460938 C 304.34375 201.097656 304.453125 200.746094 304.59375 200.40625 C 304.734375 200.0625 304.90625 199.738281 305.113281 199.433594 C 305.316406 199.125 305.550781 198.839844 305.8125 198.582031 C 306.074219 198.320312 306.355469 198.085938 306.664062 197.882812 C 306.972656 197.675781 307.296875 197.503906 307.636719 197.359375 C 307.976562 197.21875 308.328125 197.113281 308.691406 197.039062 C 309.054688 196.96875 309.421875 196.933594 309.789062 196.933594 C 310.160156 196.933594 310.523438 196.96875 310.886719 197.039062 C 311.25 197.113281 311.601562 197.21875 311.941406 197.359375 C 312.285156 197.503906 312.609375 197.675781 312.914062 197.882812 C 313.222656 198.085938 313.503906 198.320312 313.765625 198.582031 C 314.027344 198.839844 314.261719 199.125 314.464844 199.433594 C 314.671875 199.738281 314.84375 200.0625 314.984375 200.40625 C 315.128906 200.746094 315.234375 201.097656 315.304688 201.460938 C 315.378906 201.824219 315.414062 202.1875 315.414062 202.558594 Z M 315.414062 202.558594 " fill-opacity="1" fill-rule="nonzero"/></g><g clip-path="url(#f15738030c)"><path fill="#8ed24d" d="M 177.414062 133.378906 L 177.414062 165.207031 L 174.449219 165.207031 L 174.449219 133.378906 L 169.878906 133.378906 L 169.878906 165.207031 L 166.917969 165.207031 L 166.917969 133.378906 L 162.347656 133.378906 L 162.347656 165.207031 L 159.386719 165.207031 L 159.386719 133.378906 L 154.625 133.378906 C 154.578125 137.113281 154.761719 160.605469 154.761719 164.082031 C 154.761719 171.371094 156.691406 174.921875 159.722656 176.632812 C 163.699219 178.875 166.027344 183.214844 165.703125 187.777344 L 164.074219 210.757812 C 161.746094 201.96875 155.0625 191.246094 137.03125 185.957031 C 150.507812 186.992188 160.945312 196.855469 160.945312 196.855469 C 160.269531 160.464844 112.496094 179.945312 112.496094 179.945312 C 112.496094 179.945312 120.210938 184.316406 125.527344 191.359375 C 133.679688 202.15625 143.046875 215.445312 157.148438 203.015625 C 157.367188 203.332031 157.582031 203.652344 157.796875 203.980469 C 161.769531 210.035156 163.613281 217.242188 163.101562 224.472656 L 162.316406 235.496094 C 162.066406 239.039062 164.859375 242.050781 168.398438 242.050781 C 171.9375 242.050781 174.730469 239.039062 174.480469 235.496094 L 171.09375 187.777344 C 170.769531 183.214844 173.101562 178.875 177.074219 176.632812 C 180.105469 174.921875 182.035156 171.371094 182.035156 164.082031 C 182.035156 160.605469 182.21875 137.113281 182.175781 133.378906 L 177.414062 133.378906 " fill-opacity="1" fill-rule="nonzero"/></g><g clip-path="url(#10edb814bb)"><path fill="#ffffff" d="M 214.042969 196.855469 C 214.042969 196.855469 224.480469 186.992188 237.960938 185.957031 C 220.257812 191.148438 213.492188 201.574219 211.046875 210.265625 L 209.445312 187.644531 C 209.109375 182.949219 211.585938 178.503906 215.746094 176.324219 C 219.9375 174.125 222.6875 169.695312 222.6875 161.644531 C 222.6875 148.679688 215.554688 133.324219 206.757812 133.324219 C 197.960938 133.324219 190.828125 148.679688 190.828125 161.644531 C 190.828125 169.695312 193.578125 174.125 197.773438 176.324219 C 201.929688 178.503906 204.40625 182.949219 204.074219 187.644531 L 200.675781 235.496094 C 200.425781 239.039062 203.222656 242.050781 206.757812 242.050781 C 210.296875 242.050781 213.09375 239.039062 212.839844 235.496094 L 212.042969 224.246094 C 211.511719 216.761719 213.511719 209.304688 217.761719 203.128906 C 217.789062 203.09375 217.816406 203.054688 217.84375 203.015625 C 231.941406 215.445312 241.3125 202.15625 249.460938 191.355469 C 254.777344 184.316406 262.492188 179.945312 262.492188 179.945312 C 262.492188 179.945312 214.722656 160.460938 214.042969 196.855469 " fill-opacity="1" fill-rule="nonzero"/></g><g fill="#ffffff" fill-opacity="1"><g transform="translate(90.118042, 272.171673)"><g><path d="M 6.875 -1.53125 C 7.550781 -1.53125 8.179688 -1.691406 8.765625 -2.015625 C 9.347656 -2.347656 9.835938 -2.785156 10.234375 -3.328125 L 11.53125 -2.09375 C 10.96875 -1.425781 10.28125 -0.878906 9.46875 -0.453125 C 8.664062 -0.0351562 7.800781 0.171875 6.875 0.171875 C 6.03125 0.171875 5.226562 0.00390625 4.46875 -0.328125 C 3.71875 -0.671875 3.066406 -1.132812 2.515625 -1.71875 C 1.960938 -2.300781 1.523438 -2.984375 1.203125 -3.765625 C 0.878906 -4.546875 0.71875 -5.367188 0.71875 -6.234375 C 0.71875 -7.117188 0.878906 -7.945312 1.203125 -8.71875 C 1.523438 -9.5 1.960938 -10.175781 2.515625 -10.75 C 3.066406 -11.332031 3.71875 -11.796875 4.46875 -12.140625 C 5.226562 -12.484375 6.03125 -12.65625 6.875 -12.65625 C 7.65625 -12.65625 8.394531 -12.5 9.09375 -12.1875 C 9.800781 -11.875 10.429688 -11.46875 10.984375 -10.96875 L 9.890625 -9.578125 C 9.503906 -9.984375 9.050781 -10.316406 8.53125 -10.578125 C 8.007812 -10.847656 7.457031 -10.984375 6.875 -10.984375 C 6.269531 -10.984375 5.707031 -10.851562 5.1875 -10.59375 C 4.664062 -10.34375 4.210938 -10 3.828125 -9.5625 C 3.441406 -9.132812 3.132812 -8.632812 2.90625 -8.0625 C 2.675781 -7.488281 2.5625 -6.878906 2.5625 -6.234375 C 2.5625 -5.585938 2.675781 -4.976562 2.90625 -4.40625 C 3.132812 -3.84375 3.441406 -3.347656 3.828125 -2.921875 C 4.210938 -2.492188 4.664062 -2.15625 5.1875 -1.90625 C 5.707031 -1.65625 6.269531 -1.53125 6.875 -1.53125 Z M 6.875 -1.53125 "/></g></g></g><g fill="#ffffff" fill-opacity="1"><g transform="translate(109.384617, 272.171673)"><g><path d="M 6.78125 -12.671875 C 7.625 -12.671875 8.421875 -12.5 9.171875 -12.15625 C 9.929688 -11.820312 10.585938 -11.363281 11.140625 -10.78125 C 11.703125 -10.195312 12.144531 -9.515625 12.46875 -8.734375 C 12.800781 -7.953125 12.96875 -7.125 12.96875 -6.25 C 12.96875 -5.375 12.800781 -4.546875 12.46875 -3.765625 C 12.144531 -2.992188 11.703125 -2.316406 11.140625 -1.734375 C 10.578125 -1.148438 9.914062 -0.6875 9.15625 -0.34375 C 8.40625 -0.0078125 7.609375 0.15625 6.765625 0.15625 C 5.921875 0.15625 5.125 -0.0078125 4.375 -0.34375 C 3.625 -0.6875 2.96875 -1.148438 2.40625 -1.734375 C 1.84375 -2.316406 1.398438 -2.992188 1.078125 -3.765625 C 0.753906 -4.546875 0.59375 -5.375 0.59375 -6.25 C 0.59375 -7.125 0.753906 -7.953125 1.078125 -8.734375 C 1.398438 -9.515625 1.84375 -10.195312 2.40625 -10.78125 C 2.976562 -11.363281 3.640625 -11.820312 4.390625 -12.15625 C 5.140625 -12.5 5.9375 -12.671875 6.78125 -12.671875 Z M 6.78125 -1.59375 C 7.382812 -1.59375 7.945312 -1.710938 8.46875 -1.953125 C 8.988281 -2.191406 9.441406 -2.519531 9.828125 -2.9375 C 10.222656 -3.363281 10.53125 -3.859375 10.75 -4.421875 C 10.976562 -4.992188 11.09375 -5.601562 11.09375 -6.25 C 11.09375 -6.894531 10.976562 -7.5 10.75 -8.0625 C 10.53125 -8.632812 10.222656 -9.128906 9.828125 -9.546875 C 9.441406 -9.972656 8.988281 -10.304688 8.46875 -10.546875 C 7.945312 -10.785156 7.382812 -10.90625 6.78125 -10.90625 C 6.1875 -10.90625 5.625 -10.785156 5.09375 -10.546875 C 4.570312 -10.304688 4.117188 -9.972656 3.734375 -9.546875 C 3.347656 -9.128906 3.039062 -8.632812 2.8125 -8.0625 C 2.582031 -7.5 2.46875 -6.894531 2.46875 -6.25 C 2.46875 -5.601562 2.582031 -4.992188 2.8125 -4.421875 C 3.039062 -3.859375 3.347656 -3.363281 3.734375 -2.9375 C 4.117188 -2.519531 4.570312 -2.191406 5.09375 -1.953125 C 5.625 -1.710938 6.1875 -1.59375 6.78125 -1.59375 Z M 6.78125 -1.59375 "/></g></g></g><g fill="#ffffff" fill-opacity="1"><g transform="translate(130.07882, 272.171673)"><g><path d="M 11.75 -12.5 L 11.75 0 L 9.890625 0 L 2.90625 -9.59375 L 2.90625 0 L 0.984375 0 L 0.984375 -12.5 L 2.921875 -12.5 L 9.90625 -2.859375 L 9.90625 -12.5 Z M 11.75 -12.5 "/></g></g></g><g fill="#ffffff" fill-opacity="1"><g transform="translate(150.032774, 272.171673)"><g><path d="M 9.328125 -3.5 C 9.328125 -2.976562 9.21875 -2.488281 9 -2.03125 C 8.789062 -1.582031 8.484375 -1.1875 8.078125 -0.84375 C 7.265625 -0.164062 6.222656 0.171875 4.953125 0.171875 C 3.960938 0.171875 3.066406 -0.03125 2.265625 -0.4375 C 1.472656 -0.84375 0.890625 -1.382812 0.515625 -2.0625 L 2.078125 -2.875 C 2.316406 -2.445312 2.691406 -2.117188 3.203125 -1.890625 C 3.710938 -1.660156 4.296875 -1.546875 4.953125 -1.546875 C 6.660156 -1.546875 7.515625 -2.195312 7.515625 -3.5 C 7.515625 -3.75 7.46875 -3.960938 7.375 -4.140625 C 7.289062 -4.316406 7.160156 -4.484375 6.984375 -4.640625 C 6.554688 -4.992188 5.796875 -5.3125 4.703125 -5.59375 C 4.046875 -5.75 3.488281 -5.925781 3.03125 -6.125 C 2.570312 -6.332031 2.191406 -6.570312 1.890625 -6.84375 C 1.148438 -7.4375 0.78125 -8.226562 0.78125 -9.21875 C 0.78125 -9.707031 0.875 -10.164062 1.0625 -10.59375 C 1.257812 -11.03125 1.535156 -11.40625 1.890625 -11.71875 C 2.253906 -12.039062 2.675781 -12.28125 3.15625 -12.4375 C 3.644531 -12.59375 4.1875 -12.671875 4.78125 -12.671875 C 5.632812 -12.671875 6.421875 -12.503906 7.140625 -12.171875 C 7.867188 -11.847656 8.421875 -11.382812 8.796875 -10.78125 L 7.375 -9.90625 C 7.03125 -10.3125 6.632812 -10.597656 6.1875 -10.765625 C 5.738281 -10.941406 5.269531 -11.03125 4.78125 -11.03125 C 4.425781 -11.03125 4.097656 -10.972656 3.796875 -10.859375 C 3.503906 -10.742188 3.257812 -10.601562 3.0625 -10.4375 C 2.894531 -10.289062 2.773438 -10.113281 2.703125 -9.90625 C 2.628906 -9.707031 2.59375 -9.488281 2.59375 -9.25 C 2.59375 -9.101562 2.613281 -8.945312 2.65625 -8.78125 C 2.707031 -8.625 2.820312 -8.457031 3 -8.28125 C 3.175781 -8.113281 3.429688 -7.953125 3.765625 -7.796875 C 4.109375 -7.640625 4.578125 -7.484375 5.171875 -7.328125 C 5.867188 -7.148438 6.457031 -6.957031 6.9375 -6.75 C 7.425781 -6.550781 7.832031 -6.3125 8.15625 -6.03125 C 8.9375 -5.394531 9.328125 -4.550781 9.328125 -3.5 Z M 9.328125 -3.5 "/></g></g></g><g fill="#ffffff" fill-opacity="1"><g transform="translate(167.4311, 272.171673)"><g><path d="M 10.171875 -4.421875 C 10.171875 -3.785156 10.050781 -3.1875 9.8125 -2.625 C 9.570312 -2.070312 9.242188 -1.585938 8.828125 -1.171875 C 8.421875 -0.753906 7.941406 -0.425781 7.390625 -0.1875 C 6.835938 0.0507812 6.242188 0.171875 5.609375 0.171875 C 4.972656 0.171875 4.378906 0.0507812 3.828125 -0.1875 C 3.273438 -0.425781 2.789062 -0.753906 2.375 -1.171875 C 1.96875 -1.585938 1.644531 -2.070312 1.40625 -2.625 C 1.164062 -3.1875 1.046875 -3.785156 1.046875 -4.421875 L 1.046875 -12.5 L 2.875 -12.5 L 2.875 -4.421875 C 2.875 -4.046875 2.941406 -3.6875 3.078125 -3.34375 C 3.222656 -3.007812 3.414062 -2.707031 3.65625 -2.4375 C 3.90625 -2.175781 4.195312 -1.96875 4.53125 -1.8125 C 4.875 -1.664062 5.234375 -1.59375 5.609375 -1.59375 C 5.984375 -1.59375 6.332031 -1.664062 6.65625 -1.8125 C 6.988281 -1.96875 7.273438 -2.175781 7.515625 -2.4375 C 7.765625 -2.707031 7.957031 -3.007812 8.09375 -3.34375 C 8.238281 -3.6875 8.3125 -4.046875 8.3125 -4.421875 L 8.3125 -12.5 L 10.171875 -12.5 Z M 10.171875 -4.421875 "/></g></g></g><g fill="#ffffff" fill-opacity="1"><g transform="translate(185.781173, 272.171673)"><g><path d="M 1.046875 0 L 1.046875 -12.5 L 2.890625 -12.5 L 2.890625 -1.703125 L 8.671875 -1.703125 L 8.671875 0 Z M 1.046875 0 "/></g></g></g><g fill="#ffffff" fill-opacity="1"><g transform="translate(201.998634, 272.171673)"><g><path d="M 3.46875 -10.84375 L 0.09375 -10.84375 L 0.09375 -12.5 L 8.703125 -12.5 L 8.703125 -10.84375 L 5.3125 -10.84375 L 5.3125 0 L 3.46875 0 Z M 3.46875 -10.84375 "/></g></g></g><g fill="#ffffff" fill-opacity="1"><g transform="translate(218.374717, 272.171673)"><g><path d="M 6.78125 -12.671875 C 7.625 -12.671875 8.421875 -12.5 9.171875 -12.15625 C 9.929688 -11.820312 10.585938 -11.363281 11.140625 -10.78125 C 11.703125 -10.195312 12.144531 -9.515625 12.46875 -8.734375 C 12.800781 -7.953125 12.96875 -7.125 12.96875 -6.25 C 12.96875 -5.375 12.800781 -4.546875 12.46875 -3.765625 C 12.144531 -2.992188 11.703125 -2.316406 11.140625 -1.734375 C 10.578125 -1.148438 9.914062 -0.6875 9.15625 -0.34375 C 8.40625 -0.0078125 7.609375 0.15625 6.765625 0.15625 C 5.921875 0.15625 5.125 -0.0078125 4.375 -0.34375 C 3.625 -0.6875 2.96875 -1.148438 2.40625 -1.734375 C 1.84375 -2.316406 1.398438 -2.992188 1.078125 -3.765625 C 0.753906 -4.546875 0.59375 -5.375 0.59375 -6.25 C 0.59375 -7.125 0.753906 -7.953125 1.078125 -8.734375 C 1.398438 -9.515625 1.84375 -10.195312 2.40625 -10.78125 C 2.976562 -11.363281 3.640625 -11.820312 4.390625 -12.15625 C 5.140625 -12.5 5.9375 -12.671875 6.78125 -12.671875 Z M 6.78125 -1.59375 C 7.382812 -1.59375 7.945312 -1.710938 8.46875 -1.953125 C 8.988281 -2.191406 9.441406 -2.519531 9.828125 -2.9375 C 10.222656 -3.363281 10.53125 -3.859375 10.75 -4.421875 C 10.976562 -4.992188 11.09375 -5.601562 11.09375 -6.25 C 11.09375 -6.894531 10.976562 -7.5 10.75 -8.0625 C 10.53125 -8.632812 10.222656 -9.128906 9.828125 -9.546875 C 9.441406 -9.972656 8.988281 -10.304688 8.46875 -10.546875 C 7.945312 -10.785156 7.382812 -10.90625 6.78125 -10.90625 C 6.1875 -10.90625 5.625 -10.785156 5.09375 -10.546875 C 4.570312 -10.304688 4.117188 -9.972656 3.734375 -9.546875 C 3.347656 -9.128906 3.039062 -8.632812 2.8125 -8.0625 C 2.582031 -7.5 2.46875 -6.894531 2.46875 -6.25 C 2.46875 -5.601562 2.582031 -4.992188 2.8125 -4.421875 C 3.039062 -3.859375 3.347656 -3.363281 3.734375 -2.9375 C 4.117188 -2.519531 4.570312 -2.191406 5.09375 -1.953125 C 5.625 -1.710938 6.1875 -1.59375 6.78125 -1.59375 Z M 6.78125 -1.59375 "/></g></g></g><g fill="#ffffff" fill-opacity="1"><g transform="translate(239.068918, 272.171673)"><g><path d="M 11.296875 0 L 8.984375 0 L 5.0625 -5.390625 L 2.875 -5.390625 L 2.875 0 L 1.015625 0 L 1.015625 -12.5 L 6.09375 -12.5 C 6.59375 -12.5 7.0625 -12.40625 7.5 -12.21875 C 7.9375 -12.03125 8.316406 -11.773438 8.640625 -11.453125 C 8.960938 -11.140625 9.21875 -10.765625 9.40625 -10.328125 C 9.59375 -9.898438 9.6875 -9.441406 9.6875 -8.953125 C 9.6875 -8.546875 9.625 -8.160156 9.5 -7.796875 C 9.375 -7.429688 9.195312 -7.097656 8.96875 -6.796875 C 8.738281 -6.503906 8.460938 -6.25 8.140625 -6.03125 C 7.828125 -5.8125 7.484375 -5.648438 7.109375 -5.546875 Z M 6.09375 -7.125 C 6.34375 -7.125 6.578125 -7.171875 6.796875 -7.265625 C 7.023438 -7.367188 7.21875 -7.5 7.375 -7.65625 C 7.53125 -7.820312 7.65625 -8.019531 7.75 -8.25 C 7.84375 -8.476562 7.890625 -8.722656 7.890625 -8.984375 C 7.890625 -9.242188 7.84375 -9.484375 7.75 -9.703125 C 7.65625 -9.929688 7.53125 -10.128906 7.375 -10.296875 C 7.21875 -10.472656 7.023438 -10.609375 6.796875 -10.703125 C 6.578125 -10.804688 6.34375 -10.859375 6.09375 -10.859375 L 2.875 -10.859375 L 2.875 -7.109375 Z M 6.09375 -7.125 "/></g></g></g><g fill="#ffffff" fill-opacity="1"><g transform="translate(257.806751, 272.171673)"><g><path d="M 8.625 -12.5 L 8.625 -10.84375 L 2.8125 -10.84375 L 2.8125 -7.4375 L 7.984375 -7.4375 L 7.984375 -5.734375 L 2.8125 -5.734375 L 2.8125 -1.703125 L 8.625 -1.703125 L 8.625 0 L 0.984375 0 L 0.984375 -12.5 Z M 8.625 -12.5 "/></g></g></g><g fill="#ffffff" fill-opacity="1"><g transform="translate(274.658702, 272.171673)"><g><path d="M 9.328125 -3.5 C 9.328125 -2.976562 9.21875 -2.488281 9 -2.03125 C 8.789062 -1.582031 8.484375 -1.1875 8.078125 -0.84375 C 7.265625 -0.164062 6.222656 0.171875 4.953125 0.171875 C 3.960938 0.171875 3.066406 -0.03125 2.265625 -0.4375 C 1.472656 -0.84375 0.890625 -1.382812 0.515625 -2.0625 L 2.078125 -2.875 C 2.316406 -2.445312 2.691406 -2.117188 3.203125 -1.890625 C 3.710938 -1.660156 4.296875 -1.546875 4.953125 -1.546875 C 6.660156 -1.546875 7.515625 -2.195312 7.515625 -3.5 C 7.515625 -3.75 7.46875 -3.960938 7.375 -4.140625 C 7.289062 -4.316406 7.160156 -4.484375 6.984375 -4.640625 C 6.554688 -4.992188 5.796875 -5.3125 4.703125 -5.59375 C 4.046875 -5.75 3.488281 -5.925781 3.03125 -6.125 C 2.570312 -6.332031 2.191406 -6.570312 1.890625 -6.84375 C 1.148438 -7.4375 0.78125 -8.226562 0.78125 -9.21875 C 0.78125 -9.707031 0.875 -10.164062 1.0625 -10.59375 C 1.257812 -11.03125 1.535156 -11.40625 1.890625 -11.71875 C 2.253906 -12.039062 2.675781 -12.28125 3.15625 -12.4375 C 3.644531 -12.59375 4.1875 -12.671875 4.78125 -12.671875 C 5.632812 -12.671875 6.421875 -12.503906 7.140625 -12.171875 C 7.867188 -11.847656 8.421875 -11.382812 8.796875 -10.78125 L 7.375 -9.90625 C 7.03125 -10.3125 6.632812 -10.597656 6.1875 -10.765625 C 5.738281 -10.941406 5.269531 -11.03125 4.78125 -11.03125 C 4.425781 -11.03125 4.097656 -10.972656 3.796875 -10.859375 C 3.503906 -10.742188 3.257812 -10.601562 3.0625 -10.4375 C 2.894531 -10.289062 2.773438 -10.113281 2.703125 -9.90625 C 2.628906 -9.707031 2.59375 -9.488281 2.59375 -9.25 C 2.59375 -9.101562 2.613281 -8.945312 2.65625 -8.78125 C 2.707031 -8.625 2.820312 -8.457031 3 -8.28125 C 3.175781 -8.113281 3.429688 -7.953125 3.765625 -7.796875 C 4.109375 -7.640625 4.578125 -7.484375 5.171875 -7.328125 C 5.867188 -7.148438 6.457031 -6.957031 6.9375 -6.75 C 7.425781 -6.550781 7.832031 -6.3125 8.15625 -6.03125 C 8.9375 -5.394531 9.328125 -4.550781 9.328125 -3.5 Z M 9.328125 -3.5 "/></g></g></g><g fill="#ffffff" fill-opacity="1"><g transform="translate(105.516479, 290.171671)"><g><path d="M 1.0625 0 L 1.0625 -12.5 L 5.5 -12.5 C 6.40625 -12.5 7.203125 -12.332031 7.890625 -12 C 8.585938 -11.675781 9.164062 -11.226562 9.625 -10.65625 C 10.09375 -10.09375 10.445312 -9.429688 10.6875 -8.671875 C 10.925781 -7.910156 11.046875 -7.097656 11.046875 -6.234375 C 11.046875 -5.367188 10.921875 -4.554688 10.671875 -3.796875 C 10.421875 -3.035156 10.070312 -2.375 9.625 -1.8125 C 9.175781 -1.25 8.644531 -0.804688 8.03125 -0.484375 C 7.425781 -0.160156 6.769531 0 6.0625 0 Z M 5.421875 -1.703125 C 6.097656 -1.703125 6.671875 -1.828125 7.140625 -2.078125 C 7.609375 -2.328125 7.992188 -2.65625 8.296875 -3.0625 C 8.609375 -3.476562 8.832031 -3.960938 8.96875 -4.515625 C 9.113281 -5.066406 9.1875 -5.640625 9.1875 -6.234375 C 9.1875 -6.835938 9.113281 -7.414062 8.96875 -7.96875 C 8.832031 -8.53125 8.613281 -9.019531 8.3125 -9.4375 C 8.007812 -9.863281 7.617188 -10.203125 7.140625 -10.453125 C 6.671875 -10.710938 6.097656 -10.84375 5.421875 -10.84375 L 2.90625 -10.84375 L 2.90625 -1.703125 Z M 5.421875 -1.703125 "/></g></g></g><g fill="#ffffff" fill-opacity="1"><g transform="translate(124.642063, 290.171671)"><g><path d="M 4.375 -10.984375 L 4.375 -1.515625 L 5.28125 -1.515625 L 5.28125 0 L 1.609375 0 L 1.609375 -1.515625 L 2.53125 -1.515625 L 2.53125 -10.984375 L 1.609375 -10.984375 L 1.609375 -12.5 L 5.28125 -12.5 L 5.28125 -10.984375 Z M 4.375 -10.984375 "/></g></g></g><g fill="#ffffff" fill-opacity="1"><g transform="translate(138.744526, 290.171671)"><g><path d="M 8.625 -12.5 L 8.625 -10.84375 L 2.8125 -10.84375 L 2.8125 -7.4375 L 7.984375 -7.4375 L 7.984375 -5.734375 L 2.8125 -5.734375 L 2.8125 -1.703125 L 8.625 -1.703125 L 8.625 0 L 0.984375 0 L 0.984375 -12.5 Z M 8.625 -12.5 "/></g></g></g><g fill="#ffffff" fill-opacity="1"><g transform="translate(155.59648, 290.171671)"><g><path d="M 3.46875 -10.84375 L 0.09375 -10.84375 L 0.09375 -12.5 L 8.703125 -12.5 L 8.703125 -10.84375 L 5.3125 -10.84375 L 5.3125 0 L 3.46875 0 Z M 3.46875 -10.84375 "/></g></g></g><g fill="#ffffff" fill-opacity="1"><g transform="translate(171.972562, 290.171671)"><g><path d="M 8.625 -12.5 L 8.625 -10.84375 L 2.8125 -10.84375 L 2.8125 -7.4375 L 7.984375 -7.4375 L 7.984375 -5.734375 L 2.8125 -5.734375 L 2.8125 -1.703125 L 8.625 -1.703125 L 8.625 0 L 0.984375 0 L 0.984375 -12.5 Z M 6.03125 -16.46875 L 5.03125 -13.328125 L 3.640625 -13.328125 L 4.0625 -16.46875 Z M 6.03125 -16.46875 "/></g></g></g><g fill="#ffffff" fill-opacity="1"><g transform="translate(188.824513, 290.171671)"><g><path d="M 3.46875 -10.84375 L 0.09375 -10.84375 L 0.09375 -12.5 L 8.703125 -12.5 L 8.703125 -10.84375 L 5.3125 -10.84375 L 5.3125 0 L 3.46875 0 Z M 3.46875 -10.84375 "/></g></g></g><g fill="#ffffff" fill-opacity="1"><g transform="translate(205.200601, 290.171671)"><g><path d="M 4.375 -10.984375 L 4.375 -1.515625 L 5.28125 -1.515625 L 5.28125 0 L 1.609375 0 L 1.609375 -1.515625 L 2.53125 -1.515625 L 2.53125 -10.984375 L 1.609375 -10.984375 L 1.609375 -12.5 L 5.28125 -12.5 L 5.28125 -10.984375 Z M 4.375 -10.984375 "/></g></g></g><g fill="#ffffff" fill-opacity="1"><g transform="translate(219.303063, 290.171671)"><g><path d="M 6.875 -1.53125 C 7.550781 -1.53125 8.179688 -1.691406 8.765625 -2.015625 C 9.347656 -2.347656 9.835938 -2.785156 10.234375 -3.328125 L 11.53125 -2.09375 C 10.96875 -1.425781 10.28125 -0.878906 9.46875 -0.453125 C 8.664062 -0.0351562 7.800781 0.171875 6.875 0.171875 C 6.03125 0.171875 5.226562 0.00390625 4.46875 -0.328125 C 3.71875 -0.671875 3.066406 -1.132812 2.515625 -1.71875 C 1.960938 -2.300781 1.523438 -2.984375 1.203125 -3.765625 C 0.878906 -4.546875 0.71875 -5.367188 0.71875 -6.234375 C 0.71875 -7.117188 0.878906 -7.945312 1.203125 -8.71875 C 1.523438 -9.5 1.960938 -10.175781 2.515625 -10.75 C 3.066406 -11.332031 3.71875 -11.796875 4.46875 -12.140625 C 5.226562 -12.484375 6.03125 -12.65625 6.875 -12.65625 C 7.65625 -12.65625 8.394531 -12.5 9.09375 -12.1875 C 9.800781 -11.875 10.429688 -11.46875 10.984375 -10.96875 L 9.890625 -9.578125 C 9.503906 -9.984375 9.050781 -10.316406 8.53125 -10.578125 C 8.007812 -10.847656 7.457031 -10.984375 6.875 -10.984375 C 6.269531 -10.984375 5.707031 -10.851562 5.1875 -10.59375 C 4.664062 -10.34375 4.210938 -10 3.828125 -9.5625 C 3.441406 -9.132812 3.132812 -8.632812 2.90625 -8.0625 C 2.675781 -7.488281 2.5625 -6.878906 2.5625 -6.234375 C 2.5625 -5.585938 2.675781 -4.976562 2.90625 -4.40625 C 3.132812 -3.84375 3.441406 -3.347656 3.828125 -2.921875 C 4.210938 -2.492188 4.664062 -2.15625 5.1875 -1.90625 C 5.707031 -1.65625 6.269531 -1.53125 6.875 -1.53125 Z M 6.875 -1.53125 "/></g></g></g><g fill="#ffffff" fill-opacity="1"><g transform="translate(238.569636, 290.171671)"><g><path d="M 6.78125 -12.671875 C 7.625 -12.671875 8.421875 -12.5 9.171875 -12.15625 C 9.929688 -11.820312 10.585938 -11.363281 11.140625 -10.78125 C 11.703125 -10.195312 12.144531 -9.515625 12.46875 -8.734375 C 12.800781 -7.953125 12.96875 -7.125 12.96875 -6.25 C 12.96875 -5.375 12.800781 -4.546875 12.46875 -3.765625 C 12.144531 -2.992188 11.703125 -2.316406 11.140625 -1.734375 C 10.578125 -1.148438 9.914062 -0.6875 9.15625 -0.34375 C 8.40625 -0.0078125 7.609375 0.15625 6.765625 0.15625 C 5.921875 0.15625 5.125 -0.0078125 4.375 -0.34375 C 3.625 -0.6875 2.96875 -1.148438 2.40625 -1.734375 C 1.84375 -2.316406 1.398438 -2.992188 1.078125 -3.765625 C 0.753906 -4.546875 0.59375 -5.375 0.59375 -6.25 C 0.59375 -7.125 0.753906 -7.953125 1.078125 -8.734375 C 1.398438 -9.515625 1.84375 -10.195312 2.40625 -10.78125 C 2.976562 -11.363281 3.640625 -11.820312 4.390625 -12.15625 C 5.140625 -12.5 5.9375 -12.671875 6.78125 -12.671875 Z M 6.78125 -1.59375 C 7.382812 -1.59375 7.945312 -1.710938 8.46875 -1.953125 C 8.988281 -2.191406 9.441406 -2.519531 9.828125 -2.9375 C 10.222656 -3.363281 10.53125 -3.859375 10.75 -4.421875 C 10.976562 -4.992188 11.09375 -5.601562 11.09375 -6.25 C 11.09375 -6.894531 10.976562 -7.5 10.75 -8.0625 C 10.53125 -8.632812 10.222656 -9.128906 9.828125 -9.546875 C 9.441406 -9.972656 8.988281 -10.304688 8.46875 -10.546875 C 7.945312 -10.785156 7.382812 -10.90625 6.78125 -10.90625 C 6.1875 -10.90625 5.625 -10.785156 5.09375 -10.546875 C 4.570312 -10.304688 4.117188 -9.972656 3.734375 -9.546875 C 3.347656 -9.128906 3.039062 -8.632812 2.8125 -8.0625 C 2.582031 -7.5 2.46875 -6.894531 2.46875 -6.25 C 2.46875 -5.601562 2.582031 -4.992188 2.8125 -4.421875 C 3.039062 -3.859375 3.347656 -3.363281 3.734375 -2.9375 C 4.117188 -2.519531 4.570312 -2.191406 5.09375 -1.953125 C 5.625 -1.710938 6.1875 -1.59375 6.78125 -1.59375 Z M 6.78125 -1.59375 "/></g></g></g><g fill="#ffffff" fill-opacity="1"><g transform="translate(259.263837, 290.171671)"><g><path d="M 9.328125 -3.5 C 9.328125 -2.976562 9.21875 -2.488281 9 -2.03125 C 8.789062 -1.582031 8.484375 -1.1875 8.078125 -0.84375 C 7.265625 -0.164062 6.222656 0.171875 4.953125 0.171875 C 3.960938 0.171875 3.066406 -0.03125 2.265625 -0.4375 C 1.472656 -0.84375 0.890625 -1.382812 0.515625 -2.0625 L 2.078125 -2.875 C 2.316406 -2.445312 2.691406 -2.117188 3.203125 -1.890625 C 3.710938 -1.660156 4.296875 -1.546875 4.953125 -1.546875 C 6.660156 -1.546875 7.515625 -2.195312 7.515625 -3.5 C 7.515625 -3.75 7.46875 -3.960938 7.375 -4.140625 C 7.289062 -4.316406 7.160156 -4.484375 6.984375 -4.640625 C 6.554688 -4.992188 5.796875 -5.3125 4.703125 -5.59375 C 4.046875 -5.75 3.488281 -5.925781 3.03125 -6.125 C 2.570312 -6.332031 2.191406 -6.570312 1.890625 -6.84375 C 1.148438 -7.4375 0.78125 -8.226562 0.78125 -9.21875 C 0.78125 -9.707031 0.875 -10.164062 1.0625 -10.59375 C 1.257812 -11.03125 1.535156 -11.40625 1.890625 -11.71875 C 2.253906 -12.039062 2.675781 -12.28125 3.15625 -12.4375 C 3.644531 -12.59375 4.1875 -12.671875 4.78125 -12.671875 C 5.632812 -12.671875 6.421875 -12.503906 7.140625 -12.171875 C 7.867188 -11.847656 8.421875 -11.382812 8.796875 -10.78125 L 7.375 -9.90625 C 7.03125 -10.3125 6.632812 -10.597656 6.1875 -10.765625 C 5.738281 -10.941406 5.269531 -11.03125 4.78125 -11.03125 C 4.425781 -11.03125 4.097656 -10.972656 3.796875 -10.859375 C 3.503906 -10.742188 3.257812 -10.601562 3.0625 -10.4375 C 2.894531 -10.289062 2.773438 -10.113281 2.703125 -9.90625 C 2.628906 -9.707031 2.59375 -9.488281 2.59375 -9.25 C 2.59375 -9.101562 2.613281 -8.945312 2.65625 -8.78125 C 2.707031 -8.625 2.820312 -8.457031 3 -8.28125 C 3.175781 -8.113281 3.429688 -7.953125 3.765625 -7.796875 C 4.109375 -7.640625 4.578125 -7.484375 5.171875 -7.328125 C 5.867188 -7.148438 6.457031 -6.957031 6.9375 -6.75 C 7.425781 -6.550781 7.832031 -6.3125 8.15625 -6.03125 C 8.9375 -5.394531 9.328125 -4.550781 9.328125 -3.5 Z M 9.328125 -3.5 "/></g></g></g></svg>