<svg xmlns="http://www.w3.org/2000/svg" xmlns:xlink="http://www.w3.org/1999/xlink" width="250" zoomAndPan="magnify" viewBox="0 0 187.5 187.499992" height="250" preserveAspectRatio="xMidYMid meet" version="1.0"><defs><filter x="0%" y="0%" width="100%" height="100%" id="24b9805396"><feColorMatrix values="0 0 0 0 1 0 0 0 0 1 0 0 0 0 1 0 0 0 1 0" color-interpolation-filters="sRGB"/></filter><g/><mask id="344e301b01"><g filter="url(#24b9805396)"><rect x="-18.75" width="225" fill="#000000" y="-18.749999" height="224.99999" fill-opacity="0.8588"/></g></mask><clipPath id="6bfe4dade2"><path d="M 0.558594 0 L 157 0 L 157 50 L 0.558594 50 Z M 0.558594 0 " clip-rule="nonzero"/></clipPath><clipPath id="7f2c95a114"><path d="M 0.558594 26 L 182.808594 26 L 182.808594 187 L 0.558594 187 Z M 0.558594 26 " clip-rule="nonzero"/></clipPath><clipPath id="002f0a1067"><path d="M 0.558594 0 L 95 0 L 95 50 L 0.558594 50 Z M 0.558594 0 " clip-rule="nonzero"/></clipPath><clipPath id="b7341b60f0"><rect x="0" width="184" y="0" height="187"/></clipPath></defs><g mask="url(#344e301b01)"><g transform="matrix(1, 0, 0, 1, 2, 0)"><g clip-path="url(#b7341b60f0)"><g clip-path="url(#6bfe4dade2)"><path fill="#5c913b" d="M 0.878906 26.660156 C 0.878906 26.660156 26.265625 0.605469 52.949219 0.605469 C 84.851562 0.605469 94.285156 26.332031 94.285156 26.332031 C 94.285156 26.332031 97.539062 5.488281 120.320312 5.488281 C 143.101562 5.488281 156.449219 21.773438 156.449219 21.773438 C 156.449219 21.773438 137.902344 32.847656 132.363281 35.121094 C 117.78125 41.132812 73.132812 53.683594 52.304688 48.472656 C 31.476562 43.261719 0.878906 26.660156 0.878906 26.660156 Z M 0.878906 26.660156 " fill-opacity="1" fill-rule="nonzero"/></g><g clip-path="url(#7f2c95a114)"><path fill="#ff886c" d="M 89.078125 31.21875 C 89.078125 31.21875 94.503906 26.550781 120.320312 26.550781 C 154.386719 26.550781 182.808594 51.625 182.808594 93.910156 C 182.808594 153.996094 104.917969 187.085938 104.917969 187.085938 C 104.917969 187.085938 0.558594 181.464844 0.558594 93.628906 C 0.558594 41.734375 35.703125 26.007812 57.835938 26.007812 C 83.652344 26.007812 89.078125 31.21875 89.078125 31.21875 Z M 89.078125 31.21875 " fill-opacity="1" fill-rule="nonzero"/></g><g clip-path="url(#002f0a1067)"><path fill="#77b255" d="M 0.878906 26.660156 C 0.878906 26.660156 26.265625 0.605469 52.949219 0.605469 C 84.851562 0.605469 94.285156 26.332031 94.285156 26.332031 C 94.285156 26.332031 73.132812 53.6875 52.304688 48.476562 C 31.476562 43.265625 0.878906 26.660156 0.878906 26.660156 Z M 0.878906 26.660156 " fill-opacity="1" fill-rule="nonzero"/></g><path fill="#dd2e44" d="M 115.109375 156.28125 C 114.121094 156.28125 113.113281 155.992188 112.222656 155.40625 C 109.828125 153.804688 109.183594 150.574219 110.78125 148.175781 C 110.859375 148.0625 120.320312 133.027344 120.320312 98.960938 C 120.320312 65.378906 96.484375 45.902344 96.238281 45.710938 C 93.992188 43.914062 93.628906 40.636719 95.425781 38.390625 C 97.226562 36.144531 100.503906 35.78125 102.746094 37.578125 C 103.886719 38.488281 130.734375 60.421875 130.734375 98.960938 C 130.734375 136.582031 119.910156 153.269531 119.445312 153.960938 C 118.445312 155.46875 116.789062 156.28125 115.109375 156.28125 Z M 115.109375 156.28125 " fill-opacity="1" fill-rule="nonzero"/></g></g></g><g fill="#ec00ff" fill-opacity="0.302"><g transform="translate(14.358703, 105.227743)"><g><path d="M 17.359375 -20.125 C 17.535156 -20.125 17.691406 -20.066406 17.828125 -19.953125 C 17.972656 -19.847656 18.046875 -19.632812 18.046875 -19.3125 L 18.046875 -1.03125 C 18.046875 -0.34375 17.722656 0 17.078125 0 L 12.203125 0 C 11.898438 0 11.644531 -0.0546875 11.4375 -0.171875 C 11.238281 -0.296875 11.0625 -0.441406 10.90625 -0.609375 L 3.734375 -8.09375 C 3.816406 -6.882812 3.898438 -5.769531 3.984375 -4.75 C 4.003906 -4.3125 4.035156 -3.875 4.078125 -3.4375 C 4.117188 -3.007812 4.148438 -2.609375 4.171875 -2.234375 C 4.203125 -1.867188 4.226562 -1.546875 4.25 -1.265625 C 4.269531 -0.984375 4.285156 -0.78125 4.296875 -0.65625 C 4.316406 -0.5 4.289062 -0.347656 4.21875 -0.203125 C 4.15625 -0.0664062 3.992188 0 3.734375 0 L 1.96875 0 C 1.800781 0 1.644531 -0.0507812 1.5 -0.15625 C 1.363281 -0.269531 1.296875 -0.484375 1.296875 -0.796875 L 1.296875 -19.09375 C 1.296875 -19.78125 1.675781 -20.125 2.4375 -20.125 L 7.171875 -20.125 C 7.523438 -20.125 7.820312 -20.046875 8.0625 -19.890625 C 8.300781 -19.742188 8.539062 -19.550781 8.78125 -19.3125 L 15.609375 -12.546875 C 15.515625 -13.660156 15.429688 -14.6875 15.359375 -15.625 C 15.316406 -16.03125 15.28125 -16.429688 15.25 -16.828125 C 15.21875 -17.234375 15.1875 -17.609375 15.15625 -17.953125 C 15.132812 -18.304688 15.109375 -18.613281 15.078125 -18.875 C 15.054688 -19.132812 15.039062 -19.332031 15.03125 -19.46875 C 15.019531 -19.613281 15.050781 -19.757812 15.125 -19.90625 C 15.207031 -20.050781 15.394531 -20.125 15.6875 -20.125 Z M 17.359375 -20.125 "/></g></g></g><g fill="#ec00ff" fill-opacity="0.302"><g transform="translate(33.697041, 105.227743)"><g><path d="M 9.390625 0.484375 C 8.691406 0.484375 7.988281 0.425781 7.28125 0.3125 C 6.582031 0.207031 5.910156 0.0351562 5.265625 -0.203125 C 4.628906 -0.453125 4.035156 -0.769531 3.484375 -1.15625 C 2.929688 -1.550781 2.453125 -2.035156 2.046875 -2.609375 C 1.640625 -3.179688 1.320312 -3.84375 1.09375 -4.59375 C 0.863281 -5.34375 0.75 -6.203125 0.75 -7.171875 C 0.75 -8.128906 0.863281 -8.984375 1.09375 -9.734375 C 1.320312 -10.484375 1.640625 -11.144531 2.046875 -11.71875 C 2.453125 -12.289062 2.929688 -12.773438 3.484375 -13.171875 C 4.035156 -13.566406 4.628906 -13.882812 5.265625 -14.125 C 5.910156 -14.375 6.582031 -14.554688 7.28125 -14.671875 C 7.988281 -14.785156 8.691406 -14.84375 9.390625 -14.84375 C 10.035156 -14.84375 10.695312 -14.800781 11.375 -14.71875 C 12.050781 -14.644531 12.707031 -14.5 13.34375 -14.28125 C 13.988281 -14.070312 14.59375 -13.785156 15.15625 -13.421875 C 15.71875 -13.066406 16.210938 -12.609375 16.640625 -12.046875 C 17.066406 -11.492188 17.40625 -10.828125 17.65625 -10.046875 C 17.90625 -9.265625 18.03125 -8.34375 18.03125 -7.28125 C 18.03125 -6.195312 17.90625 -5.25 17.65625 -4.4375 C 17.414062 -3.632812 17.082031 -2.945312 16.65625 -2.375 C 16.226562 -1.800781 15.734375 -1.328125 15.171875 -0.953125 C 14.617188 -0.578125 14.019531 -0.285156 13.375 -0.078125 C 12.738281 0.128906 12.078125 0.273438 11.390625 0.359375 C 10.710938 0.441406 10.046875 0.484375 9.390625 0.484375 Z M 13.6875 -2.875 C 13.976562 -2.875 14.265625 -2.9375 14.546875 -3.0625 C 14.835938 -3.1875 15.09375 -3.410156 15.3125 -3.734375 C 15.53125 -4.066406 15.707031 -4.519531 15.84375 -5.09375 C 15.976562 -5.664062 16.046875 -6.394531 16.046875 -7.28125 C 16.046875 -8.125 15.976562 -8.816406 15.84375 -9.359375 C 15.707031 -9.898438 15.523438 -10.328125 15.296875 -10.640625 C 15.078125 -10.953125 14.828125 -11.171875 14.546875 -11.296875 C 14.265625 -11.421875 13.976562 -11.484375 13.6875 -11.484375 C 13.46875 -11.484375 13.21875 -11.4375 12.9375 -11.34375 C 12.664062 -11.25 12.410156 -11.046875 12.171875 -10.734375 C 11.929688 -10.429688 11.734375 -10 11.578125 -9.4375 C 11.421875 -8.875 11.34375 -8.117188 11.34375 -7.171875 C 11.34375 -6.234375 11.40625 -5.476562 11.53125 -4.90625 C 11.664062 -4.332031 11.835938 -3.894531 12.046875 -3.59375 C 12.265625 -3.300781 12.515625 -3.109375 12.796875 -3.015625 C 13.085938 -2.921875 13.382812 -2.875 13.6875 -2.875 Z M 13.6875 -2.875 "/></g></g></g><g fill="#ec00ff" fill-opacity="0.302"><g transform="translate(52.460841, 105.227743)"><g><path d="M 11.25 -8.265625 L 13.203125 -13.53125 C 13.285156 -13.769531 13.375 -13.96875 13.46875 -14.125 C 13.570312 -14.28125 13.773438 -14.359375 14.078125 -14.359375 L 15.5625 -14.359375 C 15.832031 -14.359375 15.96875 -14.273438 15.96875 -14.109375 C 15.96875 -14.003906 15.914062 -13.835938 15.8125 -13.609375 L 10.4375 -0.953125 C 10.3125 -0.628906 10.164062 -0.390625 10 -0.234375 C 9.832031 -0.078125 9.601562 0 9.3125 0 L 7.09375 0 C 6.894531 0 6.726562 -0.03125 6.59375 -0.09375 C 6.46875 -0.15625 6.359375 -0.234375 6.265625 -0.328125 C 6.179688 -0.421875 6.109375 -0.519531 6.046875 -0.625 C 5.992188 -0.726562 5.953125 -0.828125 5.921875 -0.921875 L 0.140625 -13.171875 C 0.0546875 -13.347656 0.015625 -13.515625 0.015625 -13.671875 C 0.015625 -13.910156 0.101562 -14.082031 0.28125 -14.1875 C 0.457031 -14.300781 0.640625 -14.359375 0.828125 -14.359375 L 7.671875 -14.359375 C 7.898438 -14.359375 8.09375 -14.347656 8.25 -14.328125 C 8.414062 -14.304688 8.546875 -14.269531 8.640625 -14.21875 C 8.742188 -14.164062 8.828125 -14.101562 8.890625 -14.03125 C 8.960938 -13.957031 9.019531 -13.863281 9.0625 -13.75 Z M 11.25 -8.265625 "/></g></g></g><g fill="#ec00ff" fill-opacity="0.302"><g transform="translate(68.435989, 105.227743)"><g><path d="M 13.984375 -2.328125 C 14.234375 -2.328125 14.460938 -2.359375 14.671875 -2.421875 C 14.878906 -2.492188 15.0625 -2.570312 15.21875 -2.65625 C 15.382812 -2.738281 15.519531 -2.816406 15.625 -2.890625 C 15.738281 -2.960938 15.820312 -3 15.875 -3 C 15.957031 -3 16.015625 -2.984375 16.046875 -2.953125 C 16.085938 -2.929688 16.128906 -2.878906 16.171875 -2.796875 L 16.671875 -2.046875 C 16.710938 -1.972656 16.734375 -1.90625 16.734375 -1.84375 C 16.734375 -1.78125 16.710938 -1.726562 16.671875 -1.6875 C 16.640625 -1.65625 16.601562 -1.625 16.5625 -1.59375 C 16.257812 -1.382812 15.882812 -1.15625 15.4375 -0.90625 C 14.988281 -0.65625 14.46875 -0.425781 13.875 -0.21875 C 13.28125 -0.0195312 12.609375 0.144531 11.859375 0.28125 C 11.109375 0.414062 10.285156 0.484375 9.390625 0.484375 C 8.691406 0.484375 7.988281 0.425781 7.28125 0.3125 C 6.582031 0.207031 5.910156 0.0351562 5.265625 -0.203125 C 4.628906 -0.453125 4.035156 -0.769531 3.484375 -1.15625 C 2.929688 -1.550781 2.453125 -2.035156 2.046875 -2.609375 C 1.640625 -3.179688 1.320312 -3.84375 1.09375 -4.59375 C 0.863281 -5.34375 0.75 -6.203125 0.75 -7.171875 C 0.75 -8.128906 0.863281 -8.984375 1.09375 -9.734375 C 1.320312 -10.484375 1.640625 -11.144531 2.046875 -11.71875 C 2.453125 -12.289062 2.929688 -12.773438 3.484375 -13.171875 C 4.035156 -13.566406 4.628906 -13.882812 5.265625 -14.125 C 5.910156 -14.375 6.582031 -14.554688 7.28125 -14.671875 C 7.988281 -14.785156 8.691406 -14.84375 9.390625 -14.84375 C 10.554688 -14.84375 11.640625 -14.710938 12.640625 -14.453125 C 13.648438 -14.191406 14.523438 -13.757812 15.265625 -13.15625 C 16.003906 -12.5625 16.582031 -11.773438 17 -10.796875 C 17.414062 -9.828125 17.625 -8.640625 17.625 -7.234375 L 17.625 -6.453125 C 17.625 -6.273438 17.582031 -6.140625 17.5 -6.046875 C 17.414062 -5.960938 17.273438 -5.921875 17.078125 -5.921875 L 11.28125 -5.921875 C 11.351562 -5.222656 11.484375 -4.640625 11.671875 -4.171875 C 11.867188 -3.710938 12.09375 -3.34375 12.34375 -3.0625 C 12.59375 -2.789062 12.859375 -2.597656 13.140625 -2.484375 C 13.429688 -2.378906 13.710938 -2.328125 13.984375 -2.328125 Z M 15.640625 -7.640625 C 15.640625 -8.390625 15.582031 -9.007812 15.46875 -9.5 C 15.351562 -9.988281 15.195312 -10.378906 15 -10.671875 C 14.800781 -10.960938 14.566406 -11.171875 14.296875 -11.296875 C 14.035156 -11.421875 13.757812 -11.484375 13.46875 -11.484375 C 13.25 -11.484375 13.015625 -11.4375 12.765625 -11.34375 C 12.515625 -11.257812 12.28125 -11.082031 12.0625 -10.8125 C 11.84375 -10.539062 11.65625 -10.15625 11.5 -9.65625 C 11.34375 -9.15625 11.25 -8.484375 11.21875 -7.640625 Z M 15.640625 -7.640625 "/></g></g></g><g fill="#ec00ff" fill-opacity="0.302"><g transform="translate(86.807416, 105.227743)"><g><path d="M 17.203125 -1.953125 C 17.203125 -1.617188 17.171875 -1.332031 17.109375 -1.09375 C 17.054688 -0.851562 16.945312 -0.648438 16.78125 -0.484375 C 16.625 -0.328125 16.40625 -0.207031 16.125 -0.125 C 15.851562 -0.0390625 15.488281 0 15.03125 0 L 8.90625 0 C 8.226562 -0.0195312 7.554688 -0.0820312 6.890625 -0.1875 C 6.222656 -0.289062 5.585938 -0.457031 4.984375 -0.6875 C 4.378906 -0.914062 3.816406 -1.210938 3.296875 -1.578125 C 2.773438 -1.953125 2.328125 -2.40625 1.953125 -2.9375 C 1.578125 -3.46875 1.28125 -4.085938 1.0625 -4.796875 C 0.851562 -5.515625 0.75 -6.335938 0.75 -7.265625 C 0.75 -8.410156 0.910156 -9.394531 1.234375 -10.21875 C 1.554688 -11.050781 2 -11.742188 2.5625 -12.296875 C 3.125 -12.859375 3.773438 -13.300781 4.515625 -13.625 C 5.265625 -13.957031 6.050781 -14.203125 6.875 -14.359375 L 6.875 -21 C 6.875 -21.320312 6.894531 -21.609375 6.9375 -21.859375 C 6.976562 -22.109375 7.070312 -22.3125 7.21875 -22.46875 C 7.375 -22.632812 7.582031 -22.753906 7.84375 -22.828125 C 8.101562 -22.910156 8.457031 -22.953125 8.90625 -22.953125 L 15.03125 -22.953125 C 15.488281 -22.953125 15.851562 -22.910156 16.125 -22.828125 C 16.40625 -22.742188 16.625 -22.625 16.78125 -22.46875 C 16.945312 -22.3125 17.054688 -22.109375 17.109375 -21.859375 C 17.171875 -21.609375 17.203125 -21.328125 17.203125 -21.015625 Z M 2.734375 -7.25 C 2.734375 -6.550781 2.8125 -5.898438 2.96875 -5.296875 C 3.125 -4.703125 3.367188 -4.171875 3.703125 -3.703125 C 4.035156 -3.242188 4.460938 -2.863281 4.984375 -2.5625 C 5.515625 -2.257812 6.144531 -2.066406 6.875 -1.984375 L 6.875 -12.5625 C 6.144531 -12.476562 5.515625 -12.28125 4.984375 -11.96875 C 4.460938 -11.664062 4.035156 -11.28125 3.703125 -10.8125 C 3.367188 -10.351562 3.125 -9.816406 2.96875 -9.203125 C 2.8125 -8.597656 2.734375 -7.945312 2.734375 -7.25 Z M 2.734375 -7.25 "/></g></g></g><g fill="#ec00ff" fill-opacity="0.302"><g transform="translate(105.290949, 105.227743)"><g><path d="M 7.140625 0 C 6.640625 0 6.132812 -0.03125 5.625 -0.09375 C 5.113281 -0.164062 4.625 -0.269531 4.15625 -0.40625 C 3.695312 -0.550781 3.265625 -0.738281 2.859375 -0.96875 C 2.460938 -1.207031 2.117188 -1.5 1.828125 -1.84375 C 1.535156 -2.195312 1.304688 -2.601562 1.140625 -3.0625 C 0.972656 -3.53125 0.890625 -4.070312 0.890625 -4.6875 C 0.890625 -5.5 1.039062 -6.191406 1.34375 -6.765625 C 1.65625 -7.347656 2.066406 -7.828125 2.578125 -8.203125 C 3.097656 -8.585938 3.691406 -8.882812 4.359375 -9.09375 C 5.035156 -9.300781 5.738281 -9.429688 6.46875 -9.484375 L 6.46875 -10.453125 C 6.46875 -10.816406 6.421875 -11.101562 6.328125 -11.3125 C 6.234375 -11.53125 6.113281 -11.691406 5.96875 -11.796875 C 5.820312 -11.910156 5.660156 -11.984375 5.484375 -12.015625 C 5.316406 -12.046875 5.148438 -12.0625 4.984375 -12.0625 C 4.796875 -12.0625 4.597656 -12.035156 4.390625 -11.984375 C 4.179688 -11.929688 3.976562 -11.863281 3.78125 -11.78125 C 3.582031 -11.695312 3.394531 -11.609375 3.21875 -11.515625 C 3.039062 -11.421875 2.894531 -11.335938 2.78125 -11.265625 C 2.71875 -11.234375 2.660156 -11.203125 2.609375 -11.171875 C 2.566406 -11.140625 2.523438 -11.125 2.484375 -11.125 C 2.398438 -11.125 2.320312 -11.1875 2.25 -11.3125 L 1.765625 -12.0625 C 1.722656 -12.132812 1.703125 -12.207031 1.703125 -12.28125 C 1.703125 -12.351562 1.726562 -12.414062 1.78125 -12.46875 C 1.84375 -12.53125 1.90625 -12.578125 1.96875 -12.609375 C 2.269531 -12.828125 2.660156 -13.046875 3.140625 -13.265625 C 3.617188 -13.492188 4.15625 -13.695312 4.75 -13.875 C 5.34375 -14.050781 5.984375 -14.195312 6.671875 -14.3125 C 7.359375 -14.425781 8.070312 -14.484375 8.8125 -14.484375 C 9.507812 -14.484375 10.191406 -14.457031 10.859375 -14.40625 C 11.535156 -14.363281 12.171875 -14.265625 12.765625 -14.109375 C 13.359375 -13.953125 13.898438 -13.726562 14.390625 -13.4375 C 14.878906 -13.15625 15.300781 -12.78125 15.65625 -12.3125 C 16.019531 -11.851562 16.300781 -11.28125 16.5 -10.59375 C 16.695312 -9.914062 16.796875 -9.097656 16.796875 -8.140625 L 16.796875 -1.890625 C 16.796875 -1.578125 16.765625 -1.300781 16.703125 -1.0625 C 16.648438 -0.832031 16.539062 -0.632812 16.375 -0.46875 C 16.21875 -0.3125 16 -0.191406 15.71875 -0.109375 C 15.4375 -0.0351562 15.070312 0 14.625 0 Z M 6.46875 -7.703125 C 5.789062 -7.703125 5.222656 -7.617188 4.765625 -7.453125 C 4.304688 -7.285156 3.9375 -7.0625 3.65625 -6.78125 C 3.375 -6.5 3.171875 -6.171875 3.046875 -5.796875 C 2.929688 -5.429688 2.875 -5.054688 2.875 -4.671875 C 2.875 -4.273438 2.929688 -3.898438 3.046875 -3.546875 C 3.171875 -3.203125 3.375 -2.898438 3.65625 -2.640625 C 3.9375 -2.378906 4.304688 -2.171875 4.765625 -2.015625 C 5.222656 -1.867188 5.789062 -1.796875 6.46875 -1.796875 Z M 6.46875 -7.703125 "/></g></g></g><g fill="#ec00ff" fill-opacity="0.302"><g transform="translate(123.368091, 105.227743)"><g><path d="M 17.203125 -1.953125 C 17.203125 -1.617188 17.171875 -1.332031 17.109375 -1.09375 C 17.054688 -0.851562 16.945312 -0.648438 16.78125 -0.484375 C 16.625 -0.328125 16.40625 -0.207031 16.125 -0.125 C 15.851562 -0.0390625 15.488281 0 15.03125 0 L 8.90625 0 C 8.226562 -0.0195312 7.554688 -0.0820312 6.890625 -0.1875 C 6.222656 -0.289062 5.585938 -0.457031 4.984375 -0.6875 C 4.378906 -0.914062 3.816406 -1.210938 3.296875 -1.578125 C 2.773438 -1.953125 2.328125 -2.40625 1.953125 -2.9375 C 1.578125 -3.46875 1.28125 -4.085938 1.0625 -4.796875 C 0.851562 -5.515625 0.75 -6.335938 0.75 -7.265625 C 0.75 -8.410156 0.910156 -9.394531 1.234375 -10.21875 C 1.554688 -11.050781 2 -11.742188 2.5625 -12.296875 C 3.125 -12.859375 3.773438 -13.300781 4.515625 -13.625 C 5.265625 -13.957031 6.050781 -14.203125 6.875 -14.359375 L 6.875 -21 C 6.875 -21.320312 6.894531 -21.609375 6.9375 -21.859375 C 6.976562 -22.109375 7.070312 -22.3125 7.21875 -22.46875 C 7.375 -22.632812 7.582031 -22.753906 7.84375 -22.828125 C 8.101562 -22.910156 8.457031 -22.953125 8.90625 -22.953125 L 15.03125 -22.953125 C 15.488281 -22.953125 15.851562 -22.910156 16.125 -22.828125 C 16.40625 -22.742188 16.625 -22.625 16.78125 -22.46875 C 16.945312 -22.3125 17.054688 -22.109375 17.109375 -21.859375 C 17.171875 -21.609375 17.203125 -21.328125 17.203125 -21.015625 Z M 2.734375 -7.25 C 2.734375 -6.550781 2.8125 -5.898438 2.96875 -5.296875 C 3.125 -4.703125 3.367188 -4.171875 3.703125 -3.703125 C 4.035156 -3.242188 4.460938 -2.863281 4.984375 -2.5625 C 5.515625 -2.257812 6.144531 -2.066406 6.875 -1.984375 L 6.875 -12.5625 C 6.144531 -12.476562 5.515625 -12.28125 4.984375 -11.96875 C 4.460938 -11.664062 4.035156 -11.28125 3.703125 -10.8125 C 3.367188 -10.351562 3.125 -9.816406 2.96875 -9.203125 C 2.8125 -8.597656 2.734375 -7.945312 2.734375 -7.25 Z M 2.734375 -7.25 "/></g></g></g><g fill="#ec00ff" fill-opacity="0.302"><g transform="translate(141.851624, 105.227743)"><g><path d="M 13.984375 -2.328125 C 14.234375 -2.328125 14.460938 -2.359375 14.671875 -2.421875 C 14.878906 -2.492188 15.0625 -2.570312 15.21875 -2.65625 C 15.382812 -2.738281 15.519531 -2.816406 15.625 -2.890625 C 15.738281 -2.960938 15.820312 -3 15.875 -3 C 15.957031 -3 16.015625 -2.984375 16.046875 -2.953125 C 16.085938 -2.929688 16.128906 -2.878906 16.171875 -2.796875 L 16.671875 -2.046875 C 16.710938 -1.972656 16.734375 -1.90625 16.734375 -1.84375 C 16.734375 -1.78125 16.710938 -1.726562 16.671875 -1.6875 C 16.640625 -1.65625 16.601562 -1.625 16.5625 -1.59375 C 16.257812 -1.382812 15.882812 -1.15625 15.4375 -0.90625 C 14.988281 -0.65625 14.46875 -0.425781 13.875 -0.21875 C 13.28125 -0.0195312 12.609375 0.144531 11.859375 0.28125 C 11.109375 0.414062 10.285156 0.484375 9.390625 0.484375 C 8.691406 0.484375 7.988281 0.425781 7.28125 0.3125 C 6.582031 0.207031 5.910156 0.0351562 5.265625 -0.203125 C 4.628906 -0.453125 4.035156 -0.769531 3.484375 -1.15625 C 2.929688 -1.550781 2.453125 -2.035156 2.046875 -2.609375 C 1.640625 -3.179688 1.320312 -3.84375 1.09375 -4.59375 C 0.863281 -5.34375 0.75 -6.203125 0.75 -7.171875 C 0.75 -8.128906 0.863281 -8.984375 1.09375 -9.734375 C 1.320312 -10.484375 1.640625 -11.144531 2.046875 -11.71875 C 2.453125 -12.289062 2.929688 -12.773438 3.484375 -13.171875 C 4.035156 -13.566406 4.628906 -13.882812 5.265625 -14.125 C 5.910156 -14.375 6.582031 -14.554688 7.28125 -14.671875 C 7.988281 -14.785156 8.691406 -14.84375 9.390625 -14.84375 C 10.554688 -14.84375 11.640625 -14.710938 12.640625 -14.453125 C 13.648438 -14.191406 14.523438 -13.757812 15.265625 -13.15625 C 16.003906 -12.5625 16.582031 -11.773438 17 -10.796875 C 17.414062 -9.828125 17.625 -8.640625 17.625 -7.234375 L 17.625 -6.453125 C 17.625 -6.273438 17.582031 -6.140625 17.5 -6.046875 C 17.414062 -5.960938 17.273438 -5.921875 17.078125 -5.921875 L 11.28125 -5.921875 C 11.351562 -5.222656 11.484375 -4.640625 11.671875 -4.171875 C 11.867188 -3.710938 12.09375 -3.34375 12.34375 -3.0625 C 12.59375 -2.789062 12.859375 -2.597656 13.140625 -2.484375 C 13.429688 -2.378906 13.710938 -2.328125 13.984375 -2.328125 Z M 15.640625 -7.640625 C 15.640625 -8.390625 15.582031 -9.007812 15.46875 -9.5 C 15.351562 -9.988281 15.195312 -10.378906 15 -10.671875 C 14.800781 -10.960938 14.566406 -11.171875 14.296875 -11.296875 C 14.035156 -11.421875 13.757812 -11.484375 13.46875 -11.484375 C 13.25 -11.484375 13.015625 -11.4375 12.765625 -11.34375 C 12.515625 -11.257812 12.28125 -11.082031 12.0625 -10.8125 C 11.84375 -10.539062 11.65625 -10.15625 11.5 -9.65625 C 11.34375 -9.15625 11.25 -8.484375 11.21875 -7.640625 Z M 15.640625 -7.640625 "/></g></g></g><g fill="#ec00ff" fill-opacity="0.302"><g transform="translate(160.223051, 105.227743)"><g><path d="M 11.28125 -14.84375 C 11.875 -14.84375 12.46875 -14.804688 13.0625 -14.734375 C 13.664062 -14.660156 14.234375 -14.566406 14.765625 -14.453125 C 15.304688 -14.347656 15.800781 -14.226562 16.25 -14.09375 C 16.695312 -13.957031 17.0625 -13.820312 17.34375 -13.6875 C 17.382812 -13.675781 17.429688 -13.648438 17.484375 -13.609375 C 17.535156 -13.566406 17.5625 -13.5 17.5625 -13.40625 C 17.5625 -13.375 17.554688 -13.332031 17.546875 -13.28125 C 17.535156 -13.238281 17.523438 -13.191406 17.515625 -13.140625 L 17.34375 -12.3125 C 17.332031 -12.207031 17.304688 -12.140625 17.265625 -12.109375 C 17.234375 -12.085938 17.207031 -12.078125 17.1875 -12.078125 C 17.132812 -12.078125 17.039062 -12.09375 16.90625 -12.125 C 16.78125 -12.15625 16.644531 -12.171875 16.5 -12.171875 C 15.96875 -12.171875 15.546875 -12.023438 15.234375 -11.734375 C 14.921875 -11.453125 14.722656 -10.957031 14.640625 -10.25 L 13.859375 -3.703125 C 13.785156 -3.117188 13.59375 -2.570312 13.28125 -2.0625 C 12.96875 -1.5625 12.515625 -1.117188 11.921875 -0.734375 C 11.335938 -0.359375 10.613281 -0.0625 9.75 0.15625 C 8.882812 0.375 7.875 0.484375 6.71875 0.484375 C 5.988281 0.484375 5.273438 0.4375 4.578125 0.34375 C 3.890625 0.257812 3.253906 0.15625 2.671875 0.03125 C 2.085938 -0.09375 1.578125 -0.21875 1.140625 -0.34375 C 0.703125 -0.46875 0.378906 -0.566406 0.171875 -0.640625 C 0.0976562 -0.660156 0.0390625 -0.6875 0 -0.71875 C -0.0390625 -0.75 -0.0625 -0.804688 -0.0625 -0.890625 C -0.0625 -0.921875 -0.0546875 -0.957031 -0.046875 -1 C -0.046875 -1.050781 -0.0351562 -1.109375 -0.015625 -1.171875 L 0.15625 -1.96875 C 0.175781 -2.039062 0.207031 -2.097656 0.25 -2.140625 C 0.300781 -2.191406 0.382812 -2.21875 0.5 -2.21875 C 0.8125 -2.21875 1.125 -2.234375 1.4375 -2.265625 C 1.75 -2.296875 2.035156 -2.378906 2.296875 -2.515625 C 2.566406 -2.660156 2.800781 -2.878906 3 -3.171875 C 3.207031 -3.460938 3.347656 -3.867188 3.421875 -4.390625 L 4.40625 -11.140625 C 4.507812 -11.847656 4.769531 -12.441406 5.1875 -12.921875 C 5.601562 -13.398438 6.125 -13.78125 6.75 -14.0625 C 7.375 -14.34375 8.078125 -14.539062 8.859375 -14.65625 C 9.640625 -14.78125 10.445312 -14.84375 11.28125 -14.84375 Z M 11.28125 -14.84375 "/></g></g></g><g fill="#ec00ff" fill-opacity="0.502"><g transform="translate(13.212301, 104.363863)"><g><path d="M 17.359375 -20.125 C 17.535156 -20.125 17.691406 -20.066406 17.828125 -19.953125 C 17.972656 -19.847656 18.046875 -19.632812 18.046875 -19.3125 L 18.046875 -1.03125 C 18.046875 -0.34375 17.722656 0 17.078125 0 L 12.203125 0 C 11.898438 0 11.644531 -0.0546875 11.4375 -0.171875 C 11.238281 -0.296875 11.0625 -0.441406 10.90625 -0.609375 L 3.734375 -8.09375 C 3.816406 -6.882812 3.898438 -5.769531 3.984375 -4.75 C 4.003906 -4.3125 4.035156 -3.875 4.078125 -3.4375 C 4.117188 -3.007812 4.148438 -2.609375 4.171875 -2.234375 C 4.203125 -1.867188 4.226562 -1.546875 4.25 -1.265625 C 4.269531 -0.984375 4.285156 -0.78125 4.296875 -0.65625 C 4.316406 -0.5 4.289062 -0.347656 4.21875 -0.203125 C 4.15625 -0.0664062 3.992188 0 3.734375 0 L 1.96875 0 C 1.800781 0 1.644531 -0.0507812 1.5 -0.15625 C 1.363281 -0.269531 1.296875 -0.484375 1.296875 -0.796875 L 1.296875 -19.09375 C 1.296875 -19.78125 1.675781 -20.125 2.4375 -20.125 L 7.171875 -20.125 C 7.523438 -20.125 7.820312 -20.046875 8.0625 -19.890625 C 8.300781 -19.742188 8.539062 -19.550781 8.78125 -19.3125 L 15.609375 -12.546875 C 15.515625 -13.660156 15.429688 -14.6875 15.359375 -15.625 C 15.316406 -16.03125 15.28125 -16.429688 15.25 -16.828125 C 15.21875 -17.234375 15.1875 -17.609375 15.15625 -17.953125 C 15.132812 -18.304688 15.109375 -18.613281 15.078125 -18.875 C 15.054688 -19.132812 15.039062 -19.332031 15.03125 -19.46875 C 15.019531 -19.613281 15.050781 -19.757812 15.125 -19.90625 C 15.207031 -20.050781 15.394531 -20.125 15.6875 -20.125 Z M 17.359375 -20.125 "/></g></g></g><g fill="#ec00ff" fill-opacity="0.502"><g transform="translate(32.550639, 104.363863)"><g><path d="M 9.390625 0.484375 C 8.691406 0.484375 7.988281 0.425781 7.28125 0.3125 C 6.582031 0.207031 5.910156 0.0351562 5.265625 -0.203125 C 4.628906 -0.453125 4.035156 -0.769531 3.484375 -1.15625 C 2.929688 -1.550781 2.453125 -2.035156 2.046875 -2.609375 C 1.640625 -3.179688 1.320312 -3.84375 1.09375 -4.59375 C 0.863281 -5.34375 0.75 -6.203125 0.75 -7.171875 C 0.75 -8.128906 0.863281 -8.984375 1.09375 -9.734375 C 1.320312 -10.484375 1.640625 -11.144531 2.046875 -11.71875 C 2.453125 -12.289062 2.929688 -12.773438 3.484375 -13.171875 C 4.035156 -13.566406 4.628906 -13.882812 5.265625 -14.125 C 5.910156 -14.375 6.582031 -14.554688 7.28125 -14.671875 C 7.988281 -14.785156 8.691406 -14.84375 9.390625 -14.84375 C 10.035156 -14.84375 10.695312 -14.800781 11.375 -14.71875 C 12.050781 -14.644531 12.707031 -14.5 13.34375 -14.28125 C 13.988281 -14.070312 14.59375 -13.785156 15.15625 -13.421875 C 15.71875 -13.066406 16.210938 -12.609375 16.640625 -12.046875 C 17.066406 -11.492188 17.40625 -10.828125 17.65625 -10.046875 C 17.90625 -9.265625 18.03125 -8.34375 18.03125 -7.28125 C 18.03125 -6.195312 17.90625 -5.25 17.65625 -4.4375 C 17.414062 -3.632812 17.082031 -2.945312 16.65625 -2.375 C 16.226562 -1.800781 15.734375 -1.328125 15.171875 -0.953125 C 14.617188 -0.578125 14.019531 -0.285156 13.375 -0.078125 C 12.738281 0.128906 12.078125 0.273438 11.390625 0.359375 C 10.710938 0.441406 10.046875 0.484375 9.390625 0.484375 Z M 13.6875 -2.875 C 13.976562 -2.875 14.265625 -2.9375 14.546875 -3.0625 C 14.835938 -3.1875 15.09375 -3.410156 15.3125 -3.734375 C 15.53125 -4.066406 15.707031 -4.519531 15.84375 -5.09375 C 15.976562 -5.664062 16.046875 -6.394531 16.046875 -7.28125 C 16.046875 -8.125 15.976562 -8.816406 15.84375 -9.359375 C 15.707031 -9.898438 15.523438 -10.328125 15.296875 -10.640625 C 15.078125 -10.953125 14.828125 -11.171875 14.546875 -11.296875 C 14.265625 -11.421875 13.976562 -11.484375 13.6875 -11.484375 C 13.46875 -11.484375 13.21875 -11.4375 12.9375 -11.34375 C 12.664062 -11.25 12.410156 -11.046875 12.171875 -10.734375 C 11.929688 -10.429688 11.734375 -10 11.578125 -9.4375 C 11.421875 -8.875 11.34375 -8.117188 11.34375 -7.171875 C 11.34375 -6.234375 11.40625 -5.476562 11.53125 -4.90625 C 11.664062 -4.332031 11.835938 -3.894531 12.046875 -3.59375 C 12.265625 -3.300781 12.515625 -3.109375 12.796875 -3.015625 C 13.085938 -2.921875 13.382812 -2.875 13.6875 -2.875 Z M 13.6875 -2.875 "/></g></g></g><g fill="#ec00ff" fill-opacity="0.502"><g transform="translate(51.314438, 104.363863)"><g><path d="M 11.25 -8.265625 L 13.203125 -13.53125 C 13.285156 -13.769531 13.375 -13.96875 13.46875 -14.125 C 13.570312 -14.28125 13.773438 -14.359375 14.078125 -14.359375 L 15.5625 -14.359375 C 15.832031 -14.359375 15.96875 -14.273438 15.96875 -14.109375 C 15.96875 -14.003906 15.914062 -13.835938 15.8125 -13.609375 L 10.4375 -0.953125 C 10.3125 -0.628906 10.164062 -0.390625 10 -0.234375 C 9.832031 -0.078125 9.601562 0 9.3125 0 L 7.09375 0 C 6.894531 0 6.726562 -0.03125 6.59375 -0.09375 C 6.46875 -0.15625 6.359375 -0.234375 6.265625 -0.328125 C 6.179688 -0.421875 6.109375 -0.519531 6.046875 -0.625 C 5.992188 -0.726562 5.953125 -0.828125 5.921875 -0.921875 L 0.140625 -13.171875 C 0.0546875 -13.347656 0.015625 -13.515625 0.015625 -13.671875 C 0.015625 -13.910156 0.101562 -14.082031 0.28125 -14.1875 C 0.457031 -14.300781 0.640625 -14.359375 0.828125 -14.359375 L 7.671875 -14.359375 C 7.898438 -14.359375 8.09375 -14.347656 8.25 -14.328125 C 8.414062 -14.304688 8.546875 -14.269531 8.640625 -14.21875 C 8.742188 -14.164062 8.828125 -14.101562 8.890625 -14.03125 C 8.960938 -13.957031 9.019531 -13.863281 9.0625 -13.75 Z M 11.25 -8.265625 "/></g></g></g><g fill="#ec00ff" fill-opacity="0.502"><g transform="translate(67.289587, 104.363863)"><g><path d="M 13.984375 -2.328125 C 14.234375 -2.328125 14.460938 -2.359375 14.671875 -2.421875 C 14.878906 -2.492188 15.0625 -2.570312 15.21875 -2.65625 C 15.382812 -2.738281 15.519531 -2.816406 15.625 -2.890625 C 15.738281 -2.960938 15.820312 -3 15.875 -3 C 15.957031 -3 16.015625 -2.984375 16.046875 -2.953125 C 16.085938 -2.929688 16.128906 -2.878906 16.171875 -2.796875 L 16.671875 -2.046875 C 16.710938 -1.972656 16.734375 -1.90625 16.734375 -1.84375 C 16.734375 -1.78125 16.710938 -1.726562 16.671875 -1.6875 C 16.640625 -1.65625 16.601562 -1.625 16.5625 -1.59375 C 16.257812 -1.382812 15.882812 -1.15625 15.4375 -0.90625 C 14.988281 -0.65625 14.46875 -0.425781 13.875 -0.21875 C 13.28125 -0.0195312 12.609375 0.144531 11.859375 0.28125 C 11.109375 0.414062 10.285156 0.484375 9.390625 0.484375 C 8.691406 0.484375 7.988281 0.425781 7.28125 0.3125 C 6.582031 0.207031 5.910156 0.0351562 5.265625 -0.203125 C 4.628906 -0.453125 4.035156 -0.769531 3.484375 -1.15625 C 2.929688 -1.550781 2.453125 -2.035156 2.046875 -2.609375 C 1.640625 -3.179688 1.320312 -3.84375 1.09375 -4.59375 C 0.863281 -5.34375 0.75 -6.203125 0.75 -7.171875 C 0.75 -8.128906 0.863281 -8.984375 1.09375 -9.734375 C 1.320312 -10.484375 1.640625 -11.144531 2.046875 -11.71875 C 2.453125 -12.289062 2.929688 -12.773438 3.484375 -13.171875 C 4.035156 -13.566406 4.628906 -13.882812 5.265625 -14.125 C 5.910156 -14.375 6.582031 -14.554688 7.28125 -14.671875 C 7.988281 -14.785156 8.691406 -14.84375 9.390625 -14.84375 C 10.554688 -14.84375 11.640625 -14.710938 12.640625 -14.453125 C 13.648438 -14.191406 14.523438 -13.757812 15.265625 -13.15625 C 16.003906 -12.5625 16.582031 -11.773438 17 -10.796875 C 17.414062 -9.828125 17.625 -8.640625 17.625 -7.234375 L 17.625 -6.453125 C 17.625 -6.273438 17.582031 -6.140625 17.5 -6.046875 C 17.414062 -5.960938 17.273438 -5.921875 17.078125 -5.921875 L 11.28125 -5.921875 C 11.351562 -5.222656 11.484375 -4.640625 11.671875 -4.171875 C 11.867188 -3.710938 12.09375 -3.34375 12.34375 -3.0625 C 12.59375 -2.789062 12.859375 -2.597656 13.140625 -2.484375 C 13.429688 -2.378906 13.710938 -2.328125 13.984375 -2.328125 Z M 15.640625 -7.640625 C 15.640625 -8.390625 15.582031 -9.007812 15.46875 -9.5 C 15.351562 -9.988281 15.195312 -10.378906 15 -10.671875 C 14.800781 -10.960938 14.566406 -11.171875 14.296875 -11.296875 C 14.035156 -11.421875 13.757812 -11.484375 13.46875 -11.484375 C 13.25 -11.484375 13.015625 -11.4375 12.765625 -11.34375 C 12.515625 -11.257812 12.28125 -11.082031 12.0625 -10.8125 C 11.84375 -10.539062 11.65625 -10.15625 11.5 -9.65625 C 11.34375 -9.15625 11.25 -8.484375 11.21875 -7.640625 Z M 15.640625 -7.640625 "/></g></g></g><g fill="#ec00ff" fill-opacity="0.502"><g transform="translate(85.661014, 104.363863)"><g><path d="M 17.203125 -1.953125 C 17.203125 -1.617188 17.171875 -1.332031 17.109375 -1.09375 C 17.054688 -0.851562 16.945312 -0.648438 16.78125 -0.484375 C 16.625 -0.328125 16.40625 -0.207031 16.125 -0.125 C 15.851562 -0.0390625 15.488281 0 15.03125 0 L 8.90625 0 C 8.226562 -0.0195312 7.554688 -0.0820312 6.890625 -0.1875 C 6.222656 -0.289062 5.585938 -0.457031 4.984375 -0.6875 C 4.378906 -0.914062 3.816406 -1.210938 3.296875 -1.578125 C 2.773438 -1.953125 2.328125 -2.40625 1.953125 -2.9375 C 1.578125 -3.46875 1.28125 -4.085938 1.0625 -4.796875 C 0.851562 -5.515625 0.75 -6.335938 0.75 -7.265625 C 0.75 -8.410156 0.910156 -9.394531 1.234375 -10.21875 C 1.554688 -11.050781 2 -11.742188 2.5625 -12.296875 C 3.125 -12.859375 3.773438 -13.300781 4.515625 -13.625 C 5.265625 -13.957031 6.050781 -14.203125 6.875 -14.359375 L 6.875 -21 C 6.875 -21.320312 6.894531 -21.609375 6.9375 -21.859375 C 6.976562 -22.109375 7.070312 -22.3125 7.21875 -22.46875 C 7.375 -22.632812 7.582031 -22.753906 7.84375 -22.828125 C 8.101562 -22.910156 8.457031 -22.953125 8.90625 -22.953125 L 15.03125 -22.953125 C 15.488281 -22.953125 15.851562 -22.910156 16.125 -22.828125 C 16.40625 -22.742188 16.625 -22.625 16.78125 -22.46875 C 16.945312 -22.3125 17.054688 -22.109375 17.109375 -21.859375 C 17.171875 -21.609375 17.203125 -21.328125 17.203125 -21.015625 Z M 2.734375 -7.25 C 2.734375 -6.550781 2.8125 -5.898438 2.96875 -5.296875 C 3.125 -4.703125 3.367188 -4.171875 3.703125 -3.703125 C 4.035156 -3.242188 4.460938 -2.863281 4.984375 -2.5625 C 5.515625 -2.257812 6.144531 -2.066406 6.875 -1.984375 L 6.875 -12.5625 C 6.144531 -12.476562 5.515625 -12.28125 4.984375 -11.96875 C 4.460938 -11.664062 4.035156 -11.28125 3.703125 -10.8125 C 3.367188 -10.351562 3.125 -9.816406 2.96875 -9.203125 C 2.8125 -8.597656 2.734375 -7.945312 2.734375 -7.25 Z M 2.734375 -7.25 "/></g></g></g><g fill="#ec00ff" fill-opacity="0.502"><g transform="translate(104.144547, 104.363863)"><g><path d="M 7.140625 0 C 6.640625 0 6.132812 -0.03125 5.625 -0.09375 C 5.113281 -0.164062 4.625 -0.269531 4.15625 -0.40625 C 3.695312 -0.550781 3.265625 -0.738281 2.859375 -0.96875 C 2.460938 -1.207031 2.117188 -1.5 1.828125 -1.84375 C 1.535156 -2.195312 1.304688 -2.601562 1.140625 -3.0625 C 0.972656 -3.53125 0.890625 -4.070312 0.890625 -4.6875 C 0.890625 -5.5 1.039062 -6.191406 1.34375 -6.765625 C 1.65625 -7.347656 2.066406 -7.828125 2.578125 -8.203125 C 3.097656 -8.585938 3.691406 -8.882812 4.359375 -9.09375 C 5.035156 -9.300781 5.738281 -9.429688 6.46875 -9.484375 L 6.46875 -10.453125 C 6.46875 -10.816406 6.421875 -11.101562 6.328125 -11.3125 C 6.234375 -11.53125 6.113281 -11.691406 5.96875 -11.796875 C 5.820312 -11.910156 5.660156 -11.984375 5.484375 -12.015625 C 5.316406 -12.046875 5.148438 -12.0625 4.984375 -12.0625 C 4.796875 -12.0625 4.597656 -12.035156 4.390625 -11.984375 C 4.179688 -11.929688 3.976562 -11.863281 3.78125 -11.78125 C 3.582031 -11.695312 3.394531 -11.609375 3.21875 -11.515625 C 3.039062 -11.421875 2.894531 -11.335938 2.78125 -11.265625 C 2.71875 -11.234375 2.660156 -11.203125 2.609375 -11.171875 C 2.566406 -11.140625 2.523438 -11.125 2.484375 -11.125 C 2.398438 -11.125 2.320312 -11.1875 2.25 -11.3125 L 1.765625 -12.0625 C 1.722656 -12.132812 1.703125 -12.207031 1.703125 -12.28125 C 1.703125 -12.351562 1.726562 -12.414062 1.78125 -12.46875 C 1.84375 -12.53125 1.90625 -12.578125 1.96875 -12.609375 C 2.269531 -12.828125 2.660156 -13.046875 3.140625 -13.265625 C 3.617188 -13.492188 4.15625 -13.695312 4.75 -13.875 C 5.34375 -14.050781 5.984375 -14.195312 6.671875 -14.3125 C 7.359375 -14.425781 8.070312 -14.484375 8.8125 -14.484375 C 9.507812 -14.484375 10.191406 -14.457031 10.859375 -14.40625 C 11.535156 -14.363281 12.171875 -14.265625 12.765625 -14.109375 C 13.359375 -13.953125 13.898438 -13.726562 14.390625 -13.4375 C 14.878906 -13.15625 15.300781 -12.78125 15.65625 -12.3125 C 16.019531 -11.851562 16.300781 -11.28125 16.5 -10.59375 C 16.695312 -9.914062 16.796875 -9.097656 16.796875 -8.140625 L 16.796875 -1.890625 C 16.796875 -1.578125 16.765625 -1.300781 16.703125 -1.0625 C 16.648438 -0.832031 16.539062 -0.632812 16.375 -0.46875 C 16.21875 -0.3125 16 -0.191406 15.71875 -0.109375 C 15.4375 -0.0351562 15.070312 0 14.625 0 Z M 6.46875 -7.703125 C 5.789062 -7.703125 5.222656 -7.617188 4.765625 -7.453125 C 4.304688 -7.285156 3.9375 -7.0625 3.65625 -6.78125 C 3.375 -6.5 3.171875 -6.171875 3.046875 -5.796875 C 2.929688 -5.429688 2.875 -5.054688 2.875 -4.671875 C 2.875 -4.273438 2.929688 -3.898438 3.046875 -3.546875 C 3.171875 -3.203125 3.375 -2.898438 3.65625 -2.640625 C 3.9375 -2.378906 4.304688 -2.171875 4.765625 -2.015625 C 5.222656 -1.867188 5.789062 -1.796875 6.46875 -1.796875 Z M 6.46875 -7.703125 "/></g></g></g><g fill="#ec00ff" fill-opacity="0.502"><g transform="translate(122.221689, 104.363863)"><g><path d="M 17.203125 -1.953125 C 17.203125 -1.617188 17.171875 -1.332031 17.109375 -1.09375 C 17.054688 -0.851562 16.945312 -0.648438 16.78125 -0.484375 C 16.625 -0.328125 16.40625 -0.207031 16.125 -0.125 C 15.851562 -0.0390625 15.488281 0 15.03125 0 L 8.90625 0 C 8.226562 -0.0195312 7.554688 -0.0820312 6.890625 -0.1875 C 6.222656 -0.289062 5.585938 -0.457031 4.984375 -0.6875 C 4.378906 -0.914062 3.816406 -1.210938 3.296875 -1.578125 C 2.773438 -1.953125 2.328125 -2.40625 1.953125 -2.9375 C 1.578125 -3.46875 1.28125 -4.085938 1.0625 -4.796875 C 0.851562 -5.515625 0.75 -6.335938 0.75 -7.265625 C 0.75 -8.410156 0.910156 -9.394531 1.234375 -10.21875 C 1.554688 -11.050781 2 -11.742188 2.5625 -12.296875 C 3.125 -12.859375 3.773438 -13.300781 4.515625 -13.625 C 5.265625 -13.957031 6.050781 -14.203125 6.875 -14.359375 L 6.875 -21 C 6.875 -21.320312 6.894531 -21.609375 6.9375 -21.859375 C 6.976562 -22.109375 7.070312 -22.3125 7.21875 -22.46875 C 7.375 -22.632812 7.582031 -22.753906 7.84375 -22.828125 C 8.101562 -22.910156 8.457031 -22.953125 8.90625 -22.953125 L 15.03125 -22.953125 C 15.488281 -22.953125 15.851562 -22.910156 16.125 -22.828125 C 16.40625 -22.742188 16.625 -22.625 16.78125 -22.46875 C 16.945312 -22.3125 17.054688 -22.109375 17.109375 -21.859375 C 17.171875 -21.609375 17.203125 -21.328125 17.203125 -21.015625 Z M 2.734375 -7.25 C 2.734375 -6.550781 2.8125 -5.898438 2.96875 -5.296875 C 3.125 -4.703125 3.367188 -4.171875 3.703125 -3.703125 C 4.035156 -3.242188 4.460938 -2.863281 4.984375 -2.5625 C 5.515625 -2.257812 6.144531 -2.066406 6.875 -1.984375 L 6.875 -12.5625 C 6.144531 -12.476562 5.515625 -12.28125 4.984375 -11.96875 C 4.460938 -11.664062 4.035156 -11.28125 3.703125 -10.8125 C 3.367188 -10.351562 3.125 -9.816406 2.96875 -9.203125 C 2.8125 -8.597656 2.734375 -7.945312 2.734375 -7.25 Z M 2.734375 -7.25 "/></g></g></g><g fill="#ec00ff" fill-opacity="0.502"><g transform="translate(140.705222, 104.363863)"><g><path d="M 13.984375 -2.328125 C 14.234375 -2.328125 14.460938 -2.359375 14.671875 -2.421875 C 14.878906 -2.492188 15.0625 -2.570312 15.21875 -2.65625 C 15.382812 -2.738281 15.519531 -2.816406 15.625 -2.890625 C 15.738281 -2.960938 15.820312 -3 15.875 -3 C 15.957031 -3 16.015625 -2.984375 16.046875 -2.953125 C 16.085938 -2.929688 16.128906 -2.878906 16.171875 -2.796875 L 16.671875 -2.046875 C 16.710938 -1.972656 16.734375 -1.90625 16.734375 -1.84375 C 16.734375 -1.78125 16.710938 -1.726562 16.671875 -1.6875 C 16.640625 -1.65625 16.601562 -1.625 16.5625 -1.59375 C 16.257812 -1.382812 15.882812 -1.15625 15.4375 -0.90625 C 14.988281 -0.65625 14.46875 -0.425781 13.875 -0.21875 C 13.28125 -0.0195312 12.609375 0.144531 11.859375 0.28125 C 11.109375 0.414062 10.285156 0.484375 9.390625 0.484375 C 8.691406 0.484375 7.988281 0.425781 7.28125 0.3125 C 6.582031 0.207031 5.910156 0.0351562 5.265625 -0.203125 C 4.628906 -0.453125 4.035156 -0.769531 3.484375 -1.15625 C 2.929688 -1.550781 2.453125 -2.035156 2.046875 -2.609375 C 1.640625 -3.179688 1.320312 -3.84375 1.09375 -4.59375 C 0.863281 -5.34375 0.75 -6.203125 0.75 -7.171875 C 0.75 -8.128906 0.863281 -8.984375 1.09375 -9.734375 C 1.320312 -10.484375 1.640625 -11.144531 2.046875 -11.71875 C 2.453125 -12.289062 2.929688 -12.773438 3.484375 -13.171875 C 4.035156 -13.566406 4.628906 -13.882812 5.265625 -14.125 C 5.910156 -14.375 6.582031 -14.554688 7.28125 -14.671875 C 7.988281 -14.785156 8.691406 -14.84375 9.390625 -14.84375 C 10.554688 -14.84375 11.640625 -14.710938 12.640625 -14.453125 C 13.648438 -14.191406 14.523438 -13.757812 15.265625 -13.15625 C 16.003906 -12.5625 16.582031 -11.773438 17 -10.796875 C 17.414062 -9.828125 17.625 -8.640625 17.625 -7.234375 L 17.625 -6.453125 C 17.625 -6.273438 17.582031 -6.140625 17.5 -6.046875 C 17.414062 -5.960938 17.273438 -5.921875 17.078125 -5.921875 L 11.28125 -5.921875 C 11.351562 -5.222656 11.484375 -4.640625 11.671875 -4.171875 C 11.867188 -3.710938 12.09375 -3.34375 12.34375 -3.0625 C 12.59375 -2.789062 12.859375 -2.597656 13.140625 -2.484375 C 13.429688 -2.378906 13.710938 -2.328125 13.984375 -2.328125 Z M 15.640625 -7.640625 C 15.640625 -8.390625 15.582031 -9.007812 15.46875 -9.5 C 15.351562 -9.988281 15.195312 -10.378906 15 -10.671875 C 14.800781 -10.960938 14.566406 -11.171875 14.296875 -11.296875 C 14.035156 -11.421875 13.757812 -11.484375 13.46875 -11.484375 C 13.25 -11.484375 13.015625 -11.4375 12.765625 -11.34375 C 12.515625 -11.257812 12.28125 -11.082031 12.0625 -10.8125 C 11.84375 -10.539062 11.65625 -10.15625 11.5 -9.65625 C 11.34375 -9.15625 11.25 -8.484375 11.21875 -7.640625 Z M 15.640625 -7.640625 "/></g></g></g><g fill="#ec00ff" fill-opacity="0.502"><g transform="translate(159.076649, 104.363863)"><g><path d="M 11.28125 -14.84375 C 11.875 -14.84375 12.46875 -14.804688 13.0625 -14.734375 C 13.664062 -14.660156 14.234375 -14.566406 14.765625 -14.453125 C 15.304688 -14.347656 15.800781 -14.226562 16.25 -14.09375 C 16.695312 -13.957031 17.0625 -13.820312 17.34375 -13.6875 C 17.382812 -13.675781 17.429688 -13.648438 17.484375 -13.609375 C 17.535156 -13.566406 17.5625 -13.5 17.5625 -13.40625 C 17.5625 -13.375 17.554688 -13.332031 17.546875 -13.28125 C 17.535156 -13.238281 17.523438 -13.191406 17.515625 -13.140625 L 17.34375 -12.3125 C 17.332031 -12.207031 17.304688 -12.140625 17.265625 -12.109375 C 17.234375 -12.085938 17.207031 -12.078125 17.1875 -12.078125 C 17.132812 -12.078125 17.039062 -12.09375 16.90625 -12.125 C 16.78125 -12.15625 16.644531 -12.171875 16.5 -12.171875 C 15.96875 -12.171875 15.546875 -12.023438 15.234375 -11.734375 C 14.921875 -11.453125 14.722656 -10.957031 14.640625 -10.25 L 13.859375 -3.703125 C 13.785156 -3.117188 13.59375 -2.570312 13.28125 -2.0625 C 12.96875 -1.5625 12.515625 -1.117188 11.921875 -0.734375 C 11.335938 -0.359375 10.613281 -0.0625 9.75 0.15625 C 8.882812 0.375 7.875 0.484375 6.71875 0.484375 C 5.988281 0.484375 5.273438 0.4375 4.578125 0.34375 C 3.890625 0.257812 3.253906 0.15625 2.671875 0.03125 C 2.085938 -0.09375 1.578125 -0.21875 1.140625 -0.34375 C 0.703125 -0.46875 0.378906 -0.566406 0.171875 -0.640625 C 0.0976562 -0.660156 0.0390625 -0.6875 0 -0.71875 C -0.0390625 -0.75 -0.0625 -0.804688 -0.0625 -0.890625 C -0.0625 -0.921875 -0.0546875 -0.957031 -0.046875 -1 C -0.046875 -1.050781 -0.0351562 -1.109375 -0.015625 -1.171875 L 0.15625 -1.96875 C 0.175781 -2.039062 0.207031 -2.097656 0.25 -2.140625 C 0.300781 -2.191406 0.382812 -2.21875 0.5 -2.21875 C 0.8125 -2.21875 1.125 -2.234375 1.4375 -2.265625 C 1.75 -2.296875 2.035156 -2.378906 2.296875 -2.515625 C 2.566406 -2.660156 2.800781 -2.878906 3 -3.171875 C 3.207031 -3.460938 3.347656 -3.867188 3.421875 -4.390625 L 4.40625 -11.140625 C 4.507812 -11.847656 4.769531 -12.441406 5.1875 -12.921875 C 5.601562 -13.398438 6.125 -13.78125 6.75 -14.0625 C 7.375 -14.34375 8.078125 -14.539062 8.859375 -14.65625 C 9.640625 -14.78125 10.445312 -14.84375 11.28125 -14.84375 Z M 11.28125 -14.84375 "/></g></g></g><g fill="#fffd47" fill-opacity="1"><g transform="translate(12.065899, 103.499989)"><g><path d="M 17.359375 -20.125 C 17.535156 -20.125 17.691406 -20.066406 17.828125 -19.953125 C 17.972656 -19.847656 18.046875 -19.632812 18.046875 -19.3125 L 18.046875 -1.03125 C 18.046875 -0.34375 17.722656 0 17.078125 0 L 12.203125 0 C 11.898438 0 11.644531 -0.0546875 11.4375 -0.171875 C 11.238281 -0.296875 11.0625 -0.441406 10.90625 -0.609375 L 3.734375 -8.09375 C 3.816406 -6.882812 3.898438 -5.769531 3.984375 -4.75 C 4.003906 -4.3125 4.035156 -3.875 4.078125 -3.4375 C 4.117188 -3.007812 4.148438 -2.609375 4.171875 -2.234375 C 4.203125 -1.867188 4.226562 -1.546875 4.25 -1.265625 C 4.269531 -0.984375 4.285156 -0.78125 4.296875 -0.65625 C 4.316406 -0.5 4.289062 -0.347656 4.21875 -0.203125 C 4.15625 -0.0664062 3.992188 0 3.734375 0 L 1.96875 0 C 1.800781 0 1.644531 -0.0507812 1.5 -0.15625 C 1.363281 -0.269531 1.296875 -0.484375 1.296875 -0.796875 L 1.296875 -19.09375 C 1.296875 -19.78125 1.675781 -20.125 2.4375 -20.125 L 7.171875 -20.125 C 7.523438 -20.125 7.820312 -20.046875 8.0625 -19.890625 C 8.300781 -19.742188 8.539062 -19.550781 8.78125 -19.3125 L 15.609375 -12.546875 C 15.515625 -13.660156 15.429688 -14.6875 15.359375 -15.625 C 15.316406 -16.03125 15.28125 -16.429688 15.25 -16.828125 C 15.21875 -17.234375 15.1875 -17.609375 15.15625 -17.953125 C 15.132812 -18.304688 15.109375 -18.613281 15.078125 -18.875 C 15.054688 -19.132812 15.039062 -19.332031 15.03125 -19.46875 C 15.019531 -19.613281 15.050781 -19.757812 15.125 -19.90625 C 15.207031 -20.050781 15.394531 -20.125 15.6875 -20.125 Z M 17.359375 -20.125 "/></g></g></g><g fill="#fffd47" fill-opacity="1"><g transform="translate(31.404237, 103.499989)"><g><path d="M 9.390625 0.484375 C 8.691406 0.484375 7.988281 0.425781 7.28125 0.3125 C 6.582031 0.207031 5.910156 0.0351562 5.265625 -0.203125 C 4.628906 -0.453125 4.035156 -0.769531 3.484375 -1.15625 C 2.929688 -1.550781 2.453125 -2.035156 2.046875 -2.609375 C 1.640625 -3.179688 1.320312 -3.84375 1.09375 -4.59375 C 0.863281 -5.34375 0.75 -6.203125 0.75 -7.171875 C 0.75 -8.128906 0.863281 -8.984375 1.09375 -9.734375 C 1.320312 -10.484375 1.640625 -11.144531 2.046875 -11.71875 C 2.453125 -12.289062 2.929688 -12.773438 3.484375 -13.171875 C 4.035156 -13.566406 4.628906 -13.882812 5.265625 -14.125 C 5.910156 -14.375 6.582031 -14.554688 7.28125 -14.671875 C 7.988281 -14.785156 8.691406 -14.84375 9.390625 -14.84375 C 10.035156 -14.84375 10.695312 -14.800781 11.375 -14.71875 C 12.050781 -14.644531 12.707031 -14.5 13.34375 -14.28125 C 13.988281 -14.070312 14.59375 -13.785156 15.15625 -13.421875 C 15.71875 -13.066406 16.210938 -12.609375 16.640625 -12.046875 C 17.066406 -11.492188 17.40625 -10.828125 17.65625 -10.046875 C 17.90625 -9.265625 18.03125 -8.34375 18.03125 -7.28125 C 18.03125 -6.195312 17.90625 -5.25 17.65625 -4.4375 C 17.414062 -3.632812 17.082031 -2.945312 16.65625 -2.375 C 16.226562 -1.800781 15.734375 -1.328125 15.171875 -0.953125 C 14.617188 -0.578125 14.019531 -0.285156 13.375 -0.078125 C 12.738281 0.128906 12.078125 0.273438 11.390625 0.359375 C 10.710938 0.441406 10.046875 0.484375 9.390625 0.484375 Z M 13.6875 -2.875 C 13.976562 -2.875 14.265625 -2.9375 14.546875 -3.0625 C 14.835938 -3.1875 15.09375 -3.410156 15.3125 -3.734375 C 15.53125 -4.066406 15.707031 -4.519531 15.84375 -5.09375 C 15.976562 -5.664062 16.046875 -6.394531 16.046875 -7.28125 C 16.046875 -8.125 15.976562 -8.816406 15.84375 -9.359375 C 15.707031 -9.898438 15.523438 -10.328125 15.296875 -10.640625 C 15.078125 -10.953125 14.828125 -11.171875 14.546875 -11.296875 C 14.265625 -11.421875 13.976562 -11.484375 13.6875 -11.484375 C 13.46875 -11.484375 13.21875 -11.4375 12.9375 -11.34375 C 12.664062 -11.25 12.410156 -11.046875 12.171875 -10.734375 C 11.929688 -10.429688 11.734375 -10 11.578125 -9.4375 C 11.421875 -8.875 11.34375 -8.117188 11.34375 -7.171875 C 11.34375 -6.234375 11.40625 -5.476562 11.53125 -4.90625 C 11.664062 -4.332031 11.835938 -3.894531 12.046875 -3.59375 C 12.265625 -3.300781 12.515625 -3.109375 12.796875 -3.015625 C 13.085938 -2.921875 13.382812 -2.875 13.6875 -2.875 Z M 13.6875 -2.875 "/></g></g></g><g fill="#fffd47" fill-opacity="1"><g transform="translate(50.168036, 103.499989)"><g><path d="M 11.25 -8.265625 L 13.203125 -13.53125 C 13.285156 -13.769531 13.375 -13.96875 13.46875 -14.125 C 13.570312 -14.28125 13.773438 -14.359375 14.078125 -14.359375 L 15.5625 -14.359375 C 15.832031 -14.359375 15.96875 -14.273438 15.96875 -14.109375 C 15.96875 -14.003906 15.914062 -13.835938 15.8125 -13.609375 L 10.4375 -0.953125 C 10.3125 -0.628906 10.164062 -0.390625 10 -0.234375 C 9.832031 -0.078125 9.601562 0 9.3125 0 L 7.09375 0 C 6.894531 0 6.726562 -0.03125 6.59375 -0.09375 C 6.46875 -0.15625 6.359375 -0.234375 6.265625 -0.328125 C 6.179688 -0.421875 6.109375 -0.519531 6.046875 -0.625 C 5.992188 -0.726562 5.953125 -0.828125 5.921875 -0.921875 L 0.140625 -13.171875 C 0.0546875 -13.347656 0.015625 -13.515625 0.015625 -13.671875 C 0.015625 -13.910156 0.101562 -14.082031 0.28125 -14.1875 C 0.457031 -14.300781 0.640625 -14.359375 0.828125 -14.359375 L 7.671875 -14.359375 C 7.898438 -14.359375 8.09375 -14.347656 8.25 -14.328125 C 8.414062 -14.304688 8.546875 -14.269531 8.640625 -14.21875 C 8.742188 -14.164062 8.828125 -14.101562 8.890625 -14.03125 C 8.960938 -13.957031 9.019531 -13.863281 9.0625 -13.75 Z M 11.25 -8.265625 "/></g></g></g><g fill="#fffd47" fill-opacity="1"><g transform="translate(66.143185, 103.499989)"><g><path d="M 13.984375 -2.328125 C 14.234375 -2.328125 14.460938 -2.359375 14.671875 -2.421875 C 14.878906 -2.492188 15.0625 -2.570312 15.21875 -2.65625 C 15.382812 -2.738281 15.519531 -2.816406 15.625 -2.890625 C 15.738281 -2.960938 15.820312 -3 15.875 -3 C 15.957031 -3 16.015625 -2.984375 16.046875 -2.953125 C 16.085938 -2.929688 16.128906 -2.878906 16.171875 -2.796875 L 16.671875 -2.046875 C 16.710938 -1.972656 16.734375 -1.90625 16.734375 -1.84375 C 16.734375 -1.78125 16.710938 -1.726562 16.671875 -1.6875 C 16.640625 -1.65625 16.601562 -1.625 16.5625 -1.59375 C 16.257812 -1.382812 15.882812 -1.15625 15.4375 -0.90625 C 14.988281 -0.65625 14.46875 -0.425781 13.875 -0.21875 C 13.28125 -0.0195312 12.609375 0.144531 11.859375 0.28125 C 11.109375 0.414062 10.285156 0.484375 9.390625 0.484375 C 8.691406 0.484375 7.988281 0.425781 7.28125 0.3125 C 6.582031 0.207031 5.910156 0.0351562 5.265625 -0.203125 C 4.628906 -0.453125 4.035156 -0.769531 3.484375 -1.15625 C 2.929688 -1.550781 2.453125 -2.035156 2.046875 -2.609375 C 1.640625 -3.179688 1.320312 -3.84375 1.09375 -4.59375 C 0.863281 -5.34375 0.75 -6.203125 0.75 -7.171875 C 0.75 -8.128906 0.863281 -8.984375 1.09375 -9.734375 C 1.320312 -10.484375 1.640625 -11.144531 2.046875 -11.71875 C 2.453125 -12.289062 2.929688 -12.773438 3.484375 -13.171875 C 4.035156 -13.566406 4.628906 -13.882812 5.265625 -14.125 C 5.910156 -14.375 6.582031 -14.554688 7.28125 -14.671875 C 7.988281 -14.785156 8.691406 -14.84375 9.390625 -14.84375 C 10.554688 -14.84375 11.640625 -14.710938 12.640625 -14.453125 C 13.648438 -14.191406 14.523438 -13.757812 15.265625 -13.15625 C 16.003906 -12.5625 16.582031 -11.773438 17 -10.796875 C 17.414062 -9.828125 17.625 -8.640625 17.625 -7.234375 L 17.625 -6.453125 C 17.625 -6.273438 17.582031 -6.140625 17.5 -6.046875 C 17.414062 -5.960938 17.273438 -5.921875 17.078125 -5.921875 L 11.28125 -5.921875 C 11.351562 -5.222656 11.484375 -4.640625 11.671875 -4.171875 C 11.867188 -3.710938 12.09375 -3.34375 12.34375 -3.0625 C 12.59375 -2.789062 12.859375 -2.597656 13.140625 -2.484375 C 13.429688 -2.378906 13.710938 -2.328125 13.984375 -2.328125 Z M 15.640625 -7.640625 C 15.640625 -8.390625 15.582031 -9.007812 15.46875 -9.5 C 15.351562 -9.988281 15.195312 -10.378906 15 -10.671875 C 14.800781 -10.960938 14.566406 -11.171875 14.296875 -11.296875 C 14.035156 -11.421875 13.757812 -11.484375 13.46875 -11.484375 C 13.25 -11.484375 13.015625 -11.4375 12.765625 -11.34375 C 12.515625 -11.257812 12.28125 -11.082031 12.0625 -10.8125 C 11.84375 -10.539062 11.65625 -10.15625 11.5 -9.65625 C 11.34375 -9.15625 11.25 -8.484375 11.21875 -7.640625 Z M 15.640625 -7.640625 "/></g></g></g><g fill="#fffd47" fill-opacity="1"><g transform="translate(84.514612, 103.499989)"><g><path d="M 17.203125 -1.953125 C 17.203125 -1.617188 17.171875 -1.332031 17.109375 -1.09375 C 17.054688 -0.851562 16.945312 -0.648438 16.78125 -0.484375 C 16.625 -0.328125 16.40625 -0.207031 16.125 -0.125 C 15.851562 -0.0390625 15.488281 0 15.03125 0 L 8.90625 0 C 8.226562 -0.0195312 7.554688 -0.0820312 6.890625 -0.1875 C 6.222656 -0.289062 5.585938 -0.457031 4.984375 -0.6875 C 4.378906 -0.914062 3.816406 -1.210938 3.296875 -1.578125 C 2.773438 -1.953125 2.328125 -2.40625 1.953125 -2.9375 C 1.578125 -3.46875 1.28125 -4.085938 1.0625 -4.796875 C 0.851562 -5.515625 0.75 -6.335938 0.75 -7.265625 C 0.75 -8.410156 0.910156 -9.394531 1.234375 -10.21875 C 1.554688 -11.050781 2 -11.742188 2.5625 -12.296875 C 3.125 -12.859375 3.773438 -13.300781 4.515625 -13.625 C 5.265625 -13.957031 6.050781 -14.203125 6.875 -14.359375 L 6.875 -21 C 6.875 -21.320312 6.894531 -21.609375 6.9375 -21.859375 C 6.976562 -22.109375 7.070312 -22.3125 7.21875 -22.46875 C 7.375 -22.632812 7.582031 -22.753906 7.84375 -22.828125 C 8.101562 -22.910156 8.457031 -22.953125 8.90625 -22.953125 L 15.03125 -22.953125 C 15.488281 -22.953125 15.851562 -22.910156 16.125 -22.828125 C 16.40625 -22.742188 16.625 -22.625 16.78125 -22.46875 C 16.945312 -22.3125 17.054688 -22.109375 17.109375 -21.859375 C 17.171875 -21.609375 17.203125 -21.328125 17.203125 -21.015625 Z M 2.734375 -7.25 C 2.734375 -6.550781 2.8125 -5.898438 2.96875 -5.296875 C 3.125 -4.703125 3.367188 -4.171875 3.703125 -3.703125 C 4.035156 -3.242188 4.460938 -2.863281 4.984375 -2.5625 C 5.515625 -2.257812 6.144531 -2.066406 6.875 -1.984375 L 6.875 -12.5625 C 6.144531 -12.476562 5.515625 -12.28125 4.984375 -11.96875 C 4.460938 -11.664062 4.035156 -11.28125 3.703125 -10.8125 C 3.367188 -10.351562 3.125 -9.816406 2.96875 -9.203125 C 2.8125 -8.597656 2.734375 -7.945312 2.734375 -7.25 Z M 2.734375 -7.25 "/></g></g></g><g fill="#fffd47" fill-opacity="1"><g transform="translate(102.998145, 103.499989)"><g><path d="M 7.140625 0 C 6.640625 0 6.132812 -0.03125 5.625 -0.09375 C 5.113281 -0.164062 4.625 -0.269531 4.15625 -0.40625 C 3.695312 -0.550781 3.265625 -0.738281 2.859375 -0.96875 C 2.460938 -1.207031 2.117188 -1.5 1.828125 -1.84375 C 1.535156 -2.195312 1.304688 -2.601562 1.140625 -3.0625 C 0.972656 -3.53125 0.890625 -4.070312 0.890625 -4.6875 C 0.890625 -5.5 1.039062 -6.191406 1.34375 -6.765625 C 1.65625 -7.347656 2.066406 -7.828125 2.578125 -8.203125 C 3.097656 -8.585938 3.691406 -8.882812 4.359375 -9.09375 C 5.035156 -9.300781 5.738281 -9.429688 6.46875 -9.484375 L 6.46875 -10.453125 C 6.46875 -10.816406 6.421875 -11.101562 6.328125 -11.3125 C 6.234375 -11.53125 6.113281 -11.691406 5.96875 -11.796875 C 5.820312 -11.910156 5.660156 -11.984375 5.484375 -12.015625 C 5.316406 -12.046875 5.148438 -12.0625 4.984375 -12.0625 C 4.796875 -12.0625 4.597656 -12.035156 4.390625 -11.984375 C 4.179688 -11.929688 3.976562 -11.863281 3.78125 -11.78125 C 3.582031 -11.695312 3.394531 -11.609375 3.21875 -11.515625 C 3.039062 -11.421875 2.894531 -11.335938 2.78125 -11.265625 C 2.71875 -11.234375 2.660156 -11.203125 2.609375 -11.171875 C 2.566406 -11.140625 2.523438 -11.125 2.484375 -11.125 C 2.398438 -11.125 2.320312 -11.1875 2.25 -11.3125 L 1.765625 -12.0625 C 1.722656 -12.132812 1.703125 -12.207031 1.703125 -12.28125 C 1.703125 -12.351562 1.726562 -12.414062 1.78125 -12.46875 C 1.84375 -12.53125 1.90625 -12.578125 1.96875 -12.609375 C 2.269531 -12.828125 2.660156 -13.046875 3.140625 -13.265625 C 3.617188 -13.492188 4.15625 -13.695312 4.75 -13.875 C 5.34375 -14.050781 5.984375 -14.195312 6.671875 -14.3125 C 7.359375 -14.425781 8.070312 -14.484375 8.8125 -14.484375 C 9.507812 -14.484375 10.191406 -14.457031 10.859375 -14.40625 C 11.535156 -14.363281 12.171875 -14.265625 12.765625 -14.109375 C 13.359375 -13.953125 13.898438 -13.726562 14.390625 -13.4375 C 14.878906 -13.15625 15.300781 -12.78125 15.65625 -12.3125 C 16.019531 -11.851562 16.300781 -11.28125 16.5 -10.59375 C 16.695312 -9.914062 16.796875 -9.097656 16.796875 -8.140625 L 16.796875 -1.890625 C 16.796875 -1.578125 16.765625 -1.300781 16.703125 -1.0625 C 16.648438 -0.832031 16.539062 -0.632812 16.375 -0.46875 C 16.21875 -0.3125 16 -0.191406 15.71875 -0.109375 C 15.4375 -0.0351562 15.070312 0 14.625 0 Z M 6.46875 -7.703125 C 5.789062 -7.703125 5.222656 -7.617188 4.765625 -7.453125 C 4.304688 -7.285156 3.9375 -7.0625 3.65625 -6.78125 C 3.375 -6.5 3.171875 -6.171875 3.046875 -5.796875 C 2.929688 -5.429688 2.875 -5.054688 2.875 -4.671875 C 2.875 -4.273438 2.929688 -3.898438 3.046875 -3.546875 C 3.171875 -3.203125 3.375 -2.898438 3.65625 -2.640625 C 3.9375 -2.378906 4.304688 -2.171875 4.765625 -2.015625 C 5.222656 -1.867188 5.789062 -1.796875 6.46875 -1.796875 Z M 6.46875 -7.703125 "/></g></g></g><g fill="#fffd47" fill-opacity="1"><g transform="translate(121.075287, 103.499989)"><g><path d="M 17.203125 -1.953125 C 17.203125 -1.617188 17.171875 -1.332031 17.109375 -1.09375 C 17.054688 -0.851562 16.945312 -0.648438 16.78125 -0.484375 C 16.625 -0.328125 16.40625 -0.207031 16.125 -0.125 C 15.851562 -0.0390625 15.488281 0 15.03125 0 L 8.90625 0 C 8.226562 -0.0195312 7.554688 -0.0820312 6.890625 -0.1875 C 6.222656 -0.289062 5.585938 -0.457031 4.984375 -0.6875 C 4.378906 -0.914062 3.816406 -1.210938 3.296875 -1.578125 C 2.773438 -1.953125 2.328125 -2.40625 1.953125 -2.9375 C 1.578125 -3.46875 1.28125 -4.085938 1.0625 -4.796875 C 0.851562 -5.515625 0.75 -6.335938 0.75 -7.265625 C 0.75 -8.410156 0.910156 -9.394531 1.234375 -10.21875 C 1.554688 -11.050781 2 -11.742188 2.5625 -12.296875 C 3.125 -12.859375 3.773438 -13.300781 4.515625 -13.625 C 5.265625 -13.957031 6.050781 -14.203125 6.875 -14.359375 L 6.875 -21 C 6.875 -21.320312 6.894531 -21.609375 6.9375 -21.859375 C 6.976562 -22.109375 7.070312 -22.3125 7.21875 -22.46875 C 7.375 -22.632812 7.582031 -22.753906 7.84375 -22.828125 C 8.101562 -22.910156 8.457031 -22.953125 8.90625 -22.953125 L 15.03125 -22.953125 C 15.488281 -22.953125 15.851562 -22.910156 16.125 -22.828125 C 16.40625 -22.742188 16.625 -22.625 16.78125 -22.46875 C 16.945312 -22.3125 17.054688 -22.109375 17.109375 -21.859375 C 17.171875 -21.609375 17.203125 -21.328125 17.203125 -21.015625 Z M 2.734375 -7.25 C 2.734375 -6.550781 2.8125 -5.898438 2.96875 -5.296875 C 3.125 -4.703125 3.367188 -4.171875 3.703125 -3.703125 C 4.035156 -3.242188 4.460938 -2.863281 4.984375 -2.5625 C 5.515625 -2.257812 6.144531 -2.066406 6.875 -1.984375 L 6.875 -12.5625 C 6.144531 -12.476562 5.515625 -12.28125 4.984375 -11.96875 C 4.460938 -11.664062 4.035156 -11.28125 3.703125 -10.8125 C 3.367188 -10.351562 3.125 -9.816406 2.96875 -9.203125 C 2.8125 -8.597656 2.734375 -7.945312 2.734375 -7.25 Z M 2.734375 -7.25 "/></g></g></g><g fill="#fffd47" fill-opacity="1"><g transform="translate(139.55882, 103.499989)"><g><path d="M 13.984375 -2.328125 C 14.234375 -2.328125 14.460938 -2.359375 14.671875 -2.421875 C 14.878906 -2.492188 15.0625 -2.570312 15.21875 -2.65625 C 15.382812 -2.738281 15.519531 -2.816406 15.625 -2.890625 C 15.738281 -2.960938 15.820312 -3 15.875 -3 C 15.957031 -3 16.015625 -2.984375 16.046875 -2.953125 C 16.085938 -2.929688 16.128906 -2.878906 16.171875 -2.796875 L 16.671875 -2.046875 C 16.710938 -1.972656 16.734375 -1.90625 16.734375 -1.84375 C 16.734375 -1.78125 16.710938 -1.726562 16.671875 -1.6875 C 16.640625 -1.65625 16.601562 -1.625 16.5625 -1.59375 C 16.257812 -1.382812 15.882812 -1.15625 15.4375 -0.90625 C 14.988281 -0.65625 14.46875 -0.425781 13.875 -0.21875 C 13.28125 -0.0195312 12.609375 0.144531 11.859375 0.28125 C 11.109375 0.414062 10.285156 0.484375 9.390625 0.484375 C 8.691406 0.484375 7.988281 0.425781 7.28125 0.3125 C 6.582031 0.207031 5.910156 0.0351562 5.265625 -0.203125 C 4.628906 -0.453125 4.035156 -0.769531 3.484375 -1.15625 C 2.929688 -1.550781 2.453125 -2.035156 2.046875 -2.609375 C 1.640625 -3.179688 1.320312 -3.84375 1.09375 -4.59375 C 0.863281 -5.34375 0.75 -6.203125 0.75 -7.171875 C 0.75 -8.128906 0.863281 -8.984375 1.09375 -9.734375 C 1.320312 -10.484375 1.640625 -11.144531 2.046875 -11.71875 C 2.453125 -12.289062 2.929688 -12.773438 3.484375 -13.171875 C 4.035156 -13.566406 4.628906 -13.882812 5.265625 -14.125 C 5.910156 -14.375 6.582031 -14.554688 7.28125 -14.671875 C 7.988281 -14.785156 8.691406 -14.84375 9.390625 -14.84375 C 10.554688 -14.84375 11.640625 -14.710938 12.640625 -14.453125 C 13.648438 -14.191406 14.523438 -13.757812 15.265625 -13.15625 C 16.003906 -12.5625 16.582031 -11.773438 17 -10.796875 C 17.414062 -9.828125 17.625 -8.640625 17.625 -7.234375 L 17.625 -6.453125 C 17.625 -6.273438 17.582031 -6.140625 17.5 -6.046875 C 17.414062 -5.960938 17.273438 -5.921875 17.078125 -5.921875 L 11.28125 -5.921875 C 11.351562 -5.222656 11.484375 -4.640625 11.671875 -4.171875 C 11.867188 -3.710938 12.09375 -3.34375 12.34375 -3.0625 C 12.59375 -2.789062 12.859375 -2.597656 13.140625 -2.484375 C 13.429688 -2.378906 13.710938 -2.328125 13.984375 -2.328125 Z M 15.640625 -7.640625 C 15.640625 -8.390625 15.582031 -9.007812 15.46875 -9.5 C 15.351562 -9.988281 15.195312 -10.378906 15 -10.671875 C 14.800781 -10.960938 14.566406 -11.171875 14.296875 -11.296875 C 14.035156 -11.421875 13.757812 -11.484375 13.46875 -11.484375 C 13.25 -11.484375 13.015625 -11.4375 12.765625 -11.34375 C 12.515625 -11.257812 12.28125 -11.082031 12.0625 -10.8125 C 11.84375 -10.539062 11.65625 -10.15625 11.5 -9.65625 C 11.34375 -9.15625 11.25 -8.484375 11.21875 -7.640625 Z M 15.640625 -7.640625 "/></g></g></g><g fill="#fffd47" fill-opacity="1"><g transform="translate(157.930247, 103.499989)"><g><path d="M 11.28125 -14.84375 C 11.875 -14.84375 12.46875 -14.804688 13.0625 -14.734375 C 13.664062 -14.660156 14.234375 -14.566406 14.765625 -14.453125 C 15.304688 -14.347656 15.800781 -14.226562 16.25 -14.09375 C 16.695312 -13.957031 17.0625 -13.820312 17.34375 -13.6875 C 17.382812 -13.675781 17.429688 -13.648438 17.484375 -13.609375 C 17.535156 -13.566406 17.5625 -13.5 17.5625 -13.40625 C 17.5625 -13.375 17.554688 -13.332031 17.546875 -13.28125 C 17.535156 -13.238281 17.523438 -13.191406 17.515625 -13.140625 L 17.34375 -12.3125 C 17.332031 -12.207031 17.304688 -12.140625 17.265625 -12.109375 C 17.234375 -12.085938 17.207031 -12.078125 17.1875 -12.078125 C 17.132812 -12.078125 17.039062 -12.09375 16.90625 -12.125 C 16.78125 -12.15625 16.644531 -12.171875 16.5 -12.171875 C 15.96875 -12.171875 15.546875 -12.023438 15.234375 -11.734375 C 14.921875 -11.453125 14.722656 -10.957031 14.640625 -10.25 L 13.859375 -3.703125 C 13.785156 -3.117188 13.59375 -2.570312 13.28125 -2.0625 C 12.96875 -1.5625 12.515625 -1.117188 11.921875 -0.734375 C 11.335938 -0.359375 10.613281 -0.0625 9.75 0.15625 C 8.882812 0.375 7.875 0.484375 6.71875 0.484375 C 5.988281 0.484375 5.273438 0.4375 4.578125 0.34375 C 3.890625 0.257812 3.253906 0.15625 2.671875 0.03125 C 2.085938 -0.09375 1.578125 -0.21875 1.140625 -0.34375 C 0.703125 -0.46875 0.378906 -0.566406 0.171875 -0.640625 C 0.0976562 -0.660156 0.0390625 -0.6875 0 -0.71875 C -0.0390625 -0.75 -0.0625 -0.804688 -0.0625 -0.890625 C -0.0625 -0.921875 -0.0546875 -0.957031 -0.046875 -1 C -0.046875 -1.050781 -0.0351562 -1.109375 -0.015625 -1.171875 L 0.15625 -1.96875 C 0.175781 -2.039062 0.207031 -2.097656 0.25 -2.140625 C 0.300781 -2.191406 0.382812 -2.21875 0.5 -2.21875 C 0.8125 -2.21875 1.125 -2.234375 1.4375 -2.265625 C 1.75 -2.296875 2.035156 -2.378906 2.296875 -2.515625 C 2.566406 -2.660156 2.800781 -2.878906 3 -3.171875 C 3.207031 -3.460938 3.347656 -3.867188 3.421875 -4.390625 L 4.40625 -11.140625 C 4.507812 -11.847656 4.769531 -12.441406 5.1875 -12.921875 C 5.601562 -13.398438 6.125 -13.78125 6.75 -14.0625 C 7.375 -14.34375 8.078125 -14.539062 8.859375 -14.65625 C 9.640625 -14.78125 10.445312 -14.84375 11.28125 -14.84375 Z M 11.28125 -14.84375 "/></g></g></g></svg>