<svg xmlns="http://www.w3.org/2000/svg" xmlns:xlink="http://www.w3.org/1999/xlink" width="1080" zoomAndPan="magnify" viewBox="0 0 810 149.999998" height="200" preserveAspectRatio="xMidYMid meet" version="1.0"><defs><g/><clipPath id="df4c0efa52"><path d="M 295.488281 28.300781 L 514.488281 28.300781 L 514.488281 139 L 295.488281 139 Z M 295.488281 28.300781 " clip-rule="nonzero"/></clipPath></defs><rect x="-81" width="972" fill="#ffffff" y="-15" height="179.999997" fill-opacity="1"/><rect x="-81" width="972" fill="#ffffff" y="-15" height="179.999997" fill-opacity="1"/><rect x="-81" width="972" fill="#56aeff" y="-15" height="179.999997" fill-opacity="1"/><g clip-path="url(#df4c0efa52)"><path fill="#003f79" d="M 299.019531 125.304688 C 308.640625 125.304688 313.164062 128.023438 318.402344 131.167969 C 323.761719 134.390625 329.839844 138.042969 341.417969 138.042969 C 352.996094 138.042969 359.074219 134.390625 364.433594 131.167969 C 366.007812 130.222656 367.515625 129.316406 369.117188 128.511719 C 369.171875 128.488281 369.226562 128.457031 369.28125 128.429688 C 372.972656 126.597656 377.183594 125.304688 383.816406 125.304688 C 393.4375 125.304688 397.957031 128.023438 403.195312 131.167969 C 408.558594 134.390625 414.632812 138.042969 426.210938 138.042969 C 437.789062 138.042969 443.867188 134.390625 449.226562 131.167969 C 454.464844 128.023438 458.984375 125.304688 468.605469 125.304688 C 478.226562 125.304688 482.746094 128.023438 487.984375 131.167969 C 493.34375 134.390625 499.421875 138.042969 511 138.042969 C 511.464844 138.042969 511.917969 137.953125 512.351562 137.773438 C 512.78125 137.59375 513.164062 137.339844 513.496094 137.007812 C 513.828125 136.675781 514.082031 136.292969 514.261719 135.859375 C 514.441406 135.425781 514.53125 134.972656 514.53125 134.503906 C 514.53125 134.035156 514.441406 133.582031 514.261719 133.152344 C 514.082031 132.71875 513.828125 132.335938 513.496094 132.003906 C 513.164062 131.671875 512.78125 131.414062 512.351562 131.234375 C 511.917969 131.054688 511.464844 130.964844 511 130.964844 C 501.378906 130.964844 496.855469 128.246094 491.621094 125.101562 C 486.257812 121.878906 480.183594 118.226562 468.605469 118.226562 C 460.472656 118.226562 455.058594 120.027344 450.695312 122.21875 L 415.433594 104.746094 L 491.980469 89.019531 L 479.433594 108.949219 C 479.183594 109.347656 479.019531 109.777344 478.941406 110.238281 C 478.863281 110.703125 478.875 111.160156 478.976562 111.621094 C 479.082031 112.078125 479.269531 112.496094 479.539062 112.878906 C 479.808594 113.261719 480.144531 113.582031 480.539062 113.832031 C 480.933594 114.082031 481.363281 114.246094 481.824219 114.324219 C 482.289062 114.402344 482.746094 114.390625 483.203125 114.289062 C 483.660156 114.183594 484.082031 113.996094 484.464844 113.726562 C 484.84375 113.457031 485.160156 113.121094 485.410156 112.722656 L 502.378906 85.773438 C 502.757812 85.171875 502.9375 84.519531 502.921875 83.808594 C 502.90625 83.101562 502.699219 82.453125 502.296875 81.871094 C 501.894531 81.289062 501.363281 80.863281 500.707031 80.601562 C 500.050781 80.335938 499.375 80.273438 498.679688 80.417969 L 438.25 92.835938 L 407.820312 30.339844 C 407.523438 29.734375 407.089844 29.25 406.519531 28.890625 C 405.945312 28.53125 405.320312 28.351562 404.644531 28.351562 C 403.96875 28.351562 403.347656 28.53125 402.773438 28.890625 C 402.199219 29.25 401.765625 29.734375 401.46875 30.339844 L 371.066406 92.785156 L 311.34375 80.417969 C 310.648438 80.277344 309.972656 80.335938 309.316406 80.597656 C 308.65625 80.863281 308.128906 81.285156 307.722656 81.867188 C 307.320312 82.453125 307.109375 83.097656 307.09375 83.808594 C 307.082031 84.515625 307.261719 85.171875 307.640625 85.773438 L 335.867188 130.613281 C 329.820312 129.777344 326.148438 127.570312 322.035156 125.101562 C 316.675781 121.878906 310.597656 118.226562 299.019531 118.226562 C 298.550781 118.226562 298.101562 118.316406 297.667969 118.496094 C 297.238281 118.675781 296.855469 118.933594 296.523438 119.265625 C 296.195312 119.597656 295.9375 119.980469 295.761719 120.410156 C 295.582031 120.84375 295.492188 121.296875 295.492188 121.765625 C 295.492188 122.234375 295.582031 122.683594 295.761719 123.117188 C 295.9375 123.550781 296.195312 123.933594 296.523438 124.265625 C 296.855469 124.597656 297.238281 124.851562 297.667969 125.03125 C 298.101562 125.214844 298.550781 125.304688 299.019531 125.304688 Z M 406.832031 125.101562 C 401.882812 122.125 396.320312 118.789062 386.390625 118.292969 L 404.796875 107.375 L 443.308594 126.453125 C 438.914062 128.988281 434.417969 130.964844 426.210938 130.964844 C 416.589844 130.964844 412.066406 128.246094 406.832031 125.101562 Z M 401.113281 47.222656 L 401.113281 77.832031 C 401.113281 78.300781 401.203125 78.753906 401.382812 79.1875 C 401.5625 79.621094 401.816406 80.003906 402.148438 80.335938 C 402.480469 80.667969 402.859375 80.921875 403.292969 81.101562 C 403.726562 81.28125 404.175781 81.371094 404.644531 81.371094 C 405.113281 81.371094 405.566406 81.28125 405.996094 81.101562 C 406.429688 80.921875 406.8125 80.667969 407.144531 80.335938 C 407.476562 80.003906 407.730469 79.621094 407.910156 79.1875 C 408.089844 78.753906 408.179688 78.300781 408.179688 77.832031 L 408.179688 47.222656 L 431.101562 94.304688 L 404.648438 99.738281 L 378.207031 94.265625 Z M 394.992188 104.964844 L 365.929688 122.203125 C 364.070312 123.136719 362.402344 124.136719 360.796875 125.101562 C 356.132812 127.90625 352.027344 130.367188 344.382812 130.871094 L 318.046875 89.035156 Z M 394.992188 104.964844 " fill-opacity="1" fill-rule="nonzero"/></g><g fill="#003f79" fill-opacity="1"><g transform="translate(290.043452, 17.825013)"><g><path d="M 1.070312 -9.578125 C 0.46875 -9.578125 0.121094 -9.21875 0.121094 -8.613281 C 0.121094 -8.027344 0.46875 -7.621094 1.070312 -7.621094 L 2.605469 -7.621094 L 2.605469 -0.902344 C 2.605469 -0.300781 3.011719 0.0585938 3.585938 0.0585938 C 4.21875 0.0585938 4.5625 -0.316406 4.5625 -0.933594 L 4.5625 -7.621094 L 6.101562 -7.621094 C 6.71875 -7.621094 7.0625 -8.027344 7.0625 -8.585938 C 7.0625 -9.21875 6.71875 -9.578125 6.101562 -9.578125 Z M 1.070312 -9.578125 "/></g></g></g><g fill="#003f79" fill-opacity="1"><g transform="translate(303.915876, 17.825013)"><g><path d="M 4.246094 0.136719 C 6.355469 0.136719 7.816406 -1.445312 7.816406 -3.253906 L 7.816406 -8.660156 C 7.816406 -9.21875 7.363281 -9.640625 6.835938 -9.640625 C 6.28125 -9.640625 5.84375 -9.21875 5.84375 -8.660156 L 5.84375 -3.359375 C 5.84375 -2.335938 5.121094 -1.808594 4.292969 -1.808594 C 3.464844 -1.808594 2.769531 -2.335938 2.769531 -3.359375 L 2.769531 -8.660156 C 2.769531 -9.21875 2.320312 -9.640625 1.792969 -9.640625 C 1.25 -9.640625 0.8125 -9.21875 0.8125 -8.660156 L 0.8125 -3.253906 C 0.8125 -1.460938 2.304688 0.136719 4.246094 0.136719 Z M 4.246094 0.136719 "/></g></g></g><g fill="#003f79" fill-opacity="1"><g transform="translate(319.218836, 17.825013)"><g/></g></g><g fill="#003f79" fill-opacity="1"><g transform="translate(328.874927, 17.825013)"><g><path d="M 5.949219 0 C 6.492188 0 6.898438 -0.4375 6.898438 -0.964844 C 6.898438 -1.507812 6.492188 -1.957031 5.949219 -1.957031 L 3.042969 -1.957031 L 3.042969 -3.960938 L 5.152344 -3.960938 C 5.691406 -3.960938 6.113281 -4.335938 6.113281 -4.851562 C 6.113281 -5.390625 5.691406 -5.796875 5.152344 -5.796875 L 3.042969 -5.796875 L 3.042969 -7.621094 L 5.949219 -7.621094 C 6.492188 -7.621094 6.898438 -8.074219 6.898438 -8.601562 C 6.898438 -9.128906 6.492188 -9.578125 5.949219 -9.578125 L 2.0625 -9.578125 C 1.507812 -9.578125 1.085938 -9.128906 1.085938 -8.601562 L 1.085938 -0.964844 C 1.085938 -0.4375 1.476562 0 1.988281 0 Z M 5.949219 0 "/></g></g></g><g fill="#003f79" fill-opacity="1"><g transform="translate(342.852764, 17.825013)"><g><path d="M 0.664062 -6.898438 C 0.664062 -5.40625 1.730469 -4.59375 3.148438 -4.097656 C 4.398438 -3.660156 4.957031 -3.3125 4.957031 -2.726562 C 4.957031 -2.140625 4.546875 -1.703125 3.808594 -1.703125 C 3.027344 -1.703125 2.46875 -2.167969 2.109375 -2.695312 C 1.777344 -3.042969 1.566406 -3.148438 1.234375 -3.148438 C 0.585938 -3.148438 0.0585938 -2.46875 0.558594 -1.6875 C 1.113281 -0.722656 2.273438 0.136719 3.808594 0.136719 C 5.558594 0.136719 6.914062 -1.054688 6.914062 -2.785156 C 6.914062 -4.519531 5.527344 -5.269531 4.203125 -5.738281 C 3.148438 -6.101562 2.589844 -6.429688 2.605469 -7.019531 C 2.605469 -7.515625 3.011719 -7.847656 3.613281 -7.847656 C 4.203125 -7.847656 4.609375 -7.636719 4.941406 -7.246094 C 5.226562 -7.019531 5.4375 -6.824219 5.84375 -6.824219 C 6.492188 -6.824219 7.078125 -7.710938 6.417969 -8.390625 C 5.8125 -9.113281 4.851562 -9.714844 3.691406 -9.714844 C 2.019531 -9.714844 0.664062 -8.691406 0.664062 -6.898438 Z M 0.664062 -6.898438 "/></g></g></g><g fill="#003f79" fill-opacity="1"><g transform="translate(356.905889, 17.825013)"><g><path d="M 7.589844 -2.257812 C 7.710938 -2.652344 7.589844 -3.480469 6.640625 -3.480469 C 6.175781 -3.480469 5.980469 -3.117188 5.859375 -2.90625 C 5.574219 -2.199219 4.941406 -1.824219 4.292969 -1.824219 C 3.433594 -1.824219 2.679688 -2.320312 2.679688 -3.328125 L 2.679688 -6.234375 C 2.679688 -7.230469 3.417969 -7.742188 4.292969 -7.742188 C 4.941406 -7.742188 5.632812 -7.304688 5.859375 -6.671875 C 5.980469 -6.445312 6.175781 -6.113281 6.640625 -6.113281 C 7.605469 -6.113281 7.710938 -6.941406 7.589844 -7.320312 C 7.273438 -8.464844 6.144531 -9.714844 4.292969 -9.714844 C 2.152344 -9.714844 0.738281 -8.148438 0.738281 -6.296875 L 0.738281 -3.269531 C 0.738281 -1.445312 2.183594 0.136719 4.292969 0.136719 C 6.191406 0.136719 7.273438 -1.097656 7.589844 -2.257812 Z M 7.589844 -2.257812 "/></g></g></g><g fill="#003f79" fill-opacity="1"><g transform="translate(371.666757, 17.825013)"><g><path d="M 4.96875 -9.035156 C 4.835938 -9.414062 4.488281 -9.640625 4.035156 -9.640625 C 3.613281 -9.640625 3.253906 -9.414062 3.132812 -9.035156 L 0.269531 -1.308594 C 0 -0.601562 0.46875 0.0585938 1.203125 0.0585938 C 1.597656 0.0585938 1.941406 -0.164062 2.0625 -0.542969 L 2.378906 -1.550781 L 5.707031 -1.550781 L 6.023438 -0.542969 C 6.128906 -0.152344 6.507812 0.0585938 6.867188 0.0585938 C 7.742188 0.0585938 8.027344 -0.679688 7.800781 -1.308594 Z M 4.050781 -6.941406 L 5.105469 -3.507812 L 2.980469 -3.507812 Z M 4.050781 -6.941406 "/></g></g></g><g fill="#003f79" fill-opacity="1"><g transform="translate(386.412563, 17.825013)"><g><path d="M 2.046875 -9.578125 C 1.507812 -9.578125 1.085938 -9.128906 1.085938 -8.601562 L 1.085938 -0.902344 C 1.085938 -0.363281 1.519531 0.0585938 2.046875 0.0585938 C 2.574219 0.0585938 3.042969 -0.4375 3.042969 -0.992188 L 3.042969 -2.589844 L 4.113281 -2.589844 C 5.964844 -2.589844 7.457031 -3.78125 7.457031 -5.949219 L 7.457031 -6.175781 C 7.457031 -8.496094 5.859375 -9.578125 4.097656 -9.578125 Z M 3.976562 -7.621094 C 4.96875 -7.621094 5.496094 -7.167969 5.496094 -6.191406 L 5.496094 -5.980469 C 5.496094 -4.625 4.714844 -4.472656 3.976562 -4.472656 L 3.042969 -4.472656 L 3.042969 -7.621094 Z M 3.976562 -7.621094 "/></g></g></g><g fill="#003f79" fill-opacity="1"><g transform="translate(400.962618, 17.825013)"><g><path d="M 4.96875 -9.035156 C 4.835938 -9.414062 4.488281 -9.640625 4.035156 -9.640625 C 3.613281 -9.640625 3.253906 -9.414062 3.132812 -9.035156 L 0.269531 -1.308594 C 0 -0.601562 0.46875 0.0585938 1.203125 0.0585938 C 1.597656 0.0585938 1.941406 -0.164062 2.0625 -0.542969 L 2.378906 -1.550781 L 5.707031 -1.550781 L 6.023438 -0.542969 C 6.128906 -0.152344 6.507812 0.0585938 6.867188 0.0585938 C 7.742188 0.0585938 8.027344 -0.679688 7.800781 -1.308594 Z M 4.050781 -6.941406 L 5.105469 -3.507812 L 2.980469 -3.507812 Z M 4.050781 -6.941406 "/></g></g></g><g fill="#003f79" fill-opacity="1"><g transform="translate(415.70843, 17.825013)"><g><path d="M 4.035156 -9.578125 L 2.046875 -9.578125 C 1.507812 -9.578125 1.085938 -9.140625 1.085938 -8.613281 L 1.085938 -0.964844 C 1.085938 -0.421875 1.519531 0 2.046875 0 L 4.097656 0 C 6.207031 -0.03125 7.710938 -1.566406 7.710938 -3.417969 L 7.710938 -6.113281 C 7.710938 -7.953125 6.234375 -9.578125 4.035156 -9.578125 Z M 5.738281 -3.449219 C 5.738281 -2.484375 4.941406 -1.957031 4.035156 -1.957031 L 3.042969 -1.957031 L 3.042969 -7.621094 L 4.035156 -7.621094 C 4.925781 -7.621094 5.738281 -7.046875 5.738281 -6.101562 Z M 5.738281 -3.449219 "/></g></g></g><g fill="#003f79" fill-opacity="1"><g transform="translate(430.845745, 17.825013)"><g><path d="M 4.96875 -9.035156 C 4.835938 -9.414062 4.488281 -9.640625 4.035156 -9.640625 C 3.613281 -9.640625 3.253906 -9.414062 3.132812 -9.035156 L 0.269531 -1.308594 C 0 -0.601562 0.46875 0.0585938 1.203125 0.0585938 C 1.597656 0.0585938 1.941406 -0.164062 2.0625 -0.542969 L 2.378906 -1.550781 L 5.707031 -1.550781 L 6.023438 -0.542969 C 6.128906 -0.152344 6.507812 0.0585938 6.867188 0.0585938 C 7.742188 0.0585938 8.027344 -0.679688 7.800781 -1.308594 Z M 4.050781 -6.941406 L 5.105469 -3.507812 L 2.980469 -3.507812 Z M 4.050781 -6.941406 "/></g></g></g><g fill="#003f79" fill-opacity="1"><g transform="translate(445.591557, 17.825013)"><g/></g></g><g fill="#003f79" fill-opacity="1"><g transform="translate(455.247641, 17.825013)"><g><path d="M 4.96875 -9.035156 C 4.835938 -9.414062 4.488281 -9.640625 4.035156 -9.640625 C 3.613281 -9.640625 3.253906 -9.414062 3.132812 -9.035156 L 0.269531 -1.308594 C 0 -0.601562 0.46875 0.0585938 1.203125 0.0585938 C 1.597656 0.0585938 1.941406 -0.164062 2.0625 -0.542969 L 2.378906 -1.550781 L 5.707031 -1.550781 L 6.023438 -0.542969 C 6.128906 -0.152344 6.507812 0.0585938 6.867188 0.0585938 C 7.742188 0.0585938 8.027344 -0.679688 7.800781 -1.308594 Z M 4.050781 -6.941406 L 5.105469 -3.507812 L 2.980469 -3.507812 Z M 4.050781 -6.941406 "/></g></g></g><g fill="#003f79" fill-opacity="1"><g transform="translate(469.993441, 17.825013)"><g><path d="M 3.042969 -1.972656 L 3.042969 -8.675781 C 3.042969 -9.21875 2.574219 -9.640625 2.046875 -9.640625 C 1.519531 -9.640625 1.085938 -9.21875 1.085938 -8.675781 L 1.085938 -1.144531 C 1.085938 -0.480469 1.429688 0 2.046875 0 L 5.996094 0 C 6.535156 0 6.972656 -0.453125 6.972656 -0.980469 C 6.972656 -1.507812 6.535156 -1.972656 5.996094 -1.972656 Z M 3.042969 -1.972656 "/></g></g></g><g fill="#003f79" fill-opacity="1"><g transform="translate(483.911046, 17.825013)"><g/></g></g><g fill="#003f79" fill-opacity="1"><g transform="translate(493.56713, 17.825013)"><g><path d="M 8.601562 -9.65625 C 8.402344 -9.65625 8.132812 -9.65625 7.847656 -9.277344 L 5.332031 -5.933594 L 2.832031 -9.277344 C 2.574219 -9.609375 2.304688 -9.65625 2.078125 -9.65625 C 1.566406 -9.65625 1.085938 -9.324219 1.085938 -8.691406 L 1.085938 -0.859375 C 1.085938 -0.332031 1.507812 0.0898438 2.0625 0.0898438 C 2.605469 0.0898438 3.042969 -0.332031 3.042969 -0.859375 L 3.042969 -6.101562 L 4.625 -3.902344 C 4.835938 -3.585938 5.074219 -3.464844 5.316406 -3.464844 C 5.691406 -3.464844 5.875 -3.691406 6.054688 -3.902344 L 7.636719 -6.144531 L 7.636719 -0.859375 C 7.636719 -0.332031 8.074219 0.0898438 8.601562 0.0898438 C 9.140625 0.0898438 9.578125 -0.332031 9.578125 -0.859375 L 9.578125 -8.691406 C 9.578125 -9.21875 9.140625 -9.65625 8.601562 -9.65625 Z M 8.601562 -9.65625 "/></g></g></g><g fill="#003f79" fill-opacity="1"><g transform="translate(510.918026, 17.825013)"><g><path d="M 4.96875 -9.035156 C 4.835938 -9.414062 4.488281 -9.640625 4.035156 -9.640625 C 3.613281 -9.640625 3.253906 -9.414062 3.132812 -9.035156 L 0.269531 -1.308594 C 0 -0.601562 0.46875 0.0585938 1.203125 0.0585938 C 1.597656 0.0585938 1.941406 -0.164062 2.0625 -0.542969 L 2.378906 -1.550781 L 5.707031 -1.550781 L 6.023438 -0.542969 C 6.128906 -0.152344 6.507812 0.0585938 6.867188 0.0585938 C 7.742188 0.0585938 8.027344 -0.679688 7.800781 -1.308594 Z M 4.050781 -6.941406 L 5.105469 -3.507812 L 2.980469 -3.507812 Z M 4.050781 -6.941406 "/></g></g></g><g fill="#003f79" fill-opacity="1"><g transform="translate(525.663837, 17.825013)"><g><path d="M 6.191406 -3.191406 C 6.988281 -3.734375 7.457031 -4.609375 7.457031 -5.796875 L 7.457031 -6.265625 C 7.457031 -8.570312 5.828125 -9.578125 3.808594 -9.578125 L 2.0625 -9.578125 C 1.519531 -9.578125 1.085938 -9.128906 1.085938 -8.601562 L 1.085938 -0.917969 C 1.085938 -0.375 1.519531 0.046875 2.0625 0.046875 C 2.589844 0.046875 3.042969 -0.375 3.042969 -0.917969 L 3.042969 -2.546875 L 3.808594 -2.546875 C 4.007812 -2.546875 4.1875 -2.558594 4.367188 -2.574219 L 5.648438 -0.480469 C 5.964844 0.03125 6.21875 0.121094 6.476562 0.121094 C 7.273438 0.121094 7.773438 -0.617188 7.273438 -1.429688 Z M 3.042969 -7.621094 L 3.839844 -7.621094 C 5.121094 -7.621094 5.496094 -7.140625 5.496094 -6.296875 L 5.496094 -5.722656 C 5.496094 -4.699219 4.820312 -4.324219 3.839844 -4.324219 L 3.042969 -4.324219 Z M 3.042969 -7.621094 "/></g></g></g></svg>