<svg xmlns="http://www.w3.org/2000/svg" xmlns:xlink="http://www.w3.org/1999/xlink" width="200" zoomAndPan="magnify" viewBox="0 0 150 149.999998" height="200" preserveAspectRatio="xMidYMid meet" version="1.0"><defs><g/><clipPath id="e9cb3b55dd"><path d="M 54.402344 48.324219 L 95.652344 48.324219 L 95.652344 70 L 54.402344 70 Z M 54.402344 48.324219 " clip-rule="nonzero"/></clipPath></defs><g clip-path="url(#e9cb3b55dd)"><path fill="#56aeff" d="M 55.066406 66.6875 C 56.878906 66.6875 57.730469 67.199219 58.71875 67.796875 C 59.726562 68.40625 60.871094 69.097656 63.054688 69.097656 C 65.234375 69.097656 66.378906 68.40625 67.390625 67.796875 C 67.683594 67.617188 67.96875 67.445312 68.269531 67.292969 C 68.28125 67.289062 68.292969 67.28125 68.300781 67.277344 C 68.996094 66.929688 69.789062 66.6875 71.039062 66.6875 C 72.851562 66.6875 73.703125 67.199219 74.691406 67.796875 C 75.699219 68.40625 76.84375 69.097656 79.023438 69.097656 C 81.207031 69.097656 82.351562 68.40625 83.359375 67.796875 C 84.347656 67.199219 85.199219 66.6875 87.011719 66.6875 C 88.824219 66.6875 89.675781 67.199219 90.660156 67.796875 C 91.671875 68.40625 92.816406 69.097656 94.996094 69.097656 C 95.179688 69.097656 95.335938 69.03125 95.464844 68.902344 C 95.597656 68.769531 95.660156 68.613281 95.660156 68.425781 C 95.660156 68.242188 95.597656 68.085938 95.464844 67.953125 C 95.335938 67.824219 95.179688 67.757812 94.996094 67.757812 C 93.183594 67.757812 92.332031 67.242188 91.34375 66.648438 C 90.335938 66.039062 89.191406 65.347656 87.011719 65.347656 C 85.480469 65.347656 84.457031 65.6875 83.636719 66.101562 L 76.996094 62.792969 L 91.414062 59.816406 L 89.050781 63.589844 C 88.953125 63.746094 88.921875 63.914062 88.964844 64.09375 C 89.003906 64.273438 89.101562 64.414062 89.257812 64.511719 C 89.414062 64.613281 89.582031 64.640625 89.761719 64.601562 C 89.9375 64.558594 90.078125 64.460938 90.175781 64.304688 L 93.371094 59.203125 C 93.527344 58.953125 93.523438 58.707031 93.355469 58.460938 C 93.1875 58.21875 92.960938 58.128906 92.675781 58.1875 L 81.292969 60.539062 L 75.5625 48.707031 C 75.441406 48.457031 75.242188 48.332031 74.964844 48.332031 C 74.6875 48.332031 74.488281 48.457031 74.363281 48.707031 L 68.636719 60.527344 L 57.390625 58.1875 C 57.101562 58.128906 56.875 58.21875 56.707031 58.460938 C 56.539062 58.707031 56.535156 58.953125 56.691406 59.203125 L 62.007812 67.691406 C 60.871094 67.53125 60.175781 67.113281 59.402344 66.648438 C 58.394531 66.039062 57.25 65.347656 55.066406 65.347656 C 54.882812 65.347656 54.726562 65.410156 54.597656 65.542969 C 54.46875 65.671875 54.402344 65.832031 54.402344 66.015625 C 54.402344 66.199219 54.46875 66.359375 54.597656 66.488281 C 54.726562 66.621094 54.882812 66.683594 55.066406 66.6875 Z M 75.375 66.648438 C 74.441406 66.085938 73.394531 65.453125 71.523438 65.359375 L 74.992188 63.292969 L 82.246094 66.902344 C 81.417969 67.382812 80.570312 67.757812 79.023438 67.757812 C 77.214844 67.757812 76.359375 67.242188 75.375 66.648438 Z M 74.296875 51.902344 L 74.296875 57.699219 C 74.296875 57.882812 74.363281 58.042969 74.492188 58.171875 C 74.621094 58.304688 74.78125 58.367188 74.964844 58.367188 C 75.148438 58.367188 75.304688 58.304688 75.433594 58.171875 C 75.5625 58.042969 75.628906 57.882812 75.628906 57.699219 L 75.628906 51.902344 L 79.945312 60.816406 L 74.964844 61.84375 L 69.984375 60.808594 Z M 73.144531 62.835938 L 67.671875 66.097656 C 67.320312 66.273438 67.007812 66.464844 66.703125 66.648438 C 65.824219 67.179688 65.050781 67.644531 63.613281 67.738281 L 58.652344 59.820312 Z M 73.144531 62.835938 " fill-opacity="1" fill-rule="nonzero"/></g><path stroke-linecap="butt" transform="matrix(0.3, 0, 0, 0.3, 24.410145, 73.332778)" fill="none" stroke-linejoin="miter" d="M 21.419309 10.440221 C 13.567746 10.440221 6.13285 13.461054 6.13285 20.323034 C 6.13285 27.002722 13.1641 28.096472 21.354205 29.268347 C 29.140664 30.427201 35.585976 31.468868 35.585976 36.937618 C 35.585976 42.757931 27.799518 45.310014 20.950559 45.310014 C 14.492225 45.310014 8.63285 42.979285 6.315141 38.265743 L 5.0391 38.851681 C 7.760454 44.372514 14.322954 46.690223 21.067746 46.690223 C 28.61983 46.690223 36.992227 43.786577 36.992227 36.885535 C 36.992227 30.479284 30.234414 29.268347 21.354205 27.875118 C 13.1641 26.651159 7.526079 25.791784 7.526079 20.388138 C 7.526079 14.398554 14.375038 11.846471 21.419309 11.846471 C 27.864622 11.846471 32.812539 13.981888 34.895872 18.916784 L 36.171914 18.278763 C 33.841185 12.823033 28.385455 10.440221 21.419309 10.440221 Z M 69.635458 10.440221 C 68.463583 10.440221 67.604207 11.026158 67.135457 11.950637 L 50.585977 45.948035 L 51.914102 46.586056 L 57.265665 35.544389 C 61.315145 36.937618 65.807332 37.158972 69.869833 35.830847 C 73.984416 34.554805 78.463583 34.906368 82.474 36.520951 L 87.343792 46.586056 L 88.697959 45.948035 L 72.122437 11.950637 C 71.653687 11.026158 70.794312 10.440221 69.635458 10.440221 Z M 69.401083 34.671993 C 65.690145 35.830847 61.56254 35.661576 57.786499 34.385535 L 68.294312 12.653762 C 68.58077 12.067825 68.997437 11.846471 69.635458 11.846471 C 70.273478 11.846471 70.677124 12.067825 70.963583 12.653762 L 81.653687 34.906368 C 77.708375 33.565222 73.346395 33.448035 69.401083 34.671993 Z M 104.257855 11.130325 L 104.257855 43.096473 C 104.257855 44.671994 105.533897 46.000119 107.161501 46.000119 L 133.307336 46.000119 L 133.307336 44.606889 L 107.161501 44.606889 C 106.289106 44.606889 105.651085 43.916785 105.651085 43.096473 L 105.651085 11.130325 Z M 162.643276 29.151159 C 166.536505 30.427201 170.781297 30.25793 174.73963 29.033972 L 174.73963 27.640743 C 170.950568 28.981888 166.822963 29.151159 163.099005 27.979284 C 159.218796 26.768347 154.921921 26.885534 151.015671 28.174597 L 151.015671 14.046992 C 151.015671 13.2397 151.653692 12.536575 152.539108 12.536575 L 178.671922 12.536575 L 178.671922 11.130325 L 152.539108 11.130325 C 150.898483 11.130325 149.622441 12.484492 149.622441 14.046992 L 149.622441 46.000119 L 151.015671 46.000119 L 151.015671 29.450638 C 154.75265 28.174597 158.867234 27.979284 162.643276 29.151159 Z M 211.966195 46.690223 C 222.018279 46.690223 230.104217 41.403764 230.104217 28.565222 C 230.104217 15.726679 222.018279 10.440221 211.966195 10.440221 C 201.914111 10.440221 193.841194 15.726679 193.841194 28.565222 C 193.841194 41.403764 201.914111 46.690223 211.966195 46.690223 Z M 195.234423 28.565222 C 195.234423 16.729284 202.66932 11.846471 211.966195 11.846471 C 221.263071 11.846471 228.697967 16.729284 228.697967 28.565222 C 228.697967 40.427202 221.263071 45.310014 211.966195 45.310014 C 202.66932 45.310014 195.234423 40.427202 195.234423 28.565222 Z M 278.958386 46.586056 L 279.94797 45.778764 L 267.565157 32.862097 L 268.841198 32.862097 C 274.882865 32.862097 279.765678 29.671993 279.765678 22.002721 C 279.765678 14.346471 274.882865 11.130325 268.841198 11.130325 L 251.06776 11.130325 C 249.440156 11.130325 248.151093 12.484492 248.151093 14.046992 L 248.151093 46.000119 L 249.544322 46.000119 L 249.544322 14.046992 C 249.544322 13.2397 250.182343 12.536575 251.06776 12.536575 L 268.841198 12.536575 C 274.075574 12.536575 278.372449 15.323033 278.372449 22.002721 C 278.372449 28.682409 274.075574 31.468868 268.841198 31.468868 L 266.224011 31.468868 L 262.903698 27.979284 C 262.265677 27.341263 261.406302 27.28918 260.989635 27.28918 C 259.244844 27.28918 258.085989 28.448034 258.085989 30.140743 C 258.085989 31.833451 259.309948 32.862097 260.989635 32.862097 L 265.703177 32.862097 Z M 260.937552 31.468868 C 260.013073 31.468868 259.49224 30.778764 259.49224 30.088659 C 259.49224 29.450638 259.882865 28.682409 260.885469 28.682409 C 261.184948 28.682409 261.822969 28.734493 262.265677 29.268347 L 264.375052 31.468868 Z M 299.218804 14.046992 C 299.218804 13.2397 299.856825 12.536575 300.742242 12.536575 L 314.205784 12.536575 C 323.164118 12.536575 330.312556 17.171992 330.312556 28.565222 C 330.312556 39.958452 323.164118 44.606889 314.205784 44.606889 L 300.742242 44.606889 C 299.856825 44.606889 299.218804 43.916785 299.218804 43.096473 Z M 297.825575 43.096473 C 297.825575 44.671994 299.101617 46.000119 300.742242 46.000119 L 314.205784 46.000119 C 323.854222 46.000119 331.640681 40.895952 331.640681 28.565222 C 331.640681 16.260534 323.854222 11.130325 314.205784 11.130325 L 300.742242 11.130325 C 299.101617 11.130325 297.825575 12.484492 297.825575 14.046992 Z M 297.825575 43.096473 " stroke="#2e86d6" stroke-width="3.994396" stroke-opacity="1" stroke-miterlimit="4"/><g fill="#56aeff" fill-opacity="1"><g transform="translate(29.691677, 99.323118)"><g><path d="M 0.398438 -3.558594 C 0.171875 -3.558594 0.0429688 -3.425781 0.0429688 -3.203125 C 0.0429688 -2.984375 0.171875 -2.832031 0.398438 -2.832031 L 0.96875 -2.832031 L 0.96875 -0.335938 C 0.96875 -0.113281 1.121094 0.0234375 1.332031 0.0234375 C 1.566406 0.0234375 1.695312 -0.117188 1.695312 -0.347656 L 1.695312 -2.832031 L 2.265625 -2.832031 C 2.496094 -2.832031 2.625 -2.984375 2.625 -3.191406 C 2.625 -3.425781 2.496094 -3.558594 2.265625 -3.558594 Z M 0.398438 -3.558594 "/></g></g></g><g fill="#56aeff" fill-opacity="1"><g transform="translate(34.847778, 99.323118)"><g><path d="M 1.578125 0.0507812 C 2.363281 0.0507812 2.90625 -0.539062 2.90625 -1.210938 L 2.90625 -3.21875 C 2.90625 -3.425781 2.738281 -3.582031 2.542969 -3.582031 C 2.335938 -3.582031 2.171875 -3.425781 2.171875 -3.21875 L 2.171875 -1.25 C 2.171875 -0.867188 1.902344 -0.671875 1.59375 -0.671875 C 1.289062 -0.671875 1.03125 -0.867188 1.03125 -1.25 L 1.03125 -3.21875 C 1.03125 -3.425781 0.863281 -3.582031 0.667969 -3.582031 C 0.464844 -3.582031 0.300781 -3.425781 0.300781 -3.21875 L 0.300781 -1.210938 C 0.300781 -0.542969 0.855469 0.0507812 1.578125 0.0507812 Z M 1.578125 0.0507812 "/></g></g></g><g fill="#56aeff" fill-opacity="1"><g transform="translate(40.535581, 99.323118)"><g/></g></g><g fill="#56aeff" fill-opacity="1"><g transform="translate(44.124555, 99.323118)"><g><path d="M 2.210938 0 C 2.414062 0 2.5625 -0.164062 2.5625 -0.359375 C 2.5625 -0.558594 2.414062 -0.726562 2.210938 -0.726562 L 1.128906 -0.726562 L 1.128906 -1.472656 L 1.914062 -1.472656 C 2.117188 -1.472656 2.273438 -1.613281 2.273438 -1.800781 C 2.273438 -2.003906 2.117188 -2.15625 1.914062 -2.15625 L 1.128906 -2.15625 L 1.128906 -2.832031 L 2.210938 -2.832031 C 2.414062 -2.832031 2.5625 -3 2.5625 -3.195312 C 2.5625 -3.390625 2.414062 -3.558594 2.210938 -3.558594 L 0.765625 -3.558594 C 0.558594 -3.558594 0.402344 -3.390625 0.402344 -3.195312 L 0.402344 -0.359375 C 0.402344 -0.164062 0.546875 0 0.738281 0 Z M 2.210938 0 "/></g></g></g><g fill="#56aeff" fill-opacity="1"><g transform="translate(49.319836, 99.323118)"><g><path d="M 0.246094 -2.5625 C 0.246094 -2.007812 0.644531 -1.707031 1.171875 -1.523438 C 1.632812 -1.359375 1.839844 -1.230469 1.839844 -1.011719 C 1.839844 -0.792969 1.691406 -0.632812 1.417969 -0.632812 C 1.125 -0.632812 0.917969 -0.804688 0.785156 -1.003906 C 0.660156 -1.128906 0.582031 -1.171875 0.460938 -1.171875 C 0.21875 -1.171875 0.0234375 -0.917969 0.207031 -0.628906 C 0.414062 -0.269531 0.84375 0.0507812 1.417969 0.0507812 C 2.066406 0.0507812 2.570312 -0.390625 2.570312 -1.035156 C 2.570312 -1.679688 2.054688 -1.960938 1.5625 -2.132812 C 1.171875 -2.265625 0.960938 -2.390625 0.96875 -2.609375 C 0.96875 -2.792969 1.121094 -2.917969 1.34375 -2.917969 C 1.5625 -2.917969 1.714844 -2.839844 1.835938 -2.691406 C 1.941406 -2.609375 2.019531 -2.535156 2.171875 -2.535156 C 2.414062 -2.535156 2.632812 -2.867188 2.382812 -3.117188 C 2.160156 -3.386719 1.800781 -3.609375 1.371094 -3.609375 C 0.75 -3.609375 0.246094 -3.230469 0.246094 -2.5625 Z M 0.246094 -2.5625 "/></g></g></g><g fill="#56aeff" fill-opacity="1"><g transform="translate(54.5431, 99.323118)"><g><path d="M 2.820312 -0.839844 C 2.867188 -0.984375 2.820312 -1.292969 2.46875 -1.292969 C 2.296875 -1.292969 2.222656 -1.160156 2.175781 -1.082031 C 2.070312 -0.816406 1.835938 -0.675781 1.59375 -0.675781 C 1.277344 -0.675781 0.996094 -0.863281 0.996094 -1.238281 L 0.996094 -2.316406 C 0.996094 -2.6875 1.269531 -2.878906 1.59375 -2.878906 C 1.835938 -2.878906 2.09375 -2.714844 2.175781 -2.480469 C 2.222656 -2.394531 2.296875 -2.273438 2.46875 -2.273438 C 2.828125 -2.273438 2.867188 -2.582031 2.820312 -2.71875 C 2.703125 -3.144531 2.285156 -3.609375 1.59375 -3.609375 C 0.800781 -3.609375 0.273438 -3.027344 0.273438 -2.339844 L 0.273438 -1.214844 C 0.273438 -0.539062 0.8125 0.0507812 1.59375 0.0507812 C 2.300781 0.0507812 2.703125 -0.410156 2.820312 -0.839844 Z M 2.820312 -0.839844 "/></g></g></g><g fill="#56aeff" fill-opacity="1"><g transform="translate(60.029418, 99.323118)"><g><path d="M 1.847656 -3.359375 C 1.796875 -3.5 1.667969 -3.582031 1.5 -3.582031 C 1.34375 -3.582031 1.210938 -3.5 1.164062 -3.359375 L 0.101562 -0.488281 C 0 -0.222656 0.171875 0.0234375 0.449219 0.0234375 C 0.59375 0.0234375 0.722656 -0.0625 0.765625 -0.203125 L 0.882812 -0.578125 L 2.121094 -0.578125 L 2.238281 -0.203125 C 2.277344 -0.0546875 2.417969 0.0234375 2.550781 0.0234375 C 2.878906 0.0234375 2.984375 -0.25 2.898438 -0.488281 Z M 1.507812 -2.582031 L 1.898438 -1.304688 L 1.109375 -1.304688 Z M 1.507812 -2.582031 "/></g></g></g><g fill="#56aeff" fill-opacity="1"><g transform="translate(65.510137, 99.323118)"><g><path d="M 0.761719 -3.558594 C 0.558594 -3.558594 0.402344 -3.390625 0.402344 -3.195312 L 0.402344 -0.335938 C 0.402344 -0.132812 0.566406 0.0234375 0.761719 0.0234375 C 0.957031 0.0234375 1.128906 -0.164062 1.128906 -0.371094 L 1.128906 -0.960938 L 1.527344 -0.960938 C 2.21875 -0.960938 2.769531 -1.40625 2.769531 -2.210938 L 2.769531 -2.296875 C 2.769531 -3.15625 2.175781 -3.558594 1.523438 -3.558594 Z M 1.476562 -2.832031 C 1.847656 -2.832031 2.042969 -2.664062 2.042969 -2.300781 L 2.042969 -2.222656 C 2.042969 -1.71875 1.753906 -1.664062 1.476562 -1.664062 L 1.128906 -1.664062 L 1.128906 -2.832031 Z M 1.476562 -2.832031 "/></g></g></g><g fill="#56aeff" fill-opacity="1"><g transform="translate(70.9181, 99.323118)"><g><path d="M 1.847656 -3.359375 C 1.796875 -3.5 1.667969 -3.582031 1.5 -3.582031 C 1.34375 -3.582031 1.210938 -3.5 1.164062 -3.359375 L 0.101562 -0.488281 C 0 -0.222656 0.171875 0.0234375 0.449219 0.0234375 C 0.59375 0.0234375 0.722656 -0.0625 0.765625 -0.203125 L 0.882812 -0.578125 L 2.121094 -0.578125 L 2.238281 -0.203125 C 2.277344 -0.0546875 2.417969 0.0234375 2.550781 0.0234375 C 2.878906 0.0234375 2.984375 -0.25 2.898438 -0.488281 Z M 1.507812 -2.582031 L 1.898438 -1.304688 L 1.109375 -1.304688 Z M 1.507812 -2.582031 "/></g></g></g><g fill="#56aeff" fill-opacity="1"><g transform="translate(76.398822, 99.323118)"><g><path d="M 1.5 -3.558594 L 0.761719 -3.558594 C 0.558594 -3.558594 0.402344 -3.398438 0.402344 -3.203125 L 0.402344 -0.359375 C 0.402344 -0.15625 0.566406 0 0.761719 0 L 1.523438 0 C 2.304688 -0.0117188 2.867188 -0.582031 2.867188 -1.269531 L 2.867188 -2.273438 C 2.867188 -2.957031 2.316406 -3.558594 1.5 -3.558594 Z M 2.132812 -1.28125 C 2.132812 -0.921875 1.835938 -0.726562 1.5 -0.726562 L 1.128906 -0.726562 L 1.128906 -2.832031 L 1.5 -2.832031 C 1.832031 -2.832031 2.132812 -2.621094 2.132812 -2.265625 Z M 2.132812 -1.28125 "/></g></g></g><g fill="#56aeff" fill-opacity="1"><g transform="translate(82.025057, 99.323118)"><g><path d="M 1.847656 -3.359375 C 1.796875 -3.5 1.667969 -3.582031 1.5 -3.582031 C 1.34375 -3.582031 1.210938 -3.5 1.164062 -3.359375 L 0.101562 -0.488281 C 0 -0.222656 0.171875 0.0234375 0.449219 0.0234375 C 0.59375 0.0234375 0.722656 -0.0625 0.765625 -0.203125 L 0.882812 -0.578125 L 2.121094 -0.578125 L 2.238281 -0.203125 C 2.277344 -0.0546875 2.417969 0.0234375 2.550781 0.0234375 C 2.878906 0.0234375 2.984375 -0.25 2.898438 -0.488281 Z M 1.507812 -2.582031 L 1.898438 -1.304688 L 1.109375 -1.304688 Z M 1.507812 -2.582031 "/></g></g></g><g fill="#56aeff" fill-opacity="1"><g transform="translate(87.505779, 99.323118)"><g/></g></g><g fill="#56aeff" fill-opacity="1"><g transform="translate(91.094751, 99.323118)"><g><path d="M 1.847656 -3.359375 C 1.796875 -3.5 1.667969 -3.582031 1.5 -3.582031 C 1.34375 -3.582031 1.210938 -3.5 1.164062 -3.359375 L 0.101562 -0.488281 C 0 -0.222656 0.171875 0.0234375 0.449219 0.0234375 C 0.59375 0.0234375 0.722656 -0.0625 0.765625 -0.203125 L 0.882812 -0.578125 L 2.121094 -0.578125 L 2.238281 -0.203125 C 2.277344 -0.0546875 2.417969 0.0234375 2.550781 0.0234375 C 2.878906 0.0234375 2.984375 -0.25 2.898438 -0.488281 Z M 1.507812 -2.582031 L 1.898438 -1.304688 L 1.109375 -1.304688 Z M 1.507812 -2.582031 "/></g></g></g><g fill="#56aeff" fill-opacity="1"><g transform="translate(96.575468, 99.323118)"><g><path d="M 1.128906 -0.734375 L 1.128906 -3.222656 C 1.128906 -3.425781 0.957031 -3.582031 0.761719 -3.582031 C 0.566406 -3.582031 0.402344 -3.425781 0.402344 -3.222656 L 0.402344 -0.425781 C 0.402344 -0.179688 0.53125 0 0.761719 0 L 2.226562 0 C 2.429688 0 2.59375 -0.167969 2.59375 -0.363281 C 2.59375 -0.558594 2.429688 -0.734375 2.226562 -0.734375 Z M 1.128906 -0.734375 "/></g></g></g><g fill="#56aeff" fill-opacity="1"><g transform="translate(101.748362, 99.323118)"><g/></g></g><g fill="#56aeff" fill-opacity="1"><g transform="translate(105.337334, 99.323118)"><g><path d="M 3.195312 -3.589844 C 3.125 -3.589844 3.023438 -3.589844 2.917969 -3.449219 L 1.980469 -2.207031 L 1.050781 -3.449219 C 0.957031 -3.570312 0.855469 -3.589844 0.773438 -3.589844 C 0.582031 -3.589844 0.402344 -3.464844 0.402344 -3.230469 L 0.402344 -0.320312 C 0.402344 -0.125 0.558594 0.0351562 0.765625 0.0351562 C 0.96875 0.0351562 1.128906 -0.125 1.128906 -0.320312 L 1.128906 -2.265625 L 1.71875 -1.449219 C 1.796875 -1.332031 1.886719 -1.289062 1.976562 -1.289062 C 2.117188 -1.289062 2.183594 -1.371094 2.25 -1.449219 L 2.839844 -2.285156 L 2.839844 -0.320312 C 2.839844 -0.125 3 0.0351562 3.195312 0.0351562 C 3.398438 0.0351562 3.558594 -0.125 3.558594 -0.320312 L 3.558594 -3.230469 C 3.558594 -3.425781 3.398438 -3.589844 3.195312 -3.589844 Z M 3.195312 -3.589844 "/></g></g></g><g fill="#56aeff" fill-opacity="1"><g transform="translate(111.786313, 99.323118)"><g><path d="M 1.847656 -3.359375 C 1.796875 -3.5 1.667969 -3.582031 1.5 -3.582031 C 1.34375 -3.582031 1.210938 -3.5 1.164062 -3.359375 L 0.101562 -0.488281 C 0 -0.222656 0.171875 0.0234375 0.449219 0.0234375 C 0.59375 0.0234375 0.722656 -0.0625 0.765625 -0.203125 L 0.882812 -0.578125 L 2.121094 -0.578125 L 2.238281 -0.203125 C 2.277344 -0.0546875 2.417969 0.0234375 2.550781 0.0234375 C 2.878906 0.0234375 2.984375 -0.25 2.898438 -0.488281 Z M 1.507812 -2.582031 L 1.898438 -1.304688 L 1.109375 -1.304688 Z M 1.507812 -2.582031 "/></g></g></g><g fill="#56aeff" fill-opacity="1"><g transform="translate(117.267035, 99.323118)"><g><path d="M 2.300781 -1.1875 C 2.597656 -1.386719 2.769531 -1.714844 2.769531 -2.15625 L 2.769531 -2.328125 C 2.769531 -3.183594 2.167969 -3.558594 1.417969 -3.558594 L 0.765625 -3.558594 C 0.566406 -3.558594 0.402344 -3.390625 0.402344 -3.195312 L 0.402344 -0.339844 C 0.402344 -0.140625 0.566406 0.015625 0.765625 0.015625 C 0.960938 0.015625 1.128906 -0.140625 1.128906 -0.339844 L 1.128906 -0.945312 L 1.417969 -0.945312 C 1.488281 -0.945312 1.554688 -0.953125 1.625 -0.957031 L 2.097656 -0.179688 C 2.21875 0.0117188 2.3125 0.0429688 2.40625 0.0429688 C 2.703125 0.0429688 2.886719 -0.230469 2.703125 -0.53125 Z M 1.128906 -2.832031 L 1.425781 -2.832031 C 1.902344 -2.832031 2.042969 -2.652344 2.042969 -2.339844 L 2.042969 -2.128906 C 2.042969 -1.746094 1.792969 -1.605469 1.425781 -1.605469 L 1.128906 -1.605469 Z M 1.128906 -2.832031 "/></g></g></g></svg>