<svg xmlns="http://www.w3.org/2000/svg" xmlns:xlink="http://www.w3.org/1999/xlink" width="40" zoomAndPan="magnify" viewBox="0 0 30 30.000001" height="40" preserveAspectRatio="xMidYMid meet" version="1.0"><defs><clipPath id="ea3b0022e1"><path d="M 0.484375 0.710938 L 29.515625 0.710938 L 29.515625 28.292969 L 0.484375 28.292969 Z M 0.484375 0.710938 " clip-rule="nonzero"/></clipPath></defs><g clip-path="url(#ea3b0022e1)"><path fill="#f4c01e" d="M 15 0.710938 L 18.738281 9.109375 C 18.882812 9.433594 19.105469 9.710938 19.394531 9.917969 C 19.679688 10.125 20.015625 10.253906 20.367188 10.289062 L 29.511719 11.25 L 22.675781 17.394531 C 22.414062 17.628906 22.21875 17.933594 22.109375 18.265625 C 22 18.601562 21.980469 18.960938 22.054688 19.308594 L 23.96875 28.296875 L 16.007812 23.699219 C 15.699219 23.519531 15.351562 23.429688 15 23.429688 C 14.648438 23.429688 14.300781 23.519531 13.992188 23.699219 L 6.03125 28.296875 L 7.945312 19.308594 C 8.019531 18.960938 8 18.601562 7.890625 18.265625 C 7.78125 17.933594 7.585938 17.628906 7.324219 17.394531 L 0.488281 11.25 L 9.632812 10.289062 C 9.984375 10.253906 10.320312 10.125 10.605469 9.917969 C 10.894531 9.710938 11.117188 9.433594 11.261719 9.109375 Z M 15 0.710938 " fill-opacity="1" fill-rule="evenodd"/></g></svg>