<svg xmlns="http://www.w3.org/2000/svg" xmlns:xlink="http://www.w3.org/1999/xlink" width="250" zoomAndPan="magnify" viewBox="0 0 187.5 187.499992" height="250" preserveAspectRatio="xMidYMid meet" version="1.0"><defs><clipPath id="a935af3a2d"><path d="M 9 133 L 79 133 L 79 187 L 9 187 Z M 9 133 " clip-rule="nonzero"/></clipPath><clipPath id="a7630c1b41"><path d="M 99 133 L 170 133 L 170 187 L 99 187 Z M 99 133 " clip-rule="nonzero"/></clipPath><clipPath id="cd2697ef69"><path d="M 136 163 L 161 163 L 161 187 L 136 187 Z M 136 163 " clip-rule="nonzero"/></clipPath><clipPath id="1c9383db51"><path d="M 156 145 L 187 145 L 187 187 L 156 187 Z M 156 145 " clip-rule="nonzero"/></clipPath></defs><path fill="#55ba36" d="M 27.324219 145.230469 C 27.324219 146.023438 27.246094 146.808594 27.09375 147.585938 C 26.9375 148.363281 26.710938 149.117188 26.40625 149.851562 C 26.101562 150.582031 25.730469 151.28125 25.289062 151.9375 C 24.847656 152.597656 24.347656 153.207031 23.789062 153.769531 C 23.226562 154.332031 22.617188 154.832031 21.957031 155.269531 C 21.296875 155.710938 20.601562 156.082031 19.871094 156.386719 C 19.136719 156.691406 18.382812 156.921875 17.605469 157.074219 C 16.824219 157.230469 16.039062 157.308594 15.246094 157.308594 C 14.453125 157.308594 13.667969 157.230469 12.890625 157.074219 C 12.113281 156.921875 11.359375 156.691406 10.625 156.386719 C 9.894531 156.082031 9.195312 155.710938 8.539062 155.269531 C 7.878906 154.832031 7.269531 154.332031 6.707031 153.769531 C 6.148438 153.207031 5.644531 152.597656 5.207031 151.9375 C 4.765625 151.28125 4.394531 150.582031 4.089844 149.851562 C 3.785156 149.117188 3.558594 148.363281 3.402344 147.585938 C 3.246094 146.808594 3.171875 146.023438 3.171875 145.230469 C 3.171875 144.4375 3.246094 143.652344 3.402344 142.875 C 3.558594 142.09375 3.785156 141.339844 4.089844 140.609375 C 4.394531 139.875 4.765625 139.179688 5.207031 138.519531 C 5.644531 137.859375 6.148438 137.25 6.707031 136.691406 C 7.269531 136.128906 7.878906 135.628906 8.539062 135.1875 C 9.195312 134.746094 9.894531 134.375 10.625 134.070312 C 11.359375 133.769531 12.113281 133.539062 12.890625 133.382812 C 13.667969 133.230469 14.453125 133.152344 15.246094 133.152344 C 16.039062 133.152344 16.824219 133.230469 17.605469 133.382812 C 18.382812 133.539062 19.136719 133.769531 19.871094 134.070312 C 20.601562 134.375 21.296875 134.746094 21.957031 135.1875 C 22.617188 135.628906 23.226562 136.128906 23.789062 136.691406 C 24.347656 137.25 24.847656 137.859375 25.289062 138.519531 C 25.730469 139.179688 26.101562 139.875 26.40625 140.609375 C 26.710938 141.339844 26.9375 142.09375 27.09375 142.875 C 27.246094 143.652344 27.324219 144.4375 27.324219 145.230469 Z M 27.324219 145.230469 " fill-opacity="1" fill-rule="nonzero"/><path fill="#55ba36" d="M 43.929688 136.171875 C 26.421875 136.171875 12.226562 150.367188 12.226562 167.875 C 12.226562 177.046875 19.660156 184.480469 28.835938 184.480469 L 59.027344 184.480469 C 68.199219 184.480469 75.632812 177.046875 75.632812 167.875 C 75.632812 150.367188 61.441406 136.171875 43.929688 136.171875 Z M 43.929688 136.171875 " fill-opacity="1" fill-rule="nonzero"/><path fill="#71f249" d="M 63.558594 167.875 C 63.558594 152.429688 52.511719 139.582031 37.890625 136.761719 C 23.273438 139.582031 12.226562 152.429688 12.226562 167.875 C 12.226562 177.046875 19.660156 184.480469 28.835938 184.480469 L 46.949219 184.480469 C 56.125 184.480469 63.558594 177.046875 63.558594 167.875 Z M 63.558594 167.875 " fill-opacity="1" fill-rule="nonzero"/><path fill="#55ba36" d="M 184.328125 166.363281 C 184.328125 166.957031 184.300781 167.550781 184.242188 168.140625 C 184.183594 168.730469 184.097656 169.316406 183.980469 169.898438 C 183.867188 170.480469 183.722656 171.054688 183.550781 171.625 C 183.378906 172.191406 183.179688 172.75 182.949219 173.296875 C 182.722656 173.84375 182.46875 174.382812 182.191406 174.90625 C 181.910156 175.429688 181.605469 175.9375 181.277344 176.429688 C 180.945312 176.921875 180.59375 177.398438 180.21875 177.855469 C 179.839844 178.316406 179.441406 178.753906 179.023438 179.175781 C 178.605469 179.59375 178.164062 179.992188 177.707031 180.367188 C 177.246094 180.746094 176.773438 181.097656 176.277344 181.425781 C 175.785156 181.757812 175.277344 182.0625 174.753906 182.339844 C 174.230469 182.621094 173.695312 182.875 173.144531 183.101562 C 172.597656 183.328125 172.039062 183.527344 171.472656 183.699219 C 170.90625 183.871094 170.328125 184.015625 169.746094 184.132812 C 169.167969 184.25 168.578125 184.335938 167.988281 184.394531 C 167.398438 184.453125 166.808594 184.480469 166.214844 184.480469 C 165.621094 184.480469 165.027344 184.453125 164.4375 184.394531 C 163.847656 184.335938 163.261719 184.25 162.679688 184.132812 C 162.097656 184.015625 161.523438 183.871094 160.953125 183.699219 C 160.386719 183.527344 159.828125 183.328125 159.28125 183.101562 C 158.734375 182.875 158.195312 182.621094 157.675781 182.339844 C 157.152344 182.0625 156.640625 181.757812 156.148438 181.425781 C 155.65625 181.097656 155.179688 180.746094 154.722656 180.367188 C 154.261719 179.992188 153.824219 179.59375 153.402344 179.175781 C 152.984375 178.753906 152.585938 178.316406 152.210938 177.855469 C 151.832031 177.398438 151.480469 176.921875 151.152344 176.429688 C 150.820312 175.9375 150.515625 175.429688 150.238281 174.90625 C 149.957031 174.382812 149.703125 173.84375 149.476562 173.296875 C 149.25 172.75 149.050781 172.191406 148.878906 171.625 C 148.707031 171.054688 148.5625 170.480469 148.445312 169.898438 C 148.332031 169.316406 148.242188 168.730469 148.183594 168.140625 C 148.125 167.550781 148.097656 166.957031 148.097656 166.363281 C 148.097656 165.769531 148.125 165.179688 148.183594 164.589844 C 148.242188 164 148.332031 163.414062 148.445312 162.832031 C 148.5625 162.25 148.707031 161.671875 148.878906 161.105469 C 149.050781 160.539062 149.25 159.980469 149.476562 159.433594 C 149.703125 158.882812 149.957031 158.347656 150.238281 157.824219 C 150.515625 157.300781 150.820312 156.792969 151.152344 156.300781 C 151.480469 155.808594 151.832031 155.332031 152.210938 154.871094 C 152.585938 154.414062 152.984375 153.972656 153.402344 153.554688 C 153.824219 153.136719 154.261719 152.738281 154.722656 152.359375 C 155.179688 151.984375 155.65625 151.632812 156.148438 151.300781 C 156.640625 150.972656 157.152344 150.667969 157.675781 150.386719 C 158.195312 150.109375 158.734375 149.855469 159.28125 149.628906 C 159.828125 149.402344 160.386719 149.199219 160.953125 149.027344 C 161.523438 148.855469 162.097656 148.710938 162.679688 148.597656 C 163.261719 148.480469 163.847656 148.394531 164.4375 148.335938 C 165.027344 148.277344 165.621094 148.25 166.214844 148.25 C 166.808594 148.25 167.398438 148.277344 167.988281 148.335938 C 168.578125 148.394531 169.167969 148.480469 169.746094 148.597656 C 170.328125 148.710938 170.90625 148.855469 171.472656 149.027344 C 172.039062 149.199219 172.597656 149.402344 173.144531 149.628906 C 173.695312 149.855469 174.230469 150.109375 174.753906 150.386719 C 175.277344 150.667969 175.785156 150.972656 176.277344 151.300781 C 176.773438 151.632812 177.246094 151.984375 177.707031 152.359375 C 178.164062 152.738281 178.605469 153.136719 179.023438 153.554688 C 179.441406 153.972656 179.839844 154.414062 180.21875 154.871094 C 180.59375 155.332031 180.945312 155.808594 181.277344 156.300781 C 181.605469 156.792969 181.910156 157.300781 182.191406 157.824219 C 182.46875 158.347656 182.722656 158.882812 182.949219 159.433594 C 183.179688 159.980469 183.378906 160.539062 183.550781 161.105469 C 183.722656 161.671875 183.867188 162.25 183.980469 162.832031 C 184.097656 163.414062 184.183594 164 184.242188 164.589844 C 184.300781 165.179688 184.328125 165.769531 184.328125 166.363281 Z M 184.328125 166.363281 " fill-opacity="1" fill-rule="nonzero"/><path fill="#71f249" d="M 175.273438 166.363281 C 175.273438 167.515625 175.183594 168.65625 175.011719 169.78125 C 174.835938 170.910156 174.578125 172.007812 174.238281 173.070312 C 173.894531 174.132812 173.476562 175.140625 172.980469 176.097656 C 172.484375 177.054688 171.921875 177.941406 171.292969 178.753906 C 170.660156 179.566406 169.976562 180.292969 169.234375 180.933594 C 168.492188 181.570312 167.707031 182.113281 166.882812 182.550781 C 166.058594 182.992188 165.210938 183.324219 164.335938 183.550781 C 163.460938 183.773438 162.578125 183.886719 161.683594 183.886719 C 160.792969 183.886719 159.910156 183.773438 159.035156 183.550781 C 158.160156 183.324219 157.308594 182.992188 156.484375 182.550781 C 155.660156 182.113281 154.878906 181.570312 154.136719 180.933594 C 153.394531 180.292969 152.707031 179.566406 152.078125 178.753906 C 151.445312 177.941406 150.882812 177.054688 150.386719 176.097656 C 149.890625 175.140625 149.472656 174.132812 149.132812 173.070312 C 148.789062 172.007812 148.53125 170.910156 148.359375 169.78125 C 148.183594 168.65625 148.097656 167.515625 148.097656 166.363281 C 148.097656 165.214844 148.183594 164.074219 148.359375 162.945312 C 148.53125 161.816406 148.789062 160.722656 149.132812 159.660156 C 149.472656 158.597656 149.890625 157.585938 150.386719 156.628906 C 150.882812 155.675781 151.445312 154.789062 152.078125 153.976562 C 152.707031 153.160156 153.394531 152.4375 154.136719 151.796875 C 154.878906 151.15625 155.660156 150.617188 156.484375 150.175781 C 157.308594 149.738281 158.160156 149.40625 159.035156 149.179688 C 159.910156 148.957031 160.792969 148.84375 161.683594 148.84375 C 162.578125 148.84375 163.460938 148.957031 164.335938 149.179688 C 165.210938 149.40625 166.058594 149.738281 166.882812 150.175781 C 167.707031 150.617188 168.492188 151.15625 169.234375 151.796875 C 169.976562 152.4375 170.660156 153.160156 171.292969 153.976562 C 171.921875 154.789062 172.484375 155.675781 172.980469 156.628906 C 173.476562 157.585938 173.894531 158.597656 174.238281 159.660156 C 174.578125 160.722656 174.835938 161.816406 175.011719 162.945312 C 175.183594 164.074219 175.273438 165.214844 175.273438 166.363281 Z M 175.273438 166.363281 " fill-opacity="1" fill-rule="nonzero"/><path fill="#55ba36" d="M 75.632812 121.074219 L 111.867188 121.074219 L 111.867188 172.402344 L 75.632812 172.402344 Z M 75.632812 121.074219 " fill-opacity="1" fill-rule="nonzero"/><path fill="#71f249" d="M 75.632812 121.074219 L 99.789062 121.074219 L 99.789062 172.402344 L 75.632812 172.402344 Z M 75.632812 121.074219 " fill-opacity="1" fill-rule="nonzero"/><path fill="#55ba36" d="M 134.511719 136.171875 C 117 136.171875 102.808594 150.367188 102.808594 167.875 C 102.808594 177.046875 110.242188 184.480469 119.414062 184.480469 L 149.609375 184.480469 C 158.78125 184.480469 166.214844 177.046875 166.214844 167.875 C 166.214844 150.367188 152.019531 136.171875 134.511719 136.171875 Z M 134.511719 136.171875 " fill-opacity="1" fill-rule="nonzero"/><path fill="#71f249" d="M 157.15625 167.875 C 157.15625 151.90625 145.339844 138.734375 129.980469 136.53125 C 114.625 138.734375 102.808594 151.90625 102.808594 167.875 C 102.808594 177.046875 110.242188 184.480469 119.414062 184.480469 L 140.550781 184.480469 C 149.722656 184.480469 157.15625 177.046875 157.15625 167.875 Z M 157.15625 167.875 " fill-opacity="1" fill-rule="nonzero"/><path fill="#eb6a2b" d="M 144.808594 111.15625 C 164.007812 96.472656 175.273438 73.683594 175.273438 49.515625 L 175.273438 48.609375 L 157.15625 15.398438 L 133 42.574219 L 93.75 3.320312 L 54.5 42.574219 L 30.34375 15.398438 L 12.226562 48.609375 L 12.226562 49.515625 C 12.226562 73.6875 23.492188 96.476562 42.691406 111.15625 C 56.222656 121.507812 72.785156 127.113281 89.824219 127.113281 L 97.675781 127.113281 C 114.714844 127.113281 131.277344 121.507812 144.808594 111.15625 Z M 144.808594 111.15625 " fill-opacity="1" fill-rule="nonzero"/><path fill="#f08634" d="M 133 42.574219 L 125.007812 34.582031 L 117.90625 42.574219 L 86.203125 10.871094 L 54.5 42.574219 L 47.394531 34.582031 L 39.402344 42.574219 L 24.605469 25.925781 L 12.226562 48.609375 L 12.226562 49.515625 C 12.226562 73.6875 23.492188 96.476562 42.691406 111.15625 C 55.257812 120.769531 70.453125 126.230469 86.203125 126.964844 C 101.949219 126.230469 117.144531 120.769531 129.714844 111.15625 C 148.914062 96.472656 160.175781 73.683594 160.175781 49.515625 L 160.175781 48.609375 L 147.800781 25.925781 Z M 133 42.574219 " fill-opacity="1" fill-rule="nonzero"/><path fill="#000000" d="M 97.675781 130.132812 L 89.824219 130.132812 C 72.226562 130.132812 54.832031 124.246094 40.855469 113.554688 C 21.039062 98.402344 9.207031 74.460938 9.207031 49.515625 L 9.207031 48.609375 C 9.207031 48.105469 9.335938 47.609375 9.578125 47.164062 L 27.691406 13.953125 C 28.164062 13.089844 29.023438 12.507812 30.003906 12.398438 C 30.992188 12.28125 31.953125 12.660156 32.601562 13.390625 L 54.628906 38.171875 L 91.617188 1.1875 C 92.796875 0.0078125 94.703125 0.0078125 95.882812 1.1875 L 132.871094 38.171875 L 154.898438 13.390625 C 155.554688 12.65625 156.53125 12.292969 157.496094 12.398438 C 158.472656 12.507812 159.332031 13.089844 159.808594 13.953125 L 177.921875 47.164062 C 178.164062 47.609375 178.292969 48.105469 178.292969 48.609375 L 178.292969 49.515625 C 178.292969 74.460938 166.460938 98.402344 146.644531 113.554688 C 132.667969 124.246094 115.273438 130.132812 97.675781 130.132812 Z M 15.246094 49.382812 L 15.246094 49.515625 C 15.246094 72.59375 26.191406 94.742188 44.523438 108.757812 C 57.453125 118.648438 73.546875 124.09375 89.824219 124.09375 L 97.675781 124.09375 C 113.957031 124.09375 130.046875 118.648438 142.976562 108.757812 C 161.308594 94.742188 172.253906 72.59375 172.253906 49.515625 L 172.253906 49.382812 L 156.5625 20.613281 L 135.257812 44.582031 C 134.703125 45.203125 133.921875 45.566406 133.089844 45.589844 C 132.261719 45.65625 131.453125 45.296875 130.867188 44.710938 L 93.75 7.589844 L 56.632812 44.707031 C 56.046875 45.296875 55.253906 45.660156 54.410156 45.589844 C 53.582031 45.566406 52.796875 45.199219 52.242188 44.578125 L 30.9375 20.609375 Z M 15.246094 49.382812 " fill-opacity="1" fill-rule="nonzero"/><g clip-path="url(#a935af3a2d)"><path fill="#000000" d="M 59.027344 187.5 L 28.835938 187.5 C 18.011719 187.5 9.207031 178.695312 9.207031 167.875 C 9.207031 148.730469 24.785156 133.152344 43.929688 133.152344 C 63.078125 133.152344 78.652344 148.730469 78.652344 167.875 C 78.652344 178.695312 69.847656 187.5 59.027344 187.5 Z M 43.929688 139.191406 C 28.117188 139.191406 15.246094 152.058594 15.246094 167.875 C 15.246094 175.367188 21.34375 181.460938 28.835938 181.460938 L 59.027344 181.460938 C 66.519531 181.460938 72.613281 175.367188 72.613281 167.875 C 72.613281 152.058594 59.746094 139.191406 43.929688 139.191406 Z M 43.929688 139.191406 " fill-opacity="1" fill-rule="nonzero"/></g><g clip-path="url(#a7630c1b41)"><path fill="#000000" d="M 149.609375 187.5 L 119.414062 187.5 C 108.59375 187.5 99.789062 178.695312 99.789062 167.875 C 99.789062 148.730469 115.367188 133.152344 134.511719 133.152344 C 153.65625 133.152344 169.234375 148.730469 169.234375 167.875 C 169.234375 178.695312 160.429688 187.5 149.609375 187.5 Z M 134.511719 139.191406 C 118.695312 139.191406 105.828125 152.058594 105.828125 167.875 C 105.828125 175.367188 111.921875 181.460938 119.414062 181.460938 L 149.609375 181.460938 C 157.097656 181.460938 163.195312 175.367188 163.195312 167.875 C 163.195312 152.058594 150.324219 139.191406 134.511719 139.191406 Z M 134.511719 139.191406 " fill-opacity="1" fill-rule="nonzero"/></g><path fill="#000000" d="M 102.808594 175.421875 L 75.632812 175.421875 C 73.964844 175.421875 72.613281 174.070312 72.613281 172.402344 L 72.613281 127.113281 L 78.652344 127.113281 L 78.652344 169.382812 L 102.808594 169.382812 Z M 102.808594 175.421875 " fill-opacity="1" fill-rule="nonzero"/><path fill="#000000" d="M 108.847656 127.113281 L 114.886719 127.113281 L 114.886719 145.230469 L 108.847656 145.230469 Z M 108.847656 127.113281 " fill-opacity="1" fill-rule="nonzero"/><path fill="#000000" d="M 27.324219 184.480469 L 21.285156 184.480469 L 21.285156 169.382812 C 21.285156 156.066406 32.121094 145.230469 45.441406 145.230469 L 45.441406 151.269531 C 35.449219 151.269531 27.324219 159.394531 27.324219 169.382812 Z M 27.324219 184.480469 " fill-opacity="1" fill-rule="nonzero"/><path fill="#000000" d="M 117.90625 184.480469 L 111.867188 184.480469 L 111.867188 169.382812 C 111.867188 156.066406 122.703125 145.230469 136.019531 145.230469 L 136.019531 151.269531 C 126.03125 151.269531 117.90625 159.394531 117.90625 169.382812 Z M 117.90625 184.480469 " fill-opacity="1" fill-rule="nonzero"/><g clip-path="url(#cd2697ef69)"><path fill="#000000" d="M 148.097656 187.5 C 141.4375 187.5 136.019531 182.082031 136.019531 175.421875 C 136.019531 168.761719 141.4375 163.34375 148.097656 163.34375 C 154.757812 163.34375 160.175781 168.761719 160.175781 175.421875 C 160.175781 182.082031 154.757812 187.5 148.097656 187.5 Z M 148.097656 169.382812 C 144.765625 169.382812 142.058594 172.09375 142.058594 175.421875 C 142.058594 178.753906 144.765625 181.460938 148.097656 181.460938 C 151.429688 181.460938 154.136719 178.753906 154.136719 175.421875 C 154.136719 172.09375 151.429688 169.382812 148.097656 169.382812 Z M 148.097656 169.382812 " fill-opacity="1" fill-rule="nonzero"/></g><path fill="#000000" d="M 87.710938 87.863281 L 81.671875 87.863281 C 81.671875 77.871094 73.546875 69.746094 63.558594 69.746094 C 53.566406 69.746094 45.441406 77.871094 45.441406 87.863281 L 39.402344 87.863281 C 39.402344 74.542969 50.238281 63.707031 63.558594 63.707031 C 76.875 63.707031 87.710938 74.542969 87.710938 87.863281 Z M 87.710938 87.863281 " fill-opacity="1" fill-rule="nonzero"/><path fill="#000000" d="M 148.097656 87.863281 L 142.058594 87.863281 C 142.058594 77.871094 133.933594 69.746094 123.941406 69.746094 C 113.953125 69.746094 105.828125 77.871094 105.828125 87.863281 L 99.789062 87.863281 C 99.789062 74.542969 110.625 63.707031 123.941406 63.707031 C 137.261719 63.707031 148.097656 74.542969 148.097656 87.863281 Z M 148.097656 87.863281 " fill-opacity="1" fill-rule="nonzero"/><path fill="#000000" d="M 42.929688 59.34375 L 33.21875 44.78125 L 26.722656 53.441406 L 21.890625 49.820312 L 30.949219 37.742188 C 31.53125 36.960938 32.453125 36.484375 33.445312 36.535156 C 34.425781 36.5625 35.332031 37.066406 35.875 37.878906 L 47.953125 55.996094 Z M 42.929688 59.34375 " fill-opacity="1" fill-rule="nonzero"/><path fill="#000000" d="M 144.570312 59.34375 L 139.546875 55.996094 L 151.625 37.878906 C 152.167969 37.066406 153.070312 36.5625 154.054688 36.535156 C 155 36.496094 155.964844 36.960938 156.550781 37.742188 L 165.609375 49.820312 L 160.777344 53.441406 L 154.28125 44.78125 Z M 144.570312 59.34375 " fill-opacity="1" fill-rule="nonzero"/><path fill="#000000" d="M 118.679688 53.648438 L 93.636719 25.824219 L 83.808594 35.648438 L 79.539062 31.378906 L 91.617188 19.300781 C 92.199219 18.714844 93.027344 18.363281 93.828125 18.417969 C 94.65625 18.4375 95.4375 18.796875 95.992188 19.417969 L 123.167969 49.609375 Z M 118.679688 53.648438 " fill-opacity="1" fill-rule="nonzero"/><g clip-path="url(#1c9383db51)"><path fill="#000000" d="M 166.214844 187.5 C 162.757812 187.5 159.332031 186.648438 156.296875 185.03125 L 159.132812 179.699219 C 161.296875 180.851562 163.746094 181.460938 166.214844 181.460938 C 174.539062 181.460938 181.308594 174.6875 181.308594 166.363281 C 181.308594 158.039062 174.539062 151.269531 166.214844 151.269531 C 164.488281 151.269531 162.800781 151.554688 161.191406 152.121094 L 159.183594 146.425781 C 161.441406 145.632812 163.804688 145.230469 166.214844 145.230469 C 177.867188 145.230469 187.347656 154.710938 187.347656 166.363281 C 187.347656 178.019531 177.867188 187.5 166.214844 187.5 Z M 166.214844 187.5 " fill-opacity="1" fill-rule="nonzero"/></g><path fill="#000000" d="M 13.742188 160.253906 C 5.996094 159.484375 0.152344 153.023438 0.152344 145.230469 C 0.152344 136.90625 6.921875 130.132812 15.246094 130.132812 C 21.683594 130.132812 27.417969 134.21875 29.523438 140.300781 L 23.8125 142.269531 C 22.550781 138.625 19.109375 136.171875 15.246094 136.171875 C 10.253906 136.171875 6.191406 140.234375 6.191406 145.230469 C 6.191406 149.90625 9.691406 153.78125 14.339844 154.242188 Z M 13.742188 160.253906 " fill-opacity="1" fill-rule="nonzero"/></svg>