<svg xmlns="http://www.w3.org/2000/svg" xmlns:xlink="http://www.w3.org/1999/xlink" width="250" zoomAndPan="magnify" viewBox="0 0 187.5 187.499992" height="250" preserveAspectRatio="xMidYMid meet" version="1.0"><defs><clipPath id="163dfc882e"><path d="M 35 171 L 72 171 L 72 187 L 35 187 Z M 35 171 " clip-rule="nonzero"/></clipPath><clipPath id="f957c83617"><path d="M 125 171 L 159 171 L 159 187 L 125 187 Z M 125 171 " clip-rule="nonzero"/></clipPath><clipPath id="70992a8c73"><path d="M 21.210938 103 L 43 103 L 43 126 L 21.210938 126 Z M 21.210938 103 " clip-rule="nonzero"/></clipPath><clipPath id="307104eb31"><path d="M 21.210938 93 L 54 93 L 54 117 L 21.210938 117 Z M 21.210938 93 " clip-rule="nonzero"/></clipPath><clipPath id="fc1be004f9"><path d="M 144 102 L 165.960938 102 L 165.960938 125 L 144 125 Z M 144 102 " clip-rule="nonzero"/></clipPath><clipPath id="fff8ce892f"><path d="M 132 91 L 165.960938 91 L 165.960938 115 L 132 115 Z M 132 91 " clip-rule="nonzero"/></clipPath></defs><path fill="#ff9955" d="M 57.210938 25.875 L 125.671875 25.875 L 125.671875 94.261719 L 57.210938 94.261719 Z M 57.210938 25.875 " fill-opacity="1" fill-rule="nonzero"/><path fill="#ff9955" d="M 91.917969 48.878906 L 146.925781 48.878906 L 146.925781 71.25 L 91.917969 71.25 Z M 91.917969 48.878906 " fill-opacity="1" fill-rule="nonzero"/><path fill="#ff9955" d="M 45.972656 43.921875 L 65.558594 43.921875 L 65.558594 62.003906 L 45.972656 62.003906 Z M 45.972656 43.921875 " fill-opacity="1" fill-rule="nonzero"/><path fill="#552200" d="M 50.113281 36.546875 L 69.800781 36.546875 L 69.800781 46.976562 L 50.113281 46.976562 Z M 50.113281 36.546875 " fill-opacity="1" fill-rule="nonzero"/><path fill="#552200" d="M 55.605469 26.113281 L 87.351562 26.113281 L 87.351562 38.03125 L 55.605469 38.03125 Z M 55.605469 26.113281 " fill-opacity="1" fill-rule="nonzero"/><path fill="#552200" d="M 110.210938 66.449219 L 130.261719 66.449219 L 130.261719 74.632812 L 110.210938 74.632812 Z M 110.210938 66.449219 " fill-opacity="1" fill-rule="nonzero"/><path fill="#552200" d="M 101.007812 69.890625 L 117.796875 69.890625 L 117.796875 77.640625 L 101.007812 77.640625 Z M 101.007812 69.890625 " fill-opacity="1" fill-rule="nonzero"/><path fill="#0096ff" d="M 57.164062 0 L 125.71875 0 L 125.71875 27.128906 L 57.164062 27.128906 Z M 57.164062 0 " fill-opacity="1" fill-rule="nonzero"/><path fill="#0096ff" d="M 43.175781 18.085938 L 141.105469 18.085938 L 141.105469 27.128906 L 43.175781 27.128906 Z M 43.175781 18.085938 " fill-opacity="1" fill-rule="nonzero"/><path fill="#0096ff" d="M 45.972656 87.839844 L 141.105469 87.839844 L 141.105469 149.84375 L 45.972656 149.84375 Z M 45.972656 87.839844 " fill-opacity="1" fill-rule="nonzero"/><path fill="#ff0000" d="M 68.335938 87.816406 L 85.171875 87.816406 L 85.171875 130.492188 L 68.335938 130.492188 Z M 68.335938 87.816406 " fill-opacity="1" fill-rule="nonzero"/><path fill="#ffff00" d="M 70.660156 102.820312 L 82.640625 102.820312 L 82.640625 116.273438 L 70.660156 116.273438 Z M 70.660156 102.820312 " fill-opacity="1" fill-rule="nonzero"/><path fill="#ff0000" d="M 68.347656 126.582031 L 121.535156 126.582031 L 121.535156 149.855469 L 68.347656 149.855469 Z M 68.347656 126.582031 " fill-opacity="1" fill-rule="nonzero"/><path fill="#ff0000" d="M 103.535156 87.722656 L 121.316406 87.722656 L 121.316406 134.15625 L 103.535156 134.15625 Z M 103.535156 87.722656 " fill-opacity="1" fill-rule="nonzero"/><path fill="#ffff00" d="M 107.167969 103.390625 L 118.253906 103.390625 L 118.253906 116.210938 L 107.167969 116.210938 Z M 107.167969 103.390625 " fill-opacity="1" fill-rule="nonzero"/><path fill="#0096ff" d="M 36.363281 143.5625 L 62.574219 143.5625 L 62.574219 181.972656 L 36.363281 181.972656 Z M 36.363281 143.5625 " fill-opacity="1" fill-rule="nonzero"/><g clip-path="url(#163dfc882e)"><path fill="#441b00" d="M 35.996094 171.636719 L 71.53125 171.636719 L 71.53125 187.480469 L 35.996094 187.480469 Z M 35.996094 171.636719 " fill-opacity="1" fill-rule="nonzero"/></g><path fill="#0096ff" d="M 126.027344 139.792969 L 149.195312 139.792969 L 149.195312 183.148438 L 126.027344 183.148438 Z M 126.027344 139.792969 " fill-opacity="1" fill-rule="nonzero"/><g clip-path="url(#f957c83617)"><path fill="#441b00" d="M 125.546875 171.851562 L 158.121094 171.851562 L 158.121094 187.484375 L 125.546875 187.484375 Z M 125.546875 171.851562 " fill-opacity="1" fill-rule="nonzero"/></g><g clip-path="url(#70992a8c73)"><path fill="#ff9955" d="M 21.519531 103.320312 L 42.535156 103.320312 L 42.535156 125.691406 L 21.519531 125.691406 Z M 21.519531 103.320312 " fill-opacity="1" fill-rule="nonzero"/></g><g clip-path="url(#307104eb31)"><path fill="#0096ff" d="M 21.269531 93.316406 L 53.347656 93.316406 L 53.347656 116.476562 L 21.269531 116.476562 Z M 21.269531 93.316406 " fill-opacity="1" fill-rule="nonzero"/></g><g clip-path="url(#fc1be004f9)"><path fill="#ff9955" d="M 144.410156 102.402344 L 165.425781 102.402344 L 165.425781 124.773438 L 144.410156 124.773438 Z M 144.410156 102.402344 " fill-opacity="1" fill-rule="nonzero"/></g><g clip-path="url(#fff8ce892f)"><path fill="#0096ff" d="M 132.355469 91.410156 L 165.933594 91.410156 L 165.933594 114.664062 L 132.355469 114.664062 Z M 132.355469 91.410156 " fill-opacity="1" fill-rule="nonzero"/></g><path fill="#ffffff" d="M 122.714844 44.640625 C 122.714844 49.941406 118.0625 54.238281 112.320312 54.238281 C 106.582031 54.238281 101.925781 49.941406 101.925781 44.640625 C 101.925781 39.339844 106.582031 35.042969 112.320312 35.042969 C 118.0625 35.042969 122.714844 39.339844 122.714844 44.640625 Z M 122.714844 44.640625 " fill-opacity="1" fill-rule="nonzero"/><path fill="#2b2b2b" d="M 121.621094 43.042969 C 121.621094 43.425781 121.578125 43.804688 121.5 44.179688 C 121.417969 44.550781 121.300781 44.914062 121.140625 45.269531 C 120.984375 45.621094 120.789062 45.957031 120.558594 46.273438 C 120.328125 46.589844 120.070312 46.882812 119.777344 47.152344 C 119.484375 47.425781 119.164062 47.664062 118.820312 47.878906 C 118.476562 48.089844 118.117188 48.269531 117.734375 48.414062 C 117.351562 48.558594 116.957031 48.671875 116.554688 48.746094 C 116.148438 48.820312 115.738281 48.855469 115.324219 48.855469 C 114.910156 48.855469 114.5 48.820312 114.097656 48.746094 C 113.691406 48.671875 113.296875 48.558594 112.914062 48.414062 C 112.535156 48.269531 112.171875 48.089844 111.828125 47.878906 C 111.484375 47.664062 111.164062 47.425781 110.875 47.152344 C 110.582031 46.882812 110.320312 46.589844 110.089844 46.273438 C 109.859375 45.957031 109.667969 45.621094 109.507812 45.269531 C 109.351562 44.914062 109.230469 44.550781 109.148438 44.179688 C 109.070312 43.804688 109.027344 43.425781 109.027344 43.042969 C 109.027344 42.664062 109.070312 42.285156 109.148438 41.910156 C 109.230469 41.535156 109.351562 41.171875 109.507812 40.820312 C 109.667969 40.464844 109.859375 40.132812 110.089844 39.8125 C 110.320312 39.496094 110.582031 39.203125 110.875 38.933594 C 111.164062 38.664062 111.484375 38.421875 111.828125 38.210938 C 112.171875 38 112.535156 37.820312 112.914062 37.671875 C 113.296875 37.527344 113.691406 37.417969 114.097656 37.34375 C 114.5 37.269531 114.910156 37.230469 115.324219 37.230469 C 115.738281 37.230469 116.148438 37.269531 116.554688 37.34375 C 116.957031 37.417969 117.351562 37.527344 117.734375 37.671875 C 118.117188 37.820312 118.476562 38 118.820312 38.210938 C 119.164062 38.421875 119.484375 38.664062 119.777344 38.933594 C 120.070312 39.203125 120.328125 39.496094 120.558594 39.8125 C 120.789062 40.132812 120.984375 40.464844 121.140625 40.820312 C 121.300781 41.171875 121.417969 41.535156 121.5 41.910156 C 121.578125 42.285156 121.621094 42.664062 121.621094 43.042969 Z M 121.621094 43.042969 " fill-opacity="1" fill-rule="nonzero"/><path fill="#552200" d="M 94.453125 75.488281 L 111.242188 75.488281 L 111.242188 83.238281 L 94.453125 83.238281 Z M 94.453125 75.488281 " fill-opacity="1" fill-rule="nonzero"/></svg>