<svg xmlns="http://www.w3.org/2000/svg" xmlns:xlink="http://www.w3.org/1999/xlink" width="250" zoomAndPan="magnify" viewBox="0 0 187.5 187.499992" height="250" preserveAspectRatio="xMidYMid meet" version="1.0"><defs><clipPath id="9b25be6f55"><path d="M 0 35.15625 L 187 35.15625 L 187 187 L 0 187 Z M 0 35.15625 " clip-rule="nonzero"/></clipPath></defs><path fill="#ed5565" d="M 127.320312 63.789062 C 126.097656 62.453125 113.277344 45.984375 113.277344 45.984375 L 95.460938 38.902344 L 83.375 40.613281 L 64.085938 56.230469 L 58.839844 69.277344 L 56.882812 89.167969 L 61.039062 97.09375 L 64.941406 101.613281 C 64.941406 101.613281 81.910156 98.5625 82.277344 98.683594 C 82.644531 98.804688 112.179688 100.148438 112.179688 100.148438 L 124.023438 101.613281 L 132.320312 85.75 C 132.320312 85.75 128.546875 65.128906 127.320312 63.789062 Z M 127.320312 63.789062 " fill-opacity="1" fill-rule="nonzero"/><path fill="#f5f7fa" d="M 82.488281 56.589844 L 79.652344 44.054688 L 75.164062 45.335938 L 66.742188 54.121094 L 59.785156 66.929688 L 59.785156 73.515625 L 67.566406 72.96875 L 74.800781 71.320312 L 83.128906 67.113281 Z M 82.488281 56.589844 " fill-opacity="1" fill-rule="nonzero"/><path fill="#e6e9ed" d="M 74.214844 98.679688 L 112.425781 98.679688 L 112.425781 120.269531 L 74.214844 120.269531 Z M 74.214844 98.679688 " fill-opacity="1" fill-rule="nonzero"/><path fill="#f5f7fa" d="M 127.441406 75.988281 L 116.269531 82.941406 L 112.425781 91.175781 L 112.425781 96.480469 L 117.1875 101.613281 L 126.160156 103.253906 L 129.636719 92.820312 L 132.320312 80.378906 Z M 127.441406 75.988281 " fill-opacity="1" fill-rule="nonzero"/><path fill="#ffce54" d="M 65.003906 121.183594 L 123.777344 121.183594 L 123.777344 183.585938 L 65.003906 183.585938 Z M 65.003906 121.183594 " fill-opacity="1" fill-rule="nonzero"/><path fill="#fc6e51" d="M 6.234375 122.101562 L 62.503906 122.101562 L 62.503906 184.316406 L 6.234375 184.316406 Z M 6.234375 122.101562 " fill-opacity="1" fill-rule="nonzero"/><path fill="#fc6e51" d="M 127.082031 120.269531 L 183.351562 120.269531 L 183.351562 182.488281 L 127.082031 182.488281 Z M 127.082031 120.269531 " fill-opacity="1" fill-rule="nonzero"/><g clip-path="url(#9b25be6f55)"><path fill="#080808" d="M 183.589844 117.136719 L 117.1875 117.136719 L 117.1875 105.023438 C 119.085938 105.441406 121.015625 105.734375 122.949219 105.734375 C 124.574219 105.734375 126.996094 105.164062 129.277344 102.441406 C 133.933594 96.882812 136 84.597656 134.089844 73.867188 C 131.359375 58.523438 122.609375 49.160156 115.746094 44.003906 C 107.636719 37.914062 98.859375 35.167969 93.738281 35.15625 C 88.632812 35.167969 79.855469 37.914062 71.75 44.003906 C 64.882812 49.160156 56.132812 58.523438 53.402344 73.867188 C 53.398438 73.871094 53.398438 73.875 53.398438 73.882812 C 51.492188 84.617188 53.5625 96.894531 58.214844 102.441406 C 60.5 105.164062 62.917969 105.734375 64.542969 105.734375 C 66.546875 105.734375 68.457031 105.425781 70.3125 104.980469 L 70.3125 117.136719 L 3.902344 117.136719 C 1.746094 117.136719 0 118.882812 0 121.035156 L 0 183.5 C 0 185.65625 1.746094 187.40625 3.902344 187.40625 L 183.589844 187.40625 C 185.746094 187.40625 187.5 185.65625 187.5 183.5 L 187.5 121.035156 C 187.5 118.882812 185.746094 117.136719 183.589844 117.136719 Z M 179.683594 136.652344 L 171.871094 136.652344 L 171.871094 124.941406 L 179.683594 124.941406 Z M 144.527344 136.652344 L 144.527344 124.941406 L 164.0625 124.941406 L 164.0625 136.652344 Z M 136.714844 136.652344 L 128.90625 136.652344 L 128.90625 124.941406 L 136.714844 124.941406 Z M 128.90625 144.460938 L 150.386719 144.460938 L 150.386719 160.078125 L 128.90625 160.078125 Z M 164.0625 167.882812 L 164.0625 179.59375 L 144.527344 179.59375 L 144.527344 167.882812 Z M 158.203125 160.078125 L 158.203125 144.460938 L 179.683594 144.460938 L 179.683594 160.078125 Z M 126.042969 90.792969 C 124.898438 95.75 123.28125 97.589844 122.777344 97.921875 C 120.3125 97.890625 117.46875 97.089844 114.464844 96.242188 C 114.441406 96.242188 114.410156 96.230469 114.390625 96.222656 C 115.664062 87.53125 122.410156 83.261719 126.984375 81.339844 C 127.039062 84.578125 126.730469 87.835938 126.042969 90.792969 Z M 76.441406 50.242188 C 76.882812 49.910156 77.320312 49.597656 77.761719 49.292969 C 79.789062 53.519531 82.195312 60.730469 79.492188 65.214844 C 77.195312 69.011719 71.226562 70.933594 62.117188 70.851562 C 65.105469 60.574219 71.386719 54.046875 76.441406 50.242188 Z M 61.449219 90.792969 C 60.574219 87.007812 60.304688 82.722656 60.652344 78.628906 C 61.304688 78.640625 61.945312 78.652344 62.570312 78.652344 C 74.472656 78.652344 82.402344 75.5 86.179688 69.25 C 91.117188 61.074219 87.03125 50.425781 84.566406 45.449219 C 88.515625 43.691406 91.878906 42.96875 93.738281 42.964844 C 96.8125 42.96875 103.964844 44.917969 111.050781 50.242188 C 116.511719 54.347656 123.390625 61.632812 126.019531 73.367188 C 123.875 74.128906 121.046875 75.359375 118.226562 77.238281 C 111.847656 81.5 107.941406 87.402344 106.75 94.46875 C 106.628906 94.457031 106.507812 94.433594 106.390625 94.421875 C 103.625 94.09375 98.746094 93.898438 93.328125 93.898438 C 87.914062 93.898438 83.03125 94.089844 80.261719 94.421875 C 77.449219 94.753906 74.863281 95.539062 72.355469 96.300781 C 69.65625 97.117188 67.101562 97.890625 64.714844 97.921875 C 64.214844 97.589844 62.59375 95.75 61.449219 90.792969 Z M 78.125 102.765625 C 79.152344 102.507812 80.171875 102.292969 81.179688 102.175781 C 83.621094 101.890625 88.28125 101.707031 93.328125 101.707031 C 98.378906 101.707031 103.035156 101.890625 105.472656 102.175781 C 106.714844 102.328125 108.019531 102.605469 109.371094 102.949219 L 109.371094 117.136719 L 78.125 117.136719 Z M 23.4375 136.652344 L 23.4375 124.941406 L 42.96875 124.941406 L 42.96875 136.652344 Z M 29.296875 144.460938 L 29.296875 160.078125 L 7.8125 160.078125 L 7.8125 144.460938 Z M 42.96875 167.882812 L 42.96875 179.59375 L 23.4375 179.59375 L 23.4375 167.882812 Z M 50.777344 167.882812 L 58.59375 167.882812 L 58.59375 179.59375 L 50.777344 179.59375 Z M 58.59375 160.078125 L 37.109375 160.078125 L 37.109375 144.460938 L 58.59375 144.460938 Z M 58.59375 136.652344 L 50.777344 136.652344 L 50.777344 124.941406 L 58.59375 124.941406 Z M 15.621094 124.941406 L 15.621094 136.652344 L 7.8125 136.652344 L 7.8125 124.941406 Z M 7.8125 167.882812 L 15.621094 167.882812 L 15.621094 179.59375 L 7.8125 179.59375 Z M 66.40625 124.941406 L 121.089844 124.941406 L 121.089844 179.59375 L 66.40625 179.59375 Z M 128.90625 167.882812 L 136.714844 167.882812 L 136.714844 179.59375 L 128.90625 179.59375 Z M 171.871094 179.59375 L 171.871094 167.882812 L 179.683594 167.882812 L 179.683594 179.59375 Z M 171.871094 179.59375 " fill-opacity="1" fill-rule="nonzero"/></g><path fill="#080808" d="M 71.453125 129.992188 C 69.929688 131.511719 69.929688 133.984375 71.453125 135.511719 C 72.980469 137.035156 75.449219 137.035156 76.980469 135.511719 C 78.5 133.984375 78.5 131.511719 76.980469 129.992188 C 75.449219 128.464844 72.980469 128.464844 71.453125 129.992188 Z M 71.453125 129.992188 " fill-opacity="1" fill-rule="nonzero"/><path fill="#080808" d="M 110.515625 129.992188 C 108.988281 131.511719 108.992188 133.984375 110.515625 135.511719 C 112.042969 137.035156 114.515625 137.035156 116.042969 135.511719 C 117.5625 133.984375 117.5625 131.511719 116.042969 129.992188 C 114.515625 128.464844 112.042969 128.464844 110.515625 129.992188 Z M 110.515625 129.992188 " fill-opacity="1" fill-rule="nonzero"/><path fill="#080808" d="M 71.453125 169.027344 C 69.929688 170.546875 69.929688 173.023438 71.453125 174.550781 C 72.980469 176.070312 75.449219 176.070312 76.980469 174.550781 C 78.5 173.023438 78.5 170.546875 76.980469 169.027344 C 75.449219 167.503906 72.980469 167.503906 71.453125 169.027344 Z M 71.453125 169.027344 " fill-opacity="1" fill-rule="nonzero"/><path fill="#080808" d="M 110.515625 169.027344 C 108.988281 170.546875 108.992188 173.023438 110.515625 174.550781 C 112.042969 176.070312 114.515625 176.070312 116.042969 174.550781 C 117.5625 173.023438 117.5625 170.546875 116.042969 169.027344 C 114.515625 167.503906 112.042969 167.503906 110.515625 169.027344 Z M 110.515625 169.027344 " fill-opacity="1" fill-rule="nonzero"/></svg>