<svg xmlns="http://www.w3.org/2000/svg" xmlns:xlink="http://www.w3.org/1999/xlink" width="250" zoomAndPan="magnify" viewBox="0 0 187.5 187.499992" height="250" preserveAspectRatio="xMidYMid meet" version="1.0"><defs><clipPath id="8e34cf1879"><path d="M 17 13.425781 L 187 13.425781 L 187 169 L 17 169 Z M 17 13.425781 " clip-rule="nonzero"/></clipPath><clipPath id="e1b8b223a1"><path d="M 42 13.425781 L 151 13.425781 L 151 142 L 42 142 Z M 42 13.425781 " clip-rule="nonzero"/></clipPath><clipPath id="2a964e2cf4"><path d="M 0 76 L 149 76 L 149 173.925781 L 0 173.925781 Z M 0 76 " clip-rule="nonzero"/></clipPath></defs><path fill="#786b16" d="M 182.914062 86.628906 C 178.597656 120.113281 140.980469 143.066406 86.144531 132.785156 C 31.738281 122.585938 43.429688 15.386719 101.011719 17.472656 C 156.765625 19.488281 187.300781 52.617188 182.914062 86.628906 Z M 182.914062 86.628906 " fill-opacity="1" fill-rule="evenodd"/><g clip-path="url(#8e34cf1879)"><path stroke-linecap="butt" transform="matrix(0.237703, 0, 0, 0.237495, -31.459965, 5.354171)" fill="none" stroke-linejoin="miter" d="M 901.857365 342.217036 C 883.698529 483.20702 725.445507 579.85391 494.754342 536.563472 C 265.870845 493.618436 315.055818 42.243248 557.299618 51.026338 C 791.852616 59.51337 920.312 199.006609 901.857365 342.217036 Z M 901.857365 342.217036 " stroke="#000000" stroke-width="25" stroke-opacity="1" stroke-miterlimit="4"/></g><path fill="#78cc00" d="M 133.160156 79.035156 C 130.4375 111.207031 109.949219 127.25 89.375 124.609375 C 68.800781 121.972656 55.976562 99.175781 59.574219 71.382812 C 63.167969 43.589844 80.464844 24.097656 100.964844 27.238281 C 111.96875 28.925781 135.929688 46.394531 133.164062 79.035156 Z M 133.160156 79.035156 " fill-opacity="1" fill-rule="evenodd"/><g clip-path="url(#e1b8b223a1)"><path stroke-linecap="butt" transform="matrix(0.237703, 0, 0, 0.237495, -31.459965, 5.354171)" fill="none" stroke-linejoin="miter" d="M 692.545969 310.24264 C 681.091934 445.706184 594.899089 513.257031 508.344711 502.138362 C 421.790332 491.036141 367.839692 395.047161 382.974794 278.021527 C 398.093463 160.995894 470.860272 78.921697 557.102418 92.145676 C 603.395124 99.251097 704.197204 172.805367 692.562403 310.24264 Z M 692.545969 310.24264 " stroke="#c4f080" stroke-width="12.5" stroke-opacity="1" stroke-miterlimit="4"/></g><path fill="#d3ff7c" d="M 90.300781 48.628906 C 92.816406 48.117188 90.984375 60.199219 93.378906 62.113281 C 95.769531 64.027344 97.363281 53.085938 99.488281 55.972656 C 101.613281 58.859375 95.761719 63.808594 97.324219 67.402344 C 98.886719 70.996094 106.628906 66.535156 107.269531 70.863281 C 107.910156 75.191406 97.773438 71.085938 97.566406 75.324219 C 97.359375 79.5625 105.972656 86.371094 104.296875 89.929688 C 102.621094 93.484375 97.257812 82.785156 95.125 85.628906 C 92.988281 88.472656 97.425781 99.035156 94.890625 100.8125 C 92.359375 102.585938 92.878906 88.675781 90.277344 88.332031 C 87.675781 87.992188 88.042969 103.832031 85.5 102.691406 C 82.957031 101.554688 87.328125 87.191406 85.445312 83.976562 C 83.566406 80.765625 77.175781 93.640625 76.085938 89.515625 C 74.996094 85.386719 81.492188 80.734375 80.757812 76.527344 C 80.023438 72.320312 72.960938 75.785156 73.140625 71.289062 C 73.324219 66.792969 81.960938 72.371094 83.136719 68.582031 C 84.308594 64.792969 78.296875 56.878906 80.265625 53.988281 C 82.238281 51.097656 83.15625 63.558594 85.601562 61.667969 C 88.046875 59.773438 87.789062 49.140625 90.300781 48.628906 Z M 90.300781 48.628906 " fill-opacity="0.8314" fill-rule="evenodd"/><path fill="#000000" d="M 98.960938 56.398438 C 99.320312 56.621094 99.632812 56.902344 99.902344 57.234375 C 100.113281 57.496094 100.300781 57.8125 100.460938 58.1875 C 100.53125 58.347656 100.578125 58.519531 100.601562 58.710938 C 100.625 58.898438 100.625 59.085938 100.597656 59.273438 C 100.570312 59.457031 100.519531 59.628906 100.445312 59.789062 C 100.375 59.945312 100.28125 60.074219 100.175781 60.179688 C 100.066406 60.285156 99.949219 60.351562 99.824219 60.386719 C 99.695312 60.421875 99.570312 60.417969 99.445312 60.378906 C 99.316406 60.339844 99.203125 60.265625 99.097656 60.15625 C 98.992188 60.046875 98.902344 59.914062 98.832031 59.753906 C 98.777344 59.625 98.71875 59.523438 98.65625 59.449219 C 98.535156 59.296875 98.386719 59.167969 98.207031 59.054688 C 98.085938 58.980469 97.984375 58.875 97.890625 58.738281 C 97.800781 58.601562 97.730469 58.445312 97.683594 58.269531 C 97.636719 58.089844 97.613281 57.90625 97.613281 57.714844 C 97.613281 57.523438 97.640625 57.339844 97.6875 57.164062 C 97.738281 56.988281 97.808594 56.832031 97.902344 56.699219 C 97.992188 56.566406 98.097656 56.460938 98.21875 56.390625 C 98.335938 56.316406 98.460938 56.28125 98.589844 56.285156 C 98.71875 56.285156 98.84375 56.324219 98.960938 56.398438 Z M 103.023438 67.730469 C 103.21875 67.785156 103.535156 67.851562 103.96875 67.9375 C 104.15625 67.976562 104.292969 68.003906 104.386719 68.023438 C 104.515625 68.050781 104.632812 68.113281 104.746094 68.210938 C 104.855469 68.308594 104.949219 68.433594 105.027344 68.585938 C 105.105469 68.738281 105.160156 68.90625 105.191406 69.089844 C 105.222656 69.277344 105.230469 69.464844 105.214844 69.652344 C 105.195312 69.84375 105.152344 70.019531 105.089844 70.183594 C 105.023438 70.347656 104.9375 70.488281 104.835938 70.601562 C 104.734375 70.71875 104.617188 70.800781 104.496094 70.847656 C 104.371094 70.894531 104.242188 70.90625 104.117188 70.878906 C 104.027344 70.859375 103.890625 70.832031 103.710938 70.796875 C 103.25 70.707031 102.90625 70.628906 102.679688 70.570312 C 102.554688 70.535156 102.433594 70.46875 102.328125 70.363281 C 102.21875 70.261719 102.128906 70.132812 102.054688 69.972656 C 101.980469 69.816406 101.929688 69.644531 101.902344 69.457031 C 101.875 69.273438 101.871094 69.085938 101.894531 68.894531 C 101.917969 68.707031 101.964844 68.535156 102.03125 68.371094 C 102.101562 68.210938 102.191406 68.078125 102.296875 67.96875 C 102.402344 67.859375 102.515625 67.78125 102.644531 67.742188 C 102.769531 67.699219 102.894531 67.699219 103.023438 67.730469 Z M 103.988281 77.707031 C 103.953125 77.796875 103.929688 77.875 103.921875 77.941406 C 103.902344 78.125 103.910156 78.382812 103.945312 78.722656 C 103.960938 78.910156 103.957031 79.097656 103.925781 79.28125 C 103.894531 79.46875 103.839844 79.636719 103.765625 79.792969 C 103.6875 79.945312 103.59375 80.070312 103.484375 80.171875 C 103.375 80.269531 103.257812 80.332031 103.128906 80.363281 C 103 80.390625 102.875 80.382812 102.75 80.335938 C 102.625 80.289062 102.511719 80.210938 102.40625 80.097656 C 102.304688 79.984375 102.21875 79.84375 102.152344 79.679688 C 102.085938 79.515625 102.042969 79.339844 102.023438 79.152344 C 101.957031 78.515625 101.953125 77.957031 102.007812 77.472656 C 102.054688 77.039062 102.164062 76.621094 102.328125 76.214844 C 102.394531 76.050781 102.480469 75.910156 102.582031 75.796875 C 102.6875 75.683594 102.800781 75.605469 102.925781 75.558594 C 103.050781 75.515625 103.179688 75.507812 103.304688 75.535156 C 103.433594 75.566406 103.550781 75.628906 103.660156 75.726562 C 103.773438 75.828125 103.863281 75.953125 103.941406 76.105469 C 104.015625 76.261719 104.070312 76.429688 104.101562 76.617188 C 104.132812 76.800781 104.136719 76.988281 104.117188 77.179688 C 104.097656 77.367188 104.054688 77.542969 103.988281 77.707031 Z M 101.734375 89.839844 C 101.410156 89.789062 100.929688 89.671875 100.289062 89.5 C 100.160156 89.464844 100.042969 89.394531 99.9375 89.289062 C 99.828125 89.1875 99.738281 89.054688 99.664062 88.898438 C 99.589844 88.742188 99.542969 88.570312 99.515625 88.382812 C 99.488281 88.195312 99.484375 88.007812 99.507812 87.820312 C 99.53125 87.632812 99.578125 87.457031 99.648438 87.296875 C 99.71875 87.136719 99.808594 87 99.914062 86.894531 C 100.019531 86.785156 100.136719 86.710938 100.261719 86.671875 C 100.386719 86.628906 100.511719 86.628906 100.640625 86.664062 C 101.234375 86.824219 101.671875 86.929688 101.949219 86.976562 C 102.078125 86.996094 102.199219 87.054688 102.308594 87.144531 C 102.421875 87.238281 102.519531 87.359375 102.601562 87.507812 C 102.679688 87.65625 102.738281 87.824219 102.773438 88.007812 C 102.808594 88.191406 102.820312 88.378906 102.804688 88.566406 C 102.792969 88.757812 102.753906 88.9375 102.691406 89.105469 C 102.628906 89.273438 102.546875 89.414062 102.449219 89.535156 C 102.347656 89.652344 102.234375 89.738281 102.113281 89.792969 C 101.988281 89.847656 101.863281 89.863281 101.734375 89.839844 Z M 96.820312 95.515625 C 96.605469 96.613281 96.285156 97.429688 95.863281 97.96875 C 95.765625 98.09375 95.652344 98.1875 95.53125 98.246094 C 95.410156 98.304688 95.285156 98.328125 95.15625 98.3125 C 95.027344 98.300781 94.90625 98.25 94.789062 98.164062 C 94.675781 98.078125 94.578125 97.960938 94.492188 97.816406 C 94.410156 97.671875 94.347656 97.507812 94.308594 97.324219 C 94.265625 97.144531 94.25 96.957031 94.261719 96.765625 C 94.269531 96.578125 94.304688 96.394531 94.363281 96.226562 C 94.421875 96.054688 94.5 95.90625 94.597656 95.78125 C 94.726562 95.617188 94.847656 95.257812 94.953125 94.710938 C 94.988281 94.527344 95.046875 94.359375 95.128906 94.210938 C 95.210938 94.0625 95.304688 93.941406 95.417969 93.851562 C 95.53125 93.757812 95.652344 93.703125 95.78125 93.679688 C 95.90625 93.660156 96.035156 93.675781 96.15625 93.730469 C 96.28125 93.78125 96.394531 93.867188 96.492188 93.988281 C 96.59375 94.109375 96.675781 94.25 96.738281 94.417969 C 96.800781 94.585938 96.835938 94.765625 96.851562 94.957031 C 96.867188 95.144531 96.855469 95.332031 96.820312 95.515625 Z M 89.953125 94.078125 C 89.78125 94.441406 89.554688 94.988281 89.273438 95.71875 C 89.210938 95.886719 89.128906 96.027344 89.027344 96.144531 C 88.925781 96.261719 88.8125 96.34375 88.6875 96.394531 C 88.5625 96.445312 88.4375 96.460938 88.308594 96.433594 C 88.179688 96.410156 88.0625 96.351562 87.949219 96.257812 C 87.835938 96.164062 87.742188 96.039062 87.664062 95.886719 C 87.585938 95.738281 87.527344 95.570312 87.496094 95.386719 C 87.460938 95.199219 87.453125 95.011719 87.46875 94.824219 C 87.484375 94.632812 87.523438 94.457031 87.585938 94.289062 C 87.898438 93.480469 88.160156 92.855469 88.367188 92.417969 C 88.441406 92.261719 88.53125 92.132812 88.640625 92.027344 C 88.75 91.925781 88.867188 91.859375 88.996094 91.828125 C 89.121094 91.792969 89.246094 91.800781 89.375 91.839844 C 89.5 91.882812 89.613281 91.960938 89.71875 92.070312 C 89.824219 92.179688 89.910156 92.316406 89.980469 92.476562 C 90.050781 92.636719 90.09375 92.8125 90.117188 93 C 90.140625 93.191406 90.136719 93.378906 90.105469 93.5625 C 90.078125 93.75 90.027344 93.921875 89.953125 94.078125 Z M 83.046875 93.351562 L 83.039062 93.308594 L 82.660156 91.371094 C 82.625 91.1875 82.613281 91.003906 82.628906 90.8125 C 82.644531 90.621094 82.679688 90.445312 82.742188 90.277344 C 82.804688 90.109375 82.886719 89.964844 82.988281 89.847656 C 83.085938 89.726562 83.199219 89.640625 83.324219 89.585938 C 83.445312 89.535156 83.574219 89.515625 83.699219 89.539062 C 83.828125 89.558594 83.949219 89.617188 84.0625 89.707031 C 84.175781 89.800781 84.269531 89.921875 84.351562 90.070312 C 84.433594 90.21875 84.492188 90.386719 84.527344 90.570312 L 84.90625 92.507812 L 84.914062 92.550781 C 84.949219 92.734375 84.960938 92.921875 84.945312 93.109375 C 84.929688 93.300781 84.894531 93.480469 84.832031 93.648438 C 84.769531 93.816406 84.6875 93.957031 84.585938 94.078125 C 84.488281 94.195312 84.375 94.28125 84.25 94.335938 C 84.128906 94.390625 84 94.40625 83.875 94.382812 C 83.746094 94.363281 83.625 94.308594 83.511719 94.214844 C 83.398438 94.121094 83.304688 94 83.222656 93.851562 C 83.140625 93.703125 83.085938 93.535156 83.046875 93.351562 Z M 76.703125 89.039062 C 76.460938 88.761719 76.277344 88.402344 76.148438 87.960938 C 75.957031 87.300781 75.925781 86.539062 76.050781 85.679688 C 76.078125 85.496094 76.128906 85.324219 76.203125 85.167969 C 76.277344 85.007812 76.367188 84.878906 76.476562 84.777344 C 76.585938 84.671875 76.703125 84.605469 76.828125 84.570312 C 76.957031 84.539062 77.082031 84.542969 77.207031 84.582031 C 77.335938 84.625 77.449219 84.699219 77.554688 84.808594 C 77.660156 84.917969 77.75 85.050781 77.816406 85.210938 C 77.886719 85.375 77.933594 85.546875 77.957031 85.738281 C 77.980469 85.925781 77.976562 86.113281 77.949219 86.300781 C 77.910156 86.554688 77.90625 86.726562 77.933594 86.820312 C 77.929688 86.804688 77.914062 86.785156 77.890625 86.757812 C 77.992188 86.875 78.074219 87.015625 78.136719 87.179688 C 78.203125 87.347656 78.242188 87.523438 78.257812 87.714844 C 78.273438 87.902344 78.265625 88.089844 78.230469 88.277344 C 78.199219 88.460938 78.140625 88.628906 78.0625 88.777344 C 77.984375 88.929688 77.890625 89.054688 77.777344 89.148438 C 77.664062 89.242188 77.546875 89.304688 77.417969 89.328125 C 77.289062 89.351562 77.164062 89.339844 77.039062 89.289062 C 76.917969 89.238281 76.804688 89.15625 76.703125 89.039062 Z M 78.078125 76.617188 C 77.816406 76.421875 77.429688 76.191406 76.910156 75.921875 C 76.789062 75.859375 76.679688 75.761719 76.585938 75.636719 C 76.488281 75.507812 76.414062 75.359375 76.359375 75.183594 C 76.300781 75.011719 76.269531 74.832031 76.261719 74.640625 C 76.257812 74.449219 76.273438 74.265625 76.316406 74.082031 C 76.359375 73.902344 76.421875 73.742188 76.507812 73.597656 C 76.59375 73.457031 76.695312 73.34375 76.8125 73.261719 C 76.929688 73.179688 77.050781 73.132812 77.179688 73.121094 C 77.308594 73.109375 77.433594 73.136719 77.554688 73.199219 C 78.148438 73.511719 78.613281 73.789062 78.949219 74.039062 C 79.066406 74.125 79.164062 74.242188 79.25 74.386719 C 79.332031 74.53125 79.394531 74.691406 79.433594 74.875 C 79.476562 75.054688 79.492188 75.242188 79.480469 75.433594 C 79.472656 75.625 79.4375 75.804688 79.382812 75.976562 C 79.324219 76.144531 79.246094 76.292969 79.148438 76.417969 C 79.050781 76.542969 78.941406 76.636719 78.820312 76.695312 C 78.695312 76.757812 78.570312 76.78125 78.445312 76.765625 C 78.316406 76.753906 78.195312 76.703125 78.078125 76.617188 Z M 76.324219 65.398438 C 76.742188 64.839844 77.050781 64.398438 77.257812 64.074219 C 77.34375 63.933594 77.449219 63.824219 77.566406 63.746094 C 77.683594 63.667969 77.804688 63.625 77.933594 63.617188 C 78.0625 63.609375 78.1875 63.640625 78.308594 63.710938 C 78.429688 63.777344 78.535156 63.875 78.628906 64.007812 C 78.722656 64.136719 78.796875 64.289062 78.851562 64.464844 C 78.902344 64.636719 78.933594 64.820312 78.9375 65.011719 C 78.941406 65.203125 78.917969 65.386719 78.875 65.566406 C 78.828125 65.746094 78.761719 65.902344 78.675781 66.042969 C 78.433594 66.429688 78.082031 66.925781 77.628906 67.539062 C 77.53125 67.667969 77.421875 67.761719 77.300781 67.828125 C 77.179688 67.890625 77.054688 67.917969 76.925781 67.910156 C 76.796875 67.898438 76.675781 67.855469 76.558594 67.773438 C 76.445312 67.691406 76.34375 67.578125 76.257812 67.4375 C 76.167969 67.292969 76.105469 67.132812 76.0625 66.953125 C 76.019531 66.773438 76 66.589844 76.007812 66.398438 C 76.011719 66.207031 76.042969 66.023438 76.097656 65.851562 C 76.152344 65.679688 76.230469 65.527344 76.324219 65.398438 Z M 83.21875 56.3125 C 83.273438 56.410156 83.351562 56.554688 83.457031 56.75 C 83.71875 57.230469 83.90625 57.542969 84.023438 57.695312 C 84.121094 57.816406 84.199219 57.964844 84.257812 58.136719 C 84.316406 58.304688 84.351562 58.484375 84.359375 58.675781 C 84.371094 58.867188 84.355469 59.054688 84.316406 59.234375 C 84.277344 59.417969 84.214844 59.582031 84.132812 59.726562 C 84.046875 59.871094 83.949219 59.988281 83.832031 60.074219 C 83.71875 60.160156 83.597656 60.210938 83.46875 60.226562 C 83.339844 60.242188 83.214844 60.21875 83.09375 60.160156 C 82.96875 60.101562 82.859375 60.011719 82.761719 59.886719 C 82.550781 59.617188 82.277344 59.171875 81.941406 58.550781 C 81.847656 58.371094 81.773438 58.242188 81.730469 58.160156 C 81.648438 58.015625 81.585938 57.851562 81.546875 57.667969 C 81.507812 57.484375 81.496094 57.300781 81.507812 57.109375 C 81.519531 56.917969 81.554688 56.738281 81.613281 56.570312 C 81.671875 56.398438 81.753906 56.253906 81.851562 56.132812 C 81.949219 56.007812 82.0625 55.917969 82.183594 55.859375 C 82.308594 55.804688 82.433594 55.785156 82.558594 55.800781 C 82.6875 55.816406 82.808594 55.871094 82.925781 55.960938 C 83.039062 56.046875 83.136719 56.164062 83.21875 56.3125 Z M 89.367188 51.117188 C 89.738281 50.800781 90.09375 50.613281 90.429688 50.550781 L 90.550781 51.980469 L 89.679688 51.335938 L 89.914062 50.648438 L 90.429688 50.550781 C 91.347656 50.378906 92.046875 50.921875 92.527344 52.175781 C 92.59375 52.339844 92.632812 52.519531 92.648438 52.710938 C 92.664062 52.898438 92.65625 53.085938 92.621094 53.269531 C 92.585938 53.453125 92.53125 53.621094 92.453125 53.773438 C 92.371094 53.925781 92.277344 54.046875 92.164062 54.140625 C 92.054688 54.234375 91.933594 54.292969 91.804688 54.320312 C 91.675781 54.34375 91.550781 54.328125 91.425781 54.277344 C 91.304688 54.226562 91.191406 54.144531 91.089844 54.027344 C 90.988281 53.910156 90.90625 53.765625 90.839844 53.601562 C 90.789062 53.464844 90.730469 53.402344 90.671875 53.410156 L 90.550781 51.980469 L 91.417969 52.625 L 91.1875 53.316406 L 90.671875 53.410156 C 90.589844 53.425781 90.472656 53.496094 90.324219 53.625 C 90.210938 53.71875 90.09375 53.777344 89.964844 53.800781 C 89.835938 53.824219 89.710938 53.8125 89.585938 53.761719 C 89.460938 53.710938 89.351562 53.625 89.25 53.507812 C 89.148438 53.390625 89.0625 53.25 89 53.082031 C 88.9375 52.917969 88.898438 52.738281 88.882812 52.546875 C 88.867188 52.359375 88.875 52.171875 88.910156 51.988281 C 88.945312 51.804688 89 51.636719 89.078125 51.484375 C 89.160156 51.335938 89.253906 51.210938 89.367188 51.117188 Z M 89.367188 51.117188 " fill-opacity="1" fill-rule="nonzero"/><path fill="#000000" d="M 78.5 58.003906 C 78.378906 58.628906 78.246094 59.125 78.09375 59.496094 C 78.03125 59.65625 77.992188 59.824219 77.980469 60 C 77.96875 60.175781 77.980469 60.347656 78.023438 60.515625 C 78.066406 60.679688 78.132812 60.832031 78.21875 60.964844 C 78.308594 61.097656 78.417969 61.203125 78.539062 61.28125 C 78.664062 61.359375 78.796875 61.40625 78.933594 61.417969 C 79.074219 61.429688 79.207031 61.410156 79.34375 61.351562 C 79.476562 61.296875 79.59375 61.210938 79.703125 61.09375 C 79.808594 60.980469 79.894531 60.839844 79.957031 60.683594 C 80.191406 60.117188 80.386719 59.414062 80.542969 58.578125 C 80.574219 58.402344 80.582031 58.230469 80.558594 58.058594 C 80.539062 57.882812 80.488281 57.722656 80.417969 57.574219 C 80.34375 57.425781 80.25 57.300781 80.140625 57.199219 C 80.027344 57.097656 79.902344 57.027344 79.765625 56.992188 C 79.628906 56.953125 79.492188 56.949219 79.355469 56.980469 C 79.21875 57.011719 79.089844 57.074219 78.972656 57.167969 C 78.851562 57.265625 78.753906 57.382812 78.671875 57.527344 C 78.589844 57.671875 78.53125 57.832031 78.5 58.003906 Z M 70.203125 60.667969 C 69.839844 61.550781 69.742188 62.46875 69.90625 63.421875 C 69.9375 63.59375 69.992188 63.75 70.070312 63.890625 C 70.148438 64.035156 70.25 64.152344 70.367188 64.246094 C 70.484375 64.335938 70.609375 64.398438 70.746094 64.425781 C 70.886719 64.453125 71.023438 64.445312 71.15625 64.40625 C 71.292969 64.363281 71.417969 64.292969 71.535156 64.1875 C 71.648438 64.085938 71.742188 63.957031 71.820312 63.808594 C 71.894531 63.65625 71.945312 63.496094 71.96875 63.320312 C 71.992188 63.148438 71.992188 62.972656 71.960938 62.800781 C 71.90625 62.480469 71.941406 62.167969 72.0625 61.867188 C 72.128906 61.707031 72.167969 61.542969 72.179688 61.363281 C 72.195312 61.1875 72.179688 61.015625 72.140625 60.847656 C 72.097656 60.683594 72.03125 60.53125 71.945312 60.398438 C 71.855469 60.265625 71.75 60.15625 71.625 60.078125 C 71.5 60 71.371094 59.953125 71.230469 59.941406 C 71.09375 59.925781 70.957031 59.949219 70.824219 60.003906 C 70.691406 60.058594 70.570312 60.144531 70.460938 60.257812 C 70.355469 60.375 70.269531 60.511719 70.203125 60.667969 Z M 73.933594 72.226562 C 73.824219 72.550781 73.609375 72.917969 73.300781 73.332031 C 73.203125 73.460938 73.128906 73.609375 73.074219 73.773438 C 73.023438 73.941406 73 74.109375 73 74.289062 C 73.003906 74.464844 73.03125 74.632812 73.085938 74.792969 C 73.144531 74.953125 73.21875 75.09375 73.320312 75.214844 C 73.421875 75.335938 73.535156 75.425781 73.664062 75.488281 C 73.792969 75.550781 73.929688 75.578125 74.066406 75.574219 C 74.207031 75.566406 74.339844 75.527344 74.46875 75.457031 C 74.597656 75.382812 74.710938 75.28125 74.808594 75.152344 C 75.296875 74.5 75.648438 73.863281 75.863281 73.238281 C 75.917969 73.074219 75.945312 72.90625 75.949219 72.730469 C 75.949219 72.550781 75.925781 72.382812 75.875 72.21875 C 75.824219 72.058594 75.75 71.914062 75.652344 71.789062 C 75.554688 71.664062 75.445312 71.566406 75.316406 71.5 C 75.1875 71.433594 75.054688 71.398438 74.914062 71.402344 C 74.777344 71.402344 74.640625 71.433594 74.511719 71.503906 C 74.382812 71.570312 74.265625 71.667969 74.167969 71.792969 C 74.066406 71.917969 73.988281 72.0625 73.933594 72.226562 Z M 66.085938 80.382812 C 65.578125 81.066406 65.222656 81.734375 65.027344 82.386719 C 64.976562 82.554688 64.953125 82.722656 64.957031 82.902344 C 64.960938 83.078125 64.992188 83.246094 65.046875 83.40625 C 65.105469 83.566406 65.183594 83.703125 65.285156 83.824219 C 65.386719 83.941406 65.503906 84.03125 65.632812 84.089844 C 65.761719 84.152344 65.898438 84.175781 66.035156 84.167969 C 66.175781 84.160156 66.308594 84.121094 66.4375 84.042969 C 66.5625 83.96875 66.675781 83.867188 66.769531 83.734375 C 66.867188 83.605469 66.941406 83.457031 66.988281 83.292969 C 67.085938 82.976562 67.289062 82.613281 67.597656 82.195312 C 67.695312 82.066406 67.769531 81.921875 67.820312 81.753906 C 67.871094 81.589844 67.894531 81.417969 67.894531 81.242188 C 67.890625 81.066406 67.863281 80.898438 67.808594 80.738281 C 67.75 80.574219 67.671875 80.433594 67.574219 80.316406 C 67.472656 80.195312 67.359375 80.105469 67.226562 80.042969 C 67.097656 79.980469 66.964844 79.953125 66.824219 79.960938 C 66.683594 79.964844 66.550781 80.007812 66.421875 80.078125 C 66.296875 80.152344 66.183594 80.253906 66.085938 80.382812 Z M 73.28125 87.347656 C 73.839844 87.359375 74.316406 87.386719 74.71875 87.433594 C 74.859375 87.449219 74.996094 87.429688 75.128906 87.375 C 75.261719 87.324219 75.382812 87.242188 75.492188 87.128906 C 75.601562 87.015625 75.6875 86.878906 75.753906 86.722656 C 75.820312 86.566406 75.863281 86.398438 75.878906 86.222656 C 75.890625 86.046875 75.878906 85.875 75.839844 85.707031 C 75.800781 85.539062 75.738281 85.386719 75.648438 85.25 C 75.5625 85.117188 75.457031 85.007812 75.335938 84.925781 C 75.210938 84.84375 75.082031 84.796875 74.945312 84.78125 C 74.492188 84.730469 73.964844 84.699219 73.359375 84.683594 C 73.21875 84.679688 73.085938 84.710938 72.953125 84.777344 C 72.824219 84.839844 72.707031 84.933594 72.605469 85.058594 C 72.503906 85.179688 72.421875 85.324219 72.363281 85.484375 C 72.304688 85.644531 72.273438 85.816406 72.269531 85.992188 C 72.265625 86.167969 72.285156 86.339844 72.335938 86.503906 C 72.382812 86.667969 72.453125 86.8125 72.550781 86.941406 C 72.644531 87.066406 72.753906 87.164062 72.882812 87.238281 C 73.007812 87.308594 73.140625 87.34375 73.28125 87.347656 Z M 76.324219 94.070312 L 76.199219 94.5625 L 75.855469 95.898438 C 75.8125 96.070312 75.796875 96.242188 75.808594 96.417969 C 75.816406 96.59375 75.855469 96.757812 75.917969 96.914062 C 75.980469 97.070312 76.066406 97.203125 76.171875 97.316406 C 76.277344 97.429688 76.394531 97.511719 76.527344 97.5625 C 76.660156 97.613281 76.796875 97.632812 76.9375 97.613281 C 77.074219 97.597656 77.207031 97.546875 77.332031 97.464844 C 77.457031 97.382812 77.5625 97.273438 77.652344 97.136719 C 77.746094 97 77.8125 96.847656 77.855469 96.679688 L 78.199219 95.34375 L 78.324219 94.851562 C 78.367188 94.679688 78.382812 94.507812 78.371094 94.332031 C 78.363281 94.15625 78.324219 93.992188 78.261719 93.835938 C 78.199219 93.679688 78.113281 93.546875 78.007812 93.433594 C 77.902344 93.320312 77.785156 93.238281 77.652344 93.1875 C 77.519531 93.136719 77.382812 93.117188 77.246094 93.136719 C 77.105469 93.152344 76.972656 93.203125 76.847656 93.285156 C 76.726562 93.367188 76.617188 93.476562 76.527344 93.613281 C 76.4375 93.75 76.367188 93.902344 76.324219 94.070312 Z M 80.574219 103.765625 C 80.910156 103.554688 81.375 103.238281 81.964844 102.804688 C 82.085938 102.714844 82.191406 102.601562 82.277344 102.460938 C 82.363281 102.320312 82.425781 102.164062 82.464844 101.992188 C 82.5 101.824219 82.511719 101.648438 82.496094 101.476562 C 82.480469 101.300781 82.4375 101.136719 82.371094 100.984375 C 82.300781 100.832031 82.214844 100.703125 82.105469 100.59375 C 81.996094 100.488281 81.875 100.410156 81.738281 100.367188 C 81.605469 100.320312 81.46875 100.3125 81.328125 100.335938 C 81.191406 100.359375 81.0625 100.414062 80.941406 100.503906 C 80.390625 100.90625 79.972656 101.195312 79.679688 101.375 C 79.554688 101.453125 79.445312 101.558594 79.351562 101.691406 C 79.257812 101.824219 79.183594 101.972656 79.136719 102.140625 C 79.089844 102.308594 79.070312 102.480469 79.078125 102.65625 C 79.082031 102.832031 79.117188 103 79.175781 103.160156 C 79.234375 103.316406 79.316406 103.453125 79.417969 103.570312 C 79.519531 103.6875 79.636719 103.773438 79.769531 103.832031 C 79.898438 103.886719 80.035156 103.910156 80.175781 103.898438 C 80.3125 103.886719 80.445312 103.84375 80.574219 103.765625 Z M 88.371094 103.875 L 88.976562 104.746094 L 89.367188 105.308594 C 89.457031 105.4375 89.566406 105.542969 89.691406 105.617188 C 89.816406 105.695312 89.945312 105.738281 90.085938 105.746094 C 90.226562 105.757812 90.359375 105.730469 90.492188 105.671875 C 90.625 105.613281 90.746094 105.527344 90.851562 105.40625 C 90.957031 105.289062 91.039062 105.152344 91.101562 104.992188 C 91.164062 104.832031 91.199219 104.664062 91.210938 104.488281 C 91.222656 104.3125 91.203125 104.140625 91.160156 103.972656 C 91.117188 103.808594 91.046875 103.660156 90.957031 103.527344 L 90.566406 102.964844 L 89.960938 102.09375 C 89.867188 101.960938 89.757812 101.859375 89.636719 101.78125 C 89.511719 101.707031 89.378906 101.664062 89.238281 101.65625 C 89.101562 101.644531 88.964844 101.671875 88.832031 101.730469 C 88.699219 101.789062 88.582031 101.878906 88.476562 101.996094 C 88.371094 102.113281 88.285156 102.253906 88.222656 102.414062 C 88.160156 102.570312 88.125 102.738281 88.117188 102.914062 C 88.105469 103.09375 88.125 103.261719 88.167969 103.429688 C 88.210938 103.597656 88.277344 103.746094 88.371094 103.875 Z M 97.816406 105.152344 C 97.902344 104.828125 98.027344 104.332031 98.1875 103.667969 C 98.230469 103.488281 98.265625 103.351562 98.285156 103.265625 C 98.328125 103.09375 98.339844 102.921875 98.328125 102.746094 C 98.316406 102.570312 98.277344 102.40625 98.210938 102.25 C 98.148438 102.097656 98.0625 101.964844 97.953125 101.855469 C 97.847656 101.746094 97.726562 101.664062 97.59375 101.617188 C 97.460938 101.566406 97.324219 101.550781 97.183594 101.570312 C 97.046875 101.589844 96.914062 101.644531 96.792969 101.730469 C 96.667969 101.8125 96.5625 101.925781 96.472656 102.0625 C 96.382812 102.203125 96.320312 102.355469 96.277344 102.523438 C 96.253906 102.621094 96.222656 102.757812 96.179688 102.9375 C 96.027344 103.570312 95.910156 104.03125 95.832031 104.320312 C 95.785156 104.488281 95.765625 104.660156 95.773438 104.835938 C 95.78125 105.011719 95.816406 105.179688 95.875 105.335938 C 95.9375 105.496094 96.019531 105.628906 96.121094 105.746094 C 96.226562 105.859375 96.34375 105.945312 96.476562 106 C 96.605469 106.054688 96.742188 106.078125 96.882812 106.0625 C 97.019531 106.050781 97.152344 106.003906 97.277344 105.925781 C 97.40625 105.84375 97.515625 105.738281 97.605469 105.605469 C 97.699219 105.46875 97.769531 105.320312 97.816406 105.152344 Z M 103.234375 101.199219 C 103.316406 101.265625 103.441406 101.363281 103.609375 101.5 C 104.011719 101.824219 104.3125 102.0625 104.515625 102.21875 C 104.632812 102.308594 104.761719 102.367188 104.898438 102.394531 C 105.035156 102.421875 105.171875 102.410156 105.308594 102.371094 C 105.445312 102.328125 105.570312 102.253906 105.683594 102.148438 C 105.796875 102.042969 105.890625 101.914062 105.964844 101.761719 C 106.039062 101.613281 106.089844 101.449219 106.109375 101.273438 C 106.132812 101.101562 106.128906 100.925781 106.097656 100.757812 C 106.070312 100.585938 106.011719 100.429688 105.933594 100.285156 C 105.851562 100.144531 105.75 100.027344 105.632812 99.9375 C 105.441406 99.789062 105.152344 99.558594 104.761719 99.246094 C 104.589844 99.105469 104.464844 99.003906 104.378906 98.9375 C 104.261719 98.84375 104.136719 98.785156 104 98.753906 C 103.863281 98.726562 103.726562 98.730469 103.589844 98.769531 C 103.453125 98.8125 103.328125 98.882812 103.210938 98.984375 C 103.097656 99.085938 103 99.214844 102.925781 99.363281 C 102.851562 99.511719 102.800781 99.675781 102.773438 99.851562 C 102.75 100.023438 102.75 100.195312 102.777344 100.367188 C 102.808594 100.539062 102.863281 100.699219 102.941406 100.84375 C 103.019531 100.984375 103.117188 101.105469 103.234375 101.199219 Z M 109.941406 95.925781 C 109.832031 95.542969 109.660156 94.964844 109.421875 94.191406 L 109.410156 94.148438 C 109.40625 94.144531 109.402344 94.132812 109.394531 94.109375 C 109.347656 93.945312 109.273438 93.800781 109.175781 93.675781 C 109.082031 93.550781 108.96875 93.453125 108.839844 93.382812 C 108.714844 93.316406 108.582031 93.28125 108.441406 93.277344 C 108.300781 93.277344 108.167969 93.3125 108.039062 93.378906 C 107.90625 93.445312 107.792969 93.539062 107.691406 93.664062 C 107.589844 93.789062 107.511719 93.929688 107.453125 94.09375 C 107.398438 94.257812 107.367188 94.425781 107.363281 94.601562 C 107.359375 94.777344 107.382812 94.949219 107.433594 95.113281 L 107.445312 95.152344 L 107.460938 95.195312 C 107.691406 95.949219 107.859375 96.511719 107.964844 96.875 C 108.011719 97.039062 108.082031 97.1875 108.175781 97.316406 C 108.269531 97.441406 108.378906 97.542969 108.503906 97.617188 C 108.632812 97.6875 108.765625 97.726562 108.902344 97.730469 C 109.042969 97.734375 109.175781 97.707031 109.308594 97.644531 C 109.441406 97.582031 109.558594 97.488281 109.660156 97.367188 C 109.761719 97.246094 109.84375 97.105469 109.902344 96.945312 C 109.964844 96.78125 109.996094 96.613281 110.003906 96.4375 C 110.007812 96.261719 109.988281 96.089844 109.941406 95.925781 Z M 110.222656 86.4375 C 110.582031 86.261719 111.019531 86.078125 111.535156 85.882812 C 111.667969 85.832031 111.792969 85.75 111.902344 85.640625 C 112.011719 85.527344 112.101562 85.394531 112.167969 85.238281 C 112.238281 85.085938 112.28125 84.917969 112.296875 84.742188 C 112.3125 84.566406 112.304688 84.394531 112.265625 84.226562 C 112.230469 84.058594 112.167969 83.902344 112.082031 83.765625 C 111.996094 83.628906 111.890625 83.519531 111.769531 83.4375 C 111.648438 83.351562 111.519531 83.300781 111.382812 83.28125 C 111.242188 83.265625 111.105469 83.28125 110.972656 83.332031 C 110.40625 83.542969 109.914062 83.75 109.503906 83.953125 C 109.371094 84.015625 109.253906 84.109375 109.152344 84.230469 C 109.046875 84.351562 108.96875 84.492188 108.910156 84.65625 C 108.851562 84.816406 108.816406 84.984375 108.8125 85.160156 C 108.804688 85.339844 108.828125 85.507812 108.875 85.671875 C 108.921875 85.839844 108.992188 85.984375 109.085938 86.113281 C 109.179688 86.238281 109.292969 86.339844 109.417969 86.410156 C 109.542969 86.484375 109.675781 86.519531 109.816406 86.523438 C 109.957031 86.527344 110.089844 86.5 110.222656 86.4375 Z M 118.398438 77.996094 C 118.171875 77.410156 117.84375 76.800781 117.417969 76.171875 C 117.324219 76.039062 117.21875 75.9375 117.09375 75.859375 C 116.96875 75.78125 116.839844 75.738281 116.699219 75.726562 C 116.5625 75.714844 116.425781 75.738281 116.292969 75.796875 C 116.160156 75.851562 116.039062 75.941406 115.933594 76.054688 C 115.828125 76.171875 115.742188 76.3125 115.679688 76.46875 C 115.617188 76.628906 115.578125 76.796875 115.566406 76.972656 C 115.554688 77.148438 115.570312 77.320312 115.613281 77.488281 C 115.65625 77.652344 115.722656 77.804688 115.8125 77.933594 C 116.125 78.394531 116.355469 78.816406 116.503906 79.199219 C 116.566406 79.359375 116.648438 79.492188 116.753906 79.609375 C 116.855469 79.722656 116.972656 79.808594 117.105469 79.863281 C 117.238281 79.917969 117.371094 79.9375 117.511719 79.925781 C 117.652344 79.914062 117.785156 79.867188 117.910156 79.785156 C 118.035156 79.707031 118.144531 79.597656 118.238281 79.464844 C 118.328125 79.332031 118.398438 79.179688 118.445312 79.011719 C 118.492188 78.84375 118.507812 78.671875 118.5 78.496094 C 118.492188 78.320312 118.460938 78.152344 118.398438 77.996094 Z M 111.085938 68.605469 C 111 68.417969 110.9375 68.246094 110.902344 68.085938 C 110.875 67.96875 110.871094 67.84375 110.886719 67.714844 C 110.910156 67.539062 110.90625 67.367188 110.875 67.195312 C 110.84375 67.023438 110.789062 66.867188 110.707031 66.726562 C 110.628906 66.582031 110.527344 66.46875 110.410156 66.375 C 110.292969 66.285156 110.164062 66.226562 110.027344 66.199219 C 109.890625 66.171875 109.753906 66.179688 109.617188 66.222656 C 109.480469 66.265625 109.355469 66.339844 109.242188 66.445312 C 109.128906 66.550781 109.035156 66.675781 108.960938 66.828125 C 108.886719 66.980469 108.839844 67.144531 108.816406 67.316406 C 108.742188 67.851562 108.765625 68.375 108.882812 68.882812 C 108.96875 69.242188 109.09375 69.605469 109.261719 69.972656 C 109.328125 70.121094 109.417969 70.25 109.53125 70.355469 C 109.640625 70.460938 109.761719 70.535156 109.898438 70.578125 C 110.03125 70.621094 110.167969 70.632812 110.304688 70.605469 C 110.445312 70.582031 110.574219 70.523438 110.695312 70.433594 C 110.816406 70.339844 110.917969 70.226562 111.003906 70.082031 C 111.089844 69.941406 111.152344 69.785156 111.1875 69.613281 C 111.226562 69.445312 111.234375 69.269531 111.214844 69.097656 C 111.199219 68.921875 111.15625 68.757812 111.085938 68.605469 Z M 116.359375 58.636719 C 116.363281 58.074219 116.261719 57.539062 116.050781 57.023438 C 115.894531 56.636719 115.679688 56.289062 115.414062 55.984375 C 115.3125 55.867188 115.195312 55.78125 115.066406 55.722656 C 114.933594 55.667969 114.800781 55.644531 114.660156 55.652344 C 114.519531 55.664062 114.386719 55.707031 114.261719 55.785156 C 114.132812 55.863281 114.023438 55.96875 113.929688 56.097656 C 113.835938 56.230469 113.761719 56.378906 113.714844 56.546875 C 113.667969 56.714844 113.644531 56.886719 113.652344 57.0625 C 113.65625 57.238281 113.691406 57.40625 113.75 57.566406 C 113.808594 57.722656 113.886719 57.859375 113.988281 57.976562 C 114.074219 58.074219 114.136719 58.175781 114.179688 58.285156 C 114.230469 58.40625 114.257812 58.527344 114.253906 58.648438 C 114.253906 58.824219 114.277344 58.992188 114.328125 59.15625 C 114.378906 59.320312 114.453125 59.460938 114.550781 59.585938 C 114.648438 59.710938 114.761719 59.804688 114.890625 59.875 C 115.015625 59.941406 115.152344 59.972656 115.289062 59.972656 C 115.429688 59.972656 115.5625 59.9375 115.695312 59.871094 C 115.824219 59.800781 115.9375 59.703125 116.039062 59.578125 C 116.136719 59.453125 116.214844 59.308594 116.269531 59.144531 C 116.328125 58.984375 116.355469 58.8125 116.359375 58.636719 Z M 106.074219 54.050781 C 105.546875 53.984375 105.105469 53.894531 104.738281 53.777344 C 104.601562 53.738281 104.46875 53.726562 104.328125 53.753906 C 104.191406 53.78125 104.0625 53.839844 103.941406 53.929688 C 103.820312 54.019531 103.714844 54.136719 103.632812 54.28125 C 103.546875 54.421875 103.484375 54.578125 103.449219 54.75 C 103.414062 54.921875 103.402344 55.09375 103.421875 55.269531 C 103.441406 55.441406 103.484375 55.605469 103.554688 55.757812 C 103.625 55.910156 103.714844 56.035156 103.824219 56.140625 C 103.933594 56.246094 104.058594 56.320312 104.191406 56.363281 C 104.65625 56.511719 105.199219 56.621094 105.824219 56.703125 C 105.964844 56.71875 106.101562 56.703125 106.234375 56.652344 C 106.367188 56.601562 106.492188 56.519531 106.601562 56.40625 C 106.710938 56.292969 106.796875 56.160156 106.867188 56.003906 C 106.933594 55.851562 106.976562 55.683594 106.992188 55.507812 C 107.007812 55.332031 107 55.160156 106.960938 54.992188 C 106.921875 54.824219 106.863281 54.667969 106.773438 54.53125 C 106.6875 54.394531 106.585938 54.285156 106.464844 54.203125 C 106.339844 54.121094 106.210938 54.070312 106.074219 54.050781 Z M 101.402344 45.097656 C 101.066406 44.285156 100.628906 43.660156 100.089844 43.222656 C 99.972656 43.125 99.847656 43.0625 99.710938 43.035156 C 99.570312 43.003906 99.433594 43.007812 99.300781 43.046875 C 99.164062 43.085938 99.035156 43.15625 98.921875 43.257812 C 98.804688 43.359375 98.710938 43.484375 98.632812 43.632812 C 98.554688 43.785156 98.503906 43.945312 98.476562 44.117188 C 98.453125 44.292969 98.453125 44.464844 98.480469 44.636719 C 98.507812 44.808594 98.5625 44.96875 98.640625 45.113281 C 98.71875 45.257812 98.816406 45.375 98.929688 45.472656 C 99.167969 45.660156 99.367188 45.960938 99.535156 46.367188 C 99.601562 46.519531 99.683594 46.65625 99.792969 46.765625 C 99.898438 46.875 100.019531 46.957031 100.152344 47.007812 C 100.285156 47.058594 100.417969 47.074219 100.558594 47.054688 C 100.699219 47.039062 100.828125 46.988281 100.953125 46.902344 C 101.078125 46.816406 101.183594 46.707031 101.273438 46.570312 C 101.363281 46.433594 101.429688 46.28125 101.472656 46.109375 C 101.515625 45.941406 101.527344 45.769531 101.515625 45.59375 C 101.503906 45.417969 101.46875 45.253906 101.402344 45.097656 Z M 92.519531 48.726562 C 92.472656 48.734375 92.429688 48.738281 92.386719 48.738281 C 92.109375 48.742188 91.792969 48.683594 91.429688 48.558594 C 91.296875 48.511719 91.160156 48.5 91.023438 48.519531 C 90.882812 48.542969 90.753906 48.597656 90.628906 48.683594 C 90.507812 48.769531 90.402344 48.882812 90.316406 49.023438 C 90.226562 49.164062 90.164062 49.316406 90.125 49.488281 C 90.085938 49.65625 90.074219 49.832031 90.085938 50.007812 C 90.101562 50.179688 90.140625 50.34375 90.210938 50.5 C 90.277344 50.652344 90.363281 50.785156 90.472656 50.890625 C 90.578125 51 90.699219 51.078125 90.835938 51.125 C 91.386719 51.320312 91.902344 51.410156 92.378906 51.398438 C 92.496094 51.398438 92.609375 51.386719 92.71875 51.371094 C 92.859375 51.351562 92.988281 51.300781 93.113281 51.214844 C 93.234375 51.128906 93.339844 51.015625 93.429688 50.875 C 93.519531 50.738281 93.582031 50.585938 93.625 50.414062 C 93.664062 50.246094 93.679688 50.070312 93.664062 49.898438 C 93.652344 49.722656 93.613281 49.554688 93.546875 49.402344 C 93.480469 49.246094 93.394531 49.117188 93.289062 49.007812 C 93.179688 48.898438 93.058594 48.816406 92.925781 48.769531 C 92.792969 48.722656 92.65625 48.707031 92.519531 48.726562 Z M 82.890625 44.335938 C 82.546875 44.355469 82.21875 44.425781 81.910156 44.546875 L 81.765625 44.605469 L 81.640625 44.710938 L 82.207031 45.816406 L 81.910156 44.546875 C 81.210938 44.828125 80.648438 45.449219 80.21875 46.410156 C 80.152344 46.566406 80.109375 46.734375 80.09375 46.90625 C 80.074219 47.082031 80.085938 47.257812 80.121094 47.425781 C 80.160156 47.59375 80.222656 47.746094 80.308594 47.882812 C 80.394531 48.023438 80.496094 48.132812 80.617188 48.214844 C 80.738281 48.300781 80.867188 48.351562 81.007812 48.371094 C 81.144531 48.386719 81.28125 48.371094 81.417969 48.320312 C 81.550781 48.269531 81.671875 48.191406 81.78125 48.078125 C 81.894531 47.96875 81.980469 47.832031 82.050781 47.679688 C 82.199219 47.347656 82.347656 47.148438 82.503906 47.085938 L 82.648438 47.03125 L 82.773438 46.925781 L 82.207031 45.816406 L 82.503906 47.085938 C 82.636719 47.035156 82.78125 47.003906 82.941406 46.996094 C 83.078125 46.988281 83.210938 46.945312 83.339844 46.871094 C 83.46875 46.796875 83.578125 46.695312 83.675781 46.566406 C 83.773438 46.4375 83.84375 46.289062 83.894531 46.121094 C 83.945312 45.957031 83.96875 45.785156 83.964844 45.609375 C 83.960938 45.433594 83.933594 45.265625 83.875 45.105469 C 83.820312 44.945312 83.742188 44.804688 83.640625 44.683594 C 83.539062 44.566406 83.421875 44.476562 83.292969 44.414062 C 83.164062 44.355469 83.027344 44.328125 82.890625 44.335938 Z M 82.890625 44.335938 " fill-opacity="1" fill-rule="nonzero"/><path fill="#786b16" d="M 56.722656 169.863281 C 20.476562 168.261719 3.078125 159.332031 3.929688 134.476562 C 4.480469 118.5 31.257812 108.457031 62.621094 110.789062 C 93.988281 113.125 115.371094 119.378906 114.761719 141.40625 C 114.328125 156.921875 93.503906 171.484375 56.722656 169.863281 Z M 56.722656 169.863281 " fill-opacity="1" fill-rule="evenodd"/><g clip-path="url(#2a964e2cf4)"><path stroke-linecap="butt" transform="matrix(0.237703, 0, 0, 0.237495, -31.459965, 5.354171)" fill="none" stroke-linejoin="miter" d="M 370.978459 692.685371 C 218.493538 685.9418 145.299461 648.342278 148.881929 543.685341 C 151.199029 476.414105 263.849544 434.126979 395.792796 443.946277 C 527.75248 453.782022 617.708559 480.114845 615.144959 572.863622 C 613.320859 638.194025 525.714747 699.511181 370.978459 692.685371 Z M 370.978459 692.685371 " stroke="#000000" stroke-width="25" stroke-opacity="1" stroke-miterlimit="4"/></g><path stroke-linecap="butt" transform="matrix(0.237703, 0, 0, 0.237495, -31.459965, 5.354171)" fill-opacity="1" fill="#78cc00" fill-rule="evenodd" stroke-linejoin="miter" d="M 374.035059 618.473191 C 238.262841 613.489528 167.632364 571.185953 175.586099 528.290261 C 183.539833 485.394568 277.472779 458.206463 394.971129 465.098064 C 512.469478 471.989664 597.11759 507.582563 587.043955 550.330226 C 581.637388 573.274816 511.812145 623.539094 374.035059 618.473191 Z M 374.035059 618.473191 " stroke="#c4f080" stroke-width="12.5" stroke-opacity="1" stroke-miterlimit="4"/><path fill="#d3ff7c" d="M 86.300781 130.894531 C 86.90625 132.136719 74.753906 131.289062 72.925781 132.484375 C 71.097656 133.675781 82.101562 134.410156 79.292969 135.476562 C 76.484375 136.539062 71.320312 133.671875 67.785156 134.464844 C 64.246094 135.253906 68.988281 139.058594 64.683594 139.398438 C 60.375 139.738281 64.117188 134.703125 59.871094 134.621094 C 55.621094 134.542969 49.125 138.835938 45.507812 138.023438 C 41.890625 137.214844 52.394531 134.507812 49.472656 133.46875 C 46.550781 132.425781 36.148438 134.671875 34.28125 133.429688 C 32.414062 132.1875 46.34375 132.371094 46.59375 131.085938 C 46.839844 129.796875 31.011719 130.058594 32.058594 128.796875 C 33.101562 127.535156 47.628906 129.621094 50.773438 128.675781 C 53.917969 127.726562 40.804688 124.632812 44.894531 124.074219 C 48.980469 123.515625 53.871094 126.703125 58.050781 126.316406 C 62.234375 125.933594 58.511719 122.457031 63.015625 122.523438 C 67.519531 122.59375 62.253906 126.890625 66.085938 127.453125 C 69.917969 128.011719 77.613281 125 80.574219 125.960938 C 83.539062 126.917969 71.109375 127.4375 73.089844 128.636719 C 75.074219 129.835938 85.699219 129.65625 86.300781 130.894531 Z M 86.300781 130.894531 " fill-opacity="0.8314" fill-rule="evenodd"/><path fill="#000000" d="M 72.773438 136.605469 C 72.566406 136.617188 72.253906 136.628906 71.84375 136.648438 C 70.976562 136.683594 70.351562 136.710938 69.976562 136.734375 C 69.707031 136.75 69.441406 136.75 69.175781 136.730469 C 68.910156 136.710938 68.664062 136.675781 68.4375 136.625 C 68.214844 136.574219 68.027344 136.507812 67.875 136.433594 C 67.726562 136.355469 67.628906 136.273438 67.578125 136.183594 C 67.527344 136.097656 67.527344 136.007812 67.582031 135.917969 C 67.636719 135.832031 67.742188 135.75 67.894531 135.675781 C 68.046875 135.601562 68.238281 135.539062 68.464844 135.488281 C 68.691406 135.441406 68.9375 135.40625 69.207031 135.390625 C 69.660156 135.363281 70.355469 135.332031 71.296875 135.292969 C 71.695312 135.277344 71.992188 135.261719 72.1875 135.253906 C 72.457031 135.242188 72.722656 135.246094 72.988281 135.269531 C 73.25 135.292969 73.492188 135.332031 73.710938 135.386719 C 73.925781 135.441406 74.105469 135.507812 74.242188 135.585938 C 74.382812 135.664062 74.472656 135.75 74.511719 135.839844 C 74.550781 135.929688 74.535156 136.019531 74.46875 136.105469 C 74.402344 136.191406 74.285156 136.273438 74.121094 136.34375 C 73.960938 136.417969 73.761719 136.476562 73.527344 136.519531 C 73.292969 136.566406 73.042969 136.59375 72.773438 136.605469 Z M 58.40625 138.328125 C 57.894531 138.105469 57.550781 137.988281 57.378906 137.976562 C 57.113281 137.957031 56.867188 137.921875 56.644531 137.867188 C 56.421875 137.816406 56.234375 137.75 56.089844 137.675781 C 55.941406 137.597656 55.84375 137.515625 55.792969 137.425781 C 55.746094 137.335938 55.75 137.25 55.808594 137.160156 C 55.863281 137.070312 55.972656 136.992188 56.125 136.917969 C 56.28125 136.84375 56.472656 136.78125 56.699219 136.734375 C 56.929688 136.683594 57.175781 136.652344 57.445312 136.636719 C 57.710938 136.621094 57.980469 136.625 58.246094 136.644531 C 59.386719 136.730469 60.519531 137.015625 61.640625 137.496094 C 61.808594 137.566406 61.925781 137.648438 62 137.734375 C 62.074219 137.824219 62.09375 137.910156 62.058594 138 C 62.027344 138.089844 61.941406 138.175781 61.808594 138.253906 C 61.675781 138.332031 61.5 138.398438 61.285156 138.453125 C 61.070312 138.507812 60.832031 138.546875 60.570312 138.570312 C 60.308594 138.59375 60.042969 138.601562 59.773438 138.585938 C 59.503906 138.574219 59.25 138.546875 59.011719 138.503906 C 58.777344 138.457031 58.574219 138.398438 58.40625 138.328125 Z M 45.4375 135.441406 C 45.535156 135.148438 45.535156 134.976562 45.441406 134.921875 C 45.300781 134.84375 45.214844 134.757812 45.175781 134.667969 C 45.140625 134.578125 45.15625 134.492188 45.226562 134.402344 C 45.292969 134.316406 45.410156 134.238281 45.574219 134.164062 C 45.738281 134.09375 45.9375 134.035156 46.171875 133.988281 C 46.40625 133.945312 46.660156 133.917969 46.929688 133.90625 C 47.199219 133.894531 47.464844 133.898438 47.726562 133.921875 C 47.988281 133.945312 48.230469 133.984375 48.445312 134.042969 C 48.664062 134.097656 48.839844 134.164062 48.976562 134.242188 C 49.53125 134.558594 49.710938 135.011719 49.511719 135.605469 C 49.480469 135.695312 49.398438 135.78125 49.269531 135.859375 C 49.136719 135.9375 48.964844 136.003906 48.753906 136.0625 C 48.539062 136.117188 48.304688 136.15625 48.042969 136.179688 C 47.78125 136.207031 47.515625 136.210938 47.246094 136.199219 C 46.976562 136.191406 46.722656 136.164062 46.484375 136.117188 C 46.246094 136.074219 46.042969 136.015625 45.871094 135.945312 C 45.703125 135.875 45.578125 135.792969 45.503906 135.707031 C 45.429688 135.621094 45.40625 135.53125 45.4375 135.441406 Z M 41.070312 131.289062 C 41.164062 131.253906 41.222656 131.230469 41.246094 131.210938 C 41.230469 131.226562 41.222656 131.242188 41.226562 131.265625 C 41.226562 131.292969 41.242188 131.316406 41.269531 131.335938 L 41.242188 131.324219 C 41.070312 131.253906 40.941406 131.175781 40.863281 131.089844 C 40.785156 131.003906 40.757812 130.914062 40.785156 130.824219 C 40.8125 130.734375 40.890625 130.648438 41.019531 130.570312 C 41.144531 130.492188 41.316406 130.421875 41.527344 130.367188 C 41.734375 130.308594 41.972656 130.269531 42.230469 130.242188 C 42.492188 130.21875 42.757812 130.210938 43.027344 130.21875 C 43.296875 130.226562 43.554688 130.253906 43.792969 130.296875 C 44.03125 130.34375 44.238281 130.398438 44.410156 130.46875 C 44.984375 130.703125 45.289062 130.953125 45.320312 131.21875 C 45.367188 131.578125 44.949219 131.917969 44.066406 132.230469 C 43.882812 132.292969 43.667969 132.34375 43.417969 132.382812 C 43.171875 132.417969 42.910156 132.4375 42.640625 132.441406 C 42.367188 132.441406 42.105469 132.429688 41.851562 132.394531 C 41.597656 132.363281 41.367188 132.316406 41.171875 132.253906 C 40.972656 132.191406 40.816406 132.117188 40.703125 132.035156 C 40.589844 131.953125 40.527344 131.867188 40.519531 131.777344 C 40.511719 131.6875 40.550781 131.597656 40.648438 131.515625 C 40.742188 131.429688 40.882812 131.355469 41.070312 131.289062 Z M 42.609375 127.1875 C 43.789062 127.066406 44.65625 126.96875 45.203125 126.890625 C 45.449219 126.855469 45.710938 126.835938 45.984375 126.835938 C 46.253906 126.835938 46.519531 126.851562 46.769531 126.886719 C 47.023438 126.921875 47.246094 126.96875 47.441406 127.03125 C 47.640625 127.097656 47.789062 127.167969 47.898438 127.253906 C 48.007812 127.335938 48.0625 127.421875 48.070312 127.515625 C 48.074219 127.605469 48.027344 127.691406 47.925781 127.777344 C 47.828125 127.859375 47.683594 127.933594 47.492188 128 C 47.304688 128.0625 47.085938 128.113281 46.835938 128.148438 C 46.160156 128.242188 45.167969 128.359375 43.855469 128.492188 C 43.59375 128.519531 43.328125 128.53125 43.058594 128.519531 C 42.789062 128.511719 42.53125 128.488281 42.289062 128.445312 C 42.046875 128.402344 41.839844 128.347656 41.664062 128.277344 C 41.488281 128.207031 41.359375 128.128906 41.277344 128.042969 C 41.195312 127.957031 41.164062 127.867188 41.1875 127.777344 C 41.210938 127.6875 41.285156 127.601562 41.410156 127.523438 C 41.535156 127.441406 41.703125 127.375 41.910156 127.316406 C 42.117188 127.257812 42.351562 127.214844 42.609375 127.1875 Z M 54.472656 124.71875 C 55.46875 124.902344 56.214844 125.015625 56.710938 125.0625 C 56.972656 125.085938 57.210938 125.128906 57.425781 125.183594 C 57.640625 125.238281 57.816406 125.308594 57.953125 125.386719 C 58.085938 125.464844 58.171875 125.550781 58.203125 125.640625 C 58.238281 125.730469 58.21875 125.820312 58.148438 125.90625 C 58.078125 125.992188 57.957031 126.070312 57.789062 126.144531 C 57.625 126.214844 57.421875 126.269531 57.1875 126.316406 C 56.949219 126.359375 56.695312 126.386719 56.425781 126.398438 C 56.15625 126.40625 55.890625 126.402344 55.628906 126.375 C 54.828125 126.300781 53.789062 126.144531 52.515625 125.910156 C 52.277344 125.867188 52.070312 125.808594 51.902344 125.738281 C 51.730469 125.667969 51.605469 125.589844 51.527344 125.503906 C 51.449219 125.414062 51.425781 125.328125 51.453125 125.238281 C 51.484375 125.148438 51.5625 125.0625 51.691406 124.984375 C 51.820312 124.90625 51.992188 124.835938 52.203125 124.78125 C 52.414062 124.722656 52.652344 124.683594 52.910156 124.660156 C 53.171875 124.632812 53.4375 124.625 53.707031 124.636719 C 53.980469 124.648438 54.234375 124.675781 54.472656 124.71875 Z M 68.988281 123.761719 C 68.988281 123.761719 69.023438 123.773438 69.089844 123.796875 C 69.929688 124.097656 70.53125 124.296875 70.894531 124.402344 C 71.101562 124.464844 71.265625 124.535156 71.386719 124.617188 C 71.507812 124.695312 71.582031 124.78125 71.601562 124.871094 C 71.621094 124.964844 71.585938 125.050781 71.503906 125.136719 C 71.417969 125.222656 71.285156 125.300781 71.109375 125.367188 C 70.929688 125.433594 70.71875 125.488281 70.476562 125.53125 C 70.234375 125.570312 69.976562 125.59375 69.707031 125.597656 C 69.433594 125.605469 69.171875 125.59375 68.914062 125.5625 C 68.65625 125.535156 68.421875 125.488281 68.214844 125.429688 C 67.746094 125.292969 67.042969 125.058594 66.105469 124.726562 C 66.0625 124.710938 66.027344 124.699219 66.003906 124.691406 C 65.820312 124.625 65.675781 124.546875 65.582031 124.464844 C 65.484375 124.378906 65.4375 124.289062 65.445312 124.199219 C 65.453125 124.109375 65.515625 124.023438 65.625 123.941406 C 65.734375 123.859375 65.890625 123.785156 66.089844 123.726562 C 66.285156 123.664062 66.511719 123.617188 66.765625 123.585938 C 67.019531 123.554688 67.28125 123.539062 67.554688 123.542969 C 67.828125 123.546875 68.085938 123.566406 68.335938 123.605469 C 68.582031 123.644531 68.800781 123.695312 68.988281 123.761719 Z M 77.902344 128.070312 C 78.269531 128.21875 78.886719 128.429688 79.757812 128.707031 C 79.953125 128.769531 80.109375 128.839844 80.21875 128.921875 C 80.332031 129.007812 80.390625 129.09375 80.398438 129.183594 C 80.40625 129.273438 80.363281 129.363281 80.265625 129.445312 C 80.171875 129.53125 80.027344 129.605469 79.84375 129.671875 C 79.65625 129.734375 79.4375 129.785156 79.191406 129.824219 C 78.941406 129.859375 78.683594 129.878906 78.410156 129.878906 C 78.136719 129.882812 77.875 129.867188 77.621094 129.832031 C 77.367188 129.800781 77.140625 129.753906 76.945312 129.691406 C 75.957031 129.378906 75.226562 129.125 74.753906 128.9375 C 74.582031 128.867188 74.453125 128.789062 74.371094 128.703125 C 74.289062 128.617188 74.261719 128.527344 74.285156 128.4375 C 74.308594 128.347656 74.386719 128.261719 74.511719 128.183594 C 74.636719 128.101562 74.804688 128.035156 75.011719 127.976562 C 75.222656 127.917969 75.453125 127.878906 75.714844 127.851562 C 75.972656 127.824219 76.238281 127.816406 76.511719 127.824219 C 76.78125 127.832031 77.035156 127.859375 77.277344 127.902344 C 77.519531 127.945312 77.726562 128 77.902344 128.070312 Z M 84.984375 130.9375 C 85.265625 131.5625 84.320312 132.035156 82.152344 132.351562 C 81.902344 132.386719 81.640625 132.40625 81.371094 132.40625 C 81.097656 132.410156 80.835938 132.394531 80.582031 132.359375 C 80.328125 132.328125 80.101562 132.28125 79.90625 132.21875 C 79.707031 132.152344 79.554688 132.082031 79.441406 132 C 79.332031 131.914062 79.273438 131.828125 79.265625 131.738281 C 79.257812 131.648438 79.300781 131.558594 79.398438 131.476562 C 79.496094 131.390625 79.636719 131.316406 79.824219 131.25 C 80.011719 131.1875 80.230469 131.136719 80.476562 131.101562 C 80.855469 131.046875 81.0625 131.011719 81.105469 130.996094 C 80.96875 131.042969 80.910156 131.085938 80.929688 131.128906 C 80.886719 131.039062 80.902344 130.949219 80.964844 130.863281 C 81.03125 130.773438 81.144531 130.695312 81.308594 130.621094 C 81.46875 130.550781 81.667969 130.492188 81.898438 130.445312 C 82.132812 130.398438 82.382812 130.371094 82.652344 130.355469 C 82.921875 130.34375 83.1875 130.347656 83.453125 130.371094 C 83.714844 130.394531 83.957031 130.433594 84.175781 130.488281 C 84.394531 130.542969 84.574219 130.609375 84.714844 130.6875 C 84.855469 130.765625 84.945312 130.847656 84.984375 130.9375 Z M 84.984375 130.9375 " fill-opacity="1" fill-rule="nonzero"/><path fill="#000000" d="M 74.679688 124.316406 C 74.730469 124.167969 74.933594 123.90625 75.292969 123.535156 C 75.316406 123.511719 75.332031 123.492188 75.347656 123.476562 C 75.433594 123.386719 75.472656 123.292969 75.460938 123.195312 C 75.453125 123.097656 75.394531 123.003906 75.289062 122.914062 C 75.183594 122.820312 75.039062 122.742188 74.855469 122.671875 C 74.671875 122.605469 74.460938 122.550781 74.226562 122.515625 C 73.992188 122.476562 73.746094 122.457031 73.496094 122.457031 C 73.246094 122.457031 73.003906 122.476562 72.777344 122.515625 C 72.546875 122.554688 72.347656 122.609375 72.179688 122.675781 C 72.007812 122.746094 71.878906 122.828125 71.792969 122.917969 C 71.78125 122.929688 71.761719 122.949219 71.738281 122.972656 C 71.28125 123.445312 71.011719 123.8125 70.921875 124.070312 C 70.886719 124.167969 70.902344 124.261719 70.96875 124.359375 C 71.035156 124.453125 71.140625 124.542969 71.292969 124.621094 C 71.445312 124.699219 71.632812 124.765625 71.851562 124.820312 C 72.066406 124.871094 72.300781 124.90625 72.550781 124.921875 C 72.796875 124.9375 73.042969 124.933594 73.289062 124.914062 C 73.53125 124.890625 73.75 124.851562 73.949219 124.796875 C 74.152344 124.738281 74.3125 124.667969 74.4375 124.585938 C 74.566406 124.503906 74.644531 124.414062 74.679688 124.316406 Z M 63.078125 122.710938 C 62.875 122.734375 62.683594 122.742188 62.5 122.738281 C 62.386719 122.738281 62.230469 122.710938 62.027344 122.664062 C 61.808594 122.609375 61.574219 122.578125 61.328125 122.558594 C 61.078125 122.542969 60.832031 122.546875 60.589844 122.566406 C 60.347656 122.589844 60.125 122.628906 59.925781 122.683594 C 59.726562 122.742188 59.5625 122.8125 59.433594 122.894531 C 59.308594 122.976562 59.230469 123.066406 59.195312 123.164062 C 59.160156 123.261719 59.175781 123.355469 59.242188 123.453125 C 59.304688 123.546875 59.414062 123.636719 59.566406 123.714844 C 59.71875 123.796875 59.902344 123.863281 60.121094 123.914062 C 60.886719 124.097656 61.652344 124.199219 62.417969 124.214844 C 63.03125 124.230469 63.640625 124.199219 64.25 124.132812 C 64.488281 124.105469 64.703125 124.0625 64.894531 124 C 65.085938 123.9375 65.238281 123.867188 65.355469 123.78125 C 65.46875 123.695312 65.535156 123.601562 65.554688 123.503906 C 65.574219 123.40625 65.542969 123.3125 65.46875 123.21875 C 65.390625 123.125 65.269531 123.039062 65.105469 122.960938 C 64.941406 122.886719 64.75 122.824219 64.523438 122.773438 C 64.300781 122.726562 64.0625 122.699219 63.8125 122.6875 C 63.5625 122.675781 63.316406 122.683594 63.078125 122.710938 Z M 48.722656 118.40625 C 47.546875 118.632812 46.804688 119.09375 46.492188 119.792969 C 46.449219 119.886719 46.457031 119.984375 46.511719 120.082031 C 46.566406 120.175781 46.667969 120.265625 46.8125 120.347656 C 46.957031 120.429688 47.136719 120.5 47.347656 120.554688 C 47.5625 120.609375 47.789062 120.644531 48.039062 120.667969 C 48.285156 120.6875 48.53125 120.6875 48.777344 120.667969 C 49.023438 120.652344 49.246094 120.613281 49.453125 120.5625 C 49.660156 120.507812 49.828125 120.441406 49.960938 120.359375 C 50.097656 120.277344 50.183594 120.191406 50.226562 120.09375 C 50.292969 119.945312 50.375 119.835938 50.476562 119.761719 C 50.503906 119.742188 50.523438 119.730469 50.542969 119.722656 C 50.535156 119.726562 50.519531 119.730469 50.5 119.734375 C 50.722656 119.691406 50.914062 119.632812 51.074219 119.558594 C 51.234375 119.484375 51.351562 119.402344 51.425781 119.308594 C 51.5 119.21875 51.523438 119.121094 51.5 119.023438 C 51.476562 118.925781 51.402344 118.832031 51.285156 118.746094 C 51.167969 118.65625 51.011719 118.582031 50.820312 118.515625 C 50.625 118.449219 50.40625 118.402344 50.167969 118.371094 C 49.925781 118.339844 49.683594 118.324219 49.433594 118.332031 C 49.183594 118.335938 48.945312 118.363281 48.722656 118.40625 Z M 44.242188 124.367188 C 43.621094 124.335938 42.824219 124.269531 41.851562 124.164062 C 41.605469 124.136719 41.359375 124.128906 41.113281 124.140625 C 40.863281 124.152344 40.632812 124.179688 40.417969 124.230469 C 40.203125 124.277344 40.019531 124.339844 39.871094 124.417969 C 39.722656 124.492188 39.617188 124.578125 39.558594 124.671875 C 39.5 124.765625 39.488281 124.863281 39.527344 124.960938 C 39.5625 125.058594 39.648438 125.148438 39.777344 125.234375 C 39.90625 125.320312 40.074219 125.394531 40.277344 125.453125 C 40.480469 125.515625 40.703125 125.558594 40.945312 125.585938 C 42.113281 125.710938 43.101562 125.796875 43.914062 125.832031 C 44.164062 125.84375 44.410156 125.839844 44.648438 125.8125 C 44.890625 125.785156 45.105469 125.742188 45.296875 125.683594 C 45.488281 125.621094 45.644531 125.546875 45.761719 125.464844 C 45.875 125.378906 45.945312 125.285156 45.964844 125.1875 C 45.988281 125.09375 45.960938 124.996094 45.882812 124.902344 C 45.808594 124.808594 45.6875 124.722656 45.527344 124.644531 C 45.367188 124.566406 45.171875 124.503906 44.949219 124.457031 C 44.726562 124.410156 44.492188 124.378906 44.242188 124.367188 Z M 31.085938 127 C 31.160156 127.046875 31.273438 127.121094 31.425781 127.21875 C 31.902344 127.519531 32.234375 127.746094 32.425781 127.886719 C 32.546875 127.976562 32.703125 128.054688 32.894531 128.117188 C 33.089844 128.183594 33.304688 128.230469 33.546875 128.261719 C 33.785156 128.296875 34.03125 128.308594 34.28125 128.300781 C 34.53125 128.296875 34.769531 128.269531 34.992188 128.226562 C 35.210938 128.183594 35.402344 128.128906 35.5625 128.054688 C 35.722656 127.980469 35.839844 127.898438 35.914062 127.804688 C 35.988281 127.710938 36.011719 127.617188 35.988281 127.519531 C 35.964844 127.421875 35.890625 127.328125 35.773438 127.242188 C 35.539062 127.066406 35.164062 126.8125 34.644531 126.480469 C 34.496094 126.386719 34.386719 126.316406 34.3125 126.269531 C 34.179688 126.183594 34.015625 126.109375 33.808594 126.050781 C 33.605469 125.988281 33.382812 125.945312 33.136719 125.921875 C 32.894531 125.894531 32.648438 125.886719 32.398438 125.898438 C 32.152344 125.910156 31.921875 125.941406 31.707031 125.992188 C 31.492188 126.039062 31.3125 126.101562 31.164062 126.179688 C 31.015625 126.257812 30.914062 126.34375 30.855469 126.4375 C 30.796875 126.53125 30.789062 126.628906 30.828125 126.722656 C 30.867188 126.820312 30.953125 126.914062 31.085938 127 Z M 25.585938 132.367188 C 25.332031 132.644531 25.21875 132.921875 25.25 133.203125 C 25.28125 133.5 25.480469 133.773438 25.84375 134.019531 C 25.972656 134.105469 26.136719 134.179688 26.335938 134.242188 C 26.535156 134.304688 26.757812 134.347656 27 134.378906 C 27.246094 134.40625 27.492188 134.414062 27.738281 134.402344 C 27.988281 134.394531 28.222656 134.367188 28.4375 134.320312 C 28.652344 134.273438 28.839844 134.210938 28.988281 134.132812 C 29.140625 134.058594 29.25 133.972656 29.3125 133.878906 C 29.375 133.785156 29.390625 133.691406 29.355469 133.59375 C 29.320312 133.496094 29.238281 133.402344 29.113281 133.316406 C 29.066406 133.285156 29.042969 133.246094 29.035156 133.191406 C 29.027344 133.105469 29.066406 133.011719 29.160156 132.910156 C 29.242188 132.820312 29.277344 132.726562 29.265625 132.628906 C 29.253906 132.53125 29.191406 132.4375 29.085938 132.347656 C 28.976562 132.257812 28.828125 132.175781 28.644531 132.109375 C 28.457031 132.039062 28.246094 131.988281 28.007812 131.953125 C 27.769531 131.917969 27.527344 131.898438 27.277344 131.902344 C 27.027344 131.902344 26.785156 131.921875 26.558594 131.960938 C 26.332031 132 26.136719 132.054688 25.964844 132.125 C 25.796875 132.195312 25.671875 132.277344 25.585938 132.367188 Z M 34.007812 137.238281 C 33.882812 137.324219 33.6875 137.453125 33.417969 137.625 C 33.066406 137.855469 32.808594 138.023438 32.640625 138.140625 C 32.519531 138.222656 32.441406 138.316406 32.414062 138.410156 C 32.386719 138.507812 32.40625 138.605469 32.472656 138.699219 C 32.542969 138.792969 32.65625 138.882812 32.8125 138.960938 C 32.96875 139.039062 33.15625 139.105469 33.375 139.15625 C 33.59375 139.207031 33.828125 139.238281 34.078125 139.253906 C 34.328125 139.265625 34.574219 139.261719 34.816406 139.238281 C 35.058594 139.214844 35.277344 139.175781 35.472656 139.117188 C 35.671875 139.058594 35.832031 138.988281 35.953125 138.902344 C 36.105469 138.796875 36.347656 138.636719 36.683594 138.417969 C 36.960938 138.238281 37.167969 138.101562 37.304688 138.011719 C 37.429688 137.929688 37.507812 137.839844 37.539062 137.742188 C 37.570312 137.644531 37.550781 137.550781 37.484375 137.453125 C 37.417969 137.359375 37.308594 137.269531 37.152344 137.191406 C 37 137.113281 36.8125 137.046875 36.59375 136.996094 C 36.375 136.945312 36.140625 136.910156 35.890625 136.894531 C 35.640625 136.878906 35.398438 136.882812 35.152344 136.90625 C 34.910156 136.929688 34.691406 136.96875 34.492188 137.027344 C 34.296875 137.082031 34.132812 137.152344 34.007812 137.238281 Z M 44.488281 140.363281 C 45.347656 140.253906 46.042969 140.191406 46.578125 140.183594 C 46.828125 140.175781 47.066406 140.152344 47.289062 140.113281 C 47.511719 140.070312 47.707031 140.011719 47.867188 139.941406 C 48.027344 139.867188 48.148438 139.785156 48.222656 139.691406 C 48.300781 139.601562 48.328125 139.503906 48.308594 139.40625 C 48.285156 139.308594 48.21875 139.214844 48.101562 139.128906 C 47.984375 139.039062 47.832031 138.960938 47.640625 138.894531 C 47.449219 138.832031 47.234375 138.78125 46.992188 138.75 C 46.753906 138.714844 46.507812 138.703125 46.257812 138.707031 C 45.390625 138.722656 44.375 138.804688 43.203125 138.953125 C 42.964844 138.984375 42.753906 139.03125 42.570312 139.09375 C 42.382812 139.160156 42.238281 139.234375 42.128906 139.320312 C 42.023438 139.410156 41.964844 139.5 41.953125 139.597656 C 41.941406 139.695312 41.976562 139.792969 42.0625 139.886719 C 42.148438 139.976562 42.273438 140.0625 42.445312 140.136719 C 42.613281 140.210938 42.8125 140.269531 43.039062 140.316406 C 43.265625 140.359375 43.507812 140.386719 43.757812 140.394531 C 44.007812 140.402344 44.253906 140.390625 44.488281 140.363281 Z M 53.804688 145.152344 C 54.410156 145.289062 55.054688 145.359375 55.746094 145.363281 C 56.5625 145.371094 57.382812 145.296875 58.203125 145.132812 C 58.425781 145.089844 58.613281 145.03125 58.773438 144.957031 C 58.929688 144.882812 59.046875 144.800781 59.117188 144.707031 C 59.191406 144.613281 59.210938 144.519531 59.1875 144.421875 C 59.160156 144.324219 59.089844 144.230469 58.96875 144.144531 C 58.847656 144.054688 58.691406 143.980469 58.496094 143.914062 C 58.300781 143.851562 58.085938 143.804688 57.84375 143.773438 C 57.601562 143.742188 57.355469 143.726562 57.105469 143.734375 C 56.855469 143.742188 56.621094 143.765625 56.402344 143.8125 C 56.132812 143.863281 55.898438 143.890625 55.703125 143.886719 C 55.667969 143.886719 55.632812 143.882812 55.601562 143.875 C 55.378906 143.828125 55.144531 143.796875 54.894531 143.78125 C 54.644531 143.769531 54.398438 143.773438 54.160156 143.800781 C 53.917969 143.824219 53.699219 143.867188 53.503906 143.925781 C 53.3125 143.984375 53.152344 144.058594 53.035156 144.140625 C 52.914062 144.226562 52.84375 144.316406 52.816406 144.414062 C 52.792969 144.511719 52.816406 144.609375 52.886719 144.703125 C 52.960938 144.796875 53.078125 144.882812 53.234375 144.960938 C 53.394531 145.039062 53.582031 145.101562 53.804688 145.152344 Z M 68.234375 141.433594 C 68.65625 141.519531 69.210938 141.695312 69.898438 141.960938 C 70.078125 142.03125 70.285156 142.085938 70.519531 142.125 C 70.753906 142.164062 70.996094 142.183594 71.246094 142.183594 C 71.5 142.1875 71.738281 142.167969 71.96875 142.132812 C 72.199219 142.097656 72.402344 142.042969 72.574219 141.976562 C 72.75 141.90625 72.882812 141.828125 72.972656 141.738281 C 73.066406 141.648438 73.109375 141.554688 73.105469 141.457031 C 73.101562 141.359375 73.046875 141.265625 72.945312 141.171875 C 72.84375 141.082031 72.703125 141 72.523438 140.929688 C 71.542969 140.550781 70.652344 140.28125 69.855469 140.121094 C 69.628906 140.078125 69.390625 140.050781 69.140625 140.042969 C 68.886719 140.035156 68.644531 140.046875 68.40625 140.074219 C 68.171875 140.105469 67.960938 140.152344 67.773438 140.214844 C 67.585938 140.277344 67.441406 140.351562 67.332031 140.441406 C 67.226562 140.527344 67.164062 140.617188 67.152344 140.714844 C 67.140625 140.8125 67.175781 140.910156 67.261719 141.003906 C 67.34375 141.097656 67.472656 141.179688 67.640625 141.253906 C 67.808594 141.332031 68.007812 141.390625 68.234375 141.433594 Z M 81.9375 140.5625 L 81.9375 139.507812 C 81.9375 139.410156 81.890625 139.316406 81.796875 139.222656 C 81.699219 139.132812 81.5625 139.050781 81.386719 138.980469 C 81.207031 138.90625 81.003906 138.851562 80.769531 138.808594 C 80.539062 138.769531 80.296875 138.746094 80.046875 138.742188 C 79.796875 138.742188 79.554688 138.757812 79.320312 138.789062 C 79.089844 138.824219 78.882812 138.875 78.707031 138.941406 C 78.527344 139.007812 78.390625 139.085938 78.292969 139.175781 C 78.199219 139.265625 78.148438 139.359375 78.148438 139.457031 L 78.148438 140.511719 C 78.148438 140.609375 78.195312 140.703125 78.292969 140.796875 C 78.386719 140.886719 78.523438 140.96875 78.703125 141.042969 C 78.878906 141.113281 79.085938 141.167969 79.316406 141.210938 C 79.550781 141.25 79.789062 141.273438 80.042969 141.277344 C 80.292969 141.28125 80.535156 141.265625 80.765625 141.230469 C 81 141.195312 81.203125 141.144531 81.382812 141.078125 C 81.558594 141.011719 81.695312 140.933594 81.792969 140.84375 C 81.890625 140.753906 81.9375 140.660156 81.9375 140.5625 Z M 91.476562 136.304688 C 92.242188 136.054688 92.765625 135.746094 93.054688 135.371094 C 93.203125 135.179688 93.269531 134.992188 93.25 134.804688 C 93.242188 134.707031 93.183594 134.613281 93.078125 134.523438 C 92.972656 134.433594 92.828125 134.351562 92.644531 134.285156 C 92.460938 134.214844 92.25 134.160156 92.015625 134.125 C 91.78125 134.085938 91.535156 134.070312 91.285156 134.070312 C 91.035156 134.070312 90.792969 134.089844 90.566406 134.125 C 90.335938 134.164062 90.136719 134.21875 89.96875 134.285156 C 89.796875 134.355469 89.667969 134.4375 89.578125 134.527344 C 89.492188 134.617188 89.453125 134.710938 89.460938 134.808594 C 89.464844 134.832031 89.453125 134.863281 89.425781 134.898438 C 89.34375 135.003906 89.199219 135.089844 88.988281 135.15625 C 88.800781 135.21875 88.648438 135.292969 88.535156 135.378906 C 88.425781 135.464844 88.359375 135.554688 88.34375 135.652344 C 88.324219 135.75 88.355469 135.847656 88.433594 135.941406 C 88.515625 136.035156 88.636719 136.121094 88.800781 136.195312 C 88.96875 136.273438 89.160156 136.332031 89.386719 136.378906 C 89.613281 136.425781 89.847656 136.457031 90.101562 136.464844 C 90.351562 136.476562 90.59375 136.46875 90.832031 136.4375 C 91.070312 136.410156 91.285156 136.367188 91.476562 136.304688 Z M 88.515625 130.066406 C 88.546875 130.042969 88.59375 130.007812 88.65625 129.957031 C 89.144531 129.578125 89.503906 129.289062 89.722656 129.097656 C 89.824219 129.011719 89.878906 128.917969 89.886719 128.820312 C 89.890625 128.722656 89.847656 128.625 89.757812 128.535156 C 89.667969 128.441406 89.535156 128.359375 89.359375 128.285156 C 89.1875 128.210938 88.984375 128.152344 88.753906 128.109375 C 88.527344 128.066406 88.285156 128.042969 88.035156 128.039062 C 87.78125 128.03125 87.539062 128.046875 87.304688 128.078125 C 87.070312 128.109375 86.863281 128.160156 86.683594 128.222656 C 86.5 128.289062 86.359375 128.367188 86.257812 128.453125 C 86.058594 128.628906 85.722656 128.894531 85.257812 129.257812 C 85.195312 129.304688 85.148438 129.339844 85.117188 129.367188 C 85.007812 129.453125 84.941406 129.542969 84.925781 129.640625 C 84.910156 129.738281 84.941406 129.835938 85.023438 129.929688 C 85.105469 130.023438 85.226562 130.105469 85.390625 130.183594 C 85.558594 130.257812 85.753906 130.320312 85.980469 130.367188 C 86.203125 130.414062 86.441406 130.441406 86.691406 130.449219 C 86.945312 130.460938 87.1875 130.453125 87.425781 130.421875 C 87.664062 130.394531 87.878906 130.351562 88.066406 130.289062 C 88.253906 130.226562 88.40625 130.152344 88.515625 130.066406 Z M 90.597656 126.660156 C 90.148438 126.148438 89.082031 125.773438 87.394531 125.53125 C 87.15625 125.5 86.914062 125.484375 86.664062 125.488281 C 86.410156 125.492188 86.175781 125.515625 85.949219 125.554688 C 85.726562 125.597656 85.53125 125.652344 85.367188 125.722656 C 85.203125 125.796875 85.082031 125.878906 85.003906 125.96875 C 84.925781 126.0625 84.894531 126.15625 84.914062 126.253906 C 84.933594 126.351562 84.996094 126.445312 85.109375 126.535156 C 85.222656 126.625 85.375 126.703125 85.566406 126.769531 C 85.757812 126.835938 85.96875 126.886719 86.210938 126.917969 C 86.707031 126.988281 86.980469 127.046875 87.019531 127.09375 C 87.101562 127.1875 87.226562 127.273438 87.394531 127.347656 C 87.5625 127.425781 87.757812 127.484375 87.984375 127.53125 C 88.210938 127.574219 88.449219 127.601562 88.699219 127.613281 C 88.949219 127.621094 89.195312 127.613281 89.429688 127.582031 C 89.667969 127.554688 89.882812 127.507812 90.070312 127.445312 C 90.257812 127.382812 90.40625 127.308594 90.515625 127.222656 C 90.625 127.136719 90.6875 127.042969 90.699219 126.945312 C 90.714844 126.847656 90.683594 126.753906 90.597656 126.660156 Z M 90.597656 126.660156 " fill-opacity="1" fill-rule="nonzero"/></svg>