<svg xmlns="http://www.w3.org/2000/svg" xmlns:xlink="http://www.w3.org/1999/xlink" width="250" zoomAndPan="magnify" viewBox="0 0 187.5 187.499992" height="250" preserveAspectRatio="xMidYMid meet" version="1.0"><defs><clipPath id="5d853b568e"><path d="M 1.363281 63 L 125 63 L 125 185 L 1.363281 185 Z M 1.363281 63 " clip-rule="nonzero"/></clipPath><clipPath id="3a7262f368"><path d="M 83 54 L 185.863281 54 L 185.863281 102 L 83 102 Z M 83 54 " clip-rule="nonzero"/></clipPath></defs><path fill="#ff7800" d="M 120.675781 124.03125 C 120.675781 125.875 120.585938 127.714844 120.402344 129.546875 C 120.214844 131.382812 119.941406 133.203125 119.574219 135.011719 C 119.207031 136.820312 118.75 138.605469 118.203125 140.367188 C 117.65625 142.132812 117.019531 143.863281 116.300781 145.566406 C 115.578125 147.269531 114.777344 148.933594 113.886719 150.558594 C 113 152.183594 112.03125 153.765625 110.988281 155.296875 C 109.941406 156.828125 108.820312 158.308594 107.625 159.730469 C 106.429688 161.15625 105.167969 162.519531 103.835938 163.824219 C 102.503906 165.125 101.109375 166.363281 99.65625 167.53125 C 98.199219 168.703125 96.6875 169.796875 95.121094 170.820312 C 93.554688 171.84375 91.941406 172.792969 90.28125 173.660156 C 88.621094 174.53125 86.921875 175.316406 85.179688 176.023438 C 83.441406 176.726562 81.667969 177.347656 79.867188 177.882812 C 78.066406 178.417969 76.242188 178.863281 74.394531 179.222656 C 72.546875 179.582031 70.6875 179.855469 68.8125 180.035156 C 66.9375 180.214844 65.058594 180.304688 63.175781 180.304688 C 61.292969 180.304688 59.414062 180.214844 57.539062 180.035156 C 55.664062 179.855469 53.804688 179.582031 51.957031 179.222656 C 50.109375 178.863281 48.285156 178.417969 46.484375 177.882812 C 44.683594 177.347656 42.910156 176.726562 41.171875 176.023438 C 39.429688 175.316406 37.730469 174.53125 36.070312 173.660156 C 34.410156 172.792969 32.796875 171.84375 31.230469 170.820312 C 29.664062 169.796875 28.152344 168.703125 26.699219 167.53125 C 25.242188 166.363281 23.847656 165.125 22.515625 163.824219 C 21.183594 162.519531 19.921875 161.15625 18.726562 159.730469 C 17.53125 158.308594 16.410156 156.828125 15.363281 155.296875 C 14.320312 153.765625 13.351562 152.183594 12.464844 150.558594 C 11.578125 148.933594 10.773438 147.269531 10.050781 145.566406 C 9.332031 143.863281 8.695312 142.132812 8.152344 140.367188 C 7.605469 138.605469 7.148438 136.820312 6.78125 135.011719 C 6.410156 133.203125 6.136719 131.382812 5.953125 129.546875 C 5.765625 127.714844 5.675781 125.875 5.675781 124.03125 C 5.675781 122.191406 5.765625 120.351562 5.953125 118.515625 C 6.136719 116.683594 6.410156 114.863281 6.78125 113.054688 C 7.148438 111.246094 7.605469 109.460938 8.152344 107.699219 C 8.695312 105.933594 9.332031 104.199219 10.050781 102.5 C 10.773438 100.796875 11.578125 99.132812 12.464844 97.507812 C 13.351562 95.878906 14.320312 94.300781 15.367188 92.769531 C 16.410156 91.238281 17.53125 89.757812 18.726562 88.332031 C 19.921875 86.910156 21.183594 85.546875 22.515625 84.242188 C 23.847656 82.9375 25.242188 81.703125 26.699219 80.535156 C 28.152344 79.363281 29.664062 78.265625 31.230469 77.242188 C 32.796875 76.21875 34.410156 75.273438 36.070312 74.40625 C 37.730469 73.535156 39.429688 72.75 41.171875 72.042969 C 42.910156 71.339844 44.683594 70.71875 46.484375 70.183594 C 48.285156 69.648438 50.109375 69.199219 51.957031 68.839844 C 53.804688 68.480469 55.664062 68.210938 57.539062 68.03125 C 59.414062 67.851562 61.292969 67.761719 63.175781 67.761719 C 65.058594 67.761719 66.9375 67.851562 68.8125 68.03125 C 70.6875 68.210938 72.546875 68.480469 74.394531 68.839844 C 76.242188 69.199219 78.066406 69.648438 79.867188 70.183594 C 81.667969 70.71875 83.441406 71.339844 85.179688 72.042969 C 86.921875 72.75 88.621094 73.535156 90.28125 74.40625 C 91.941406 75.273438 93.554688 76.21875 95.121094 77.242188 C 96.6875 78.265625 98.199219 79.363281 99.65625 80.535156 C 101.109375 81.703125 102.503906 82.9375 103.835938 84.242188 C 105.167969 85.546875 106.429688 86.910156 107.625 88.332031 C 108.820312 89.757812 109.941406 91.238281 110.988281 92.769531 C 112.03125 94.300781 113 95.878906 113.886719 97.507812 C 114.777344 99.132812 115.578125 100.796875 116.300781 102.5 C 117.019531 104.199219 117.65625 105.933594 118.203125 107.699219 C 118.746094 109.460938 119.203125 111.246094 119.574219 113.054688 C 119.941406 114.863281 120.214844 116.683594 120.402344 118.515625 C 120.585938 120.351562 120.675781 122.191406 120.675781 124.03125 Z M 120.675781 124.03125 " fill-opacity="1" fill-rule="nonzero"/><g clip-path="url(#5d853b568e)"><path stroke-linecap="round" transform="matrix(1.244337, 0, 0, 1.32405, -430.837619, -129.615476)" fill="none" stroke-linejoin="round" d="M 443.218704 191.568909 C 443.218704 192.961418 443.146502 194.350976 442.998959 195.734633 C 442.848276 197.121241 442.628531 198.496048 442.333444 199.862004 C 442.038357 201.227961 441.671068 202.576216 441.231577 203.906769 C 440.792086 205.240273 440.280392 206.547224 439.702776 207.833525 C 439.122019 209.119825 438.478479 210.376622 437.762736 211.603918 C 437.050133 212.831213 436.271606 214.026056 435.433433 215.182546 C 434.592122 216.339036 433.691165 217.457173 432.730563 218.531057 C 431.769961 219.60789 430.755993 220.637521 429.685518 221.622897 C 428.615043 222.605324 427.494341 223.540546 426.32655 224.422665 C 425.15562 225.307734 423.940741 226.133798 422.681913 226.906758 C 421.423085 227.679718 420.126586 228.396624 418.792417 229.051575 C 417.458248 229.709476 416.092686 230.302472 414.692593 230.836464 C 413.295639 231.367505 411.870432 231.836592 410.423251 232.240773 C 408.976069 232.644955 407.510053 232.981281 406.025201 233.252702 C 404.540349 233.524123 403.046079 233.730639 401.539252 233.86635 C 400.032426 234.00206 398.52246 234.069915 397.009355 234.069915 C 395.49625 234.069915 393.986284 234.00206 392.479457 233.86635 C 390.972631 233.730639 389.478361 233.524123 387.993509 233.252702 C 386.508657 232.981281 385.04264 232.644955 383.595459 232.240773 C 382.148277 231.836592 380.72307 231.367505 379.326117 230.836464 C 377.926024 230.302472 376.560462 229.709476 375.226293 229.051575 C 373.892123 228.396624 372.595624 227.679718 371.336796 226.906758 C 370.077968 226.133798 368.863089 225.307734 367.695299 224.422665 C 366.524369 223.540546 365.403667 222.605324 364.333192 221.622897 C 363.262717 220.637521 362.248748 219.60789 361.288146 218.531057 C 360.327544 217.457173 359.426588 216.339036 358.585276 215.182546 C 357.747104 214.026056 356.968577 212.831213 356.255973 211.603918 C 355.54337 210.376622 354.89669 209.119825 354.315934 207.833525 C 353.738317 206.547224 353.226624 205.240273 352.790272 203.906769 C 352.350781 202.576216 351.983492 201.227961 351.688405 199.862004 C 351.390179 198.496048 351.170433 197.121241 351.02289 195.734633 C 350.872207 194.350976 350.800005 192.961418 350.800005 191.568909 C 350.800005 190.179351 350.872207 188.789793 351.02289 187.403185 C 351.170433 186.019528 351.390179 184.644721 351.688405 183.278764 C 351.983492 181.912808 352.350781 180.564553 352.790272 179.234 C 353.226624 177.900496 353.738317 176.590594 354.315934 175.307244 C 354.89669 174.020944 355.54337 172.764147 356.255973 171.536851 C 356.968577 170.306605 357.747104 169.114713 358.588415 167.958223 C 359.426588 166.801733 360.327544 165.683596 361.288146 164.606762 C 362.248748 163.532878 363.262717 162.503248 364.333192 161.517872 C 365.403667 160.532495 366.524369 159.600223 367.695299 158.718104 C 368.863089 157.833035 370.077968 157.004021 371.336796 156.23106 C 372.595624 155.4581 373.892123 154.744145 375.226293 154.089194 C 376.560462 153.431293 377.926024 152.838297 379.326117 152.304305 C 380.72307 151.773264 382.148277 151.304177 383.595459 150.899996 C 385.04264 150.495814 386.508657 150.156538 387.993509 149.885117 C 389.478361 149.613696 390.972631 149.41013 392.479457 149.274419 C 393.986284 149.138709 395.49625 149.070853 397.009355 149.070853 C 398.52246 149.070853 400.032426 149.138709 401.539252 149.274419 C 403.046079 149.41013 404.540349 149.613696 406.025201 149.885117 C 407.510053 150.156538 408.976069 150.495814 410.423251 150.899996 C 411.870432 151.304177 413.295639 151.773264 414.692593 152.304305 C 416.092686 152.838297 417.458248 153.431293 418.792417 154.089194 C 420.126586 154.744145 421.423085 155.4581 422.681913 156.23106 C 423.940741 157.004021 425.15562 157.833035 426.32655 158.718104 C 427.494341 159.600223 428.615043 160.532495 429.685518 161.517872 C 430.755993 162.503248 431.769961 163.532878 432.730563 164.606762 C 433.691165 165.683596 434.592122 166.801733 435.433433 167.958223 C 436.271606 169.114713 437.050133 170.306605 437.762736 171.536851 C 438.478479 172.764147 439.122019 174.020944 439.702776 175.307244 C 440.280392 176.590594 440.792086 177.900496 441.231577 179.234 C 441.667929 180.564553 442.035218 181.912808 442.333444 183.278764 C 442.628531 184.644721 442.848276 186.019528 442.998959 187.403185 C 443.146502 188.789793 443.218704 190.179351 443.218704 191.568909 Z M 443.218704 191.568909 " stroke="#000000" stroke-width="6.473" stroke-opacity="1" stroke-miterlimit="4"/></g><path fill="#008000" d="M 86.539062 98 C 86.726562 98.109375 110.832031 87.503906 123.234375 90.59375 C 135.636719 93.6875 162.613281 79.472656 182.082031 59.597656 C 152.523438 55.324219 121.683594 58.53125 108.09375 68.292969 C 94.507812 78.050781 86.542969 98.003906 86.542969 98.003906 Z M 86.539062 98 " fill-opacity="1" fill-rule="evenodd"/><g clip-path="url(#3a7262f368)"><path stroke-linecap="butt" transform="matrix(1.193375, 0, 0, 1.222465, -453.139426, -108.950166)" fill="none" stroke-linejoin="round" d="M 452.228896 169.289181 C 452.386014 169.378652 472.585428 160.703176 482.978094 163.230727 C 493.37076 165.761474 515.976036 154.133461 532.290066 137.875332 C 507.521152 134.379578 481.678602 137.002991 470.290859 144.988263 C 458.906389 152.97034 452.232169 169.292376 452.232169 169.292376 Z M 452.228896 169.289181 " stroke="#000000" stroke-width="5.733" stroke-opacity="1" stroke-miterlimit="4"/></g><path stroke-linecap="butt" transform="matrix(1.193375, 0, 0, 1.222465, -453.139426, -108.950166)" fill-opacity="1" fill="#008000" fill-rule="evenodd" stroke-linejoin="round" d="M 454.24851 167.151467 C 454.071753 167.119513 443.91149 147.627653 434.258586 143.013514 C 424.608954 138.402571 414.445418 115.101809 412.088656 92.190884 C 433.489365 105.144983 451.852469 123.515263 455.626561 136.900739 C 459.397381 150.286215 454.24851 167.151467 454.24851 167.151467 Z M 454.24851 167.151467 " stroke="#000000" stroke-width="5.733" stroke-opacity="1" stroke-miterlimit="4"/><path fill="#ffffff" d="M 60.679688 81.988281 C 66.050781 87.585938 54.710938 82.441406 39.316406 96.539062 C 21.839844 112.550781 27.144531 126 21.464844 120.773438 C 15.761719 115.523438 19.765625 98.875 29.792969 89.429688 C 39.820312 79.988281 55.335938 76.414062 60.679688 81.988281 Z M 60.679688 81.988281 " fill-opacity="1" fill-rule="nonzero"/></svg>