<svg xmlns="http://www.w3.org/2000/svg" xmlns:xlink="http://www.w3.org/1999/xlink" width="500" zoomAndPan="magnify" viewBox="0 0 375 374.999991" height="500" preserveAspectRatio="xMidYMid meet" version="1.0"><defs><g/><clipPath id="f1b4aae3f8"><path d="M 87.027344 52.664062 L 288.527344 52.664062 L 288.527344 200.964844 L 87.027344 200.964844 Z M 87.027344 52.664062 " clip-rule="nonzero"/></clipPath></defs><g clip-path="url(#f1b4aae3f8)"><path fill="#545454" d="M 161.855469 52.664062 L 123.109375 52.664062 C 120.855469 52.664062 118.96875 54.113281 118.4375 56.246094 L 112.78125 79.011719 L 107.75 99.257812 L 87.441406 181.050781 C 87.050781 182.617188 87.457031 184.332031 88.53125 185.660156 C 89.605469 186.988281 91.21875 187.777344 92.875 187.777344 L 110.941406 187.777344 L 109.335938 194.238281 C 108.949219 195.808594 109.351562 197.523438 110.429688 198.851562 C 111.503906 200.179688 113.117188 200.964844 114.773438 200.964844 L 259.621094 200.964844 C 261.875 200.964844 263.765625 199.519531 264.296875 197.382812 L 288.109375 101.515625 C 288.5 99.949219 288.097656 98.234375 287.023438 96.902344 C 285.945312 95.570312 284.332031 94.785156 282.671875 94.785156 L 264.644531 94.785156 L 267.742188 82.140625 C 268.128906 80.574219 267.71875 78.867188 266.644531 77.539062 C 265.574219 76.210938 263.960938 75.429688 262.308594 75.425781 L 200.484375 75.425781 C 199.574219 72.785156 198.144531 69.472656 195.480469 66.167969 C 189.871094 59.199219 179.171875 52.664062 161.855469 52.664062 Z M 127.652344 62.972656 L 162.613281 62.972656 C 177.46875 62.972656 183.984375 67.820312 187.535156 72.234375 C 191.089844 76.648438 191.476562 80.714844 191.476562 80.714844 C 191.75 83.511719 194.21875 85.742188 197.035156 85.742188 L 255.980469 85.742188 L 253.761719 94.785156 C 247.007812 94.785156 239.363281 94.785156 231.707031 94.785156 L 195.121094 94.785156 C 192.917969 94.785156 191.058594 96.167969 190.480469 98.230469 C 188.984375 103.5625 186.890625 108.234375 184.203125 112.296875 C 184.183594 112.324219 184.167969 112.351562 184.148438 112.378906 C 183.988281 112.621094 183.824219 112.863281 183.65625 113.101562 C 183.449219 113.398438 183.238281 113.695312 183.027344 113.988281 C 182.921875 114.132812 182.8125 114.28125 182.707031 114.425781 C 182.601562 114.570312 182.492188 114.710938 182.382812 114.855469 C 179.351562 118.855469 175.886719 122.207031 171.976562 124.957031 C 168.636719 127.304688 164.960938 129.21875 160.917969 130.703125 C 160.855469 130.726562 160.792969 130.75 160.730469 130.769531 C 160.625 130.808594 160.515625 130.847656 160.410156 130.886719 C 160.238281 130.945312 160.070312 131.007812 159.898438 131.066406 C 158.871094 131.417969 157.820312 131.742188 156.746094 132.042969 C 156.742188 132.042969 156.734375 132.042969 156.734375 132.042969 C 151.074219 133.542969 145.109375 134.300781 138.789062 134.300781 L 128.007812 134.300781 C 126.695312 134.304688 125.472656 134.796875 124.578125 135.6875 C 124.515625 135.746094 124.457031 135.808594 124.402344 135.871094 C 124.375 135.902344 124.34375 135.933594 124.316406 135.964844 C 124.289062 136 124.261719 136.03125 124.238281 136.066406 C 124.199219 136.109375 124.167969 136.152344 124.132812 136.199219 C 124.125 136.210938 124.117188 136.222656 124.105469 136.234375 C 124.066406 136.289062 124.023438 136.347656 123.984375 136.40625 C 123.945312 136.464844 123.910156 136.527344 123.871094 136.585938 C 123.820312 136.671875 123.773438 136.757812 123.726562 136.847656 C 123.707031 136.882812 123.6875 136.921875 123.667969 136.960938 C 123.632812 137.039062 123.597656 137.117188 123.5625 137.195312 C 123.554688 137.21875 123.542969 137.246094 123.53125 137.273438 C 123.519531 137.300781 123.511719 137.328125 123.5 137.351562 C 123.492188 137.378906 123.480469 137.40625 123.472656 137.433594 C 123.460938 137.460938 123.453125 137.488281 123.441406 137.515625 C 123.429688 137.554688 123.417969 137.597656 123.402344 137.636719 C 123.398438 137.652344 123.394531 137.664062 123.390625 137.679688 C 123.386719 137.691406 123.382812 137.707031 123.378906 137.71875 C 123.375 137.734375 123.371094 137.746094 123.367188 137.761719 C 123.355469 137.800781 123.347656 137.84375 123.335938 137.882812 L 123.085938 138.882812 L 113.503906 177.464844 L 99.222656 177.464844 L 117.859375 102.394531 L 122.894531 82.152344 Z M 239.726562 105.097656 L 276.324219 105.097656 L 255.078125 190.65625 L 121.117188 190.65625 L 132.550781 144.609375 L 139.546875 144.609375 C 140.984375 144.609375 142.410156 144.578125 143.820312 144.507812 C 143.949219 144.5 144.078125 144.496094 144.203125 144.488281 C 144.296875 144.484375 144.390625 144.476562 144.484375 144.472656 C 145.269531 144.425781 146.046875 144.371094 146.824219 144.304688 C 151.390625 143.917969 155.824219 143.15625 160.113281 142.015625 C 160.128906 142.011719 160.144531 142.007812 160.164062 142.003906 C 160.585938 141.886719 161.003906 141.765625 161.421875 141.644531 C 162.042969 141.457031 162.664062 141.261719 163.277344 141.058594 C 164.09375 140.785156 164.898438 140.5 165.695312 140.199219 C 165.894531 140.121094 166.09375 140.046875 166.292969 139.96875 C 166.492188 139.890625 166.6875 139.8125 166.882812 139.734375 C 167.082031 139.65625 167.277344 139.574219 167.472656 139.496094 C 167.667969 139.414062 167.863281 139.332031 168.054688 139.25 C 168.445312 139.082031 168.832031 138.914062 169.214844 138.742188 C 169.40625 138.652344 169.59375 138.566406 169.785156 138.476562 C 170.164062 138.300781 170.542969 138.121094 170.917969 137.933594 C 171.105469 137.84375 171.292969 137.75 171.476562 137.65625 C 171.664062 137.5625 171.851562 137.464844 172.035156 137.371094 C 172.21875 137.273438 172.402344 137.179688 172.585938 137.078125 C 172.769531 136.980469 172.953125 136.882812 173.136719 136.785156 C 173.683594 136.484375 174.222656 136.175781 174.757812 135.859375 C 176.003906 135.121094 177.21875 134.339844 178.398438 133.511719 C 178.535156 133.410156 178.675781 133.3125 178.816406 133.210938 C 178.84375 133.191406 178.871094 133.171875 178.898438 133.152344 C 178.960938 133.109375 179.019531 133.0625 179.082031 133.019531 C 179.1875 132.945312 179.292969 132.867188 179.398438 132.789062 C 180.226562 132.179688 181.035156 131.542969 181.828125 130.886719 C 182.304688 130.492188 182.773438 130.089844 183.234375 129.679688 C 183.234375 129.679688 183.238281 129.679688 183.238281 129.679688 C 183.390625 129.542969 183.542969 129.40625 183.695312 129.269531 C 183.695312 129.269531 183.695312 129.269531 183.695312 129.265625 C 184.003906 128.992188 184.304688 128.710938 184.605469 128.425781 C 184.753906 128.28125 184.902344 128.140625 185.050781 127.996094 C 185.050781 127.996094 185.054688 127.996094 185.054688 127.996094 C 185.203125 127.851562 185.347656 127.707031 185.496094 127.5625 C 185.789062 127.269531 186.082031 126.972656 186.367188 126.675781 C 186.367188 126.675781 186.367188 126.675781 186.371094 126.675781 C 186.945312 126.078125 187.511719 125.464844 188.0625 124.839844 C 188.203125 124.683594 188.339844 124.527344 188.476562 124.367188 C 189.296875 123.417969 190.089844 122.4375 190.859375 121.425781 C 190.988281 121.257812 191.113281 121.089844 191.242188 120.917969 C 191.367188 120.75 191.492188 120.578125 191.617188 120.40625 C 191.742188 120.234375 191.867188 120.058594 191.992188 119.886719 C 192.113281 119.714844 192.238281 119.539062 192.359375 119.363281 C 192.449219 119.230469 192.542969 119.097656 192.632812 118.964844 C 195.429688 114.839844 197.542969 110.148438 199.253906 105.140625 C 209.121094 105.109375 224.863281 105.101562 239.726562 105.101562 Z M 239.726562 105.097656 " fill-opacity="1" fill-rule="nonzero"/></g><g fill="#545454" fill-opacity="1"><g transform="translate(5.770997, 301.019165)"><g><path d="M 25.324219 -51.878906 C 21.089844 -50.492188 17.320312 -47.570312 14.394531 -44.105469 C 14.777344 -46.953125 15.164062 -49.800781 15.546875 -52.648438 C 15.78125 -54.1875 12.625 -53.726562 12.394531 -52.417969 C 9.929688 -35.253906 8.003906 -17.933594 4.925781 -0.921875 C 4.617188 0.617188 7.773438 0.152344 8.003906 -1.15625 C 8.929688 -6.234375 9.777344 -11.316406 10.546875 -16.394531 C 24.246094 -16.164062 41.566406 -25.863281 41.566406 -40.640625 C 41.640625 -49.648438 33.558594 -54.496094 25.324219 -51.878906 Z M 10.851562 -18.703125 C 11.855469 -25.707031 12.855469 -32.636719 13.777344 -39.5625 C 16.011719 -43.179688 19.167969 -46.414062 22.785156 -48.648438 C 32.867188 -54.804688 40.027344 -46.644531 38.484375 -37.792969 C 36.484375 -26.015625 22.476562 -17.933594 10.851562 -18.703125 Z M 10.851562 -18.703125 "/></g></g></g><g fill="#545454" fill-opacity="1"><g transform="translate(49.876412, 301.019165)"><g><path d="M 30.941406 -38.949219 C 29.867188 -44.566406 25.707031 -44.796875 21.550781 -41.335938 C 14.777344 -35.714844 11.160156 -25.941406 8.003906 -18.089844 C 5.15625 -10.851562 2.617188 -3.386719 0.539062 4.078125 C 0.078125 5.851562 3.15625 5.925781 3.539062 4.542969 C 5.3125 -2 7.464844 -8.390625 9.851562 -14.625 C 15.546875 -14.703125 21.167969 -14.777344 26.785156 -14.855469 C 26.015625 -8.542969 25.015625 -2.15625 23.785156 4.15625 C 23.476562 5.773438 26.710938 5.386719 26.941406 3.925781 C 28.09375 -1.847656 29.019531 -7.695312 29.789062 -13.546875 C 30.867188 -21.628906 32.484375 -30.789062 30.941406 -38.949219 Z M 10.621094 -16.550781 C 12.625 -21.785156 14.855469 -26.941406 17.625 -31.789062 C 18.550781 -33.484375 23.628906 -42.488281 26.554688 -41.410156 C 28.789062 -40.488281 28.25 -33.019531 28.171875 -31.40625 C 28.09375 -26.480469 27.632812 -21.628906 27.015625 -16.703125 C 21.550781 -16.625 16.085938 -16.550781 10.546875 -16.472656 C 10.546875 -16.550781 10.621094 -16.550781 10.621094 -16.550781 Z M 10.621094 -16.550781 "/></g></g></g><g fill="#545454" fill-opacity="1"><g transform="translate(89.979249, 301.019165)"><g><path d="M 25.324219 -51.878906 C 21.089844 -50.492188 17.320312 -47.570312 14.394531 -44.105469 C 14.777344 -46.953125 15.164062 -49.800781 15.546875 -52.648438 C 15.78125 -54.1875 12.625 -53.726562 12.394531 -52.417969 C 9.929688 -35.253906 8.003906 -17.933594 4.925781 -0.921875 C 4.617188 0.617188 7.773438 0.152344 8.003906 -1.15625 C 8.929688 -6.234375 9.777344 -11.316406 10.546875 -16.394531 C 24.246094 -16.164062 41.566406 -25.863281 41.566406 -40.640625 C 41.640625 -49.648438 33.558594 -54.496094 25.324219 -51.878906 Z M 10.851562 -18.703125 C 11.855469 -25.707031 12.855469 -32.636719 13.777344 -39.5625 C 16.011719 -43.179688 19.167969 -46.414062 22.785156 -48.648438 C 32.867188 -54.804688 40.027344 -46.644531 38.484375 -37.792969 C 36.484375 -26.015625 22.476562 -17.933594 10.851562 -18.703125 Z M 10.851562 -18.703125 "/></g></g></g><g fill="#545454" fill-opacity="1"><g transform="translate(134.084662, 301.019165)"><g><path d="M 28.789062 -42.566406 C 23.863281 -42.796875 18.859375 -42.335938 13.855469 -42.027344 C 13.164062 -41.949219 12.316406 -41.566406 12.160156 -40.796875 C 9.621094 -30.25 7.082031 -19.628906 5.082031 -9.003906 C 4.464844 -5.773438 2.308594 0.078125 3.773438 3.234375 C 5.464844 7.160156 12.625 6.003906 15.855469 5.386719 C 17.78125 5.003906 17.242188 3.078125 15.316406 3.386719 C 13.316406 3.773438 10.238281 4.308594 8.3125 3.464844 C 6.082031 2.464844 6.621094 0.617188 6.851562 -1.386719 C 7.464844 -6.464844 8.621094 -11.46875 9.699219 -16.472656 C 9.699219 -16.78125 9.777344 -17.089844 9.851562 -17.320312 C 13.238281 -17.242188 16.703125 -17.164062 20.089844 -17.089844 C 21.089844 -17.089844 23.398438 -18.628906 21.320312 -18.628906 C 17.625 -18.78125 13.933594 -18.859375 10.238281 -18.933594 C 11.699219 -25.941406 13.316406 -33.019531 15.007812 -40.027344 C 19.242188 -40.332031 23.476562 -40.640625 27.632812 -40.488281 C 29.09375 -40.410156 30.867188 -42.410156 28.789062 -42.566406 Z M 28.789062 -42.566406 "/></g></g></g><g fill="#545454" fill-opacity="1"><g transform="translate(170.030996, 301.019165)"><g><path d="M 29.789062 -46.953125 C 23.246094 -47.414062 17.472656 -43.335938 13.238281 -38.410156 C 13.625 -41.257812 14.007812 -44.105469 14.394531 -47.03125 C 14.625 -48.492188 11.46875 -48.03125 11.238281 -46.722656 C 8.851562 -29.558594 6.851562 -12.238281 3.773438 4.773438 C 3.464844 6.234375 6.621094 5.851562 6.851562 4.542969 C 7.851562 -1 8.773438 -6.464844 9.542969 -12.007812 C 10.929688 -11.621094 12.625 -11.777344 13.777344 -11.855469 C 15.472656 -11.929688 17.164062 -12.238281 18.859375 -12.625 C 18.933594 -12.546875 19.011719 -12.46875 19.011719 -12.46875 C 20.628906 -10.390625 22.089844 -8.160156 23.398438 -5.925781 C 25.015625 -3.308594 26.554688 -0.617188 27.941406 2.15625 C 28.324219 2.847656 31.25 1.769531 31.019531 1.308594 C 29.171875 -2.386719 26.246094 -8.929688 22.398438 -13.625 C 27.785156 -15.546875 32.867188 -18.78125 36.253906 -23.089844 C 42.410156 -31.019531 42.335938 -46.03125 29.789062 -46.953125 Z M 10.546875 -15.546875 C 10.546875 -20.167969 15.703125 -15.855469 18.011719 -13.546875 C 14.007812 -12.316406 10.546875 -12.316406 10.546875 -15.546875 Z M 30.097656 -19.398438 C 29.171875 -18.628906 25.402344 -16.394531 21.398438 -14.777344 C 18.78125 -17.625 15.703125 -19.472656 12.238281 -18.933594 C 11.699219 -18.859375 11.085938 -18.628906 10.46875 -18.394531 C 11.238281 -23.554688 11.929688 -28.710938 12.625 -33.945312 C 16.703125 -40.640625 25.863281 -50.1875 33.867188 -43.105469 C 41.101562 -36.640625 36.332031 -24.632812 30.097656 -19.398438 Z M 30.097656 -19.398438 "/></g></g></g><g fill="#545454" fill-opacity="1"><g transform="translate(219.370529, 301.019165)"><g/></g></g><g fill="#545454" fill-opacity="1"><g transform="translate(242.616379, 301.019165)"><g><path d="M 28.25 -42.566406 C 23.324219 -42.796875 18.320312 -42.335938 13.394531 -42.027344 C 12.699219 -41.949219 11.777344 -41.566406 11.621094 -40.796875 C 8.390625 -25.015625 5.082031 -9.160156 2 6.695312 C 1.695312 8.082031 4.847656 7.695312 5.082031 6.390625 C 6.621094 -1.539062 8.234375 -9.46875 9.851562 -17.320312 C 13.085938 -17.242188 16.316406 -17.164062 19.550781 -17.089844 C 20.628906 -17.089844 22.859375 -18.628906 20.78125 -18.628906 C 17.242188 -18.78125 13.699219 -18.859375 10.238281 -18.933594 C 11.621094 -25.941406 13.085938 -33.019531 14.546875 -40.027344 C 18.703125 -40.332031 22.9375 -40.640625 27.171875 -40.488281 C 28.558594 -40.410156 30.328125 -42.410156 28.25 -42.566406 Z M 28.25 -42.566406 "/></g></g></g><g fill="#545454" fill-opacity="1"><g transform="translate(273.867384, 301.019165)"><g><path d="M 31.019531 -43.488281 C 27.941406 -29.632812 25.246094 -14.777344 18.089844 -2.386719 C 16.394531 0.539062 14.007812 4.695312 11.085938 0.921875 C 8.929688 -1.925781 8.929688 -6.390625 8.851562 -9.699219 C 8.542969 -22.398438 12.238281 -34.5625 14.777344 -46.875 C 14.933594 -47.570312 11.855469 -47.105469 11.699219 -46.335938 C 10.621094 -41.027344 -2.386719 11.855469 15.472656 3.386719 C 22.398438 0.152344 25.707031 -11.929688 27.710938 -18.703125 C 30.25 -27.015625 32.25 -35.5625 34.097656 -44.027344 C 34.253906 -44.722656 31.175781 -44.257812 31.019531 -43.488281 Z M 31.019531 -43.488281 "/></g></g></g><g fill="#545454" fill-opacity="1"><g transform="translate(316.279394, 301.019165)"><g><path d="M 23.089844 1.386719 C 18.089844 1.078125 13.085938 2.078125 8.46875 4.003906 C 10.160156 -13.855469 12.160156 -31.558594 14.007812 -49.339844 C 14.085938 -50.261719 11.007812 -49.648438 10.929688 -48.878906 C 9.003906 -30.710938 6.925781 -12.546875 5.3125 5.617188 C 5.15625 6.621094 7.3125 5.851562 7.695312 5.695312 C 11.855469 3.695312 16.472656 2.539062 21.089844 2.769531 C 21.859375 2.769531 24.707031 1.460938 23.089844 1.386719 Z M 23.089844 1.386719 "/></g></g></g><g fill="#545454" fill-opacity="1"><g transform="translate(344.990289, 301.019165)"><g><path d="M 23.089844 1.386719 C 18.089844 1.078125 13.085938 2.078125 8.46875 4.003906 C 10.160156 -13.855469 12.160156 -31.558594 14.007812 -49.339844 C 14.085938 -50.261719 11.007812 -49.648438 10.929688 -48.878906 C 9.003906 -30.710938 6.925781 -12.546875 5.3125 5.617188 C 5.15625 6.621094 7.3125 5.851562 7.695312 5.695312 C 11.855469 3.695312 16.472656 2.539062 21.089844 2.769531 C 21.859375 2.769531 24.707031 1.460938 23.089844 1.386719 Z M 23.089844 1.386719 "/></g></g></g></svg>