<svg xmlns="http://www.w3.org/2000/svg" xmlns:xlink="http://www.w3.org/1999/xlink" width="250" zoomAndPan="magnify" viewBox="0 0 187.5 187.499992" height="250" preserveAspectRatio="xMidYMid meet" version="1.0"><defs><g/><clipPath id="4b0de41608"><path d="M 0 0 L 187 0 L 187 187 L 0 187 Z M 0 0 " clip-rule="nonzero"/></clipPath><clipPath id="1095e29fec"><path d="M 24.835938 24.835938 L 162.835938 24.835938 L 162.835938 162.835938 L 24.835938 162.835938 Z M 24.835938 24.835938 " clip-rule="nonzero"/></clipPath><clipPath id="205a69b612"><path d="M 5.898438 86.148438 L 21.648438 86.148438 L 21.648438 101.148438 L 5.898438 101.148438 Z M 5.898438 86.148438 " clip-rule="nonzero"/></clipPath><clipPath id="7ced2bdba1"><path d="M 164.855469 86.148438 L 180.605469 86.148438 L 180.605469 101.148438 L 164.855469 101.148438 Z M 164.855469 86.148438 " clip-rule="nonzero"/></clipPath></defs><g clip-path="url(#4b0de41608)"><path stroke-linecap="butt" transform="matrix(1.115341, 0, 0, 1.115341, 0.000004, 0.000000000000021316)" fill="none" stroke-linejoin="miter" d="M 166.660078 84.058518 C 166.660078 85.410402 166.628557 86.762287 166.562014 88.114172 C 166.49547 89.462555 166.393904 90.810937 166.260817 92.155817 C 166.131232 93.500698 165.963122 94.842076 165.766993 96.179951 C 165.567363 97.517827 165.336211 98.848698 165.07354 100.176067 C 164.810868 101.499933 164.513173 102.820297 164.183957 104.130155 C 163.854742 105.440012 163.494006 106.742865 163.101749 108.038713 C 162.709492 109.331059 162.285715 110.612898 161.830417 111.887732 C 161.375119 113.159064 160.8883 114.41989 160.373463 115.670208 C 159.855124 116.917024 159.308766 118.153333 158.730888 119.375633 C 158.15301 120.597933 157.543611 121.806224 156.906194 122.997003 C 156.268777 124.191285 155.603341 125.364553 154.909887 126.523812 C 154.212931 127.68307 153.491459 128.824818 152.738466 129.949054 C 151.988975 131.073289 151.211467 132.180014 150.405939 133.265724 C 149.600412 134.351435 148.766867 135.416132 147.912307 136.459815 C 147.054246 137.507 146.171668 138.52967 145.261072 139.531325 C 144.353978 140.532981 143.422368 141.51012 142.466243 142.466246 C 141.510117 143.422372 140.532977 144.353982 139.531322 145.261076 C 138.529666 146.171672 137.506997 147.054249 136.459811 147.912311 C 135.416128 148.76687 134.351431 149.600416 133.265721 150.405943 C 132.18001 151.21147 131.073286 151.988979 129.94905 152.73847 C 128.824814 153.491462 127.683067 154.212935 126.523808 154.909891 C 125.364549 155.603345 124.191281 156.26878 122.997 156.906197 C 121.80622 157.543615 120.59793 158.153014 119.37563 158.730892 C 118.15333 159.30877 116.91702 159.855128 115.670204 160.373467 C 114.419886 160.888304 113.159061 161.375122 111.887729 161.83042 C 110.612894 162.285718 109.331055 162.709496 108.038709 163.101753 C 106.742861 163.494009 105.440008 163.854745 104.130151 164.183961 C 102.820294 164.513176 101.49993 164.810871 100.176063 165.073543 C 98.848694 165.336215 97.517823 165.567366 96.179948 165.766997 C 94.842072 165.963125 93.500694 166.131235 92.155814 166.26082 C 90.810934 166.393907 89.462551 166.495474 88.114168 166.562017 C 86.762284 166.628561 85.410399 166.660082 84.058514 166.660082 C 82.706629 166.660082 81.358247 166.628561 80.006362 166.562017 C 78.657979 166.495474 77.309597 166.393907 75.964716 166.26082 C 74.619836 166.131235 73.278458 165.963125 71.940583 165.766997 C 70.602707 165.567366 69.271836 165.336215 67.944467 165.073543 C 66.620601 164.810871 65.300236 164.513176 63.990379 164.183961 C 62.677019 163.854745 61.377669 163.494009 60.081821 163.101753 C 58.789475 162.709496 57.504134 162.285718 56.232802 161.83042 C 54.96147 161.375122 53.700644 160.888304 52.450326 160.373467 C 51.200008 159.855128 49.967201 159.30877 48.744901 158.730892 C 47.522601 158.153014 46.31431 157.543615 45.12353 156.906197 C 43.929249 156.26878 42.755981 155.603345 41.596722 154.909891 C 40.433961 154.212935 39.292214 153.491462 38.17148 152.73847 C 37.047244 151.988979 35.94052 151.21147 34.854809 150.405943 C 33.769099 149.600416 32.704402 148.76687 31.660719 147.912311 C 30.613533 147.054249 29.590864 146.171672 28.589208 145.261076 C 27.587553 144.353982 26.610413 143.422372 25.654288 142.466246 C 24.698162 141.51012 23.766552 140.532981 22.855956 139.531325 C 21.948862 138.52967 21.066285 137.507 20.208223 136.459815 C 19.350161 135.416132 18.520118 134.351435 17.714591 133.265724 C 16.909064 132.180014 16.131555 131.073289 15.382064 129.949054 C 14.629071 128.824818 13.907599 127.68307 13.210643 126.523812 C 12.517189 125.364553 11.851754 124.191285 11.214336 122.997003 C 10.576919 121.806224 9.96752 120.597933 9.389642 119.375633 C 8.811764 118.153333 8.265406 116.917024 7.747067 115.670208 C 7.228728 114.41989 6.745411 113.159064 6.290113 111.887732 C 5.831313 110.612898 5.407536 109.331059 5.015279 108.038713 C 4.623022 106.742865 4.262286 105.440012 3.936573 104.130155 C 3.607357 102.820297 3.309663 101.499933 3.046991 100.176067 C 2.784319 98.848698 2.553168 97.517827 2.353537 96.179951 C 2.157408 94.842076 1.989298 93.500698 1.856211 92.155817 C 1.726627 90.810937 1.62506 89.462555 1.558516 88.114172 C 1.491973 86.762287 1.460452 85.410402 1.460452 84.058518 C 1.460452 82.706633 1.491973 81.35825 1.558516 80.006365 C 1.62506 78.657983 1.726627 77.3096 1.856211 75.96472 C 1.989298 74.61984 2.157408 73.278462 2.353537 71.940586 C 2.553168 70.602711 2.784319 69.271839 3.046991 67.944471 C 3.309663 66.620604 3.607357 65.30024 3.936573 63.990383 C 4.262286 62.677023 4.623022 61.377673 5.015279 60.081824 C 5.407536 58.789479 5.831313 57.504137 6.290113 56.232805 C 6.745411 54.961473 7.228728 53.700648 7.747067 52.45033 C 8.265406 51.200011 8.811764 49.967204 9.389642 48.744904 C 9.96752 47.522604 10.576919 46.314313 11.214336 45.123534 C 11.851754 43.929252 12.517189 42.755984 13.210643 41.596726 C 13.907599 40.433965 14.629071 39.292217 15.382064 38.171484 C 16.131555 37.047248 16.909064 35.940524 17.714591 34.854813 C 18.520118 33.769102 19.350161 32.704406 20.208223 31.660722 C 21.066285 30.613537 21.948862 29.590868 22.855956 28.589212 C 23.766552 27.587556 24.698162 26.610417 25.654288 25.654291 C 26.610413 24.698165 27.587553 23.766556 28.589208 22.85596 C 29.590864 21.948866 30.613533 21.066288 31.660719 20.208227 C 32.704402 19.350165 33.769099 18.520122 34.854809 17.714594 C 35.94052 16.909067 37.047244 16.131558 38.17148 15.382068 C 39.292214 14.629075 40.433961 13.907603 41.596722 13.210647 C 42.755981 12.517193 43.929249 11.851757 45.12353 11.21434 C 46.31431 10.576923 47.522601 9.967524 48.744901 9.389646 C 49.967201 8.811767 51.200008 8.26541 52.450326 7.747071 C 53.700644 7.228731 54.96147 6.745415 56.232802 6.290117 C 57.504134 5.831317 58.789475 5.407539 60.081821 5.015283 C 61.377669 4.623026 62.677019 4.26229 63.990379 3.936577 C 65.300236 3.607361 66.620601 3.309666 67.944467 3.046994 C 69.271836 2.784322 70.602707 2.553171 71.940583 2.35354 C 73.278458 2.157412 74.619836 1.989302 75.964716 1.856215 C 77.309597 1.72663 78.657979 1.625064 80.006362 1.55852 C 81.358247 1.491977 82.706629 1.460456 84.058514 1.460456 C 85.410399 1.460456 86.762284 1.491977 88.114168 1.55852 C 89.462551 1.625064 90.810934 1.72663 92.155814 1.856215 C 93.500694 1.989302 94.842072 2.157412 96.179948 2.35354 C 97.517823 2.553171 98.848694 2.784322 100.176063 3.046994 C 101.49993 3.309666 102.820294 3.607361 104.130151 3.936577 C 105.440008 4.26229 106.742861 4.623026 108.038709 5.015283 C 109.331055 5.407539 110.612894 5.831317 111.887729 6.290117 C 113.159061 6.745415 114.419886 7.228731 115.670204 7.747071 C 116.91702 8.26541 118.15333 8.811767 119.37563 9.389646 C 120.59793 9.967524 121.80622 10.576923 122.997 11.21434 C 124.191281 11.851757 125.364549 12.517193 126.523808 13.210647 C 127.683067 13.907603 128.824814 14.629075 129.94905 15.382068 C 131.073286 16.131558 132.18001 16.909067 133.265721 17.714594 C 134.351431 18.520122 135.416128 19.350165 136.459811 20.208227 C 137.506997 21.066288 138.529666 21.948866 139.531322 22.85596 C 140.532977 23.766556 141.510117 24.698165 142.466243 25.654291 C 143.422368 26.610417 144.353978 27.587556 145.261072 28.589212 C 146.171668 29.590868 147.054246 30.613537 147.912307 31.660722 C 148.766867 32.704406 149.600412 33.769102 150.405939 34.854813 C 151.211467 35.940524 151.988975 37.047248 152.738466 38.171484 C 153.491459 39.292217 154.212931 40.433965 154.909887 41.596726 C 155.603341 42.755984 156.268777 43.929252 156.906194 45.123534 C 157.543611 46.314313 158.15301 47.522604 158.730888 48.744904 C 159.308766 49.967204 159.855124 51.200011 160.373463 52.45033 C 160.8883 53.700648 161.375119 54.961473 161.830417 56.232805 C 162.285715 57.504137 162.709492 58.789479 163.101749 60.081824 C 163.494006 61.377673 163.854742 62.677023 164.183957 63.990383 C 164.513173 65.30024 164.810868 66.620604 165.07354 67.944471 C 165.336211 69.271839 165.567363 70.602711 165.766993 71.940586 C 165.963122 73.278462 166.131232 74.61984 166.260817 75.96472 C 166.393904 77.3096 166.49547 78.657983 166.562014 80.006365 C 166.628557 81.35825 166.660078 82.706633 166.660078 84.058518 Z M 166.660078 84.058518 " stroke="#85754e" stroke-width="2.91" stroke-opacity="1" stroke-miterlimit="10"/></g><g clip-path="url(#1095e29fec)"><path stroke-linecap="butt" transform="matrix(1.061783, 0, 0, 1.061783, 24.836319, 24.836315)" fill="none" stroke-linejoin="miter" d="M 128.509122 64.980978 C 128.509122 66.018443 128.483369 67.059586 128.431864 68.097051 C 128.384037 69.134515 128.306779 70.17198 128.203769 71.205765 C 128.100758 72.24323 127.975673 73.273336 127.821157 74.303443 C 127.67032 75.329871 127.493731 76.35262 127.287709 77.375368 C 127.085367 78.394438 126.857272 79.40615 126.607103 80.417862 C 126.353256 81.425895 126.077334 82.42657 125.77566 83.423566 C 125.473986 84.416883 125.146559 85.402842 124.797059 86.381443 C 124.447558 87.360045 124.072305 88.331288 123.674978 89.291495 C 123.277651 90.251701 122.854572 91.200871 122.409419 92.142682 C 121.964266 93.080815 121.497039 94.01159 121.007738 94.927649 C 120.518437 95.843708 120.007063 96.748731 119.469936 97.642716 C 118.936488 98.533023 118.380966 99.412292 117.803371 100.276846 C 117.225775 101.1414 116.626106 101.991238 116.008042 102.82636 C 115.389978 103.661482 114.74984 104.478209 114.087629 105.2839 C 113.429096 106.085911 112.752169 106.873207 112.053168 107.645787 C 111.354167 108.414688 110.636772 109.168873 109.900981 109.900985 C 109.16887 110.636775 108.414684 111.354171 107.645783 112.053172 C 106.873203 112.752173 106.085908 113.4291 105.283896 114.087633 C 104.478206 114.749844 103.661478 115.389982 102.826356 116.008046 C 101.991234 116.62611 101.141396 117.225779 100.276842 117.803374 C 99.412288 118.38097 98.533019 118.936492 97.642712 119.46994 C 96.748727 120.007067 95.843705 120.518441 94.927646 121.007742 C 94.011586 121.497042 93.080812 121.964269 92.142679 122.409423 C 91.200867 122.854576 90.251697 123.277655 89.291491 123.674982 C 88.331284 124.072309 87.360041 124.447562 86.38144 124.797063 C 85.402838 125.146563 84.416879 125.47399 83.423562 125.775664 C 82.426566 126.077338 81.425891 126.353259 80.417858 126.607107 C 79.406146 126.857276 78.394434 127.085371 77.375364 127.287713 C 76.352616 127.493735 75.329867 127.670324 74.303439 127.821161 C 73.273333 127.975677 72.243226 128.100762 71.205762 128.203772 C 70.171976 128.306783 69.134511 128.384041 68.097047 128.431867 C 67.059582 128.483373 66.018439 128.509125 64.980974 128.509125 C 63.939831 128.509125 62.902366 128.483373 61.861223 128.431867 C 60.823758 128.384041 59.786294 128.306783 58.752508 128.203772 C 57.718723 128.100762 56.684937 127.975677 55.658509 127.821161 C 54.628403 127.670324 53.605654 127.493735 52.586584 127.287713 C 51.567515 127.085371 50.552124 126.857276 49.544091 126.607107 C 48.536058 126.353259 47.531704 126.077338 46.538387 125.775664 C 45.54507 125.47399 44.555432 125.146563 43.57683 124.797063 C 42.598229 124.447562 41.626986 124.072309 40.666779 123.674982 C 39.706573 123.277655 38.757403 122.854576 37.815591 122.409423 C 36.877458 121.964269 35.950362 121.497042 35.030624 121.007742 C 34.114565 120.518441 33.209543 120.007067 32.319236 119.46994 C 31.42893 118.936492 30.54966 118.38097 29.685107 117.803374 C 28.820553 117.225779 27.970715 116.62611 27.135593 116.008046 C 26.300471 115.389982 25.480064 114.749844 24.678053 114.087633 C 23.872362 113.4291 23.085066 112.752173 22.316165 112.053172 C 21.547264 111.354171 20.793079 110.636775 20.057289 109.900985 C 19.321498 109.168873 18.604103 108.414688 17.908781 107.645787 C 17.20978 106.873207 16.529173 106.085911 15.870641 105.2839 C 15.212109 104.478209 14.571971 103.661482 13.953907 102.82636 C 13.332164 101.991238 12.736174 101.1414 12.158578 100.276846 C 11.577304 99.412292 11.021782 98.533023 10.488334 97.642716 C 9.954886 96.748731 9.439833 95.843708 8.950532 94.927649 C 8.461231 94.01159 7.994004 93.080815 7.548851 92.142682 C 7.103698 91.200871 6.684297 90.251701 6.28697 89.291495 C 5.889644 88.331288 5.51439 87.360045 5.16489 86.381443 C 4.811711 85.402842 4.487963 84.416883 4.186289 83.423566 C 3.884615 82.42657 3.605014 81.425895 3.354846 80.417862 C 3.100998 79.40615 2.872903 78.394438 2.67056 77.375368 C 2.468218 76.35262 2.291628 75.329871 2.137112 74.303443 C 1.986275 73.273336 1.857512 72.24323 1.754501 71.205765 C 1.65517 70.17198 1.577912 69.134515 1.526406 68.097051 C 1.474901 67.059586 1.449148 66.018443 1.449148 64.980978 C 1.449148 63.939835 1.474901 62.90237 1.526406 61.861227 C 1.577912 60.823762 1.65517 59.786298 1.754501 58.752512 C 1.857512 57.718726 1.986275 56.684941 2.137112 55.658513 C 2.291628 54.628407 2.468218 53.605658 2.67056 52.586588 C 2.872903 51.567518 3.100998 50.552127 3.354846 49.544095 C 3.605014 48.536062 3.884615 47.531708 4.186289 46.538391 C 4.487963 45.545073 4.811711 44.555435 5.16489 43.576834 C 5.51439 42.598233 5.889644 41.626989 6.28697 40.666783 C 6.684297 39.706576 7.103698 38.757407 7.548851 37.815595 C 7.994004 36.877462 8.461231 35.950366 8.950532 35.030628 C 9.439833 34.114569 9.954886 33.209547 10.488334 32.31924 C 11.021782 31.428934 11.577304 30.549664 12.158578 29.68511 C 12.736174 28.820557 13.332164 27.970719 13.953907 27.135597 C 14.571971 26.300474 15.212109 25.480068 15.870641 24.678056 C 16.529173 23.872366 17.20978 23.08507 17.908781 22.316169 C 18.604103 21.547268 19.321498 20.793083 20.057289 20.057292 C 20.793079 19.321502 21.547264 18.604106 22.316165 17.908784 C 23.085066 17.209783 23.872362 16.529177 24.678053 15.870645 C 25.480064 15.212112 26.300471 14.571975 27.135593 13.953911 C 27.970715 13.332168 28.820553 12.736177 29.685107 12.154903 C 30.54966 11.577308 31.42893 11.021786 32.319236 10.488338 C 33.209543 9.95489 34.114565 9.439836 35.030624 8.950536 C 35.950362 8.461235 36.877458 7.994008 37.815591 7.548855 C 38.757403 7.103702 39.706573 6.684301 40.666779 6.286974 C 41.626986 5.889647 42.598229 5.514394 43.57683 5.164894 C 44.555432 4.811714 45.54507 4.487967 46.538387 4.186292 C 47.531704 3.884618 48.536058 3.605018 49.544091 3.354849 C 50.552124 3.101002 51.567515 2.872907 52.586584 2.670564 C 53.605654 2.468222 54.628403 2.291632 55.658509 2.137116 C 56.684937 1.986279 57.718723 1.857516 58.752508 1.754505 C 59.786294 1.655173 60.823758 1.577915 61.861223 1.52641 C 62.902366 1.474905 63.939831 1.449152 64.980974 1.449152 C 66.018439 1.449152 67.059582 1.474905 68.097047 1.52641 C 69.134511 1.577915 70.171976 1.655173 71.205762 1.754505 C 72.243226 1.857516 73.273333 1.986279 74.303439 2.137116 C 75.329867 2.291632 76.352616 2.468222 77.375364 2.670564 C 78.394434 2.872907 79.406146 3.101002 80.417858 3.354849 C 81.425891 3.605018 82.426566 3.884618 83.423562 4.186292 C 84.416879 4.487967 85.402838 4.811714 86.38144 5.164894 C 87.360041 5.514394 88.331284 5.889647 89.291491 6.286974 C 90.251697 6.684301 91.200867 7.103702 92.142679 7.548855 C 93.080812 7.994008 94.011586 8.461235 94.927646 8.950536 C 95.843705 9.439836 96.748727 9.95489 97.642712 10.488338 C 98.533019 11.021786 99.412288 11.577308 100.276842 12.154903 C 101.141396 12.736177 101.991234 13.332168 102.826356 13.953911 C 103.661478 14.571975 104.478206 15.212112 105.283896 15.870645 C 106.085908 16.529177 106.873203 17.209783 107.645783 17.908784 C 108.414684 18.604106 109.16887 19.321502 109.900981 20.057292 C 110.636772 20.793083 111.354167 21.547268 112.053168 22.316169 C 112.752169 23.08507 113.429096 23.872366 114.087629 24.678056 C 114.74984 25.480068 115.389978 26.300474 116.008042 27.135597 C 116.626106 27.970719 117.225775 28.820557 117.803371 29.68511 C 118.380966 30.549664 118.936488 31.428934 119.469936 32.31924 C 120.007063 33.209547 120.518437 34.114569 121.007738 35.030628 C 121.497039 35.950366 121.964266 36.877462 122.409419 37.815595 C 122.854572 38.757407 123.277651 39.706576 123.674978 40.666783 C 124.072305 41.626989 124.447558 42.598233 124.797059 43.576834 C 125.146559 44.555435 125.473986 45.545073 125.77566 46.538391 C 126.077334 47.531708 126.353256 48.536062 126.607103 49.544095 C 126.857272 50.552127 127.085367 51.567518 127.287709 52.586588 C 127.493731 53.605658 127.67032 54.628407 127.821157 55.658513 C 127.975673 56.684941 128.100758 57.718726 128.203769 58.752512 C 128.306779 59.786298 128.384037 60.823762 128.431864 61.861227 C 128.483369 62.90237 128.509122 63.939835 128.509122 64.980978 Z M 128.509122 64.980978 " stroke="#85754e" stroke-width="2.91" stroke-opacity="1" stroke-miterlimit="10"/></g><g clip-path="url(#205a69b612)"><path fill="#85754e" d="M 13.773438 98.203125 L 18.636719 101.148438 L 17.347656 95.597656 L 21.644531 91.867188 L 15.984375 91.378906 L 13.773438 86.148438 L 11.558594 91.378906 L 5.902344 91.867188 L 10.195312 95.597656 L 8.90625 101.148438 Z M 13.773438 98.203125 " fill-opacity="1" fill-rule="nonzero"/></g><g clip-path="url(#7ced2bdba1)"><path fill="#85754e" d="M 172.730469 98.203125 L 177.59375 101.148438 L 176.308594 95.597656 L 180.601562 91.867188 L 174.941406 91.378906 L 172.730469 86.148438 L 170.519531 91.378906 L 164.859375 91.867188 L 169.152344 95.597656 L 167.867188 101.148438 Z M 172.730469 98.203125 " fill-opacity="1" fill-rule="nonzero"/></g><g fill="#85754e" fill-opacity="1"><g transform="translate(40.71893, 40.093127)"><g><path d="M 5.140625 -4.03125 C 4.265625 -3.289062 3.320312 -2.8125 2.3125 -2.59375 C 1.3125 -2.382812 0.335938 -2.441406 -0.609375 -2.765625 C -1.566406 -3.097656 -2.398438 -3.679688 -3.109375 -4.515625 C -3.804688 -5.347656 -4.234375 -6.257812 -4.390625 -7.25 C -4.546875 -8.238281 -4.429688 -9.210938 -4.046875 -10.171875 C -3.671875 -11.128906 -3.046875 -11.976562 -2.171875 -12.71875 C -1.421875 -13.351562 -0.625 -13.796875 0.21875 -14.046875 C 1.0625 -14.296875 1.898438 -14.332031 2.734375 -14.15625 L 2.375 -11.53125 C 1.289062 -11.726562 0.363281 -11.503906 -0.40625 -10.859375 C -0.851562 -10.472656 -1.171875 -10.03125 -1.359375 -9.53125 C -1.546875 -9.039062 -1.585938 -8.53125 -1.484375 -8 C -1.378906 -7.476562 -1.128906 -6.984375 -0.734375 -6.515625 C -0.335938 -6.046875 0.109375 -5.710938 0.609375 -5.515625 C 1.117188 -5.316406 1.628906 -5.269531 2.140625 -5.375 C 2.660156 -5.476562 3.144531 -5.722656 3.59375 -6.109375 C 4.363281 -6.753906 4.75 -7.625 4.75 -8.71875 L 7.390625 -8.625 C 7.410156 -7.78125 7.226562 -6.960938 6.84375 -6.171875 C 6.457031 -5.378906 5.890625 -4.664062 5.140625 -4.03125 Z M 5.140625 -4.03125 "/></g></g></g><g fill="#85754e" fill-opacity="1"><g transform="translate(49.64148, 32.641941)"><g><path d="M 7.125 -7.1875 L 8.375 -5.15625 L 0.9375 -0.578125 L -4.78125 -9.859375 L 2.484375 -14.34375 L 3.734375 -12.3125 L -0.9375 -9.421875 L 0.03125 -7.859375 L 4.15625 -10.390625 L 5.359375 -8.421875 L 1.234375 -5.890625 L 2.28125 -4.203125 Z M 7.125 -7.1875 "/></g></g></g><g fill="#85754e" fill-opacity="1"><g transform="translate(58.73204, 27.09505)"><g><path d="M -3.40625 -10.40625 L -0.59375 -11.65625 L 2.8125 -3.9375 L 7.578125 -6.046875 L 8.578125 -3.796875 L 1 -0.4375 Z M -3.40625 -10.40625 "/></g></g></g><g fill="#85754e" fill-opacity="1"><g transform="translate(67.582425, 23.156736)"><g><path d="M 8.796875 -5.03125 L 9.453125 -2.734375 L 1.046875 -0.296875 L -1.984375 -10.78125 L 6.234375 -13.15625 L 6.90625 -10.859375 L 1.625 -9.34375 L 2.125 -7.578125 L 6.765625 -8.921875 L 7.40625 -6.703125 L 2.765625 -5.359375 L 3.328125 -3.453125 Z M 8.796875 -5.03125 "/></g></g></g><g fill="#85754e" fill-opacity="1"><g transform="translate(77.743718, 20.169969)"><g><path d="M 8.65625 -6.875 C 9.289062 -6.738281 9.816406 -6.460938 10.234375 -6.046875 C 10.648438 -5.628906 10.898438 -5.09375 10.984375 -4.4375 C 11.109375 -3.5 10.820312 -2.722656 10.125 -2.109375 C 9.425781 -1.492188 8.359375 -1.09375 6.921875 -0.90625 L 1.078125 -0.140625 L -0.34375 -10.953125 L 5.1875 -11.671875 C 6.5625 -11.859375 7.644531 -11.742188 8.4375 -11.328125 C 9.226562 -10.910156 9.679688 -10.269531 9.796875 -9.40625 C 9.859375 -8.894531 9.789062 -8.421875 9.59375 -7.984375 C 9.394531 -7.546875 9.082031 -7.175781 8.65625 -6.875 Z M 2.984375 -9.125 L 3.25 -7.046875 L 5.359375 -7.328125 C 6.378906 -7.460938 6.84375 -7.882812 6.75 -8.59375 C 6.664062 -9.269531 6.113281 -9.539062 5.09375 -9.40625 Z M 6.375 -3.09375 C 7.4375 -3.226562 7.921875 -3.65625 7.828125 -4.375 C 7.734375 -5.113281 7.15625 -5.414062 6.09375 -5.28125 L 3.53125 -4.9375 L 3.8125 -2.75 Z M 6.375 -3.09375 "/></g></g></g><g fill="#85754e" fill-opacity="1"><g transform="translate(89.714038, 18.625362)"><g><path d="M 5.9375 -2.734375 L 4.25 -2.78125 L 4.171875 0.109375 L 1.09375 0.03125 L 1.390625 -10.875 L 6.375 -10.734375 C 7.363281 -10.710938 8.210938 -10.523438 8.921875 -10.171875 C 9.640625 -9.828125 10.1875 -9.34375 10.5625 -8.71875 C 10.945312 -8.101562 11.128906 -7.390625 11.109375 -6.578125 C 11.085938 -5.785156 10.882812 -5.097656 10.5 -4.515625 C 10.113281 -3.941406 9.570312 -3.5 8.875 -3.1875 L 11.140625 0.296875 L 7.828125 0.21875 Z M 7.984375 -6.65625 C 7.992188 -7.164062 7.84375 -7.5625 7.53125 -7.84375 C 7.226562 -8.132812 6.757812 -8.289062 6.125 -8.3125 L 4.40625 -8.359375 L 4.3125 -5.171875 L 6.03125 -5.125 C 6.664062 -5.101562 7.144531 -5.222656 7.46875 -5.484375 C 7.800781 -5.753906 7.972656 -6.144531 7.984375 -6.65625 Z M 7.984375 -6.65625 "/></g></g></g><g fill="#85754e" fill-opacity="1"><g transform="translate(101.324943, 18.919745)"><g><path d="M 8.640625 -0.53125 L 4.109375 -1.390625 L 2.875 0.546875 L -0.21875 -0.046875 L 6.53125 -9.859375 L 9.53125 -9.296875 L 12.25 2.3125 L 9.09375 1.71875 Z M 8.1875 -2.921875 L 7.4375 -6.609375 L 5.421875 -3.4375 Z M 8.1875 -2.921875 "/></g></g></g><g fill="#85754e" fill-opacity="1"><g transform="translate(113.391124, 21.075163)"><g><path d="M 10.203125 3.921875 L 12.265625 -1.484375 L 7.953125 1.90625 L 6.671875 1.421875 L 5.6875 -3.84375 L 3.671875 1.40625 L 1.015625 0.390625 L 4.921875 -9.796875 L 7.296875 -8.890625 L 8.625 -1.625 L 14.359375 -6.171875 L 16.734375 -5.265625 L 12.84375 4.9375 Z M 10.203125 3.921875 "/></g></g></g><g fill="#85754e" fill-opacity="1"><g transform="translate(127.211504, 26.464668)"><g><path d="M 5.5 3.65625 C 4.519531 3.039062 3.765625 2.285156 3.234375 1.390625 C 2.710938 0.492188 2.453125 -0.457031 2.453125 -1.46875 C 2.460938 -2.476562 2.75 -3.441406 3.3125 -4.359375 C 3.882812 -5.285156 4.617188 -5.972656 5.515625 -6.421875 C 6.410156 -6.878906 7.378906 -7.078125 8.421875 -7.015625 C 9.460938 -6.953125 10.472656 -6.613281 11.453125 -6 C 12.429688 -5.40625 13.179688 -4.65625 13.703125 -3.75 C 14.222656 -2.851562 14.484375 -1.898438 14.484375 -0.890625 C 14.484375 0.109375 14.195312 1.070312 13.625 2 C 13.0625 2.914062 12.328125 3.601562 11.421875 4.0625 C 10.523438 4.519531 9.554688 4.710938 8.515625 4.640625 C 7.484375 4.578125 6.476562 4.25 5.5 3.65625 Z M 6.84375 1.46875 C 7.3125 1.75 7.800781 1.898438 8.3125 1.921875 C 8.820312 1.941406 9.3125 1.816406 9.78125 1.546875 C 10.25 1.273438 10.644531 0.878906 10.96875 0.359375 C 11.289062 -0.160156 11.460938 -0.6875 11.484375 -1.21875 C 11.515625 -1.757812 11.410156 -2.253906 11.171875 -2.703125 C 10.929688 -3.160156 10.578125 -3.53125 10.109375 -3.8125 C 9.640625 -4.101562 9.144531 -4.253906 8.625 -4.265625 C 8.101562 -4.285156 7.609375 -4.164062 7.140625 -3.90625 C 6.671875 -3.644531 6.273438 -3.253906 5.953125 -2.734375 C 5.628906 -2.210938 5.453125 -1.675781 5.421875 -1.125 C 5.398438 -0.582031 5.515625 -0.0859375 5.765625 0.359375 C 6.015625 0.804688 6.375 1.175781 6.84375 1.46875 Z M 6.84375 1.46875 "/></g></g></g><g fill="#85754e" fill-opacity="1"><g transform="translate(138.437258, 33.536735)"><g><path d="M 3.59375 3.375 C 2.925781 2.800781 2.347656 2.160156 1.859375 1.453125 C 1.367188 0.742188 1.046875 0.0820312 0.890625 -0.53125 L 3.125 -1.59375 C 3.289062 -1.019531 3.550781 -0.453125 3.90625 0.109375 C 4.269531 0.671875 4.691406 1.15625 5.171875 1.5625 C 6.066406 2.332031 6.707031 2.492188 7.09375 2.046875 C 7.289062 1.804688 7.3125 1.519531 7.15625 1.1875 C 7 0.851562 6.6875 0.378906 6.21875 -0.234375 C 5.707031 -0.910156 5.3125 -1.5 5.03125 -2 C 4.757812 -2.507812 4.617188 -3.066406 4.609375 -3.671875 C 4.597656 -4.273438 4.835938 -4.863281 5.328125 -5.4375 C 5.753906 -5.9375 6.28125 -6.269531 6.90625 -6.4375 C 7.53125 -6.601562 8.21875 -6.570312 8.96875 -6.34375 C 9.71875 -6.113281 10.492188 -5.65625 11.296875 -4.96875 C 11.835938 -4.5 12.316406 -3.976562 12.734375 -3.40625 C 13.160156 -2.832031 13.476562 -2.253906 13.6875 -1.671875 L 11.453125 -0.546875 C 11.035156 -1.648438 10.457031 -2.519531 9.71875 -3.15625 C 9.25 -3.550781 8.847656 -3.769531 8.515625 -3.8125 C 8.179688 -3.863281 7.925781 -3.785156 7.75 -3.578125 C 7.5625 -3.347656 7.546875 -3.066406 7.703125 -2.734375 C 7.859375 -2.410156 8.171875 -1.953125 8.640625 -1.359375 C 9.148438 -0.679688 9.539062 -0.0859375 9.8125 0.421875 C 10.09375 0.929688 10.242188 1.484375 10.265625 2.078125 C 10.285156 2.671875 10.046875 3.257812 9.546875 3.84375 C 9.128906 4.332031 8.609375 4.660156 7.984375 4.828125 C 7.367188 4.992188 6.679688 4.960938 5.921875 4.734375 C 5.160156 4.503906 4.382812 4.050781 3.59375 3.375 Z M 3.59375 3.375 "/></g></g></g><g fill="#85754e" fill-opacity="1"><g transform="translate(17.614836, 130.919157)"><g><path d="M 15.515625 5.078125 L 3.75 6.484375 L 2.21875 3.84375 L 9.328125 -5.640625 L 11 -2.765625 L 6.328125 3.359375 L 13.984375 2.421875 Z M 15.515625 5.078125 "/></g></g></g><g fill="#85754e" fill-opacity="1"><g transform="translate(24.435133, 142.571148)"><g><path d="M 4.03125 5.21875 C 3.289062 4.332031 2.816406 3.378906 2.609375 2.359375 C 2.410156 1.335938 2.472656 0.351562 2.796875 -0.59375 C 3.128906 -1.550781 3.710938 -2.378906 4.546875 -3.078125 C 5.378906 -3.765625 6.289062 -4.175781 7.28125 -4.3125 C 8.28125 -4.457031 9.257812 -4.332031 10.21875 -3.9375 C 11.175781 -3.539062 12.023438 -2.898438 12.765625 -2.015625 C 13.492188 -1.128906 13.960938 -0.175781 14.171875 0.84375 C 14.390625 1.863281 14.332031 2.847656 14 3.796875 C 13.675781 4.753906 13.097656 5.578125 12.265625 6.265625 C 11.429688 6.960938 10.515625 7.378906 9.515625 7.515625 C 8.523438 7.660156 7.546875 7.535156 6.578125 7.140625 C 5.609375 6.742188 4.757812 6.101562 4.03125 5.21875 Z M 6.015625 3.578125 C 6.367188 4.003906 6.78125 4.304688 7.25 4.484375 C 7.726562 4.660156 8.234375 4.695312 8.765625 4.59375 C 9.296875 4.5 9.800781 4.253906 10.28125 3.859375 C 10.75 3.472656 11.082031 3.023438 11.28125 2.515625 C 11.476562 2.015625 11.535156 1.515625 11.453125 1.015625 C 11.367188 0.515625 11.148438 0.0507812 10.796875 -0.375 C 10.441406 -0.800781 10.019531 -1.101562 9.53125 -1.28125 C 9.050781 -1.46875 8.546875 -1.507812 8.015625 -1.40625 C 7.492188 -1.3125 7 -1.070312 6.53125 -0.6875 C 6.050781 -0.289062 5.707031 0.15625 5.5 0.65625 C 5.300781 1.164062 5.25 1.671875 5.34375 2.171875 C 5.4375 2.679688 5.660156 3.148438 6.015625 3.578125 Z M 6.015625 3.578125 "/></g></g></g><g fill="#85754e" fill-opacity="1"><g transform="translate(33.976087, 153.699883)"><g><path d="M 8.0625 -7.421875 L 10.375 -5.390625 L 4.75 0.9375 L 8.625 4.40625 L 7 6.234375 L 0.8125 0.734375 Z M 8.0625 -7.421875 "/></g></g></g><g fill="#85754e" fill-opacity="1"><g transform="translate(42.176363, 160.98585)"><g><path d="M 8.1875 2.8125 L 4.328125 0.296875 L 2.4375 1.609375 L -0.1875 -0.125 L 9.828125 -6.609375 L 12.375 -4.9375 L 10.421875 6.84375 L 7.734375 5.078125 Z M 8.671875 0.4375 L 9.40625 -3.234375 L 6.328125 -1.09375 Z M 8.671875 0.4375 "/></g></g></g><g fill="#85754e" fill-opacity="1"><g transform="translate(53.779279, 168.454812)"><g><path d="M 14.890625 -5.359375 L 10.5 4.625 L 8.171875 3.59375 L 6.109375 -3.65625 L 3.765625 1.65625 L 1 0.4375 L 5.390625 -9.546875 L 7.703125 -8.53125 L 9.765625 -1.25 L 12.109375 -6.578125 Z M 14.890625 -5.359375 "/></g></g></g><g fill="#85754e" fill-opacity="1"><g transform="translate(66.759702, 174.039686)"><g><path d="M 3.703125 -10.3125 L 8.703125 -9.0625 C 9.859375 -8.769531 10.832031 -8.296875 11.625 -7.640625 C 12.414062 -6.984375 12.957031 -6.191406 13.25 -5.265625 C 13.539062 -4.347656 13.554688 -3.359375 13.296875 -2.296875 C 13.023438 -1.222656 12.539062 -0.351562 11.84375 0.3125 C 11.15625 0.988281 10.304688 1.429688 9.296875 1.640625 C 8.296875 1.847656 7.21875 1.804688 6.0625 1.515625 L 1.0625 0.265625 Z M 6.53125 -0.90625 C 7.445312 -0.675781 8.238281 -0.75 8.90625 -1.125 C 9.582031 -1.5 10.035156 -2.144531 10.265625 -3.0625 C 10.492188 -3.96875 10.398438 -4.742188 9.984375 -5.390625 C 9.566406 -6.035156 8.898438 -6.472656 7.984375 -6.703125 L 6.09375 -7.171875 L 4.640625 -1.375 Z M 6.53125 -0.90625 "/></g></g></g><g fill="#85754e" fill-opacity="1"><g transform="translate(80.819011, 177.42866)"><g><path d="M 6.5625 0.6875 C 5.40625 0.601562 4.390625 0.285156 3.515625 -0.265625 C 2.640625 -0.816406 1.96875 -1.539062 1.5 -2.4375 C 1.039062 -3.332031 0.847656 -4.320312 0.921875 -5.40625 C 0.992188 -6.488281 1.320312 -7.4375 1.90625 -8.25 C 2.5 -9.0625 3.269531 -9.679688 4.21875 -10.109375 C 5.164062 -10.535156 6.21875 -10.707031 7.375 -10.625 C 8.519531 -10.539062 9.53125 -10.21875 10.40625 -9.65625 C 11.289062 -9.101562 11.960938 -8.378906 12.421875 -7.484375 C 12.890625 -6.597656 13.085938 -5.613281 13.015625 -4.53125 C 12.941406 -3.445312 12.609375 -2.492188 12.015625 -1.671875 C 11.429688 -0.859375 10.660156 -0.242188 9.703125 0.171875 C 8.753906 0.597656 7.707031 0.769531 6.5625 0.6875 Z M 6.75 -1.875 C 7.300781 -1.832031 7.804688 -1.921875 8.265625 -2.140625 C 8.722656 -2.359375 9.097656 -2.691406 9.390625 -3.140625 C 9.679688 -3.597656 9.847656 -4.132812 9.890625 -4.75 C 9.929688 -5.363281 9.84375 -5.914062 9.625 -6.40625 C 9.40625 -6.894531 9.082031 -7.285156 8.65625 -7.578125 C 8.226562 -7.867188 7.738281 -8.035156 7.1875 -8.078125 C 6.632812 -8.117188 6.125 -8.023438 5.65625 -7.796875 C 5.195312 -7.566406 4.816406 -7.222656 4.515625 -6.765625 C 4.222656 -6.316406 4.054688 -5.785156 4.015625 -5.171875 C 3.972656 -4.554688 4.0625 -4.003906 4.28125 -3.515625 C 4.507812 -3.023438 4.835938 -2.640625 5.265625 -2.359375 C 5.703125 -2.078125 6.195312 -1.914062 6.75 -1.875 Z M 6.75 -1.875 "/></g></g></g><g fill="#85754e" fill-opacity="1"><g transform="translate(95.307786, 178.124851)"><g/></g></g><g fill="#85754e" fill-opacity="1"><g transform="translate(101.137184, 177.957219)"><g><path d="M 6.484375 -0.828125 C 5.347656 -0.640625 4.289062 -0.710938 3.3125 -1.046875 C 2.34375 -1.378906 1.535156 -1.925781 0.890625 -2.6875 C 0.242188 -3.457031 -0.164062 -4.382812 -0.34375 -5.46875 C -0.507812 -6.539062 -0.40625 -7.539062 -0.03125 -8.46875 C 0.332031 -9.40625 0.921875 -10.1875 1.734375 -10.8125 C 2.554688 -11.4375 3.535156 -11.84375 4.671875 -12.03125 C 5.640625 -12.1875 6.546875 -12.148438 7.390625 -11.921875 C 8.242188 -11.703125 8.992188 -11.304688 9.640625 -10.734375 L 7.96875 -8.671875 C 7.132812 -9.398438 6.226562 -9.679688 5.25 -9.515625 C 4.65625 -9.421875 4.148438 -9.207031 3.734375 -8.875 C 3.316406 -8.550781 3.019531 -8.132812 2.84375 -7.625 C 2.664062 -7.125 2.625 -6.570312 2.71875 -5.96875 C 2.820312 -5.351562 3.035156 -4.832031 3.359375 -4.40625 C 3.679688 -3.976562 4.09375 -3.675781 4.59375 -3.5 C 5.09375 -3.320312 5.640625 -3.28125 6.234375 -3.375 C 7.210938 -3.539062 7.984375 -4.09375 8.546875 -5.03125 L 10.78125 -3.59375 C 10.351562 -2.851562 9.769531 -2.242188 9.03125 -1.765625 C 8.300781 -1.296875 7.453125 -0.984375 6.484375 -0.828125 Z M 6.484375 -0.828125 "/></g></g></g><g fill="#85754e" fill-opacity="1"><g transform="translate(114.012856, 175.817954)"><g><path d="M 6.3125 -1.90625 C 5.21875 -1.53125 4.15625 -1.425781 3.125 -1.59375 C 2.101562 -1.769531 1.207031 -2.179688 0.4375 -2.828125 C -0.332031 -3.472656 -0.890625 -4.3125 -1.234375 -5.34375 C -1.585938 -6.363281 -1.648438 -7.363281 -1.421875 -8.34375 C -1.191406 -9.332031 -0.71875 -10.203125 0 -10.953125 C 0.707031 -11.710938 1.609375 -12.28125 2.703125 -12.65625 C 3.785156 -13.019531 4.84375 -13.113281 5.875 -12.9375 C 6.90625 -12.769531 7.804688 -12.363281 8.578125 -11.71875 C 9.347656 -11.070312 9.910156 -10.238281 10.265625 -9.21875 C 10.609375 -8.1875 10.664062 -7.175781 10.4375 -6.1875 C 10.207031 -5.207031 9.734375 -4.335938 9.015625 -3.578125 C 8.296875 -2.828125 7.394531 -2.269531 6.3125 -1.90625 Z M 5.5 -4.328125 C 6.019531 -4.503906 6.445312 -4.785156 6.78125 -5.171875 C 7.125 -5.554688 7.34375 -6.015625 7.4375 -6.546875 C 7.53125 -7.078125 7.484375 -7.632812 7.296875 -8.21875 C 7.097656 -8.800781 6.800781 -9.269531 6.40625 -9.625 C 6.007812 -9.988281 5.554688 -10.222656 5.046875 -10.328125 C 4.546875 -10.429688 4.035156 -10.394531 3.515625 -10.21875 C 2.992188 -10.039062 2.5625 -9.753906 2.21875 -9.359375 C 1.875 -8.972656 1.65625 -8.515625 1.5625 -7.984375 C 1.46875 -7.460938 1.519531 -6.910156 1.71875 -6.328125 C 1.90625 -5.742188 2.195312 -5.269531 2.59375 -4.90625 C 2.988281 -4.539062 3.441406 -4.304688 3.953125 -4.203125 C 4.460938 -4.109375 4.976562 -4.148438 5.5 -4.328125 Z M 5.5 -4.328125 "/></g></g></g><g fill="#85754e" fill-opacity="1"><g transform="translate(127.948375, 170.952254)"><g><path d="M 4.875 -15.0625 L 10.078125 -5.46875 L 7.84375 -4.25 L 0.84375 -7.0625 L 3.609375 -1.953125 L 0.96875 -0.515625 L -4.234375 -10.109375 L -2.015625 -11.328125 L 5 -8.5 L 2.21875 -13.609375 Z M 4.875 -15.0625 "/></g></g></g><g fill="#85754e" fill-opacity="1"><g transform="translate(140.181806, 164.080038)"><g><path d="M -2.375 -8.78125 L -5.046875 -6.765625 L -6.53125 -8.734375 L 1.265625 -14.625 L 2.75 -12.65625 L 0.09375 -10.65625 L 5.1875 -3.921875 L 2.71875 -2.046875 Z M -2.375 -8.78125 "/></g></g></g><g fill="#85754e" fill-opacity="1"><g transform="translate(148.960329, 157.206048)"><g><path d="M -6.65625 -8.703125 L -4.40625 -10.8125 L 3.046875 -2.859375 L 0.796875 -0.75 Z M -6.65625 -8.703125 "/></g></g></g><g fill="#85754e" fill-opacity="1"><g transform="translate(153.872764, 152.773474)"><g><path d="M 1.0625 -10.078125 L 2.828125 -12.171875 L 6.28125 -9.265625 C 6.21875 -8.503906 6.015625 -7.734375 5.671875 -6.953125 C 5.335938 -6.179688 4.910156 -5.488281 4.390625 -4.875 C 3.648438 -3.988281 2.800781 -3.351562 1.84375 -2.96875 C 0.882812 -2.59375 -0.0859375 -2.476562 -1.078125 -2.625 C -2.078125 -2.78125 -2.992188 -3.210938 -3.828125 -3.921875 C -4.660156 -4.617188 -5.238281 -5.445312 -5.5625 -6.40625 C -5.894531 -7.363281 -5.945312 -8.347656 -5.71875 -9.359375 C -5.5 -10.378906 -5.015625 -11.335938 -4.265625 -12.234375 C -3.609375 -13.003906 -2.882812 -13.585938 -2.09375 -13.984375 C -1.3125 -14.378906 -0.5 -14.578125 0.34375 -14.578125 L 0.4375 -11.9375 C -0.65625 -11.882812 -1.53125 -11.46875 -2.1875 -10.6875 C -2.789062 -9.96875 -3.0625 -9.207031 -3 -8.40625 C -2.945312 -7.601562 -2.554688 -6.898438 -1.828125 -6.296875 C -1.367188 -5.898438 -0.875 -5.648438 -0.34375 -5.546875 C 0.1875 -5.453125 0.703125 -5.5 1.203125 -5.6875 C 1.703125 -5.875 2.148438 -6.203125 2.546875 -6.671875 C 2.921875 -7.117188 3.1875 -7.613281 3.34375 -8.15625 Z M 1.0625 -10.078125 "/></g></g></g><g fill="#85754e" fill-opacity="1"><g transform="translate(162.543765, 142.339895)"><g><path d="M 3.53125 -5.578125 C 2.945312 -4.578125 2.207031 -3.804688 1.3125 -3.265625 C 0.425781 -2.722656 -0.515625 -2.441406 -1.515625 -2.421875 C -2.523438 -2.398438 -3.5 -2.664062 -4.4375 -3.21875 C -5.363281 -3.769531 -6.066406 -4.488281 -6.546875 -5.375 C -7.023438 -6.257812 -7.238281 -7.222656 -7.1875 -8.265625 C -7.144531 -9.304688 -6.832031 -10.328125 -6.25 -11.328125 C -5.664062 -12.316406 -4.929688 -13.082031 -4.046875 -13.625 C -3.160156 -14.164062 -2.207031 -14.445312 -1.1875 -14.46875 C -0.175781 -14.488281 0.789062 -14.222656 1.71875 -13.671875 C 2.65625 -13.117188 3.359375 -12.398438 3.828125 -11.515625 C 4.296875 -10.628906 4.507812 -9.664062 4.46875 -8.625 C 4.425781 -7.582031 4.113281 -6.566406 3.53125 -5.578125 Z M 1.328125 -6.875 C 1.609375 -7.34375 1.75 -7.832031 1.75 -8.34375 C 1.75 -8.863281 1.609375 -9.351562 1.328125 -9.8125 C 1.054688 -10.28125 0.65625 -10.671875 0.125 -10.984375 C -0.40625 -11.296875 -0.9375 -11.457031 -1.46875 -11.46875 C -2 -11.476562 -2.488281 -11.359375 -2.9375 -11.109375 C -3.382812 -10.859375 -3.75 -10.5 -4.03125 -10.03125 C -4.3125 -9.550781 -4.453125 -9.050781 -4.453125 -8.53125 C -4.460938 -8.007812 -4.332031 -7.519531 -4.0625 -7.0625 C -3.789062 -6.601562 -3.390625 -6.21875 -2.859375 -5.90625 C -2.328125 -5.59375 -1.789062 -5.425781 -1.25 -5.40625 C -0.71875 -5.394531 -0.226562 -5.515625 0.21875 -5.765625 C 0.675781 -6.023438 1.046875 -6.394531 1.328125 -6.875 Z M 1.328125 -6.875 "/></g></g></g><g fill="#85754e" fill-opacity="1"><g transform="translate(51.80899, 108.747012)"><g><path d="M 25.703125 -53.875 L 25.703125 0 L 10.46875 0 L 10.46875 -42.09375 L 0.46875 -42.09375 L 0.46875 -53.875 Z M 25.703125 -53.875 "/></g></g></g><g fill="#85754e" fill-opacity="1"><g transform="translate(82.971996, 108.747012)"><g><path d="M 26.390625 1.078125 C 21.773438 1.078125 17.671875 -0.0234375 14.078125 -2.234375 C 10.492188 -4.441406 7.6875 -7.660156 5.65625 -11.890625 C 3.625 -16.117188 2.609375 -21.132812 2.609375 -26.9375 C 2.609375 -32.726562 3.625 -37.738281 5.65625 -41.96875 C 7.6875 -46.207031 10.492188 -49.425781 14.078125 -51.625 C 17.671875 -53.832031 21.773438 -54.9375 26.390625 -54.9375 C 30.960938 -54.9375 35.039062 -53.832031 38.625 -51.625 C 42.21875 -49.425781 45.023438 -46.207031 47.046875 -41.96875 C 49.078125 -37.738281 50.09375 -32.726562 50.09375 -26.9375 C 50.09375 -21.132812 49.078125 -16.117188 47.046875 -11.890625 C 45.023438 -7.660156 42.21875 -4.441406 38.625 -2.234375 C 35.039062 -0.0234375 30.960938 1.078125 26.390625 1.078125 Z M 26.390625 -11.390625 C 28.960938 -11.390625 31.003906 -12.632812 32.515625 -15.125 C 34.023438 -17.613281 34.78125 -21.550781 34.78125 -26.9375 C 34.78125 -32.320312 34.023438 -36.257812 32.515625 -38.75 C 31.003906 -41.238281 28.960938 -42.484375 26.390625 -42.484375 C 23.773438 -42.484375 21.710938 -41.238281 20.203125 -38.75 C 18.691406 -36.257812 17.9375 -32.320312 17.9375 -26.9375 C 17.9375 -21.550781 18.691406 -17.613281 20.203125 -15.125 C 21.710938 -12.632812 23.773438 -11.390625 26.390625 -11.390625 Z M 26.390625 -11.390625 "/></g></g></g><g fill="#85754e" fill-opacity="1"><g transform="translate(55.84138, 133.205276)"><g><path d="M 12.0625 -3.046875 L 5.4375 -3.046875 L 4.203125 0 L -0.3125 0 L 6.609375 -15.671875 L 10.96875 -15.671875 L 17.90625 0 L 13.296875 0 Z M 10.765625 -6.3125 L 8.75 -11.328125 L 6.734375 -6.3125 Z M 10.765625 -6.3125 "/></g></g></g><g fill="#85754e" fill-opacity="1"><g transform="translate(75.684537, 133.205276)"><g><path d="M 16.484375 -15.671875 L 16.484375 0 L 12.828125 0 L 5.90625 -8.359375 L 5.90625 0 L 1.5625 0 L 1.5625 -15.671875 L 5.21875 -15.671875 L 12.140625 -7.328125 L 12.140625 -15.671875 Z M 10.765625 -16.796875 C 10.359375 -16.796875 9.992188 -16.875 9.671875 -17.03125 C 9.359375 -17.1875 9.003906 -17.398438 8.609375 -17.671875 C 8.328125 -17.859375 8.113281 -17.988281 7.96875 -18.0625 C 7.832031 -18.144531 7.691406 -18.1875 7.546875 -18.1875 C 7.242188 -18.1875 7 -18.078125 6.8125 -17.859375 C 6.632812 -17.648438 6.535156 -17.363281 6.515625 -17 L 4.421875 -17 C 4.453125 -18.082031 4.722656 -18.941406 5.234375 -19.578125 C 5.742188 -20.222656 6.421875 -20.546875 7.265625 -20.546875 C 7.671875 -20.546875 8.03125 -20.472656 8.34375 -20.328125 C 8.65625 -20.179688 9.015625 -19.972656 9.421875 -19.703125 C 9.703125 -19.503906 9.910156 -19.367188 10.046875 -19.296875 C 10.191406 -19.222656 10.34375 -19.1875 10.5 -19.1875 C 10.789062 -19.1875 11.023438 -19.285156 11.203125 -19.484375 C 11.390625 -19.691406 11.5 -19.96875 11.53125 -20.3125 L 13.609375 -20.3125 C 13.578125 -19.25 13.304688 -18.394531 12.796875 -17.75 C 12.296875 -17.113281 11.617188 -16.796875 10.765625 -16.796875 Z M 10.765625 -16.796875 "/></g></g></g><g fill="#85754e" fill-opacity="1"><g transform="translate(95.975606, 133.205276)"><g><path d="M 9.46875 0.3125 C 7.8125 0.3125 6.320312 -0.0351562 5 -0.734375 C 3.675781 -1.441406 2.640625 -2.414062 1.890625 -3.65625 C 1.140625 -4.894531 0.765625 -6.289062 0.765625 -7.84375 C 0.765625 -9.394531 1.140625 -10.785156 1.890625 -12.015625 C 2.640625 -13.253906 3.675781 -14.222656 5 -14.921875 C 6.320312 -15.628906 7.8125 -15.984375 9.46875 -15.984375 C 11.125 -15.984375 12.613281 -15.628906 13.9375 -14.921875 C 15.257812 -14.222656 16.296875 -13.253906 17.046875 -12.015625 C 17.804688 -10.785156 18.1875 -9.394531 18.1875 -7.84375 C 18.1875 -6.289062 17.804688 -4.894531 17.046875 -3.65625 C 16.296875 -2.414062 15.257812 -1.441406 13.9375 -0.734375 C 12.613281 -0.0351562 11.125 0.3125 9.46875 0.3125 Z M 9.46875 -3.359375 C 10.257812 -3.359375 10.972656 -3.546875 11.609375 -3.921875 C 12.253906 -4.296875 12.765625 -4.820312 13.140625 -5.5 C 13.515625 -6.175781 13.703125 -6.957031 13.703125 -7.84375 C 13.703125 -8.71875 13.515625 -9.492188 13.140625 -10.171875 C 12.765625 -10.847656 12.253906 -11.375 11.609375 -11.75 C 10.972656 -12.125 10.257812 -12.3125 9.46875 -12.3125 C 8.675781 -12.3125 7.957031 -12.125 7.3125 -11.75 C 6.675781 -11.375 6.171875 -10.847656 5.796875 -10.171875 C 5.421875 -9.492188 5.234375 -8.71875 5.234375 -7.84375 C 5.234375 -6.957031 5.421875 -6.175781 5.796875 -5.5 C 6.171875 -4.820312 6.675781 -4.296875 7.3125 -3.921875 C 7.957031 -3.546875 8.675781 -3.359375 9.46875 -3.359375 Z M 9.46875 -3.359375 "/></g></g></g><g fill="#85754e" fill-opacity="1"><g transform="translate(117.162486, 133.205276)"><g><path d="M 7.078125 0.3125 C 5.804688 0.3125 4.570312 0.15625 3.375 -0.15625 C 2.1875 -0.46875 1.21875 -0.882812 0.46875 -1.40625 L 1.921875 -4.671875 C 2.628906 -4.210938 3.441406 -3.84375 4.359375 -3.5625 C 5.285156 -3.28125 6.195312 -3.140625 7.09375 -3.140625 C 8.800781 -3.140625 9.65625 -3.5625 9.65625 -4.40625 C 9.65625 -4.851562 9.410156 -5.1875 8.921875 -5.40625 C 8.429688 -5.625 7.648438 -5.851562 6.578125 -6.09375 C 5.398438 -6.34375 4.414062 -6.613281 3.625 -6.90625 C 2.832031 -7.195312 2.148438 -7.660156 1.578125 -8.296875 C 1.015625 -8.941406 0.734375 -9.8125 0.734375 -10.90625 C 0.734375 -11.863281 0.992188 -12.722656 1.515625 -13.484375 C 2.046875 -14.253906 2.828125 -14.863281 3.859375 -15.3125 C 4.898438 -15.757812 6.175781 -15.984375 7.6875 -15.984375 C 8.707031 -15.984375 9.71875 -15.867188 10.71875 -15.640625 C 11.71875 -15.410156 12.601562 -15.070312 13.375 -14.625 L 12 -11.328125 C 10.507812 -12.128906 9.0625 -12.53125 7.65625 -12.53125 C 6.78125 -12.53125 6.140625 -12.398438 5.734375 -12.140625 C 5.328125 -11.878906 5.125 -11.539062 5.125 -11.125 C 5.125 -10.707031 5.363281 -10.394531 5.84375 -10.1875 C 6.320312 -9.976562 7.09375 -9.757812 8.15625 -9.53125 C 9.34375 -9.28125 10.328125 -9.007812 11.109375 -8.71875 C 11.898438 -8.425781 12.582031 -7.960938 13.15625 -7.328125 C 13.726562 -6.691406 14.015625 -5.832031 14.015625 -4.75 C 14.015625 -3.8125 13.753906 -2.957031 13.234375 -2.1875 C 12.710938 -1.425781 11.925781 -0.816406 10.875 -0.359375 C 9.832031 0.0859375 8.566406 0.3125 7.078125 0.3125 Z M 7.078125 0.3125 "/></g></g></g></svg>