<svg xmlns="http://www.w3.org/2000/svg" xmlns:xlink="http://www.w3.org/1999/xlink" width="250" zoomAndPan="magnify" viewBox="0 0 187.5 187.499992" height="250" preserveAspectRatio="xMidYMid meet" version="1.0"><defs><g/><clipPath id="f5b1540d41"><path d="M 41.121094 0 L 139.226562 0 L 139.226562 137.25 L 41.121094 137.25 Z M 41.121094 0 " clip-rule="nonzero"/></clipPath></defs><g clip-path="url(#f5b1540d41)"><path fill="#292827" d="M 53.535156 39.617188 C 55.433594 51.359375 56.980469 63.175781 58.25 75.003906 C 57.714844 75.199219 57.238281 75.632812 56.972656 76.316406 C 53.433594 85.429688 49.898438 94.542969 46.359375 103.65625 C 46.117188 104.285156 45.875 104.914062 45.628906 105.542969 C 46.003906 99.324219 46.554688 93.113281 47.179688 86.910156 C 48.78125 71.082031 50.988281 55.320312 53.535156 39.617188 Z M 54.886719 22.320312 C 54.757812 24.746094 51.277344 24.746094 51.148438 22.320312 C 51.019531 19.894531 54.757812 19.910156 54.886719 22.320312 Z M 58.910156 118.636719 C 54.152344 118.417969 51.117188 122.984375 50.667969 127.207031 C 50.460938 129.175781 50.582031 131.226562 50.628906 133.230469 C 48.84375 133.230469 47.054688 133.230469 45.269531 133.230469 C 45.269531 128.921875 45.269531 124.609375 45.269531 120.300781 C 45.269531 119.390625 45.269531 118.480469 45.269531 117.566406 C 45.269531 117.546875 45.269531 117.535156 45.269531 117.515625 C 45.28125 117.488281 45.292969 117.460938 45.308594 117.417969 C 45.839844 116.054688 46.367188 114.6875 46.898438 113.320312 C 50.902344 103.003906 54.90625 92.691406 58.90625 82.375 C 63.453125 94.089844 68 105.804688 72.546875 117.523438 C 72.546875 117.648438 72.546875 117.777344 72.546875 117.902344 C 72.449219 119.367188 72.546875 120.855469 72.546875 122.335938 C 72.546875 125.96875 72.546875 129.597656 72.546875 133.230469 C 70.753906 133.230469 68.960938 133.230469 67.167969 133.230469 C 67.167969 131.417969 67.167969 129.605469 67.167969 127.792969 C 67.167969 123.019531 63.742188 118.859375 58.910156 118.636719 Z M 58.910156 122.667969 C 63.796875 122.441406 63.332031 129.382812 63.183594 133.230469 C 60.332031 133.230469 57.484375 133.230469 54.636719 133.230469 C 54.484375 129.273438 53.964844 122.894531 58.910156 122.667969 Z M 90.367188 122.667969 C 95.253906 122.441406 94.792969 129.382812 94.640625 133.230469 C 91.792969 133.230469 88.945312 133.230469 86.09375 133.230469 C 85.941406 129.273438 85.421875 122.894531 90.367188 122.667969 Z M 86.855469 80.3125 C 87.972656 76.289062 89.089844 72.265625 90.203125 68.242188 C 92.21875 75.515625 94.234375 82.785156 96.25 90.054688 C 96.265625 90.363281 96.34375 90.628906 96.46875 90.851562 C 96.746094 91.839844 97.019531 92.832031 97.292969 93.820312 C 97.988281 96.324219 101.863281 95.257812 101.164062 92.75 C 100.871094 91.6875 100.578125 90.625 100.28125 89.5625 C 101.753906 67.890625 103.980469 46.21875 106.878906 24.675781 C 110.300781 46.097656 113.011719 67.640625 114.351562 89.304688 C 114.359375 89.417969 114.375 89.523438 114.398438 89.625 C 112.582031 94.300781 110.765625 98.980469 108.953125 103.65625 C 108.023438 106.042969 107.097656 108.429688 106.171875 110.8125 C 105.078125 106.859375 103.980469 102.910156 102.886719 98.957031 C 102.191406 96.453125 98.316406 97.519531 99.011719 100.027344 C 100.625 105.84375 102.238281 111.660156 103.851562 117.472656 C 103.703125 116.957031 103.820312 117.398438 103.839844 117.765625 C 103.832031 118.136719 103.84375 118.511719 103.84375 118.902344 C 103.84375 119.265625 103.84375 119.632812 103.84375 119.996094 C 103.84375 122.066406 103.84375 124.136719 103.84375 126.207031 C 103.84375 126.738281 103.84375 127.265625 103.84375 127.796875 C 103.84375 129.605469 103.84375 131.417969 103.84375 133.230469 C 102.105469 133.230469 100.363281 133.230469 98.625 133.230469 C 98.625 131.417969 98.625 129.605469 98.625 127.792969 C 98.625 123.019531 95.203125 118.859375 90.367188 118.636719 C 85.609375 118.417969 82.578125 122.984375 82.128906 127.207031 C 81.917969 129.175781 82.042969 131.226562 82.089844 133.230469 C 80.246094 133.230469 78.40625 133.230469 76.5625 133.230469 C 76.5625 128.921875 76.5625 124.609375 76.5625 120.300781 C 76.5625 119.480469 76.5625 118.660156 76.5625 117.839844 C 76.625 117.648438 76.648438 117.441406 76.628906 117.214844 C 76.90625 116.214844 77.183594 115.214844 77.457031 114.21875 C 80.59375 102.914062 83.726562 91.613281 86.855469 80.3125 Z M 109.078125 5.914062 C 108.949219 8.339844 105.46875 8.339844 105.339844 5.914062 C 105.210938 3.488281 108.949219 3.503906 109.078125 5.914062 Z M 128.851562 22.320312 C 128.722656 24.746094 125.242188 24.746094 125.113281 22.320312 C 124.980469 19.894531 128.722656 19.910156 128.851562 22.320312 Z M 121.5 122.667969 C 126.386719 122.441406 125.925781 129.382812 125.773438 133.230469 C 122.921875 133.230469 120.074219 133.230469 117.226562 133.230469 C 117.074219 129.273438 116.554688 122.894531 121.5 122.667969 Z M 135.140625 117.523438 C 135.140625 122.757812 135.140625 127.996094 135.140625 133.230469 C 133.34375 133.230469 131.550781 133.230469 129.757812 133.230469 C 129.757812 131.417969 129.757812 129.605469 129.757812 127.792969 C 129.757812 123.019531 126.335938 118.859375 121.5 118.636719 C 116.742188 118.417969 113.710938 122.984375 113.257812 127.207031 C 113.050781 129.175781 113.171875 131.226562 113.222656 133.230469 C 111.433594 133.230469 109.648438 133.230469 107.859375 133.230469 C 107.859375 130.890625 107.859375 128.550781 107.859375 126.207031 C 107.859375 124.238281 107.859375 122.269531 107.859375 120.300781 C 107.859375 120.199219 107.859375 120.097656 107.859375 119.996094 C 107.859375 119.203125 107.980469 118.25 107.910156 117.386719 C 108.4375 116.03125 108.960938 114.675781 109.488281 113.320312 C 113.492188 103.003906 117.496094 92.691406 121.496094 82.375 C 126.046875 94.089844 130.589844 105.804688 135.140625 117.523438 Z M 75.121094 5.914062 C 74.992188 8.339844 71.511719 8.339844 71.382812 5.914062 C 71.253906 3.488281 74.992188 3.503906 75.121094 5.914062 Z M 139.140625 116.808594 C 138.546875 99 136.773438 81.246094 134.460938 63.582031 C 134.128906 61.042969 130.109375 61.011719 130.445312 63.582031 C 132.246094 77.335938 133.71875 91.144531 134.5625 104.988281 C 130.851562 95.429688 127.144531 85.875 123.433594 76.316406 C 123.179688 75.65625 122.726562 75.230469 122.214844 75.027344 C 123.480469 63.210938 125.03125 51.40625 126.925781 39.671875 C 127.9375 45.980469 128.898438 52.296875 129.777344 58.628906 C 130.132812 61.195312 134 60.097656 133.648438 57.554688 C 132.269531 47.648438 130.71875 37.765625 129.027344 27.90625 C 131.019531 27.152344 132.421875 25.179688 132.78125 23.050781 C 132.847656 22.835938 132.882812 22.59375 132.867188 22.320312 C 132.882812 22.066406 132.851562 21.835938 132.792969 21.632812 C 132.34375 18.660156 130.070312 16.578125 126.980469 16.410156 C 123.664062 16.234375 121.261719 19.253906 121.097656 22.320312 C 120.960938 24.878906 122.703125 26.890625 124.902344 27.765625 C 121.78125 45.003906 119.460938 62.433594 117.699219 79.867188 C 115.878906 57 112.648438 34.257812 108.773438 11.65625 C 111.019531 11.058594 112.621094 8.941406 113.007812 6.644531 C 113.074219 6.429688 113.109375 6.1875 113.09375 5.914062 C 113.109375 5.660156 113.082031 5.429688 113.023438 5.226562 C 112.570312 2.253906 110.300781 0.171875 107.210938 0.0078125 C 103.894531 -0.171875 101.488281 2.847656 101.324219 5.914062 C 101.195312 8.324219 102.734375 10.246094 104.753906 11.195312 C 101.492188 33.394531 98.90625 55.753906 97.113281 78.136719 C 95.457031 72.152344 93.796875 66.167969 92.140625 60.1875 C 91.605469 58.261719 88.800781 58.261719 88.265625 60.1875 C 86.625 66.101562 84.988281 72.015625 83.347656 77.929688 C 82.625 69.175781 81.773438 60.429688 80.824219 51.695312 C 80.542969 49.140625 76.523438 49.113281 76.808594 51.695312 C 78.164062 64.179688 79.335938 76.6875 80.1875 89.21875 C 80.1875 89.246094 80.191406 89.273438 80.195312 89.304688 C 78.207031 96.472656 76.21875 103.644531 74.234375 110.8125 C 71.550781 103.902344 68.867188 96.992188 66.1875 90.082031 C 66.1875 90.066406 66.191406 90.054688 66.191406 90.042969 C 67.589844 68.199219 70.175781 46.445312 73.574219 24.828125 C 73.910156 27.40625 74.242188 29.980469 74.5625 32.558594 C 74.882812 35.101562 78.902344 35.132812 78.578125 32.558594 C 77.691406 25.472656 76.773438 18.382812 75.726562 11.316406 C 77.492188 10.457031 78.71875 8.617188 79.050781 6.644531 C 79.121094 6.429688 79.152344 6.1875 79.136719 5.914062 C 79.152344 5.660156 79.125 5.429688 79.066406 5.226562 C 78.617188 2.253906 76.34375 0.171875 73.253906 0.0078125 C 69.9375 -0.171875 67.53125 2.847656 67.367188 5.914062 C 67.21875 8.675781 69.261719 10.804688 71.707031 11.542969 C 67.785156 34.445312 64.679688 57.511719 62.847656 80.679688 C 61.078125 62.953125 58.742188 45.222656 55.546875 27.695312 C 57.285156 26.824219 58.488281 25 58.816406 23.050781 C 58.886719 22.835938 58.917969 22.59375 58.902344 22.320312 C 58.917969 22.066406 58.890625 21.835938 58.832031 21.632812 C 58.382812 18.660156 56.109375 16.582031 53.019531 16.410156 C 49.699219 16.234375 47.296875 19.253906 47.132812 22.320312 C 46.984375 25.066406 49.003906 27.183594 51.429688 27.9375 C 48.105469 47.335938 45.226562 66.824219 43.21875 86.40625 C 42.046875 97.789062 41.121094 109.203125 41.121094 120.652344 C 41.121094 120.929688 41.171875 121.179688 41.25 121.398438 C 41.25 123.53125 41.25 125.664062 41.25 127.796875 C 41.25 130.28125 41.25 132.761719 41.25 135.246094 C 41.25 136.34375 42.167969 137.261719 43.257812 137.261719 C 53.691406 137.261719 64.125 137.261719 74.554688 137.261719 C 84.988281 137.261719 95.417969 137.261719 105.851562 137.261719 C 116.28125 137.261719 126.714844 137.261719 137.148438 137.261719 C 138.238281 137.261719 139.15625 136.34375 139.15625 135.246094 C 139.15625 129.445312 139.15625 123.644531 139.15625 117.839844 C 139.25 117.542969 139.257812 117.195312 139.140625 116.808594 " fill-opacity="1" fill-rule="nonzero"/></g><path fill="#292827" d="M 77.386719 37.195312 C 76.390625 37.195312 75.246094 38.117188 75.378906 39.214844 C 75.625 41.285156 75.867188 43.359375 76.105469 45.433594 C 76.230469 46.523438 76.925781 47.449219 78.113281 47.449219 C 79.113281 47.449219 80.246094 46.527344 80.121094 45.433594 C 79.882812 43.359375 79.640625 41.285156 79.394531 39.214844 C 79.261719 38.121094 78.578125 37.195312 77.386719 37.195312 " fill-opacity="1" fill-rule="nonzero"/><g fill="#545454" fill-opacity="1"><g transform="translate(13.14844, 170.890119)"><g><path d="M 0.515625 -2.203125 L 4.296875 -2.203125 L 4.296875 -21 L 0.515625 -21 L 0.515625 -23.203125 L 10.609375 -23.203125 C 11.984375 -23.203125 13.34375 -23.070312 14.6875 -22.8125 C 16.101562 -22.53125 17.328125 -21.972656 18.359375 -21.140625 C 18.867188 -20.722656 19.257812 -20.195312 19.53125 -19.5625 C 19.8125 -18.9375 19.953125 -18.238281 19.953125 -17.46875 C 19.953125 -16.175781 19.597656 -15.125 18.890625 -14.3125 C 18.179688 -13.5 17.117188 -12.882812 15.703125 -12.46875 C 17.484375 -12.03125 18.84375 -11.300781 19.78125 -10.28125 C 20.71875 -9.257812 21.1875 -7.953125 21.1875 -6.359375 C 21.1875 -5.554688 21.066406 -4.816406 20.828125 -4.140625 C 20.585938 -3.472656 20.257812 -2.914062 19.84375 -2.46875 C 19.476562 -2.050781 18.992188 -1.675781 18.390625 -1.34375 C 17.796875 -1.019531 17.191406 -0.769531 16.578125 -0.59375 C 16.046875 -0.445312 15.398438 -0.320312 14.640625 -0.21875 C 13.890625 -0.125 13.210938 -0.0625 12.609375 -0.03125 C 11.890625 -0.0078125 11.265625 0 10.734375 0 L 0.515625 0 Z M 11.265625 -13.296875 C 12.628906 -13.296875 13.832031 -13.566406 14.875 -14.109375 C 15.414062 -14.390625 15.835938 -14.773438 16.140625 -15.265625 C 16.453125 -15.753906 16.609375 -16.316406 16.609375 -16.953125 C 16.609375 -17.929688 16.390625 -18.726562 15.953125 -19.34375 C 15.597656 -19.84375 14.960938 -20.242188 14.046875 -20.546875 C 13.421875 -20.742188 12.425781 -20.882812 11.0625 -20.96875 C 10.351562 -20.988281 9.71875 -21 9.15625 -21 L 7.921875 -21 L 7.921875 -13.296875 Z M 9.765625 -2.203125 C 11.109375 -2.203125 12.238281 -2.25 13.15625 -2.34375 C 13.65625 -2.394531 14.09375 -2.46875 14.46875 -2.5625 C 14.84375 -2.65625 15.21875 -2.773438 15.59375 -2.921875 C 15.925781 -3.054688 16.207031 -3.226562 16.4375 -3.4375 C 16.664062 -3.644531 16.875 -3.898438 17.0625 -4.203125 C 17.394531 -4.734375 17.5625 -5.488281 17.5625 -6.46875 C 17.5625 -7.25 17.382812 -7.953125 17.03125 -8.578125 C 16.6875 -9.203125 16.207031 -9.707031 15.59375 -10.09375 C 14.976562 -10.46875 14.300781 -10.75 13.5625 -10.9375 C 12.832031 -11.132812 12.066406 -11.234375 11.265625 -11.234375 L 7.921875 -11.234375 L 7.921875 -2.203125 Z M 9.765625 -2.203125 "/></g></g></g><g fill="#545454" fill-opacity="1"><g transform="translate(35.423389, 170.890119)"><g><path d="M 5.484375 0.421875 C 4.640625 0.421875 3.894531 0.269531 3.25 -0.03125 C 2.601562 -0.34375 2.097656 -0.785156 1.734375 -1.359375 C 1.378906 -1.929688 1.203125 -2.601562 1.203125 -3.375 C 1.203125 -3.976562 1.335938 -4.535156 1.609375 -5.046875 C 1.878906 -5.554688 2.253906 -5.988281 2.734375 -6.34375 C 3.179688 -6.675781 3.695312 -6.992188 4.28125 -7.296875 C 4.863281 -7.609375 5.457031 -7.878906 6.0625 -8.109375 C 7.289062 -8.546875 8.398438 -9.054688 9.390625 -9.640625 C 9.859375 -9.910156 10.226562 -10.238281 10.5 -10.625 C 10.769531 -11.019531 10.90625 -11.445312 10.90625 -11.90625 C 10.90625 -13.050781 10.617188 -13.914062 10.046875 -14.5 C 9.484375 -15.082031 8.671875 -15.375 7.609375 -15.375 C 6.867188 -15.375 6.171875 -15.253906 5.515625 -15.015625 C 4.867188 -14.785156 4.367188 -14.472656 4.015625 -14.078125 C 4.648438 -14.078125 5.164062 -13.90625 5.5625 -13.5625 C 5.957031 -13.21875 6.15625 -12.789062 6.15625 -12.28125 C 6.15625 -11.863281 6.054688 -11.488281 5.859375 -11.15625 C 5.671875 -10.820312 5.410156 -10.5625 5.078125 -10.375 C 4.753906 -10.1875 4.398438 -10.09375 4.015625 -10.09375 C 3.367188 -10.09375 2.828125 -10.3125 2.390625 -10.75 C 1.960938 -11.195312 1.75 -11.8125 1.75 -12.59375 C 1.75 -13.019531 1.882812 -13.472656 2.15625 -13.953125 C 2.4375 -14.441406 2.828125 -14.921875 3.328125 -15.390625 C 3.847656 -15.867188 4.546875 -16.253906 5.421875 -16.546875 C 6.304688 -16.835938 7.257812 -16.984375 8.28125 -16.984375 C 9.132812 -16.984375 9.90625 -16.890625 10.59375 -16.703125 C 11.28125 -16.515625 11.898438 -16.210938 12.453125 -15.796875 C 13.023438 -15.378906 13.460938 -14.800781 13.765625 -14.0625 C 14.066406 -13.320312 14.21875 -12.453125 14.21875 -11.453125 L 14.21875 -4.359375 C 14.21875 -3.921875 14.269531 -3.523438 14.375 -3.171875 C 14.488281 -2.816406 14.675781 -2.5 14.9375 -2.21875 C 15.238281 -1.914062 15.601562 -1.765625 16.03125 -1.765625 C 17.34375 -1.765625 18 -2.679688 18 -4.515625 L 18 -6.8125 L 19.671875 -6.8125 L 19.671875 -4.828125 C 19.671875 -3.804688 19.5625 -2.9375 19.34375 -2.21875 C 19.132812 -1.507812 18.820312 -0.96875 18.40625 -0.59375 C 18.007812 -0.238281 17.566406 0.015625 17.078125 0.171875 C 16.597656 0.335938 16.03125 0.421875 15.375 0.421875 C 14.664062 0.421875 14.015625 0.28125 13.421875 0 C 12.828125 -0.28125 12.328125 -0.707031 11.921875 -1.28125 C 11.472656 -1.882812 11.210938 -2.601562 11.140625 -3.4375 C 10.859375 -2.695312 10.425781 -2.035156 9.84375 -1.453125 C 9.257812 -0.867188 8.585938 -0.410156 7.828125 -0.078125 C 7.066406 0.253906 6.285156 0.421875 5.484375 0.421875 Z M 6.296875 -1.796875 C 6.960938 -1.796875 7.660156 -1.992188 8.390625 -2.390625 C 9.117188 -2.796875 9.71875 -3.316406 10.1875 -3.953125 C 10.664062 -4.554688 10.90625 -5.144531 10.90625 -5.71875 L 10.90625 -9 C 10.3125 -8.414062 9.601562 -7.863281 8.78125 -7.34375 C 7.957031 -6.832031 7.203125 -6.425781 6.515625 -6.125 C 5.910156 -5.851562 5.421875 -5.5 5.046875 -5.0625 C 4.671875 -4.625 4.484375 -4.113281 4.484375 -3.53125 C 4.484375 -3.007812 4.640625 -2.585938 4.953125 -2.265625 C 5.265625 -1.953125 5.710938 -1.796875 6.296875 -1.796875 Z M 6.296875 -1.796875 "/></g></g></g><g fill="#545454" fill-opacity="1"><g transform="translate(54.954434, 170.890119)"><g><path d="M 0.75 -1.734375 L 3.765625 -1.734375 L 3.765625 -14.8125 L 0.75 -14.8125 L 0.75 -16.546875 L 6.59375 -16.8125 L 7.015625 -13.203125 C 7.273438 -14.078125 7.742188 -14.898438 8.421875 -15.671875 C 8.773438 -16.078125 9.21875 -16.394531 9.75 -16.625 C 10.28125 -16.863281 10.847656 -16.984375 11.453125 -16.984375 C 12.015625 -16.984375 12.523438 -16.878906 12.984375 -16.671875 C 13.453125 -16.460938 13.820312 -16.15625 14.09375 -15.75 C 14.375 -15.351562 14.515625 -14.882812 14.515625 -14.34375 C 14.515625 -13.820312 14.40625 -13.367188 14.1875 -12.984375 C 13.976562 -12.597656 13.691406 -12.304688 13.328125 -12.109375 C 12.972656 -11.910156 12.582031 -11.8125 12.15625 -11.8125 C 11.539062 -11.8125 11.019531 -12 10.59375 -12.375 C 10.164062 -12.757812 9.953125 -13.253906 9.953125 -13.859375 C 9.953125 -14.054688 10 -14.265625 10.09375 -14.484375 C 10.195312 -14.710938 10.304688 -14.898438 10.421875 -15.046875 L 10.59375 -15.21875 C 9.988281 -15.21875 9.445312 -15.03125 8.96875 -14.65625 C 8.5 -14.28125 8.128906 -13.765625 7.859375 -13.109375 C 7.335938 -11.828125 7.078125 -10.410156 7.078125 -8.859375 L 7.078125 -1.734375 L 10.546875 -1.734375 L 10.546875 0 L 0.75 0 Z M 0.75 -1.734375 "/></g></g></g><g fill="#545454" fill-opacity="1"><g transform="translate(69.660526, 170.890119)"><g><path d="M 9.125 0.421875 C 8.039062 0.421875 7.003906 0.226562 6.015625 -0.15625 C 5.035156 -0.550781 4.1875 -1.109375 3.46875 -1.828125 C 2.738281 -2.554688 2.164062 -3.453125 1.75 -4.515625 C 1.34375 -5.578125 1.140625 -6.722656 1.140625 -7.953125 C 1.140625 -9.148438 1.316406 -10.28125 1.671875 -11.34375 C 2.035156 -12.414062 2.554688 -13.378906 3.234375 -14.234375 C 3.921875 -15.097656 4.804688 -15.769531 5.890625 -16.25 C 6.984375 -16.738281 8.1875 -16.984375 9.5 -16.984375 C 10.25 -16.984375 11 -16.875 11.75 -16.65625 C 12.507812 -16.4375 13.207031 -16.117188 13.84375 -15.703125 C 14.507812 -15.253906 15.039062 -14.671875 15.4375 -13.953125 C 15.832031 -13.242188 16.03125 -12.457031 16.03125 -11.59375 C 16.03125 -11.175781 15.929688 -10.773438 15.734375 -10.390625 C 15.546875 -10.003906 15.265625 -9.691406 14.890625 -9.453125 C 14.523438 -9.210938 14.097656 -9.09375 13.609375 -9.09375 C 12.929688 -9.09375 12.363281 -9.289062 11.90625 -9.6875 C 11.457031 -10.09375 11.234375 -10.617188 11.234375 -11.265625 C 11.234375 -11.921875 11.460938 -12.4375 11.921875 -12.8125 C 12.378906 -13.195312 12.941406 -13.390625 13.609375 -13.390625 C 13.265625 -13.953125 12.773438 -14.398438 12.140625 -14.734375 C 11.515625 -15.078125 10.8125 -15.25 10.03125 -15.25 C 9.164062 -15.25 8.375 -15.054688 7.65625 -14.671875 C 6.9375 -14.285156 6.363281 -13.757812 5.9375 -13.09375 C 5.507812 -12.445312 5.1875 -11.722656 4.96875 -10.921875 C 4.75 -10.128906 4.640625 -9.3125 4.640625 -8.46875 C 4.640625 -7.144531 4.84375 -6.003906 5.25 -5.046875 C 5.664062 -4.097656 6.257812 -3.363281 7.03125 -2.84375 C 7.8125 -2.332031 8.742188 -2.078125 9.828125 -2.078125 C 10.429688 -2.078125 11.019531 -2.203125 11.59375 -2.453125 C 12.175781 -2.710938 12.679688 -3.046875 13.109375 -3.453125 C 13.492188 -3.847656 13.820312 -4.242188 14.09375 -4.640625 C 14.363281 -5.035156 14.546875 -5.394531 14.640625 -5.71875 L 16.390625 -5.15625 C 16.117188 -4.019531 15.65625 -3.035156 15 -2.203125 C 14.34375 -1.367188 13.515625 -0.722656 12.515625 -0.265625 C 11.523438 0.191406 10.394531 0.421875 9.125 0.421875 Z M 9.125 0.421875 "/></g></g></g><g fill="#545454" fill-opacity="1"><g transform="translate(86.894707, 170.890119)"><g><path d="M 9.1875 0.421875 C 7.957031 0.421875 6.820312 0.1875 5.78125 -0.28125 C 4.738281 -0.75 3.878906 -1.394531 3.203125 -2.21875 C 2.535156 -3.019531 2.023438 -3.921875 1.671875 -4.921875 C 1.316406 -5.929688 1.140625 -6.976562 1.140625 -8.0625 C 1.140625 -9 1.25 -9.90625 1.46875 -10.78125 C 1.6875 -11.65625 2.015625 -12.460938 2.453125 -13.203125 C 3.398438 -14.816406 4.664062 -15.921875 6.25 -16.515625 C 7.082031 -16.828125 8 -16.984375 9 -16.984375 C 10.050781 -16.984375 11.03125 -16.796875 11.9375 -16.421875 C 12.84375 -16.054688 13.632812 -15.523438 14.3125 -14.828125 C 15 -14.109375 15.539062 -13.203125 15.9375 -12.109375 C 16.332031 -11.023438 16.539062 -9.820312 16.5625 -8.5 L 4.671875 -8.5 L 4.671875 -8.375 C 4.671875 -6.582031 5.050781 -5.078125 5.8125 -3.859375 C 6.195312 -3.234375 6.707031 -2.75 7.34375 -2.40625 C 7.976562 -2.0625 8.703125 -1.890625 9.515625 -1.890625 C 10.234375 -1.890625 10.925781 -2.039062 11.59375 -2.34375 C 12.269531 -2.65625 12.859375 -3.097656 13.359375 -3.671875 C 13.859375 -4.253906 14.21875 -4.9375 14.4375 -5.71875 L 16.234375 -5.15625 C 15.960938 -4.019531 15.503906 -3.03125 14.859375 -2.1875 C 14.210938 -1.351562 13.40625 -0.707031 12.4375 -0.25 C 11.476562 0.195312 10.394531 0.421875 9.1875 0.421875 Z M 13.171875 -10.15625 C 13.148438 -11.132812 12.957031 -12 12.59375 -12.75 C 12.226562 -13.507812 11.738281 -14.097656 11.125 -14.515625 C 10.507812 -14.941406 9.832031 -15.15625 9.09375 -15.15625 C 8.34375 -15.15625 7.65625 -14.941406 7.03125 -14.515625 C 6.40625 -14.097656 5.894531 -13.507812 5.5 -12.75 C 5.101562 -12 4.863281 -11.132812 4.78125 -10.15625 Z M 13.171875 -10.15625 "/></g></g></g><g fill="#545454" fill-opacity="1"><g transform="translate(104.622175, 170.890119)"><g><path d="M 0.578125 0 L 0.578125 -1.734375 L 4.015625 -1.734375 L 4.015625 -21.3125 L 0.578125 -21.3125 L 0.578125 -23.203125 L 7.328125 -23.203125 L 7.328125 -1.734375 L 10.640625 -1.734375 L 10.640625 0 Z M 0.578125 0 "/></g></g></g><g fill="#545454" fill-opacity="1"><g transform="translate(115.53613, 170.890119)"><g><path d="M 9.21875 0.421875 C 7.601562 0.421875 6.179688 0.0507812 4.953125 -0.6875 C 3.734375 -1.4375 2.789062 -2.46875 2.125 -3.78125 C 1.46875 -5.101562 1.140625 -6.601562 1.140625 -8.28125 C 1.140625 -9.945312 1.453125 -11.429688 2.078125 -12.734375 C 2.710938 -14.035156 3.644531 -15.066406 4.875 -15.828125 C 6.101562 -16.597656 7.539062 -16.984375 9.1875 -16.984375 C 10.40625 -16.984375 11.523438 -16.765625 12.546875 -16.328125 C 13.566406 -15.890625 14.421875 -15.273438 15.109375 -14.484375 C 15.785156 -13.703125 16.300781 -12.773438 16.65625 -11.703125 C 17.019531 -10.640625 17.203125 -9.5 17.203125 -8.28125 C 17.203125 -6.625 16.890625 -5.144531 16.265625 -3.84375 C 15.640625 -2.539062 14.71875 -1.507812 13.5 -0.75 C 12.289062 0.03125 10.863281 0.421875 9.21875 0.421875 Z M 9.21875 -1.546875 C 10.125 -1.546875 10.910156 -1.8125 11.578125 -2.34375 C 12.253906 -2.882812 12.769531 -3.648438 13.125 -4.640625 C 13.488281 -5.628906 13.671875 -6.773438 13.671875 -8.078125 C 13.671875 -9.503906 13.515625 -10.726562 13.203125 -11.75 C 12.898438 -12.78125 12.414062 -13.601562 11.75 -14.21875 C 11.0625 -14.84375 10.207031 -15.15625 9.1875 -15.15625 C 8.1875 -15.15625 7.335938 -14.847656 6.640625 -14.234375 C 5.941406 -13.617188 5.441406 -12.773438 5.140625 -11.703125 C 4.828125 -10.671875 4.671875 -9.460938 4.671875 -8.078125 C 4.671875 -6.773438 4.851562 -5.628906 5.21875 -4.640625 C 5.582031 -3.648438 6.109375 -2.882812 6.796875 -2.34375 C 7.484375 -1.8125 8.289062 -1.546875 9.21875 -1.546875 Z M 9.21875 -1.546875 "/></g></g></g><g fill="#545454" fill-opacity="1"><g transform="translate(133.86479, 170.890119)"><g><path d="M 0.75 -1.734375 L 3.765625 -1.734375 L 3.765625 -14.8125 L 0.75 -14.8125 L 0.75 -16.546875 L 6.59375 -16.8125 L 6.984375 -13.453125 C 7.304688 -14.191406 7.757812 -14.828125 8.34375 -15.359375 C 8.925781 -15.890625 9.578125 -16.289062 10.296875 -16.5625 C 11.015625 -16.84375 11.738281 -16.984375 12.46875 -16.984375 C 12.820312 -16.984375 13.132812 -16.96875 13.40625 -16.9375 C 13.675781 -16.914062 13.976562 -16.851562 14.3125 -16.75 C 14.675781 -16.632812 15 -16.488281 15.28125 -16.3125 C 15.570312 -16.132812 15.863281 -15.898438 16.15625 -15.609375 C 16.46875 -15.285156 16.71875 -14.921875 16.90625 -14.515625 C 17.101562 -14.109375 17.269531 -13.609375 17.40625 -13.015625 C 17.53125 -12.421875 17.59375 -11.75 17.59375 -11 L 17.59375 -1.734375 L 20.75 -1.734375 L 20.75 0 L 11.453125 0 L 11.453125 -1.734375 L 14.28125 -1.734375 L 14.28125 -10.96875 C 14.28125 -12.269531 14.019531 -13.242188 13.5 -13.890625 C 12.988281 -14.546875 12.265625 -14.875 11.328125 -14.875 C 10.753906 -14.875 10.222656 -14.765625 9.734375 -14.546875 C 9.242188 -14.335938 8.835938 -14.039062 8.515625 -13.65625 C 8.191406 -13.289062 7.921875 -12.851562 7.703125 -12.34375 C 7.484375 -11.832031 7.328125 -11.300781 7.234375 -10.75 C 7.128906 -10.226562 7.078125 -9.65625 7.078125 -9.03125 L 7.078125 -1.734375 L 9.890625 -1.734375 L 9.890625 0 L 0.75 0 Z M 0.75 -1.734375 "/></g></g></g><g fill="#545454" fill-opacity="1"><g transform="translate(154.814033, 170.890119)"><g><path d="M 5.484375 0.421875 C 4.640625 0.421875 3.894531 0.269531 3.25 -0.03125 C 2.601562 -0.34375 2.097656 -0.785156 1.734375 -1.359375 C 1.378906 -1.929688 1.203125 -2.601562 1.203125 -3.375 C 1.203125 -3.976562 1.335938 -4.535156 1.609375 -5.046875 C 1.878906 -5.554688 2.253906 -5.988281 2.734375 -6.34375 C 3.179688 -6.675781 3.695312 -6.992188 4.28125 -7.296875 C 4.863281 -7.609375 5.457031 -7.878906 6.0625 -8.109375 C 7.289062 -8.546875 8.398438 -9.054688 9.390625 -9.640625 C 9.859375 -9.910156 10.226562 -10.238281 10.5 -10.625 C 10.769531 -11.019531 10.90625 -11.445312 10.90625 -11.90625 C 10.90625 -13.050781 10.617188 -13.914062 10.046875 -14.5 C 9.484375 -15.082031 8.671875 -15.375 7.609375 -15.375 C 6.867188 -15.375 6.171875 -15.253906 5.515625 -15.015625 C 4.867188 -14.785156 4.367188 -14.472656 4.015625 -14.078125 C 4.648438 -14.078125 5.164062 -13.90625 5.5625 -13.5625 C 5.957031 -13.21875 6.15625 -12.789062 6.15625 -12.28125 C 6.15625 -11.863281 6.054688 -11.488281 5.859375 -11.15625 C 5.671875 -10.820312 5.410156 -10.5625 5.078125 -10.375 C 4.753906 -10.1875 4.398438 -10.09375 4.015625 -10.09375 C 3.367188 -10.09375 2.828125 -10.3125 2.390625 -10.75 C 1.960938 -11.195312 1.75 -11.8125 1.75 -12.59375 C 1.75 -13.019531 1.882812 -13.472656 2.15625 -13.953125 C 2.4375 -14.441406 2.828125 -14.921875 3.328125 -15.390625 C 3.847656 -15.867188 4.546875 -16.253906 5.421875 -16.546875 C 6.304688 -16.835938 7.257812 -16.984375 8.28125 -16.984375 C 9.132812 -16.984375 9.90625 -16.890625 10.59375 -16.703125 C 11.28125 -16.515625 11.898438 -16.210938 12.453125 -15.796875 C 13.023438 -15.378906 13.460938 -14.800781 13.765625 -14.0625 C 14.066406 -13.320312 14.21875 -12.453125 14.21875 -11.453125 L 14.21875 -4.359375 C 14.21875 -3.921875 14.269531 -3.523438 14.375 -3.171875 C 14.488281 -2.816406 14.675781 -2.5 14.9375 -2.21875 C 15.238281 -1.914062 15.601562 -1.765625 16.03125 -1.765625 C 17.34375 -1.765625 18 -2.679688 18 -4.515625 L 18 -6.8125 L 19.671875 -6.8125 L 19.671875 -4.828125 C 19.671875 -3.804688 19.5625 -2.9375 19.34375 -2.21875 C 19.132812 -1.507812 18.820312 -0.96875 18.40625 -0.59375 C 18.007812 -0.238281 17.566406 0.015625 17.078125 0.171875 C 16.597656 0.335938 16.03125 0.421875 15.375 0.421875 C 14.664062 0.421875 14.015625 0.28125 13.421875 0 C 12.828125 -0.28125 12.328125 -0.707031 11.921875 -1.28125 C 11.472656 -1.882812 11.210938 -2.601562 11.140625 -3.4375 C 10.859375 -2.695312 10.425781 -2.035156 9.84375 -1.453125 C 9.257812 -0.867188 8.585938 -0.410156 7.828125 -0.078125 C 7.066406 0.253906 6.285156 0.421875 5.484375 0.421875 Z M 6.296875 -1.796875 C 6.960938 -1.796875 7.660156 -1.992188 8.390625 -2.390625 C 9.117188 -2.796875 9.71875 -3.316406 10.1875 -3.953125 C 10.664062 -4.554688 10.90625 -5.144531 10.90625 -5.71875 L 10.90625 -9 C 10.3125 -8.414062 9.601562 -7.863281 8.78125 -7.34375 C 7.957031 -6.832031 7.203125 -6.425781 6.515625 -6.125 C 5.910156 -5.851562 5.421875 -5.5 5.046875 -5.0625 C 4.671875 -4.625 4.484375 -4.113281 4.484375 -3.53125 C 4.484375 -3.007812 4.640625 -2.585938 4.953125 -2.265625 C 5.265625 -1.953125 5.710938 -1.796875 6.296875 -1.796875 Z M 6.296875 -1.796875 "/></g></g></g></svg>