<svg xmlns="http://www.w3.org/2000/svg" xmlns:xlink="http://www.w3.org/1999/xlink" width="250" zoomAndPan="magnify" viewBox="0 0 187.5 187.499992" height="250" preserveAspectRatio="xMidYMid meet" version="1.0"><defs><clipPath id="e8baf479b6"><path d="M 0 0 L 187 0 L 187 187 L 0 187 Z M 0 0 " clip-rule="nonzero"/></clipPath></defs><g clip-path="url(#e8baf479b6)"><path fill="#3b5998" d="M 28.125 0 L 159.375 0 C 160.296875 0 161.214844 0.046875 162.132812 0.136719 C 163.046875 0.226562 163.957031 0.359375 164.863281 0.539062 C 165.765625 0.71875 166.65625 0.945312 167.539062 1.210938 C 168.421875 1.476562 169.285156 1.789062 170.136719 2.140625 C 170.988281 2.492188 171.820312 2.886719 172.632812 3.320312 C 173.445312 3.753906 174.234375 4.226562 175 4.738281 C 175.765625 5.25 176.503906 5.800781 177.21875 6.382812 C 177.929688 6.96875 178.609375 7.585938 179.261719 8.238281 C 179.914062 8.890625 180.53125 9.570312 181.117188 10.28125 C 181.699219 10.996094 182.25 11.734375 182.761719 12.5 C 183.273438 13.265625 183.746094 14.054688 184.179688 14.867188 C 184.613281 15.679688 185.007812 16.511719 185.359375 17.363281 C 185.710938 18.214844 186.023438 19.078125 186.289062 19.960938 C 186.554688 20.84375 186.78125 21.734375 186.960938 22.636719 C 187.140625 23.542969 187.273438 24.453125 187.363281 25.367188 C 187.453125 26.285156 187.5 27.203125 187.5 28.125 L 187.5 159.375 C 187.5 160.296875 187.453125 161.214844 187.363281 162.132812 C 187.273438 163.046875 187.140625 163.957031 186.960938 164.863281 C 186.78125 165.765625 186.554688 166.65625 186.289062 167.539062 C 186.023438 168.421875 185.710938 169.285156 185.359375 170.136719 C 185.007812 170.988281 184.613281 171.820312 184.179688 172.632812 C 183.746094 173.445312 183.273438 174.234375 182.761719 175 C 182.25 175.765625 181.699219 176.503906 181.117188 177.21875 C 180.53125 177.929688 179.914062 178.609375 179.261719 179.261719 C 178.609375 179.914062 177.929688 180.53125 177.21875 181.117188 C 176.503906 181.699219 175.765625 182.25 175 182.761719 C 174.234375 183.273438 173.445312 183.746094 172.632812 184.179688 C 171.820312 184.613281 170.988281 185.007812 170.136719 185.359375 C 169.285156 185.710938 168.421875 186.023438 167.539062 186.289062 C 166.65625 186.554688 165.765625 186.78125 164.863281 186.960938 C 163.957031 187.140625 163.046875 187.273438 162.132812 187.363281 C 161.214844 187.453125 160.296875 187.5 159.375 187.5 L 28.125 187.5 C 27.203125 187.5 26.285156 187.453125 25.367188 187.363281 C 24.453125 187.273438 23.542969 187.140625 22.636719 186.960938 C 21.734375 186.78125 20.84375 186.554688 19.960938 186.289062 C 19.078125 186.023438 18.214844 185.710938 17.363281 185.359375 C 16.511719 185.007812 15.679688 184.613281 14.867188 184.179688 C 14.054688 183.746094 13.265625 183.273438 12.5 182.761719 C 11.734375 182.25 10.996094 181.699219 10.28125 181.117188 C 9.570312 180.53125 8.890625 179.914062 8.238281 179.261719 C 7.585938 178.609375 6.96875 177.929688 6.382812 177.21875 C 5.800781 176.503906 5.25 175.765625 4.738281 175 C 4.226562 174.234375 3.753906 173.445312 3.320312 172.632812 C 2.886719 171.820312 2.492188 170.988281 2.140625 170.136719 C 1.789062 169.285156 1.476562 168.421875 1.210938 167.539062 C 0.945312 166.65625 0.71875 165.765625 0.539062 164.863281 C 0.359375 163.957031 0.226562 163.046875 0.136719 162.132812 C 0.046875 161.214844 0 160.296875 0 159.375 L 0 28.125 C 0 27.203125 0.046875 26.285156 0.136719 25.367188 C 0.226562 24.453125 0.359375 23.542969 0.539062 22.636719 C 0.71875 21.734375 0.945312 20.84375 1.210938 19.960938 C 1.476562 19.078125 1.789062 18.214844 2.140625 17.363281 C 2.492188 16.511719 2.886719 15.679688 3.320312 14.867188 C 3.753906 14.054688 4.226562 13.265625 4.738281 12.5 C 5.25 11.734375 5.800781 10.996094 6.382812 10.28125 C 6.96875 9.570312 7.585938 8.890625 8.238281 8.238281 C 8.890625 7.585938 9.570312 6.96875 10.28125 6.382812 C 10.996094 5.800781 11.734375 5.25 12.5 4.738281 C 13.265625 4.226562 14.054688 3.753906 14.867188 3.320312 C 15.679688 2.886719 16.511719 2.492188 17.363281 2.140625 C 18.214844 1.789062 19.078125 1.476562 19.960938 1.210938 C 20.84375 0.945312 21.734375 0.71875 22.636719 0.539062 C 23.542969 0.359375 24.453125 0.226562 25.367188 0.136719 C 26.285156 0.046875 27.203125 0 28.125 0 Z M 28.125 0 " fill-opacity="1" fill-rule="nonzero"/></g><path fill="#ffffff" d="M 105.101562 166.992188 L 105.101562 57.496094 C 105.101562 49.804688 107.300781 44.675781 117.917969 44.675781 L 131.835938 44.675781 L 131.835938 21.605469 C 129.273438 21.238281 121.214844 20.507812 111.695312 20.507812 C 91.917969 20.507812 78.367188 32.59375 78.367188 54.929688 L 78.367188 166.992188 M 130.738281 73.972656 L 55.664062 73.972656 L 55.664062 100.339844 L 127.441406 100.339844 " fill-opacity="1" fill-rule="nonzero"/></svg>