<svg xmlns="http://www.w3.org/2000/svg" xmlns:xlink="http://www.w3.org/1999/xlink" width="250" zoomAndPan="magnify" viewBox="0 0 187.5 187.499992" height="250" preserveAspectRatio="xMidYMid meet" version="1.0"><defs><g/><clipPath id="be4682b265"><path d="M 7.71875 7.71875 L 179.46875 7.71875 L 179.46875 179.46875 L 7.71875 179.46875 Z M 7.71875 7.71875 " clip-rule="nonzero"/></clipPath><clipPath id="dffe1edb53"><path d="M 99.125 77.792969 L 115.625 77.792969 L 115.625 93.542969 L 99.125 93.542969 Z M 99.125 77.792969 " clip-rule="nonzero"/></clipPath></defs><g clip-path="url(#be4682b265)"><path fill="#ffca4f" d="M 179.46875 93.59375 C 179.46875 95 179.4375 96.40625 179.367188 97.808594 C 179.296875 99.214844 179.195312 100.613281 179.058594 102.011719 C 178.917969 103.410156 178.746094 104.804688 178.542969 106.195312 C 178.335938 107.585938 178.09375 108.96875 177.820312 110.347656 C 177.546875 111.726562 177.238281 113.097656 176.898438 114.460938 C 176.554688 115.824219 176.179688 117.179688 175.773438 118.523438 C 175.363281 119.867188 174.925781 121.203125 174.449219 122.527344 C 173.976562 123.847656 173.472656 125.160156 172.933594 126.457031 C 172.394531 127.757812 171.828125 129.042969 171.226562 130.3125 C 170.625 131.582031 169.992188 132.835938 169.332031 134.078125 C 168.667969 135.316406 167.976562 136.539062 167.253906 137.746094 C 166.53125 138.949219 165.777344 140.136719 164.996094 141.304688 C 164.21875 142.472656 163.410156 143.621094 162.570312 144.75 C 161.734375 145.878906 160.871094 146.988281 159.976562 148.074219 C 159.085938 149.160156 158.167969 150.222656 157.226562 151.265625 C 156.28125 152.308594 155.3125 153.324219 154.320312 154.320312 C 153.324219 155.3125 152.308594 156.28125 151.265625 157.226562 C 150.222656 158.167969 149.160156 159.085938 148.074219 159.976562 C 146.988281 160.871094 145.878906 161.734375 144.75 162.570312 C 143.621094 163.410156 142.472656 164.21875 141.304688 164.996094 C 140.136719 165.777344 138.949219 166.53125 137.746094 167.253906 C 136.539062 167.976562 135.316406 168.667969 134.078125 169.332031 C 132.835938 169.992188 131.582031 170.625 130.3125 171.226562 C 129.042969 171.828125 127.757812 172.394531 126.457031 172.933594 C 125.160156 173.472656 123.847656 173.976562 122.527344 174.449219 C 121.203125 174.925781 119.867188 175.363281 118.523438 175.773438 C 117.179688 176.179688 115.824219 176.554688 114.460938 176.898438 C 113.097656 177.238281 111.726562 177.546875 110.347656 177.820312 C 108.96875 178.09375 107.585938 178.335938 106.195312 178.542969 C 104.804688 178.746094 103.410156 178.917969 102.011719 179.058594 C 100.613281 179.195312 99.214844 179.296875 97.808594 179.367188 C 96.40625 179.4375 95 179.46875 93.59375 179.46875 C 92.191406 179.46875 90.785156 179.4375 89.382812 179.367188 C 87.976562 179.296875 86.578125 179.195312 85.179688 179.058594 C 83.78125 178.917969 82.386719 178.746094 80.996094 178.542969 C 79.605469 178.335938 78.21875 178.09375 76.84375 177.820312 C 75.464844 177.546875 74.09375 177.238281 72.730469 176.898438 C 71.367188 176.554688 70.011719 176.179688 68.667969 175.773438 C 67.324219 175.363281 65.988281 174.925781 64.664062 174.449219 C 63.34375 173.976562 62.03125 173.472656 60.734375 172.933594 C 59.433594 172.394531 58.148438 171.828125 56.878906 171.226562 C 55.609375 170.625 54.355469 169.992188 53.113281 169.332031 C 51.875 168.667969 50.652344 167.976562 49.445312 167.253906 C 48.242188 166.53125 47.054688 165.777344 45.886719 164.996094 C 44.71875 164.21875 43.570312 163.410156 42.441406 162.570312 C 41.3125 161.734375 40.203125 160.871094 39.117188 159.976562 C 38.03125 159.085938 36.96875 158.167969 35.925781 157.226562 C 34.882812 156.28125 33.867188 155.3125 32.871094 154.320312 C 31.878906 153.324219 30.910156 152.308594 29.964844 151.265625 C 29.023438 150.222656 28.105469 149.160156 27.214844 148.074219 C 26.320312 146.988281 25.457031 145.878906 24.621094 144.75 C 23.78125 143.621094 22.972656 142.472656 22.191406 141.304688 C 21.414062 140.136719 20.660156 138.949219 19.9375 137.746094 C 19.214844 136.539062 18.523438 135.316406 17.859375 134.078125 C 17.199219 132.835938 16.566406 131.582031 15.964844 130.3125 C 15.363281 129.042969 14.796875 127.757812 14.257812 126.457031 C 13.71875 125.160156 13.214844 123.847656 12.742188 122.527344 C 12.265625 121.203125 11.828125 119.867188 11.417969 118.523438 C 11.011719 117.179688 10.636719 115.824219 10.292969 114.460938 C 9.953125 113.097656 9.644531 111.726562 9.371094 110.347656 C 9.097656 108.96875 8.855469 107.585938 8.648438 106.195312 C 8.445312 104.804688 8.273438 103.410156 8.132812 102.011719 C 7.996094 100.613281 7.894531 99.214844 7.824219 97.808594 C 7.753906 96.40625 7.71875 95 7.71875 93.59375 C 7.71875 92.191406 7.753906 90.785156 7.824219 89.382812 C 7.894531 87.976562 7.996094 86.578125 8.132812 85.179688 C 8.273438 83.78125 8.445312 82.386719 8.648438 80.996094 C 8.855469 79.605469 9.097656 78.21875 9.371094 76.84375 C 9.644531 75.464844 9.953125 74.09375 10.292969 72.730469 C 10.636719 71.367188 11.011719 70.011719 11.417969 68.667969 C 11.828125 67.324219 12.265625 65.988281 12.742188 64.664062 C 13.214844 63.34375 13.71875 62.03125 14.257812 60.734375 C 14.796875 59.433594 15.363281 58.148438 15.964844 56.878906 C 16.566406 55.609375 17.199219 54.355469 17.859375 53.113281 C 18.523438 51.875 19.214844 50.652344 19.9375 49.445312 C 20.660156 48.242188 21.414062 47.054688 22.191406 45.886719 C 22.972656 44.71875 23.78125 43.570312 24.621094 42.441406 C 25.457031 41.3125 26.320312 40.203125 27.214844 39.117188 C 28.105469 38.03125 29.023438 36.96875 29.964844 35.925781 C 30.910156 34.882812 31.878906 33.867188 32.871094 32.871094 C 33.867188 31.878906 34.882812 30.910156 35.925781 29.964844 C 36.96875 29.023438 38.03125 28.105469 39.117188 27.214844 C 40.203125 26.320312 41.3125 25.457031 42.441406 24.621094 C 43.570312 23.78125 44.71875 22.972656 45.886719 22.191406 C 47.054688 21.414062 48.242188 20.660156 49.445312 19.9375 C 50.652344 19.214844 51.875 18.523438 53.113281 17.859375 C 54.355469 17.199219 55.609375 16.566406 56.878906 15.964844 C 58.148438 15.363281 59.433594 14.796875 60.734375 14.257812 C 62.03125 13.71875 63.34375 13.214844 64.664062 12.742188 C 65.988281 12.265625 67.324219 11.828125 68.667969 11.417969 C 70.011719 11.011719 71.367188 10.636719 72.730469 10.292969 C 74.09375 9.953125 75.464844 9.644531 76.84375 9.371094 C 78.21875 9.097656 79.605469 8.855469 80.996094 8.648438 C 82.386719 8.445312 83.78125 8.273438 85.179688 8.132812 C 86.578125 7.996094 87.976562 7.894531 89.382812 7.824219 C 90.785156 7.753906 92.191406 7.71875 93.59375 7.71875 C 95 7.71875 96.40625 7.753906 97.808594 7.824219 C 99.214844 7.894531 100.613281 7.996094 102.011719 8.132812 C 103.410156 8.273438 104.804688 8.445312 106.195312 8.648438 C 107.585938 8.855469 108.96875 9.097656 110.347656 9.371094 C 111.726562 9.644531 113.097656 9.953125 114.460938 10.292969 C 115.824219 10.636719 117.179688 11.011719 118.523438 11.417969 C 119.867188 11.828125 121.203125 12.265625 122.527344 12.742188 C 123.847656 13.214844 125.160156 13.71875 126.457031 14.257812 C 127.757812 14.796875 129.042969 15.363281 130.3125 15.964844 C 131.582031 16.566406 132.835938 17.199219 134.078125 17.859375 C 135.316406 18.523438 136.539062 19.214844 137.746094 19.9375 C 138.949219 20.660156 140.136719 21.414062 141.304688 22.191406 C 142.472656 22.972656 143.621094 23.78125 144.75 24.621094 C 145.878906 25.457031 146.988281 26.320312 148.074219 27.214844 C 149.160156 28.105469 150.222656 29.023438 151.265625 29.964844 C 152.308594 30.910156 153.324219 31.878906 154.320312 32.871094 C 155.3125 33.867188 156.28125 34.882812 157.226562 35.925781 C 158.167969 36.96875 159.085938 38.03125 159.976562 39.117188 C 160.871094 40.203125 161.734375 41.3125 162.570312 42.441406 C 163.410156 43.570312 164.21875 44.71875 164.996094 45.886719 C 165.777344 47.054688 166.53125 48.242188 167.253906 49.445312 C 167.976562 50.652344 168.667969 51.875 169.332031 53.113281 C 169.992188 54.355469 170.625 55.609375 171.226562 56.878906 C 171.828125 58.148438 172.394531 59.433594 172.933594 60.734375 C 173.472656 62.03125 173.976562 63.34375 174.449219 64.664062 C 174.925781 65.988281 175.363281 67.324219 175.773438 68.667969 C 176.179688 70.011719 176.554688 71.367188 176.898438 72.730469 C 177.238281 74.09375 177.546875 75.464844 177.820312 76.84375 C 178.09375 78.21875 178.335938 79.605469 178.542969 80.996094 C 178.746094 82.386719 178.917969 83.78125 179.058594 85.179688 C 179.195312 86.578125 179.296875 87.976562 179.367188 89.382812 C 179.4375 90.785156 179.46875 92.191406 179.46875 93.59375 Z M 179.46875 93.59375 " fill-opacity="1" fill-rule="nonzero"/></g><path fill="#294ac8" d="M 156.539062 70.730469 L 151.839844 66.03125 L 150.921875 65.117188 C 147.9375 66.246094 144.207031 71.136719 142.730469 74.222656 L 147.429688 78.921875 C 150.515625 77.445312 155.40625 73.714844 156.539062 70.730469 Z M 156.539062 70.730469 " fill-opacity="1" fill-rule="evenodd"/><path fill="#fcb42a" d="M 156.539062 70.730469 L 155.621094 69.816406 L 151.839844 66.03125 L 150.921875 65.117188 C 150.234375 65.378906 149.503906 65.839844 148.773438 66.433594 L 155.222656 72.878906 C 155.8125 72.148438 156.277344 71.421875 156.539062 70.730469 Z M 156.539062 70.730469 " fill-opacity="1" fill-rule="evenodd"/><path fill="#294ac8" d="M 162.867188 88.710938 L 158.167969 84.011719 L 157.253906 83.09375 C 154.269531 84.226562 150.535156 89.117188 149.0625 92.199219 L 149.519531 92.660156 L 153.757812 96.898438 C 156.84375 95.425781 161.734375 91.691406 162.867188 88.710938 Z M 162.867188 88.710938 " fill-opacity="1" fill-rule="evenodd"/><path fill="#fcb42a" d="M 162.867188 88.710938 L 158.167969 84.011719 L 157.253906 83.09375 C 156.5625 83.355469 155.835938 83.816406 155.105469 84.410156 L 161.550781 90.859375 C 162.144531 90.125 162.605469 89.398438 162.867188 88.710938 Z M 162.867188 88.710938 " fill-opacity="1" fill-rule="evenodd"/><path fill="#294ac8" d="M 111.253906 25.449219 L 112.171875 26.363281 L 116.871094 31.0625 C 115.738281 34.046875 110.847656 37.78125 107.761719 39.253906 L 103.0625 34.554688 C 104.539062 31.472656 108.269531 26.578125 111.253906 25.449219 Z M 111.253906 25.449219 " fill-opacity="1" fill-rule="evenodd"/><path fill="#fcb42a" d="M 111.253906 25.449219 L 112.171875 26.363281 L 116.871094 31.0625 C 116.609375 31.75 116.148438 32.480469 115.550781 33.210938 L 109.105469 26.765625 C 109.835938 26.171875 110.566406 25.710938 111.253906 25.449219 Z M 111.253906 25.449219 " fill-opacity="1" fill-rule="evenodd"/><path fill="#294ac8" d="M 93.277344 19.117188 L 97.976562 23.816406 L 98.890625 24.734375 C 97.757812 27.714844 92.867188 31.449219 89.78125 32.921875 L 85.085938 28.226562 C 86.558594 25.140625 90.292969 20.25 93.277344 19.117188 Z M 93.277344 19.117188 " fill-opacity="1" fill-rule="evenodd"/><path fill="#fcb42a" d="M 93.277344 19.117188 L 97.976562 23.816406 L 98.890625 24.734375 C 98.628906 25.421875 98.167969 26.148438 97.574219 26.882812 L 91.128906 20.433594 C 91.859375 19.839844 92.585938 19.378906 93.277344 19.117188 Z M 93.277344 19.117188 " fill-opacity="1" fill-rule="evenodd"/><path fill="#5372e6" d="M 77.042969 104.945312 C 77.042969 104.945312 77.128906 105.925781 79.847656 104.347656 L 90.9375 120.117188 L 94.476562 115.84375 L 88.199219 99.257812 C 88.988281 98.578125 87.507812 99.925781 90.746094 97.007812 C 93.988281 94.09375 108.222656 81.007812 121.117188 70.527344 L 158.253906 123.019531 L 161.640625 119.632812 L 141.113281 54.203125 C 149.503906 47.285156 155.996094 41.769531 157.742188 39.769531 C 163.089844 33.660156 167.925781 25.515625 164.109375 17.875 C 156.46875 14.058594 148.324219 18.894531 142.214844 24.242188 C 140.214844 25.992188 134.699219 32.484375 127.78125 40.871094 L 62.351562 20.347656 L 58.964844 23.734375 L 111.460938 60.867188 C 100.980469 73.761719 87.890625 88 84.976562 91.238281 C 82.058594 94.476562 83.40625 92.996094 82.726562 93.785156 L 66.144531 87.507812 L 61.867188 91.046875 L 77.636719 102.136719 C 76.0625 104.851562 77.042969 104.945312 77.042969 104.945312 Z M 77.042969 104.945312 " fill-opacity="1" fill-rule="evenodd"/><path fill="#294ac8" d="M 79.847656 104.347656 L 90.9375 120.117188 L 91.792969 119.085938 L 81.039062 103.523438 Z M 79.847656 104.347656 " fill-opacity="1" fill-rule="evenodd"/><path fill="#294ac8" d="M 62.898438 90.195312 L 61.867188 91.046875 L 77.636719 102.136719 L 78.460938 100.949219 Z M 62.898438 90.195312 " fill-opacity="1" fill-rule="evenodd"/><path fill="#294ac8" d="M 121.117188 70.527344 L 158.253906 123.019531 L 159.558594 121.714844 L 123.308594 68.734375 Z M 121.117188 70.527344 " fill-opacity="1" fill-rule="evenodd"/><path fill="#294ac8" d="M 60.273438 22.425781 L 58.964844 23.734375 L 111.460938 60.867188 L 113.25 58.675781 Z M 60.273438 22.425781 " fill-opacity="1" fill-rule="evenodd"/><path fill="#ffffff" d="M 160.917969 21.066406 C 160.164062 20.316406 159.257812 19.789062 158.246094 19.472656 L 157.632812 21.179688 C 158.269531 21.5625 158.867188 22.027344 159.414062 22.570312 C 159.960938 23.117188 160.421875 23.714844 160.804688 24.351562 L 162.511719 23.738281 C 162.199219 22.730469 161.667969 21.820312 160.917969 21.066406 Z M 156.878906 19.183594 C 155.324219 18.996094 153.613281 19.238281 151.921875 19.890625 C 153.449219 19.761719 154.980469 19.984375 156.386719 20.558594 Z M 161.425781 25.597656 C 162 27.007812 162.222656 28.539062 162.09375 30.066406 C 162.746094 28.371094 162.992188 26.660156 162.800781 25.105469 Z M 161.425781 25.597656 " fill-opacity="1" fill-rule="evenodd"/><path fill="#ffffff" d="M 79.320312 114.335938 L 46.308594 149.582031 L 81.019531 116.75 Z M 63.722656 100.367188 L 31.34375 134.945312 L 66.050781 102.113281 Z M 63.722656 100.367188 " fill-opacity="1" fill-rule="evenodd"/><path fill="#ffffff" d="M 140.277344 106.53125 L 102.613281 147.125 L 142.347656 109.542969 Z M 70.789062 39.648438 L 33.125 80.238281 L 73.71875 41.84375 Z M 70.789062 39.648438 " fill-opacity="1" fill-rule="evenodd"/><path fill="#ffffff" d="M 83.886719 147.097656 C 89.765625 147.097656 94.605469 151.539062 95.242188 157.246094 C 95.441406 157.21875 95.648438 157.203125 95.855469 157.203125 C 97.679688 157.203125 99.257812 158.234375 100.050781 159.738281 C 100.5 159.460938 101.027344 159.300781 101.59375 159.300781 C 103.203125 159.300781 104.503906 160.601562 104.503906 162.210938 C 104.503906 162.269531 104.503906 162.328125 104.5 162.382812 C 104.457031 163.15625 103.816406 163.757812 103.046875 163.757812 L 63.605469 163.757812 C 62.851562 163.757812 62.226562 163.191406 62.15625 162.441406 C 62.140625 162.277344 62.132812 162.109375 62.132812 161.941406 C 62.132812 159.125 64.414062 156.84375 67.226562 156.84375 C 67.367188 156.84375 67.5 156.847656 67.636719 156.859375 C 68.917969 154.695312 71.210938 153.203125 73.863281 153.035156 C 75.808594 149.496094 79.566406 147.097656 83.886719 147.097656 Z M 117.011719 94.976562 C 121.128906 94.976562 124.515625 98.082031 124.960938 102.078125 C 125.101562 102.058594 125.246094 102.050781 125.390625 102.050781 C 126.664062 102.050781 127.773438 102.769531 128.328125 103.824219 C 128.640625 103.628906 129.007812 103.515625 129.40625 103.515625 C 130.535156 103.515625 131.445312 104.425781 131.445312 105.554688 C 131.445312 105.59375 131.445312 105.632812 131.441406 105.671875 C 131.410156 106.214844 130.964844 106.632812 130.425781 106.632812 L 102.816406 106.632812 C 102.289062 106.632812 101.855469 106.238281 101.804688 105.714844 C 101.792969 105.597656 101.789062 105.480469 101.789062 105.363281 C 101.789062 103.390625 103.382812 101.796875 105.355469 101.796875 C 105.449219 101.796875 105.546875 101.800781 105.640625 101.808594 C 106.539062 100.292969 108.140625 99.25 110 99.128906 C 111.359375 96.65625 113.992188 94.976562 117.011719 94.976562 Z M 32.746094 83.902344 C 38.035156 83.902344 42.394531 87.894531 42.964844 93.03125 C 43.144531 93.007812 43.332031 92.996094 43.519531 92.996094 C 45.160156 92.996094 46.578125 93.921875 47.292969 95.277344 C 47.695312 95.027344 48.171875 94.878906 48.679688 94.878906 C 50.128906 94.878906 51.300781 96.054688 51.300781 97.503906 C 51.300781 97.554688 51.300781 97.605469 51.296875 97.65625 C 51.257812 98.351562 50.683594 98.890625 49.988281 98.890625 L 14.496094 98.890625 C 13.820312 98.890625 13.253906 98.382812 13.191406 97.707031 C 13.175781 97.5625 13.167969 97.410156 13.167969 97.257812 C 13.167969 94.726562 15.222656 92.671875 17.753906 92.671875 C 17.878906 92.671875 18 92.675781 18.121094 92.6875 C 19.277344 90.738281 21.339844 89.398438 23.726562 89.242188 C 25.476562 86.058594 28.859375 83.902344 32.746094 83.902344 Z M 32.746094 83.902344 " fill-opacity="1" fill-rule="evenodd"/><g clip-path="url(#dffe1edb53)"><path fill="#ffffff" d="M 106.675781 93.542969 C 106.613281 86.105469 106.5625 86.054688 99.128906 85.988281 C 106.5625 85.925781 106.613281 85.875 106.675781 78.4375 C 106.738281 85.875 106.789062 85.925781 114.222656 85.988281 C 106.789062 86.054688 106.738281 86.105469 106.675781 93.542969 Z M 107.992188 81.609375 C 111.746094 81.640625 111.773438 81.667969 111.804688 85.425781 C 111.835938 81.667969 111.863281 81.640625 115.617188 81.609375 C 111.863281 81.578125 111.835938 81.550781 111.804688 77.792969 C 111.773438 81.550781 111.746094 81.578125 107.992188 81.609375 Z M 105.636719 89.824219 C 102.886719 89.800781 102.867188 89.78125 102.84375 87.03125 C 102.820312 89.78125 102.800781 89.800781 100.054688 89.824219 C 102.800781 89.847656 102.820312 89.867188 102.84375 92.617188 C 102.867188 89.867188 102.886719 89.847656 105.636719 89.824219 Z M 105.636719 89.824219 " fill-opacity="1" fill-rule="nonzero"/></g><path fill="#ffffff" d="M 109.390625 87.328125 C 109.390625 87.394531 109.496094 87.394531 109.496094 87.328125 C 109.496094 87.257812 109.390625 87.257812 109.390625 87.328125 Z M 109.390625 87.328125 " fill-opacity="1" fill-rule="nonzero"/><g fill="#294ac8" fill-opacity="1"><g transform="translate(54.491325, 158.459201)"><g><path d="M 3.875 -1.3125 L 1.140625 -1.3125 L 0.546875 0 L 0.015625 0 L 2.25 -4.90625 L 2.765625 -4.90625 L 5 0 L 4.453125 0 Z M 3.6875 -1.734375 L 2.5 -4.359375 L 1.328125 -1.734375 Z M 3.6875 -1.734375 "/></g></g></g><g fill="#294ac8" fill-opacity="1"><g transform="translate(59.941528, 158.459201)"><g><path d="M 4.25 -2.453125 L 4.75 -2.453125 L 4.75 -0.578125 C 4.519531 -0.378906 4.25 -0.222656 3.9375 -0.109375 C 3.625 -0.00390625 3.296875 0.046875 2.953125 0.046875 C 2.460938 0.046875 2.019531 -0.0625 1.625 -0.28125 C 1.226562 -0.5 0.914062 -0.796875 0.6875 -1.171875 C 0.46875 -1.554688 0.359375 -1.984375 0.359375 -2.453125 C 0.359375 -2.921875 0.46875 -3.34375 0.6875 -3.71875 C 0.914062 -4.101562 1.226562 -4.398438 1.625 -4.609375 C 2.019531 -4.828125 2.460938 -4.9375 2.953125 -4.9375 C 3.328125 -4.9375 3.671875 -4.875 3.984375 -4.75 C 4.296875 -4.632812 4.5625 -4.460938 4.78125 -4.234375 L 4.453125 -3.90625 C 4.066406 -4.289062 3.570312 -4.484375 2.96875 -4.484375 C 2.570312 -4.484375 2.210938 -4.394531 1.890625 -4.21875 C 1.578125 -4.039062 1.328125 -3.796875 1.140625 -3.484375 C 0.960938 -3.179688 0.875 -2.835938 0.875 -2.453125 C 0.875 -2.066406 0.960938 -1.71875 1.140625 -1.40625 C 1.328125 -1.101562 1.578125 -0.863281 1.890625 -0.6875 C 2.210938 -0.507812 2.570312 -0.421875 2.96875 -0.421875 C 3.46875 -0.421875 3.894531 -0.546875 4.25 -0.796875 Z M 4.25 -2.453125 "/></g></g></g><g fill="#294ac8" fill-opacity="1"><g transform="translate(65.783508, 158.459201)"><g><path d="M 4.265625 -0.453125 L 4.265625 0 L 0.796875 0 L 0.796875 -4.90625 L 4.15625 -4.90625 L 4.15625 -4.453125 L 1.3125 -4.453125 L 1.3125 -2.703125 L 3.84375 -2.703125 L 3.84375 -2.265625 L 1.3125 -2.265625 L 1.3125 -0.453125 Z M 4.265625 -0.453125 "/></g></g></g><g fill="#294ac8" fill-opacity="1"><g transform="translate(70.897896, 158.459201)"><g><path d="M 4.890625 -4.90625 L 4.890625 0 L 4.46875 0 L 1.3125 -3.96875 L 1.3125 0 L 0.796875 0 L 0.796875 -4.90625 L 1.21875 -4.90625 L 4.375 -0.921875 L 4.375 -4.90625 Z M 4.890625 -4.90625 "/></g></g></g><g fill="#294ac8" fill-opacity="1"><g transform="translate(77.019724, 158.459201)"><g><path d="M 2.921875 0.046875 C 2.441406 0.046875 2.003906 -0.0625 1.609375 -0.28125 C 1.222656 -0.5 0.914062 -0.796875 0.6875 -1.171875 C 0.46875 -1.554688 0.359375 -1.984375 0.359375 -2.453125 C 0.359375 -2.921875 0.46875 -3.34375 0.6875 -3.71875 C 0.914062 -4.101562 1.222656 -4.398438 1.609375 -4.609375 C 2.003906 -4.828125 2.445312 -4.9375 2.9375 -4.9375 C 3.300781 -4.9375 3.632812 -4.875 3.9375 -4.75 C 4.25 -4.632812 4.507812 -4.460938 4.71875 -4.234375 L 4.390625 -3.90625 C 4.015625 -4.289062 3.535156 -4.484375 2.953125 -4.484375 C 2.554688 -4.484375 2.195312 -4.394531 1.875 -4.21875 C 1.5625 -4.039062 1.316406 -3.796875 1.140625 -3.484375 C 0.960938 -3.179688 0.875 -2.835938 0.875 -2.453125 C 0.875 -2.066406 0.960938 -1.71875 1.140625 -1.40625 C 1.316406 -1.101562 1.5625 -0.863281 1.875 -0.6875 C 2.195312 -0.507812 2.554688 -0.421875 2.953125 -0.421875 C 3.535156 -0.421875 4.015625 -0.617188 4.390625 -1.015625 L 4.71875 -0.671875 C 4.507812 -0.441406 4.25 -0.265625 3.9375 -0.140625 C 3.625 -0.015625 3.285156 0.046875 2.921875 0.046875 Z M 2.921875 0.046875 "/></g></g></g><g fill="#294ac8" fill-opacity="1"><g transform="translate(82.483916, 158.459201)"><g><path d="M 0.796875 -4.90625 L 1.3125 -4.90625 L 1.3125 0 L 0.796875 0 Z M 0.796875 -4.90625 "/></g></g></g><g fill="#294ac8" fill-opacity="1"><g transform="translate(85.030736, 158.459201)"><g><path d="M 3.875 -1.3125 L 1.140625 -1.3125 L 0.546875 0 L 0.015625 0 L 2.25 -4.90625 L 2.765625 -4.90625 L 5 0 L 4.453125 0 Z M 3.6875 -1.734375 L 2.5 -4.359375 L 1.328125 -1.734375 Z M 3.6875 -1.734375 "/></g></g></g><g fill="#294ac8" fill-opacity="1"><g transform="translate(90.480938, 158.459201)"><g/></g></g><g fill="#294ac8" fill-opacity="1"><g transform="translate(92.747915, 158.459201)"><g><path d="M 0.796875 -4.90625 L 2.796875 -4.90625 C 3.304688 -4.90625 3.757812 -4.800781 4.15625 -4.59375 C 4.5625 -4.382812 4.875 -4.09375 5.09375 -3.71875 C 5.3125 -3.34375 5.421875 -2.921875 5.421875 -2.453125 C 5.421875 -1.972656 5.3125 -1.546875 5.09375 -1.171875 C 4.875 -0.804688 4.5625 -0.519531 4.15625 -0.3125 C 3.757812 -0.101562 3.304688 0 2.796875 0 L 0.796875 0 Z M 2.765625 -0.453125 C 3.191406 -0.453125 3.566406 -0.535156 3.890625 -0.703125 C 4.210938 -0.867188 4.460938 -1.101562 4.640625 -1.40625 C 4.816406 -1.707031 4.90625 -2.054688 4.90625 -2.453125 C 4.90625 -2.835938 4.816406 -3.179688 4.640625 -3.484375 C 4.460938 -3.785156 4.210938 -4.019531 3.890625 -4.1875 C 3.566406 -4.363281 3.191406 -4.453125 2.765625 -4.453125 L 1.3125 -4.453125 L 1.3125 -0.453125 Z M 2.765625 -0.453125 "/></g></g></g><g fill="#294ac8" fill-opacity="1"><g transform="translate(98.960689, 158.459201)"><g><path d="M 4.265625 -0.453125 L 4.265625 0 L 0.796875 0 L 0.796875 -4.90625 L 4.15625 -4.90625 L 4.15625 -4.453125 L 1.3125 -4.453125 L 1.3125 -2.703125 L 3.84375 -2.703125 L 3.84375 -2.265625 L 1.3125 -2.265625 L 1.3125 -0.453125 Z M 4.265625 -0.453125 "/></g></g></g><g fill="#294ac8" fill-opacity="1"><g transform="translate(104.075078, 158.459201)"><g/></g></g><g fill="#294ac8" fill-opacity="1"><g transform="translate(106.342055, 158.459201)"><g><path d="M 4.875 -4.90625 L 2.703125 0 L 2.1875 0 L 0.015625 -4.90625 L 0.578125 -4.90625 L 2.453125 -0.640625 L 4.34375 -4.90625 Z M 4.875 -4.90625 "/></g></g></g><g fill="#294ac8" fill-opacity="1"><g transform="translate(111.659329, 158.459201)"><g><path d="M 0.796875 -4.90625 L 1.3125 -4.90625 L 1.3125 0 L 0.796875 0 Z M 0.796875 -4.90625 "/></g></g></g><g fill="#294ac8" fill-opacity="1"><g transform="translate(114.206148, 158.459201)"><g><path d="M 3.875 -1.3125 L 1.140625 -1.3125 L 0.546875 0 L 0.015625 0 L 2.25 -4.90625 L 2.765625 -4.90625 L 5 0 L 4.453125 0 Z M 3.6875 -1.734375 L 2.5 -4.359375 L 1.328125 -1.734375 Z M 3.6875 -1.734375 "/></g></g></g><g fill="#294ac8" fill-opacity="1"><g transform="translate(119.65635, 158.459201)"><g><path d="M 1.328125 0.046875 C 1.046875 0.046875 0.785156 -0.015625 0.546875 -0.140625 C 0.304688 -0.265625 0.113281 -0.4375 -0.03125 -0.65625 L 0.265625 -1.015625 C 0.535156 -0.609375 0.890625 -0.40625 1.328125 -0.40625 C 1.929688 -0.40625 2.234375 -0.765625 2.234375 -1.484375 L 2.234375 -4.453125 L 0.453125 -4.453125 L 0.453125 -4.90625 L 2.75 -4.90625 L 2.75 -1.5 C 2.75 -0.988281 2.628906 -0.601562 2.390625 -0.34375 C 2.148438 -0.0820312 1.796875 0.046875 1.328125 0.046875 Z M 1.328125 0.046875 "/></g></g></g><g fill="#294ac8" fill-opacity="1"><g transform="translate(123.595395, 158.459201)"><g><path d="M 4.265625 -0.453125 L 4.265625 0 L 0.796875 0 L 0.796875 -4.90625 L 4.15625 -4.90625 L 4.15625 -4.453125 L 1.3125 -4.453125 L 1.3125 -2.703125 L 3.84375 -2.703125 L 3.84375 -2.265625 L 1.3125 -2.265625 L 1.3125 -0.453125 Z M 4.265625 -0.453125 "/></g></g></g><g fill="#294ac8" fill-opacity="1"><g transform="translate(128.709782, 158.459201)"><g><path d="M 2.15625 0.046875 C 1.789062 0.046875 1.441406 -0.0078125 1.109375 -0.125 C 0.773438 -0.25 0.515625 -0.40625 0.328125 -0.59375 L 0.53125 -1 C 0.707031 -0.820312 0.941406 -0.675781 1.234375 -0.5625 C 1.535156 -0.457031 1.84375 -0.40625 2.15625 -0.40625 C 2.59375 -0.40625 2.921875 -0.484375 3.140625 -0.640625 C 3.359375 -0.796875 3.46875 -1.003906 3.46875 -1.265625 C 3.46875 -1.460938 3.40625 -1.617188 3.28125 -1.734375 C 3.164062 -1.847656 3.019531 -1.9375 2.84375 -2 C 2.675781 -2.0625 2.4375 -2.132812 2.125 -2.21875 C 1.757812 -2.3125 1.46875 -2.398438 1.25 -2.484375 C 1.03125 -2.566406 0.84375 -2.695312 0.6875 -2.875 C 0.53125 -3.050781 0.453125 -3.289062 0.453125 -3.59375 C 0.453125 -3.84375 0.515625 -4.066406 0.640625 -4.265625 C 0.773438 -4.472656 0.976562 -4.632812 1.25 -4.75 C 1.519531 -4.875 1.851562 -4.9375 2.25 -4.9375 C 2.53125 -4.9375 2.804688 -4.898438 3.078125 -4.828125 C 3.347656 -4.753906 3.578125 -4.648438 3.765625 -4.515625 L 3.59375 -4.09375 C 3.394531 -4.226562 3.175781 -4.328125 2.9375 -4.390625 C 2.707031 -4.460938 2.476562 -4.5 2.25 -4.5 C 1.820312 -4.5 1.5 -4.414062 1.28125 -4.25 C 1.0625 -4.082031 0.953125 -3.867188 0.953125 -3.609375 C 0.953125 -3.410156 1.007812 -3.253906 1.125 -3.140625 C 1.25 -3.023438 1.398438 -2.929688 1.578125 -2.859375 C 1.765625 -2.796875 2.007812 -2.726562 2.3125 -2.65625 C 2.664062 -2.570312 2.953125 -2.484375 3.171875 -2.390625 C 3.398438 -2.304688 3.585938 -2.175781 3.734375 -2 C 3.890625 -1.832031 3.96875 -1.597656 3.96875 -1.296875 C 3.96875 -1.046875 3.898438 -0.816406 3.765625 -0.609375 C 3.640625 -0.410156 3.4375 -0.25 3.15625 -0.125 C 2.882812 -0.0078125 2.550781 0.046875 2.15625 0.046875 Z M 2.15625 0.046875 "/></g></g></g><g fill="#294ac8" fill-opacity="1"><g transform="translate(61.409201, 143.553481)"><g><path d="M 3.503906 0.0742188 C 3.726562 0.148438 3.902344 0.125 4.054688 -0.0234375 C 4.226562 -0.199219 4.253906 -0.398438 4.179688 -0.601562 C 4.054688 -0.824219 4.054688 -1.074219 4.054688 -1.324219 L 4.054688 -7.40625 C 4.203125 -7.40625 4.328125 -7.429688 4.453125 -7.429688 C 5.027344 -7.40625 5.628906 -7.382812 6.203125 -7.40625 C 7.179688 -7.40625 8.15625 -7.507812 9.105469 -7.332031 C 9.484375 -7.253906 9.734375 -7.582031 9.632812 -7.957031 C 9.484375 -8.65625 9.457031 -9.359375 9.65625 -10.058594 C 9.757812 -10.332031 9.609375 -10.609375 9.332031 -10.660156 C 9.183594 -10.707031 9.03125 -10.660156 8.882812 -10.632812 C 8.707031 -10.632812 8.53125 -10.558594 8.355469 -10.558594 L 4.402344 -10.558594 C 4.277344 -10.558594 4.179688 -10.558594 4.078125 -10.582031 L 4.078125 -14.386719 C 4.226562 -14.386719 4.351562 -14.386719 4.480469 -14.363281 C 5.328125 -14.363281 6.179688 -14.335938 7.03125 -14.335938 C 8.082031 -14.335938 9.105469 -14.363281 10.132812 -14.363281 C 10.683594 -14.363281 11.234375 -14.363281 11.785156 -14.210938 C 12.183594 -14.109375 12.484375 -14.488281 12.359375 -14.886719 C 12.335938 -15.035156 12.285156 -15.1875 12.285156 -15.335938 C 12.261719 -15.914062 12.234375 -16.464844 12.433594 -17.011719 C 12.511719 -17.1875 12.433594 -17.339844 12.308594 -17.464844 C 12.132812 -17.640625 11.933594 -17.714844 11.683594 -17.613281 C 11.410156 -17.488281 11.082031 -17.464844 10.785156 -17.464844 C 9.40625 -17.488281 8.054688 -17.515625 6.679688 -17.515625 C 6.328125 -17.515625 5.980469 -17.464844 5.628906 -17.464844 L 2.828125 -17.464844 C 2.402344 -17.464844 1.976562 -17.464844 1.550781 -17.589844 C 1.074219 -17.738281 0.699219 -17.3125 0.851562 -16.839844 C 0.925781 -16.613281 0.949219 -16.339844 0.949219 -16.113281 C 0.949219 -15.511719 0.925781 -14.9375 0.902344 -14.335938 C 0.902344 -13.960938 0.949219 -13.609375 0.949219 -13.234375 L 0.949219 -5.480469 C 0.949219 -5.179688 0.925781 -3.953125 0.902344 -3.628906 C 0.902344 -3.402344 0.902344 -3.152344 0.925781 -2.902344 C 0.949219 -2.175781 1.050781 -1.425781 0.777344 -0.699219 C 0.75 -0.652344 0.75 -0.574219 0.75 -0.5 C 0.726562 -0.101562 1.050781 0.175781 1.449219 0.0507812 C 2.152344 -0.125 2.828125 -0.101562 3.503906 0.0742188 Z M 10.15625 -16.4375 C 10.410156 -16.488281 10.582031 -16.589844 10.734375 -16.738281 C 10.660156 -16.363281 10.535156 -16.3125 10.15625 -16.4375 Z M 4.527344 -16.011719 C 4.351562 -16.113281 4.203125 -16.238281 4.003906 -16.261719 C 3.851562 -16.289062 3.851562 -16.464844 3.976562 -16.664062 C 4.101562 -16.5625 4.203125 -16.4375 4.328125 -16.386719 C 4.527344 -16.3125 4.453125 -16.136719 4.527344 -16.011719 Z M 7.332031 -16.3125 L 6.878906 -16.386719 C 6.980469 -16.511719 7.082031 -16.613281 7.253906 -16.539062 C 7.332031 -16.511719 7.382812 -16.4375 7.332031 -16.3125 Z M 9.582031 -16.3125 C 9.457031 -16.414062 9.433594 -16.511719 9.609375 -16.5625 C 9.609375 -16.464844 9.582031 -16.386719 9.582031 -16.3125 Z M 7.457031 -16.289062 C 7.53125 -16.386719 7.605469 -16.4375 7.679688 -16.511719 C 7.757812 -16.261719 7.757812 -16.261719 7.457031 -16.289062 Z M 5.679688 -16.289062 L 5.605469 -16.363281 C 5.605469 -16.386719 5.65625 -16.4375 5.65625 -16.4375 L 5.78125 -16.363281 C 5.730469 -16.3125 5.679688 -16.261719 5.679688 -16.289062 Z M 1.976562 -15.414062 C 1.777344 -15.585938 1.777344 -15.664062 1.953125 -15.988281 C 2.027344 -15.863281 2.050781 -15.738281 2.125 -15.5625 Z M 2.925781 -15.585938 C 2.851562 -15.738281 2.800781 -15.8125 2.753906 -15.886719 C 3.003906 -15.914062 3.003906 -15.914062 2.925781 -15.585938 Z M 5.40625 -15.6875 C 5.453125 -15.738281 5.503906 -15.789062 5.578125 -15.886719 C 5.605469 -15.6875 5.554688 -15.664062 5.40625 -15.6875 Z M 6.03125 -15.636719 C 5.980469 -15.8125 5.980469 -15.8125 6.15625 -15.835938 Z M 3.328125 -15.460938 C 3.300781 -15.585938 3.277344 -15.664062 3.277344 -15.789062 C 3.402344 -15.6875 3.453125 -15.613281 3.328125 -15.460938 Z M 8.53125 -15.363281 C 8.53125 -15.363281 8.480469 -15.386719 8.457031 -15.386719 C 8.457031 -15.4375 8.480469 -15.511719 8.507812 -15.5625 C 8.558594 -15.5625 8.582031 -15.539062 8.632812 -15.539062 C 8.605469 -15.460938 8.582031 -15.414062 8.53125 -15.363281 Z M 9.332031 -15.335938 C 9.433594 -15.460938 9.53125 -15.613281 9.78125 -15.488281 C 9.609375 -15.4375 9.507812 -15.261719 9.332031 -15.335938 Z M 11.285156 -15.289062 C 11.058594 -15.210938 11.058594 -15.210938 10.984375 -15.511719 Z M 10.859375 -15.0625 C 10.808594 -15.085938 10.757812 -15.136719 10.683594 -15.164062 L 10.734375 -15.238281 L 10.910156 -15.136719 Z M 4.679688 -15.0625 L 4.453125 -15.136719 C 4.453125 -15.164062 4.480469 -15.1875 4.480469 -15.210938 C 4.554688 -15.210938 4.628906 -15.1875 4.703125 -15.1875 C 4.703125 -15.136719 4.679688 -15.113281 4.679688 -15.0625 Z M 2.652344 -14.3125 C 2.601562 -14.386719 2.578125 -14.410156 2.578125 -14.4375 L 2.675781 -14.535156 C 2.703125 -14.511719 2.753906 -14.488281 2.753906 -14.460938 Z M 2.027344 -12.984375 L 1.828125 -13.359375 C 2.078125 -13.410156 2.078125 -13.410156 2.027344 -12.984375 Z M 2 -12.261719 C 1.902344 -12.308594 1.777344 -12.335938 1.851562 -12.484375 C 1.902344 -12.609375 2.101562 -12.710938 2.203125 -12.636719 C 2.277344 -12.585938 2.300781 -12.511719 2.226562 -12.433594 C 2.152344 -12.386719 2.078125 -12.335938 2 -12.261719 Z M 2.628906 -12.335938 C 2.550781 -12.386719 2.476562 -12.410156 2.375 -12.484375 C 2.550781 -12.558594 2.628906 -12.511719 2.703125 -12.410156 Z M 2.703125 -11.960938 L 3.078125 -12.210938 C 3.027344 -11.984375 2.953125 -11.910156 2.703125 -11.960938 Z M 1.875 -10.683594 C 1.851562 -10.707031 1.851562 -10.707031 1.828125 -10.707031 C 1.800781 -10.808594 1.800781 -10.910156 1.777344 -11.058594 C 1.851562 -11.058594 1.925781 -11.082031 2.078125 -11.132812 Z M 2.726562 -10.957031 C 2.726562 -10.984375 2.703125 -11.007812 2.703125 -11.035156 L 2.878906 -11.109375 C 2.878906 -11.082031 2.902344 -11.058594 2.902344 -11.007812 C 2.851562 -11.007812 2.777344 -10.984375 2.726562 -10.957031 Z M 2.578125 -10.484375 C 2.453125 -10.433594 2.375 -10.535156 2.328125 -10.757812 C 2.550781 -10.785156 2.753906 -10.808594 2.925781 -10.808594 C 2.925781 -10.808594 2.953125 -10.785156 2.953125 -10.757812 C 2.828125 -10.683594 2.726562 -10.558594 2.578125 -10.484375 Z M 2.800781 -8.730469 C 2.753906 -8.632812 2.628906 -8.605469 2.503906 -8.757812 C 2.628906 -8.808594 2.726562 -8.855469 2.726562 -9.03125 C 2.726562 -9.132812 2.976562 -9.183594 2.777344 -9.382812 C 2.675781 -9.382812 2.550781 -9.40625 2.375 -9.40625 C 2.402344 -9.707031 1.925781 -9.78125 2.078125 -10.15625 C 2.351562 -10.109375 2.277344 -9.832031 2.425781 -9.683594 C 2.675781 -9.65625 2.925781 -9.609375 3.203125 -9.78125 L 3.378906 -9.53125 L 3.027344 -9.609375 C 2.976562 -9.257812 3.402344 -9.382812 3.402344 -9.105469 C 3.152344 -9.082031 2.925781 -9.007812 2.800781 -8.730469 Z M 7.355469 -9.382812 C 7.304688 -9.382812 7.28125 -9.433594 7.253906 -9.457031 L 7.355469 -9.609375 C 7.40625 -9.53125 7.457031 -9.507812 7.429688 -9.484375 C 7.429688 -9.433594 7.382812 -9.382812 7.355469 -9.382812 Z M 5.128906 -9.007812 C 5.027344 -9.03125 4.953125 -9.058594 4.804688 -9.082031 C 4.953125 -9.230469 5.054688 -9.257812 5.128906 -9.15625 C 5.152344 -9.132812 5.128906 -9.058594 5.128906 -9.007812 Z M 5.328125 -8.457031 L 5.152344 -8.683594 C 5.230469 -8.78125 5.253906 -8.957031 5.503906 -8.90625 C 5.429688 -8.730469 5.378906 -8.605469 5.328125 -8.457031 Z M 4.078125 -8.683594 C 4.203125 -8.855469 4.277344 -8.882812 4.378906 -8.730469 C 4.277344 -8.730469 4.226562 -8.707031 4.078125 -8.683594 Z M 1.902344 -8.53125 C 1.851562 -8.53125 1.800781 -8.605469 1.75 -8.65625 C 1.800781 -8.683594 1.851562 -8.757812 1.902344 -8.78125 C 1.953125 -8.78125 2 -8.730469 2.125 -8.683594 C 2.027344 -8.605469 1.953125 -8.53125 1.902344 -8.53125 Z M 5.027344 -8.257812 C 4.929688 -8.40625 4.777344 -8.480469 4.605469 -8.507812 C 4.578125 -8.53125 4.527344 -8.632812 4.554688 -8.683594 C 4.578125 -8.78125 4.628906 -8.730469 4.703125 -8.707031 C 4.902344 -8.632812 5.054688 -8.507812 5.105469 -8.28125 C 5.078125 -8.28125 5.027344 -8.257812 5.027344 -8.257812 Z M 2.550781 -8.382812 C 2.453125 -8.382812 2.375 -8.40625 2.226562 -8.457031 L 2.351562 -8.683594 L 2.601562 -8.433594 C 2.578125 -8.40625 2.578125 -8.382812 2.550781 -8.382812 Z M 7.179688 -8.480469 C 7.105469 -8.480469 7.054688 -8.507812 6.980469 -8.53125 C 7.054688 -8.65625 7.128906 -8.65625 7.179688 -8.480469 Z M 6.003906 -8.230469 C 6.15625 -8.480469 6.304688 -8.53125 6.78125 -8.382812 C 6.503906 -8.15625 6.253906 -8.304688 6.003906 -8.230469 Z M 3.226562 -7.507812 C 3.175781 -7.53125 3.152344 -7.507812 3.152344 -7.53125 C 3.078125 -7.605469 3.050781 -7.707031 3.203125 -7.78125 C 3.203125 -7.707031 3.226562 -7.605469 3.226562 -7.507812 Z M 2.578125 -7.53125 C 2.578125 -7.582031 2.550781 -7.632812 2.578125 -7.632812 C 2.652344 -7.707031 2.753906 -7.757812 2.851562 -7.582031 C 2.753906 -7.554688 2.652344 -7.554688 2.578125 -7.53125 Z M 1.851562 -6.054688 C 1.925781 -6.203125 1.851562 -6.355469 2.027344 -6.429688 C 2.050781 -6.253906 2.125 -6.105469 1.851562 -6.054688 Z M 3.027344 -6.179688 L 2.925781 -6.28125 L 3.078125 -6.40625 L 3.152344 -6.355469 C 3.101562 -6.304688 3.078125 -6.230469 3.027344 -6.179688 Z M 2.175781 -5.453125 L 2.453125 -5.628906 C 2.453125 -5.378906 2.453125 -5.378906 2.175781 -5.453125 Z M 1.828125 -3.429688 C 1.828125 -3.476562 1.800781 -3.527344 1.800781 -3.578125 L 1.875 -3.578125 L 1.875 -3.429688 Z M 2.527344 -3.300781 C 2.503906 -3.328125 2.503906 -3.351562 2.503906 -3.378906 C 2.578125 -3.402344 2.652344 -3.402344 2.726562 -3.429688 L 2.726562 -3.351562 Z M 2.777344 -2.226562 C 2.753906 -2.402344 2.726562 -2.476562 2.703125 -2.601562 C 3.003906 -2.527344 3.003906 -2.503906 2.777344 -2.226562 Z M 2.152344 -2.226562 C 2.125 -2.25 2.078125 -2.300781 2.078125 -2.328125 C 2.078125 -2.351562 2.101562 -2.375 2.125 -2.453125 L 2.226562 -2.300781 Z M 2.527344 -1.800781 C 2.476562 -1.828125 2.453125 -1.851562 2.425781 -1.902344 L 2.453125 -2 C 2.476562 -2 2.503906 -2.027344 2.503906 -2.027344 C 2.527344 -1.953125 2.550781 -1.902344 2.550781 -1.828125 Z M 1.976562 -1.476562 C 1.976562 -1.449219 1.902344 -1.5 1.828125 -1.527344 C 1.953125 -1.625 2.078125 -1.726562 2.203125 -1.800781 C 2.300781 -1.726562 2.425781 -1.652344 2.550781 -1.550781 C 2.476562 -1.527344 2.402344 -1.476562 2.402344 -1.476562 C 2.25 -1.625 2.125 -1.625 1.976562 -1.476562 Z M 1.976562 -1.476562 "/></g></g></g><g fill="#294ac8" fill-opacity="1"><g transform="translate(77.146588, 143.553481)"><g><path d="M 1.601562 0.0507812 C 1.726562 0 1.828125 -0.0507812 1.953125 -0.0507812 C 2.351562 -0.0742188 2.753906 -0.0742188 3.152344 -0.0742188 C 3.929688 -0.101562 4.679688 -0.0742188 5.453125 -0.0742188 L 8.832031 -0.0742188 C 9.359375 -0.0742188 9.882812 -0.101562 10.410156 -0.0742188 C 10.609375 -0.0742188 10.785156 -0.0742188 10.957031 -0.0507812 C 11.183594 -0.0234375 11.382812 0.0507812 11.609375 0.0507812 C 11.882812 0.0742188 12.109375 -0.226562 12.035156 -0.476562 C 11.960938 -0.824219 11.910156 -1.175781 11.933594 -1.527344 L 11.933594 -2.050781 C 11.933594 -2.277344 11.960938 -2.476562 12.058594 -2.675781 C 12.109375 -2.800781 12.109375 -2.976562 12.007812 -3.101562 C 11.882812 -3.253906 11.683594 -3.402344 11.484375 -3.351562 C 10.933594 -3.175781 10.382812 -3.203125 9.808594 -3.203125 C 8.40625 -3.175781 6.980469 -3.175781 5.554688 -3.175781 L 4.003906 -3.175781 L 4.003906 -3.402344 C 4.027344 -4.253906 4.054688 -5.128906 4.054688 -5.980469 C 4.054688 -6.429688 4.003906 -6.90625 4.003906 -7.355469 C 4.027344 -8.808594 4.027344 -10.285156 4.054688 -11.734375 C 4.054688 -12.386719 4.027344 -14.035156 4.003906 -14.6875 C 4.003906 -15.0625 4.027344 -15.414062 4.003906 -15.761719 C 4.003906 -16.136719 4.027344 -16.511719 4.152344 -16.863281 C 4.203125 -16.988281 4.179688 -17.164062 4.128906 -17.265625 C 3.976562 -17.589844 3.777344 -17.664062 3.453125 -17.5625 C 3.300781 -17.515625 3.152344 -17.488281 2.976562 -17.488281 C 2.628906 -17.464844 2.277344 -17.464844 1.925781 -17.488281 C 1.777344 -17.488281 1.625 -17.5625 1.476562 -17.589844 C 1.351562 -17.613281 1.25 -17.640625 1.152344 -17.613281 C 0.726562 -17.515625 0.726562 -17.113281 0.824219 -16.839844 C 0.875 -16.636719 0.949219 -16.414062 0.949219 -16.214844 C 0.949219 -12.035156 0.925781 -6.878906 0.902344 -2.703125 L 0.902344 -2 C 0.925781 -1.675781 0.925781 -1.351562 0.902344 -1.050781 C 0.902344 -0.976562 0.875 -0.902344 0.851562 -0.851562 C 0.75 -0.527344 0.699219 -0.324219 0.902344 -0.101562 C 1.101562 0.125 1.324219 0.148438 1.601562 0.0507812 Z M 2.527344 -14.710938 C 2.527344 -14.863281 2.550781 -14.988281 2.578125 -15.113281 C 2.753906 -14.988281 2.753906 -14.835938 2.527344 -14.710938 Z M 1.925781 -14.035156 C 1.902344 -14.035156 1.902344 -14.0625 1.875 -14.085938 C 1.953125 -14.160156 2 -14.238281 2.050781 -14.3125 C 2.175781 -14.410156 2.175781 -14.511719 2.027344 -14.5625 C 1.851562 -14.585938 1.851562 -14.738281 1.828125 -14.863281 C 1.800781 -14.863281 1.851562 -14.9375 1.875 -14.9375 C 1.902344 -14.910156 1.976562 -14.910156 2 -14.886719 C 2.078125 -14.761719 2.101562 -14.636719 2.175781 -14.511719 C 2.226562 -14.460938 2.300781 -14.4375 2.425781 -14.386719 L 2.375 -14.238281 C 2.277344 -14.335938 2.203125 -14.335938 2.125 -14.1875 C 2.101562 -14.136719 2 -14.085938 1.925781 -14.035156 Z M 3.128906 -14.5625 C 3.078125 -14.613281 3.027344 -14.660156 3.003906 -14.738281 L 3.101562 -14.8125 C 3.152344 -14.761719 3.175781 -14.6875 3.226562 -14.636719 C 3.175781 -14.585938 3.128906 -14.5625 3.128906 -14.5625 Z M 2.828125 -14.160156 L 2.828125 -14.285156 C 2.902344 -14.285156 2.976562 -14.3125 3.050781 -14.335938 C 3.078125 -14.285156 3.078125 -14.210938 3.078125 -14.210938 C 3.003906 -14.1875 2.902344 -14.1875 2.828125 -14.160156 Z M 2.628906 -13.8125 C 2.601562 -13.835938 2.550781 -13.835938 2.527344 -13.859375 C 2.476562 -13.9375 2.453125 -14.035156 2.402344 -14.160156 C 2.601562 -14.160156 2.652344 -14.035156 2.675781 -13.910156 C 2.675781 -13.886719 2.652344 -13.835938 2.628906 -13.8125 Z M 2.226562 -11.910156 C 2.203125 -11.933594 2.203125 -11.960938 2.203125 -11.984375 L 2.503906 -12.132812 C 2.550781 -11.933594 2.476562 -11.882812 2.226562 -11.910156 Z M 2.652344 -10.882812 C 2.675781 -11.082031 2.578125 -11.285156 2.753906 -11.433594 C 2.777344 -11.460938 2.753906 -11.558594 2.726562 -11.632812 L 2.726562 -11.683594 C 2.800781 -11.660156 2.902344 -11.683594 2.925781 -11.632812 C 3.078125 -11.484375 3.078125 -11.335938 2.976562 -11.160156 C 2.953125 -11.207031 2.902344 -11.234375 2.828125 -11.285156 L 2.828125 -10.910156 C 2.753906 -10.910156 2.703125 -10.910156 2.652344 -10.882812 Z M 1.726562 -11.285156 C 1.652344 -11.410156 1.601562 -11.484375 1.578125 -11.558594 C 1.578125 -11.585938 1.652344 -11.660156 1.652344 -11.632812 C 1.703125 -11.609375 1.777344 -11.558594 1.800781 -11.507812 C 1.828125 -11.460938 1.75 -11.382812 1.726562 -11.285156 Z M 1.976562 -11.183594 C 1.953125 -11.183594 1.953125 -11.207031 1.925781 -11.207031 C 1.925781 -11.257812 1.925781 -11.335938 1.953125 -11.359375 C 2 -11.382812 2.078125 -11.382812 2.125 -11.382812 C 2.125 -11.359375 2.152344 -11.359375 2.152344 -11.335938 Z M 2.277344 -9.957031 L 2.101562 -10.183594 C 2.175781 -10.207031 2.226562 -10.234375 2.277344 -10.207031 C 2.375 -10.15625 2.375 -10.082031 2.277344 -9.957031 Z M 2.703125 -9.28125 L 2.628906 -9.609375 C 2.703125 -9.609375 2.726562 -9.609375 2.851562 -9.308594 C 2.800781 -9.308594 2.703125 -9.28125 2.703125 -9.28125 Z M 2.226562 -8.730469 L 2.101562 -8.855469 C 2.152344 -8.882812 2.175781 -8.933594 2.226562 -8.933594 C 2.277344 -8.957031 2.328125 -8.90625 2.375 -8.882812 L 2.375 -8.808594 C 2.328125 -8.78125 2.277344 -8.730469 2.226562 -8.730469 Z M 3.078125 -8.355469 C 3.027344 -8.558594 3.253906 -8.507812 3.300781 -8.605469 C 3.328125 -8.433594 3.277344 -8.355469 3.078125 -8.355469 Z M 2.152344 -8.082031 L 2.078125 -8.207031 C 2.101562 -8.257812 2.175781 -8.28125 2.226562 -8.332031 C 2.226562 -8.304688 2.277344 -8.257812 2.277344 -8.230469 C 2.25 -8.179688 2.226562 -8.15625 2.152344 -8.082031 Z M 2.152344 -7.730469 C 2.050781 -7.757812 2 -7.832031 1.925781 -7.882812 C 2.027344 -7.90625 2.152344 -7.929688 2.277344 -7.980469 C 2.277344 -7.832031 2.277344 -7.707031 2.152344 -7.730469 Z M 2.976562 -7.605469 C 2.953125 -7.605469 2.925781 -7.632812 2.925781 -7.632812 C 2.953125 -7.707031 3.003906 -7.78125 3.050781 -7.90625 L 3.152344 -7.757812 C 3.101562 -7.679688 3.027344 -7.65625 2.976562 -7.605469 Z M 3.175781 -6.554688 C 2.925781 -6.503906 2.953125 -6.730469 2.828125 -6.78125 L 3.101562 -6.980469 L 3.226562 -6.980469 C 3.226562 -6.929688 3.226562 -6.855469 3.175781 -6.855469 C 3.027344 -6.78125 3.050781 -6.707031 3.175781 -6.554688 Z M 1.828125 -6.179688 C 1.800781 -6.15625 1.75 -6.230469 1.703125 -6.304688 C 1.902344 -6.328125 2.027344 -6.328125 2.152344 -6.355469 C 2.175781 -6.328125 2.175781 -6.304688 2.175781 -6.304688 C 2.078125 -6.253906 1.953125 -6.203125 1.828125 -6.179688 Z M 1.875 -4.578125 C 1.828125 -4.679688 1.828125 -4.777344 1.976562 -4.855469 C 1.976562 -4.753906 1.953125 -4.679688 1.953125 -4.578125 Z M 2.628906 -4.351562 C 2.601562 -4.378906 2.601562 -4.429688 2.601562 -4.453125 L 2.675781 -4.503906 C 2.828125 -4.480469 2.953125 -4.429688 3.101562 -4.351562 C 2.925781 -4.253906 2.726562 -4.253906 2.628906 -4.351562 Z M 5.152344 -2 C 5.105469 -1.976562 4.828125 -2.027344 4.804688 -2.101562 C 4.804688 -2.125 4.828125 -2.152344 4.855469 -2.175781 C 4.855469 -2.203125 4.902344 -2.175781 4.929688 -2.175781 C 5.003906 -2.125 5.078125 -2.078125 5.152344 -2 Z M 10.359375 -1.800781 C 10.507812 -1.875 10.457031 -2.175781 10.734375 -2.101562 C 10.757812 -1.875 10.632812 -1.777344 10.359375 -1.800781 Z M 7.457031 -1.550781 C 7.429688 -1.703125 7.429688 -1.777344 7.429688 -1.902344 C 7.382812 -1.875 7.332031 -1.851562 7.304688 -1.851562 C 7.28125 -1.851562 7.230469 -1.875 7.207031 -1.902344 C 7.207031 -1.925781 7.207031 -2 7.230469 -2 L 7.480469 -2.125 C 7.53125 -2.027344 7.582031 -1.976562 7.605469 -1.902344 C 7.632812 -1.851562 7.65625 -1.777344 7.65625 -1.726562 C 7.605469 -1.652344 7.53125 -1.625 7.457031 -1.550781 Z M 5.328125 -1.726562 L 5.554688 -2.078125 C 5.605469 -1.875 5.578125 -1.828125 5.328125 -1.726562 Z M 6.105469 -1.828125 C 6.003906 -1.851562 5.90625 -1.851562 5.804688 -1.851562 C 5.828125 -1.902344 5.855469 -1.953125 5.90625 -2 C 5.953125 -2.027344 6.078125 -2.027344 6.078125 -2 C 6.105469 -1.953125 6.105469 -1.875 6.105469 -1.828125 Z M 8.730469 -1.726562 C 8.683594 -1.925781 8.78125 -1.976562 9.132812 -1.976562 C 9.007812 -1.902344 8.855469 -1.828125 8.730469 -1.726562 Z M 4.503906 -1.351562 C 4.503906 -1.351562 4.429688 -1.402344 4.429688 -1.425781 L 4.378906 -1.703125 L 4.480469 -1.726562 L 4.628906 -1.476562 C 4.628906 -1.449219 4.554688 -1.375 4.503906 -1.351562 Z M 9.707031 -1.425781 L 9.707031 -1.5 L 10.03125 -1.726562 C 10.082031 -1.578125 10.03125 -1.5 9.933594 -1.449219 C 9.859375 -1.425781 9.78125 -1.449219 9.707031 -1.425781 Z M 5.804688 -1.449219 L 5.65625 -1.675781 C 5.679688 -1.675781 5.679688 -1.703125 5.703125 -1.703125 C 5.804688 -1.675781 5.90625 -1.625 5.878906 -1.5 Z M 5.554688 -1.425781 C 5.503906 -1.476562 5.453125 -1.5 5.378906 -1.550781 C 5.429688 -1.578125 5.453125 -1.625 5.480469 -1.625 L 5.628906 -1.527344 C 5.605469 -1.476562 5.578125 -1.449219 5.554688 -1.425781 Z M 2.851562 -1.527344 C 2.703125 -1.375 2.652344 -1.375 2.503906 -1.578125 C 2.628906 -1.527344 2.753906 -1.675781 2.851562 -1.527344 Z M 4.101562 -1.226562 C 4.027344 -1.25 3.929688 -1.277344 3.929688 -1.300781 C 3.902344 -1.375 3.929688 -1.476562 3.976562 -1.550781 L 4.128906 -1.277344 C 4.101562 -1.25 4.101562 -1.25 4.101562 -1.226562 Z M 8.957031 -0.824219 C 8.757812 -0.976562 8.882812 -1.226562 8.757812 -1.351562 C 8.605469 -1.351562 8.457031 -1.375 8.332031 -1.375 L 8.332031 -1.449219 C 8.457031 -1.449219 8.605469 -1.476562 8.757812 -1.5 C 8.933594 -1.5 8.957031 -1.351562 8.980469 -1.25 C 8.980469 -1.101562 8.980469 -0.976562 8.957031 -0.824219 Z M 7.457031 -1.199219 C 7.53125 -1.300781 7.582031 -1.375 7.632812 -1.425781 C 7.65625 -1.449219 7.707031 -1.425781 7.804688 -1.425781 C 7.679688 -1.324219 7.707031 -1.125 7.457031 -1.199219 Z M 3.578125 -1 C 3.503906 -1.050781 3.429688 -1.101562 3.378906 -1.175781 C 3.351562 -1.226562 3.378906 -1.300781 3.402344 -1.375 C 3.503906 -1.226562 3.554688 -1.152344 3.601562 -1.050781 C 3.601562 -1.027344 3.578125 -1.027344 3.578125 -1 Z M 10.558594 -1.101562 C 10.558594 -1.125 10.558594 -1.152344 10.535156 -1.175781 C 10.609375 -1.199219 10.683594 -1.25 10.757812 -1.300781 C 10.785156 -1.25 10.808594 -1.226562 10.808594 -1.199219 C 10.757812 -1.074219 10.660156 -1.074219 10.558594 -1.101562 Z M 4.777344 -0.675781 L 4.777344 -0.851562 C 4.753906 -0.902344 4.730469 -0.949219 4.730469 -0.976562 L 4.679688 -1.027344 C 4.679688 -1.101562 4.703125 -1.175781 4.703125 -1.277344 C 4.753906 -1.226562 4.855469 -1.175781 4.855469 -1.125 C 4.804688 -0.976562 4.953125 -0.925781 4.980469 -0.800781 L 5.027344 -0.675781 Z M 3.027344 -1.027344 C 3.003906 -1.074219 3.003906 -1.101562 2.976562 -1.125 C 3.050781 -1.175781 3.101562 -1.226562 3.175781 -1.25 C 3.175781 -1.277344 3.226562 -1.25 3.226562 -1.25 C 3.226562 -1.226562 3.253906 -1.175781 3.226562 -1.175781 C 3.175781 -1.125 3.101562 -1.074219 3.027344 -1.027344 Z M 6.003906 -0.851562 C 5.929688 -0.925781 5.878906 -0.976562 5.878906 -1 L 6.03125 -1.226562 C 6.054688 -1.199219 6.128906 -1.175781 6.128906 -1.152344 C 6.105469 -1.050781 6.054688 -0.976562 6.003906 -0.851562 Z M 6.78125 -0.652344 C 6.78125 -0.675781 6.753906 -0.726562 6.730469 -0.75 C 6.628906 -0.851562 6.53125 -0.925781 6.457031 -1.027344 C 6.40625 -1.050781 6.378906 -1.101562 6.304688 -1.175781 C 6.582031 -1.199219 6.832031 -1.074219 6.878906 -0.925781 C 6.90625 -0.824219 6.957031 -0.726562 6.78125 -0.652344 Z M 6.980469 -0.949219 C 6.980469 -0.976562 6.957031 -0.976562 6.957031 -1 C 6.980469 -1.027344 7.003906 -1.125 7.054688 -1.125 C 7.15625 -1.152344 7.253906 -1.125 7.304688 -1 C 7.179688 -0.976562 7.082031 -0.976562 6.980469 -0.949219 Z M 10.359375 -0.824219 C 10.332031 -0.800781 10.285156 -0.851562 10.207031 -0.875 C 10.308594 -0.949219 10.359375 -1.027344 10.410156 -1.074219 C 10.433594 -1.074219 10.457031 -1.050781 10.484375 -1.027344 C 10.433594 -0.949219 10.410156 -0.875 10.359375 -0.824219 Z M 10.359375 -0.824219 "/></g></g></g><g fill="#294ac8" fill-opacity="1"><g transform="translate(92.508677, 143.553481)"><g><path d="M 7.632812 0.101562 C 8.304688 -0.0742188 9.007812 -0.0742188 9.683594 0.101562 C 9.957031 0.148438 10.234375 0.0507812 10.308594 -0.226562 C 10.332031 -0.351562 10.359375 -0.5 10.308594 -0.625 C 10.183594 -0.851562 10.183594 -1.976562 10.183594 -2.226562 L 10.183594 -8.355469 C 10.183594 -8.582031 10.234375 -8.757812 10.359375 -8.933594 C 10.757812 -9.457031 11.132812 -9.984375 11.507812 -10.507812 C 12.910156 -12.433594 14.285156 -14.386719 15.6875 -16.3125 C 15.835938 -16.488281 16.039062 -16.636719 16.214844 -16.8125 C 16.261719 -16.863281 16.339844 -16.914062 16.414062 -16.964844 C 16.5625 -17.113281 16.5625 -17.238281 16.4375 -17.390625 C 16.289062 -17.613281 16.136719 -17.640625 15.863281 -17.5625 L 13.335938 -17.515625 C 12.808594 -17.640625 12.359375 -17.363281 12.132812 -16.863281 C 12.058594 -16.664062 11.960938 -16.488281 11.835938 -16.3125 C 10.859375 -14.960938 9.882812 -13.609375 8.933594 -12.234375 C 8.832031 -12.132812 8.730469 -12.007812 8.65625 -11.882812 C 8.605469 -11.933594 8.582031 -11.933594 8.558594 -11.960938 C 7.554688 -13.359375 6.53125 -14.738281 5.503906 -16.136719 C 5.304688 -16.414062 5.078125 -16.6875 4.953125 -17.039062 C 4.828125 -17.363281 4.351562 -17.539062 4.003906 -17.488281 C 3.753906 -17.4375 3.503906 -17.390625 3.253906 -17.390625 L 0.777344 -17.390625 L 0.851562 -17.1875 L 1.027344 -16.964844 C 1.300781 -16.613281 1.550781 -16.261719 1.800781 -15.914062 C 2.828125 -14.535156 3.851562 -13.136719 4.855469 -11.734375 L 6.804688 -9.105469 C 7.003906 -8.855469 7.128906 -8.605469 7.105469 -8.257812 C 7.082031 -8.007812 7.082031 -7.730469 7.105469 -7.457031 C 7.105469 -6.980469 7.128906 -6.503906 7.128906 -6.003906 C 7.128906 -4.828125 7.105469 -3.652344 7.105469 -2.453125 C 7.105469 -2.101562 7.105469 -0.875 6.957031 -0.550781 C 6.855469 -0.324219 6.980469 -0.175781 7.128906 0 C 7.28125 0.148438 7.429688 0.148438 7.632812 0.101562 Z M 4.054688 -16.0625 C 4.027344 -16.0625 3.976562 -16.113281 3.953125 -16.164062 C 4.003906 -16.214844 4.054688 -16.261719 4.101562 -16.289062 C 4.128906 -16.289062 4.179688 -16.238281 4.226562 -16.1875 C 4.152344 -16.136719 4.101562 -16.085938 4.054688 -16.0625 Z M 3.554688 -15.664062 C 3.554688 -15.710938 3.554688 -15.8125 3.578125 -15.8125 C 3.703125 -15.863281 3.851562 -15.886719 3.929688 -15.664062 Z M 4.855469 -15.363281 C 4.402344 -15.539062 4.402344 -15.539062 4.429688 -15.710938 C 4.578125 -15.664062 4.730469 -15.585938 4.855469 -15.363281 Z M 13.6875 -15.386719 L 13.585938 -15.539062 C 13.585938 -15.5625 13.636719 -15.613281 13.660156 -15.636719 C 13.710938 -15.613281 13.761719 -15.585938 13.761719 -15.539062 C 13.785156 -15.511719 13.734375 -15.460938 13.6875 -15.386719 Z M 12.261719 -15.414062 C 12.359375 -15.5625 12.460938 -15.511719 12.585938 -15.4375 C 12.460938 -15.335938 12.386719 -15.3125 12.261719 -15.414062 Z M 4.855469 -14.738281 C 4.828125 -14.910156 4.804688 -15.0625 5.003906 -15.113281 C 5.105469 -14.835938 5.105469 -14.835938 4.855469 -14.738281 Z M 3.402344 -14.6875 C 3.253906 -14.785156 3.253906 -14.863281 3.402344 -15.011719 Z M 4.503906 -14.585938 C 4.453125 -14.910156 4.453125 -14.910156 4.730469 -14.886719 C 4.652344 -14.785156 4.605469 -14.6875 4.503906 -14.585938 Z M 5.78125 -14.363281 C 5.753906 -14.363281 5.730469 -14.363281 5.703125 -14.386719 C 5.730469 -14.4375 5.753906 -14.511719 5.753906 -14.5625 C 5.804688 -14.5625 5.828125 -14.535156 5.855469 -14.535156 Z M 4.226562 -14.160156 C 4.203125 -14.238281 4.179688 -14.285156 4.179688 -14.335938 C 4.179688 -14.363281 4.226562 -14.386719 4.277344 -14.410156 C 4.277344 -14.363281 4.328125 -14.335938 4.328125 -14.285156 C 4.328125 -14.261719 4.277344 -14.238281 4.226562 -14.160156 Z M 4.980469 -13.785156 C 4.929688 -13.835938 4.855469 -13.859375 4.804688 -13.886719 C 4.804688 -13.910156 4.828125 -13.9375 4.828125 -13.960938 C 4.902344 -13.9375 4.953125 -13.910156 5.027344 -13.859375 Z M 5.480469 -13.035156 L 5.203125 -13.160156 C 5.277344 -13.285156 5.355469 -13.359375 5.40625 -13.460938 C 5.429688 -13.460938 5.453125 -13.4375 5.480469 -13.4375 Z M 5.53125 -12.910156 L 5.855469 -13.210938 C 5.828125 -12.859375 5.804688 -12.835938 5.53125 -12.910156 Z M 12.410156 -12.609375 C 12.386719 -12.636719 12.359375 -12.636719 12.335938 -12.636719 L 12.410156 -12.886719 C 12.433594 -12.886719 12.460938 -12.886719 12.511719 -12.859375 C 12.460938 -12.785156 12.433594 -12.710938 12.410156 -12.609375 Z M 10.859375 -12.085938 C 10.832031 -12.109375 10.785156 -12.160156 10.785156 -12.183594 C 10.785156 -12.210938 10.832031 -12.261719 10.859375 -12.335938 C 10.910156 -12.261719 10.957031 -12.210938 10.957031 -12.160156 C 10.957031 -12.132812 10.910156 -12.109375 10.859375 -12.085938 Z M 7.253906 -12.234375 L 7.507812 -12.234375 C 7.429688 -12.085938 7.355469 -12.085938 7.253906 -12.234375 Z M 6.957031 -11.785156 C 6.90625 -11.835938 6.832031 -11.882812 6.832031 -11.910156 C 6.855469 -11.984375 6.90625 -12.035156 6.957031 -12.085938 C 6.980469 -12.058594 7.03125 -12.058594 7.054688 -12.035156 C 7.03125 -11.960938 7.003906 -11.882812 6.957031 -11.785156 Z M 10.410156 -11.632812 C 10.109375 -11.632812 10.082031 -11.683594 10.058594 -11.984375 Z M 6.582031 -11.132812 C 6.457031 -11.234375 6.230469 -11.257812 6.203125 -11.535156 C 6.429688 -11.460938 6.480469 -11.285156 6.582031 -11.132812 Z M 10.734375 -10.957031 C 10.535156 -10.785156 10.535156 -10.785156 10.410156 -11.082031 C 10.507812 -11.035156 10.609375 -11.007812 10.734375 -10.957031 Z M 7.28125 -10.507812 C 7.179688 -10.582031 7.105469 -10.660156 6.929688 -10.808594 C 7.128906 -10.859375 7.207031 -10.882812 7.332031 -10.882812 C 7.355469 -10.757812 7.355469 -10.660156 7.355469 -10.558594 C 7.332031 -10.535156 7.304688 -10.507812 7.28125 -10.507812 Z M 8.90625 -10.285156 L 8.757812 -10.382812 C 8.757812 -10.410156 8.78125 -10.433594 8.78125 -10.457031 C 8.832031 -10.410156 8.882812 -10.410156 8.933594 -10.359375 C 8.933594 -10.359375 8.90625 -10.308594 8.90625 -10.285156 Z M 7.980469 -10.132812 C 7.980469 -10.183594 8.007812 -10.257812 8.007812 -10.257812 C 8.179688 -10.234375 8.382812 -10.382812 8.558594 -10.234375 C 8.355469 -10.183594 8.207031 -10.007812 7.980469 -10.132812 Z M 8.832031 -9.90625 C 8.757812 -9.984375 8.707031 -10.058594 8.855469 -10.132812 C 8.957031 -10.058594 8.90625 -9.984375 8.832031 -9.90625 Z M 9.058594 -9.734375 C 8.980469 -9.78125 8.933594 -9.859375 8.855469 -9.90625 L 9.082031 -9.90625 C 9.105469 -9.882812 9.105469 -9.808594 9.058594 -9.734375 Z M 8.558594 -9.28125 C 8.304688 -9.359375 8.40625 -9.507812 8.40625 -9.632812 C 8.632812 -9.582031 8.582031 -9.457031 8.558594 -9.28125 Z M 9.484375 -9.28125 C 9.230469 -9.230469 9.230469 -9.230469 9.183594 -9.632812 C 9.40625 -9.582031 9.40625 -9.582031 9.484375 -9.28125 Z M 9.882812 -9.359375 C 9.808594 -9.484375 9.78125 -9.507812 9.78125 -9.53125 C 9.808594 -9.582031 9.859375 -9.609375 9.882812 -9.632812 C 9.90625 -9.609375 9.957031 -9.558594 9.957031 -9.53125 C 9.957031 -9.484375 9.933594 -9.457031 9.882812 -9.359375 Z M 7.929688 -8.980469 C 7.730469 -9.207031 7.757812 -9.230469 8.054688 -9.382812 C 8.007812 -9.230469 7.980469 -9.105469 7.929688 -8.980469 Z M 9.15625 -8.707031 C 8.90625 -8.78125 8.882812 -8.855469 9.007812 -9.15625 C 9.28125 -9.03125 9.183594 -8.855469 9.15625 -8.707031 Z M 8.179688 -8.105469 C 8.054688 -8.15625 7.980469 -8.207031 7.882812 -8.257812 C 8.054688 -8.355469 8.105469 -8.28125 8.179688 -8.105469 Z M 8.433594 -7.78125 C 8.304688 -8.007812 8.40625 -8.132812 8.558594 -8.257812 L 8.65625 -7.855469 C 8.582031 -7.855469 8.507812 -7.804688 8.433594 -7.78125 Z M 9.332031 -7.730469 C 9.230469 -7.929688 9.359375 -7.957031 9.457031 -8.007812 C 9.433594 -7.929688 9.382812 -7.855469 9.332031 -7.730469 Z M 8.40625 -6.28125 C 8.382812 -6.28125 8.382812 -6.304688 8.355469 -6.304688 L 8.53125 -6.730469 C 8.632812 -6.679688 8.707031 -6.65625 8.832031 -6.628906 Z M 9.40625 -5.054688 C 9.28125 -4.980469 9.207031 -5.003906 9.183594 -5.128906 C 9.132812 -5.277344 9.183594 -5.378906 9.359375 -5.480469 C 9.382812 -5.328125 9.382812 -5.179688 9.40625 -5.054688 Z M 8.03125 -4.277344 C 7.804688 -4.179688 7.757812 -4.304688 7.707031 -4.378906 L 7.757812 -4.453125 Z M 8.730469 -3.976562 C 8.707031 -3.953125 8.582031 -4.027344 8.433594 -4.101562 C 8.558594 -4.128906 8.632812 -4.128906 8.683594 -4.152344 C 8.933594 -4.351562 8.933594 -4.351562 9.132812 -4.179688 L 9.433594 -4.253906 C 9.433594 -4.203125 9.433594 -4.152344 9.40625 -4.152344 C 9.207031 -4.027344 8.933594 -4.179688 8.730469 -3.976562 Z M 9.359375 -3.703125 C 9.332031 -3.703125 9.28125 -3.753906 9.28125 -3.804688 C 9.28125 -3.828125 9.308594 -3.878906 9.332031 -3.878906 C 9.382812 -3.878906 9.40625 -3.851562 9.53125 -3.777344 C 9.433594 -3.753906 9.382812 -3.703125 9.359375 -3.703125 Z M 8.054688 -3.378906 C 8.179688 -3.476562 8.28125 -3.554688 8.40625 -3.628906 C 8.433594 -3.300781 8.382812 -3.253906 8.054688 -3.378906 Z M 8.730469 -3.226562 C 8.90625 -3.476562 8.90625 -3.476562 9.132812 -3.226562 Z M 8.355469 -2.953125 C 8.332031 -3.152344 8.40625 -3.175781 8.605469 -3.101562 C 8.480469 -3.027344 8.40625 -3.003906 8.355469 -2.953125 Z M 8.28125 -2.351562 C 8.207031 -2.503906 8.132812 -2.628906 8.03125 -2.753906 C 8.179688 -2.828125 8.28125 -2.851562 8.382812 -2.902344 C 8.558594 -2.675781 8.558594 -2.675781 8.28125 -2.351562 Z M 9.03125 -1.828125 C 8.90625 -2.101562 8.90625 -2.101562 9.230469 -2.226562 C 9.15625 -2.101562 9.105469 -1.976562 9.03125 -1.828125 Z M 9.03125 -1.828125 "/></g></g></g><g fill="#294ac8" fill-opacity="1"><g transform="translate(112.324251, 143.553481)"><g><path d="M 10.234375 0.101562 C 10.933594 -0.101562 11.660156 -0.125 12.359375 0.101562 C 12.535156 0.148438 12.660156 0.125 12.785156 0 C 12.984375 -0.175781 13.058594 -0.375 12.960938 -0.625 C 12.835938 -0.925781 12.835938 -1.226562 12.835938 -1.527344 L 12.859375 -4.152344 C 12.859375 -5.230469 12.835938 -6.304688 12.835938 -7.382812 C 12.835938 -9.632812 12.859375 -12.261719 12.859375 -14.511719 C 12.859375 -15.3125 12.785156 -16.113281 12.960938 -16.914062 C 13.058594 -17.3125 12.683594 -17.640625 12.308594 -17.515625 C 11.859375 -17.390625 11.382812 -17.414062 10.910156 -17.414062 C 10.734375 -17.414062 10.558594 -17.464844 10.382812 -17.515625 C 10.183594 -17.589844 9.984375 -17.613281 9.78125 -17.4375 C 9.582031 -17.265625 9.558594 -17.039062 9.632812 -16.789062 C 9.683594 -16.5625 9.734375 -16.3125 9.734375 -16.085938 L 9.734375 -10.433594 L 4.027344 -10.433594 L 4.027344 -10.832031 C 4.027344 -12.210938 4.027344 -13.9375 4.054688 -15.289062 C 4.054688 -15.835938 4.003906 -16.363281 4.179688 -16.886719 C 4.203125 -16.914062 4.203125 -16.964844 4.203125 -16.988281 C 4.226562 -17.390625 3.902344 -17.664062 3.527344 -17.539062 C 3.402344 -17.515625 3.277344 -17.414062 3.152344 -17.4375 C 2.578125 -17.4375 1.976562 -17.3125 1.402344 -17.5625 C 1.226562 -17.664062 1.050781 -17.589844 0.925781 -17.4375 C 0.75 -17.265625 0.699219 -17.0625 0.777344 -16.8125 C 0.824219 -16.664062 0.875 -16.511719 0.875 -16.363281 C 0.925781 -15.886719 0.925781 -15.4375 0.949219 -14.960938 L 0.949219 -10.632812 C 0.925781 -7.804688 0.902344 -4.480469 0.902344 -1.652344 C 0.875 -1.300781 0.851562 -0.976562 0.800781 -0.652344 C 0.726562 -0.226562 1.050781 0.101562 1.476562 0 C 1.652344 -0.0507812 1.828125 -0.101562 2 -0.101562 C 2.351562 -0.125 2.675781 -0.125 3.027344 -0.101562 C 3.152344 -0.101562 3.300781 -0.0742188 3.429688 -0.0507812 C 3.628906 0.0234375 3.828125 0.101562 4.003906 -0.0742188 C 4.179688 -0.25 4.226562 -0.449219 4.179688 -0.726562 C 4.101562 -1 4.054688 -1.300781 4.054688 -1.578125 C 4.027344 -2 4.027344 -2.425781 4.027344 -3.351562 L 4.027344 -7.304688 C 5.953125 -7.304688 7.832031 -7.332031 9.734375 -7.304688 L 9.734375 -2.152344 C 9.734375 -1.625 9.757812 -1.074219 9.558594 -0.550781 C 9.433594 -0.148438 9.832031 0.199219 10.234375 0.101562 Z M 11.757812 -15.789062 C 11.585938 -15.863281 11.433594 -15.914062 11.234375 -15.988281 C 11.460938 -16.039062 11.585938 -16.164062 11.734375 -16.039062 C 11.785156 -15.988281 11.757812 -15.886719 11.757812 -15.789062 Z M 10.757812 -16.011719 C 10.832031 -16.011719 10.910156 -16.011719 11.007812 -16.039062 C 10.910156 -15.863281 10.910156 -15.863281 10.757812 -16.011719 Z M 2.453125 -14.886719 C 2.375 -15.1875 2.628906 -15.210938 2.675781 -15.386719 L 2.800781 -15.164062 C 2.703125 -15.085938 2.578125 -15.011719 2.453125 -14.886719 Z M 10.882812 -14.863281 C 10.785156 -14.988281 10.910156 -15.113281 10.933594 -15.261719 C 11.058594 -14.960938 11.058594 -14.960938 10.882812 -14.863281 Z M 1.953125 -14.886719 C 1.925781 -14.960938 1.902344 -15.011719 1.902344 -15.0625 C 1.902344 -15.085938 1.925781 -15.136719 1.953125 -15.136719 C 2 -15.136719 2.050781 -15.113281 2.050781 -15.0625 C 2.078125 -15.0625 2.027344 -15.011719 1.953125 -14.886719 Z M 11.933594 -14.460938 C 11.933594 -14.511719 11.933594 -14.5625 11.960938 -14.585938 C 12.035156 -14.6875 12.109375 -14.660156 12.210938 -14.511719 C 12.085938 -14.488281 12.007812 -14.488281 11.933594 -14.460938 Z M 2.125 -14.1875 C 2.050781 -14.511719 2.050781 -14.511719 2.578125 -14.511719 Z M 2.726562 -14.1875 C 2.578125 -14.386719 2.675781 -14.4375 2.777344 -14.488281 C 2.800781 -14.488281 2.851562 -14.460938 2.878906 -14.4375 C 2.828125 -14.363281 2.800781 -14.285156 2.726562 -14.1875 Z M 3.078125 -14.160156 C 3.050781 -14.210938 3.050781 -14.285156 3.027344 -14.335938 C 3.050781 -14.363281 3.101562 -14.363281 3.152344 -14.363281 C 3.152344 -14.3125 3.152344 -14.238281 3.175781 -14.160156 Z M 11.757812 -13.859375 C 11.757812 -14.238281 11.808594 -14.285156 12.132812 -14.238281 Z M 1.828125 -13.859375 C 1.777344 -13.910156 1.75 -14.011719 1.777344 -14.136719 C 1.875 -14.0625 1.976562 -14.011719 2.078125 -13.960938 L 2.078125 -13.886719 C 1.976562 -13.886719 1.875 -13.835938 1.828125 -13.859375 Z M 10.957031 -13.859375 C 10.933594 -13.859375 10.910156 -13.886719 10.882812 -13.886719 L 10.957031 -14.0625 C 10.984375 -14.0625 11.007812 -14.035156 11.058594 -14.011719 Z M 11.285156 -13.4375 C 11.285156 -13.660156 11.308594 -13.8125 11.308594 -13.984375 C 11.335938 -13.8125 11.585938 -13.636719 11.285156 -13.4375 Z M 10.558594 -13.5625 L 10.808594 -13.5625 C 10.734375 -13.410156 10.660156 -13.4375 10.558594 -13.5625 Z M 3.078125 -13.234375 C 3.027344 -13.234375 3.003906 -13.234375 2.976562 -13.261719 C 3.003906 -13.3125 3.003906 -13.359375 3.027344 -13.410156 C 3.027344 -13.4375 3.078125 -13.410156 3.101562 -13.410156 Z M 12.035156 -12.085938 C 11.960938 -12.109375 11.882812 -12.132812 11.933594 -12.261719 C 12.007812 -12.261719 12.109375 -12.234375 12.183594 -12.210938 C 12.210938 -12.085938 12.109375 -12.085938 12.035156 -12.085938 Z M 11.960938 -11.609375 C 11.757812 -11.609375 11.683594 -11.683594 11.710938 -11.910156 C 11.835938 -11.882812 11.910156 -11.882812 12.007812 -11.882812 Z M 11.207031 -11.535156 C 11.082031 -11.609375 11.082031 -11.609375 11.007812 -11.785156 C 11.183594 -11.808594 11.183594 -11.808594 11.207031 -11.535156 Z M 2.601562 -11.410156 C 2.703125 -11.558594 2.753906 -11.683594 2.828125 -11.785156 C 2.953125 -11.507812 2.925781 -11.460938 2.601562 -11.410156 Z M 11.507812 -11.460938 C 11.433594 -11.507812 11.359375 -11.535156 11.359375 -11.558594 L 11.433594 -11.757812 L 11.507812 -11.757812 Z M 2.601562 -10.332031 C 2.878906 -10.582031 2.902344 -10.910156 2.925781 -11.207031 C 2.925781 -11.335938 3.003906 -11.433594 3.175781 -11.460938 C 3.175781 -11.257812 3.027344 -11.183594 2.953125 -11.058594 L 3.277344 -10.382812 L 2.976562 -10.558594 C 2.851562 -10.484375 2.851562 -10.257812 2.601562 -10.332031 Z M 11.882812 -11.160156 L 11.808594 -11.234375 C 11.808594 -11.234375 11.835938 -11.257812 11.835938 -11.285156 C 11.882812 -11.257812 11.984375 -11.234375 12.007812 -11.207031 C 12.058594 -11.160156 11.960938 -11.109375 11.882812 -11.160156 Z M 2.328125 -10.808594 C 2.203125 -10.933594 1.925781 -10.707031 1.875 -11.058594 C 2.027344 -11.132812 2.125 -11.257812 2.277344 -11.160156 C 2.402344 -11.058594 2.402344 -10.957031 2.328125 -10.808594 Z M 3.351562 -10.859375 C 3.203125 -10.933594 3.277344 -11.007812 3.328125 -11.132812 C 3.476562 -11.035156 3.453125 -10.957031 3.351562 -10.859375 Z M 10.882812 -10.734375 C 10.808594 -10.832031 10.683594 -10.910156 10.832031 -11.035156 C 10.859375 -11.058594 10.957031 -11.035156 10.984375 -11.007812 C 11.082031 -10.882812 11.007812 -10.808594 10.882812 -10.734375 Z M 1.578125 -10.382812 C 1.675781 -10.558594 1.777344 -10.558594 1.875 -10.433594 C 1.800781 -10.410156 1.703125 -10.382812 1.578125 -10.382812 Z M 3.203125 -9.808594 C 2.976562 -9.957031 2.976562 -9.957031 3.300781 -10.257812 C 3.378906 -10.207031 3.453125 -10.183594 3.554688 -10.132812 L 3.554688 -10.03125 C 3.402344 -10.007812 3.203125 -10.03125 3.203125 -9.808594 Z M 12.210938 -9.882812 C 12.058594 -9.957031 11.960938 -9.957031 11.882812 -10.03125 C 11.859375 -10.058594 11.882812 -10.15625 11.882812 -10.207031 C 11.960938 -10.207031 12.035156 -10.234375 12.085938 -10.207031 C 12.132812 -10.132812 12.132812 -10.03125 12.210938 -9.882812 Z M 7.980469 -9.582031 C 7.90625 -9.582031 7.832031 -9.609375 7.730469 -9.632812 C 7.757812 -9.65625 7.757812 -9.707031 7.78125 -9.757812 L 8.007812 -9.683594 C 8.007812 -9.632812 8.007812 -9.609375 7.980469 -9.582031 Z M 4.128906 -9.359375 C 4.078125 -9.457031 4.027344 -9.558594 3.953125 -9.65625 C 4.003906 -9.65625 4.054688 -9.683594 4.078125 -9.683594 L 4.453125 -9.484375 L 4.453125 -9.433594 Z M 11.433594 -9.28125 C 11.335938 -9.433594 11.285156 -9.53125 11.234375 -9.632812 C 11.460938 -9.609375 11.460938 -9.609375 11.433594 -9.28125 Z M 9.28125 -9.457031 C 9.257812 -9.484375 9.230469 -9.507812 9.207031 -9.558594 C 9.183594 -9.558594 9.230469 -9.609375 9.230469 -9.609375 C 9.28125 -9.609375 9.332031 -9.558594 9.40625 -9.53125 C 9.332031 -9.484375 9.308594 -9.457031 9.28125 -9.457031 Z M 9.984375 -9.433594 C 9.832031 -9.28125 9.832031 -9.28125 9.707031 -9.457031 C 9.808594 -9.558594 9.90625 -9.53125 9.984375 -9.433594 Z M 3.300781 -9.058594 C 3.175781 -9.183594 3.300781 -9.332031 3.277344 -9.484375 C 3.402344 -9.484375 3.554688 -9.484375 3.679688 -9.507812 L 3.679688 -9.433594 C 3.601562 -9.382812 3.503906 -9.332031 3.476562 -9.257812 C 3.429688 -9.183594 3.453125 -9.082031 3.300781 -9.058594 Z M 11.859375 -9.257812 L 11.609375 -9.507812 C 11.859375 -9.457031 11.859375 -9.457031 11.933594 -9.308594 C 11.910156 -9.28125 11.882812 -9.257812 11.859375 -9.257812 Z M 4.605469 -9.082031 C 4.554688 -9.082031 4.527344 -9.105469 4.503906 -9.132812 C 4.554688 -9.230469 4.578125 -9.332031 4.652344 -9.457031 C 4.828125 -9.207031 4.578125 -9.207031 4.605469 -9.082031 Z M 10.632812 -9.207031 C 10.582031 -9.207031 10.558594 -9.230469 10.507812 -9.257812 C 10.558594 -9.308594 10.582031 -9.382812 10.632812 -9.457031 C 10.632812 -9.457031 10.660156 -9.433594 10.683594 -9.433594 C 10.660156 -9.359375 10.632812 -9.28125 10.632812 -9.207031 Z M 10.234375 -9.132812 C 10.207031 -9.132812 10.183594 -9.15625 10.15625 -9.15625 C 10.183594 -9.230469 10.207031 -9.332031 10.257812 -9.40625 C 10.285156 -9.40625 10.285156 -9.40625 10.308594 -9.382812 Z M 2.25 -8.90625 C 2.300781 -9.207031 2.300781 -9.207031 2.527344 -9.207031 C 2.425781 -9.105469 2.328125 -9.007812 2.25 -8.90625 Z M 10.007812 -8.78125 L 9.734375 -8.980469 L 9.734375 -9.058594 L 10.109375 -9.132812 C 10.058594 -8.980469 10.058594 -8.90625 10.007812 -8.78125 Z M 6.203125 -8.632812 C 6.078125 -8.730469 6.03125 -8.832031 6.15625 -8.957031 C 6.253906 -9.03125 6.328125 -9.03125 6.429688 -8.882812 C 6.355469 -8.808594 6.28125 -8.730469 6.203125 -8.632812 Z M 9.507812 -8.480469 C 9.433594 -8.65625 9.40625 -8.757812 9.558594 -8.90625 C 9.632812 -8.730469 9.632812 -8.632812 9.507812 -8.480469 Z M 5.828125 -8.53125 C 5.679688 -8.65625 5.679688 -8.757812 5.855469 -8.882812 C 5.980469 -8.707031 5.980469 -8.707031 5.828125 -8.53125 Z M 8.90625 -8.257812 L 8.730469 -8.707031 C 8.882812 -8.757812 9.03125 -8.832031 9.15625 -8.882812 C 9.082031 -8.65625 9.007812 -8.457031 8.90625 -8.257812 Z M 11.585938 -8.457031 C 11.308594 -8.53125 11.308594 -8.53125 11.433594 -8.78125 Z M 10.234375 -8.304688 C 10.257812 -8.632812 10.257812 -8.632812 10.484375 -8.582031 Z M 7.15625 -8.480469 C 7.253906 -8.632812 7.253906 -8.632812 7.457031 -8.480469 Z M 2.628906 -8.257812 C 2.777344 -8.480469 2.777344 -8.480469 2.925781 -8.355469 C 2.828125 -8.332031 2.753906 -8.304688 2.628906 -8.257812 Z M 4.855469 -8.230469 C 5.078125 -8.457031 5.078125 -8.457031 5.253906 -8.332031 C 5.128906 -8.28125 5.003906 -8.257812 4.855469 -8.230469 Z M 3.175781 -8.082031 C 3.175781 -8.15625 3.203125 -8.207031 3.203125 -8.332031 C 3.351562 -8.28125 3.453125 -8.257812 3.578125 -8.230469 L 3.578125 -8.15625 Z M 8.730469 -8.082031 C 8.582031 -7.980469 8.53125 -8.105469 8.480469 -8.15625 C 8.480469 -8.179688 8.507812 -8.207031 8.507812 -8.230469 Z M 9.433594 -7.929688 C 9.332031 -7.980469 9.257812 -8.054688 9.132812 -8.15625 C 9.40625 -8.207031 9.40625 -8.207031 9.433594 -7.929688 Z M 10.933594 -7.707031 C 11.035156 -7.78125 11.109375 -7.804688 11.234375 -7.90625 C 11.183594 -7.679688 11.160156 -7.582031 10.933594 -7.707031 Z M 2.703125 -7.507812 C 2.402344 -7.507812 2.402344 -7.507812 2.425781 -7.882812 C 2.527344 -7.757812 2.601562 -7.65625 2.703125 -7.507812 Z M 3.402344 -7.40625 C 3.378906 -7.457031 3.351562 -7.480469 3.328125 -7.507812 C 3.328125 -7.53125 3.351562 -7.554688 3.378906 -7.582031 C 3.402344 -7.554688 3.429688 -7.53125 3.476562 -7.507812 C 3.453125 -7.457031 3.429688 -7.429688 3.402344 -7.40625 Z M 12.058594 -7.332031 C 11.984375 -7.332031 11.933594 -7.332031 11.910156 -7.355469 C 11.859375 -7.40625 11.808594 -7.457031 11.785156 -7.507812 C 11.785156 -7.507812 11.859375 -7.582031 11.882812 -7.582031 C 11.933594 -7.554688 11.984375 -7.53125 12.035156 -7.480469 C 12.058594 -7.457031 12.035156 -7.382812 12.058594 -7.332031 Z M 10.734375 -6.855469 C 10.683594 -6.90625 10.632812 -6.957031 10.609375 -7.03125 L 10.734375 -7.15625 C 10.757812 -7.054688 10.808594 -7.003906 10.808594 -6.957031 C 10.832031 -6.929688 10.757812 -6.90625 10.734375 -6.855469 Z M 11.835938 -6.90625 C 11.808594 -6.929688 11.757812 -6.980469 11.757812 -7.03125 L 11.835938 -7.105469 C 11.859375 -7.03125 11.910156 -7.003906 11.910156 -6.957031 C 11.910156 -6.929688 11.835938 -6.90625 11.835938 -6.90625 Z M 11.285156 -6.753906 C 11.207031 -6.855469 11.160156 -6.90625 11.082031 -6.980469 C 11.109375 -6.980469 11.132812 -7.003906 11.160156 -7.03125 C 11.285156 -7.003906 11.335938 -6.957031 11.285156 -6.753906 Z M 2.976562 -6.90625 C 2.777344 -6.730469 2.726562 -6.878906 2.628906 -6.929688 C 2.652344 -6.957031 2.675781 -6.980469 2.675781 -7.003906 C 2.777344 -6.980469 2.851562 -6.957031 2.976562 -6.90625 Z M 11.785156 -6.328125 C 11.535156 -6.429688 11.609375 -6.605469 11.609375 -6.804688 C 11.710938 -6.679688 11.785156 -6.582031 11.910156 -6.480469 C 11.859375 -6.429688 11.808594 -6.378906 11.785156 -6.328125 Z M 2.328125 -6.554688 C 2.25 -6.605469 2.203125 -6.65625 2.078125 -6.730469 C 2.175781 -6.78125 2.203125 -6.78125 2.203125 -6.78125 C 2.277344 -6.730469 2.328125 -6.679688 2.402344 -6.605469 Z M 2.476562 -6.003906 C 2.226562 -6.054688 2.226562 -6.054688 2.328125 -6.378906 C 2.503906 -6.304688 2.375 -6.128906 2.476562 -6.003906 Z M 1.925781 -5.578125 C 1.875 -5.578125 1.851562 -5.628906 1.828125 -5.65625 C 1.875 -5.679688 1.902344 -5.730469 1.953125 -5.703125 C 1.976562 -5.703125 2 -5.679688 2.078125 -5.628906 C 2 -5.605469 1.953125 -5.554688 1.925781 -5.578125 Z M 11.109375 -5.328125 C 11.082031 -5.328125 11.035156 -5.378906 10.984375 -5.40625 C 11.035156 -5.429688 11.058594 -5.480469 11.082031 -5.503906 C 11.109375 -5.503906 11.160156 -5.453125 11.234375 -5.429688 C 11.183594 -5.378906 11.132812 -5.328125 11.109375 -5.328125 Z M 10.660156 -5.027344 L 10.660156 -5.054688 C 10.507812 -5.105469 10.535156 -5.203125 10.582031 -5.355469 C 10.707031 -5.253906 10.757812 -5.152344 10.660156 -5.027344 Z M 10.910156 -4.980469 C 10.757812 -4.878906 10.757812 -4.878906 10.683594 -5.027344 C 10.734375 -5.027344 10.808594 -5.003906 10.910156 -4.980469 Z M 2.675781 -4.304688 C 2.800781 -4.429688 2.902344 -4.527344 3.027344 -4.628906 C 3.003906 -4.304688 2.953125 -4.226562 2.675781 -4.304688 Z M 2.800781 -3.828125 C 3.003906 -3.953125 3.050781 -4.128906 3.078125 -4.378906 C 3.203125 -3.976562 3.101562 -3.777344 2.800781 -3.828125 Z M 11.808594 -3.726562 C 11.585938 -4.027344 11.609375 -4.101562 11.882812 -4.277344 C 11.835938 -4.179688 11.835938 -4.128906 11.808594 -4.054688 C 11.882812 -4.027344 11.960938 -3.976562 12.058594 -3.929688 C 11.984375 -3.851562 11.910156 -3.804688 11.808594 -3.726562 Z M 1.777344 -3.753906 L 2.152344 -3.828125 C 2 -3.628906 2 -3.628906 1.777344 -3.753906 Z M 11.160156 -2.425781 L 11.082031 -2.652344 L 11.160156 -2.652344 C 11.160156 -2.578125 11.160156 -2.503906 11.183594 -2.425781 Z M 10.558594 -1.625 C 10.507812 -1.625 10.484375 -1.675781 10.457031 -1.726562 C 10.507812 -1.75 10.535156 -1.800781 10.582031 -1.800781 C 10.609375 -1.800781 10.632812 -1.75 10.683594 -1.703125 C 10.632812 -1.652344 10.582031 -1.625 10.558594 -1.625 Z M 11.882812 -1.300781 C 11.859375 -1.449219 11.835938 -1.550781 11.835938 -1.703125 C 12.058594 -1.703125 12.007812 -1.5 12.132812 -1.375 C 12.007812 -1.324219 11.933594 -1.324219 11.882812 -1.300781 Z M 1.875 -1.152344 C 1.851562 -1.152344 1.851562 -1.226562 1.851562 -1.226562 C 1.925781 -1.324219 2 -1.324219 2.101562 -1.25 C 2.050781 -1.125 1.976562 -1.074219 1.875 -1.152344 Z M 10.859375 -0.699219 C 10.808594 -0.851562 10.933594 -0.902344 11.035156 -0.925781 C 11.035156 -0.824219 11.035156 -0.699219 10.859375 -0.699219 Z M 10.859375 -0.699219 "/></g></g></g></svg>