<svg xmlns="http://www.w3.org/2000/svg" xmlns:xlink="http://www.w3.org/1999/xlink" width="250" zoomAndPan="magnify" viewBox="0 0 187.5 187.499992" height="250" preserveAspectRatio="xMidYMid meet" version="1.0"><defs><g/><clipPath id="0c11312087"><path d="M 33.667969 91 L 153 91 L 153 145.894531 L 33.667969 145.894531 Z M 33.667969 91 " clip-rule="nonzero"/></clipPath><clipPath id="ee015aa10e"><path d="M 35 31.015625 L 153.914062 31.015625 L 153.914062 85 L 35 85 Z M 35 31.015625 " clip-rule="nonzero"/></clipPath><clipPath id="4c1aa1234a"><path d="M 50.261719 45.070312 L 137.226562 45.070312 L 137.226562 132.035156 L 50.261719 132.035156 Z M 50.261719 45.070312 " clip-rule="nonzero"/></clipPath></defs><g clip-path="url(#0c11312087)"><path fill="#a1d683" d="M 151.386719 106.179688 C 151.070312 106.195312 150.835938 106.308594 150.589844 106.496094 C 150.617188 106.472656 150.621094 106.46875 150.558594 106.515625 C 150.503906 106.558594 150.445312 106.601562 150.390625 106.644531 C 150.273438 106.730469 150.160156 106.816406 150.042969 106.898438 C 149.820312 107.058594 149.597656 107.214844 149.371094 107.371094 C 148.90625 107.683594 148.433594 107.984375 147.949219 108.269531 C 147.617188 108.464844 147.28125 108.648438 146.945312 108.828125 C 146.984375 108.722656 147.027344 108.621094 147.066406 108.515625 C 147.472656 107.449219 147.84375 106.371094 148.1875 105.285156 C 148.644531 103.824219 146.347656 103.195312 145.890625 104.652344 C 145.53125 105.804688 145.128906 106.941406 144.695312 108.0625 C 144.222656 106.558594 143.832031 105.035156 143.527344 103.488281 C 143.40625 102.878906 142.640625 102.472656 142.0625 102.660156 C 141.410156 102.867188 141.101562 103.464844 141.230469 104.117188 C 141.671875 106.351562 142.289062 108.546875 143.074219 110.679688 C 143.144531 110.871094 143.234375 111.042969 143.367188 111.183594 C 142.90625 112.175781 142.417969 113.152344 141.898438 114.117188 C 141.59375 112.804688 141.347656 111.480469 141.164062 110.144531 C 141.160156 110.121094 141.15625 110.097656 141.152344 110.070312 C 141.113281 109.742188 141.046875 109.472656 140.804688 109.230469 C 140.597656 109.023438 140.257812 108.871094 139.960938 108.882812 C 139.65625 108.894531 139.335938 108.996094 139.121094 109.230469 C 138.921875 109.445312 138.734375 109.765625 138.773438 110.070312 C 139.074219 112.429688 139.535156 114.757812 140.203125 117.039062 C 139.402344 118.332031 138.546875 119.589844 137.636719 120.8125 C 137.503906 119.453125 137.4375 118.089844 137.433594 116.726562 C 137.429688 116.105469 136.886719 115.507812 136.242188 115.539062 C 135.597656 115.566406 135.050781 116.058594 135.050781 116.726562 C 135.058594 118.960938 135.246094 121.195312 135.585938 123.40625 C 134.484375 124.714844 133.316406 125.972656 132.09375 127.175781 C 125.730469 133.429688 117.847656 138.078125 109.28125 140.589844 C 100.34375 143.207031 90.75 143.503906 81.683594 141.425781 C 72.941406 139.421875 64.746094 135.246094 58.015625 129.351562 C 51.324219 123.488281 46.070312 116.019531 42.9375 107.726562 C 42.863281 107.53125 42.789062 107.335938 42.71875 107.136719 C 43.027344 107.296875 43.351562 107.429688 43.683594 107.511719 C 44.214844 107.640625 44.710938 107.636719 45.246094 107.550781 C 46.039062 107.425781 46.855469 106.972656 47.371094 106.355469 C 48.0625 105.527344 48.375 104.507812 48.238281 103.429688 C 48.113281 102.453125 47.78125 101.535156 47.402344 100.632812 C 47.046875 99.777344 46.648438 98.945312 46.179688 98.144531 C 45.324219 96.6875 44.261719 95.316406 43.03125 94.152344 C 42.402344 93.558594 41.722656 93.011719 41.011719 92.523438 C 40.582031 92.230469 40.152344 91.980469 39.671875 91.789062 C 39.011719 91.527344 38.308594 91.5625 37.667969 91.847656 C 36.785156 92.242188 36.285156 93.183594 35.886719 94.011719 C 35.457031 94.90625 35.082031 95.832031 34.777344 96.777344 C 34.1875 98.605469 33.847656 100.523438 33.730469 102.441406 C 33.671875 103.378906 33.671875 104.324219 33.730469 105.261719 C 33.785156 106.101562 33.890625 106.953125 34.148438 107.757812 C 34.398438 108.542969 34.785156 109.378906 35.425781 109.925781 C 36.207031 110.59375 37.269531 110.910156 38.269531 110.53125 C 39.246094 110.160156 40.027344 109.398438 40.464844 108.453125 C 40.507812 108.363281 40.542969 108.277344 40.582031 108.1875 C 43.464844 115.894531 48.011719 122.949219 53.878906 128.746094 C 60.511719 135.296875 68.753906 140.183594 77.707031 142.835938 C 87.039062 145.597656 97.074219 145.894531 106.566406 143.75 C 115.710938 141.679688 124.257812 137.28125 131.320312 131.132812 C 133.394531 129.324219 135.328125 127.367188 137.109375 125.28125 C 137.269531 125.308594 137.441406 125.304688 137.617188 125.265625 C 139.929688 124.753906 142.171875 123.9375 144.28125 122.871094 C 144.839844 122.589844 145.042969 121.761719 144.707031 121.242188 C 144.34375 120.675781 143.675781 120.515625 143.078125 120.816406 C 142.550781 121.085938 142.015625 121.332031 141.46875 121.566406 C 140.820312 121.832031 140.164062 122.074219 139.496094 122.292969 C 140.421875 121.050781 141.292969 119.773438 142.113281 118.460938 C 142.15625 118.453125 142.199219 118.441406 142.242188 118.425781 C 144.476562 117.632812 146.613281 116.578125 148.578125 115.257812 C 149.09375 114.910156 149.371094 114.195312 149.003906 113.632812 C 148.671875 113.121094 147.929688 112.835938 147.375 113.207031 C 146.3125 113.921875 145.203125 114.558594 144.054688 115.113281 C 144.601562 114.089844 145.121094 113.046875 145.605469 111.988281 C 145.789062 111.976562 145.96875 111.921875 146.15625 111.839844 C 148.339844 110.898438 150.351562 109.664062 152.226562 108.207031 C 152.449219 108.035156 152.578125 107.636719 152.578125 107.367188 C 152.578125 107.078125 152.445312 106.730469 152.226562 106.527344 C 152.003906 106.320312 151.707031 106.164062 151.386719 106.179688 Z M 45.695312 104.667969 C 45.707031 104.652344 45.71875 104.636719 45.71875 104.636719 C 45.71875 104.640625 45.707031 104.652344 45.695312 104.667969 Z M 38.566406 94.097656 C 38.546875 94.121094 38.527344 94.148438 38.503906 94.175781 C 38.523438 94.144531 38.542969 94.117188 38.566406 94.097656 Z M 37.054688 108.195312 C 36.996094 108.152344 36.964844 108.117188 37.054688 108.195312 Z M 39.246094 103.746094 C 39.050781 104.085938 38.957031 104.488281 38.949219 104.878906 C 38.835938 105.679688 38.703125 106.484375 38.410156 107.246094 C 38.351562 107.367188 38.292969 107.488281 38.226562 107.601562 C 38.179688 107.675781 38.132812 107.75 38.082031 107.820312 C 38.066406 107.839844 38.050781 107.855469 38.046875 107.863281 C 37.992188 107.921875 37.9375 107.984375 37.878906 108.039062 C 37.84375 108.070312 37.808594 108.101562 37.773438 108.132812 C 37.765625 108.140625 37.757812 108.144531 37.75 108.152344 C 37.71875 108.171875 37.6875 108.191406 37.652344 108.210938 C 37.621094 108.230469 37.589844 108.246094 37.558594 108.265625 C 37.5 108.285156 37.441406 108.300781 37.378906 108.316406 C 37.355469 108.316406 37.328125 108.316406 37.304688 108.316406 C 37.265625 108.308594 37.230469 108.296875 37.195312 108.285156 C 37.179688 108.277344 37.160156 108.269531 37.144531 108.257812 C 37.121094 108.246094 37.097656 108.230469 37.074219 108.210938 C 37.003906 108.148438 36.941406 108.085938 36.875 108.015625 C 36.886719 108.035156 36.902344 108.054688 36.917969 108.078125 C 36.898438 108.050781 36.878906 108.023438 36.859375 108 C 36.859375 107.996094 36.859375 107.996094 36.859375 107.996094 C 36.851562 107.988281 36.84375 107.980469 36.835938 107.972656 C 36.792969 107.921875 36.761719 107.855469 36.804688 107.90625 C 36.777344 107.867188 36.75 107.824219 36.726562 107.78125 C 36.660156 107.671875 36.605469 107.5625 36.554688 107.449219 C 36.375 106.976562 36.253906 106.480469 36.175781 105.980469 C 35.976562 104.34375 36.035156 102.65625 36.242188 101.023438 C 36.496094 99.242188 36.960938 97.496094 37.652344 95.832031 C 37.839844 95.402344 38.039062 94.976562 38.269531 94.566406 C 38.328125 94.457031 38.390625 94.347656 38.460938 94.242188 C 38.472656 94.226562 38.484375 94.207031 38.496094 94.1875 C 38.507812 94.171875 38.519531 94.160156 38.53125 94.144531 C 38.570312 94.101562 38.609375 94.058594 38.652344 94.019531 C 38.660156 94.011719 38.667969 94.003906 38.679688 93.992188 C 38.6875 93.988281 38.695312 93.984375 38.699219 93.980469 C 38.699219 93.980469 38.703125 93.980469 38.707031 93.976562 C 38.710938 93.976562 38.714844 93.976562 38.71875 93.976562 C 38.789062 93.996094 38.859375 94.015625 38.929688 94.039062 C 39.210938 94.175781 39.476562 94.347656 39.738281 94.523438 C 39.859375 94.605469 39.980469 94.6875 40.097656 94.777344 C 40.160156 94.820312 40.226562 94.867188 40.289062 94.914062 C 40.296875 94.921875 40.304688 94.929688 40.316406 94.933594 C 40.832031 95.34375 41.320312 95.78125 41.777344 96.253906 C 42.019531 96.5 42.257812 96.753906 42.480469 97.015625 C 42.589844 97.140625 42.695312 97.269531 42.796875 97.394531 C 42.839844 97.445312 42.878906 97.496094 42.917969 97.546875 C 42.90625 97.53125 42.894531 97.515625 42.882812 97.496094 C 42.902344 97.523438 42.925781 97.550781 42.945312 97.582031 C 42.949219 97.582031 42.949219 97.585938 42.953125 97.589844 C 42.972656 97.617188 43.003906 97.660156 43.007812 97.664062 C 43.410156 98.203125 43.785156 98.761719 44.125 99.34375 C 44.519531 100.015625 44.871094 100.714844 45.179688 101.429688 C 45.472656 102.136719 45.75 102.871094 45.878906 103.625 C 45.894531 103.800781 45.894531 103.976562 45.882812 104.152344 C 45.863281 104.253906 45.835938 104.347656 45.804688 104.445312 C 45.753906 104.539062 45.703125 104.632812 45.644531 104.722656 C 45.597656 104.777344 45.546875 104.828125 45.496094 104.878906 C 45.464844 104.90625 45.433594 104.933594 45.402344 104.957031 C 45.386719 104.96875 45.371094 104.980469 45.355469 104.992188 C 45.269531 105.046875 45.179688 105.09375 45.089844 105.136719 C 44.972656 105.179688 44.851562 105.210938 44.730469 105.234375 C 44.625 105.242188 44.515625 105.242188 44.410156 105.238281 C 44.285156 105.210938 44.160156 105.175781 44.039062 105.132812 C 43.851562 105.046875 43.667969 104.949219 43.492188 104.835938 C 43.382812 104.769531 43.277344 104.695312 43.171875 104.621094 C 43.082031 104.558594 42.742188 104.285156 43.042969 104.53125 C 42.644531 104.199219 42.238281 103.871094 41.832031 103.546875 C 41.785156 103.511719 41.738281 103.476562 41.695312 103.445312 C 41.660156 103.417969 41.625 103.390625 41.589844 103.359375 C 40.847656 102.796875 39.734375 102.90625 39.246094 103.746094 Z M 39.246094 103.746094 " fill-opacity="1" fill-rule="nonzero"/></g><g clip-path="url(#ee015aa10e)"><path fill="#a1d683" d="M 153.585938 69.101562 C 153.457031 68.363281 153.203125 67.589844 152.75 66.984375 C 152.152344 66.195312 151.261719 65.613281 150.226562 65.699219 C 149.070312 65.792969 148.15625 66.480469 147.492188 67.390625 C 147.285156 67.667969 147.117188 67.972656 146.972656 68.292969 C 144.082031 60.753906 139.59375 53.855469 133.839844 48.167969 C 127.207031 41.613281 118.960938 36.726562 110.011719 34.074219 C 100.679688 31.3125 90.640625 31.015625 81.152344 33.164062 C 72.003906 35.234375 63.457031 39.632812 56.398438 45.78125 C 54.359375 47.558594 52.453125 49.480469 50.695312 51.527344 C 50.519531 51.492188 50.328125 51.488281 50.132812 51.53125 C 47.820312 52.042969 45.578125 52.859375 43.46875 53.929688 C 42.914062 54.210938 42.707031 55.039062 43.042969 55.554688 C 43.410156 56.121094 44.078125 56.28125 44.671875 55.980469 C 45.199219 55.714844 45.738281 55.464844 46.28125 55.230469 C 46.949219 54.957031 47.632812 54.707031 48.324219 54.484375 C 47.390625 55.730469 46.507812 57.015625 45.675781 58.332031 C 45.621094 58.339844 45.5625 58.355469 45.507812 58.375 C 43.273438 59.167969 41.136719 60.21875 39.171875 61.539062 C 38.65625 61.886719 38.382812 62.601562 38.746094 63.164062 C 39.074219 63.679688 39.820312 63.964844 40.375 63.59375 C 41.445312 62.871094 42.570312 62.226562 43.734375 61.664062 C 43.179688 62.699219 42.65625 63.746094 42.164062 64.808594 C 41.972656 64.820312 41.789062 64.875 41.59375 64.960938 C 39.414062 65.902344 37.398438 67.136719 35.523438 68.59375 C 35.300781 68.765625 35.175781 69.164062 35.175781 69.433594 C 35.175781 69.722656 35.304688 70.070312 35.523438 70.273438 C 35.75 70.480469 36.046875 70.632812 36.363281 70.621094 C 36.683594 70.605469 36.914062 70.488281 37.164062 70.304688 C 37.136719 70.324219 37.128906 70.328125 37.191406 70.28125 C 37.25 70.238281 37.304688 70.195312 37.363281 70.152344 C 37.480469 70.066406 37.59375 69.980469 37.710938 69.898438 C 37.929688 69.738281 38.15625 69.582031 38.382812 69.425781 C 38.847656 69.113281 39.320312 68.816406 39.800781 68.53125 C 40.136719 68.332031 40.476562 68.144531 40.820312 67.960938 C 40.765625 68.105469 40.707031 68.25 40.652344 68.394531 C 40.246094 69.460938 39.875 70.539062 39.535156 71.628906 C 39.078125 73.089844 41.375 73.714844 41.832031 72.257812 C 42.203125 71.074219 42.613281 69.90625 43.066406 68.75 C 43.535156 70.25 43.925781 71.769531 44.226562 73.3125 C 44.347656 73.921875 45.113281 74.328125 45.691406 74.140625 C 46.34375 73.929688 46.652344 73.335938 46.523438 72.679688 C 46.082031 70.449219 45.46875 68.253906 44.683594 66.117188 C 44.613281 65.933594 44.527344 65.765625 44.402344 65.628906 C 44.859375 64.640625 45.347656 63.671875 45.863281 62.71875 C 46.167969 64.019531 46.410156 65.332031 46.59375 66.652344 C 46.59375 66.675781 46.597656 66.703125 46.601562 66.726562 C 46.644531 67.054688 46.707031 67.324219 46.949219 67.566406 C 47.15625 67.773438 47.496094 67.929688 47.792969 67.914062 C 48.101562 67.902344 48.421875 67.800781 48.636719 67.566406 C 48.832031 67.351562 49.023438 67.03125 48.984375 66.726562 C 48.683594 64.382812 48.222656 62.070312 47.5625 59.800781 C 48.363281 58.515625 49.214844 57.261719 50.121094 56.046875 C 50.25 57.386719 50.316406 58.730469 50.320312 60.074219 C 50.324219 60.695312 50.867188 61.292969 51.511719 61.261719 C 52.15625 61.234375 52.703125 60.742188 52.703125 60.074219 C 52.695312 57.859375 52.511719 55.648438 52.175781 53.457031 C 53.269531 52.164062 54.417969 50.921875 55.625 49.734375 C 61.988281 43.484375 69.871094 38.832031 78.4375 36.320312 C 87.375 33.703125 96.96875 33.410156 106.035156 35.488281 C 114.78125 37.492188 122.976562 41.667969 129.703125 47.5625 C 136.214844 53.265625 141.367188 60.496094 144.527344 68.527344 C 143.988281 68.25 143.40625 68.085938 142.75 68.109375 C 141.824219 68.148438 140.964844 68.496094 140.277344 69.113281 C 139.519531 69.789062 139.148438 70.789062 139.125 71.785156 C 139.101562 72.761719 139.382812 73.765625 139.664062 74.691406 C 139.9375 75.582031 140.277344 76.449219 140.664062 77.296875 C 141.378906 78.855469 142.320312 80.300781 143.441406 81.601562 C 143.949219 82.191406 144.503906 82.742188 145.097656 83.246094 C 146.015625 84.019531 147.03125 84.789062 148.304688 84.542969 C 149.378906 84.335938 150.0625 83.339844 150.589844 82.472656 C 151.042969 81.71875 151.445312 80.933594 151.796875 80.128906 C 152.550781 78.390625 153.109375 76.589844 153.414062 74.722656 C 153.71875 72.882812 153.914062 70.953125 153.585938 69.101562 Z M 141.707031 71.054688 C 141.6875 71.078125 141.675781 71.09375 141.675781 71.09375 C 141.675781 71.089844 141.6875 71.074219 141.707031 71.054688 Z M 144.617188 79.3125 C 144.617188 79.316406 144.695312 79.421875 144.71875 79.453125 C 144.679688 79.410156 144.621094 79.347656 144.617188 79.3125 Z M 147.785156 82.25 C 147.785156 82.25 147.785156 82.246094 147.789062 82.242188 C 147.785156 82.246094 147.785156 82.25 147.785156 82.25 Z M 151.199219 73.558594 C 150.9375 75.390625 150.457031 77.191406 149.75 78.902344 C 149.449219 79.597656 149.113281 80.277344 148.734375 80.933594 C 148.542969 81.265625 148.347656 81.601562 148.121094 81.910156 C 148.117188 81.917969 148.113281 81.921875 148.109375 81.925781 C 148.101562 81.9375 148.09375 81.941406 148.089844 81.949219 C 148.03125 82.019531 147.964844 82.085938 147.898438 82.148438 C 147.894531 82.152344 147.875 82.171875 147.851562 82.1875 C 147.828125 82.203125 147.804688 82.214844 147.785156 82.230469 C 147.746094 82.21875 147.703125 82.207031 147.664062 82.195312 C 147.574219 82.148438 147.488281 82.101562 147.40625 82.050781 C 147.332031 82.003906 147.265625 81.957031 147.195312 81.90625 C 147.171875 81.890625 147.152344 81.875 147.128906 81.859375 C 146.925781 81.695312 146.726562 81.53125 146.53125 81.359375 C 146.105469 80.984375 145.703125 80.582031 145.320312 80.15625 C 145.125 79.9375 144.933594 79.714844 144.75 79.484375 C 144.742188 79.476562 144.734375 79.46875 144.726562 79.457031 C 144.71875 79.453125 144.710938 79.4375 144.691406 79.410156 C 144.671875 79.386719 144.652344 79.363281 144.632812 79.335938 C 144.539062 79.210938 144.449219 79.089844 144.359375 78.960938 C 144.015625 78.480469 143.699219 77.976562 143.40625 77.460938 C 143.089844 76.898438 142.804688 76.320312 142.550781 75.730469 C 142.101562 74.636719 141.707031 73.480469 141.523438 72.308594 C 141.5 72.066406 141.496094 71.828125 141.515625 71.589844 C 141.539062 71.484375 141.566406 71.378906 141.597656 71.277344 C 141.644531 71.183594 141.699219 71.089844 141.753906 71 C 141.800781 70.945312 141.847656 70.898438 141.898438 70.847656 C 141.929688 70.820312 141.960938 70.796875 141.988281 70.769531 C 142.003906 70.757812 142.019531 70.746094 142.035156 70.738281 C 142.117188 70.683594 142.203125 70.640625 142.296875 70.59375 C 142.414062 70.554688 142.539062 70.519531 142.660156 70.496094 C 142.773438 70.488281 142.890625 70.488281 143.003906 70.492188 C 143.113281 70.515625 143.222656 70.546875 143.328125 70.585938 C 143.539062 70.6875 143.738281 70.808594 143.929688 70.945312 C 143.929688 70.945312 143.933594 70.945312 143.933594 70.949219 C 143.921875 70.9375 143.902344 70.921875 143.886719 70.90625 C 143.933594 70.949219 143.984375 70.984375 144.03125 71.023438 C 144.144531 71.121094 144.257812 71.214844 144.367188 71.316406 C 144.789062 71.699219 145.179688 72.109375 145.59375 72.5 C 145.769531 72.664062 145.960938 72.804688 146.171875 72.914062 C 146.828125 73.585938 148.15625 73.195312 148.238281 72.253906 C 148.359375 72.03125 148.429688 71.796875 148.472656 71.550781 C 148.636719 70.832031 148.804688 70.109375 149.074219 69.417969 C 149.148438 69.257812 149.226562 69.097656 149.316406 68.941406 C 149.371094 68.847656 149.429688 68.753906 149.492188 68.664062 C 149.496094 68.660156 149.5 68.652344 149.507812 68.640625 C 149.519531 68.628906 149.53125 68.617188 149.535156 68.609375 C 149.601562 68.53125 149.675781 68.457031 149.75 68.386719 C 149.777344 68.359375 149.808594 68.332031 149.839844 68.304688 C 149.84375 68.300781 149.851562 68.296875 149.855469 68.289062 C 149.867188 68.28125 149.878906 68.273438 149.882812 68.269531 C 149.925781 68.246094 149.964844 68.21875 150.007812 68.191406 C 150.042969 68.171875 150.082031 68.148438 150.121094 68.128906 C 150.191406 68.105469 150.261719 68.085938 150.328125 68.070312 C 150.363281 68.070312 150.394531 68.070312 150.425781 68.070312 C 150.453125 68.074219 150.480469 68.082031 150.503906 68.089844 C 150.554688 68.117188 150.601562 68.144531 150.644531 68.171875 C 150.648438 68.175781 150.652344 68.179688 150.65625 68.183594 C 150.703125 68.226562 150.742188 68.269531 150.785156 68.316406 C 150.816406 68.363281 150.851562 68.414062 150.878906 68.460938 C 150.925781 68.539062 150.964844 68.621094 151.007812 68.699219 C 151.148438 69.074219 151.242188 69.460938 151.304688 69.855469 C 151.449219 71.078125 151.355469 72.339844 151.199219 73.558594 Z M 151.199219 73.558594 " fill-opacity="1" fill-rule="nonzero"/></g><g fill="#007938" fill-opacity="1"><g transform="translate(45.636664, 170.474291)"><g><path d="M 3.421875 1.96875 L 1.28125 0.734375 L 7.171875 -9.515625 L 13.0625 -6.140625 L 12.03125 -4.359375 L 8.28125 -6.5 L 6.765625 -3.859375 L 10.25 -1.859375 L 9.234375 -0.078125 L 5.75 -2.078125 Z M 3.421875 1.96875 "/></g></g></g><g fill="#007938" fill-opacity="1"><g transform="translate(54.017285, 175.261469)"><g><path d="M 1.359375 0.59375 L 6.09375 -10.25 L 8.40625 -9.234375 L 4.5 -0.296875 L 8.890625 1.625 L 8.0625 3.53125 Z M 1.359375 0.59375 "/></g></g></g><g fill="#007938" fill-opacity="1"><g transform="translate(63.143702, 179.248072)"><g><path d="M 6.984375 -5.140625 L 10.765625 -9.078125 L 13.328125 -8.296875 L 7.46875 -2.53125 L 6.125 1.875 L 3.75 1.140625 L 5.0625 -3.171875 L 3.453125 -11.3125 L 6.046875 -10.515625 Z M 6.984375 -5.140625 "/></g></g></g><g fill="#007938" fill-opacity="1"><g transform="translate(73.700904, 182.499159)"><g><path d="M 11.03125 1.78125 L 8.5625 1.375 L 9.375 -3.671875 L 4.765625 -4.40625 L 3.953125 0.640625 L 1.46875 0.234375 L 3.359375 -11.4375 L 5.84375 -11.03125 L 5.09375 -6.453125 L 9.703125 -5.71875 L 10.453125 -10.296875 L 12.921875 -9.890625 Z M 11.03125 1.78125 "/></g></g></g><g fill="#007938" fill-opacity="1"><g transform="translate(86.746054, 184.366978)"><g/></g></g><g fill="#007938" fill-opacity="1"><g transform="translate(91.49614, 184.77474)"><g><path d="M 10.421875 -12.140625 L 6.75 -0.203125 L 4.015625 -0.125 L -0.34375 -11.828125 L 2.1875 -11.90625 L 4.609375 -4.921875 C 4.648438 -4.804688 4.71875 -4.585938 4.8125 -4.265625 C 4.914062 -3.941406 5.015625 -3.597656 5.109375 -3.234375 C 5.210938 -2.878906 5.285156 -2.582031 5.328125 -2.34375 C 5.347656 -2.582031 5.394531 -2.882812 5.46875 -3.25 C 5.539062 -3.613281 5.613281 -3.957031 5.6875 -4.28125 C 5.757812 -4.613281 5.816406 -4.835938 5.859375 -4.953125 L 7.890625 -12.0625 Z M 10.421875 -12.140625 "/></g></g></g><g fill="#007938" fill-opacity="1"><g transform="translate(102.736692, 184.294478)"><g><path d="M 1.46875 -0.1875 L -0.015625 -11.921875 L 2.484375 -12.234375 L 3.96875 -0.5 Z M 1.46875 -0.1875 "/></g></g></g><g fill="#007938" fill-opacity="1"><g transform="translate(108.709541, 183.664869)"><g><path d="M 8.5 -1.953125 L 7.046875 -4.5 L 2.84375 -3.53125 L 2.640625 -0.609375 L 0 0 L 1.40625 -12.515625 L 4.390625 -13.1875 L 11.140625 -2.546875 Z M 5.984375 -6.421875 L 4.53125 -8.921875 C 4.445312 -9.066406 4.328125 -9.273438 4.171875 -9.546875 C 4.015625 -9.816406 3.859375 -10.082031 3.703125 -10.34375 C 3.554688 -10.613281 3.4375 -10.851562 3.34375 -11.0625 C 3.332031 -10.832031 3.316406 -10.546875 3.296875 -10.203125 C 3.273438 -9.867188 3.253906 -9.550781 3.234375 -9.25 C 3.222656 -8.945312 3.207031 -8.734375 3.1875 -8.609375 L 2.984375 -5.734375 Z M 5.984375 -6.421875 "/></g></g></g><g fill="#007938" fill-opacity="1"><g transform="translate(120.301243, 180.83)"><g><path d="M 1.34375 3.21875 C 1.039062 3.320312 0.765625 3.394531 0.515625 3.4375 C 0.273438 3.488281 0.0625 3.515625 -0.125 3.515625 L -0.78125 1.546875 C -0.601562 1.523438 -0.414062 1.5 -0.21875 1.46875 C -0.0195312 1.4375 0.179688 1.382812 0.390625 1.3125 C 0.671875 1.21875 0.898438 1.082031 1.078125 0.90625 C 1.253906 0.726562 1.359375 0.472656 1.390625 0.140625 C 1.429688 -0.179688 1.359375 -0.617188 1.171875 -1.171875 L -2.375 -11.671875 L 0.015625 -12.484375 L 3.546875 -2 C 3.878906 -1.039062 3.992188 -0.21875 3.890625 0.46875 C 3.785156 1.164062 3.507812 1.738281 3.0625 2.1875 C 2.613281 2.632812 2.039062 2.976562 1.34375 3.21875 Z M 1.34375 3.21875 "/></g></g></g><g fill="#007938" fill-opacity="1"><g transform="translate(125.944249, 178.9935)"><g><path d="M 7.59375 -3.328125 L 1.359375 -0.59375 L -3.375 -11.421875 L 2.859375 -14.15625 L 3.671875 -12.28125 L -0.25 -10.5625 L 0.796875 -8.171875 L 4.453125 -9.765625 L 5.28125 -7.890625 L 1.625 -6.296875 L 2.84375 -3.515625 L 6.765625 -5.234375 Z M 7.59375 -3.328125 "/></g></g></g><g fill="#007938" fill-opacity="1"><g transform="translate(134.940988, 175.019488)"><g><path d="M 5.703125 -7.0625 C 6.054688 -6.457031 6.21875 -5.84375 6.1875 -5.21875 C 6.15625 -4.601562 5.921875 -4.007812 5.484375 -3.4375 C 5.054688 -2.875 4.441406 -2.363281 3.640625 -1.90625 C 3.285156 -1.707031 2.925781 -1.53125 2.5625 -1.375 C 2.195312 -1.226562 1.832031 -1.109375 1.46875 -1.015625 C 1.101562 -0.929688 0.742188 -0.875 0.390625 -0.84375 L -0.78125 -2.875 C -0.175781 -2.9375 0.4375 -3.03125 1.0625 -3.15625 C 1.6875 -3.289062 2.253906 -3.503906 2.765625 -3.796875 C 3.128906 -4.003906 3.394531 -4.21875 3.5625 -4.4375 C 3.726562 -4.65625 3.8125 -4.875 3.8125 -5.09375 C 3.820312 -5.3125 3.765625 -5.523438 3.640625 -5.734375 C 3.492188 -5.992188 3.28125 -6.160156 3 -6.234375 C 2.71875 -6.316406 2.378906 -6.347656 1.984375 -6.328125 C 1.597656 -6.316406 1.160156 -6.304688 0.671875 -6.296875 C 0.367188 -6.253906 0.03125 -6.234375 -0.34375 -6.234375 C -0.71875 -6.234375 -1.09375 -6.273438 -1.46875 -6.359375 C -1.851562 -6.441406 -2.222656 -6.601562 -2.578125 -6.84375 C -2.941406 -7.09375 -3.257812 -7.453125 -3.53125 -7.921875 C -3.882812 -8.535156 -4.039062 -9.140625 -4 -9.734375 C -3.96875 -10.335938 -3.753906 -10.90625 -3.359375 -11.4375 C -2.972656 -11.96875 -2.425781 -12.4375 -1.71875 -12.84375 C -1.1875 -13.15625 -0.640625 -13.382812 -0.078125 -13.53125 C 0.472656 -13.6875 1.078125 -13.796875 1.734375 -13.859375 L 2 -11.78125 C 1.414062 -11.695312 0.90625 -11.597656 0.46875 -11.484375 C 0.03125 -11.378906 -0.378906 -11.210938 -0.765625 -10.984375 C -1.035156 -10.828125 -1.238281 -10.648438 -1.375 -10.453125 C -1.507812 -10.265625 -1.582031 -10.0625 -1.59375 -9.84375 C -1.601562 -9.632812 -1.546875 -9.425781 -1.421875 -9.21875 C -1.285156 -8.976562 -1.097656 -8.8125 -0.859375 -8.71875 C -0.628906 -8.632812 -0.328125 -8.597656 0.046875 -8.609375 C 0.429688 -8.628906 0.894531 -8.660156 1.4375 -8.703125 C 2.101562 -8.753906 2.695312 -8.75 3.21875 -8.6875 C 3.75 -8.632812 4.21875 -8.484375 4.625 -8.234375 C 5.039062 -7.992188 5.398438 -7.601562 5.703125 -7.0625 Z M 5.703125 -7.0625 "/></g></g></g><g fill="#007938" fill-opacity="1"><g transform="translate(23.078348, 54.699776)"><g><path d="M -4.328125 -15.40625 L 3.578125 -5.734375 L 2.125 -3.40625 L -10.03125 -6.265625 L -8.6875 -8.40625 L -1.546875 -6.5625 C -1.421875 -6.53125 -1.195312 -6.46875 -0.875 -6.375 C -0.550781 -6.28125 -0.210938 -6.171875 0.140625 -6.046875 C 0.492188 -5.929688 0.78125 -5.828125 1 -5.734375 C 0.8125 -5.878906 0.585938 -6.082031 0.328125 -6.34375 C 0.0664062 -6.613281 -0.175781 -6.867188 -0.40625 -7.109375 C -0.644531 -7.347656 -0.804688 -7.519531 -0.890625 -7.625 L -5.671875 -13.25 Z M -4.328125 -15.40625 "/></g></g></g><g fill="#007938" fill-opacity="1"><g transform="translate(28.601086, 46.036899)"><g><path d="M 0.90625 -1.171875 L -8.484375 -8.359375 L -6.953125 -10.359375 L 2.4375 -3.171875 Z M 0.90625 -1.171875 "/></g></g></g><g fill="#007938" fill-opacity="1"><g transform="translate(31.495646, 41.971262)"><g><path d="M 5.96875 -6.359375 L 3.34375 -7.65625 L 0.390625 -4.515625 L 1.84375 -1.96875 L 0 0 L -5.796875 -11.171875 L -3.703125 -13.40625 L 7.8125 -8.328125 Z M 1.375 -8.671875 L -1.203125 -9.921875 C -1.367188 -10.003906 -1.585938 -10.113281 -1.859375 -10.25 C -2.128906 -10.382812 -2.40625 -10.519531 -2.6875 -10.65625 C -2.96875 -10.800781 -3.207031 -10.925781 -3.40625 -11.03125 C -3.28125 -10.84375 -3.128906 -10.601562 -2.953125 -10.3125 C -2.773438 -10.019531 -2.613281 -9.742188 -2.46875 -9.484375 C -2.320312 -9.222656 -2.21875 -9.035156 -2.15625 -8.921875 L -0.734375 -6.421875 Z M 1.375 -8.671875 "/></g></g></g><g fill="#007938" fill-opacity="1"><g transform="translate(39.054947, 34.098281)"><g><path d="M 2.484375 2.453125 C 2.242188 2.671875 2.015625 2.847656 1.796875 2.984375 C 1.585938 3.117188 1.398438 3.222656 1.234375 3.296875 L -0.140625 1.734375 C 0.015625 1.640625 0.179688 1.539062 0.359375 1.4375 C 0.535156 1.332031 0.707031 1.207031 0.875 1.0625 C 1.09375 0.875 1.25 0.660156 1.34375 0.421875 C 1.445312 0.191406 1.445312 -0.078125 1.34375 -0.390625 C 1.25 -0.710938 1.007812 -1.09375 0.625 -1.53125 L -6.65625 -9.890625 L -4.765625 -11.546875 L 2.515625 -3.203125 C 3.179688 -2.429688 3.597656 -1.707031 3.765625 -1.03125 C 3.929688 -0.351562 3.898438 0.273438 3.671875 0.859375 C 3.441406 1.441406 3.046875 1.972656 2.484375 2.453125 Z M 2.484375 2.453125 "/></g></g></g><g fill="#007938" fill-opacity="1"><g transform="translate(42.699116, 30.688715)"><g><path d="M 7.109375 -5.046875 L 4.796875 -6.859375 L 1.28125 -4.359375 L 2.203125 -1.5625 L 0 0 L -3.46875 -12.109375 L -0.96875 -13.875 L 9.3125 -6.609375 Z M 3.078125 -8.21875 L 0.78125 -9.953125 C 0.632812 -10.066406 0.441406 -10.21875 0.203125 -10.40625 C -0.0351562 -10.601562 -0.273438 -10.796875 -0.515625 -10.984375 C -0.753906 -11.171875 -0.96875 -11.34375 -1.15625 -11.5 C -1.0625 -11.28125 -0.957031 -11.007812 -0.84375 -10.6875 C -0.726562 -10.375 -0.625 -10.070312 -0.53125 -9.78125 C -0.4375 -9.5 -0.367188 -9.289062 -0.328125 -9.15625 L 0.578125 -6.4375 Z M 3.078125 -8.21875 "/></g></g></g><g fill="#007938" fill-opacity="1"><g transform="translate(51.710994, 24.471764)"><g/></g></g><g fill="#007938" fill-opacity="1"><g transform="translate(54.977654, 22.399549)"><g><path d="M 1.71875 -11.734375 C 1.28125 -11.535156 0.929688 -11.269531 0.671875 -10.9375 C 0.421875 -10.613281 0.253906 -10.238281 0.171875 -9.8125 C 0.0976562 -9.394531 0.109375 -8.929688 0.203125 -8.421875 C 0.296875 -7.921875 0.472656 -7.390625 0.734375 -6.828125 C 1.085938 -6.066406 1.484375 -5.460938 1.921875 -5.015625 C 2.359375 -4.578125 2.835938 -4.304688 3.359375 -4.203125 C 3.878906 -4.097656 4.457031 -4.191406 5.09375 -4.484375 C 5.53125 -4.691406 5.941406 -4.945312 6.328125 -5.25 C 6.710938 -5.5625 7.125 -5.925781 7.5625 -6.34375 L 8.453125 -4.421875 C 8.078125 -4.015625 7.675781 -3.660156 7.25 -3.359375 C 6.820312 -3.054688 6.320312 -2.773438 5.75 -2.515625 C 4.644531 -1.992188 3.628906 -1.796875 2.703125 -1.921875 C 1.785156 -2.046875 0.960938 -2.441406 0.234375 -3.109375 C -0.484375 -3.773438 -1.097656 -4.65625 -1.609375 -5.75 C -1.992188 -6.5625 -2.234375 -7.351562 -2.328125 -8.125 C -2.421875 -8.90625 -2.375 -9.640625 -2.1875 -10.328125 C -2 -11.023438 -1.648438 -11.65625 -1.140625 -12.21875 C -0.640625 -12.78125 0.015625 -13.25 0.828125 -13.625 C 1.359375 -13.875 1.921875 -14.054688 2.515625 -14.171875 C 3.117188 -14.285156 3.71875 -14.335938 4.3125 -14.328125 L 4.4375 -12.140625 C 3.957031 -12.140625 3.476562 -12.117188 3 -12.078125 C 2.53125 -12.035156 2.101562 -11.921875 1.71875 -11.734375 Z M 1.71875 -11.734375 "/></g></g></g><g fill="#007938" fill-opacity="1"><g transform="translate(63.857009, 18.103576)"><g><path d="M 9.953125 -9.21875 C 10.222656 -8.351562 10.359375 -7.535156 10.359375 -6.765625 C 10.367188 -5.992188 10.226562 -5.28125 9.9375 -4.625 C 9.65625 -3.96875 9.21875 -3.394531 8.625 -2.90625 C 8.03125 -2.425781 7.273438 -2.046875 6.359375 -1.765625 C 5.429688 -1.484375 4.585938 -1.378906 3.828125 -1.453125 C 3.078125 -1.523438 2.398438 -1.753906 1.796875 -2.140625 C 1.191406 -2.523438 0.671875 -3.035156 0.234375 -3.671875 C -0.191406 -4.316406 -0.539062 -5.078125 -0.8125 -5.953125 C -1.164062 -7.128906 -1.28125 -8.210938 -1.15625 -9.203125 C -1.039062 -10.191406 -0.65625 -11.046875 0 -11.765625 C 0.644531 -12.492188 1.585938 -13.046875 2.828125 -13.421875 C 4.046875 -13.796875 5.125 -13.863281 6.0625 -13.625 C 7 -13.382812 7.789062 -12.882812 8.4375 -12.125 C 9.09375 -11.363281 9.597656 -10.394531 9.953125 -9.21875 Z M 1.703125 -6.703125 C 1.941406 -5.921875 2.25 -5.273438 2.625 -4.765625 C 3 -4.265625 3.445312 -3.925781 3.96875 -3.75 C 4.488281 -3.570312 5.082031 -3.582031 5.75 -3.78125 C 6.425781 -3.988281 6.925781 -4.3125 7.25 -4.75 C 7.582031 -5.1875 7.753906 -5.71875 7.765625 -6.34375 C 7.785156 -6.96875 7.675781 -7.671875 7.4375 -8.453125 C 7.082031 -9.640625 6.578125 -10.503906 5.921875 -11.046875 C 5.273438 -11.597656 4.445312 -11.71875 3.4375 -11.40625 C 2.757812 -11.207031 2.253906 -10.890625 1.921875 -10.453125 C 1.585938 -10.015625 1.40625 -9.476562 1.375 -8.84375 C 1.351562 -8.21875 1.460938 -7.503906 1.703125 -6.703125 Z M 1.703125 -6.703125 "/></g></g></g><g fill="#007938" fill-opacity="1"><g transform="translate(75.702187, 14.413465)"><g><path d="M 11.875 -1.65625 L 8.71875 -1.21875 L 2.375 -9.359375 L 2.3125 -9.359375 C 2.382812 -8.992188 2.453125 -8.625 2.515625 -8.25 C 2.585938 -7.875 2.65625 -7.5 2.71875 -7.125 C 2.789062 -6.757812 2.863281 -6.394531 2.9375 -6.03125 L 3.703125 -0.515625 L 1.46875 -0.203125 L -0.171875 -11.921875 L 2.96875 -12.359375 L 9.28125 -4.296875 L 9.34375 -4.296875 C 9.28125 -4.660156 9.210938 -5.019531 9.140625 -5.375 C 9.078125 -5.738281 9.015625 -6.097656 8.953125 -6.453125 C 8.890625 -6.804688 8.828125 -7.160156 8.765625 -7.515625 L 7.984375 -13.0625 L 10.234375 -13.375 Z M 11.875 -1.65625 "/></g></g></g><g fill="#007938" fill-opacity="1"><g transform="translate(88.529407, 12.837248)"><g/></g></g><g fill="#007938" fill-opacity="1"><g transform="translate(92.305525, 12.441766)"><g><path d="M 11.953125 0.859375 L 8.78125 0.625 L 4.265625 -8.65625 L 4.203125 -8.671875 C 4.191406 -8.304688 4.179688 -7.929688 4.171875 -7.546875 C 4.160156 -7.160156 4.148438 -6.78125 4.140625 -6.40625 C 4.128906 -6.03125 4.117188 -5.65625 4.109375 -5.28125 L 3.71875 0.265625 L 1.484375 0.109375 L 2.328125 -11.6875 L 5.484375 -11.46875 L 9.96875 -2.265625 L 10.03125 -2.265625 C 10.039062 -2.617188 10.050781 -2.976562 10.0625 -3.34375 C 10.070312 -3.707031 10.082031 -4.070312 10.09375 -4.4375 C 10.101562 -4.800781 10.113281 -5.164062 10.125 -5.53125 L 10.53125 -11.109375 L 12.796875 -10.9375 Z M 11.953125 0.859375 "/></g></g></g><g fill="#007938" fill-opacity="1"><g transform="translate(104.964526, 13.296187)"><g><path d="M 13.25 -3 C 13.039062 -2.113281 12.742188 -1.332031 12.359375 -0.65625 C 11.972656 0.0195312 11.488281 0.566406 10.90625 0.984375 C 10.332031 1.398438 9.671875 1.671875 8.921875 1.796875 C 8.171875 1.921875 7.328125 1.875 6.390625 1.65625 C 5.441406 1.4375 4.65625 1.101562 4.03125 0.65625 C 3.414062 0.21875 2.941406 -0.3125 2.609375 -0.9375 C 2.285156 -1.570312 2.097656 -2.273438 2.046875 -3.046875 C 1.992188 -3.828125 2.070312 -4.664062 2.28125 -5.5625 C 2.5625 -6.757812 3 -7.75 3.59375 -8.53125 C 4.1875 -9.320312 4.945312 -9.867188 5.875 -10.171875 C 6.800781 -10.484375 7.894531 -10.492188 9.15625 -10.203125 C 10.40625 -9.910156 11.375 -9.421875 12.0625 -8.734375 C 12.757812 -8.054688 13.203125 -7.226562 13.390625 -6.25 C 13.578125 -5.28125 13.53125 -4.195312 13.25 -3 Z M 4.84375 -4.953125 C 4.65625 -4.148438 4.59375 -3.4375 4.65625 -2.8125 C 4.726562 -2.1875 4.941406 -1.664062 5.296875 -1.25 C 5.660156 -0.832031 6.179688 -0.546875 6.859375 -0.390625 C 7.546875 -0.234375 8.140625 -0.257812 8.640625 -0.46875 C 9.148438 -0.6875 9.570312 -1.0625 9.90625 -1.59375 C 10.238281 -2.125 10.5 -2.789062 10.6875 -3.59375 C 10.96875 -4.800781 10.960938 -5.800781 10.671875 -6.59375 C 10.378906 -7.394531 9.71875 -7.914062 8.6875 -8.15625 C 8 -8.3125 7.398438 -8.285156 6.890625 -8.078125 C 6.390625 -7.867188 5.96875 -7.5 5.625 -6.96875 C 5.289062 -6.4375 5.03125 -5.765625 4.84375 -4.953125 Z M 4.84375 -4.953125 "/></g></g></g><g fill="#007938" fill-opacity="1"><g transform="translate(117.132809, 16.222955)"><g><path d="M 9.078125 -0.078125 C 8.828125 0.566406 8.453125 1.070312 7.953125 1.4375 C 7.453125 1.8125 6.847656 2.007812 6.140625 2.03125 C 5.429688 2.0625 4.644531 1.914062 3.78125 1.59375 C 3.40625 1.445312 3.039062 1.28125 2.6875 1.09375 C 2.34375 0.914062 2.019531 0.710938 1.71875 0.484375 C 1.425781 0.253906 1.15625 0.0078125 0.90625 -0.25 L 1.734375 -2.421875 C 2.148438 -1.992188 2.609375 -1.578125 3.109375 -1.171875 C 3.609375 -0.773438 4.132812 -0.472656 4.6875 -0.265625 C 5.082031 -0.117188 5.414062 -0.0507812 5.6875 -0.0625 C 5.957031 -0.0820312 6.175781 -0.15625 6.34375 -0.28125 C 6.519531 -0.414062 6.648438 -0.597656 6.734375 -0.828125 C 6.847656 -1.109375 6.847656 -1.382812 6.734375 -1.65625 C 6.617188 -1.925781 6.425781 -2.207031 6.15625 -2.5 C 5.894531 -2.789062 5.601562 -3.113281 5.28125 -3.46875 C 5.0625 -3.6875 4.832031 -3.9375 4.59375 -4.21875 C 4.351562 -4.507812 4.144531 -4.832031 3.96875 -5.1875 C 3.789062 -5.539062 3.679688 -5.929688 3.640625 -6.359375 C 3.597656 -6.785156 3.675781 -7.25 3.875 -7.75 C 4.125 -8.414062 4.488281 -8.925781 4.96875 -9.28125 C 5.457031 -9.632812 6.03125 -9.832031 6.6875 -9.875 C 7.34375 -9.914062 8.054688 -9.789062 8.828125 -9.5 C 9.398438 -9.28125 9.921875 -9.003906 10.390625 -8.671875 C 10.859375 -8.335938 11.328125 -7.9375 11.796875 -7.46875 L 10.375 -5.9375 C 9.9375 -6.34375 9.535156 -6.675781 9.171875 -6.9375 C 8.804688 -7.195312 8.414062 -7.40625 8 -7.5625 C 7.707031 -7.675781 7.441406 -7.722656 7.203125 -7.703125 C 6.960938 -7.691406 6.753906 -7.617188 6.578125 -7.484375 C 6.410156 -7.359375 6.285156 -7.179688 6.203125 -6.953125 C 6.097656 -6.703125 6.085938 -6.457031 6.171875 -6.21875 C 6.265625 -5.976562 6.4375 -5.71875 6.6875 -5.4375 C 6.9375 -5.15625 7.25 -4.816406 7.625 -4.421875 C 8.082031 -3.941406 8.457031 -3.476562 8.75 -3.03125 C 9.050781 -2.59375 9.234375 -2.140625 9.296875 -1.671875 C 9.367188 -1.203125 9.296875 -0.671875 9.078125 -0.078125 Z M 9.078125 -0.078125 "/></g></g></g><g fill="#007938" fill-opacity="1"><g transform="translate(125.124159, 19.047727)"><g><path d="M 13.5625 0.5625 C 13.132812 1.363281 12.644531 2.035156 12.09375 2.578125 C 11.539062 3.128906 10.929688 3.53125 10.265625 3.78125 C 9.609375 4.039062 8.898438 4.128906 8.140625 4.046875 C 7.378906 3.972656 6.578125 3.710938 5.734375 3.265625 C 4.878906 2.804688 4.207031 2.28125 3.71875 1.6875 C 3.238281 1.101562 2.921875 0.46875 2.765625 -0.21875 C 2.617188 -0.914062 2.625 -1.644531 2.78125 -2.40625 C 2.9375 -3.175781 3.234375 -3.96875 3.671875 -4.78125 C 4.242188 -5.863281 4.921875 -6.707031 5.703125 -7.3125 C 6.484375 -7.914062 7.359375 -8.242188 8.328125 -8.296875 C 9.304688 -8.359375 10.367188 -8.082031 11.515625 -7.46875 C 12.640625 -6.863281 13.445312 -6.140625 13.9375 -5.296875 C 14.425781 -4.460938 14.628906 -3.546875 14.546875 -2.546875 C 14.472656 -1.554688 14.144531 -0.519531 13.5625 0.5625 Z M 5.96875 -3.515625 C 5.582031 -2.785156 5.335938 -2.109375 5.234375 -1.484375 C 5.140625 -0.867188 5.210938 -0.316406 5.453125 0.171875 C 5.691406 0.671875 6.117188 1.085938 6.734375 1.421875 C 7.359375 1.753906 7.941406 1.878906 8.484375 1.796875 C 9.023438 1.722656 9.523438 1.472656 9.984375 1.046875 C 10.441406 0.617188 10.863281 0.0390625 11.25 -0.6875 C 11.832031 -1.78125 12.085938 -2.75 12.015625 -3.59375 C 11.953125 -4.445312 11.453125 -5.125 10.515625 -5.625 C 9.890625 -5.957031 9.304688 -6.082031 8.765625 -6 C 8.222656 -5.925781 7.71875 -5.675781 7.25 -5.25 C 6.789062 -4.820312 6.363281 -4.242188 5.96875 -3.515625 Z M 5.96875 -3.515625 "/></g></g></g><g fill="#007938" fill-opacity="1"><g transform="translate(136.105427, 25.025657)"><g><path d="M 4.890625 3.546875 L 2.875 2.078125 L 8.59375 -5.796875 L 5.984375 -7.6875 L 7.203125 -9.390625 L 14.4375 -4.140625 L 13.21875 -2.4375 L 10.609375 -4.328125 Z M 4.890625 3.546875 "/></g></g></g><g fill="#007938" fill-opacity="1"><g transform="translate(143.4275, 30.235943)"><g><path d="M 11.671875 -5.3125 C 12.453125 -4.582031 13.007812 -3.882812 13.34375 -3.21875 C 13.675781 -2.550781 13.789062 -1.910156 13.6875 -1.296875 C 13.582031 -0.679688 13.257812 -0.078125 12.71875 0.515625 C 12.34375 0.910156 11.941406 1.179688 11.515625 1.328125 C 11.097656 1.484375 10.671875 1.550781 10.234375 1.53125 C 9.796875 1.507812 9.378906 1.429688 8.984375 1.296875 L 8.015625 7.4375 L 5.96875 5.546875 L 6.984375 0.3125 L 6.015625 -0.59375 L 2.9375 2.71875 L 1.09375 1.015625 L 9.140625 -7.65625 Z M 10.125 -3.921875 L 9.578125 -4.4375 L 7.40625 -2.09375 L 7.984375 -1.546875 C 8.597656 -0.984375 9.128906 -0.679688 9.578125 -0.640625 C 10.035156 -0.597656 10.445312 -0.773438 10.8125 -1.171875 C 11.195312 -1.585938 11.328125 -2.007812 11.203125 -2.4375 C 11.078125 -2.875 10.71875 -3.367188 10.125 -3.921875 Z M 10.125 -3.921875 "/></g></g></g><g fill="#007938" fill-opacity="1"><g transform="translate(151.014152, 37.102892)"><g><path d="M 12.296875 5.78125 C 11.585938 6.34375 10.875 6.769531 10.15625 7.0625 C 9.4375 7.363281 8.71875 7.503906 8 7.484375 C 7.289062 7.460938 6.597656 7.265625 5.921875 6.890625 C 5.253906 6.523438 4.617188 5.96875 4.015625 5.21875 C 3.410156 4.46875 3 3.726562 2.78125 3 C 2.5625 2.28125 2.515625 1.566406 2.640625 0.859375 C 2.773438 0.160156 3.0625 -0.507812 3.5 -1.15625 C 3.9375 -1.800781 4.515625 -2.410156 5.234375 -2.984375 C 6.179688 -3.753906 7.132812 -4.265625 8.09375 -4.515625 C 9.050781 -4.773438 9.988281 -4.738281 10.90625 -4.40625 C 11.820312 -4.070312 12.6875 -3.40625 13.5 -2.40625 C 14.300781 -1.40625 14.765625 -0.425781 14.890625 0.53125 C 15.023438 1.488281 14.863281 2.410156 14.40625 3.296875 C 13.945312 4.179688 13.242188 5.007812 12.296875 5.78125 Z M 6.875 -0.921875 C 6.226562 -0.410156 5.738281 0.109375 5.40625 0.640625 C 5.082031 1.179688 4.929688 1.722656 4.953125 2.265625 C 4.972656 2.816406 5.203125 3.363281 5.640625 3.90625 C 6.085938 4.457031 6.578125 4.800781 7.109375 4.9375 C 7.640625 5.082031 8.195312 5.046875 8.78125 4.828125 C 9.375 4.609375 9.992188 4.242188 10.640625 3.734375 C 11.597656 2.953125 12.207031 2.15625 12.46875 1.34375 C 12.738281 0.539062 12.539062 -0.269531 11.875 -1.09375 C 11.425781 -1.644531 10.9375 -1.988281 10.40625 -2.125 C 9.882812 -2.269531 9.328125 -2.238281 8.734375 -2.03125 C 8.140625 -1.820312 7.519531 -1.453125 6.875 -0.921875 Z M 6.875 -0.921875 "/></g></g></g><g fill="#007938" fill-opacity="1"><g transform="translate(158.811891, 46.892347)"><g><path d="M 7.203125 5.53125 C 6.609375 5.882812 6.003906 6.050781 5.390625 6.03125 C 4.773438 6.019531 4.175781 5.804688 3.59375 5.390625 C 3.007812 4.972656 2.476562 4.367188 2 3.578125 C 1.789062 3.234375 1.609375 2.878906 1.453125 2.515625 C 1.296875 2.160156 1.164062 1.800781 1.0625 1.4375 C 0.96875 1.082031 0.90625 0.726562 0.875 0.375 L 2.859375 -0.84375 C 2.929688 -0.238281 3.039062 0.367188 3.1875 0.984375 C 3.332031 1.597656 3.554688 2.160156 3.859375 2.671875 C 4.078125 3.023438 4.296875 3.28125 4.515625 3.4375 C 4.742188 3.59375 4.96875 3.671875 5.1875 3.671875 C 5.414062 3.679688 5.628906 3.625 5.828125 3.5 C 6.085938 3.34375 6.25 3.117188 6.3125 2.828125 C 6.382812 2.546875 6.40625 2.207031 6.375 1.8125 C 6.351562 1.425781 6.328125 0.992188 6.296875 0.515625 C 6.253906 0.203125 6.226562 -0.132812 6.21875 -0.5 C 6.21875 -0.875 6.253906 -1.253906 6.328125 -1.640625 C 6.398438 -2.035156 6.550781 -2.410156 6.78125 -2.765625 C 7.019531 -3.117188 7.367188 -3.441406 7.828125 -3.734375 C 8.429688 -4.097656 9.03125 -4.269531 9.625 -4.25 C 10.226562 -4.238281 10.800781 -4.046875 11.34375 -3.671875 C 11.882812 -3.296875 12.375 -2.757812 12.8125 -2.0625 C 13.125 -1.539062 13.363281 -1.003906 13.53125 -0.453125 C 13.695312 0.0976562 13.816406 0.703125 13.890625 1.359375 L 11.84375 1.703125 C 11.738281 1.109375 11.625 0.597656 11.5 0.171875 C 11.375 -0.253906 11.191406 -0.660156 10.953125 -1.046875 C 10.796875 -1.316406 10.617188 -1.519531 10.421875 -1.65625 C 10.222656 -1.789062 10.015625 -1.859375 9.796875 -1.859375 C 9.578125 -1.859375 9.363281 -1.796875 9.15625 -1.671875 C 8.925781 -1.535156 8.773438 -1.34375 8.703125 -1.09375 C 8.628906 -0.851562 8.601562 -0.546875 8.625 -0.171875 C 8.65625 0.203125 8.691406 0.660156 8.734375 1.203125 C 8.796875 1.867188 8.804688 2.460938 8.765625 2.984375 C 8.734375 3.515625 8.597656 3.988281 8.359375 4.40625 C 8.117188 4.820312 7.734375 5.195312 7.203125 5.53125 Z M 7.203125 5.53125 "/></g></g></g><g clip-path="url(#4c1aa1234a)"><path fill="#a1d683" d="M 93.746094 45.070312 C 69.769531 45.070312 50.261719 64.578125 50.261719 88.554688 C 50.261719 112.527344 69.769531 132.035156 93.746094 132.035156 C 117.71875 132.035156 137.226562 112.527344 137.226562 88.554688 C 137.226562 64.578125 117.71875 45.070312 93.746094 45.070312 Z M 95.105469 68.535156 C 100.671875 68.390625 106.90625 67.769531 113.648438 66.382812 C 116.070312 72.273438 117.425781 79.273438 117.640625 87.191406 L 95.105469 87.191406 Z M 95.105469 65.8125 L 95.105469 47.945312 C 96.730469 48.417969 101.234375 50.035156 105.789062 54.457031 C 108.464844 57.058594 110.707031 60.203125 112.496094 63.835938 C 106.183594 65.09375 100.339844 65.667969 95.105469 65.8125 Z M 92.382812 65.847656 C 87.589844 65.84375 83.375 65.492188 79.859375 65.015625 C 78.0625 64.769531 76.378906 64.484375 74.824219 64.179688 C 76.617188 60.457031 78.871094 57.234375 81.578125 54.578125 C 86.140625 50.097656 90.730469 48.433594 92.382812 47.949219 Z M 79.367188 67.703125 C 83.019531 68.203125 87.398438 68.574219 92.382812 68.574219 L 92.382812 87.191406 L 69.847656 87.191406 C 70.058594 79.433594 71.359375 72.554688 73.695312 66.738281 C 75.429688 67.09375 77.324219 67.421875 79.367188 67.703125 Z M 67.128906 87.191406 L 53.015625 87.191406 C 53.3125 78.183594 56.546875 69.910156 61.785156 63.292969 C 63.292969 63.90625 66.445312 65.066406 71.007812 66.148438 C 68.242188 73.261719 67.296875 80.835938 67.128906 87.191406 Z M 67.105469 89.917969 C 67.164062 98.351562 68.574219 105.066406 70.636719 110.390625 C 67.582031 111.113281 64.433594 111.992188 61.203125 113.058594 C 56.304688 106.574219 53.300781 98.585938 53.015625 89.917969 Z M 69.820312 89.917969 L 92.382812 89.917969 L 92.382812 107.53125 C 86.675781 107.683594 80.261719 108.332031 73.324219 109.789062 C 71.066406 104.121094 69.878906 97.441406 69.820312 89.917969 Z M 92.382812 110.261719 L 92.382812 128.53125 C 90.1875 127.855469 86.023438 126.183594 81.875 122.429688 C 78.835938 119.679688 76.351562 116.296875 74.441406 112.34375 C 80.964844 111.011719 86.996094 110.40625 92.382812 110.261719 Z M 95.105469 110.226562 C 99.898438 110.226562 104.113281 110.578125 107.628906 111.058594 C 109.636719 111.332031 111.5 111.652344 113.207031 112 C 111.300781 116.050781 108.800781 119.515625 105.730469 122.324219 C 101.5625 126.132812 97.328125 127.835938 95.105469 128.527344 Z M 108.117188 108.371094 C 104.46875 107.867188 100.089844 107.5 95.101562 107.496094 L 95.101562 89.917969 L 117.667969 89.917969 C 117.613281 97.285156 116.46875 103.847656 114.304688 109.4375 C 112.429688 109.046875 110.367188 108.679688 108.117188 108.371094 Z M 120.382812 89.917969 L 134.472656 89.917969 C 134.1875 98.570312 131.191406 106.550781 126.308594 113.03125 C 125.222656 112.5625 121.996094 111.269531 116.984375 110.046875 C 119.546875 103.222656 120.335938 96.019531 120.382812 89.917969 Z M 120.359375 87.191406 C 120.1875 80.730469 119.214844 73.011719 116.34375 65.796875 C 119.355469 65.101562 122.457031 64.246094 125.640625 63.21875 C 130.917969 69.847656 134.175781 78.148438 134.472656 87.191406 Z M 123.71875 60.972656 C 120.816406 61.878906 117.988281 62.632812 115.242188 63.253906 C 113.402344 59.355469 110.945312 55.675781 107.679688 52.507812 C 106.191406 51.058594 104.703125 49.882812 103.296875 48.933594 C 111.269531 50.855469 118.332031 55.128906 123.71875 60.972656 Z M 84.191406 48.933594 C 82.785156 49.882812 81.296875 51.058594 79.808594 52.507812 C 76.449219 55.765625 73.949219 59.570312 72.089844 63.59375 C 68.214844 62.695312 65.34375 61.726562 63.660156 61.09375 C 69.054688 55.183594 76.164062 50.871094 84.191406 48.933594 Z M 63.046875 115.332031 C 66.015625 114.382812 68.90625 113.59375 71.71875 112.941406 C 74.160156 118.195312 77.226562 121.894531 80.050781 124.445312 C 81.945312 126.160156 83.84375 127.480469 85.59375 128.488281 C 76.679688 126.671875 68.820312 121.9375 63.046875 115.332031 Z M 101.894531 128.488281 C 103.644531 127.476562 105.542969 126.160156 107.4375 124.445312 C 111.246094 121.003906 113.980469 116.921875 115.929688 112.601562 C 120.113281 113.605469 123.058594 114.667969 124.515625 115.246094 C 118.738281 121.898438 110.84375 126.664062 101.894531 128.488281 Z M 101.894531 128.488281 " fill-opacity="1" fill-rule="nonzero"/></g></svg>