<svg xmlns="http://www.w3.org/2000/svg" xmlns:xlink="http://www.w3.org/1999/xlink" width="250" zoomAndPan="magnify" viewBox="0 0 187.5 187.499992" height="250" preserveAspectRatio="xMidYMid meet" version="1.0"><defs><clipPath id="7277c1131b"><path d="M 2 0 L 187 0 L 187 186 L 2 186 Z M 2 0 " clip-rule="nonzero"/></clipPath></defs><path fill="#141515" d="M 121.609375 49.640625 C 122.347656 49.90625 123.300781 50.171875 123.773438 50.433594 C 125.304688 51.277344 126.730469 51.964844 128.101562 52.914062 C 141.085938 61.675781 148.15625 74.550781 149.105469 89.699219 C 149.738281 99.304688 147.628906 109.597656 142.5625 117.933594 C 138.710938 124.164062 133.222656 129.597656 125.882812 133.609375 C 125.09375 134.03125 124.089844 133.820312 123.667969 133.132812 C 123.195312 132.449219 123.457031 131.5 124.195312 131.074219 C 131.058594 127.328125 136.175781 122.316406 139.710938 116.511719 C 144.410156 108.859375 146.363281 100.097656 146.207031 91.496094 C 146.152344 89.59375 145.992188 87.746094 145.675781 85.898438 C 145.625 85.371094 145.886719 84.898438 145.78125 84.367188 C 145.203125 80.675781 143.933594 77.035156 142.300781 73.601562 C 141.558594 72.070312 140.714844 70.488281 139.816406 69.011719 C 139.183594 67.957031 137.757812 65.578125 137.019531 64.523438 C 132.695312 58.773438 126.886719 54.972656 120.078125 51.488281 C 117.546875 50.222656 119.394531 48.796875 121.609375 49.640625 " fill-opacity="1" fill-rule="nonzero"/><path fill="#000000" d="M 85.511719 131.074219 C 85.195312 130.652344 84.664062 129.917969 84.664062 129.390625 C 84.722656 128.492188 85.933594 128.386719 86.144531 129.070312 C 86.40625 129.8125 85.828125 130.496094 85.511719 131.074219 " fill-opacity="1" fill-rule="evenodd"/><path fill="#000000" d="M 92.425781 130.757812 C 91.582031 130.757812 91.050781 130.074219 91.105469 129.441406 C 91.210938 127.539062 94.113281 129.496094 92.425781 130.757812 " fill-opacity="1" fill-rule="evenodd"/><path fill="#000000" d="M 43.183594 130.917969 C 43.5 131.128906 43.660156 131.394531 43.925781 131.816406 C 44.292969 132.554688 45.292969 133.1875 45.925781 134.136719 C 46.5625 134.980469 47.457031 136.089844 47.457031 136.828125 C 47.457031 137.515625 46.507812 138.359375 45.664062 138.253906 C 45.136719 138.148438 44.554688 137.25 44.1875 136.722656 C 43.234375 135.300781 42.550781 133.875 41.386719 132.765625 C 40.125 133.132812 39.386719 133.664062 38.328125 134.402344 C 38.117188 134.613281 37.113281 135.246094 37.113281 135.300781 C 37.113281 135.457031 37.960938 136.25 38.011719 136.300781 C 38.699219 137.09375 40.125 138.78125 40.28125 139.785156 C 40.492188 140.679688 39.4375 141.527344 38.328125 141.15625 C 37.75 140.894531 36.957031 139.679688 36.585938 139.203125 C 36.007812 138.519531 35.691406 137.832031 35.054688 137.09375 C 33.367188 138.148438 31.996094 139.625 30.253906 140.734375 C 29.410156 141.316406 28.777344 141.84375 27.5625 141.949219 C 27.191406 141.367188 26.558594 140.945312 26.558594 140.207031 C 26.613281 139.890625 26.824219 139.785156 27.140625 139.308594 C 27.242188 139.097656 27.140625 138.835938 27.242188 138.675781 C 27.351562 138.570312 27.667969 138.519531 27.824219 138.359375 C 28.300781 137.9375 28.351562 137.410156 29.09375 137.675781 C 29.671875 137.570312 29.832031 136.988281 30.253906 136.617188 C 31.414062 135.5625 33.421875 134.664062 34.898438 133.453125 C 35.742188 132.710938 36.21875 131.816406 37.484375 131.5 C 37.644531 130.757812 38.117188 130.285156 39.015625 130.285156 C 39.121094 130.179688 39.171875 129.917969 39.328125 129.757812 C 39.703125 129.652344 39.753906 130.019531 39.910156 129.8125 C 39.910156 128.808594 41.28125 128.277344 41.8125 129.175781 C 42.867188 129.121094 43.445312 129.917969 43.183594 130.917969 " fill-opacity="1" fill-rule="evenodd"/><path fill="#000000" d="M 89.734375 128.859375 C 89.890625 129.390625 89.890625 130.601562 89.203125 130.601562 C 88.253906 130.601562 88.464844 128.015625 89.734375 128.859375 " fill-opacity="1" fill-rule="evenodd"/><path fill="#000000" d="M 149.476562 130.179688 C 149.210938 130.550781 148.578125 130.335938 148.578125 129.757812 C 148.789062 129.28125 149.738281 129.390625 149.476562 130.179688 " fill-opacity="1" fill-rule="evenodd"/><path fill="#000000" d="M 145.78125 135.722656 C 146.785156 136.933594 148.210938 137.675781 149.421875 138.675781 C 150.320312 137.832031 150.902344 136.566406 151.851562 135.773438 C 152.273438 135.089844 152.539062 134.03125 153.382812 133.980469 C 153.855469 133.925781 154.386719 134.296875 154.386719 134.71875 C 154.386719 135.035156 154.121094 135.089844 153.960938 135.457031 C 153.804688 135.722656 153.855469 135.984375 153.804688 136.144531 C 153.117188 137.410156 151.164062 138.730469 151.113281 139.890625 C 152.273438 141.101562 153.699219 142.054688 154.964844 143.109375 C 156.074219 141.316406 157.390625 139.785156 158.765625 138.253906 C 159.871094 138.148438 160.824219 137.78125 161.035156 138.9375 C 161.296875 140.363281 159.820312 140.785156 159.1875 141.582031 C 158.289062 142.738281 157.65625 144.480469 156.917969 145.378906 C 156.496094 145.855469 155.648438 146.433594 155.230469 146.433594 C 154.171875 146.59375 153.277344 145.589844 152.644531 145.007812 C 151.746094 144.269531 151.164062 143.585938 150.585938 143.109375 C 149.527344 142.265625 148.15625 141.582031 146.996094 140.734375 C 145.835938 139.890625 144.410156 139.046875 143.722656 138.148438 C 142.984375 137.25 143.144531 136.25 143.722656 135.246094 C 144.199219 134.402344 145.570312 132.921875 146.207031 131.816406 C 146.46875 131.445312 146.785156 130.601562 147.363281 130.496094 C 148.421875 130.335938 148.632812 131.128906 148.316406 131.921875 C 148.101562 132.34375 147.628906 132.554688 147.363281 132.976562 C 146.730469 133.875 146.363281 134.980469 145.78125 135.722656 " fill-opacity="1" fill-rule="evenodd"/><path fill="#000000" d="M 92.003906 132.871094 C 90.683594 133.347656 89.523438 133.769531 87.726562 133.558594 C 87.199219 133.980469 87.199219 134.824219 86.515625 134.875 C 85.246094 134.980469 84.824219 132.554688 86.199219 132.605469 C 86.566406 132.605469 86.671875 132.710938 86.988281 133.027344 C 87.355469 132.976562 87.460938 132.34375 87.9375 132.183594 C 88.359375 132.132812 88.675781 132.34375 89.046875 132.34375 C 89.257812 132.34375 89.46875 132.183594 89.628906 132.132812 C 90.628906 131.976562 91.6875 132.292969 92.003906 132.871094 " fill-opacity="1" fill-rule="evenodd"/><path fill="#000000" d="M 84.558594 134.402344 C 85.773438 133.980469 85.667969 136.089844 84.824219 136.144531 C 84.035156 136.25 83.71875 134.71875 84.558594 134.402344 " fill-opacity="1" fill-rule="evenodd"/><path fill="#000000" d="M 57.488281 156.832031 C 57.433594 157.886719 56.746094 159.734375 56.589844 161.476562 C 56.324219 163.21875 56.957031 165.488281 55.269531 165.59375 C 54.792969 165.644531 54.636719 165.226562 54.425781 165.226562 C 54.054688 165.226562 54.109375 165.699219 53.582031 165.539062 C 52.105469 164.535156 53.527344 163.058594 53.898438 161.265625 C 54.214844 159.46875 54.320312 158.097656 54.585938 156.199219 C 53.898438 155.988281 53.582031 155.722656 53.050781 155.25 C 52.894531 155.144531 52.367188 154.613281 52.367188 154.613281 C 51.996094 154.613281 51.363281 156.304688 51.152344 156.621094 C 50.679688 157.359375 50.152344 157.78125 49.675781 158.257812 C 49.410156 159.367188 48.671875 160.15625 47.878906 160.84375 C 47.5625 161.160156 47.40625 161.425781 47.089844 161.476562 C 45.292969 161.792969 45.1875 159.207031 46.773438 158.996094 C 46.773438 158.625 46.5625 158.574219 46.613281 158.152344 C 48.25 155.039062 50.519531 152.503906 52.527344 149.652344 C 53 148.96875 53.632812 148.226562 54.054688 147.542969 C 54.53125 146.699219 54.636719 145.800781 55.796875 145.539062 C 56.167969 145.539062 56.378906 145.644531 56.589844 145.75 C 56.746094 145.75 56.640625 145.328125 56.851562 145.328125 C 56.957031 145.328125 57.011719 145.328125 57.011719 145.273438 C 57.910156 146.011719 61.128906 147.859375 61.867188 149.074219 C 62.394531 149.8125 62.816406 150.761719 62.65625 152.082031 C 62.550781 153.347656 61.496094 154.984375 60.652344 155.722656 C 59.863281 156.355469 58.59375 156.777344 57.488281 156.832031 Z M 54.585938 153.402344 C 55.796875 153.769531 56.800781 154.613281 58.4375 154.300781 C 58.910156 153.929688 59.335938 153.558594 59.863281 153.191406 C 59.703125 152.503906 60.125 152.398438 60.285156 152.027344 C 60.125 149.8125 58.4375 149.128906 57.066406 148.070312 C 57.011719 148.070312 57.011719 148.070312 56.90625 148.070312 C 55.851562 149.445312 54.792969 150.816406 53.898438 152.34375 C 54.214844 152.554688 54.476562 152.925781 54.585938 153.402344 " fill-opacity="1" fill-rule="evenodd"/><path fill="#000000" d="M 128.050781 152.082031 C 127.890625 154.140625 129.050781 155.722656 129.949219 157.253906 C 130.582031 158.46875 131.53125 159.46875 132.21875 160.527344 C 133.011719 160.683594 133.433594 161.476562 134.328125 161.476562 C 135.28125 161.476562 136.070312 160.789062 136.757812 160.367188 C 137.339844 159.628906 137.285156 155.777344 138.972656 156.199219 C 139.449219 156.355469 139.921875 157.886719 139.871094 158.519531 C 139.871094 159.050781 139.238281 160.367188 138.972656 160.789062 C 138.605469 161.425781 137.601562 162.582031 136.917969 162.953125 C 136.492188 163.113281 135.914062 163.21875 135.382812 163.375 C 134.382812 163.746094 133.222656 164.222656 132.007812 163.640625 C 131.425781 163.324219 130.953125 162.480469 130.265625 161.792969 C 129.949219 161.425781 129.472656 161.265625 129.210938 161.054688 C 128.417969 160.207031 127.835938 158.574219 127.097656 157.042969 C 126.679688 156.199219 126.148438 155.566406 125.9375 154.773438 C 125.832031 154.457031 125.882812 154.140625 125.777344 153.878906 C 125.675781 153.402344 125.355469 153.03125 125.355469 152.714844 C 125.304688 152.34375 125.460938 151.871094 125.570312 151.1875 C 125.726562 150.128906 125.675781 149.546875 126.148438 148.914062 C 126.996094 147.910156 128.628906 147.015625 129.84375 146.855469 C 131.375 146.644531 133.75 147.015625 133.90625 148.386719 C 133.90625 149.074219 133.222656 149.917969 132.695312 149.972656 C 131.847656 150.078125 131.425781 149.339844 130.53125 149.496094 C 129.261719 149.761719 128.945312 151.289062 128.050781 152.082031 " fill-opacity="1" fill-rule="evenodd"/><path fill="#000000" d="M 121.664062 147.808594 C 122.085938 148.386719 122.5625 149.546875 122.242188 150.339844 C 121.609375 150.285156 121.609375 149.652344 121.347656 149.128906 C 121.082031 149.652344 120.925781 150.183594 120.289062 150.339844 C 119.550781 150.394531 118.707031 149.972656 117.863281 150.128906 C 117.125 150.339844 116.753906 151.078125 116.121094 150.601562 C 116.488281 149.863281 117.125 149.285156 117.597656 148.703125 C 119.234375 148.652344 120.554688 148.28125 121.664062 147.808594 " fill-opacity="1" fill-rule="evenodd"/><path fill="#000000" d="M 68.515625 148.542969 C 68.832031 148.492188 68.570312 148.703125 68.621094 148.808594 C 68.777344 149.546875 69.464844 149.761719 69.730469 150.339844 C 69.203125 150.5 68.359375 150.339844 67.988281 150.128906 C 67.9375 149.8125 67.777344 149.601562 67.832031 149.230469 C 68.042969 148.96875 68.410156 148.863281 68.515625 148.542969 " fill-opacity="1" fill-rule="evenodd"/><path fill="#000000" d="M 116.753906 148.808594 C 116.4375 149.339844 116.015625 149.8125 115.539062 150.339844 C 114.910156 150.078125 114.273438 149.8125 114.113281 149.019531 C 115.117188 149.074219 115.855469 148.808594 116.753906 148.808594 " fill-opacity="1" fill-rule="evenodd"/><path fill="#000000" d="M 71.738281 150.128906 C 72.105469 150.128906 71.894531 150.707031 72.15625 150.816406 C 73.109375 150.707031 73.796875 151.078125 75.007812 150.972656 C 75.800781 150.917969 77.648438 150.601562 77.753906 151.660156 C 77.804688 152.292969 76.910156 152.660156 76.117188 152.660156 C 75.0625 152.609375 73.476562 151.660156 72 151.605469 C 71.417969 151.554688 69.414062 152.242188 69.570312 151.132812 C 69.730469 150.285156 71.261719 150.816406 71.738281 150.816406 C 71.894531 150.65625 71.472656 150.339844 71.738281 150.128906 " fill-opacity="1" fill-rule="evenodd"/><path fill="#000000" d="M 102.503906 162.636719 C 102.347656 162.953125 103.085938 163.484375 103.191406 163.90625 C 103.453125 164.695312 103.507812 165.699219 103.667969 166.699219 C 104.035156 168.390625 104.246094 170.449219 104.613281 172.136719 C 104.878906 173.40625 105.726562 175.726562 104.300781 176.042969 C 103.71875 176.199219 103.191406 175.832031 102.714844 175.726562 C 102.136719 174.351562 101.871094 172.664062 101.554688 170.925781 C 101.238281 169.183594 101.082031 167.386719 100.921875 165.644531 C 100.871094 165.171875 100.605469 164.746094 100.605469 164.222656 C 100.65625 163.640625 101.238281 162.953125 101.082031 162.371094 C 101.027344 162.058594 100.550781 161.949219 100.394531 161.582031 C 100.023438 160.628906 100.445312 159.628906 100.234375 158.679688 C 101.027344 156.832031 102.609375 158.519531 103.453125 159.417969 C 104.722656 160.894531 105.617188 161.949219 106.886719 163.484375 C 108.257812 165.117188 109.523438 166.914062 111.054688 168.285156 C 110.367188 165.277344 109.628906 162.796875 108.839844 159.890625 C 108.679688 159.050781 108.203125 157.832031 108.363281 156.882812 C 108.523438 155.617188 110.15625 154.933594 111.054688 156.199219 C 111.371094 156.621094 111.53125 157.570312 111.742188 158.257812 C 112.003906 159.101562 111.953125 159.890625 112.058594 160.738281 C 112.320312 162.953125 113.007812 166.488281 113.640625 168.652344 C 113.957031 169.550781 113.957031 170.289062 114.113281 171.292969 C 114.167969 171.769531 114.429688 172.085938 114.429688 172.453125 C 114.429688 173.351562 113.484375 173.71875 113.007812 173.667969 C 112.585938 173.667969 112.371094 173.40625 111.953125 172.980469 C 110.578125 171.554688 109.3125 169.8125 107.886719 168.285156 C 106.992188 167.28125 106.042969 166.382812 105.195312 165.382812 C 104.40625 164.378906 103.613281 163.324219 102.503906 162.636719 " fill-opacity="1" fill-rule="evenodd"/><path fill="#000000" d="M 83.296875 166.59375 C 83.347656 166.914062 83.71875 166.859375 83.875 167.070312 C 84.722656 168.335938 84.035156 170.976562 84.242188 172.773438 C 84.296875 173.613281 84.664062 174.882812 83.402344 174.933594 C 81.554688 174.988281 82.183594 171.503906 82.34375 169.972656 C 80.496094 169.234375 78.175781 169.128906 76.222656 168.492188 C 75.378906 169.867188 74.851562 171.503906 73.6875 172.558594 C 73.371094 172.558594 73.371094 172.1875 73.160156 172.085938 C 72.476562 172.136719 72.105469 171.925781 72 171.292969 C 72.527344 170.976562 72.898438 170.925781 73.109375 170.34375 C 73.796875 170.289062 74.320312 170.027344 74.480469 169.394531 C 74.214844 169.289062 73.796875 169.445312 73.476562 169.289062 C 73.160156 168.390625 73.636719 167.597656 74.269531 167.335938 C 74.164062 166.171875 75.113281 165.644531 75.695312 164.90625 C 76.484375 163.90625 77.226562 162.214844 77.910156 160.949219 C 78.226562 160.261719 78.648438 159.734375 79.125 159.050781 C 79.757812 158.046875 80.496094 156.199219 81.976562 157.359375 C 83.820312 156.992188 83.609375 158.414062 83.71875 160.261719 C 83.820312 162.320312 83.558594 164.855469 83.296875 166.59375 Z M 81.554688 160.527344 C 80.023438 161.792969 78.757812 164.007812 78.070312 166.382812 C 79.496094 166.4375 80.550781 166.859375 82.132812 166.859375 C 82.132812 164.800781 81.867188 162.6875 81.867188 160.527344 C 81.761719 160.527344 81.660156 160.527344 81.554688 160.527344 Z M 75.0625 168.335938 C 75.113281 168.179688 75.378906 168.179688 75.273438 167.96875 C 75.21875 167.96875 75.167969 167.96875 75.0625 167.96875 C 75.113281 168.125 74.851562 168.285156 75.0625 168.335938 " fill-opacity="1" fill-rule="evenodd"/><path fill="#000000" d="M 73.160156 169.394531 C 73.320312 169.710938 72.792969 170.550781 72.316406 170.816406 C 71.839844 170.132812 72.84375 169.761719 73.160156 169.394531 " fill-opacity="1" fill-rule="evenodd"/><path fill="#000000" d="M 80.128906 134.71875 C 79.96875 134.507812 79.707031 134.402344 79.707031 134.03125 C 79.074219 134.558594 79.863281 134.875 79.917969 135.5625 C 81.027344 135.824219 82.449219 135.40625 83.085938 136.039062 C 82.980469 136.828125 82.449219 137.304688 82.027344 137.832031 C 82.871094 139.363281 80.65625 139.417969 80.285156 140.472656 C 81.027344 140.785156 80.761719 141.789062 80.867188 142.636719 C 80.023438 142.898438 78.332031 142.316406 77.910156 143.054688 C 78.703125 143.21875 79.863281 143.109375 80.65625 143.054688 C 80.023438 143.902344 79.917969 145.222656 78.914062 145.695312 C 78.914062 145.167969 79.179688 144.902344 79.285156 144.480469 C 78.863281 144.480469 78.648438 144.851562 78.121094 144.902344 C 77.488281 145.0625 76.484375 144.902344 75.851562 145.113281 C 75.21875 145.328125 75.21875 146.117188 74.636719 146.171875 C 74.691406 145.695312 75.0625 145.433594 75.273438 145.0625 C 75.007812 144.902344 74.535156 145.007812 74.320312 144.851562 C 73.6875 145.113281 73.371094 145.644531 73.003906 146.171875 C 73.265625 146.171875 73.371094 146.011719 73.6875 146.066406 C 74.164062 146.855469 75.851562 146.539062 76.855469 146.433594 C 77.382812 146.644531 77.226562 147.492188 77.859375 147.648438 C 77.964844 148.441406 77.382812 149.761719 76.378906 149.917969 C 76.222656 149.972656 76.0625 149.761719 75.695312 149.8125 C 75.378906 149.8125 75.0625 150.078125 74.851562 150.078125 C 74.164062 150.023438 73.636719 149.285156 73.953125 148.386719 C 74.535156 148.226562 75.273438 148.226562 75.90625 148.125 C 76.273438 148.28125 75.535156 148.441406 75.484375 148.652344 C 76.222656 148.863281 76.378906 148.019531 76.960938 147.859375 C 75.800781 147.332031 73.371094 147.542969 72.15625 147.910156 C 72.15625 148.542969 73.003906 148.28125 73.53125 148.386719 C 73.636719 148.492188 73.425781 148.863281 73.265625 149.230469 C 72.84375 149.972656 71.894531 150.394531 71.472656 149.128906 C 71.628906 148.597656 71.945312 148.226562 72.105469 147.648438 C 71.683594 147.703125 71.207031 148.652344 71.15625 149.128906 C 70.945312 147.703125 71.839844 146.539062 72.054688 145.273438 C 72.210938 144.007812 72.421875 143.003906 72.898438 141.898438 C 73.265625 140.945312 73.847656 140.101562 74.375 139.203125 C 74.957031 138.253906 75.324219 137.25 75.746094 136.300781 C 76.433594 134.824219 76.960938 133.453125 77.859375 132.078125 C 78.332031 131.023438 78.4375 129.597656 79.335938 128.914062 C 79.019531 127.964844 78.332031 126.117188 79.230469 125.324219 C 78.863281 123 80.339844 121.945312 82.292969 121.734375 C 83.820312 116.933594 85.828125 112.710938 86.933594 107.539062 C 85.667969 106.167969 85.984375 102.367188 88.203125 102.15625 C 88.359375 99.566406 89.097656 97.246094 89.679688 94.976562 C 89.734375 94.765625 89.945312 94.503906 89.945312 94.238281 C 90.050781 93.710938 89.734375 92.917969 89.839844 92.074219 C 89.890625 91.125 90.207031 90.121094 90.3125 89.117188 C 90.578125 86.058594 91.15625 82.945312 91.476562 79.933594 C 91.582031 78.878906 91.632812 77.453125 91.582031 76.1875 C 91.367188 72.496094 92.265625 68.695312 92.476562 64.789062 C 92.476562 64.367188 92.476562 63.890625 92.476562 63.46875 C 92.582031 60.671875 93.425781 57.824219 92.742188 55.660156 C 92.53125 54.867188 91.632812 53.863281 91.582031 52.703125 C 91.367188 51.277344 91.476562 48.480469 92.476562 47.847656 C 92.898438 47.582031 93.746094 47.742188 94.269531 47.371094 C 94.484375 45.945312 94.535156 44.628906 94.640625 42.730469 C 94.695312 42.09375 94.746094 40.773438 95.589844 40.988281 C 96.859375 41.199219 96.328125 45.3125 96.539062 46.84375 C 97.703125 47.214844 99.285156 47.53125 98.863281 49.273438 C 99.917969 50.644531 99.339844 54.128906 99.128906 56.082031 C 99.074219 57.242188 98.808594 58.402344 98.703125 59.617188 C 98.546875 61.886719 99.074219 64.417969 99.128906 66.953125 C 99.179688 67.585938 99.128906 68.273438 99.128906 68.957031 C 99.234375 70.59375 99.601562 72.285156 99.496094 73.972656 C 99.445312 75.394531 99.496094 76.558594 99.601562 78.089844 C 99.65625 79.671875 100.234375 81.203125 100.394531 82.679688 C 100.921875 88.90625 101.34375 94.820312 102.449219 100.148438 C 102.609375 100.253906 102.980469 100.148438 103.191406 100.308594 C 103.453125 101.414062 104.988281 101.101562 105.195312 102.207031 C 105.304688 103.050781 105.144531 104.160156 105.195312 105.164062 C 105.195312 106.378906 105.410156 107.007812 105.410156 107.960938 C 105.355469 110.652344 106.355469 113.132812 107.042969 115.507812 C 107.78125 117.988281 108.574219 120.3125 109.101562 122.527344 C 109.578125 122.316406 110.632812 122.6875 110.261719 123.476562 C 110.792969 124.109375 111.582031 124.164062 111.898438 124.796875 C 112.371094 125.535156 111.792969 126.378906 111.898438 127.328125 C 111.953125 127.753906 112.320312 128.015625 112.636719 128.492188 C 113.375 129.597656 113.796875 131.234375 114.273438 132.449219 C 116.386719 137.726562 118.867188 143.054688 121.1875 147.910156 C 120.132812 147.964844 118.972656 147.808594 118.019531 148.070312 C 117.703125 147.964844 118.128906 147.703125 118.179688 147.492188 C 117.808594 147.542969 117.703125 147.964844 117.230469 148.125 C 116.332031 148.492188 114.910156 148.175781 113.796875 148.386719 C 113.90625 147.4375 113.851562 146.328125 114.855469 146.117188 C 115.59375 146.011719 116.121094 146.382812 116.542969 146.910156 C 116.753906 146.804688 117.019531 146.910156 117.28125 146.910156 C 117.703125 146.59375 118.019531 146.171875 118.8125 146.277344 C 118.441406 145.589844 118.019531 145.0625 117.652344 144.429688 C 117.335938 144.746094 117.441406 145.113281 117.230469 145.433594 C 116.597656 146.222656 115.066406 145.75 113.746094 145.855469 C 113.746094 145.378906 114.011719 145.007812 113.796875 144.269531 C 113.484375 144.585938 113.375 145.113281 113.167969 145.484375 C 112.636719 145.167969 112.164062 144.851562 112.058594 144.113281 C 112.691406 144.058594 113.484375 144.058594 113.90625 143.847656 C 112.746094 143.585938 110.15625 143.691406 111.214844 141.898438 C 110.84375 141.632812 110.367188 141.632812 110.210938 141.101562 C 110.050781 140.785156 110.421875 140.050781 109.839844 140.050781 C 110.683594 143.691406 112.480469 147.015625 113.007812 151.238281 C 113.90625 151.660156 115.171875 151.820312 116.171875 151.660156 C 117.019531 151.503906 117.914062 150.867188 118.8125 151.289062 C 118.230469 152.027344 116.859375 152.082031 115.855469 152.292969 C 115.277344 152.449219 114.378906 152.449219 113.640625 152.609375 C 112.957031 152.765625 112.53125 153.136719 112.003906 152.925781 C 111.003906 152.609375 110.792969 151.765625 110.632812 150.234375 C 110.421875 147.492188 109.207031 144.851562 107.835938 142.476562 C 107.308594 141.527344 106.410156 140.472656 105.671875 139.308594 C 104.988281 138.253906 103.929688 137.199219 102.875 136.878906 C 102.398438 136.722656 101.820312 136.722656 101.238281 136.511719 C 100.550781 136.300781 99.972656 135.984375 99.128906 135.933594 C 98.335938 135.878906 97.4375 136.039062 96.644531 136.089844 C 94.535156 136.25 92.265625 136.460938 90.15625 137.09375 C 89.839844 137.144531 89.890625 136.933594 89.679688 136.878906 C 89.257812 137.515625 88.253906 137.570312 87.675781 137.992188 C 87.515625 138.835938 86.988281 138.992188 86.460938 139.523438 C 85.085938 140.945312 83.769531 143.796875 82.664062 145.855469 C 82.238281 146.59375 81.761719 147.386719 81.496094 148.070312 C 81.128906 149.074219 81.027344 152.242188 79.441406 151.078125 C 78.492188 150.394531 79.390625 148.070312 79.707031 147.066406 C 80.339844 145.0625 81.128906 143.636719 82.183594 142.105469 C 83.296875 140.628906 84.140625 138.9375 85.933594 138.097656 C 86.25 137.992188 86.566406 137.9375 86.828125 137.832031 C 88.203125 137.09375 90.050781 135.40625 91.84375 135.089844 C 92.953125 134.875 93.585938 135.300781 94.957031 134.824219 C 94.324219 134.507812 91.949219 134.824219 92.105469 134.03125 C 92.265625 133.558594 93.320312 133.769531 93.902344 133.714844 C 94.851562 133.714844 95.90625 133.558594 96.804688 133.558594 C 96.75 133.820312 96.59375 133.980469 96.644531 134.296875 C 97.070312 134.296875 97.121094 133.820312 97.121094 133.558594 C 98.125 133.609375 98.96875 133.453125 99.917969 133.503906 C 99.917969 133.714844 99.761719 133.980469 99.867188 134.136719 C 100.023438 134.136719 100.183594 134.136719 100.234375 134.242188 C 100.605469 134.191406 100.394531 133.609375 100.5 133.503906 C 102.1875 132.976562 104.722656 134.03125 105.726562 133.027344 C 104.878906 132.765625 104.140625 132.292969 103.296875 132.027344 C 103.03125 133.1875 101.609375 132.34375 101.449219 131.65625 C 101.082031 131.921875 101.082031 132.394531 100.605469 132.449219 C 99.445312 132.554688 98.96875 130.390625 100.5 130.335938 C 100.5 129.917969 100.339844 129.597656 100.394531 129.070312 C 99.972656 129.015625 99.445312 129.070312 98.917969 128.964844 C 98.808594 129.8125 98.335938 130.601562 98.546875 131.445312 C 98.019531 133.027344 94.589844 131.921875 96.488281 130.496094 C 96.910156 130.441406 97.121094 130.601562 97.492188 130.601562 C 97.703125 129.441406 97.070312 128.59375 97.648438 127.699219 C 97.542969 127.539062 97.121094 127.644531 96.964844 127.644531 C 96.699219 128.542969 96.699219 129.757812 96.277344 130.441406 C 96.121094 130.496094 95.960938 130.601562 95.644531 130.601562 C 95.855469 131.023438 94.957031 132.449219 94.589844 132.5 C 93.425781 132.605469 93.269531 128.964844 95.273438 130.125 C 95.328125 129.757812 95.167969 129.546875 95.167969 129.121094 C 95.011719 128.964844 94.484375 129.121094 94.269531 128.964844 C 94.324219 130.179688 92.53125 130.8125 92.6875 129.070312 C 92.265625 128.753906 91.789062 128.964844 91.105469 128.914062 C 90.683594 129.863281 89.890625 128.808594 89.203125 129.121094 C 88.78125 129.335938 88.835938 130.074219 88.464844 130.652344 C 88.308594 130.867188 87.886719 131.128906 87.832031 131.289062 C 87.675781 131.605469 87.78125 132.132812 87.460938 132.292969 C 86.355469 131.710938 87.253906 130.125 86.882812 129.121094 C 86.515625 128.914062 86.515625 129.390625 86.199219 129.390625 C 85.351562 128.964844 84.457031 129.917969 83.875 129.070312 C 83.609375 129.390625 83.238281 129.335938 82.871094 129.121094 C 82.398438 129.230469 82.398438 129.8125 82.082031 130.125 C 82.132812 130.335938 82.398438 130.390625 82.5 130.601562 C 83.820312 129.8125 84.722656 131.289062 83.875 132.34375 C 83.453125 132.394531 83.609375 131.921875 83.503906 131.65625 C 83.03125 131.976562 82.554688 131.65625 82.132812 131.5 C 82.027344 132.132812 81.445312 132.710938 80.761719 132.078125 C 80.550781 131.710938 81.128906 131.605469 81.027344 131.074219 C 80.441406 131.394531 80.285156 132.765625 79.863281 133.503906 C 79.863281 133.558594 79.757812 133.558594 79.757812 133.664062 C 79.96875 133.609375 80.128906 133.453125 80.285156 133.398438 C 81.445312 133.503906 82.609375 133.027344 83.875 133.1875 C 84.347656 133.292969 85.144531 133.558594 85.144531 134.085938 C 85.195312 134.980469 83.296875 135.035156 82.183594 134.929688 C 81.554688 134.875 80.921875 134.613281 80.128906 134.71875 Z M 93.640625 52.175781 C 93.691406 51.804688 93.902344 51.648438 94.113281 51.488281 C 93.902344 51.488281 93.902344 51.226562 93.640625 51.226562 C 93.53125 51.382812 93.53125 52.015625 93.640625 52.175781 Z M 93.003906 99.566406 C 92.953125 98.828125 92.265625 98.460938 91.84375 97.933594 C 92.160156 97.402344 91.84375 96.402344 92.265625 95.875 C 92.476562 95.765625 92.6875 95.664062 93.058594 95.664062 C 93.058594 95.503906 93.058594 95.347656 93.058594 95.136719 C 92.476562 94.765625 92.003906 94.34375 92.214844 93.550781 C 92.320312 93.078125 92.898438 93.128906 93.109375 92.707031 C 93.003906 92.179688 92.6875 92.230469 92.636719 91.8125 C 92.476562 90.914062 93.003906 90.808594 93.214844 90.332031 C 93.425781 89.699219 93.164062 89.171875 93.320312 88.539062 C 92.792969 89.066406 91.898438 88.960938 92.003906 88.167969 C 92.003906 87.851562 92.320312 87.957031 92.582031 87.484375 C 92.6875 87.273438 92.636719 86.902344 92.742188 86.742188 C 93.003906 86.425781 93.480469 86.324219 93.640625 86.214844 C 93.585938 85.847656 93.746094 85.6875 93.691406 85.320312 C 92.214844 85.320312 92.160156 82.734375 94.007812 83.050781 C 94.007812 82.679688 94.0625 82.257812 94.113281 81.835938 C 92.160156 81.941406 93.164062 79.40625 93.746094 78.671875 C 92.582031 78.246094 93.425781 76.136719 94.695312 76.875 C 94.746094 76.292969 95.011719 75.554688 94.851562 74.976562 C 94.535156 76.1875 92.792969 75.714844 93.003906 74.5 C 93.058594 74.183594 93.425781 74.023438 93.640625 73.65625 C 93.058594 73.074219 93.691406 72.496094 93.585938 71.492188 C 94.269531 70.59375 93.585938 68.484375 94.113281 67.164062 C 93.585938 65.316406 93.640625 62.570312 93.320312 60.777344 C 93.109375 68.007812 92.582031 74.871094 91.6875 81.519531 C 91.738281 81.675781 92.054688 81.625 92.003906 81.941406 C 91.6875 85.847656 91.261719 89.699219 90.472656 93.128906 C 90.578125 93.285156 90.628906 92.8125 91 92.972656 C 91.210938 93.394531 91.210938 93.976562 91.210938 94.554688 C 91 97.085938 90.15625 100.148438 89.734375 102.417969 C 90.417969 102.839844 91.421875 102.472656 92.425781 102.578125 C 92.53125 102.050781 92.792969 101.625 92.898438 101.101562 C 92.425781 101.203125 92.105469 101.519531 91.6875 101.679688 C 91.316406 101.152344 90.945312 101.363281 90.683594 100.941406 C 90.472656 100.570312 90.472656 100.046875 90.734375 99.675781 C 91 99.304688 91.898438 98.882812 92.105469 98.933594 C 93.425781 99.09375 91.949219 101.101562 92.105469 101.363281 C 92.425781 100.835938 93.003906 100.253906 93.003906 99.566406 Z M 94.746094 68.957031 C 94.746094 69.695312 94.324219 70.488281 94.324219 70.910156 C 94.378906 71.121094 94.640625 71.386719 94.746094 71.648438 C 94.800781 71.753906 94.589844 72.019531 94.957031 71.914062 C 94.746094 71.121094 94.746094 70.171875 94.851562 69.273438 C 94.957031 68.640625 95.382812 67.957031 94.957031 67.585938 C 94.851562 67.585938 94.851562 67.585938 94.746094 67.585938 C 94.746094 68.007812 94.800781 68.429688 94.746094 68.957031 Z M 94.484375 73.8125 C 94.746094 74.023438 94.746094 74.5 94.957031 74.871094 C 95.011719 74.394531 95.382812 73.601562 94.957031 73.234375 C 94.90625 73.550781 94.589844 73.601562 94.484375 73.8125 Z M 96.804688 78.5625 C 97.121094 78.140625 97.121094 77.296875 97.492188 76.980469 C 97.175781 76.925781 97.121094 76.609375 96.964844 76.398438 C 96.804688 77.035156 96.859375 77.824219 96.804688 78.5625 Z M 97.226562 101.996094 C 98.335938 101.785156 99.8125 101.945312 100.921875 101.730469 C 100.394531 101.785156 99.65625 101.257812 98.863281 101.101562 C 97.964844 100.886719 97.070312 100.941406 97.226562 100.046875 C 97.332031 99.515625 97.914062 99.621094 98.492188 99.777344 C 98.863281 99.304688 99.601562 99.253906 99.867188 98.722656 C 98.917969 99.042969 97.597656 98.460938 98.070312 97.140625 C 97.703125 96.878906 97.386719 96.71875 97.386719 96.296875 C 97.386719 95.242188 98.597656 95.875 99.601562 95.875 C 99.707031 95.609375 99.707031 94.871094 99.601562 94.609375 C 97.4375 95.765625 97.332031 92.761719 98.125 91.546875 C 96.804688 91.597656 97.703125 88.644531 98.386719 88.75 C 98.917969 88.800781 98.652344 89.382812 98.917969 89.804688 C 99.339844 89.804688 99.023438 88.90625 99.023438 88.589844 C 98.28125 88.589844 97.4375 88.644531 97.226562 87.957031 C 97.175781 87.851562 97.28125 87.535156 97.226562 87.273438 C 97.121094 86.957031 96.859375 86.691406 96.859375 86.425781 C 96.699219 85.476562 96.75 84.476562 97.28125 84.050781 C 96.804688 83.734375 97.015625 82.734375 97.4375 82.523438 C 96.75 82.308594 96.644531 81.308594 97.070312 80.78125 C 96.964844 80.621094 96.859375 80.410156 96.644531 80.359375 C 96.488281 87.484375 96.910156 94.925781 97.226562 101.996094 Z M 98.863281 91.96875 C 98.917969 92.230469 98.492188 92.390625 98.652344 92.550781 C 98.863281 92.390625 99.179688 92.65625 99.445312 92.707031 C 99.339844 92.074219 99.390625 91.335938 99.023438 91.070312 C 98.546875 91.335938 98.492188 91.546875 98.863281 91.96875 Z M 93.058594 98.722656 C 93.058594 98.566406 92.953125 98.460938 92.742188 98.40625 C 92.792969 98.621094 92.898438 98.722656 93.058594 98.722656 Z M 89.363281 103.105469 C 89.257812 103.632812 88.625 104.054688 88.625 104.53125 C 89.203125 103 91.421875 104.054688 90.523438 105.796875 C 90.789062 105.902344 91.050781 105.957031 91.261719 106.0625 C 90.894531 105.214844 90.3125 103.421875 91.476562 103.210938 C 92.898438 103 92.898438 104.847656 92.582031 106.167969 C 92.847656 106.113281 93.164062 106.0625 93.585938 106.113281 C 93.480469 105.746094 92.742188 105.957031 92.847656 105.375 C 92.898438 105.214844 93.003906 105.058594 93.269531 105.058594 C 93.003906 104.53125 92.953125 103.792969 92.742188 103.15625 C 91.738281 103 90.3125 103.15625 89.363281 103.105469 Z M 96.644531 103.738281 C 96.910156 103.84375 97.015625 104.214844 97.226562 104.371094 C 97.332031 103.738281 98.230469 103.949219 98.546875 104.214844 C 99.550781 103.578125 101.449219 103.949219 102.664062 103.367188 C 102.664062 103.261719 102.664062 103.210938 102.664062 103.105469 C 100.871094 103.367188 98.070312 102.839844 96.644531 103.738281 Z M 94.484375 105.957031 C 94.957031 105.902344 95.484375 105.902344 95.804688 105.691406 C 95.382812 105.636719 94.589844 105.480469 94.484375 105.957031 Z M 89.734375 108.066406 C 90.734375 107.484375 91.15625 108.59375 92.003906 108.75 C 92.425781 108.859375 93.003906 108.648438 93.585938 108.59375 C 95.960938 108.488281 98.546875 108.699219 100.65625 108.542969 C 101.34375 108.488281 102.1875 108.542969 102.664062 108.171875 C 102.347656 107.644531 101.292969 107.484375 100.605469 107.484375 C 97.542969 107.328125 93.480469 107.75 90.839844 106.957031 C 90.523438 105.636719 89.890625 107.328125 89.734375 108.066406 Z M 92.320312 106.800781 C 93.746094 106.800781 95.328125 106.90625 96.488281 106.691406 C 95.222656 106.589844 93.425781 106.484375 92.320312 106.800781 Z M 94.484375 109.488281 C 94.007812 109.488281 93.585938 109.488281 93.109375 109.488281 C 93.320312 109.914062 94.21875 109.753906 94.484375 109.488281 Z M 88.464844 111.496094 C 89.628906 111.441406 90.15625 110.707031 91.316406 110.707031 C 92.953125 111.707031 91.050781 114.980469 89.308594 113.34375 C 88.78125 113.820312 88.042969 112.972656 87.886719 113.132812 C 87.621094 113.714844 87.460938 114.347656 87.304688 114.980469 C 87.621094 114.398438 88.253906 114.503906 89.046875 114.347656 C 89.46875 114.242188 89.628906 114.082031 89.890625 114.082031 C 91.421875 114.136719 91.105469 116.828125 89.839844 116.933594 C 89.308594 116.984375 88.730469 116.613281 88.203125 116.667969 C 87.832031 116.667969 87.355469 116.933594 86.828125 116.828125 C 86.828125 117.515625 86.40625 118.09375 86.515625 118.570312 C 87.460938 117.617188 89.785156 118.199219 90.15625 119.308594 C 89.996094 119.625 89.414062 119.464844 89.203125 119.675781 C 89.414062 120.257812 89.734375 121.46875 88.835938 121.632812 C 88.359375 121.789062 88.203125 121.46875 87.78125 121.417969 C 87.199219 121.207031 86.566406 121.261719 86.199219 120.941406 C 86.144531 121.46875 86.25 121.683594 86.199219 122.105469 C 87.675781 122.210938 89.523438 122 90.523438 122.578125 C 90.472656 120.890625 90.839844 119.410156 91.367188 117.671875 C 91.84375 116.246094 92.054688 114.714844 92.425781 113.660156 C 92.476562 113.394531 92.6875 113.238281 92.6875 112.972656 C 92.742188 112.765625 92.582031 112.550781 92.636719 112.339844 C 92.742188 111.8125 93.425781 110.863281 93.902344 110.757812 C 94.324219 110.707031 94.695312 110.863281 95.117188 110.914062 C 95.90625 110.96875 96.644531 110.863281 97.386719 110.597656 C 96.539062 110.914062 96.171875 110.070312 95.484375 109.96875 C 95.328125 109.914062 94.957031 110.125 94.695312 110.125 C 93.796875 110.175781 92.582031 109.703125 91.898438 109.863281 C 91.316406 109.914062 91 110.546875 90.367188 110.546875 C 89.734375 110.546875 89.363281 110.125 89.046875 109.597656 C 88.886719 110.285156 88.625 110.808594 88.464844 111.496094 Z M 102.824219 112.972656 C 103.613281 113.082031 104.722656 113.660156 104.613281 114.292969 C 104.5625 114.820312 103.613281 114.925781 103.136719 115.242188 C 103.769531 115.191406 104.246094 115.453125 104.828125 115.5625 C 104.667969 114.558594 104.773438 113.289062 104.40625 112.550781 C 103.984375 112.816406 103.191406 112.710938 102.824219 112.972656 Z M 96.488281 113.554688 C 95.804688 113.5 95.167969 113.820312 94.429688 113.976562 C 92.953125 116.195312 93.109375 120.046875 92.003906 122.578125 C 92.792969 122.894531 93.746094 123.265625 94.695312 123.265625 C 95.589844 123.265625 96.59375 122.84375 97.542969 122.738281 C 100.707031 122.421875 104.140625 122.789062 107.414062 122.578125 C 107.308594 122.210938 107.097656 122 107.042969 121.523438 C 106.144531 122.472656 103.136719 122 102.398438 121.46875 C 101.660156 120.996094 102.082031 120.414062 102.1875 119.675781 C 102.242188 119.042969 102.1875 118.09375 101.925781 117.515625 C 101.820312 117.144531 101.503906 116.984375 101.449219 116.667969 C 101.398438 116.195312 101.710938 115.613281 101.503906 115.136719 C 100.707031 115.085938 100.5 114.453125 100.289062 113.765625 C 100.078125 115.824219 101.082031 117.882812 101.292969 119.890625 C 101.398438 120.519531 101.765625 121.367188 101.238281 121.894531 C 100.339844 121.46875 100.023438 120.207031 99.867188 119.09375 C 99.65625 117.40625 99.390625 115.5625 98.917969 114.242188 C 97.914062 114.453125 97.28125 113.660156 96.488281 113.554688 Z M 102.1875 115.402344 C 103.03125 115.242188 103.03125 115.242188 102.242188 115.136719 C 102.1875 115.136719 102.136719 115.136719 102.136719 115.136719 C 102.082031 115.292969 102.1875 115.292969 102.1875 115.402344 Z M 103.246094 117.777344 C 103.453125 117.882812 103.507812 118.199219 103.5625 118.464844 C 104.035156 118.515625 103.875 117.933594 103.824219 117.671875 C 103.613281 117.671875 103.351562 117.671875 103.246094 117.777344 Z M 85.402344 121.207031 C 85.5625 121.3125 85.511719 121.101562 85.667969 121.101562 C 85.667969 120.890625 85.617188 120.835938 85.511719 120.730469 C 85.460938 120.890625 85.351562 120.996094 85.402344 121.207031 Z M 85.085938 122.050781 C 84.875 122.578125 84.929688 123.105469 84.664062 123.582031 C 84.402344 124.164062 83.820312 124.425781 83.71875 124.953125 C 84.457031 124.796875 85.144531 125.484375 85.878906 125.535156 C 86.25 125.589844 86.617188 125.269531 87.199219 125.269531 C 87.832031 125.21875 88.625 125.535156 89.203125 125.484375 C 89.574219 125.429688 89.945312 125.113281 90.3125 125.113281 C 90.839844 125.113281 91.367188 125.429688 91.84375 125.375 C 92.265625 125.375 92.636719 124.953125 93.058594 124.902344 C 94.269531 124.796875 95.539062 125.113281 96.804688 125.113281 C 98.546875 125.113281 100.234375 124.636719 102.03125 124.585938 C 101.925781 124.53125 101.871094 124.375 101.871094 124.164062 C 101.660156 124.058594 101.292969 124.003906 100.921875 123.953125 C 100.871094 123.792969 101.1875 123.53125 100.871094 123.53125 C 98.125 123.476562 95.273438 124.109375 92.847656 123.847656 C 92.425781 123.742188 91.898438 123.847656 91.476562 123.742188 C 91.105469 123.6875 90.789062 123.105469 90.367188 123 C 90.101562 123 89.734375 123.160156 89.363281 123.160156 C 88.675781 123.210938 87.570312 123.054688 86.777344 123.105469 C 85.933594 123.160156 85.460938 123.265625 85.144531 122.6875 C 85.195312 122.316406 85.5625 122.050781 85.144531 121.839844 C 85.144531 121.894531 85.144531 122 85.085938 122.050781 Z M 89.523438 125.957031 C 89.523438 125.695312 89.152344 125.800781 88.886719 125.746094 C 88.886719 126.117188 89.308594 125.957031 89.523438 125.957031 Z M 90.523438 126.21875 C 91.210938 126.433594 91.527344 126.21875 92.105469 126.0625 C 91.84375 125.484375 90.789062 125.851562 90.523438 126.21875 Z M 84.722656 127.539062 C 84.664062 127.699219 84.558594 127.753906 84.558594 127.964844 C 85.035156 127.910156 85.144531 128.226562 85.460938 128.277344 C 86.144531 127.753906 86.515625 128.648438 87.304688 128.277344 C 87.304688 127.910156 87.460938 127.804688 87.515625 127.539062 C 87.355469 127.382812 86.828125 127.539062 86.882812 127.222656 C 86.933594 127.066406 87.199219 127.066406 87.410156 127.066406 C 87.355469 126.644531 87.410156 126.273438 87.515625 126.0625 C 86.777344 126.117188 86.460938 125.800781 85.722656 125.851562 C 86.25 126.695312 86.199219 128.4375 84.722656 127.539062 Z M 98.546875 125.957031 C 98.125 126.0625 97.542969 125.851562 97.226562 126.0625 C 97.648438 126.011719 98.28125 126.117188 98.546875 125.957031 Z M 108.46875 127.066406 C 108.730469 127.011719 109.15625 127.117188 109.261719 126.960938 C 109.101562 126.855469 108.574219 126.90625 108.46875 127.066406 Z M 89.523438 128.070312 C 89.734375 128.121094 89.785156 128.226562 90.050781 128.226562 C 89.945312 127.964844 89.996094 127.59375 89.839844 127.488281 C 89.734375 127.488281 89.679688 127.488281 89.628906 127.488281 C 89.523438 127.59375 89.523438 127.859375 89.523438 128.070312 Z M 91.105469 128.386719 C 91.6875 128.332031 92.105469 128.542969 92.582031 128.386719 C 92.582031 128.121094 92.582031 127.804688 92.476562 127.644531 C 91.6875 127.539062 91 127.539062 91.105469 128.386719 Z M 98.917969 128.492188 C 99.390625 128.492188 99.761719 128.386719 100.234375 128.386719 C 100.339844 128.277344 100.289062 127.964844 100.289062 127.699219 C 99.8125 127.699219 99.339844 127.699219 98.863281 127.699219 C 98.96875 127.910156 98.96875 128.175781 98.917969 128.492188 Z M 94.324219 128.492188 C 94.535156 128.332031 94.800781 128.332031 95.117188 128.332031 C 95.117188 128.121094 95.117188 127.964844 95.117188 127.753906 C 94.535156 127.59375 94.0625 127.964844 94.324219 128.492188 Z M 101.820312 128.386719 C 102.503906 128.492188 103.246094 128.492188 103.875 128.542969 C 103.824219 128.332031 103.984375 128.277344 103.929688 128.070312 C 103.296875 127.859375 102.398438 127.910156 101.660156 127.753906 C 101.710938 127.964844 101.710938 128.226562 101.820312 128.386719 Z M 105.566406 128.648438 C 105.828125 128.648438 106.042969 128.648438 106.304688 128.648438 C 106.410156 128.492188 106.410156 128.226562 106.464844 128.070312 C 106.25 127.964844 105.988281 127.964844 105.671875 127.964844 C 105.566406 128.121094 105.671875 128.492188 105.566406 128.648438 Z M 108.625 128.386719 C 108.839844 128.277344 109.472656 128.492188 109.417969 128.070312 C 109.101562 128.070312 108.839844 128.070312 108.574219 128.070312 C 108.523438 128.226562 108.679688 128.226562 108.625 128.386719 Z M 109.945312 128.332031 C 110.210938 128.277344 110.367188 128.492188 110.472656 128.332031 C 110.527344 127.964844 109.839844 127.910156 109.945312 128.332031 Z M 101.765625 129.070312 C 101.765625 129.496094 101.660156 130.125 101.765625 130.335938 C 102.449219 129.96875 103.246094 130.441406 103.875 129.917969 C 103.875 129.597656 103.875 129.230469 103.875 128.914062 C 103.246094 129.015625 102.398438 128.964844 101.765625 129.070312 Z M 105.410156 129.8125 C 105.777344 129.863281 106.09375 129.96875 106.566406 129.917969 C 106.464844 129.652344 106.464844 129.230469 106.304688 128.964844 C 106.042969 128.964844 105.726562 128.964844 105.460938 128.964844 C 105.511719 129.335938 105.25 129.652344 105.410156 129.8125 Z M 108.574219 129.652344 C 108.785156 129.597656 109.050781 129.597656 109.050781 129.335938 C 108.730469 129.335938 108.574219 129.230469 108.574219 129.652344 Z M 109.945312 129.335938 C 109.894531 129.597656 109.839844 129.757812 109.789062 129.917969 C 110.105469 129.863281 110.472656 129.652344 110.84375 129.8125 C 110.792969 129.652344 110.738281 129.496094 110.683594 129.28125 C 110.472656 129.335938 110.261719 129.390625 109.945312 129.335938 Z M 102.824219 134.664062 C 103.136719 134.929688 103.71875 134.71875 103.613281 134.136719 C 103.246094 133.769531 102.765625 134.136719 102.824219 134.664062 Z M 107.675781 136.089844 C 108.257812 135.511719 109.894531 135.984375 110 136.828125 C 110.367188 136.671875 110.683594 136.40625 111.109375 136.300781 C 111.214844 136.089844 111.003906 136.144531 111.003906 136.039062 C 111.316406 135.824219 111.53125 135.511719 111.792969 135.246094 C 110.949219 135.191406 110.632812 135.667969 110.210938 135.933594 C 109.523438 135.773438 108.785156 135.617188 108.203125 135.300781 C 107.992188 135.351562 107.992188 135.5625 107.835938 135.667969 C 107.675781 135.351562 107.519531 135.089844 107.625 134.71875 C 107.519531 134.71875 107.359375 134.71875 107.253906 134.71875 C 107.308594 135.246094 107.359375 135.824219 107.675781 136.089844 Z M 80.921875 137.144531 C 81.179688 137.25 81.179688 137.621094 81.660156 137.515625 C 81.710938 137.199219 82.027344 136.878906 81.976562 136.671875 C 81.660156 136.933594 81.179688 136.933594 80.921875 137.144531 Z M 112.214844 137.675781 C 112.691406 137.726562 112.902344 137.09375 112.851562 136.878906 C 112.691406 137.199219 112.371094 137.410156 112.214844 137.675781 Z M 78.757812 137.464844 C 79.019531 137.25 79.496094 137.304688 79.757812 137.144531 C 79.441406 136.988281 78.597656 137.144531 78.757812 137.464844 Z M 113.007812 137.675781 C 113.21875 137.621094 113.589844 137.78125 113.640625 137.570312 C 113.484375 137.515625 113.640625 137.09375 113.375 137.09375 C 113.324219 137.359375 113.113281 137.464844 113.007812 137.675781 Z M 113.640625 138.886719 C 113.796875 138.835938 113.796875 139.046875 114.011719 138.9375 C 114.0625 138.675781 113.695312 138.730469 113.640625 138.886719 Z M 77.066406 140.363281 C 77.910156 140.363281 78.757812 140.363281 79.601562 140.363281 C 79.757812 140.15625 80.496094 139.679688 80.285156 139.523438 C 78.914062 139.941406 77.121094 138.730469 77.066406 140.363281 Z M 114.589844 139.839844 C 114.011719 140.050781 113.375 140.207031 113.007812 140.523438 C 113.058594 140.894531 113.484375 140.894531 113.429688 141.316406 C 114.167969 141.316406 114.855469 141.210938 115.382812 140.945312 C 115.117188 140.578125 114.800781 140.207031 114.589844 139.839844 Z M 115.433594 140.207031 C 115.59375 140.628906 115.699219 141.050781 115.910156 141.316406 C 115.855469 140.894531 115.699219 140.523438 115.433594 140.207031 Z M 114.75 142.476562 C 114.910156 142.527344 115.066406 142.527344 115.222656 142.636719 C 115.382812 142.210938 115.910156 141.738281 115.433594 141.316406 C 115.222656 141.738281 114.910156 142.054688 114.75 142.476562 Z M 75.484375 142.898438 C 76.222656 142.792969 77.171875 143.375 77.332031 142.636719 C 76.644531 142.636719 75.640625 142.160156 75.484375 142.898438 Z M 117.019531 143.269531 C 116.808594 143.164062 116.914062 142.738281 116.597656 142.738281 C 116.542969 143.054688 116.753906 143.480469 117.019531 143.269531 Z M 75.484375 144.113281 C 76.011719 144.058594 76.59375 144.007812 76.695312 143.585938 C 76.222656 143.21875 75.746094 143.796875 75.484375 144.113281 Z M 115.75 143.902344 C 115.699219 144.269531 116.015625 144.269531 116.277344 144.269531 C 116.277344 144.164062 116.277344 144.007812 116.277344 143.902344 C 116.171875 143.796875 115.855469 143.796875 115.75 143.902344 " fill-opacity="1" fill-rule="evenodd"/><g clip-path="url(#7277c1131b)"><path fill="#000000" d="M 139.132812 174.089844 C 139.34375 173.667969 139.027344 173.40625 138.972656 173.089844 C 139.605469 172.507812 141.402344 171.820312 140.398438 171.082031 C 139.816406 171.082031 138.605469 171.769531 137.707031 172.136719 C 135.859375 172.980469 134.222656 173.511719 132.375 174.40625 C 131.375 174.882812 130.371094 175.039062 129.683594 175.460938 C 129.261719 175.671875 128.945312 176.042969 128.523438 176.253906 C 106.304688 185.277344 79.335938 181.953125 60.597656 174.933594 C 42.390625 168.125 27.457031 154.613281 18.222656 137.570312 C 17.164062 135.722656 16.003906 133.980469 15.160156 132.078125 C 5.449219 109.863281 5.394531 95.765625 6.503906 77.507812 C 6.660156 76.242188 6.503906 75.027344 6.503906 73.867188 C 6.503906 72.652344 7.191406 71.703125 7.402344 70.488281 C 7.507812 70.015625 7.296875 69.328125 7.453125 68.800781 C 7.875 67.269531 9.882812 66.425781 9.300781 64.523438 C 10.355469 63.785156 9.457031 62.570312 9.195312 61.515625 C 10.566406 61.042969 11.570312 60.039062 11.042969 58.71875 C 11.09375 58.242188 11.675781 57.664062 11.199219 57.1875 C 9.300781 58.035156 7.769531 58.242188 7.929688 60.144531 C 7.980469 60.621094 8.351562 61.148438 8.351562 61.726562 C 8.351562 62.464844 7.507812 63.046875 7.507812 63.679688 C 5.078125 64.894531 6.027344 67.269531 5.660156 68.957031 C 5.5 69.804688 4.972656 70.488281 4.710938 71.28125 C 0.015625 93.65625 2.96875 114.609375 11.515625 133.820312 C 12.414062 135.667969 13.683594 137.464844 14.84375 139.257812 C 16.003906 141.15625 17.113281 143.164062 18.222656 145.0625 C 27.140625 160.261719 42.125 171.664062 58.226562 178.523438 C 61.230469 179.839844 64.191406 180.738281 67.144531 181.742188 C 68.148438 182.058594 69.203125 182.269531 70.152344 182.695312 C 70.628906 182.851562 70.996094 183.273438 71.523438 183.433594 C 71.789062 183.535156 72.210938 183.535156 72.578125 183.589844 C 95.484375 187.441406 113.007812 185.910156 129 178.945312 C 129.527344 178.734375 130.105469 178.414062 130.582031 178.207031 C 131.109375 177.996094 131.691406 178.046875 132.113281 177.835938 C 132.429688 177.730469 132.535156 177.363281 132.957031 177.097656 C 133.800781 176.625 135.015625 176.359375 136.070312 175.886719 C 136.757812 175.515625 138.761719 174.511719 139.132812 174.089844 Z M 51.890625 12.539062 C 52.261719 13.066406 52.105469 13.542969 52.683594 13.808594 C 53.476562 14.230469 54.742188 13.171875 55.851562 12.699219 C 58.910156 11.378906 62.027344 10.113281 64.929688 9.265625 C 66.457031 8.742188 67.988281 8.316406 69.519531 7.84375 C 72.476562 6.894531 75.484375 6.628906 78.386719 6.152344 C 84.457031 5.152344 90.367188 3.886719 95.804688 3.9375 C 96.644531 4.675781 97.648438 4.886719 98.96875 4.09375 C 101.398438 4.570312 103.769531 4.730469 106.144531 4.886719 C 108.414062 5.046875 110.792969 5.628906 113.058594 6.3125 C 116.4375 7.316406 119.867188 8 123.195312 9.003906 C 124.832031 9.53125 126.148438 10.375 127.835938 10.113281 C 129 10.375 129.949219 11.378906 131.320312 10.902344 C 131.425781 10.480469 130.953125 10.164062 130.792969 9.847656 C 130.792969 9.375 130.742188 8.582031 130.210938 8.265625 C 130.476562 8.371094 131.003906 8.265625 130.742188 7.84375 C 126.308594 6.101562 121.820312 4.570312 117.175781 3.671875 C 113.796875 2.988281 110.367188 1.929688 106.992188 1.351562 C 105.777344 1.195312 104.507812 1.402344 103.351562 1.085938 C 102.929688 1.035156 102.609375 0.824219 102.1875 0.769531 C 101.1875 0.558594 100.078125 0.664062 98.917969 0.558594 C 97.863281 0.453125 96.75 0.136719 95.804688 0.0859375 C 94.113281 0.03125 92.265625 0.507812 90.472656 0.613281 C 88.675781 0.769531 86.777344 0.664062 85.195312 0.980469 C 84.824219 1.085938 84.457031 1.246094 84.035156 1.296875 C 83.558594 1.402344 83.03125 1.246094 82.5 1.351562 C 80.816406 1.457031 79.074219 1.773438 77.382812 2.300781 C 75.0625 3.039062 72.738281 3.566406 70.3125 4.308594 C 68.042969 4.941406 65.664062 5.730469 63.238281 6.417969 C 62.027344 6.785156 60.8125 7.15625 59.597656 7.738281 C 58.332031 8.265625 57.117188 9.160156 55.746094 9.585938 C 55.375 9.691406 54.898438 9.425781 54.371094 9.691406 C 54.003906 9.902344 53.898438 10.480469 53.476562 10.691406 C 53.210938 10.851562 52.683594 10.691406 52.417969 10.957031 C 51.945312 11.324219 52.367188 12.066406 51.890625 12.539062 Z M 63.394531 7.632812 C 63.136719 7.6875 61.816406 8.476562 61.289062 8.265625 C 62.027344 7.949219 62.65625 7.84375 63.394531 7.632812 Z M 59.28125 8.949219 C 58.332031 9.265625 57.433594 10.269531 56.429688 10.269531 C 57.066406 9.53125 58.4375 9.265625 59.28125 8.949219 Z M 133.433594 11.0625 C 133.589844 11.644531 134.277344 11.429688 134.382812 11.957031 C 132.851562 13.277344 135.175781 13.808594 136.230469 14.386719 C 137.179688 14.914062 137.972656 15.550781 138.550781 15.972656 C 143.195312 19.453125 148.050781 22.09375 152.484375 25.628906 C 153.960938 26.789062 155.441406 27.953125 157.023438 29.164062 C 158.554688 30.273438 159.980469 31.59375 161.351562 33.226562 C 164.148438 36.289062 167.105469 39.984375 169.320312 43.730469 C 170.058594 44.996094 170.585938 46.265625 171.328125 47.371094 C 172.011719 48.480469 172.855469 49.589844 173.4375 50.800781 C 174.441406 52.808594 175.601562 55.394531 177.289062 55.449219 C 177.394531 56.871094 179.03125 58.773438 178.820312 60.09375 C 178.554688 59.617188 178.34375 58.878906 177.921875 58.773438 C 177.65625 59.351562 177.976562 60.09375 178.136719 60.621094 C 178.34375 61.359375 178.660156 62.042969 178.875 62.730469 C 180.402344 66.898438 181.035156 70.910156 182.039062 74.871094 C 182.777344 77.453125 183.199219 80.09375 183.464844 82.679688 C 183.78125 85.214844 183.625 87.695312 183.78125 90.171875 C 183.886719 92.601562 183.78125 95.082031 183.941406 97.5625 C 184.046875 100.046875 184.046875 102.417969 183.730469 104.898438 C 183.304688 108.433594 182.777344 112.023438 182.039062 115.402344 C 181.777344 116.613281 181.671875 117.832031 181.351562 118.886719 C 181.035156 119.835938 180.667969 120.835938 180.351562 121.839844 C 179.769531 124.003906 179.082031 125.851562 178.027344 127.910156 C 177.554688 128.964844 177.078125 130.074219 176.65625 131.074219 C 174.703125 135.5625 172.855469 139.363281 170.585938 143.636719 C 170.113281 144.585938 169.636719 145.75 168.898438 146.75 C 168 147.964844 166.417969 149.445312 166.996094 150.550781 C 165.097656 153.136719 162.828125 155.882812 160.03125 157.992188 C 159.664062 157.203125 160.453125 156.882812 161.191406 156.566406 C 161.507812 156.039062 161.507812 155.460938 162.089844 155.039062 C 162.089844 155.144531 162.039062 155.300781 161.984375 155.40625 C 162.039062 155.722656 162.722656 155.039062 162.722656 154.878906 C 162.722656 154.507812 162.988281 154.140625 162.722656 153.878906 C 161.933594 154.035156 161.984375 154.824219 161.402344 155.195312 C 161.085938 155.460938 160.613281 155.40625 160.296875 155.722656 C 159.980469 155.988281 160.085938 156.726562 159.820312 156.992188 C 159.449219 157.414062 158.609375 157.253906 158.132812 157.675781 C 157.605469 158.097656 157.921875 158.996094 157.390625 159.367188 C 156.8125 159.789062 156.074219 159.523438 155.492188 159.945312 C 154.753906 160.421875 154.753906 161.265625 154.492188 162.058594 C 153.75 162.320312 153.011719 163.324219 152.113281 163.746094 C 151.691406 163.90625 151.21875 163.746094 150.953125 164.0625 C 150.636719 164.378906 150.847656 164.855469 150.847656 165.328125 C 151.429688 165.226562 151.746094 165.75 152.273438 165.59375 C 153.171875 165.433594 154.121094 164.222656 155.28125 163.535156 C 158.5 161.527344 160.347656 158.835938 162.40625 156.621094 C 164.675781 154.191406 166.839844 151.871094 168.847656 149.496094 C 169.53125 148.652344 170.324219 147.910156 171.0625 147.121094 C 171.328125 146.75 171.535156 146.222656 171.855469 145.855469 C 172.855469 144.480469 173.648438 143.375 174.335938 142 C 175.285156 140.207031 176.394531 138.519531 177.289062 136.828125 C 179.136719 133.1875 180.933594 129.597656 181.933594 125.957031 C 182.515625 124.058594 183.148438 122.210938 183.625 120.3125 C 184.46875 117.460938 184.941406 114.558594 185.683594 111.761719 C 186.316406 109.488281 187.105469 106.800781 187 104.476562 C 187 103.949219 186.738281 103.367188 186.789062 102.789062 C 186.839844 101.785156 187.316406 100.992188 187.371094 100.046875 C 187.527344 98.460938 187.261719 96.824219 187.261719 95.1875 C 187.261719 93.550781 187.210938 91.914062 187.105469 90.332031 C 186.839844 87.058594 187.105469 83.734375 186.523438 80.464844 C 186.15625 78.722656 185.894531 77.136719 185.683594 75.394531 C 185.46875 73.65625 184.730469 71.914062 184.203125 70.121094 C 183.675781 68.378906 183.359375 66.53125 182.621094 64.789062 C 182.304688 63.890625 181.777344 62.996094 181.457031 61.992188 C 181.089844 61.042969 180.613281 60.199219 180.246094 59.246094 C 179.980469 58.664062 180.195312 58.085938 179.191406 57.980469 C 178.925781 57.769531 179.191406 58.507812 178.976562 58.351562 C 178.398438 57.292969 178.238281 56.398438 177.820312 55.394531 C 179.398438 55.867188 178.503906 54.128906 178.027344 53.019531 C 177.65625 52.015625 177.394531 51.277344 177.132812 50.644531 C 176.394531 48.746094 175.125 46.898438 174.121094 45.105469 C 173.121094 43.308594 172.011719 41.566406 170.957031 40.035156 C 169.320312 37.714844 167.527344 35.234375 165.941406 33.226562 C 165.308594 32.488281 164.730469 31.699219 164.203125 31.066406 C 163.25 30.0625 162.039062 29.269531 161.035156 28.214844 C 159.925781 27.210938 158.816406 26.261719 157.8125 25.207031 C 155.703125 22.988281 153.433594 21.511719 151.324219 19.769531 C 147.523438 16.605469 143.355469 14.4375 139.289062 12.273438 C 138.710938 11.957031 137.972656 11.695312 137.496094 11.378906 C 136.808594 10.851562 135.964844 9.953125 135.015625 10.480469 C 134.382812 9.742188 133.222656 10.164062 133.433594 11.0625 Z M 15.636719 48.375 C 15.742188 47.6875 16.636719 47.480469 17.21875 46.949219 C 18.378906 45.945312 19.222656 44.46875 20.226562 43.148438 C 22.125 40.617188 23.707031 37.925781 26.03125 35.445312 C 26.664062 34.8125 27.242188 34.335938 27.929688 33.652344 C 28.195312 33.28125 29.515625 32.171875 28.933594 31.539062 C 28.300781 30.851562 26.1875 32.542969 25.976562 32.804688 C 25.925781 31.960938 28.828125 31.011719 28.246094 29.902344 C 27.5625 28.636719 26.507812 30.535156 26.242188 31.066406 C 25.1875 32.859375 23.707031 33.914062 22.339844 35.550781 C 21.917969 36.078125 21.4375 36.5 21.015625 37.027344 C 20.597656 37.503906 20.382812 38.03125 19.960938 38.558594 C 19.378906 39.457031 18.378906 40.511719 17.375 41.621094 C 16.53125 42.621094 15.160156 43.941406 14.949219 44.785156 C 14.789062 45.3125 15 45.84375 14.894531 46.371094 C 14.789062 46.6875 14.527344 47.003906 14.316406 47.371094 C 13.839844 48.585938 13.207031 49.746094 13.207031 51.066406 C 13.3125 51.171875 13.46875 51.015625 13.574219 51.066406 C 13.417969 51.648438 12.941406 52.175781 13.101562 52.914062 C 13.734375 52.597656 14.050781 51.648438 14.527344 51.121094 C 16.058594 51.488281 17.164062 49.324219 15.636719 48.375 Z M 32.945312 26.472656 C 34.476562 27.316406 35.003906 24.359375 33.421875 24.730469 C 32.628906 24.890625 32.523438 25.578125 31.941406 26.101562 C 30.886719 27.105469 29.144531 28.585938 28.777344 29.480469 C 30.359375 28.742188 31.203125 27.316406 32.945312 26.472656 Z M 34.6875 24.414062 C 34.898438 24.625 36.007812 24.625 36.375 24.359375 C 36.851562 24.046875 36.796875 23.519531 36.375 23.09375 C 35.53125 22.09375 33.84375 23.570312 34.6875 24.414062 Z M 39.226562 21.878906 C 39.171875 21.566406 38.75 21.246094 38.539062 20.929688 C 37.273438 21.140625 38.382812 22.464844 39.226562 21.878906 Z M 44.027344 17.605469 C 45.503906 16.496094 47.933594 16.707031 48.039062 15.125 C 47.035156 15.019531 45.503906 15.867188 44.34375 16.605469 C 43.925781 16.867188 43.660156 17.238281 43.289062 17.449219 C 42.761719 17.765625 41.8125 17.710938 41.917969 18.449219 C 42.5 18.714844 43.183594 18.503906 43.867188 18.238281 C 44.078125 18.082031 43.867188 17.765625 44.027344 17.605469 Z M 48.511719 14.863281 C 48.355469 15.074219 48.410156 15.335938 48.566406 15.652344 C 49.042969 16.023438 49.726562 15.230469 49.148438 14.863281 C 49.359375 14.757812 49.304688 14.597656 49.464844 14.492188 C 49.09375 13.648438 47.773438 14.015625 47.300781 14.492188 C 47.617188 14.914062 48.144531 14.648438 48.511719 14.863281 " fill-opacity="1" fill-rule="evenodd"/></g><path fill="#000000" d="M 82.132812 0.980469 C 81.867188 2.039062 80.023438 2.195312 78.757812 2.511719 C 78.175781 2.617188 77.121094 3.09375 77.066406 2.25 C 76.960938 1.667969 77.910156 1.5625 78.332031 1.402344 C 79.230469 1.140625 81.027344 0.0859375 82.132812 0.980469 " fill-opacity="1" fill-rule="evenodd"/><path fill="#000000" d="M 108.414062 39.667969 C 108.625 40.140625 110.050781 39.878906 110.15625 40.511719 C 110.261719 41.09375 109.3125 41.410156 108.574219 41.304688 C 107.78125 41.144531 106.886719 40.195312 106.464844 39.457031 C 105.988281 38.558594 105.828125 37.449219 105.460938 36.5 C 105.144531 35.707031 104.5625 34.917969 104.191406 33.914062 C 103.5625 32.121094 102.449219 30.378906 101.710938 28.742188 C 99.65625 28.425781 97.542969 28.160156 95.539062 27.792969 C 94.957031 28.480469 94.851562 29.691406 94.695312 30.800781 C 94.484375 32.226562 94.269531 33.386719 94.164062 35.074219 C 94.113281 37.1875 94.007812 40.40625 91.582031 39.929688 C 91.050781 39.824219 90.15625 39.191406 89.785156 38.769531 C 89.46875 38.402344 89.363281 37.660156 89.46875 37.082031 C 89.628906 35.761719 90.417969 34.125 90.578125 32.648438 C 90.683594 31.539062 90.3125 30.328125 90.417969 29.269531 C 90.523438 28.109375 90.839844 27.210938 91.15625 26.367188 C 90.417969 24.941406 91.582031 23.09375 91.582031 21.671875 C 91.582031 21.246094 91.367188 20.824219 91.367188 20.457031 C 91.367188 18.765625 92.105469 17.128906 92.054688 15.441406 C 91.898438 15.335938 91.316406 15.601562 91.15625 15.230469 C 91.210938 14.386719 91 12.960938 91.632812 12.382812 C 91.898438 12.382812 91.898438 12.699219 92.160156 12.804688 C 92.742188 12.222656 92.003906 10.269531 93.058594 10.21875 C 93.269531 11.429688 92.214844 12.066406 92.320312 13.492188 C 92.636719 13.121094 92.582031 12.171875 93.214844 11.957031 C 93.425781 11.855469 93.585938 11.957031 93.902344 11.957031 C 94.851562 11.855469 96.171875 11.855469 97.28125 12.011719 C 98.125 12.117188 99.234375 12.644531 100.339844 12.699219 C 101.660156 12.804688 102.558594 12.804688 103.71875 13.171875 C 104.828125 13.492188 105.617188 13.4375 106.09375 14.125 C 108.257812 12.910156 112.371094 18.292969 109.578125 19.242188 C 110.421875 20.296875 109.945312 22.09375 109.578125 23.199219 C 110.050781 23.09375 110.210938 22.355469 111.003906 22.410156 C 112.53125 22.566406 110.84375 25.152344 110.367188 25.679688 C 109.839844 26.210938 108.996094 26.578125 108.363281 27.054688 C 107.625 27.632812 106.992188 28.054688 106.515625 28.425781 C 107.625 32.277344 109.945312 34.917969 111.003906 38.769531 C 109.894531 37.875 109.472656 36.289062 108.679688 35.128906 C 108.890625 36.605469 110.210938 37.765625 109.628906 39.140625 C 109.894531 39.191406 110.683594 39.03125 110.792969 39.457031 C 110.738281 40.195312 109.628906 40.089844 109.417969 39.5625 C 109.207031 39.71875 108.785156 39.878906 108.523438 39.667969 C 108.523438 39.667969 108.46875 39.667969 108.414062 39.667969 Z M 98.441406 14.703125 C 97.964844 14.597656 98.28125 14.914062 98.441406 14.703125 Z M 105.988281 16.867188 C 104.878906 17.5 103.824219 16.707031 102.714844 16.550781 C 101.503906 16.339844 100.289062 16.390625 99.023438 16.285156 C 98.597656 16.761719 97.542969 17.078125 97.386719 17.871094 C 97.332031 18.132812 97.4375 18.558594 97.4375 18.765625 C 97.386719 19.507812 96.964844 20.140625 96.699219 20.878906 C 96.539062 21.140625 96.539062 21.511719 96.433594 21.777344 C 96.222656 22.355469 95.644531 22.832031 95.960938 23.835938 C 96.277344 23.9375 96.277344 24.359375 96.59375 24.414062 C 98.96875 24.46875 101.449219 25.785156 103.5625 25.417969 C 104.035156 25.3125 104.457031 24.941406 104.988281 24.890625 C 105.410156 24.835938 105.882812 24.996094 106.304688 24.890625 C 106.886719 24.785156 107.414062 24.203125 107.992188 24.046875 C 107.835938 23.148438 108.785156 22.832031 109.101562 22.25 C 109.523438 21.40625 108.996094 20.5625 109.15625 19.402344 C 108.152344 18.449219 107.253906 17.5 105.988281 16.867188 Z M 93.269531 24.941406 C 93.214844 25.363281 93.320312 24.679688 93.269531 24.941406 Z M 107.835938 33.335938 C 107.941406 33.542969 107.570312 32.964844 107.835938 33.335938 Z M 107.253906 35.65625 C 107.519531 35.550781 107.570312 35.285156 107.886719 35.183594 C 107.730469 35.128906 107.730469 34.917969 107.519531 34.96875 C 107.46875 35.234375 106.992188 35.339844 107.253906 35.65625 " fill-opacity="1" fill-rule="evenodd"/><path fill="#000000" d="M 72.316406 24.625 C 73.054688 24.046875 73.582031 24.625 74.269531 24.835938 C 74.902344 25.046875 75.324219 24.996094 75.746094 25.417969 C 76.484375 26.050781 76.644531 27.210938 77.066406 28.003906 C 77.910156 28.320312 78.175781 29.058594 78.648438 29.796875 C 79.179688 30.535156 79.96875 31.167969 80.601562 31.960938 C 82.027344 33.757812 83.558594 35.5 85.195312 37.242188 C 85.511719 37.558594 86.039062 37.925781 85.828125 38.453125 C 85.351562 38.769531 85.144531 38.347656 84.773438 38.191406 C 84.980469 39.402344 83.820312 39.613281 83.136719 39.457031 C 82.554688 39.296875 82.132812 38.507812 81.660156 37.925781 C 81.128906 37.398438 80.601562 36.921875 80.234375 36.449219 C 79.230469 35.234375 78.492188 34.074219 77.59375 33.226562 C 76.222656 33.441406 74.957031 33.808594 73.6875 34.125 C 72.421875 34.441406 71.3125 34.917969 70.101562 35.339844 C 69.730469 35.445312 69.148438 35.550781 68.621094 35.550781 C 68.726562 37.558594 68.570312 39.507812 68.726562 41.566406 C 68.777344 42.570312 69.203125 43.679688 69.042969 44.679688 C 68.726562 46.421875 65.824219 47.320312 64.980469 45.578125 C 64.929688 45.421875 64.929688 45.105469 64.820312 44.839844 C 64.558594 43.996094 63.875 43.097656 64.820312 42.410156 C 64.398438 41.199219 64.347656 39.613281 64.398438 37.925781 C 64.558594 37.609375 64.929688 37.503906 65.195312 37.242188 C 63.34375 34.285156 64.191406 29.109375 64.191406 24.359375 C 64.191406 22.671875 63.925781 20.824219 64.136719 19.402344 C 64.242188 18.503906 64.875 17.027344 65.402344 16.707031 C 66.457031 16.023438 67.355469 16.867188 68.199219 17.5 C 68.621094 17.921875 69.253906 18.292969 69.464844 18.609375 C 69.625 18.875 69.625 19.1875 69.730469 19.453125 C 70.257812 20.5625 71.15625 21.460938 71.738281 22.621094 C 71.839844 23.359375 72.105469 24.046875 72.316406 24.625 Z M 68.09375 24.890625 C 68.304688 27.371094 68.148438 30.328125 68.464844 32.699219 C 70.574219 31.855469 72.898438 31.277344 75.21875 30.640625 C 74.796875 28.320312 72.738281 27.582031 72.210938 25.3125 C 71.738281 25.046875 71.417969 24.679688 71.367188 24.097656 C 71.050781 23.992188 70.574219 23.9375 70.101562 23.992188 C 69.308594 23.519531 68.992188 22.777344 68.09375 22.410156 C 67.671875 23.253906 68.042969 24.046875 68.09375 24.890625 Z M 66.089844 41.726562 C 66.089844 41.410156 66.195312 40.882812 66.035156 40.617188 C 65.933594 40.988281 65.824219 41.515625 66.089844 41.726562 " fill-opacity="1" fill-rule="evenodd"/><path fill="#000000" d="M 118.441406 43.414062 C 117.914062 43.257812 117.019531 42.886719 116.859375 41.988281 C 116.859375 41.671875 117.019531 41.304688 116.964844 41.039062 C 116.859375 40.828125 116.753906 40.828125 116.597656 40.617188 C 115.910156 40.035156 116.652344 39.71875 117.175781 39.507812 C 117.28125 38.980469 117.597656 38.664062 117.808594 38.191406 C 117.808594 37.765625 117.546875 38.03125 117.441406 37.820312 C 117.28125 36.972656 118.074219 36.554688 118.230469 35.972656 C 118.335938 35.5 118.179688 34.863281 118.390625 34.390625 C 118.550781 33.964844 119.128906 33.703125 119.445312 33.28125 C 119.550781 33.015625 119.550781 32.59375 119.710938 32.171875 C 120.132812 31.117188 120.925781 29.585938 121.1875 28.425781 C 121.242188 28.214844 121.1875 27.953125 121.292969 27.738281 C 121.503906 27.210938 122.085938 26.84375 122.191406 26.367188 C 122.242188 26.15625 122.191406 25.839844 122.242188 25.523438 C 122.402344 24.941406 123.351562 24.253906 123.511719 23.253906 C 123.617188 23.09375 123.511719 22.882812 123.511719 22.726562 C 123.617188 22.464844 123.878906 22.25 123.984375 21.988281 C 124.089844 21.671875 124.035156 21.246094 124.195312 20.929688 C 124.355469 20.5625 124.671875 20.296875 124.882812 19.929688 C 125.039062 19.664062 125.039062 19.296875 125.199219 19.085938 C 125.304688 18.875 125.675781 18.714844 125.9375 18.398438 C 126.199219 18.027344 126.199219 17.660156 126.519531 17.449219 C 127.046875 17.128906 127.679688 17.289062 128.257812 17.605469 C 129.472656 17.449219 130.53125 17.921875 130.421875 19.242188 C 130.371094 19.613281 130.105469 20.140625 129.84375 20.722656 C 129.316406 22.199219 128.738281 23.835938 128.152344 25.101562 C 126.042969 29.851562 123.773438 34.125 121.609375 38.929688 C 120.765625 40.882812 120.183594 42.410156 118.441406 43.414062 " fill-opacity="1" fill-rule="evenodd"/><path fill="#000000" d="M 140.558594 43.308594 C 140.453125 43.570312 140.132812 43.730469 139.871094 43.570312 C 139.816406 44.257812 140.132812 44.574219 140.398438 45.050781 C 141.453125 44.996094 142.035156 45.523438 142.5625 46.054688 C 143.246094 45.261719 144.25 45.945312 144.621094 46.738281 C 145.042969 47.6875 145.253906 49.90625 144.9375 51.277344 C 144.621094 52.808594 143.617188 53.863281 142.511719 54.285156 C 141.875 55.550781 140.609375 55.867188 139.078125 55.816406 C 138.710938 55.816406 138.34375 55.660156 138.023438 55.605469 C 137.601562 55.550781 137.179688 55.710938 136.757812 55.710938 C 132.585938 55.816406 129.105469 52.914062 128.257812 49.167969 C 128.050781 48.375 127.785156 47.371094 127.890625 46.6875 C 127.890625 46.265625 128.257812 46 128.363281 45.523438 C 128.472656 44.945312 128.257812 44.363281 128.578125 43.835938 C 128.363281 43.464844 128.152344 43.042969 128.257812 42.621094 C 128.257812 42.148438 128.683594 42.042969 129.105469 41.621094 C 129.683594 40.988281 129.683594 40.300781 131.003906 40.617188 C 131.164062 40.722656 131.375 40.988281 131.636719 40.988281 C 132.007812 41.039062 132.269531 40.671875 132.640625 40.882812 C 133.167969 41.144531 132.851562 42.253906 132.484375 42.621094 C 132.640625 44.152344 132.375 45.523438 132.535156 47.054688 C 132.800781 48.636719 134.277344 51.015625 135.648438 51.699219 C 136.652344 52.230469 138.289062 52.335938 139.554688 51.648438 C 140.820312 50.433594 139.976562 47.792969 139.710938 46.054688 C 138.867188 44.945312 137.757812 43.941406 137.179688 42.464844 C 137.019531 42.148438 137.019531 41.726562 136.863281 41.355469 C 136.492188 40.351562 135.914062 39.457031 135.597656 38.453125 C 135.28125 37.398438 135.066406 36.132812 135.066406 34.8125 C 135.175781 32.699219 136.757812 30.113281 138.605469 29.269531 C 139.605469 28.742188 140.925781 28.585938 142.511719 28.792969 C 143.511719 28.902344 144.832031 29.058594 145.675781 29.375 C 146.363281 29.691406 146.839844 30.328125 147.785156 30.589844 C 149.160156 31.960938 150.691406 33.226562 151.429688 35.183594 C 151.691406 35.816406 151.796875 36.394531 152.113281 37.027344 C 152.378906 37.34375 152.695312 37.398438 152.855469 37.820312 C 152.960938 38.191406 152.695312 38.402344 152.695312 38.875 C 152.644531 39.71875 153.171875 40.671875 152.75 41.355469 C 151.851562 41.988281 152.007812 43.730469 150.636719 43.730469 C 149.6875 43.785156 147.785156 42.148438 147.628906 41.199219 C 147.628906 40.988281 147.734375 40.722656 147.734375 40.457031 C 147.679688 38.613281 147.152344 35.339844 146.207031 34.707031 C 145.835938 34.390625 145.042969 34.390625 144.464844 34.074219 C 143.984375 33.808594 143.617188 33.015625 143.089844 32.910156 C 142.5625 32.804688 141.558594 33.226562 141.191406 33.386719 C 140.242188 33.914062 138.550781 35.917969 139.132812 37.820312 C 139.289062 38.296875 139.871094 38.714844 140.132812 39.191406 C 140.292969 39.613281 140.347656 40.035156 140.453125 40.457031 C 140.664062 40.882812 141.085938 41.515625 141.347656 41.882812 C 141.558594 42.253906 142.828125 43.625 141.613281 43.941406 C 141.03125 44.046875 140.925781 43.730469 140.558594 43.308594 " fill-opacity="1" fill-rule="evenodd"/><path fill="#000000" d="M 54.109375 37.503906 C 54.160156 37.820312 53.949219 37.875 53.84375 38.082031 C 53.949219 38.242188 54.320312 38.136719 54.269531 38.453125 C 54.054688 38.769531 53.6875 39.085938 53.792969 39.457031 C 55.21875 40.195312 54.269531 41.304688 53.582031 42.359375 C 52.527344 43.941406 51.152344 45.789062 49.726562 46.632812 C 49.304688 47.636719 48.25 48.058594 47.722656 49.007812 C 49.570312 51.59375 52.050781 53.441406 53.949219 55.976562 C 53.898438 56.238281 53.6875 56.292969 53.582031 56.449219 C 53.632812 57.1875 53.527344 57.980469 52.945312 58.242188 C 52.734375 58.351562 52.472656 58.242188 52.15625 58.296875 C 51.363281 58.457031 50.992188 58.824219 50.152344 58.242188 C 49.9375 58.085938 49.832031 57.769531 49.675781 57.558594 C 48.988281 56.925781 48.144531 56.398438 47.457031 55.605469 C 46.457031 54.445312 45.453125 53.441406 44.503906 52.335938 C 43.605469 51.910156 42.8125 51.4375 42.8125 50.171875 C 41.28125 49.90625 40.914062 48.535156 40.546875 47.164062 C 39.59375 46.792969 38.382812 46.738281 38.328125 45.472656 C 36.902344 45.421875 35.847656 43.570312 34.898438 42.78125 C 34.265625 42.199219 32.363281 41.304688 33.421875 39.878906 C 33.578125 39.667969 33.84375 39.507812 34.210938 39.457031 C 34.316406 38.929688 34.738281 38.769531 35.003906 38.347656 C 35.109375 38.191406 35.109375 37.875 35.265625 37.660156 C 36.007812 36.605469 37.960938 36.605469 38.589844 35.339844 C 38.589844 35.234375 38.433594 35.285156 38.328125 35.234375 C 38.589844 34.652344 39.277344 34.125 39.960938 33.492188 C 40.546875 32.964844 41.019531 32.171875 41.550781 31.804688 C 42.339844 31.277344 43.761719 30.535156 44.714844 31.011719 C 47.195312 30.007812 50.519531 30.695312 51.734375 32.542969 C 52.050781 33.015625 52.050781 33.652344 52.367188 34.074219 C 52.894531 34.8125 53.476562 34.8125 53.632812 35.550781 C 53.792969 36.34375 53.371094 37.242188 54.109375 37.503906 Z M 46.402344 32.804688 C 47.140625 32.804688 48.144531 32.964844 48.832031 32.964844 C 48.039062 32.699219 47.722656 32.015625 46.71875 32.015625 C 46.773438 32.4375 46.457031 32.488281 46.402344 32.804688 Z M 44.871094 33.28125 C 45.292969 33.28125 45.558594 33.175781 45.609375 32.859375 C 45.558594 32.699219 45.347656 32.542969 45.1875 32.4375 C 45.03125 32.648438 44.765625 32.804688 44.871094 33.28125 Z M 50.941406 35.128906 C 51.046875 34.496094 50.414062 33.652344 49.886719 33.703125 C 50.363281 34.074219 50.363281 34.863281 50.941406 35.128906 Z M 47.300781 43.148438 C 47.617188 42.832031 47.828125 42.464844 48.09375 42.199219 C 48.460938 41.882812 48.9375 41.726562 49.253906 41.355469 C 50.414062 39.773438 50.570312 37.082031 49.410156 35.5 C 48.832031 34.707031 47.5625 33.914062 46.71875 33.914062 C 46.191406 33.914062 45.453125 34.179688 45.03125 34.390625 C 43.867188 35.128906 43.234375 35.917969 41.917969 37.027344 C 41.386719 37.503906 39.015625 39.085938 39.121094 39.929688 C 39.121094 40.300781 39.960938 41.144531 40.28125 41.460938 C 41.761719 43.097656 43.078125 44.417969 44.503906 45.738281 C 45.136719 44.574219 46.402344 43.941406 47.300781 43.148438 Z M 38.75 38.453125 C 38.855469 38.136719 39.703125 37.820312 39.492188 37.609375 C 39.277344 37.925781 38.644531 38.082031 38.75 38.453125 Z M 35.585938 38.242188 C 35.425781 38.453125 35.796875 38.082031 35.585938 38.242188 Z M 38.589844 42.042969 C 38.382812 42.042969 38.171875 41.726562 37.960938 41.882812 C 38.066406 42.042969 38.433594 42.253906 38.589844 42.042969 Z M 38.699219 42.199219 C 38.699219 42.253906 38.644531 42.148438 38.699219 42.199219 Z M 50.730469 54.550781 C 50.570312 54.496094 50.46875 53.96875 50.253906 54.179688 C 50.414062 54.234375 50.570312 54.65625 50.730469 54.550781 " fill-opacity="1" fill-rule="evenodd"/><path fill="#000000" d="M 59.863281 61.464844 C 59.863281 61.09375 60.285156 60.566406 60.546875 60.144531 C 60.390625 60.09375 59.96875 60.460938 59.652344 60.460938 C 54.792969 65.949219 50.097656 72.917969 48.09375 82.101562 C 46.507812 89.4375 46.507812 98.828125 48.25 104.792969 C 49.464844 109.015625 51.734375 115.347656 54.792969 119.78125 C 55.480469 120.679688 56.90625 122.789062 59.230469 125.007812 C 61.761719 127.488281 65.507812 130.074219 67.089844 131.445312 C 69.148438 133.1875 66.667969 134.03125 65.933594 133.925781 C 65.769531 133.925781 64.398438 133.1875 63.1875 132.183594 C 57.011719 127.4375 53 123.582031 49.042969 116.613281 C 39.644531 100.097656 41.917969 74.605469 54.847656 61.148438 C 55.375 60.621094 55.957031 60.09375 56.378906 59.566406 C 56.851562 58.984375 57.222656 58.296875 57.699219 57.769531 C 58.332031 57.085938 59.757812 56.027344 60.8125 55.921875 C 61.023438 56.027344 61.023438 56.554688 60.863281 56.765625 C 61.339844 56.554688 61.445312 56.1875 61.816406 55.816406 C 62.339844 55.234375 63.238281 54.867188 63.503906 54.179688 C 63.609375 53.917969 63.503906 53.652344 63.660156 53.390625 C 63.875 52.914062 64.453125 52.335938 65.085938 52.015625 C 65.296875 51.910156 65.664062 51.910156 65.878906 51.804688 C 66.511719 51.488281 66.722656 50.75 67.089844 50.488281 C 67.511719 50.222656 68.148438 50.328125 68.777344 50.171875 C 70.46875 49.746094 71.101562 47.53125 73.160156 47.265625 C 74.375 47.109375 75.851562 47.636719 75.851562 48.636719 C 75.800781 49.429688 75.007812 49.589844 74.269531 49.800781 C 73.953125 49.851562 74.113281 50.328125 73.847656 50.433594 C 71.3125 51.488281 69.464844 53.285156 66.988281 54.445312 C 66.246094 54.867188 66.035156 55.660156 65.453125 56.1875 C 64.191406 57.507812 62.339844 58.402344 60.972656 59.667969 C 61.023438 60.460938 60.175781 60.832031 59.863281 61.464844 Z M 55.746094 65.054688 C 56.484375 63.890625 57.488281 62.570312 58.117188 61.464844 C 57.222656 62.519531 56.21875 63.839844 55.746094 65.054688 " fill-opacity="1" fill-rule="evenodd"/></svg>